<?xml version="1.0" encoding="utf-8"?>
<!-- Generator: Adobe Illustrator 25.0.1, SVG Export Plug-In . SVG Version: 6.00 Build 0)  -->
<svg version="1.1" id="Layer_1" xmlns="http://www.w3.org/2000/svg" xmlns:xlink="http://www.w3.org/1999/xlink" x="0px" y="0px"
	 viewBox="0 0 389.5 389.5" style="enable-background:new 0 0 389.5 389.5;" xml:space="preserve">
<style type="text/css">
	.st0{fill:#2F74B3;}
</style>
<path class="st0" d="M194.8,0C87.2,0,0,87.2,0,194.7s87.2,194.8,194.8,194.8s194.8-87.2,194.8-194.8S302.5,0.1,195,0H194.8z
	 M305.2,136.6L187.9,274.8c-3.3,4.1-8.4,6.4-13.7,6.3c-5.2,0-10.2-2.3-13.7-6.3l-76.3-90c-6.3-7.6-5.2-18.9,2.4-25.2
	c7.1-5.9,17.6-5.4,24.1,1.2l0.8,1l62.7,73.8l103.7-122.1c6.7-7.3,18-7.7,25.3-1.1C310.1,118.7,310.9,129.2,305.2,136.6z"/>
</svg>
