<svg id="Layer_1" data-name="Layer 1" xmlns="http://www.w3.org/2000/svg" viewBox="0 0 360 360"><path d="M380,60H100a40,40,0,0,0-40,40V380a40,40,0,0,0,40,40H380a40,40,0,0,0,40-40V100A40,40,0,0,0,380,60ZM180,340H129.54V200H180ZM153.88,174.34c-15.42,0-25.72-10.28-25.72-24s10.28-24,27.42-24c15.42,0,25.72,10.28,25.72,24S171,174.34,153.88,174.34ZM360,340H311.16V263.48c0-21.16-13-26-17.9-26s-21.16,3.26-21.16,26V340H221.64V200H272.1v19.54C278.6,208.14,291.62,200,316,200s44,19.54,44,63.48Z" transform="translate(-60 -60)"/></svg>