<?xml version="1.0" encoding="utf-8"?>
<!-- Generator: Adobe Illustrator 25.0.1, SVG Export Plug-In . SVG Version: 6.00 Build 0)  -->
<svg version="1.1" id="Layer_1" xmlns="http://www.w3.org/2000/svg" xmlns:xlink="http://www.w3.org/1999/xlink" x="0px" y="0px"
	 viewBox="0 0 388.5 286.2" style="enable-background:new 0 0 388.5 286.2;" xml:space="preserve">
<style type="text/css">
	.st0{fill:#263238;}
	.st1{fill:#FFBF9D;}
	.st2{fill:#FF9A6C;}
	.st3{fill:#455A64;}
	.st4{opacity:0.3;}
	.st5{fill:#F5F5F5;}
	.st6{fill:#2F74B3;}
	.st7{fill:#E0E0E0;}
	.st8{fill:#FFFFFF;}
</style>
<path class="st0" d="M125.6,17.6c-1.1-3.3-4.1-5.6-7.6-5.7c0.9-2.5-0.8-5.3-3.2-6.4c-2.5-0.9-5.2-0.7-7.6,0.6
	c-1.7,0.8-3.2,1.9-5,2.3C99.8,9,97.4,8.2,95,8.1c-5.1-0.1-9.8,2.6-12.2,7.1c-0.8,1.5-1.3,3.2-2.2,4.7c-0.7,1.2-1.7,2.2-2.4,3.4
	c-2,3.6-1.7,8,0.8,11.3l34.1-7.8c3.7,2.6,8.8,1.6,11.4-2.1C125.9,22.7,126.3,20.1,125.6,17.6L125.6,17.6z"/>
<polygon class="st1" points="204.1,143.2 171.2,139.9 169.3,157 206.5,155.7 "/>
<path class="st1" d="M229.1,153.2c-0.4,0.6-1.2,0.9-1.9,0.7c-0.2,0-0.3-0.1-0.4-0.2c-1-0.5-0.5-2.6-0.5-2.6l-4.8-1.6
	c0,0-7.1,3.1-9.8,5.5s-8.2-0.8-8.2-0.8l-0.4-10.9l10.4-6.8c0,0-0.6,0.4,0.2-1s3.6-0.4,3.6-0.4c0.6-0.7,2.5-0.7,2.5-0.7l7.8,2.2
	c1.6,0.4,2.9,1.6,3.6,3.1l2.5,5.9c0,0,1.2,4.1,0.8,5c-0.4,0.7-1.2,1.1-2,0.8c0,0-0.8,2.5-1.5,2.5
	C230.3,153.9,229.7,153.6,229.1,153.2L229.1,153.2z"/>
<path class="st2" d="M213.6,153.7c0.2-0.1,0.4-0.2,0.5-0.3l1.5-0.9c1.9-1,3.8-2,5.8-2.8h-0.1l4.8,1.6l-0.1-0.2
	c-0.1,0.4-0.1,0.8-0.1,1.2c0,0.5,0.1,0.9,0.4,1.3c0.2,0.2,0.4,0.3,0.6,0.4c0.2,0.1,0.5,0.1,0.7,0.1c0.5,0,1-0.2,1.3-0.5
	c0.1-0.1,0.2-0.2,0.3-0.3l0.1-0.1l0,0l0,0l-0.3,0.1l0,0l0.1,0.1c0.2,0.1,0.4,0.2,0.6,0.3c0.2,0.1,0.4,0.2,0.6,0.3
	c0.1,0,0.2,0.1,0.4,0.1c0.2,0,0.3,0,0.5,0c0.2-0.1,0.4-0.3,0.6-0.6c0.1-0.2,0.2-0.4,0.4-0.6c0.2-0.4,0.4-0.9,0.5-1.4l-0.3,0.1
	c0.7,0.3,1.4,0.1,1.9-0.3c0.3-0.2,0.4-0.6,0.5-0.9c0-0.3,0-0.7,0-1c-0.2-1.3-0.4-2.5-0.8-3.8l0,0l0,0l-1.4-3.1l-0.9-2
	c-0.3-0.7-0.6-1.3-1-2c-0.4-0.6-1-1.1-1.6-1.5c-0.6-0.3-1.3-0.6-2-0.7l-7.4-2h-0.1c-0.5,0-0.9,0.1-1.4,0.1c-0.5,0.1-0.9,0.3-1.3,0.6
	h0.3c-0.8-0.5-1.7-0.6-2.6-0.3c-0.7,0.4-1.3,1-1.6,1.8l0.1-0.1l-7.2,4.6l-1.9,1.3c-0.2,0.1-0.5,0.3-0.7,0.5c0.3-0.1,0.5-0.2,0.7-0.4
	l2-1.2l7.2-4.5l0,0v-0.1c0.2-0.7,0.7-1.2,1.4-1.6c0.7-0.3,1.5-0.2,2.2,0.2l0.2,0.1l0.1-0.1c0.3-0.2,0.6-0.4,1-0.5
	c0.4-0.1,0.8-0.1,1.3-0.1l0,0l7.4,2.1c0.6,0.1,1.3,0.4,1.9,0.7c0.6,0.3,1.1,0.8,1.4,1.3c0.4,0.6,0.7,1.2,0.9,1.9
	c0.3,0.7,0.6,1.3,0.9,2l1.4,3.1l0,0c0.4,1.2,0.6,2.4,0.8,3.7c0,0.3,0,0.6,0,0.9c0,0.2-0.2,0.5-0.3,0.6c-0.4,0.3-0.9,0.4-1.4,0.2
	l-0.2-0.1l-0.1,0.2c-0.1,0.4-0.3,0.9-0.5,1.3c-0.1,0.4-0.4,0.7-0.7,1c-0.1,0-0.1,0-0.2,0l-0.3-0.1c-0.2-0.1-0.4-0.2-0.6-0.2
	c-0.2-0.1-0.4-0.2-0.6-0.3l-0.1-0.1l0,0l-0.3,0.1l0,0l0,0v0.1c-0.1,0.1-0.1,0.1-0.2,0.2c-0.3,0.2-0.6,0.4-1,0.4
	c-0.2,0-0.4,0-0.5-0.1c-0.2,0-0.3-0.1-0.4-0.3c-0.3-0.7-0.4-1.4-0.2-2.1v-0.2l-0.2,0l-4.8-1.6h-0.1h-0.1c-2,0.8-3.9,1.8-5.8,2.9
	c-0.6,0.4-1.1,0.7-1.5,0.9C213.9,153.5,213.7,153.6,213.6,153.7z"/>
<path class="st2" d="M218.2,138.3c0.8,0.5,1.6,0.9,2.4,1.2c2.1,0.8,4.3,1.3,6.5,1.5l-0.2-0.2c0.1,0.4,0.1,0.9,0.3,1.3
	c0.6,2.5,1.6,4.8,3.1,6.9c0.4,0.6,0.9,1.2,1.4,1.8c0.4,0.4,0.6,0.6,0.6,0.6s-0.7-1-1.8-2.6c-1.3-2.1-2.3-4.4-2.9-6.8
	c-0.1-0.4-0.2-0.9-0.2-1.2v-0.2h-0.2c-2.2-0.2-4.3-0.7-6.4-1.3C219.9,138.8,219.1,138.5,218.2,138.3z"/>
<path class="st2" d="M225,144.1c0.2,3.4,1.7,6.5,4.2,8.8c0.1-0.1-1.3-1.8-2.5-4.2S225.2,144.1,225,144.1z"/>
<path class="st2" d="M202.3,150.8c0,0,0.1,0.1,0.2,0.2c0.2,0.2,0.5,0.3,0.7,0.4c1,0.5,2,0.8,3.1,0.9c1.6,0.1,3.3-0.2,4.8-0.9
	c1.9-1,3.4-2.5,4.2-4.5l-0.3,0.1c1.8,0.7,3.8,1.1,5.7,1.2c0.7,0,1.5,0,2.2,0c0.7,0,1.5-0.1,2.1-0.4c0.4-0.1,0.7-0.4,0.9-0.8
	c0.2-0.4,0.2-0.8,0-1.2c-0.1-0.4-0.4-0.7-0.8-0.8l-0.9-0.4c-2.3-1-4.5-1.7-6.3-2.3s-3.3-1-4.3-1.3c-0.5-0.2-1.1-0.3-1.6-0.3
	c0.5,0.2,1,0.4,1.6,0.5c1,0.3,2.5,0.8,4.3,1.4s3.9,1.4,6.2,2.4l0.9,0.4c0.2,0.1,0.4,0.3,0.5,0.5c0.1,0.2,0.1,0.5,0,0.8
	c-0.1,0.2-0.4,0.4-0.6,0.5c-0.6,0.2-1.3,0.3-2,0.3c-0.7,0-1.4,0-2.1,0c-1.9-0.1-3.8-0.5-5.6-1.1l-0.2-0.1l-0.1,0.2
	c-0.8,1.8-2.2,3.4-4,4.3c-1.4,0.7-3,1.1-4.6,1c-1-0.1-2-0.3-3-0.7C202.7,151,202.3,150.8,202.3,150.8z"/>
<path class="st1" d="M97.5,100.9c-8.1-0.2-14.6-6.8-14.6-14.9l-0.6-49.5c-0.6-13.3,6.5-24.7,19.4-24.9h1.2
	c12.1,0.5,21.7,10.4,22.2,22.8c0.4,11.5,0.9,22.7,0.6,28.8c-0.7,12.8-13.3,14-13.3,14s0,4.8,0,8.5c0.1,8.2-6.4,15-14.7,15.2
	C97.6,100.9,97.6,100.9,97.5,100.9L97.5,100.9z"/>
<path class="st2" d="M112.4,77.3c-5.8-0.3-11.3-2.2-15.9-5.6c0,0,3.5,9.8,15.9,9.1L112.4,77.3z"/>
<path class="st0" d="M120.5,45.8c0,1-0.8,1.7-1.8,1.8c-0.9,0-1.7-0.7-1.8-1.7c0,0,0,0,0,0c0-1,0.8-1.8,1.8-1.8
	C119.6,44,120.4,44.8,120.5,45.8C120.5,45.7,120.5,45.8,120.5,45.8z"/>
<path class="st0" d="M122.2,39.9c-0.2,0.2-1.5-0.9-3.4-0.9s-3.3,0.8-3.5,0.6s0.1-0.5,0.8-1c0.8-0.5,1.8-0.8,2.9-0.8
	c1,0,1.9,0.4,2.7,1C122.1,39.4,122.3,39.8,122.2,39.9z"/>
<path class="st0" d="M103.2,45.8c0,1-0.8,1.8-1.8,1.8c-1,0-1.7-0.7-1.8-1.7c0,0,0,0,0,0c0-1,0.8-1.8,1.8-1.8
	C102.4,44,103.1,44.8,103.2,45.8C103.2,45.7,103.2,45.8,103.2,45.8z"/>
<path class="st0" d="M103.5,39.6c-0.2,0.2-1.5-0.9-3.4-0.9s-3.3,0.8-3.5,0.6s0.1-0.5,0.8-1c0.8-0.5,1.8-0.8,2.9-0.8
	c1,0,1.9,0.4,2.7,1C103.4,39.1,103.6,39.5,103.5,39.6z"/>
<path class="st0" d="M109.7,55c1-0.3,2.1-0.4,3.1-0.4c0.5,0,1-0.1,1.1-0.4c0.1-0.5,0-1-0.3-1.5c-0.4-1.2-0.8-2.5-1.3-3.9
	c-1.8-5.5-3-10-2.8-10.1s1.8,4.3,3.6,9.9c0.4,1.4,0.8,2.6,1.2,3.9c0.3,0.6,0.4,1.3,0.2,2c-0.2,0.3-0.5,0.6-0.8,0.7
	c-0.3,0.1-0.6,0.1-0.8,0.1C111.8,55.2,110.8,55.1,109.7,55z"/>
<path class="st0" d="M104.3,33.5c-0.3,0.5-2.1-0.1-4.4-0.3s-4.1,0.1-4.4-0.4c-0.1-0.2,0.3-0.7,1.1-1c1.1-0.5,2.2-0.6,3.4-0.5
	c1.2,0.1,2.3,0.4,3.3,1C104.1,32.8,104.5,33.3,104.3,33.5z"/>
<path class="st0" d="M122.5,34.2c-0.4,0.4-2-0.1-3.8-0.1s-3.4,0.2-3.8-0.3c-0.2-0.2,0.1-0.7,0.8-1.1c2-1,4.3-0.9,6.1,0.3
	C122.5,33.5,122.7,34,122.5,34.2z"/>
<path class="st1" d="M82.9,46c-0.2-0.1-8.4-2.9-8.5,5.8s8.5,7,8.5,6.8S82.9,46,82.9,46z"/>
<path class="st2" d="M80.3,55.2c0,0-0.2,0.1-0.4,0.2c-0.4,0.1-0.8,0.1-1.1,0c-0.9-0.4-1.6-1.8-1.7-3.4c0-0.7,0.1-1.5,0.4-2.2
	c0.2-0.5,0.6-1,1.1-1.2c0.4-0.1,0.7,0.1,0.9,0.4c0.1,0.2,0.1,0.4,0.1,0.4s0.2-0.1,0.1-0.5c0-0.2-0.2-0.4-0.3-0.6
	c-0.2-0.2-0.5-0.3-0.8-0.2c-0.7,0.1-1.3,0.6-1.6,1.3c-0.4,0.8-0.5,1.6-0.5,2.4c0,1.8,0.9,3.4,2.1,3.8c0.5,0.1,1,0.1,1.3-0.2
	C80.3,55.4,80.4,55.2,80.3,55.2z"/>
<path class="st0" d="M89,24.2c0.4-2.3,2-4.1,4.2-4.8c1.9-0.6,3.9-0.6,5.7,0.1c4.8,1.7,13,4.4,15.1,2.7c3.1-2.4,3.8-4,3.8-4l1.7,1.8
	c1.4-0.8-2.8-5.4-6.1-6.9c-5.1-2.4-12.9-3.9-17.6-2.5c-5.7,1.6-10.4,4.5-13.2,9.9c-2.7,5.4-4,11.5-3.8,17.5c0,1.9-0.3,7.1,1.5,7.6
	c1.4,0.3,3.2,0.9,3.1,3.6c-0.1,1,0.2,1.9,0.9,2.7c1.6,1.7,3.4,0.1,4.3-1.5c1.9-3.4,2.1-7.5,2.2-11.4c0.3-2.8,0.1-5.6-0.5-8.3
	c-0.6-1.7-1.1-3.5-1.4-5.4C88.9,24.8,89,24.5,89,24.2z"/>
<path class="st0" d="M110,59.7c0.1,0.1-0.3,0.5-1.1,0.6c-1,0.2-2.1,0-3.1-0.5c-0.9-0.5-1.7-1.3-2.1-2.3c-0.3-0.8-0.2-1.2-0.1-1.3
	s0.9,1.7,2.7,2.6S110,59.4,110,59.7z"/>
<path class="st3" d="M118.9,176.2l-40.6-8.9l-26.1-64.7c0,0-34.9,7.7-40.6,27.3c-5,16.9-15.3,91.3,8.1,137.2
	c6.1,11.8,18.2,19.2,31.5,19.1h177.8c22.4,0,41.3-16.9,43.8-39.2c1-9,1.7-17.5,1.6-23.1l-28.5-21.9L118.9,176.2z"/>
<g class="st4">
	<path d="M227.5,198.7c12.5,16.3,27.7,31,45.9,40.6l0.9-22.2l-33.6-23.9L227.5,198.7z"/>
</g>
<path class="st5" d="M93.3,90c0,1.2,9.2,5,13.4,3.3c6.4-2.5,5.6-7.5,5.6-7.5l3.5,3.7l35.4,53.9l26.3,17.3l-42.1,13.3l-44.1-50.7
	L93.3,90z"/>
<path class="st6" d="M82.2,71.9l-0.9,1.7l-4.2,7.8L59.6,92.6l35.9,42.7l16.4,38.8l39.3,12.3c0,0-18.7-28.8-24.5-43.5
	c-5.8-14.7-6.4-14-11.7-24.8c-3.6-7.6-6.8-15.4-9.6-23.3L82.2,71.9z"/>
<path class="st6" d="M166.4,148.8l7.7,7.2l2.2,4.4l-28.7-13.3l-20.7-29c0,0-7.4-16.4-9.9-22.2c-2.7-6.2-4.7-9.6-4.7-9.6v-4.9
	l10.4,9.4l8.7,2.6l14.6,23L166.4,148.8z"/>
<path class="st6" d="M157.5,121.7c0,0-3.5-7.4-6.3-13.6c-6.4-13.9-21.5-15.2-21.5-15.2l16.7,46.3l20.4,14.5c0,0,5.8,2,6.6,0
	c0,0,4.2-15.3,4.1-15.4s-14.5-4.4-14.5-4.4l-5.8-13"/>
<path class="st0" d="M188.3,107.3l-19.9,33.1l20.8-0.6l18.3-30.6c0.5-0.8,0.2-1.9-0.6-2.4c-0.3-0.2-0.6-0.3-0.9-0.3h-16.2
	C189.2,106.4,188.6,106.7,188.3,107.3z"/>
<path class="st1" d="M111.9,144.7l49.7-5.9l8.4-14.6l6.5-3.6c1.1-0.6,2.5-0.5,3.5,0.2l0.6,0.5l4.9-0.6c0.8-0.1,1.7,0.1,2.4,0.5
	l3.4,2c0.5,0.3,0.8,0.8,0.8,1.4l0,0c0,0.9-0.7,1.6-1.7,1.6c-0.1,0-0.2,0-0.3,0l-3.3-0.6l-5.1,1.7c0,0,3.3,0.4,3.7,2.9
	s-1.2,2.6-1.2,2.6s3.5,2,1,5c0,0,2.9,1.9-0.4,5.6c-2.2,2.5-18,10.6-18,10.6l-54.9,20.3V144.7z"/>
<path class="st2" d="M185.1,137.6c0,0,0.4,0,0.8,0.5c0.6,0.7,0.8,1.6,0.5,2.5c-0.4,1.2-1.2,2.2-2.1,3.1c-1.1,1.1-2.2,2-3.5,2.9
	c-2.3,1.5-4.7,2.8-7.2,4c-1,0.5-2,0.9-3.1,1.3c1-0.6,2-1.1,3-1.6c2.4-1.2,4.8-2.5,7-4c1.2-0.8,2.4-1.8,3.5-2.8
	c0.9-0.7,1.7-1.7,2.1-2.8c0.3-0.7,0.1-1.6-0.3-2.2C185.6,137.9,185.3,137.7,185.1,137.6z"/>
<path class="st2" d="M180.4,121.3c-0.8,0.5-1.6,0.8-2.5,0.9c-0.8,0.3-1.7,0.5-2.6,0.4c0.8-0.5,1.6-0.8,2.5-0.9
	C178.6,121.5,179.5,121.3,180.4,121.3z"/>
<path class="st2" d="M186.8,125.5c-1.1,0.6-2.2,1.1-3.4,1.4c-1.2,0.5-2.4,0.8-3.6,0.9c1.1-0.6,2.2-1.1,3.4-1.4
	C184.4,125.9,185.6,125.6,186.8,125.5z"/>
<path class="st2" d="M180.9,132.1c-0.1,0-0.2-0.5-0.4-0.9s-0.4-0.9-0.3-1s0.6,0.2,0.8,0.8S181,132.1,180.9,132.1z"/>
<path class="st2" d="M182.6,137.8c-0.1,0-0.1-0.8-0.3-1.6s-0.6-1.4-0.5-1.5s0.7,0.4,1,1.4S182.7,137.8,182.6,137.8z"/>
<path class="st6" d="M61,91.7c-1.7,1-15.7,10.6-13.7,26.3S80.5,169.3,87,170l24.9,4.1v-29.4l-12-0.7l-15.7-30.8L61,91.7z"/>
<path class="st0" d="M173.4,155.7l94.3-2.6c1.5,0,3,0.2,4.4,0.8c3.4,1.5,9.6,5.2,13.8,14.2c6.1,13,34.7,68,34.7,68l-28.9,14.8
	L256.3,185l-109.4-9.3l1.3-8.7L173.4,155.7z"/>
<path class="st7" d="M283.2,239.2l15.1,25.9l1,6.5c0.6,4,4.3,6.7,8.3,6.1c0,0,0,0,0,0l45.9-7c2-0.3,3.3-2.1,3.1-4
	c0-0.3-0.1-0.6-0.2-0.9c-0.4-0.9-1.2-1.6-2.2-1.8c-3.8-1-33.4-11.9-33.4-11.9l-12.3-24.8L283.2,239.2z"/>
<path class="st0" d="M144.5,168.5c0,0,97.3-9.8,102.1-9.4c8.7,0.7,24.8,14.5,53.4,33.7c14.8,10.1,28.5,21.6,41,34.5l-9.1,20.8
	c0,0-64-23.3-74.1-31.7c-8.3-7-23.6-16.9-23.6-16.9l-37.5,0.4l-27.9,2.5c-14,1.2-27.6-4.8-36.2-15.9l-10.8-14.1L144.5,168.5z"/>
<path class="st3" d="M233.8,199.2c0,0,0.2,0.1,0.5,0.3l1.3,0.9l5,3.5c4.4,3.1,10.8,7.6,18.7,13.6c0.5,0.4,1,0.8,1.5,1.1l1.6,1
	c1.2,0.6,2.3,1.2,3.5,1.8l3.8,1.8l4,1.8c5.4,2.3,11.2,4.8,17.5,7.3c12.5,5.1,26.5,10.6,41.6,16.4l-0.3,0.1l8.3-21l0.1,0.3
	l-11.4-11.6l0,0c-2.7-2.3-5.5-4.8-8.5-7.2c-17.4-14.4-35.6-27.7-54.6-40l0,0c-2.6-2.2-5.3-4.1-8.3-5.8c-2.8-1.6-5.7-2.9-8.8-3.8
	c-0.8-0.2-1.5-0.4-2.3-0.5l-2.3-0.4l-2.3-0.1h-11l-29.4-0.1l-19.1-0.1h-5h-1.3c-0.1,0-0.3,0-0.4,0h0.4h1.3h5l19.1-0.1l29.4-0.1h11
	l2.3,0.1l2.3,0.4c0.8,0.2,1.5,0.4,2.3,0.6c3.1,0.9,6.1,2.2,8.9,3.9c3,1.7,5.8,3.6,8.4,5.9l0,0c19,12.3,37.2,25.6,54.6,40
	c2.9,2.4,5.8,4.9,8.5,7.2l0,0l11.4,11.6l0.1,0.1l-0.1,0.2l-8.3,21l-0.1,0.2l-0.2-0.1c-15.1-5.8-29.1-11.4-41.6-16.5
	c-6.2-2.5-12.1-5-17.5-7.4l-4-1.8l-3.8-2c-1.2-0.6-2.4-1.2-3.5-1.8l-1.6-1c-0.5-0.3-1-0.8-1.5-1.1c-7.9-6-14.3-10.5-18.6-13.7
	l-5-3.6l-1.3-0.9C233.9,199.3,233.8,199.2,233.8,199.2z"/>
<path class="st7" d="M311.2,242.8l27,10.6l4.5,4.9c2.7,3,7.4,3.2,10.4,0.4c0,0,0,0,0,0l34.1-31.5c1.5-1.3,1.6-3.6,0.3-5.1
	c-0.2-0.2-0.4-0.4-0.7-0.6c-0.8-0.5-1.9-0.6-2.8-0.2c-3.7,1.3-34.3,8.9-34.3,8.9L329,213.8L311.2,242.8z"/>
<path class="st3" d="M217.2,199.2c-2.1-9.9-6.4-20-14.8-25.6c-6.4-4.2-14.3-5.3-22-6.2L21,147.8c-1.4,25.1,9.3,56.4,20.3,79.1
	c1.7,3.5,3.7,7.1,6.9,9.3c4,2.6,9.1,2.6,13.8,2.5c53.7-1.4,107.3-3.6,160.7-9.5C219.7,219.4,219.3,209.1,217.2,199.2z"/>
<path class="st0" d="M79.6,155c-0.6,0-1.3,0-1.9-0.1l-5.1-0.5c-4.3-0.5-10.2-1.2-16.8-2.1s-12.5-1.8-16.7-2.6c-2.1-0.4-3.9-0.7-5-1
	c-0.6-0.1-1.2-0.3-1.8-0.5c0.6,0,1.3,0.1,1.9,0.2l5.1,0.8c4.3,0.6,10.2,1.5,16.7,2.4l16.8,2.3l5.1,0.7
	C78.4,154.7,79.1,154.8,79.6,155z"/>
<path class="st0" d="M80.5,286.2c-0.1-0.1-0.1-0.2-0.2-0.3c-0.1-0.2-0.3-0.5-0.4-0.9l-1.6-3.6l-1.2-2.5c-0.4-1-0.8-2-1.2-3.1
	c-0.9-2.2-1.9-4.8-2.9-7.7c-0.5-1.4-1-3-1.5-4.5s-1-3.3-1.4-5c-1-3.4-1.9-7.2-2.8-11.1c-3.7-17.1-4.9-34.7-3.6-52.1
	c0.4-4,0.7-7.8,1.2-11.4c0.3-1.8,0.4-3.5,0.8-5.1s0.6-3.2,0.9-4.7c0.5-3,1.2-5.7,1.8-8c0.3-1.2,0.5-2.3,0.8-3.3s0.6-1.9,0.8-2.7
	c0.5-1.6,0.8-2.9,1.1-3.8l0.3-1c0-0.1,0.1-0.2,0.1-0.3c0,0.1,0,0.2-0.1,0.3l-0.2,1l-1,3.8l-0.8,2.7c-0.2,1-0.5,2.1-0.8,3.3
	c-0.5,2.4-1.2,5-1.7,8c-0.3,1.5-0.6,3.1-0.8,4.7s-0.5,3.4-0.7,5.1c-0.6,3.5-0.8,7.3-1.2,11.3c-1.2,17.4,0,34.9,3.6,52
	c0.9,3.9,1.7,7.6,2.7,11.1c0.5,1.7,0.9,3.4,1.4,5s1,3.1,1.5,4.5c0.9,2.9,1.9,5.5,2.8,7.7c0.4,1.1,0.8,2.2,1.2,3.1l1.1,2.6l1.5,3.6
	l0.4,1C80.4,286,80.4,286.1,80.5,286.2z"/>
<path class="st0" d="M78.8,235.5c-2.1,0.2-4.2,0.2-6.3,0c-2.1,0-4.2-0.2-6.3-0.6c2.1-0.2,4.2-0.2,6.3,0
	C74.6,234.9,76.7,235.1,78.8,235.5z"/>
<path class="st0" d="M77.3,242.8c-2.2-0.2-4.4-0.8-6.4-1.7c-2.1-0.8-4.1-1.9-5.8-3.3c0.1-0.1,2.6,1.4,6,2.8S77.4,242.6,77.3,242.8z"
	/>
<path class="st0" d="M63.4,192.7c-1.2,0.8-2.7,1.2-4.2,1.3c-1.5,0.2-2.9,0.1-4.3-0.5c0-0.2,1.9,0.1,4.3-0.1S63.3,192.6,63.4,192.7z"
	/>
<path class="st0" d="M66.5,190.3c-1.5,0.3-3.2,0.1-4.6-0.6c-1.5-0.5-2.8-1.5-3.6-2.9c1.2,0.9,2.5,1.7,3.8,2.4
	C64.5,190.2,66.5,190.1,66.5,190.3z"/>
<path class="st0" d="M122.7,19c-0.8-2.1-2.6-3.7-4.8-4.2c-2.2-0.5-4.4-0.5-6.6,0.2l-20.7,4.7c3,2,9.2,3.9,12.7,4.3
	c5.2,0.6,8.8,0.6,11.9-1.2c0.8,2,3,3,5,2.2c0.1-0.1,0.3-0.1,0.4-0.2C122.6,23.6,123.4,21.2,122.7,19z"/>
<path class="st7" d="M169.2,164.7l41.8,0.5l50.4-10c1.6-0.3,2.9-1.6,3.1-3.3l6.9-45.4c0.3-1.8-1-3.5-2.8-3.8c-0.3-0.1-0.7,0-1,0
	l-51.5,8.4c-1.5,0.2-2.6,1.4-2.8,2.9l-5.8,46.2l-38.2-0.2c-1.3,0-2.4,1.1-2.4,2.4l0,0C166.9,163.7,167.9,164.7,169.2,164.7z"/>
<path class="st8" d="M240.1,131.4c-1,2.2-0.5,4.6,1.3,5.5s4-0.2,5.1-2.4s0.5-4.6-1.3-5.5S241.2,129.2,240.1,131.4z"/>
</svg>
