<?xml version="1.0" encoding="utf-8"?>
<!-- Generator: Adobe Illustrator 25.0.1, SVG Export Plug-In . SVG Version: 6.00 Build 0)  -->
<svg version="1.1" id="Layer_1" xmlns="http://www.w3.org/2000/svg" xmlns:xlink="http://www.w3.org/1999/xlink" x="0px" y="0px"
	 viewBox="0 0 269 269" style="enable-background:new 0 0 269 269;" xml:space="preserve">
<style type="text/css">
	.st0{fill:#FFFFFF;}
</style>
<path class="st0" d="M135.4,269C63.7,269.5,4.7,213.8,0,143.5c-0.3-4.9,3.5-9.1,8.5-9.1h0c4.5,0,8.2,3.5,8.5,8
	c4.2,62.7,57.7,112,122,109.5c61-2.4,110.5-51.8,112.9-112.9C254.4,74.7,205,21.2,142.3,17c-4.5-0.3-8-4-8-8.5v0
	c0-5,4.1-8.8,9.1-8.5C213.8,4.7,269.5,63.7,269,135.4C268.4,208.6,208.6,268.4,135.4,269z"/>
</svg>
