<svg id="Layer_1" data-name="Layer 1" xmlns="http://www.w3.org/2000/svg" viewBox="0 0 399.95 360.35"><path d="M406.05,59.69a48.66,48.66,0,0,0-15.74,3.75C386,65.13,370.55,71.63,345.94,82s-57.23,24-92,38.64c-69.53,29.24-147.67,62.13-187.7,79a47.92,47.92,0,0,0-13.13,7c-6.18,4.72-13,15-13,26.17a34.68,34.68,0,0,0,10,23.52,44.88,44.88,0,0,0,15.58,9.57v0c15.61,6.22,62.19,24.86,73.29,29.3,3.93,11.79,20.82,62.27,24.84,75h0c2.84,9,5.61,14.84,9.45,19.73a27.4,27.4,0,0,0,7,6.4,23.16,23.16,0,0,0,3.47,1.68c.17.07.34.09.51.16l-.47-.12c.35.14.66.35,1,.47a13.46,13.46,0,0,0,1.75.35A27.12,27.12,0,0,0,212,394.22l.43-.31,47-39.73,57.5,53.2c1,1.49,9.28,12.62,28.32,12.62,11.37,0,20.35-5.62,26.1-11.52s9.33-11.94,10.94-20.12l0,0c1.29-6.6,56.33-283,56.33-283l-.11.47c1.71-7.65,2.21-15,.19-22.58a32.39,32.39,0,0,0-14.06-18.75A33,33,0,0,0,406.05,59.69Zm-7.89,43.79C396,114.4,346.68,362.12,343.63,377.66l-83-76.84-56.14,47.46L220,287.5S327.25,178.94,333.71,172.62c5.2-5.06,6.29-6.84,6.29-8.6,0-2.34-1.2-4-4-4-2.5,0-5.9,2.4-7.7,3.52-22.87,14.26-120.29,69.77-168.2,97C157.23,259.39,114,242,90.62,232.7l178.83-75.24c34.76-14.62,67.37-28.32,92-38.63C382.16,110.12,393,105.61,398.16,103.48Zm-55.11,277h0l0,.11C343.07,380.5,343,380.61,343.05,380.51Z" transform="translate(-40.08 -59.65)"/></svg>