<?xml version="1.0" encoding="utf-8"?>
<!-- Generator: Adobe Illustrator 25.0.1, SVG Export Plug-In . SVG Version: 6.00 Build 0)  -->
<svg version="1.1" id="Layer_1" xmlns="http://www.w3.org/2000/svg" xmlns:xlink="http://www.w3.org/1999/xlink" x="0px" y="0px"
	 viewBox="0 0 500 500" style="enable-background:new 0 0 500 500;" xml:space="preserve">
<style type="text/css">
	.st0{fill:#2F74B3;}
</style>
<path class="st0" d="M475.8,250.6c0-21.6,29.4-47,24.1-67c-5.5-20.7-43.8-27.8-54.3-46s2.2-55.1-12.7-70
	c-14.9-14.9-51.6-2.1-70-12.7C344.5,44.3,337.7,6.2,317,0.6c-20-5.3-45.3,24.1-67,24.1S203-4.7,183,0.6c-20.7,5.5-27.8,43.8-46,54.3
	s-55.1-2.2-70,12.7s-2.1,51.6-12.7,70S5.6,162.9,0.1,183.6c-5.4,20,24.1,45.4,24.1,67s-29.4,47-24.1,67c5.5,20.7,43.8,27.8,54.3,46
	c10.5,18.1-2.2,55.1,12.7,70c14.9,14.9,51.6,2.1,70,12.7s25.2,48.8,45.9,54.3c20,5.3,45.3-24.1,67-24.1s47,29.4,67,24.1
	c20.7-5.5,27.8-43.8,46-54.3s55.1,2.2,70-12.7c14.9-14.9,2.1-51.6,12.7-70c10.6-18.4,48.8-25.2,54.3-45.9
	C505.4,297.6,475.8,272.2,475.8,250.6z M246.9,341.1l-97.6-103.3c-4.7-5-4.4-12.8,0.5-17.4c5-4.7,12.8-4.4,17.4,0.5l0,0l76.6,81.1
	l96.8-140.3c3.6-5.8,11.2-7.6,17-4c5.8,3.6,7.6,11.2,4,17c-0.2,0.4-0.5,0.7-0.7,1L246.9,341.1z"/>
</svg>
