<svg id="Layer_1" data-name="Layer 1" xmlns="http://www.w3.org/2000/svg" viewBox="0 0 501.22 501.18"><defs><style>.cls-1{fill:#fff;}</style></defs><path class="cls-1" d="M475.85,250.59c0-21.58,29.42-47,24.1-67-5.54-20.69-43.85-27.84-54.32-46s2.2-55.07-12.73-70-51.58-2.05-70-12.69S337.73,6.18,317,.64c-20-5.32-45.28,24.1-67,24.1S203-4.68,183,.64c-20.69,5.54-27.84,43.85-46,54.32s-55.07-2.2-70,12.73-2,51.58-12.69,70S5.59,162.86.05,183.62c-5.43,20,24.1,45.39,24.1,67s-29.42,47-24.1,67c5.54,20.68,43.85,27.84,54.32,46s-2.2,55.07,12.73,70,51.58,2.05,70,12.69S162.27,495,183,500.53c20,5.33,45.28-24.09,67-24.09s47,29.42,67,24.09c20.69-5.53,27.84-43.84,46-54.31s55.07,2.2,70-12.73,2.05-51.58,12.69-70,48.78-25.17,54.32-45.93C505.38,297.56,475.85,272.17,475.85,250.59Zm-229,90.5L149.29,237.78a12.34,12.34,0,0,1,18-16.9h0L243.89,302l96.75-140.27a12.34,12.34,0,1,1,21,13c-.22.35-.45.69-.7,1Z" transform="translate(0.61)"/></svg>