<svg id="Layer_1" data-name="Layer 1" xmlns="http://www.w3.org/2000/svg" viewBox="0 0 399.98 400"><path d="M381.54,98.56A198.54,198.54,0,0,0,240.22,40C130.1,40,40.48,129.58,40.44,239.7A199.24,199.24,0,0,0,67.1,339.54L40,440l104.66-24.74a199.61,199.61,0,0,0,95.46,24.32h.08c110.1,0,199.72-89.6,199.78-199.7A198.43,198.43,0,0,0,381.54,98.56ZM338,311.08c-4.16,11.66-24.54,22.9-33.7,23.72s-17.74,4.14-59.9-12.48c-50.74-20-82.78-72-85.26-75.34s-20.38-27.06-20.38-51.62,12.9-36.64,17.48-41.62a18.32,18.32,0,0,1,13.32-6.24c3.32,0,6.66,0,9.56.12,3.56.14,7.5.32,11.24,8.62,4.44,9.88,14.14,34.56,15.38,37.06s2.08,5.42.42,8.74-2.5,5.4-5,8.32-5.24,6.5-7.48,8.74c-2.5,2.48-5.1,5.2-2.2,10.18s12.92,21.34,27.76,34.56c19.08,17,35.14,22.26,40.14,24.78s7.9,2.08,10.82-1.26S282.66,272.8,286,267.8s6.66-4.16,11.24-2.5,29.12,13.74,34.1,16.24,8.32,3.74,9.56,5.82S342.12,299.42,338,311.08Z" transform="translate(-40 -40)"/></svg>