<svg xmlns="http://www.w3.org/2000/svg" viewBox="0 0 153 153"><defs><style>.cls-1{fill:#2f75b3;}.cls-2{fill:#0b1e32;}</style></defs><g id="Layer_1" data-name="Layer 1"><path class="cls-1" d="M101.46,97.63a7.27,7.27,0,0,0,1.42,4.4h-1.06v5h19.54v-5h-4.64a7.41,7.41,0,0,0,1.42-4.4c0-4.85-3.87-7.95-8.34-7.95S101.46,92.8,101.46,97.63Zm11.8.57a3.48,3.48,0,1,1-7,0h0a3.48,3.48,0,0,1,7,0Z"/><path class="cls-1" d="M101.8,87.46v-5h2.11c-1.55-.81-2.45-2.23-2.45-4.59h4.76c-.19,2.21.5,4.59,4.76,4.59h6.8v5Z"/><path class="cls-1" d="M109.8,76.57c-4.49,0-8.34-3.12-8.34-7.95a7.11,7.11,0,0,1,1.42-4.4H101.8v-5h16v5h-1a7.23,7.23,0,0,1,1.42,4.4C118.14,73.47,114.27,76.57,109.8,76.57ZM113.25,68a3.47,3.47,0,1,0-3.49,3.45h0a3.44,3.44,0,0,0,3.46-3.44h0Z"/><path class="cls-1" d="M94.34,56.34V51.26H108l-6.2-3.85V41.84l7.61,5,8.35-5.38v5.82l-6.54,4h6.54v5.07H94.34Z"/><rect class="cls-1" x="101.8" y="34.75" width="15.96" height="5.07"/><rect class="cls-2" x="94.34" y="34.75" width="5.07" height="5.07"/><path class="cls-2" d="M31.64,90.29c0-15.06,10.43-27.92,26.68-27.92A24.64,24.64,0,0,1,73.08,67.1V38.55H90V117H73.08v-3.49a24.44,24.44,0,0,1-14.76,4.74C42.07,118.25,31.64,105.27,31.64,90.29ZM60.19,101.9A11.57,11.57,0,0,0,71.8,90.37v-.08A11.66,11.66,0,1,0,60.19,101.9Z"/><rect class="cls-2" x="94.34" y="110.82" width="27.01" height="6.18"/><rect class="cls-2" x="73.05" y="34.75" width="16.9" height="2.04"/></g></svg>