<svg xmlns="http://www.w3.org/2000/svg" viewBox="0 0 385 385"><defs><style>.cls-1{fill:#2f75b3;}.cls-2{fill:#0b1e32;}</style></defs><g id="Layer_1" data-name="Layer 1"><path class="cls-1" d="M260.85,250.35a20,20,0,0,0,3.88,12.06h-2.89v13.74h53.51V262.41H302.64a20.13,20.13,0,0,0,3.89-12c0-13.3-10.6-21.79-22.84-21.79S260.85,237.12,260.85,250.35Zm32.32,1.58a9.51,9.51,0,1,1-19,0h0a9.51,9.51,0,1,1,19,0Z"/><path class="cls-1" d="M261.77,222.51V208.69h5.79c-4.25-2.24-6.71-6.12-6.71-12.57h13c-.52,6,1.39,12.57,13,12.57h18.63v13.82Z"/><path class="cls-1" d="M283.69,192.7c-12.3,0-22.84-8.56-22.84-21.79a19.69,19.69,0,0,1,3.88-12h-3V145.05h43.71v13.82h-2.84a19.75,19.75,0,0,1,3.88,12C306.53,184.21,295.93,192.7,283.69,192.7Zm9.46-23.37a9.51,9.51,0,1,0-9.56,9.46h.1a9.47,9.47,0,0,0,9.48-9.44v0Z"/><path class="cls-1" d="M241.37,137.28V123.37h37.38l-17-10.53V97.57l20.86,13.63,22.85-14.75v16l-17.91,10.93h17.91v13.88H241.37Z"/><rect class="cls-1" x="261.77" y="78.18" width="43.7" height="13.89"/><rect class="cls-2" x="241.37" y="78.18" width="13.89" height="13.89"/><path class="cls-2" d="M69.65,230.27c0-41.24,28.57-76.47,73.06-76.47a67.34,67.34,0,0,1,40.41,13V88.57h46.2V303.4h-46.2v-9.55a66.89,66.89,0,0,1-40.41,13C98.22,306.82,69.65,271.28,69.65,230.27Zm78.19,31.79a31.68,31.68,0,0,0,31.79-31.58v-.21a31.92,31.92,0,1,0-31.79,31.79Z"/><rect class="cls-2" x="241.37" y="286.49" width="73.98" height="16.91"/><rect class="cls-2" x="183.05" y="78.18" width="46.27" height="5.6"/></g></svg>