<svg xmlns="http://www.w3.org/2000/svg" viewBox="0 0 73 73"><defs><style>.cls-1{fill:#2f75b3;}.cls-2{fill:#0b1e32;}</style></defs><g id="Layer_1" data-name="Layer 1"><path class="cls-1" d="M48.72,46.84A3.54,3.54,0,0,0,49.41,49h-.52v2.46h9.56V49H56.18a3.61,3.61,0,0,0,.7-2.15,4.08,4.08,0,0,0-8.16,0Zm5.77.28a1.7,1.7,0,0,1-3.4,0h0a1.7,1.7,0,0,1,3.4,0Z"/><path class="cls-1" d="M48.88,41.86V39.39h1a2.27,2.27,0,0,1-1.19-2.24H51c-.09,1.08.25,2.24,2.33,2.24H56.7v2.47Z"/><path class="cls-1" d="M52.8,36.54a3.89,3.89,0,0,1-4.08-3.9,3.47,3.47,0,0,1,.69-2.15h-.53V28h7.81v2.47h-.51a3.55,3.55,0,0,1,.7,2.15A3.89,3.89,0,0,1,52.8,36.54Zm1.69-4.18a1.7,1.7,0,1,0-1.71,1.69h0a1.69,1.69,0,0,0,1.69-1.69Z"/><path class="cls-1" d="M45.23,26.63V24.15h6.68l-3-1.89V19.54L52.61,22l4.08-2.64v2.85l-3.2,2h3.2v2.48H45.23Z"/><rect class="cls-1" x="48.88" y="16.07" width="7.81" height="2.48"/><rect class="cls-2" x="45.23" y="16.07" width="2.48" height="2.48"/><path class="cls-2" d="M14.55,43.25c0-7.37,5.1-13.67,13.05-13.67a12,12,0,0,1,7.22,2.32v-14h8.26V56.32H34.82V54.61a11.91,11.91,0,0,1-7.22,2.32C19.65,56.93,14.55,50.58,14.55,43.25Zm14,5.68a5.65,5.65,0,0,0,5.68-5.64v0a5.71,5.71,0,1,0-5.68,5.68Z"/><rect class="cls-2" x="45.23" y="53.3" width="13.22" height="3.02"/><rect class="cls-2" x="34.81" y="16.07" width="8.27" height="1"/></g></svg>