<svg xmlns="http://www.w3.org/2000/svg" viewBox="0 0 145 145"><defs><style>.cls-1{fill:#2f75b3;}.cls-2{fill:#0b1e32;}</style></defs><g id="Layer_1" data-name="Layer 1"><path class="cls-1" d="M94.45,93.45a6.44,6.44,0,0,0,1.25,3.88h-.93v4.41H112V97.33h-4.08a6.5,6.5,0,0,0,1.25-3.87c0-4.27-3.4-7-7.33-7S94.45,89.21,94.45,93.45Zm10.38.51a3.06,3.06,0,0,1-6.11,0h0a3.06,3.06,0,0,1,6.11,0Z"/><path class="cls-1" d="M94.75,84.51V80.07h1.86a4.09,4.09,0,0,1-2.16-4h4.19c-.17,1.94.44,4,4.18,4h6v4.44Z"/><path class="cls-1" d="M101.79,74.94c-4,0-7.34-2.75-7.34-7a6.35,6.35,0,0,1,1.25-3.87h-1V59.63h14v4.44h-.91a6.35,6.35,0,0,1,1.25,3.87C109.12,72.21,105.72,74.94,101.79,74.94Zm3-7.51a3.05,3.05,0,1,0-3.07,3h0a3,3,0,0,0,3-3h0Z"/><path class="cls-1" d="M88.19,57.14V52.67h12l-5.45-3.38v-4.9l6.7,4.37L108.78,44v5.12L103,52.66h5.75v4.46H88.19Z"/><rect class="cls-1" x="94.75" y="38.16" width="14.04" height="4.46"/><rect class="cls-2" x="88.19" y="38.16" width="4.46" height="4.46"/><path class="cls-2" d="M33.05,87c0-13.25,9.17-24.57,23.46-24.57a21.64,21.64,0,0,1,13,4.17V41.5H84.33v69H69.49v-3.07a21.51,21.51,0,0,1-13,4.17C42.22,111.59,33.05,100.17,33.05,87Zm25.11,10.2A10.17,10.17,0,0,0,68.37,87.07V87a10.26,10.26,0,1,0-10.21,10.2Z"/><rect class="cls-2" x="88.19" y="105.06" width="23.76" height="5.43"/><rect class="cls-2" x="69.47" y="38.16" width="14.86" height="1.8"/></g></svg>