<svg xmlns="http://www.w3.org/2000/svg" viewBox="0 0 385 385"><defs><style>.cls-1{fill:#2f75b3;}.cls-2{fill:#0b1e32;}</style></defs><g id="Layer_1" data-name="Layer 1"><path class="cls-1" d="M257.74,247.72a19.11,19.11,0,0,0,3.71,11.51h-2.76v13.12h51.07V259.23H297.64a19.13,19.13,0,0,0,3.7-11.49c0-12.69-10.11-20.8-21.8-20.8S257.74,235.1,257.74,247.72Zm30.85,1.51a9.08,9.08,0,0,1-18.16,0h0a9.08,9.08,0,0,1,18.16,0Z"/><path class="cls-1" d="M258.63,221.15V208h5.52c-4.06-2.14-6.41-5.85-6.41-12h12.44c-.5,5.77,1.32,12,12.44,12H300.4v13.19Z"/><path class="cls-1" d="M279.54,192.69c-11.73,0-21.8-8.17-21.8-20.8a18.79,18.79,0,0,1,3.71-11.49h-2.82V147.2h41.71v13.2h-2.71a18.92,18.92,0,0,1,3.71,11.49C301.34,184.59,291.23,192.69,279.54,192.69Zm9-22.31a9.08,9.08,0,1,0-9.12,9h.09a9,9,0,0,0,9-9v0Z"/><path class="cls-1" d="M239.15,139.79V126.51h35.68l-16.2-10.05V101.89l19.91,13,21.8-14.07V116l-17.09,10.43h17.09v13.26H239.15Z"/><rect class="cls-1" x="258.63" y="83.37" width="41.72" height="13.25"/><rect class="cls-2" x="239.15" y="83.37" width="13.25" height="13.25"/><path class="cls-2" d="M75.24,228.56c0-39.37,27.26-73,69.73-73a64.33,64.33,0,0,1,38.58,12.37V93.3h44.1V298.36h-44.1v-9.11A63.88,63.88,0,0,1,145,301.63C102.5,301.63,75.24,267.7,75.24,228.56Zm74.63,30.34a30.24,30.24,0,0,0,30.35-30.14v-.2a30.47,30.47,0,1,0-30.35,30.34Z"/><rect class="cls-2" x="239.15" y="282.22" width="70.62" height="16.14"/><rect class="cls-2" x="183.48" y="83.37" width="44.17" height="5.34"/></g></svg>