<svg xmlns="http://www.w3.org/2000/svg" viewBox="0 0 513 513"><defs><style>.cls-1{fill:#2f75b3;}.cls-2{fill:#0b1e32;}</style></defs><g id="Layer_1" data-name="Layer 1"><path class="cls-1" d="M349.81,335.47a27.19,27.19,0,0,0,5.3,16.46h-4v18.76H424.2V351.93H406.86a27.48,27.48,0,0,0,5.3-16.44c0-18.15-14.47-29.73-31.18-29.73C364.09,305.74,349.81,317.41,349.81,335.47Zm44.11,2.16a13,13,0,0,1-26,0h0a13,13,0,0,1,26,0Z"/><path class="cls-1" d="M351.06,297.47V278.6H359c-5.81-3.05-9.16-8.36-9.16-17.16h17.78c-.72,8.27,1.89,17.16,17.79,17.16h25.43v18.87Z"/><path class="cls-1" d="M381,256.77c-16.78,0-31.17-11.68-31.17-29.74a26.79,26.79,0,0,1,5.3-16.44h-4.05V191.72h59.66v18.87h-3.87a27.07,27.07,0,0,1,5.3,16.44C412.16,245.18,397.69,256.77,381,256.77Zm12.91-31.9a13,13,0,1,0-13.05,12.91H381a12.91,12.91,0,0,0,12.94-12.88v0Z"/><path class="cls-1" d="M323.21,181.12v-19h51l-23.18-14.37V126.92l28.48,18.6,31.18-20.13v21.77l-24.44,14.92h24.44V181H323.21Z"/><rect class="cls-1" x="351.06" y="100.44" width="59.66" height="18.95"/><rect class="cls-2" x="323.21" y="100.44" width="18.95" height="18.95"/><path class="cls-2" d="M88.8,308.06c0-56.3,39-104.39,99.73-104.39a91.94,91.94,0,0,1,55.17,17.7V114.63h63.07V407.88H243.7v-13c-15,11.05-33.51,17.7-55.17,17.7C127.8,412.56,88.8,364,88.8,308.06Zm106.74,43.4a43.24,43.24,0,0,0,43.39-43.11v-.29a43.57,43.57,0,1,0-43.39,43.4Z"/><rect class="cls-2" x="323.21" y="384.81" width="100.99" height="23.09"/><rect class="cls-2" x="243.61" y="100.44" width="63.16" height="7.64"/></g></svg>