<svg xmlns="http://www.w3.org/2000/svg" viewBox="0 0 193 193"><defs><style>.cls-1{fill:#2f75b3;}.cls-2{fill:#0b1e32;}</style></defs><g id="Layer_1" data-name="Layer 1"><path class="cls-1" d="M129.43,124.38a9.67,9.67,0,0,0,1.88,5.81h-1.4v6.62h25.78v-6.62h-6.12a9.71,9.71,0,0,0,1.87-5.81c0-6.4-5.1-10.49-11-10.49S129.43,118,129.43,124.38Zm15.58.76a4.59,4.59,0,0,1-9.17,0h0a4.59,4.59,0,1,1,9.17,0Z"/><path class="cls-1" d="M129.88,111V104.3h2.79c-2-1.08-3.24-3-3.24-6.06h6.28c-.25,2.92.67,6.06,6.28,6.06h9V111Z"/><path class="cls-1" d="M140.44,96.6c-5.93,0-11-4.13-11-10.5a9.45,9.45,0,0,1,1.88-5.8h-1.43V73.63h21.06V80.3h-1.37a9.51,9.51,0,0,1,1.87,5.8C151.44,92.5,146.34,96.6,140.44,96.6ZM145,85.34a4.59,4.59,0,1,0-4.61,4.55h.05A4.56,4.56,0,0,0,145,85.34h0Z"/><path class="cls-1" d="M120.05,69.89v-6.7h18l-8.18-5.07V50.76l10.05,6.57,11-7.11V57.9l-8.63,5.27h8.63v6.69H120.05Z"/><rect class="cls-1" x="129.88" y="41.42" width="21.06" height="6.69"/><rect class="cls-2" x="120.05" y="41.42" width="6.69" height="6.69"/><path class="cls-2" d="M37.31,114.7c0-19.87,13.76-36.85,35.2-36.85A32.44,32.44,0,0,1,92,84.1V46.42h22.26V149.94H92v-4.6a32.23,32.23,0,0,1-19.47,6.24C51.07,151.58,37.31,134.46,37.31,114.7ZM75,130A15.27,15.27,0,0,0,90.3,114.8v-.1A15.38,15.38,0,1,0,75,130Z"/><rect class="cls-2" x="120.05" y="141.79" width="35.65" height="8.15"/><rect class="cls-2" x="91.95" y="41.42" width="22.29" height="2.7"/></g></svg>