<?xml version="1.0" encoding="utf-8"?>
<!-- Generator: Adobe Illustrator 25.0.1, SVG Export Plug-In . SVG Version: 6.00 Build 0)  -->
<svg version="1.1" id="Layer_1" xmlns="http://www.w3.org/2000/svg" xmlns:xlink="http://www.w3.org/1999/xlink" x="0px" y="0px"
	 viewBox="0 0 1511 337" style="enable-background:new 0 0 1511 337;" xml:space="preserve">
<style type="text/css">
	.st0{fill:#071E33;}
	.st1{display:none;}
	.st2{fill:#113E63;}
	.st3{fill:#2D4F66;}
	.st4{fill:#F7F7F7;}
	.st5{fill:#FFFFFF;}
	.st6{fill:#F5F5F5;}
	.st7{fill:#E0E0E0;}
	.st8{fill:#EBEBEB;}
	.st9{fill:#263238;}
	.st10{fill:#FFBE9D;}
	.st11{fill:#EB996E;}
	.st12{fill:#455A64;}
	.st13{fill:#165A9A;}
	.st14{opacity:0.3;}
</style>
<g id="Layer_4">
	<rect y="0" class="st0" width="1511" height="337"/>
</g>
<g id="Layer_5" class="st1">
</g>
<g id="Layer_3" class="st1">
</g>
<path class="st2" d="M730.7,244.4c0,2.1-0.1,4.3-0.4,6.5c-1.3,9.6-5.5,20.7-12.1,31.5c-4.2,6.9-9.3,13.7-15.2,19.9
	c-4.1,4.3-8.6,8.3-13.4,11.9c-4.6,3.4-9.6,6.5-14.8,8.9c-20.7,9.8-34.8,5.5-52.7,2.6c-9.8-1.6-20.8-2.8-34.6-1.1
	c-14.6,1.8-26.8,6.3-37.5,12.4H304c18-35.7,70.2-68.9,111.8-64.5c17.8,1.9,29.7,10.3,35.2,4.6c1.9-1.9,2.2-4.7,1.5-8.1
	c-0.5-2.5-1.6-5.4-3.2-8.6l0,0c-0.8-1.6-1.6-3.2-2.6-4.9c-1.1-1.9-2.3-3.9-3.5-6c-16.4-27-47.1-66.1-35.1-93.3
	c0.2-0.4,0.3-0.8,0.5-1.2c0.9-1.8,2-3.6,3.2-5.3c1.8-2.5,4-4.8,6.5-7c2.1-1.8,4.3-3.5,6.8-5c2.5-1.6,5.1-3,7.9-4.4l0,0
	c5.6-2.7,11.8-4.9,18.3-6.6l0,0c18.3-4.7,39.3-5.1,57.7-0.1c0.2,0,0.4,0.1,0.5,0.2c0.9,0.2,1.8,0.5,2.7,0.8
	c6.1,1.9,11.9,4.5,17.1,7.7c2,1.3,4,2.6,5.8,4.1c0.2,0.1,0.3,0.2,0.5,0.4c5.9,4.8,10,10,12.9,15.5c9.2,17.2,7.2,36.9,17.1,53.9
	c2.6,4.5,6.1,8.9,10.9,13c3.9,3.3,8,5.9,12.3,7.9c2.4,1.1,4.8,2,7.3,2.8c30.2,9.5,68.1-3.5,96-7.9c10.7-1.7,20-2.1,26.7,0.5
	c0.8,0.3,1.5,0.6,2.2,1c1.2,0.6,2.2,1.4,3.2,2.2c0.9,0.8,1.7,1.7,2.4,2.7C729.4,234.6,730.6,239.2,730.7,244.4z"/>
<path class="st2" d="M324,0c-42.3,34.6-70.8,83.6-113.6,115.9c-2.7,2-5.4,4-8.3,5.9c-0.7,0.5-1.4,0.9-2.1,1.4
	c-2.3,1.5-4.7,2.9-7,4.3c-14.9,8.7-31.6,15.3-51,18.9c-46.9,8.7-99.6-2.3-142-24V0H324z"/>
<path class="st2" d="M1511,0v186c-21.9,25.2-42.1,51.6-79.6,58.6c-18.2,3.4-37.9,1.7-56.4-3.6c-38-10.8-70.6-36.5-73.8-63.8
	c-3.8-32,32.5-70,72.9-86c15-6,30.7-8.9,45-7.4c12.2,1.3,21.6,5.6,28.1,6.4c3,0.4,5.4,0,7.1-1.8c0.9-1,1.5-2.1,1.7-3.5
	c2.5-14.7-32.2-51.4-43.7-84.8L1511,0L1511,0z"/>
<path class="st2" d="M1171.6,337h-64.9c0.2-1.3,0.5-2.6,1-3.8c6.1-13.9,37.1-19.9,54.1-9c0.7,0.5,1.4,1,2.1,1.5
	c2.6,2,4.4,4.3,5.7,6.6l0,0C1170.4,333.9,1171.1,335.4,1171.6,337z"/>
<circle class="st3" cx="390.7" cy="60.6" r="38.7"/>
<circle class="st3" cx="377.4" cy="219.4" r="9.3"/>
<circle class="st2" cx="1337.9" cy="312.4" r="7.1"/>
<circle class="st3" cx="35.1" cy="179.2" r="16.3"/>
<circle class="st3" cx="74.2" cy="248.4" r="6.4"/>
<circle class="st3" cx="171.1" cy="194.2" r="6.8"/>
<circle class="st3" cx="886.7" cy="53.3" r="16.1"/>
<circle class="st3" cx="893.6" cy="161" r="7"/>
<circle class="st3" cx="247.8" cy="309.1" r="3.8"/>
<circle class="st3" cx="281.5" cy="167.1" r="13"/>
<circle class="st3" cx="546.1" cy="63.7" r="20.3"/>
<circle class="st3" cx="655.3" cy="38.1" r="5.4"/>
<circle class="st3" cx="765.5" cy="39.3" r="2.2"/>
<circle class="st3" cx="142.4" cy="322.1" r="2.6"/>
<path class="st2" d="M1040.7,337h-315c-1-5.1-1.8-9.5-2.4-13c-0.1-0.5-0.2-1-0.2-1.5c-1.5-9-2.9-17.1-3.8-24.6
	c-0.7-5.5-1-10.6-1-15.5c0-10.4,1.8-19.8,6.6-28.9c0.7-1.4,1.5-2.8,2.4-4.1c1.1-1.7,2.2-3.4,3.5-5c3.6-4.6,7.9-8.7,12.8-12.2
	c19.5-14.2,47.5-20,75.5-21.7c10.7-0.6,21.3-0.6,31.6-0.3c27.9,1,52.4,4.7,64.2,6.5c14.8,2.2,31.6,4.9,47.1,9.8
	c10.2,3.2,19.9,7.5,27.8,13.1c2.5,1.8,4.9,3.8,7.1,5.9c0.8,0.8,1.6,1.6,2.3,2.4c3.1,3.4,5.7,7.3,7.6,11.6c0.6,1.4,1.2,2.7,1.6,4
	c0.3,0.8,0.5,1.5,0.7,2.3c0.5,1.9,0.8,3.6,1,5.4c0.2,1.7,0.3,3.3,0.2,4.9c0,0.7,0,1.4-0.1,2.1c-0.8,12.5-6.6,22.9-0.4,36.5
	c0.3,0.6,0.6,1.2,0.9,1.7c0,0.1,0.1,0.2,0.1,0.2C1016.6,327.6,1027.4,333.5,1040.7,337z"/>
<path class="st2" d="M1121.4,0c-3.9,5.4-8.1,10.3-12.7,14.5c-12.4,11.3-23.2,13.9-33.6,16.5c-2.1,0.5-4.1,1-6.2,1.6
	c-1.5,0.4-3.1,0.9-4.6,1.5c-5.9,2.1-11.9,5.2-18.2,11c-0.6,0.5-1.2,1.1-1.7,1.6c-4.4,4.3-7.8,8.9-10.5,13.6c-0.3,0.5-0.6,1-0.8,1.5
	c-1.2,2.1-2.2,4.3-3,6.5c-1,2.4-1.8,4.8-2.5,7.3c-1,3.4-1.7,6.8-2.2,10.2l0,0c-4.2,25.2,0.5,50.2-17.7,63.6c-20,14.8-57.6,8-83.3-7
	c-2.9-1.7-5.6-3.5-8.2-5.3c-1.1-0.8-2.2-1.6-3.2-2.5c-1.7-1.4-3.2-2.8-4.7-4.2c-4.6-4.5-8-9.4-9.7-14.3c-0.4-1.2-0.7-2.3-0.9-3.5
	c-0.1-0.5-0.2-1.1-0.2-1.6c-3-27.2,50.2-42.9,46-65.9c-3.8-20.8-51.4-28.3-86.8-34.2C836,7.5,819.6,4.6,817.8,0H1121.4z"/>
<path class="st2" d="M1012.4,256c-0.1,0.8-0.1,1.7-0.2,2.5l0,0c-0.2,1.5-0.3,2.9-0.6,4.4c-0.1,0.8-0.3,1.7-0.4,2.5
	c-0.3,1.9-0.7,3.9-1.2,5.8c-0.4,1.6-0.8,3.2-1.2,4.8c0,0.1,0,0.2-0.1,0.2c-4.2,14.6-11.4,28.8-20.5,40.2c0,0.1-0.1,0.1-0.1,0.2
	c-2.9,3.6-6,7-9.3,10c-5.2,4.8-10.2,8-14.9,10.3H788.7c-18.8-7-44.7-10.9-65.6-14.5c-15.8-2.7-28.7-5.1-33.4-8.4
	c-1.3-0.9-2-1.8-2-2.8c-0.1-3,5.7-6,15.3-9.1c4.6-1.5,10.1-2.9,16.3-4.4c35.2-8.3,91.4-16.3,124.8-22.7c16.6-3.2,27.6-6,27.4-8.3
	c-0.2-3.1-21.1-3.3-47.4-4c-32.6-0.9-73.6-2.7-93.8-12c-1.1-0.5-2.1-1-3.1-1.6c-4.8-2.7-8-6-8.9-10c-0.9-3.6,0.1-7.6,2.2-11.6
	c0.3-0.5,0.6-1,0.9-1.6c7.3-12.4,23.8-24.2,23-25.2c-0.7-0.8-10.6,10.4-25.2,24.1c-0.7,0.7-1.5,1.4-2.2,2.1
	c-25.3,23.6-63.1,53.3-92.1,44.3c-15.4-4.8-26.3-20-33.9-37.5c-0.6-1.4-1.2-2.8-1.8-4.2c-3.9-9.8-6.9-20.1-9.2-29.5
	c-2.8-11.4-4.5-21.7-5.7-28.3c-1.1-6.2-2.1-12.1-2.9-17.6c-2.4-16.1-3.3-29.4,0-41.6c1-3.8,2.5-7.6,4.4-11.2
	c31.7-60.8,157.9-41.6,190-36.8c33.5,5.1,78,12.4,91.9,42.9c3.4,7.5,3.9,13.9,3.3,19.9c-0.3,2.8-0.8,5.6-1.3,8.3
	c-0.8,3.9-1.6,7.8-1.8,11.8l0,0c-0.1,2.2-0.1,4.4,0.2,6.6c0.4,2.7,1.2,5.5,2.5,8.5c1.2,2.7,2.7,5.1,4.5,7.2
	c8.5,10.4,22.8,15,39.3,17.7c26.1,4.3,57.5,3.9,79.8,14.4c6.1,2.9,11.6,6.6,16,11.5c1.6,1.8,3.1,3.7,4.4,5.8
	c1.6,2.5,2.9,5.1,3.9,7.8c1.3,3.3,2.3,6.9,2.9,10.5c0.1,0.8,0.3,1.6,0.4,2.3c0.2,1.6,0.4,3.2,0.5,4.8c0.1,0.8,0.1,1.7,0.1,2.5
	C1012.7,250.3,1012.6,253.1,1012.4,256z"/>
<path class="st2" d="M443.4,337h-56.6c10-3.4,20.3-5.3,29.9-5.4c5.5-0.1,10.2,0.4,14.4,1.3C435.7,333.9,439.7,335.4,443.4,337z"/>
<path class="st2" d="M629.7,337H522.4c22.2-16.2,35.5-41,59.5-38.8c14.8,1.3,29.2,12.6,40.3,27.5C624.9,329.3,627.4,333.1,629.7,337
	z"/>
<path class="st3" d="M596.8,0c-0.8,0.3-1.5,0.6-2.3,1c-15.4,5.8-31.8,4.6-48-1H596.8z"/>
<path class="st3" d="M1511,112.3v171.9c-7.9,7.2-16.8,14.7-26.1,21.4c-20.5,14.7-43.3,25.3-62.2,19.4c-11.1-3.4-19.7-12.2-26.6-23.3
	c-11.2-18.2-17.5-42.8-21.1-60.7c-1.2-6.1-2.1-11.5-2.8-15.5c-5.2-30.3-8.7-50.8,1.5-70.5C1395.4,113.4,1461.3,109.2,1511,112.3z"/>
<path class="st3" d="M1264.5,333.7c-1.6,1.4-3.1,2.5-4.5,3.3h-68.7c-6.5-2.1-14.7-3.5-21.7-4.6l0,0c-8.1-1.4-14.6-2.5-14.6-4.4
	c0-1.2,2.6-2.5,6.8-3.7c8.8-2.6,24.6-5.2,38.1-7.4c0.5-0.1,1-0.2,1.6-0.3l0,0l0,0l0,0l0,0c12.5-2.1,22.7-3.9,22.6-5.3
	c-0.2-2.1-26.6-0.6-43.7-3.4c-3.6-0.6-6.8-1.4-9.2-2.5c-2.6-1.1-4.3-2.6-4.8-4.5c-1.4-5.9,10.2-13.9,9.8-14.4
	c-0.5-0.5-11.9,13.2-24.6,21.3c-6.9,4.4-14.1,7.2-20.3,5.2c-2.9-0.9-5.4-2.8-7.5-5.2c-2.8-3.3-4.9-7.6-6.6-12
	c-0.3-0.9-0.6-1.7-0.9-2.6l0,0c-1-3-1.7-5.9-2.4-8.6c0,0,0-0.1,0-0.2c-0.5-2.4-1-4.6-1.3-6.5l0,0v-0.1c-0.1-0.4-0.1-0.8-0.2-1.2l0,0
	c0-0.1,0-0.2,0-0.2l0,0c-0.1-0.3-0.1-0.5-0.1-0.8c-0.4-2.5-0.8-4.8-1.1-6.9c0-0.1,0-0.2,0-0.3c-0.3-1.9-0.5-3.7-0.6-5.5
	c0-0.1,0-0.1,0-0.2c-0.1-1.3-0.1-2.6-0.1-3.8v-0.1c0-0.6,0.1-1.2,0.1-1.8c0-0.1,0-0.2,0-0.3c0.3-2.7,1-5.2,2.3-7.6V249
	c0.1-0.1,0.1-0.2,0.2-0.3c1.6-3,3.8-5.4,6.5-7.4c0.1-0.1,0.1-0.1,0.2-0.1c2.1-1.6,4.5-2.9,7.1-4h0.1c0.1,0,0.2-0.1,0.3-0.1
	c0.7-0.3,1.4-0.5,2.1-0.8c13.2-4.6,30.6-3.9,42.8-2.7h0.1c1.9,0.2,3.6,0.4,5.2,0.6c2.5,0.3,4.5,0.6,6.1,0.9c0.3,0,0.5,0.1,0.8,0.1
	c2.7,0.4,5.5,0.8,8.4,1.4c2.7,0.5,5.4,1.1,8,1.9c0.9,0.3,1.9,0.6,2.8,0.9c0.7,0.2,1.4,0.5,2.1,0.8c0,0,0,0,0.1,0
	c3,1.2,5.8,2.7,8.1,4.6c2.2,1.8,4,3.9,5.2,6.5c3.9,8.4-2.2,13.3,1.2,20.7c7.6,16.5,43.5,4.5,54.2,21.3
	C1281.3,304.5,1274.9,324.2,1264.5,333.7z"/>
<path class="st2" d="M1236.1,62.1c0.4,0.5-11.2,8.6-9.8,14.4c2.9,11.8,57.4,7.3,57.6,10.4c0.2,3.5-69.3,10.4-69.2,16.7
	c0.1,5.1,44.9,4.7,47.3,17.3c1.6,8.6-18.4,14.5-17.3,24.8c1.3,11.7,29.6,23.2,41.5,14.4c10.5-7.8,0.7-25.8,13.8-38.6
	c8.3-8.1,15.1-3.7,24.2-12.1c10.4-9.6,16.8-29.3,9.8-40.3c-10.7-16.8-46.6-4.8-54.2-21.3c-3.4-7.4,2.7-12.3-1.2-20.7
	c-5.3-11.5-22-14.2-34.6-16.1c-12.1-1.8-59.5-9-71.5,13.8c-3.9,7.4-2.5,15.1-0.6,26.5c1.5,8.7,5.7,33.3,19,37.5
	C1208.8,94.1,1235.3,61.3,1236.1,62.1z"/>
<path class="st3" d="M882,0c-4.1,2.1-8.3,4.1-12.8,6c-4.2,1.8-8.4,3.4-12.8,4.9C790.9,33.8,708,26.3,642.8,0H882z"/>
<path class="st3" d="M1249.7,0c-1.2,1.5-2.4,3-3.6,4.5c-1.7,2-3.4,3.9-5.2,5.9c-16.5,17.7-39,33.5-63.4,42.2
	c-1.6,0.6-3.2,1.1-4.9,1.6c-1.7,0.5-3.3,1-5,1.5l0,0c-8.7,2.3-17.5,3.7-26.3,3.9c-8.6,0.2-17.1-0.7-25.5-2.9
	c-8.5-2.2-15.7-5.6-22.2-9.7h-0.1c-7-4.5-13.1-9.9-18.5-15.8c-0.5-0.5-0.9-1-1.4-1.5c-0.8-0.9-1.6-1.8-2.4-2.8
	c-1.5-1.8-3-3.7-4.5-5.6l0,0c-0.2-0.3-0.5-0.6-0.7-1c-4.9-6.5-9.3-13.3-13.7-20.1h197.4L1249.7,0L1249.7,0z"/>
<path class="st3" d="M1461.5,80.2c-1.7,1.7-3.5,3.2-5.4,4.6c-2.8,2-5.7,3.8-8.9,5.3c-20.1,9.8-47.4,9.2-73.1,1
	c-13.8-4.4-27.1-11-38.7-19.3l0,0c-2.7-1.9-5.2-4-7.7-6.1c-1.7-1.5-3.4-3-5.1-4.6c-17.6-17-28.7-38.9-33.4-61.1H1481
	C1484,24.1,1481.9,60.2,1461.5,80.2z"/>
<path class="st2" d="M1484.9,305.6c-2,10-3.4,20.7-3.1,31.4h-115.5c9-12.5,19.2-24.4,29.9-35.3c39.3-40.1,84.4-66.3,97.4-58.2
	C1503.6,249.9,1491.1,275,1484.9,305.6z"/>
<path class="st3" d="M883.7,307.2c-1,0.2-1.9,0.3-2.8,0.5L813.3,337H427.4c1.2-1.4,2.4-2.7,3.7-4.1c19.7-21.4,42-40.7,65.9-56.6l0,0
	c1.3-0.9,2.6-1.8,4-2.6l0,0c1.2-0.8,2.5-1.6,3.8-2.4c1.8-1.1,3.5-2.2,5.3-3.3c2.2-1.3,4.3-2.6,6.5-3.8c2-1.1,4-2.2,6-3.3
	c2.4-1.3,4.8-2.5,7.2-3.8c1.8-0.9,3.5-1.8,5.3-2.6c2-1,4.1-2,6.2-2.9c2.8-1.3,5.6-2.5,8.4-3.6c6.6-2.8,13.2-5.3,20-7.5
	c7.1-2.4,14.3-4.5,21.5-6.4c1.4-0.4,2.9-0.7,4.3-1.1c0.4-0.1,0.8-0.2,1.2-0.3c1.8-0.4,3.7-0.9,5.5-1.3c17-3.8,34.3-6,51.4-6.9
	c13.1-0.7,26.2-0.6,39,0.3c1.4,0.1,2.7,0.2,4.1,0.3c6.8,0.5,13.7,1.3,20.4,2.2c1.2,0.2,2.4,0.3,3.6,0.5c1.4,0.2,2.7,0.4,4.1,0.7
	c6.4,1.1,12.7,2.3,18.9,3.7c7.1,1.6,14.2,3.5,21.1,5.6c11,3.3,21.7,7.2,32.1,11.6c9.5,4.1,18.7,8.6,27.5,13.5
	c0.8,0.4,1.5,0.9,2.3,1.3c0.2,0.1,0.4,0.2,0.6,0.4l0,0c0.1,0.1,0.2,0.1,0.3,0.2c0.7,0.4,1.4,0.8,2.1,1.2c5,2.9,9.9,6,14.6,9.2
	c7.7,5.2,15.1,10.8,22.1,16.5c0.1,0,0.2,0.1,0.2,0.2c5.9,4.8,11.5,9.8,16.8,14.8C883.3,306.8,883.5,307,883.7,307.2z"/>
<circle class="st2" cx="834.9" cy="223.1" r="20.3"/>
<circle class="st2" cx="740.5" cy="237.2" r="20.3"/>
<circle class="st2" cx="842" cy="316.8" r="20.3"/>
<circle class="st2" cx="930.3" cy="292" r="7.1"/>
<circle class="st2" cx="503.8" cy="273.9" r="7.1"/>
<circle class="st2" cx="441.3" cy="319.6" r="7.1"/>
<path class="st4" d="M200,148.5h19v5.9h-26v-38.5h24.9v5.9H200v10h15.4v5.9H200V148.5z"/>
<path class="st4" d="M237.9,146.3c0-0.6-0.2-1.1-0.5-1.5s-0.8-0.7-1.3-1c-0.6-0.3-1.2-0.5-1.9-0.7s-1.5-0.4-2.3-0.6
	c-1-0.3-2-0.6-2.9-0.9c-0.9-0.4-1.7-0.8-2.4-1.4c-0.7-0.6-1.3-1.3-1.7-2.2s-0.6-1.9-0.6-3.2c0-1.6,0.3-2.9,0.8-4
	c0.6-1.1,1.3-2.1,2.3-2.8c1-0.7,2.1-1.3,3.3-1.7c1.3-0.4,2.6-0.5,4-0.5c1.7,0,3.3,0.1,4.8,0.4s2.8,0.6,4.1,1.1v5.6
	c-0.6-0.2-1.3-0.4-2-0.6c-0.7-0.2-1.4-0.3-2.1-0.5c-0.7-0.1-1.4-0.2-2.1-0.3c-0.7-0.1-1.4-0.1-2-0.1c-0.8,0-1.5,0.1-2,0.2
	c-0.6,0.2-1,0.4-1.4,0.6c-0.3,0.3-0.6,0.6-0.7,0.9c-0.2,0.3-0.2,0.7-0.2,1c0,0.6,0.2,1.2,0.5,1.6c0.3,0.4,0.8,0.7,1.4,1
	c0.6,0.2,1.2,0.5,1.9,0.6c0.7,0.2,1.3,0.3,1.9,0.5c1,0.2,1.9,0.5,2.9,0.8s1.8,0.8,2.6,1.4c0.8,0.6,1.4,1.3,1.9,2.3
	c0.5,0.9,0.7,2.1,0.7,3.6c0,1.6-0.3,2.9-0.9,4.1c-0.6,1.2-1.4,2.1-2.5,2.9c-1.1,0.8-2.3,1.4-3.8,1.7c-1.5,0.4-3.1,0.6-4.9,0.6
	c-1.8,0-3.4-0.1-4.8-0.4c-1.4-0.3-2.6-0.6-3.5-1v-5.5c1.5,0.6,2.9,0.9,4.1,1.1c1.3,0.2,2.4,0.3,3.5,0.3c0.8,0,1.6-0.1,2.4-0.2
	c0.7-0.1,1.4-0.3,1.9-0.6s0.9-0.6,1.3-1C237.8,147.4,237.9,146.9,237.9,146.3z"/>
<path class="st4" d="M267.6,154.4c-0.8,0.2-1.7,0.4-2.7,0.5c-1.1,0.1-2.1,0.2-3,0.2c-2.3,0-4.3-0.4-5.7-1.1
	c-1.5-0.8-2.5-1.8-3.1-3.3c-0.4-1-0.7-2.4-0.7-4.1v-14.4h-5.2v-5.6h5.2v-7.8h6.8v7.8h8.1v5.6h-8.1v13.5c0,1.1,0.2,1.9,0.5,2.4
	c0.6,0.9,1.7,1.3,3.4,1.3c0.8,0,1.6-0.1,2.3-0.2c0.8-0.1,1.5-0.3,2.2-0.5L267.6,154.4L267.6,154.4z"/>
<path class="st4" d="M287.2,149.6c1.3,0,2.7-0.1,4.1-0.4c1.4-0.3,2.9-0.7,4.4-1.2v5.4c-0.9,0.4-2.2,0.7-4.1,1.1
	c-1.8,0.3-3.7,0.5-5.7,0.5s-3.9-0.3-5.6-0.8c-1.8-0.5-3.3-1.3-4.6-2.5c-1.3-1.1-2.4-2.6-3.1-4.4c-0.8-1.8-1.2-4-1.2-6.6
	c0-2.5,0.4-4.7,1.1-6.6c0.7-1.9,1.7-3.5,2.9-4.7c1.2-1.2,2.6-2.2,4.2-2.8c1.6-0.6,3.2-0.9,4.9-0.9c1.8,0,3.4,0.3,4.9,0.8
	s2.8,1.4,3.9,2.5c1.1,1.2,1.9,2.6,2.5,4.4c0.6,1.8,0.9,4,0.9,6.4c0,1,0,1.8-0.1,2.4h-18.3c0.1,1.3,0.4,2.4,0.9,3.3
	c0.5,0.9,1.1,1.6,1.9,2.2c0.8,0.6,1.7,1,2.7,1.2C284.9,149.5,286,149.6,287.2,149.6z M284.5,131.2c-0.9,0-1.6,0.2-2.3,0.5
	c-0.7,0.3-1.3,0.7-1.7,1.3s-0.9,1.2-1.2,1.9c-0.3,0.7-0.5,1.5-0.6,2.3h11c0-0.8-0.1-1.6-0.3-2.3c-0.2-0.7-0.5-1.4-1-1.9
	s-1-1-1.6-1.3C286.1,131.3,285.4,131.2,284.5,131.2z"/>
<path class="st4" d="M329.6,149.6c1.3,0,2.7-0.1,4.1-0.4c1.4-0.3,2.9-0.7,4.4-1.2v5.4c-0.9,0.4-2.2,0.7-4.1,1.1
	c-1.8,0.3-3.7,0.5-5.7,0.5s-3.9-0.3-5.6-0.8c-1.8-0.5-3.3-1.3-4.6-2.5c-1.3-1.1-2.4-2.6-3.1-4.4c-0.8-1.8-1.2-4-1.2-6.6
	c0-2.5,0.4-4.7,1.1-6.6c0.7-1.9,1.7-3.5,2.9-4.7c1.2-1.2,2.6-2.2,4.2-2.8c1.6-0.6,3.2-0.9,4.9-0.9c1.8,0,3.4,0.3,4.9,0.8
	s2.8,1.4,3.9,2.5c1.1,1.2,1.9,2.6,2.5,4.4c0.6,1.8,0.9,4,0.9,6.4c0,1,0,1.8-0.1,2.4h-18.3c0.1,1.3,0.4,2.4,0.9,3.3
	c0.5,0.9,1.1,1.6,1.9,2.2c0.8,0.6,1.7,1,2.7,1.2S328.4,149.6,329.6,149.6z M326.9,131.2c-0.9,0-1.6,0.2-2.3,0.5
	c-0.7,0.3-1.3,0.7-1.7,1.3c-0.5,0.5-0.9,1.2-1.2,1.9c-0.3,0.7-0.5,1.5-0.6,2.3h11c0-0.8-0.1-1.6-0.3-2.3c-0.2-0.7-0.5-1.4-1-1.9
	s-1-1-1.6-1.3C328.5,131.3,327.7,131.2,326.9,131.2z"/>
<path class="st4" d="M357.8,146.3c0-0.6-0.2-1.1-0.5-1.5s-0.8-0.7-1.3-1c-0.6-0.3-1.2-0.5-1.9-0.7c-0.7-0.2-1.5-0.4-2.3-0.6
	c-1-0.3-2-0.6-2.9-0.9c-0.9-0.4-1.7-0.8-2.4-1.4c-0.7-0.6-1.3-1.3-1.7-2.2c-0.4-0.9-0.6-1.9-0.6-3.2c0-1.6,0.3-2.9,0.8-4
	c0.6-1.1,1.3-2.1,2.3-2.8c0.9-0.7,2.1-1.3,3.3-1.7c1.3-0.4,2.6-0.5,4-0.5c1.7,0,3.3,0.1,4.8,0.4s2.8,0.6,4.1,1.1v5.6
	c-0.6-0.2-1.3-0.4-2-0.6c-0.7-0.2-1.4-0.3-2.1-0.5c-0.7-0.1-1.4-0.2-2.1-0.3s-1.4-0.1-2-0.1c-0.8,0-1.5,0.1-2,0.2
	c-0.6,0.2-1,0.4-1.4,0.6s-0.6,0.6-0.7,0.9c-0.2,0.3-0.2,0.7-0.2,1c0,0.6,0.2,1.2,0.5,1.6c0.3,0.4,0.8,0.7,1.4,1
	c0.6,0.2,1.2,0.5,1.9,0.6c0.7,0.2,1.3,0.3,1.9,0.5c1,0.2,1.9,0.5,2.9,0.8s1.8,0.8,2.6,1.4c0.8,0.6,1.4,1.3,1.9,2.3
	c0.5,0.9,0.7,2.1,0.7,3.6c0,1.6-0.3,2.9-0.9,4.1c-0.6,1.2-1.4,2.1-2.5,2.9c-1.1,0.8-2.3,1.4-3.8,1.7c-1.5,0.4-3.1,0.6-4.9,0.6
	s-3.4-0.1-4.8-0.4c-1.4-0.3-2.6-0.6-3.5-1v-5.5c1.5,0.6,2.9,0.9,4.1,1.1c1.3,0.2,2.4,0.3,3.5,0.3c0.8,0,1.6-0.1,2.4-0.2
	c0.7-0.1,1.4-0.3,1.9-0.6s0.9-0.6,1.3-1C357.6,147.4,357.8,146.9,357.8,146.3z"/>
<path class="st4" d="M384.4,155.1c-1.5,0-2.9-0.3-4.1-0.8s-2.2-1.2-3-2h-0.1c0,0.4,0,0.9,0.1,1.6c0,0.7,0,1.5,0,2.3v11.6h-6.8v-41.3
	h6l0.3,3.1h0.1c0.8-1.1,1.9-2,3.3-2.7c1.3-0.7,2.9-1.1,4.6-1.1c1.5,0,3,0.3,4.5,0.8c1.5,0.6,2.8,1.4,3.9,2.6s2,2.6,2.7,4.4
	c0.7,1.8,1,3.9,1,6.4c0,2.6-0.4,4.8-1.1,6.7s-1.7,3.5-2.9,4.7c-1.2,1.2-2.5,2.2-4,2.7C387.4,154.8,385.9,155.1,384.4,155.1z
	 M383.5,131.3c-1.2,0-2.3,0.3-3.4,0.9c-1.1,0.6-2,1.3-2.8,2.3v12.4c0.3,0.3,0.6,0.7,1,1s0.9,0.6,1.4,0.9c0.5,0.3,1,0.5,1.7,0.7
	c0.6,0.2,1.2,0.3,1.9,0.3c1.1,0,2-0.2,2.8-0.7s1.5-1.1,2.1-1.9c0.5-0.8,1-1.8,1.3-2.9c0.3-1.1,0.4-2.4,0.4-3.8
	c0-1.5-0.1-2.8-0.4-3.9c-0.3-1.1-0.7-2.1-1.3-2.8c-0.5-0.7-1.2-1.3-2-1.7C385.3,131.5,384.4,131.3,383.5,131.3z"/>
<path class="st4" d="M419.2,151.5h-0.1c-0.4,0.4-0.8,0.8-1.4,1.2c-0.5,0.4-1.2,0.8-1.8,1.2c-0.7,0.4-1.5,0.7-2.3,0.9
	s-1.8,0.3-2.7,0.3c-1.3,0-2.6-0.2-3.7-0.6c-1.2-0.4-2.1-1-3-1.8c-0.8-0.8-1.5-1.7-1.9-2.8c-0.5-1.1-0.7-2.3-0.7-3.7
	c0-1.5,0.3-2.8,0.8-4s1.3-2.2,2.3-3s2.1-1.5,3.5-1.9s2.9-0.6,4.5-0.6c1.2,0,2.3,0.1,3.3,0.2c1,0.2,1.9,0.3,2.7,0.5v-1.1
	c0-0.7-0.1-1.3-0.3-1.9c-0.2-0.6-0.6-1.1-1.1-1.6s-1.1-0.8-1.9-1.1s-1.7-0.4-2.9-0.4c-1.4,0-2.8,0.2-4.1,0.5
	c-1.4,0.3-2.9,0.8-4.5,1.4v-5.3c1.4-0.6,2.9-1.1,4.5-1.4s3.2-0.5,4.9-0.5c2,0,3.8,0.2,5.3,0.7s2.8,1.2,3.8,2.1
	c1,0.9,1.8,1.9,2.3,3.1c0.5,1.2,0.8,2.5,0.8,3.9v10.5c0,1.8,0,3.4,0.1,4.7c0,1.3,0.1,2.5,0.1,3.5h-6.2L419.2,151.5z M418.6,142.5
	c-0.7-0.2-1.4-0.3-2.2-0.4c-0.8-0.1-1.7-0.2-2.6-0.2c-1.7,0-3,0.3-4,1s-1.5,1.7-1.5,3c0,0.6,0.1,1.2,0.3,1.7
	c0.2,0.5,0.5,0.9,0.9,1.2s0.8,0.5,1.3,0.7s1,0.2,1.6,0.2c0.7,0,1.3-0.1,2-0.3c0.6-0.2,1.2-0.4,1.7-0.7s1-0.6,1.4-0.9
	c0.4-0.3,0.8-0.7,1-1v-4.3H418.6z"/>
<path class="st4" d="M441.4,154.6c-1.4-0.4-2.7-0.9-3.9-1.7c-1.2-0.7-2.2-1.7-3.1-2.8s-1.5-2.5-2-4s-0.7-3.2-0.7-5.2
	c0-2.7,0.4-5,1.3-6.9s2-3.5,3.4-4.7s2.9-2.1,4.6-2.6s3.4-0.8,5-0.8c1.2,0,2.4,0.1,3.6,0.3c1.2,0.2,2.2,0.5,3.1,0.9v5.6
	c-0.8-0.4-1.7-0.7-2.7-0.9c-0.9-0.2-2-0.3-3.1-0.3s-2.1,0.2-3.1,0.5s-1.9,0.9-2.6,1.6c-0.8,0.7-1.4,1.7-1.8,2.9
	c-0.5,1.2-0.7,2.6-0.7,4.4c0,1.2,0.2,2.4,0.5,3.5s0.8,2,1.5,2.8s1.5,1.4,2.6,1.9c1,0.5,2.2,0.7,3.6,0.7c1.2,0,2.4-0.1,3.4-0.4
	c1.1-0.3,2-0.6,2.8-0.9v5.6c-0.8,0.3-1.9,0.7-3.1,0.9c-1.2,0.3-2.6,0.4-4,0.4h-0.5l-0.7,2.7c0.8,0.1,1.5,0.3,2.1,0.6
	c0.7,0.3,1.2,0.6,1.7,1s0.9,0.9,1.1,1.4c0.3,0.5,0.4,1.2,0.4,1.8c0,0.8-0.2,1.6-0.6,2.3s-0.9,1.3-1.7,1.9c-0.7,0.5-1.7,1-2.8,1.3
	c-1.1,0.3-2.4,0.5-3.8,0.5c-0.7,0-1.5-0.1-2.3-0.2c-0.8-0.1-1.4-0.2-1.8-0.4v-4.2c0.5,0.2,1.1,0.3,1.8,0.4c0.7,0.1,1.3,0.1,1.9,0.1
	c0.7,0,1.3-0.1,1.9-0.2c0.5-0.1,0.9-0.3,1.2-0.4c0.3-0.2,0.5-0.4,0.6-0.6c0.1-0.2,0.2-0.4,0.2-0.6c0-0.6-0.4-1-1.3-1.3
	s-2.1-0.5-3.9-0.5L441.4,154.6z"/>
<path class="st4" d="M485.7,140.5c0,2.2-0.3,4.2-1,6s-1.6,3.3-2.8,4.6c-1.2,1.3-2.7,2.3-4.4,3c-1.7,0.7-3.7,1-5.8,1
	c-2.2,0-4.1-0.3-5.9-1c-1.7-0.7-3.2-1.7-4.4-3c-1.2-1.3-2.1-2.8-2.8-4.6c-0.6-1.8-1-3.8-1-6s0.3-4.2,1-6s1.6-3.3,2.8-4.6
	c1.2-1.3,2.7-2.3,4.4-3c1.7-0.7,3.7-1,5.8-1c2.2,0,4.1,0.3,5.9,1c1.7,0.7,3.2,1.7,4.4,3c1.2,1.3,2.1,2.8,2.8,4.6
	C485.3,136.3,485.7,138.3,485.7,140.5z M478.6,140.5c0-1.5-0.2-2.8-0.5-3.9c-0.3-1.1-0.8-2.1-1.4-2.8c-0.6-0.8-1.4-1.3-2.2-1.7
	c-0.9-0.4-1.8-0.6-2.8-0.6s-1.9,0.2-2.8,0.6c-0.9,0.4-1.6,1-2.2,1.7c-0.6,0.8-1.1,1.7-1.4,2.8s-0.5,2.4-0.5,3.9s0.2,2.8,0.5,3.9
	c0.3,1.1,0.8,2.1,1.5,2.8c0.6,0.8,1.4,1.3,2.2,1.7c0.9,0.4,1.8,0.6,2.8,0.6s1.9-0.2,2.8-0.6c0.8-0.4,1.6-1,2.2-1.7
	c0.6-0.8,1.1-1.7,1.4-2.8C478.4,143.3,478.6,142,478.6,140.5z"/>
<path class="st4" d="M517.8,155.1c-1.5,0-2.9-0.3-4.1-0.8c-1.2-0.5-2.2-1.2-3-2h-0.1c0,0.4,0,0.9,0.1,1.6c0,0.7,0,1.5,0,2.3v11.6
	h-6.8v-41.3h6l0.3,3.1h0.1c0.8-1.1,1.9-2,3.3-2.7c1.3-0.7,2.9-1.1,4.6-1.1c1.5,0,3,0.3,4.5,0.8c1.5,0.6,2.8,1.4,3.9,2.6
	c1.1,1.2,2,2.6,2.7,4.4c0.7,1.8,1,3.9,1,6.4c0,2.6-0.4,4.8-1.1,6.7c-0.7,1.9-1.7,3.5-2.9,4.7s-2.5,2.2-4,2.7
	C520.8,154.8,519.3,155.1,517.8,155.1z M516.9,131.3c-1.2,0-2.3,0.3-3.4,0.9c-1.1,0.6-2,1.3-2.8,2.3v12.4c0.3,0.3,0.6,0.7,1,1
	c0.4,0.3,0.9,0.6,1.4,0.9c0.5,0.3,1,0.5,1.7,0.7s1.2,0.3,1.9,0.3c1.1,0,2-0.2,2.8-0.7s1.5-1.1,2.1-1.9c0.5-0.8,1-1.8,1.3-2.9
	c0.3-1.1,0.4-2.4,0.4-3.8c0-1.5-0.1-2.8-0.4-3.9c-0.3-1.1-0.7-2.1-1.3-2.8c-0.5-0.7-1.2-1.3-2-1.7
	C518.7,131.5,517.8,131.3,516.9,131.3z"/>
<path class="st4" d="M548.6,155.1c-2.8,0-5.1-0.5-7-1.4s-3.2-2.2-4.2-3.8c-0.5-0.9-0.9-1.8-1.1-2.8c-0.2-1-0.4-2.2-0.4-3.5v-17h6.8
	v16.3c0,0.9,0.1,1.8,0.2,2.4c0.1,0.7,0.3,1.3,0.6,1.8c0.5,0.8,1.1,1.5,2,1.9c0.8,0.4,1.9,0.6,3,0.6c1.2,0,2.3-0.2,3.1-0.7
	c0.9-0.5,1.5-1.2,2-2.1c0.4-0.9,0.7-2.2,0.7-3.8v-16.5h6.8v17c0,2.3-0.4,4.2-1.2,5.7c-0.4,0.9-1,1.7-1.7,2.4s-1.5,1.3-2.5,1.8
	c-0.9,0.5-2,0.9-3.2,1.2C551.4,155,550,155.1,548.6,155.1z"/>
<path class="st4" d="M595.1,140c0,2.5-0.4,4.7-1.1,6.7c-0.7,1.9-1.7,3.5-2.9,4.8c-1.2,1.2-2.5,2.2-4,2.8s-3,0.9-4.5,0.9
	c-1.1,0-2-0.1-2.8-0.4c-0.8-0.3-1.6-0.6-2.2-1c-0.6-0.4-1.2-0.8-1.6-1.2c-0.4-0.4-0.8-0.8-1-1.1h-0.1l-0.7,3h-5.6
	c0-0.8,0.1-1.8,0.1-3.1c0-1.2,0-2.4,0-3.5v-35.1h6.8v11.6c0,0.8,0,1.6,0,2.3c0,0.7,0,1.2,0,1.6h0.1c0.4-0.3,0.9-0.6,1.4-0.9
	s1.1-0.5,1.7-0.8c0.6-0.2,1.3-0.4,2-0.5s1.5-0.2,2.2-0.2c1.6,0,3.1,0.3,4.5,0.8c1.5,0.6,2.8,1.4,3.9,2.6c1.1,1.2,2,2.6,2.7,4.5
	C594.8,135.6,595.1,137.6,595.1,140z M588.1,140.4c0-1.7-0.2-3.2-0.6-4.5c-0.4-1.3-1-2.2-1.7-2.9s-1.4-1.1-2.1-1.3
	c-0.7-0.2-1.5-0.3-2.2-0.3c-1,0-2,0.2-3,0.6s-2,0.9-2.8,1.6v13.3c0.3,0.3,0.6,0.6,1,1c0.4,0.3,0.8,0.6,1.3,0.9
	c0.5,0.3,1,0.5,1.6,0.7s1.2,0.3,1.8,0.3c1.1,0,2.1-0.2,2.9-0.7c0.8-0.5,1.5-1.1,2.1-1.9c0.6-0.8,1-1.8,1.3-2.9
	C587.9,143,588.1,141.8,588.1,140.4z"/>
<path class="st4" d="M601.5,154.4v-41.7h6.8v41.7H601.5z"/>
<path class="st4" d="M616,112.8h7.2v7.4H616V112.8z M616.2,126.5h6.8v27.9h-6.8V126.5z"/>
<path class="st4" d="M650.8,153.8c-0.9,0.4-1.9,0.7-3.2,0.9c-1.2,0.3-2.6,0.4-3.9,0.4c-2,0-3.9-0.3-5.6-0.9
	c-1.7-0.6-3.3-1.4-4.6-2.6c-1.3-1.2-2.3-2.7-3.1-4.4c-0.7-1.8-1.1-3.9-1.1-6.3c0-2.7,0.4-5,1.3-6.9c0.9-1.9,2-3.5,3.4-4.7
	s2.9-2.1,4.6-2.6c1.7-0.6,3.4-0.8,5.1-0.8c1.2,0,2.4,0.1,3.6,0.3c1.2,0.2,2.2,0.5,3.1,0.9v5.6c-0.8-0.4-1.7-0.7-2.7-0.9
	c-0.9-0.2-2-0.3-3.1-0.3s-2.1,0.2-3.1,0.5s-1.9,0.9-2.6,1.6c-0.8,0.7-1.4,1.7-1.8,2.9c-0.5,1.2-0.7,2.6-0.7,4.3
	c0,1.2,0.2,2.4,0.5,3.5s0.8,2,1.5,2.8s1.5,1.4,2.5,1.9s2.2,0.7,3.6,0.7c1.2,0,2.4-0.1,3.4-0.4c1-0.2,2-0.6,2.9-0.9L650.8,153.8
	L650.8,153.8z"/>
<path class="st4" d="M656.7,112.8h7.2v7.4h-7.2V112.8z M656.8,126.5h6.8v27.9h-6.8V126.5z"/>
<path class="st4" d="M688.3,154.4c-0.8,0.2-1.7,0.4-2.7,0.5c-1.1,0.1-2.1,0.2-3,0.2c-2.3,0-4.3-0.4-5.7-1.1
	c-1.5-0.8-2.5-1.8-3.1-3.3c-0.4-1-0.7-2.4-0.7-4.1v-14.4h-5.2v-5.6h5.2v-7.8h6.8v7.8h8.1v5.6h-8.1v13.5c0,1.1,0.2,1.9,0.5,2.4
	c0.6,0.9,1.7,1.3,3.4,1.3c0.8,0,1.6-0.1,2.3-0.2c0.8-0.1,1.5-0.3,2.2-0.5V154.4z"/>
<path class="st4" d="M710,151.5L710,151.5c-0.5,0.4-0.9,0.8-1.5,1.2c-0.5,0.4-1.2,0.8-1.8,1.2s-1.5,0.7-2.3,0.9s-1.8,0.3-2.7,0.3
	c-1.3,0-2.6-0.2-3.7-0.6c-1.2-0.4-2.1-1-3-1.8c-0.8-0.8-1.5-1.7-1.9-2.8c-0.5-1.1-0.7-2.3-0.7-3.7c0-1.5,0.3-2.8,0.8-4
	s1.3-2.2,2.3-3s2.1-1.5,3.5-1.9s2.9-0.6,4.5-0.6c1.2,0,2.3,0.1,3.3,0.2c1,0.2,1.9,0.3,2.7,0.5v-1.1c0-0.7-0.1-1.3-0.3-1.9
	c-0.2-0.6-0.6-1.1-1.1-1.6s-1.1-0.8-1.9-1.1c-0.8-0.3-1.7-0.4-2.9-0.4c-1.4,0-2.8,0.2-4.1,0.5c-1.4,0.3-2.9,0.8-4.5,1.4v-5.3
	c1.4-0.6,2.9-1.1,4.5-1.4s3.2-0.5,4.9-0.5c2,0,3.8,0.2,5.3,0.7s2.8,1.2,3.8,2.1c1,0.9,1.8,1.9,2.3,3.1c0.5,1.2,0.8,2.5,0.8,3.9v10.5
	c0,1.8,0,3.4,0.1,4.7c0,1.3,0.1,2.5,0.1,3.5h-6.2L710,151.5z M709.5,142.5c-0.7-0.2-1.4-0.3-2.2-0.4c-0.8-0.1-1.7-0.2-2.6-0.2
	c-1.7,0-3,0.3-4,1s-1.5,1.7-1.5,3c0,0.6,0.1,1.2,0.3,1.7s0.5,0.9,0.9,1.2s0.8,0.5,1.3,0.7s1,0.2,1.6,0.2c0.7,0,1.3-0.1,2-0.3
	c0.6-0.2,1.2-0.4,1.7-0.7s1-0.6,1.4-0.9c0.4-0.3,0.8-0.7,1-1L709.5,142.5L709.5,142.5z M711.6,112l-4.7,10h-5.3l3.4-10H711.6z"/>
<path class="st4" d="M740.5,132H740c-2.1,0-3.9,0.3-5.5,0.9c-1.6,0.6-2.8,1.6-3.7,2.9v18.7H724v-27.9h5.6l0.6,3.9h0.1
	c0.8-1.4,1.9-2.5,3.3-3.4c1.4-0.8,3.1-1.2,5.1-1.2c0.7,0,1.3,0,1.8,0.1L740.5,132L740.5,132z"/>
<path class="st4" d="M744.6,112.8h7.2v7.4h-7.2V112.8z M744.7,126.5h6.8v27.9h-6.8V126.5z"/>
<path class="st4" d="M785.8,140.5c0,2.2-0.3,4.2-1,6s-1.6,3.3-2.8,4.6s-2.7,2.3-4.4,3s-3.7,1-5.8,1c-2.2,0-4.1-0.3-5.9-1
	c-1.7-0.7-3.2-1.7-4.4-3s-2.1-2.8-2.8-4.6c-0.6-1.8-1-3.8-1-6s0.3-4.2,1-6s1.6-3.3,2.8-4.6s2.7-2.3,4.4-3s3.7-1,5.8-1
	c2.2,0,4.1,0.3,5.9,1c1.7,0.7,3.2,1.7,4.4,3s2.1,2.8,2.8,4.6S785.8,138.3,785.8,140.5z M778.7,140.5c0-1.5-0.2-2.8-0.5-3.9
	c-0.3-1.1-0.8-2.1-1.4-2.8c-0.6-0.8-1.4-1.3-2.2-1.7c-0.9-0.4-1.8-0.6-2.8-0.6s-1.9,0.2-2.8,0.6c-0.9,0.4-1.6,1-2.2,1.7
	c-0.6,0.8-1.1,1.7-1.4,2.8c-0.3,1.1-0.5,2.4-0.5,3.9s0.2,2.8,0.5,3.9c0.3,1.1,0.8,2.1,1.5,2.8c0.6,0.8,1.4,1.3,2.2,1.7
	c0.9,0.4,1.8,0.6,2.8,0.6s1.9-0.2,2.8-0.6c0.8-0.4,1.6-1,2.2-1.7c0.6-0.8,1.1-1.7,1.4-2.8C778.6,143.3,778.7,142,778.7,140.5z"/>
<path class="st4" d="M822.5,155c-1.5,0-2.9-0.3-4.1-0.8c-1.2-0.5-2.2-1.2-3-2h-0.1c0,0.4,0,0.9,0.1,1.6c0,0.7,0,1.5,0,2.3v11.6h-6.8
	v-41.3h6l0.3,3.1h0.1c0.8-1.1,1.9-2,3.3-2.7c1.3-0.7,2.9-1.1,4.6-1.1c1.5,0,3,0.3,4.5,0.8c1.5,0.6,2.8,1.4,3.9,2.6
	c1.1,1.2,2,2.6,2.7,4.4c0.7,1.8,1,3.9,1,6.4c0,2.6-0.4,4.8-1.1,6.7c-0.7,1.9-1.7,3.5-2.9,4.7s-2.5,2.2-4,2.7
	C825.5,154.7,824.1,155,822.5,155z M821.6,131.2c-1.2,0-2.3,0.3-3.4,0.9c-1.1,0.6-2,1.3-2.8,2.3v12.4c0.3,0.3,0.6,0.7,1,1
	s0.9,0.6,1.4,0.9c0.5,0.3,1,0.5,1.7,0.7c0.6,0.2,1.2,0.3,1.9,0.3c1.1,0,2-0.2,2.8-0.7s1.5-1.1,2.1-1.9c0.5-0.8,1-1.8,1.3-2.9
	c0.3-1.1,0.4-2.4,0.4-3.8c0-1.5-0.1-2.8-0.4-3.9c-0.3-1.1-0.7-2.1-1.3-2.8c-0.5-0.7-1.2-1.3-2-1.7
	C823.4,131.4,822.6,131.2,821.6,131.2z"/>
<path class="st4" d="M867.5,140.4c0,2.2-0.3,4.2-1,6s-1.6,3.3-2.8,4.6s-2.7,2.3-4.4,3s-3.7,1-5.8,1c-2.2,0-4.1-0.4-5.9-1
	c-1.7-0.7-3.2-1.7-4.4-3s-2.1-2.8-2.8-4.6c-0.6-1.8-1-3.8-1-6s0.3-4.2,1-6s1.6-3.3,2.8-4.6s2.7-2.3,4.4-3s3.7-1,5.8-1
	c2.2,0,4.1,0.4,5.9,1c1.7,0.7,3.2,1.7,4.4,3s2.1,2.8,2.8,4.6S867.5,138.2,867.5,140.4z M860.5,140.4c0-1.5-0.2-2.8-0.5-3.9
	c-0.3-1.1-0.8-2.1-1.4-2.8c-0.6-0.8-1.4-1.3-2.2-1.7s-1.8-0.6-2.8-0.6s-1.9,0.2-2.8,0.6c-0.9,0.4-1.6,1-2.2,1.7
	c-0.6,0.8-1.1,1.7-1.4,2.8c-0.3,1.1-0.5,2.4-0.5,3.9s0.2,2.8,0.5,3.9c0.3,1.1,0.8,2.1,1.5,2.8c0.6,0.8,1.4,1.3,2.2,1.7
	c0.9,0.4,1.8,0.6,2.8,0.6s1.9-0.2,2.8-0.6c0.8-0.4,1.6-1,2.2-1.7c0.6-0.8,1.1-1.7,1.4-2.8C860.3,143.1,860.5,141.8,860.5,140.4z"/>
<path class="st4" d="M872.1,140.9c0-2.4,0.3-4.6,1-6.5s1.6-3.5,2.7-4.8c1.2-1.3,2.5-2.3,4-2.9s3-1,4.7-1c0.7,0,1.5,0.1,2.1,0.2
	c0.7,0.1,1.3,0.3,1.9,0.5c0.6,0.2,1.2,0.5,1.7,0.8s1,0.6,1.4,0.9h0.1c0-0.4,0-0.9,0-1.6s0-1.5,0-2.3v-11.6h6.8V146
	c0,1.8,0,3.4,0.1,4.7c0,1.3,0.1,2.5,0.1,3.5h-6.2l-0.3-3h-0.1c-0.4,0.5-0.9,0.9-1.5,1.4s-1.2,0.9-1.9,1.2s-1.4,0.6-2.2,0.8
	s-1.7,0.3-2.7,0.3c-1.5,0-3-0.3-4.4-0.8s-2.6-1.4-3.7-2.5c-1.1-1.1-2-2.6-2.6-4.4C872.5,145.5,872.1,143.4,872.1,140.9z
	 M885.6,149.6c0.7,0,1.3-0.1,1.9-0.3c0.6-0.2,1.2-0.4,1.7-0.7s1-0.6,1.4-0.9c0.4-0.3,0.8-0.7,1-1v-13.2c-0.8-0.7-1.7-1.2-2.7-1.6
	c-1-0.4-2.1-0.6-3.2-0.6c-0.7,0-1.5,0.1-2.2,0.4s-1.5,0.8-2.1,1.5s-1.2,1.6-1.6,2.9c-0.4,1.2-0.6,2.8-0.6,4.7c0,2.8,0.5,5,1.6,6.6
	C881.9,148.7,883.5,149.5,885.6,149.6z"/>
<path class="st4" d="M920.8,149.5c1.3,0,2.7-0.1,4.1-0.4c1.4-0.3,2.9-0.7,4.4-1.2v5.4c-0.9,0.4-2.2,0.7-4.1,1.1
	c-1.8,0.3-3.7,0.5-5.7,0.5s-3.9-0.3-5.6-0.8c-1.8-0.5-3.3-1.3-4.6-2.5c-1.3-1.1-2.4-2.6-3.1-4.4c-0.8-1.8-1.2-4-1.2-6.6
	c0-2.5,0.4-4.7,1.1-6.6c0.7-1.9,1.7-3.5,2.9-4.7s2.6-2.2,4.2-2.8c1.6-0.6,3.2-0.9,4.9-0.9c1.8,0,3.4,0.3,4.9,0.8s2.8,1.4,3.9,2.5
	c1.1,1.2,1.9,2.6,2.5,4.4c0.6,1.8,0.9,4,0.9,6.4c0,1,0,1.8-0.1,2.4H912c0.1,1.3,0.4,2.4,0.9,3.3c0.5,0.9,1.1,1.6,1.9,2.2
	c0.8,0.6,1.7,1,2.7,1.2C918.5,149.4,919.6,149.5,920.8,149.5z M918,131c-0.9,0-1.6,0.2-2.3,0.5s-1.3,0.7-1.7,1.3
	c-0.5,0.5-0.9,1.2-1.2,1.9s-0.5,1.5-0.6,2.3h11c0-0.8-0.1-1.6-0.3-2.3s-0.5-1.4-1-1.9c-0.4-0.5-1-1-1.6-1.3
	C919.7,131.2,918.9,131,918,131z"/>
<path class="st4" d="M206.6,202.4c0-0.6-0.2-1.1-0.5-1.5s-0.8-0.7-1.3-1c-0.6-0.3-1.2-0.5-1.9-0.7s-1.5-0.4-2.3-0.6
	c-1-0.3-2-0.6-2.9-0.9c-0.9-0.4-1.7-0.8-2.4-1.4c-0.7-0.6-1.3-1.3-1.7-2.2s-0.6-1.9-0.6-3.2c0-1.6,0.3-2.9,0.8-4
	c0.6-1.1,1.3-2.1,2.3-2.8c0.9-0.7,2.1-1.3,3.3-1.7c1.3-0.4,2.6-0.5,4-0.5c1.7,0,3.3,0.1,4.8,0.4c1.5,0.3,2.8,0.6,4.1,1.1v5.6
	c-0.6-0.2-1.3-0.4-2-0.6c-0.7-0.2-1.4-0.3-2.1-0.5s-1.4-0.2-2.1-0.3c-0.7-0.1-1.4-0.1-2-0.1c-0.8,0-1.5,0.1-2,0.2
	c-0.6,0.2-1,0.4-1.4,0.6c-0.3,0.3-0.6,0.6-0.7,0.9c-0.2,0.3-0.2,0.7-0.2,1.1c0,0.6,0.2,1.2,0.5,1.6c0.3,0.4,0.8,0.7,1.4,1
	c0.6,0.2,1.2,0.5,1.9,0.6c0.7,0.2,1.3,0.3,1.9,0.5c1,0.2,1.9,0.5,2.9,0.8s1.8,0.8,2.6,1.4c0.8,0.6,1.4,1.3,1.9,2.3
	c0.5,0.9,0.7,2.1,0.7,3.6c0,1.6-0.3,2.9-0.9,4.1c-0.6,1.2-1.4,2.1-2.5,2.9c-1.1,0.8-2.3,1.4-3.8,1.7c-1.5,0.4-3.1,0.6-4.9,0.6
	c-1.8,0-3.4-0.1-4.8-0.4c-1.4-0.3-2.6-0.6-3.5-1.1v-5.5c1.5,0.6,2.9,0.9,4.1,1.1c1.3,0.2,2.4,0.3,3.5,0.3c0.8,0,1.6-0.1,2.4-0.2
	c0.7-0.1,1.4-0.3,1.9-0.6s0.9-0.6,1.3-1C206.5,203.5,206.6,203,206.6,202.4z"/>
<path class="st4" d="M233.6,205.7c1.3,0,2.7-0.1,4.1-0.4c1.4-0.3,2.9-0.7,4.4-1.2v5.4c-0.9,0.4-2.2,0.7-4.1,1.1
	c-1.8,0.3-3.7,0.5-5.7,0.5s-3.9-0.3-5.6-0.8c-1.8-0.5-3.3-1.3-4.6-2.5c-1.3-1.1-2.4-2.6-3.1-4.4c-0.8-1.8-1.2-4-1.2-6.6
	c0-2.5,0.4-4.7,1.1-6.6c0.7-1.9,1.7-3.5,2.9-4.7s2.6-2.2,4.2-2.8c1.6-0.6,3.2-0.9,4.9-0.9c1.8,0,3.4,0.3,4.9,0.8s2.8,1.4,3.9,2.5
	c1.1,1.2,1.9,2.6,2.5,4.4c0.6,1.8,0.9,4,0.9,6.4c0,1,0,1.8-0.1,2.4h-18.3c0.1,1.3,0.4,2.4,0.9,3.3c0.5,0.9,1.1,1.6,1.9,2.2
	c0.8,0.6,1.7,1,2.7,1.2C231.3,205.6,232.4,205.7,233.6,205.7z M230.9,187.2c-0.9,0-1.6,0.2-2.3,0.5s-1.3,0.7-1.7,1.3
	c-0.5,0.5-0.9,1.2-1.2,1.9s-0.5,1.5-0.6,2.3h11c0-0.8-0.1-1.6-0.3-2.3s-0.5-1.4-1-1.9c-0.4-0.5-1-1-1.6-1.3
	C232.5,187.4,231.7,187.2,230.9,187.2z"/>
<path class="st4" d="M266,188h-0.6c-2.1,0-3.9,0.3-5.5,0.9c-1.6,0.6-2.8,1.6-3.7,2.9v18.7h-6.8v-27.9h5.6l0.6,3.9h0.1
	c0.8-1.4,1.9-2.5,3.3-3.4c1.4-0.8,3.1-1.2,5.1-1.2c0.7,0,1.3,0,1.8,0.1v6H266z"/>
<path class="st4" d="M294.5,202.4c0-0.6-0.2-1.1-0.5-1.5s-0.8-0.7-1.3-1c-0.6-0.3-1.2-0.5-1.9-0.7s-1.5-0.4-2.3-0.6
	c-1-0.3-2-0.6-2.9-0.9s-1.7-0.8-2.4-1.4c-0.7-0.6-1.3-1.3-1.7-2.2c-0.4-0.9-0.6-1.9-0.6-3.2c0-1.6,0.3-2.9,0.8-4
	c0.6-1.1,1.3-2.1,2.3-2.8c0.9-0.7,2.1-1.3,3.3-1.7c1.3-0.4,2.6-0.5,4-0.5c1.7,0,3.3,0.1,4.8,0.4c1.5,0.3,2.8,0.6,4.1,1.1v5.6
	c-0.6-0.2-1.3-0.4-2-0.6c-0.7-0.2-1.4-0.3-2.1-0.5s-1.4-0.2-2.1-0.3s-1.4-0.1-2-0.1c-0.8,0-1.5,0.1-2,0.2c-0.6,0.2-1,0.4-1.4,0.6
	c-0.3,0.3-0.6,0.6-0.7,0.9c-0.2,0.3-0.2,0.7-0.2,1.1c0,0.6,0.2,1.2,0.5,1.6c0.3,0.4,0.8,0.7,1.4,1c0.6,0.2,1.2,0.5,1.9,0.6
	c0.7,0.2,1.3,0.3,1.9,0.5c1,0.2,1.9,0.5,2.9,0.8s1.8,0.8,2.6,1.4c0.8,0.6,1.4,1.3,1.9,2.3c0.5,0.9,0.7,2.1,0.7,3.6
	c0,1.6-0.3,2.9-0.9,4.1c-0.6,1.2-1.4,2.1-2.5,2.9c-1.1,0.8-2.3,1.4-3.8,1.7c-1.5,0.4-3.1,0.6-4.9,0.6s-3.4-0.1-4.8-0.4
	c-1.4-0.3-2.6-0.6-3.5-1.1v-5.5c1.5,0.6,2.9,0.9,4.1,1.1c1.3,0.2,2.4,0.3,3.5,0.3c0.8,0,1.6-0.1,2.4-0.2c0.7-0.1,1.4-0.3,1.9-0.6
	s0.9-0.6,1.3-1C294.4,203.5,294.5,203,294.5,202.4z"/>
<path class="st4" d="M321.5,205.7c1.3,0,2.7-0.1,4.1-0.4c1.4-0.3,2.9-0.7,4.4-1.2v5.4c-0.9,0.4-2.2,0.7-4.1,1.1
	c-1.8,0.3-3.7,0.5-5.7,0.5s-3.9-0.3-5.6-0.8c-1.8-0.5-3.3-1.3-4.6-2.5c-1.3-1.1-2.4-2.6-3.1-4.4c-0.8-1.8-1.2-4-1.2-6.6
	c0-2.5,0.4-4.7,1.1-6.6c0.7-1.9,1.7-3.5,2.9-4.7c1.2-1.2,2.6-2.2,4.2-2.8s3.2-0.9,4.9-0.9c1.8,0,3.4,0.3,4.9,0.8s2.8,1.4,3.9,2.5
	c1.1,1.2,1.9,2.6,2.5,4.4c0.6,1.8,0.9,4,0.9,6.4c0,1,0,1.8-0.1,2.4h-18.3c0.1,1.3,0.4,2.4,0.9,3.3c0.5,0.9,1.1,1.6,1.9,2.2
	c0.8,0.6,1.7,1,2.7,1.2C319.2,205.6,320.3,205.7,321.5,205.7z M318.8,187.2c-0.9,0-1.6,0.2-2.3,0.5c-0.7,0.3-1.3,0.7-1.7,1.3
	c-0.5,0.5-0.9,1.2-1.2,1.9c-0.3,0.7-0.5,1.5-0.6,2.3h11c0-0.8-0.1-1.6-0.3-2.3c-0.2-0.7-0.5-1.4-1-1.9c-0.4-0.5-1-1-1.6-1.3
	C320.4,187.4,319.6,187.2,318.8,187.2z"/>
<path class="st4" d="M349.7,211.2c-2.8,0-5.1-0.5-7-1.4c-1.8-0.9-3.2-2.2-4.2-3.8c-0.5-0.9-0.9-1.8-1.1-2.8s-0.4-2.2-0.4-3.5v-17
	h6.8V199c0,0.9,0.1,1.8,0.2,2.4c0.1,0.7,0.3,1.3,0.6,1.8c0.5,0.8,1.1,1.5,2,1.9c0.8,0.4,1.9,0.6,3,0.6c1.2,0,2.3-0.2,3.1-0.7
	c0.9-0.5,1.5-1.2,2-2.1c0.4-0.9,0.7-2.2,0.7-3.8v-16.5h6.8v17c0,2.3-0.4,4.2-1.2,5.7c-0.4,0.9-1,1.7-1.7,2.4s-1.5,1.3-2.5,1.8
	c-0.9,0.5-2,0.9-3.2,1.2C352.5,211.1,351.1,211.2,349.7,211.2z"/>
<g>
	<path class="st5" d="M887.7,226.1c0-3.6,2.9-6.4,6.5-6.4c3.6,0,7.1,3,6.5,7.6h-8.7c0.4,0.7,1.2,1.4,2.5,1.4c1.2,0,2-0.5,2.4-1
		l3.3,1.5c-1,1.8-3,3.2-5.7,3.2C890.4,232.5,887.7,229.7,887.7,226.1z M896.5,224.9c-0.4-0.8-1.2-1.4-2.3-1.4c-1,0-1.7,0.6-2.1,1.4
		H896.5z"/>
	<path class="st5" d="M902.6,215.4h5.8c3.5,0,6.1,1.5,6.1,4.5c0,1.4-0.5,2.5-1.5,3.4c1.3,0.8,2.2,2.1,2.2,3.9c0,3.3-2.8,5.1-6.3,5.1
		h-6.4L902.6,215.4L902.6,215.4z M908.5,221.8c1.2,0,1.8-0.5,1.8-1.4s-0.6-1.4-1.8-1.4h-1.6v2.7H908.5z M909,228.6
		c1.4,0,1.9-0.6,1.9-1.6c0-0.9-0.5-1.6-1.9-1.6h-2.1v3.1H909z"/>
	<path class="st5" d="M916.6,226.1c0-3.6,2.9-6.4,6.5-6.4c3.6,0,6.5,2.8,6.5,6.4c0,3.6-2.9,6.4-6.5,6.4
		C919.5,232.5,916.6,229.7,916.6,226.1z M923.1,228.8c1.5,0,2.6-1.2,2.6-2.6c0-1.5-1.2-2.7-2.6-2.7s-2.6,1.2-2.6,2.7
		C920.5,227.6,921.6,228.8,923.1,228.8z"/>
	<path class="st5" d="M931.3,214.4h3.8v17.9h-3.8V214.4L931.3,214.4z"/>
	<path class="st5" d="M936.8,226.1c0-3.4,2.4-6.4,6.1-6.4c1.3,0,2.5,0.4,3.4,1.1V220h3.8v12.2h-3.8v-0.8c-0.9,0.7-2,1.1-3.4,1.1
		C939.2,232.5,936.8,229.6,936.8,226.1z M943.3,228.8c1.5,0,2.6-1.2,2.6-2.6c0-1.5-1.2-2.7-2.6-2.7s-2.6,1.2-2.6,2.7
		C940.7,227.6,941.9,228.8,943.3,228.8z"/>
	<path class="st5" d="M951.8,226.1c0-3.4,2.4-6.4,6.1-6.4c1.3,0,2.5,0.4,3.4,1.1v-6.5h3.8v17.9h-3.8v-0.8c-0.9,0.7-2,1.1-3.4,1.1
		C954.2,232.5,951.8,229.6,951.8,226.1z M958.3,228.8c1.5,0,2.6-1.2,2.6-2.6c0-1.5-1.2-2.7-2.6-2.7s-2.7,1.2-2.7,2.7
		C955.6,227.6,956.8,228.8,958.3,228.8z"/>
	<path class="st5" d="M966.7,226.1c0-3.4,2.4-6.4,6.1-6.4c1.3,0,2.5,0.4,3.4,1.1V220h3.8v12.2h-3.8v-0.8c-0.9,0.7-2,1.1-3.4,1.1
		C969.1,232.5,966.7,229.6,966.7,226.1z M973.3,228.8c1.5,0,2.6-1.2,2.6-2.6c0-1.5-1.2-2.7-2.6-2.7c-1.5,0-2.6,1.2-2.6,2.7
		C970.6,227.6,971.8,228.8,973.3,228.8z"/>
	<path class="st5" d="M981.3,229l3.8-0.7c0,0.5,0.5,1.2,1.7,1.2c0.7,0,1.1-0.3,1.1-0.8c0-0.5-0.4-0.6-2.4-1.1
		c-2-0.4-3.7-1.3-3.7-3.8c0-2.7,2.4-4,4.6-4c2.3,0,4.1,1.1,4.6,3.1l-3.3,0.8c-0.1-0.3-0.4-0.8-1.3-0.8c-0.6,0-1.1,0.3-1.1,0.7
		c0,0.6,0.5,0.7,2,1.1c1.9,0.5,4.2,1,4.2,3.8c0,3-2.5,4.1-5.2,4.1C983.9,232.5,981.7,231.5,981.3,229z"/>
	<g>
		
			<rect x="890.8" y="219" transform="matrix(0.9513 -0.3083 0.3083 0.9513 -24.3889 285.8226)" class="st5" width="3" height="2.2"/>
		
			<rect x="894.7" y="231.1" transform="matrix(0.9513 -0.3083 0.3083 0.9513 -27.9295 287.621)" class="st5" width="3" height="2.2"/>
	</g>
</g>
<g>
	<g id="freepik--background-complete--inject-4">
		<rect x="1029.2" y="228.5" class="st6" width="61.9" height="55.7"/>
		<path class="st7" d="M1042.2,252.2h35.8c2.8,0,5,2.2,5,5v7.1c0,2.8-2.2,5-5,5h-35.8c-2.8,0-5-2.2-5-5v-7.1
			C1037.2,254.5,1039.5,252.2,1042.2,252.2z"/>
		<path class="st7" d="M1090.7,239.1c0,0.1-13.6,0.2-30.4,0.2s-30.4-0.1-30.4-0.2c0-0.1,13.6-0.2,30.4-0.2S1090.7,239,1090.7,239.1z
			"/>
		<path class="st7" d="M1036.1,234.9c0,0.8-0.7,1.5-1.5,1.5c-0.8,0-1.5-0.7-1.5-1.5c0-0.8,0.7-1.5,1.5-1.5
			S1036.1,234.1,1036.1,234.9L1036.1,234.9z"/>
		<path class="st7" d="M1040.6,234.9c0,0.8-0.7,1.5-1.5,1.5c-0.8,0-1.5-0.7-1.5-1.5c0-0.8,0.7-1.5,1.5-1.5c0,0,0,0,0,0
			C1039.9,233.4,1040.6,234.1,1040.6,234.9C1040.6,234.9,1040.6,234.9,1040.6,234.9z"/>
		<path class="st7" d="M1045.1,234.9c0,0.8-0.7,1.5-1.5,1.5c-0.8,0-1.5-0.7-1.5-1.5c0-0.8,0.7-1.5,1.5-1.5
			S1045.1,234.1,1045.1,234.9L1045.1,234.9z"/>
		<path class="st5" d="M1049.2,261.2v0.7c0,0.7-0.6,1.3-1.3,1.3s-1.3-0.6-1.3-1.3V259c0-0.7,0.6-1.3,1.3-1.3s1.3,0.6,1.3,1.3v0.5
			h-0.9V259c0-0.4-0.2-0.6-0.5-0.6s-0.5,0.2-0.5,0.6v3.1c0,0.4,0.2,0.5,0.5,0.5s0.5-0.1,0.5-0.5v-0.8L1049.2,261.2z"/>
		<path class="st5" d="M1049.7,257.7h0.9v4.9h1.5v0.8h-2.3V257.7z"/>
		<path class="st5" d="M1052.4,257.7h0.9v5.7h-0.9V257.7z"/>
		<path class="st5" d="M1056.5,261.2v0.7c0.1,0.7-0.4,1.3-1,1.4c-0.1,0-0.2,0-0.3,0c-0.9,0-1.3-0.5-1.3-1.4V259
			c0-0.9,0.5-1.4,1.3-1.4c0.7-0.1,1.3,0.5,1.3,1.1c0,0.1,0,0.2,0,0.3v0.5h-0.8V259c0-0.4-0.2-0.6-0.5-0.6s-0.5,0.2-0.5,0.6v3.1
			c0,0.4,0.2,0.5,0.5,0.5s0.5-0.1,0.5-0.5v-0.8L1056.5,261.2z"/>
		<path class="st5" d="M1058.2,261.1l-0.3,0.5v1.7h-0.9v-5.7h0.9v2.5l1.2-2.5h0.9l-1.3,2.6l1.2,3.1h-0.9L1058.2,261.1z"/>
		<path class="st5" d="M1062.6,263.3h-0.9v-5.7h0.9v2.4h1v-2.4h0.9v5.7h-0.9v-2.4h-1V263.3z"/>
		<path class="st5" d="M1066,260.1h1.2v0.8h-1.2v1.7h1.5v0.8h-2.4v-5.7h2.4v0.8h-1.5V260.1z"/>
		<path class="st5" d="M1070,263.3c-0.1-0.2-0.1-0.5-0.1-0.7v-0.9c0-0.5-0.2-0.7-0.6-0.7h-0.3v2.3h-0.9v-5.7h1.3
			c0.9,0,1.3,0.4,1.3,1.3v0.5c0.1,0.5-0.2,0.9-0.6,1.2c0.4,0.2,0.6,0.6,0.6,1.2v0.9c0,0.2,0,0.4,0.1,0.7L1070,263.3z M1069,258.5
			v1.7h0.4c0.3,0,0.5-0.1,0.5-0.6v-0.6c0-0.4-0.1-0.6-0.5-0.6L1069,258.5z"/>
		<path class="st5" d="M1072.3,260.1h1.2v0.8h-1.2v1.7h1.5v0.8h-2.4v-5.7h2.4v0.8h-1.5V260.1z"/>
		<path class="st7" d="M1044.3,67.1h64.4c4.6,0,8.4,3.8,8.4,8.4v13.5c0,4.6-3.8,8.4-8.4,8.4h-64.4c-4.6,0-8.4-3.8-8.4-8.4V75.4
			C1035.9,70.8,1039.7,67.1,1044.3,67.1z"/>
		<path class="st5" d="M1057.1,83v1.3c0,1.6-0.8,2.5-2.4,2.5s-2.4-0.9-2.4-2.5v-5.2c0-1.6,0.8-2.5,2.4-2.5c1.6,0,2.4,0.9,2.4,2.5v1
			h-1.5V79c0-0.7-0.3-1-0.8-1s-0.8,0.3-0.8,1v5.4c0,0.7,0.3,1,0.8,1s0.8-0.3,0.8-1V83H1057.1z"/>
		<path class="st5" d="M1058,76.7h1.6v8.6h2.6v1.4h-4.2V76.7z"/>
		<path class="st5" d="M1062.9,76.7h1.6v10.1h-1.6V76.7z"/>
		<path class="st5" d="M1070.2,83v1.3c0,1.6-0.8,2.5-2.4,2.5c-1.6,0-2.4-0.9-2.4-2.5v-5.2c0-1.6,0.8-2.5,2.4-2.5s2.4,0.9,2.4,2.5v1
			h-1.5V79c0-0.7-0.3-1-0.8-1c-0.5,0-0.8,0.3-0.8,1v5.4c0,0.7,0.3,1,0.8,1s0.8-0.3,0.8-1V83H1070.2z"/>
		<path class="st5" d="M1073.2,82.8l-0.5,0.9v3.1h-1.6V76.7h1.6v4.4l2.1-4.4h1.6l-2.2,4.5l2.2,5.6h-1.6L1073.2,82.8z"/>
		<path class="st5" d="M1080.9,86.8h-1.6V76.7h1.6V81h1.8v-4.3h1.6v10.1h-1.6v-4.3h-1.8V86.8z"/>
		<path class="st5" d="M1087,80.9h2.2v1.4h-2.2v2.9h2.7v1.4h-4.3V76.7h4.3v1.4h-2.7V80.9z"/>
		<path class="st5" d="M1094,86.8c-0.1-0.4-0.2-0.8-0.1-1.2v-1.6c0-0.9-0.3-1.3-1-1.3h-0.5v4.1h-1.6V76.7h2.4c1.6,0,2.3,0.8,2.3,2.3
			v0.8c0,1-0.3,1.7-1,2c0.8,0.3,1,1.1,1,2.1v1.5c0,0.4,0,0.8,0.2,1.2L1094,86.8z M1092.3,78.2v3.1h0.6c0.6,0,0.9-0.3,0.9-1.1v-1
			c0-0.7-0.2-1-0.8-1L1092.3,78.2z"/>
		<path class="st5" d="M1098.1,80.9h2.2v1.4h-2.2v2.9h2.7v1.4h-4.3V76.7h4.3v1.4h-2.7V80.9z"/>
		<polygon class="st6" points="1235.7,66.9 1235.7,130.5 1235.7,143.2 1248,130.5 1306.3,130.5 1306.3,66.9 		"/>
		<path class="st7" d="M1305.9,79c0,0.1-15.6,0.2-34.7,0.2s-34.7-0.1-34.7-0.2c0-0.1,15.6-0.2,34.7-0.2S1305.9,78.9,1305.9,79z"/>
		<path class="st7" d="M1243.6,74.3c0,1-0.8,1.8-1.7,1.8s-1.8-0.8-1.8-1.7c0-1,0.8-1.8,1.7-1.8c0,0,0,0,0,0
			C1242.8,72.5,1243.6,73.3,1243.6,74.3z"/>
		<path class="st7" d="M1248.8,74.3c0,1-0.8,1.8-1.8,1.8c-1,0-1.8-0.8-1.8-1.8c0-1,0.8-1.8,1.8-1.8c0,0,0,0,0,0
			C1248,72.5,1248.8,73.3,1248.8,74.3z"/>
		<path class="st7" d="M1253.9,74.3c0,1-0.8,1.7-1.7,1.7s-1.7-0.8-1.7-1.7s0.8-1.7,1.7-1.7C1253.1,72.5,1253.9,73.3,1253.9,74.3z"/>
		<path class="st7" d="M1261.2,106.9h-4.7l-0.9,2.1h-3.2l4.9-11.1h3.1l4.9,11.1h-3.3L1261.2,106.9z M1260.3,104.6l-1.4-3.5l-1.4,3.5
			H1260.3z"/>
		<path class="st7" d="M1266.2,98h5.2c3.7,0,6.2,2.1,6.2,5.5c0,3.4-2.5,5.5-6.2,5.5h-5.2V98z M1271.3,106.5c1.9,0,3.1-1.1,3.1-3
			c0-1.9-1.3-3-3.1-3h-2v6.1L1271.3,106.5z"/>
		<path class="st7" d="M1278.5,108l1-2.3c1.1,0.7,2.4,1.1,3.7,1.1c1.3,0,1.8-0.4,1.8-0.9c0-1.8-6.3-0.5-6.3-4.6c0-2,1.6-3.6,4.9-3.6
			c1.4,0,2.8,0.3,4,1l-1,2.3c-0.9-0.5-2-0.8-3.1-0.9c-1.3,0-1.8,0.4-1.8,1c0,1.7,6.3,0.4,6.3,4.5c0,1.9-1.6,3.6-4.9,3.6
			C1281.5,109.3,1279.9,108.9,1278.5,108z"/>
		<path class="st6" d="M1306.8,275.6c-3.8,7.7-13.1,10.8-20.8,7c-7.7-3.8-10.8-13.1-7-20.8c3.8-7.7,13.1-10.8,20.8-7c0,0,0,0,0,0
			C1307.5,258.6,1310.6,267.9,1306.8,275.6z"/>
		<path class="st8" d="M1303.5,273.9c-2.9,5.9-10,8.2-15.9,5.3c-5.9-2.9-8.2-10-5.3-15.9c2.9-5.9,10-8.2,15.9-5.3c0,0,0,0,0,0
			C1304,261,1306.4,268.1,1303.5,273.9z"/>
		<path class="st7" d="M1303.6,273.6c0.1-0.5,0.2-1,0.4-1.4c0.6-2.1,0.6-4.4,0-6.5c-0.3-1-0.7-1.9-1.2-2.8c-0.6-1-1.3-1.8-2.1-2.6
			c-0.4-0.4-0.9-0.8-1.4-1.1c-0.5-0.3-1-0.6-1.6-0.9c-0.6-0.3-1.1-0.5-1.7-0.7c-0.6-0.2-1.2-0.3-1.7-0.3c-0.6-0.1-1.1-0.1-1.7-0.1
			c-0.6,0-1.1,0.1-1.6,0.2c-1,0.2-2,0.5-2.9,0.9c-2,0.9-3.7,2.4-4.9,4.2c-0.5,0.8-0.8,1.2-0.8,1.2c0.1-0.5,0.3-1,0.5-1.4
			c0.7-1.2,1.5-2.3,2.6-3.1c1.6-1.3,3.4-2.2,5.4-2.6c0.6-0.1,1.2-0.2,1.8-0.2c0.6,0,1.2,0,1.8,0.1c0.6,0.1,1.3,0.2,1.9,0.4
			c0.6,0.2,1.3,0.4,1.9,0.7c0.6,0.3,1.2,0.6,1.7,1c0.5,0.4,1,0.8,1.5,1.2c0.5,0.4,0.9,0.9,1.2,1.4c0.4,0.5,0.7,1,1,1.5
			c0.5,0.9,1,2,1.2,3c0.2,0.9,0.4,1.9,0.4,2.8c0,1.4-0.2,2.7-0.7,4C1304,273.2,1303.7,273.6,1303.6,273.6z"/>
		<path class="st7" d="M1290.9,275.5l-0.9,1.9l-1.7-0.8l0.9-1.8c-1.5-0.8-2.7-1.9-3.5-3.3l1.9-1.6c0.6,1.1,1.5,2.1,2.6,2.7l1.3-2.8
			c-1.6-1.3-3.4-2.9-2.2-5.3c0.8-1.8,2.9-2.6,5.6-1.7l0.9-1.8l1.7,0.8l-0.8,1.8c1.2,0.6,2.1,1.5,2.9,2.6l-1.8,1.6
			c-0.6-0.8-1.3-1.5-2.1-2.1l-1.4,2.8c1.6,1.3,3.4,2.9,2.2,5.2C1295.6,275.6,1293.7,276.5,1290.9,275.5z M1292.8,267.4l1.1-2.4
			c-1-0.2-1.6,0.1-1.8,0.7C1291.8,266.3,1292.1,266.8,1292.8,267.4L1292.8,267.4z M1293.7,272.8c0.3-0.6,0-1.1-0.7-1.7l-1.1,2.3
			C1292.9,273.6,1293.4,273.3,1293.7,272.8L1293.7,272.8z"/>
	</g>
	<g id="freepik--Desk--inject-4">
		<path class="st9" d="M1317.7,335.4c0,0.1-64.2,0.2-143.4,0.2c-79.2,0-143.4-0.1-143.4-0.2s64.2-0.2,143.4-0.2
			S1317.7,335.3,1317.7,335.4z"/>
	</g>
	<g id="freepik--Character--inject-4">
		<path class="st10" d="M1200,162.6l-1.5,61c-0.3,10.4-2.7,25.5-19.1,24.4l0,0c-14.1-2.1-17.4-15.6-17.1-25.3
			c0.1-4.6,0.2-8.4,0.2-8.9c0,0-15.5-1.8-16.2-17.2c-0.4-7.4,0.1-22.8,0.8-36.7c0.7-14.9,12.7-26.8,27.6-27.4l1.5-0.1
			C1192.1,132.7,1200.8,146.5,1200,162.6z"/>
		<path class="st11" d="M1162.4,213.7c0,0,9.7,0.2,19.9-6.6c0,0-4.5,11.4-19.9,10.6L1162.4,213.7z"/>
		<path class="st9" d="M1172.9,167c0.3,0.3,2.1-1,4.7-1s4.4,1.3,4.7,1c0.1-0.1-0.2-0.7-1-1.3c-1.1-0.8-2.4-1.2-3.8-1.2
			c-1.3,0-2.7,0.4-3.7,1.2C1173,166.3,1172.8,166.9,1172.9,167z"/>
		<path class="st9" d="M1172.4,172.9c0,1.1,1,2,2.1,2c1.1,0.1,2-0.8,2.1-1.9c0,0,0,0,0-0.1c0-1.1-1-2-2.1-2
			C1173.4,170.9,1172.5,171.7,1172.4,172.9C1172.4,172.8,1172.4,172.9,1172.4,172.9z"/>
		<path class="st9" d="M1165.8,184.7c0-0.1-1.5-0.3-3.9-0.6c-0.6,0-1.2-0.1-1.3-0.5c-0.1-0.6,0-1.3,0.3-1.8c0.5-1.5,1.1-3,1.6-4.6
			c2.2-6.6,3.8-12.1,3.6-12.2c-0.3-0.1-2.3,5.2-4.6,11.9c-0.5,1.6-1.1,3.2-1.5,4.7c-0.2,0.7-0.6,1.5-0.2,2.4c0.2,0.4,0.6,0.7,1,0.8
			c0.3,0.1,0.7,0.1,1,0.1C1164.3,184.8,1165.8,184.8,1165.8,184.7z"/>
		<path class="st9" d="M1174.4,157.4c0.2,0.6,2.3,0.2,4.8,0.4c2.5,0.2,4.5,0.8,4.8,0.3c0.1-0.3-0.2-0.8-1-1.3
			c-1.1-0.7-2.3-1.1-3.6-1.1c-1.3-0.1-2.5,0.1-3.7,0.6C1174.7,156.6,1174.3,157.1,1174.4,157.4z"/>
		<path class="st9" d="M1149.4,157.9c0.3,0.5,2.3,0,4.7,0c2.4,0,4.4,0.4,4.7-0.1c0.1-0.2-0.3-0.7-1.1-1.1c-1.1-0.5-2.3-0.7-3.6-0.7
			c-1.2,0-2.5,0.2-3.6,0.7C1149.7,157.2,1149.3,157.7,1149.4,157.9z"/>
		<path class="st10" d="M1199.1,174c0.3-0.1,10.5-3.5,10.5,7c0,10.5-10.5,8.4-10.6,8.1C1199,188.8,1199.1,174,1199.1,174z"/>
		<path class="st11" d="M1202.3,185.1c0,0,0.2,0.1,0.5,0.3c0.4,0.2,0.9,0.2,1.4,0c1.1-0.4,2-2.2,2.1-4.1c0-0.9-0.2-1.8-0.5-2.6
			c-0.2-0.7-0.7-1.2-1.4-1.4c-0.4-0.1-0.9,0.1-1.1,0.5c-0.1,0.3-0.1,0.5-0.1,0.5s-0.2-0.2-0.1-0.6c0.1-0.3,0.2-0.5,0.4-0.7
			c0.3-0.2,0.7-0.3,1-0.3c0.9,0.2,1.6,0.8,1.9,1.6c0.5,0.9,0.7,1.9,0.7,2.9c-0.1,2.1-1.1,4.1-2.6,4.6c-0.6,0.2-1.2,0.1-1.7-0.3
			C1202.3,185.4,1202.2,185.1,1202.3,185.1z"/>
		<path class="st9" d="M1213.7,157.5c-2.1-3.8-2.4-8.2-3.4-12.4c-1-4.2-4.1-9.5-8.1-11.1c-3.5-2.2-8.3-2.1-11.4,0.3
			c-0.5-5.5-4.1-8.7-9.4-10.3c-5.3-1.6-13.9-1.1-19.1,0.8c-4,1.4-7.9,4.6-12.8,9.2c-2,1.9-3.9,4.1-5.6,6.3l-5.2,14.2l3.7,7.7
			c0.2,0.5,0.4,1,0.7,1.6l0,0l3,16c0.4-4.3,0.7-19.3,1-23.7c6.6,0.1,12.9-2.6,17.5-7.3c2.5-2.5,4.4-5.7,7.6-7.2
			c4.1-1.9,8.9-0.2,13.2,1.4l-0.2-0.2c2.2,1.1,4.2,2.6,5.8,4.5c-1.3,8.5-0.7,17.2,1.7,25.4c0.4,1.2,1.4,3.8,2.5,4.3
			c2.3,1,3.1-1.4,4.5-2.6c1.1-0.9,2.6-1,4.3-0.9c1.1-2.6,2.3-7,3.3-10.8c1.4,0.5,2.9,0.7,4.4,0.5c-0.4-1.1-0.8-2.2-1.2-3.3
			c0.5,0.4,1.2,0.8,1.9,0.9c0.7,0.2,1.4-0.1,1.8-0.7C1214.7,159.2,1214.2,158.3,1213.7,157.5z"/>
		<path class="st12" d="M1186.9,137.1c0.5,0.4,1,0.9,1.5,1.5c1.2,1.5,1.9,3.3,2.2,5.2c0.2,1.3,0.3,2.6,0.2,3.9
			c0,1.4-0.2,2.9-0.4,4.5c-0.2,1.7-0.3,3.3-0.3,5c0,0.9,0.1,1.8,0.2,2.6c0.1,0.9,0.4,1.8,1,2.6c0.5,0.6,1.3,0.9,2.1,0.8
			c0.8-0.1,1.5-0.5,2-1c1-1.1,1.3-2.6,1.6-3.9l-0.3,0c0.4,1.2,1,2.3,1.7,3.3c0.7,0.9,1.8,1.6,2.9,1.7c0.5,0.1,1.1,0,1.6-0.2
			c0.5-0.2,0.9-0.6,1.1-1c0.2-0.4,0.4-0.9,0.4-1.3c0-0.4-0.2-0.9-0.4-1.2l-0.2,0.1c0.9,1.1,2,2,3.2,2.6c0.3,0.2,0.7,0.3,1,0.4
			c0.1,0,0.2,0.1,0.4,0.1c-0.1-0.1-0.2-0.1-0.3-0.2c-0.2-0.1-0.6-0.3-1-0.5c-1.2-0.7-2.2-1.6-3.1-2.6l-0.2,0.1
			c0.5,0.7,0.5,1.6,0,2.3c-0.2,0.4-0.6,0.7-1,0.9c-0.5,0.2-1,0.3-1.4,0.2c-1.1-0.2-2.1-0.8-2.7-1.6c-0.7-1-1.3-2.1-1.7-3.2l-0.2-0.5
			l-0.1,0.5c-0.3,1.3-0.6,2.6-1.5,3.7c-0.5,0.5-1.1,0.8-1.8,0.9c-0.7,0.1-1.4-0.1-1.8-0.7c-0.5-0.7-0.8-1.6-0.9-2.4
			c-0.1-0.9-0.2-1.7-0.2-2.6c0-1.7,0.1-3.3,0.3-5c0.2-1.6,0.3-3.1,0.4-4.5c0-1.3-0.1-2.7-0.3-4c-0.3-1.9-1.1-3.7-2.3-5.2
			C1188.1,138,1187.5,137.5,1186.9,137.1z"/>
		<path class="st9" d="M1149.5,167.1c0.3,0.3,2.1-1,4.7-1c2.6,0,4.4,1.3,4.7,1c0.1-0.1-0.2-0.7-1-1.3c-1.1-0.8-2.4-1.2-3.8-1.2
			c-1.3,0-2.7,0.4-3.7,1.2C1149.6,166.4,1149.3,167,1149.5,167.1z"/>
		<path class="st9" d="M1151,172.1c0,1.1,1,2,2.1,2c1.1,0,2-0.8,2.1-1.9c0,0,0,0,0-0.1c0-1.1-1-2-2.1-2
			C1152,170.1,1151,170.9,1151,172.1C1151,172.1,1151,172.1,1151,172.1z"/>
		<path class="st9" d="M1145.2,138.5c-1.3,1.7-3.4,3.2-5.5,2.9c-0.8-0.2-1.5-0.4-2.3-0.7c-0.8,0.4-0.7,3-0.2,3.7
			c0.5,0.6,1,1.2,1.6,1.7c-2.6,1.3-4.8,0.6-7.5-0.5c0.4,4.7,3.3,8.8,7.6,10.8c1.3,0.6,3,1,4.2,0.2c1.1-0.7,1.6-2,1.9-3.3
			c1.3-4.6,2.1-9.3,2.2-14.1L1145.2,138.5z"/>
		<path class="st11" d="M1168,189.8c0.4-0.7,1.1-1.1,1.8-1.1c0.7,0,1.3-0.1,1.8,0.4c1,1,1.3,2.5,0.7,3.8c-0.6,1.3-2.2,1.8-3.5,1.3
			c-1.3-0.6-1.7-3.8-0.9-4.9"/>
		<path class="st9" d="M1167.6,192.1c0.1,0.2,0.2,0.4,0.3,0.6c0.3,0.5,0.7,0.9,1.3,1.1c0.8,0.2,1.7,0.1,2.5-0.3
			c1.2-0.9,1.4-2.5,0.5-3.6c-0.4-0.6-1.1-0.9-1.8-1c-0.9-0.1-1.7,0.3-2.3,0.9c-0.4,0.5-0.5,1-0.5,1.6
			C1167.6,191.9,1167.6,192.1,1167.6,192.1c0,0,0-0.1-0.1-0.2c-0.1-0.2-0.1-0.3-0.1-0.5c-0.1-0.6,0.1-1.3,0.5-1.8
			c0.6-0.8,1.5-1.2,2.5-1.1c1.6,0.2,2.8,1.6,2.6,3.2c-0.1,0.8-0.5,1.6-1.2,2.1c-0.8,0.5-1.8,0.6-2.7,0.3c-0.6-0.2-1.1-0.7-1.3-1.3
			c-0.1-0.2-0.1-0.3-0.1-0.5C1167.6,192.2,1167.6,192.1,1167.6,192.1z"/>
		<path class="st12" d="M1187,137.1c-0.4-0.7-1-1.4-1.6-2c-1.7-1.6-3.9-2.5-6.2-2.6c-1.6-0.1-3.2,0.1-4.7,0.5
			c-1.7,0.5-3.4,1.3-4.9,2.4c-3.2,2.1-6,5.3-9.2,8.5c-1.5,1.6-3.1,3-4.9,4.3c-1.6,1.2-3.4,2.2-5.4,2.9c-3.3,1.1-6.9,1.1-10.2,0.2
			c-2.2-0.6-4.3-1.7-6.2-3.1l-0.8-0.7c-0.2-0.2-0.4-0.4-0.6-0.6l-0.3-0.4c-0.1-0.1-0.1-0.1-0.1-0.1l0.1,0.1l0.4,0.3
			c0.2,0.1,0.3,0.3,0.6,0.5l0.8,0.7c1.8,1.4,3.9,2.4,6.1,3c3.3,0.9,6.8,0.8,10-0.2c1.9-0.7,3.7-1.6,5.3-2.8c1.7-1.3,3.3-2.8,4.8-4.3
			c3.1-3.2,6-6.4,9.2-8.5c1.5-1,3.2-1.8,5-2.4c1.5-0.5,3.2-0.7,4.8-0.5c2.3,0.2,4.5,1.2,6.2,2.8c0.4,0.4,0.8,0.9,1.2,1.5
			c0.1,0.2,0.2,0.3,0.2,0.4C1187.1,137,1187.1,137.1,1187,137.1z"/>
		<polygon class="st10" points="1156.5,218.8 1162.3,217.7 1198.4,215.4 1206.1,217.5 1205.1,236.3 1187.7,247.4 1170.8,247 
			1160.2,237.4 1157.9,227.8 		"/>
		<path class="st13" d="M1255,248.3c-2.1-4.3-4.4-8.4-6.9-12.4c-4.1-6.4-10.5-11-17.8-13l-27.8-7.5c0,0-1.4,27.8-20.6,27.8
			s-22.9-26.1-22.9-26.1l-32.2,12.8c-1.1,0.4-8.6,3-17.3,21.6c-8.3,17.7-11.9,26.8-11.9,26.8l33.1,9.6l2.1,29.8l-0.7,17l100.6-0.2
			l-0.6-19.5l0.4-29.9l1.3,2l33.5-13.4C1267.4,273.9,1263.1,265.1,1255,248.3z"/>
		<path class="st9" d="M1233.1,266.3c0.2,0,0.1,10.8-0.2,24.1s-0.6,24.1-0.7,24.1c-0.1,0-0.1-10.8,0.2-24.1
			C1232.7,277.1,1233,266.3,1233.1,266.3z"/>
		<path class="st9" d="M1125.7,260.2c0.2,0.4,0.3,0.7,0.4,1.1c0.2,0.7,0.5,1.8,0.8,3.1c0.6,2.6,1.4,6.2,2.1,10.2s1.2,7.7,1.6,10.3
			c0.2,1.3,0.3,2.4,0.3,3.2c0.1,0.4,0.1,0.8,0,1.2c-0.1-0.4-0.2-0.7-0.3-1.1c-0.1-0.9-0.3-1.9-0.5-3.1c-0.4-2.6-1-6.3-1.7-10.3
			c-0.7-4-1.4-7.6-2-10.3c-0.2-1.2-0.4-2.3-0.6-3.1C1125.8,261,1125.8,260.6,1125.7,260.2z"/>
		<path class="st10" d="M1100.5,279.3l-13.5,27.1c-1.5,3-2.2,6.4-2,9.8l0,0c0.5,10.5,9.2,18.8,19.7,18.8l38.7-2.2l1.7-17.6
			l-29.4-7.1l11.2-21.1L1100.5,279.3z"/>
		<path class="st11" d="M1115.6,307.9c0,0.1-1.3-0.1-3.5-0.1c-2.8,0.1-5.5,0.5-8.2,1.4c-2.6,0.9-5.1,2.2-7.3,3.9
			c-1.7,1.3-2.5,2.4-2.6,2.3c-0.1-0.1,0.1-0.3,0.5-0.8c0.5-0.7,1.1-1.3,1.8-1.9c2.2-1.8,4.7-3.3,7.4-4.1c2.7-0.9,5.5-1.4,8.4-1.3
			c0.9,0,1.7,0.1,2.6,0.3C1115,307.7,1115.3,307.8,1115.6,307.9z"/>
		<path class="st11" d="M1127.2,286.6c-0.1,0.7-0.3,1.4-0.7,2.1c-0.6,1.6-1.4,3.2-2.2,4.7c-0.8,1.5-1.8,3-2.8,4.4
			c-0.4,0.6-0.9,1.2-1.4,1.6c-0.1-0.1,1.8-2.7,3.8-6.3S1127.1,286.6,1127.2,286.6z"/>
		<path class="st10" d="M1266,334.8h-45.4v-17.1l26.3-11.1l-9.8-20.4l26.3-10.6l12.9,28.6c3,8.3,6,12.2,3.4,19.8
			C1278.4,327.8,1272.8,334.8,1266,334.8z"/>
		<path class="st10" d="M1137.4,314h7.6c0,0,17.1-6.2,20.6-5.6c3.2,0.5,14.8,8.2,17,9.7c0.3,0.2,0.4,0.4,0.5,0.7l0,0
			c0.5,1.3-0.2,2.6-1.4,3.2l-0.2,0.1l0.1,0.3c0.1,0.4,0.2,0.9,0.2,1.4c-0.1,0.9-0.9,1.6-1.8,1.5c-0.5,0-1-0.3-1.3-0.8l0.4,0.8
			c0.2,0.3,0.3,0.7,0.2,1l0,0.7c0,0.8-0.6,1.5-1.3,1.7l0,0c-0.7,0.2-1.5,0-2-0.5c-1.5-1.6-4.6-4.9-6.8-5.2c-2.3-0.3-4.7-0.4-7-0.4
			c-1,0-1.9,0.6-2.2,1.5l0,0c1.3,0.1,10.2,4.7,13.3,6.4c1,0.5,1.7,1.4,1.8,2.5c0.1,1-0.4,2-2.3,1.6c-4.2-1-11.7-4.4-11.7-4.4
			s-3.9-1.1-6.4,0.7c-3.5,2.5-5.1,3.4-8.2,2.4c-1.9-0.6-3.6-1.4-5.3-2.4l-6-0.6C1135.3,330.3,1129.7,316.1,1137.4,314z"/>
		<path class="st11" d="M1160,316.9c0,0.1,1.2-0.3,3.2-0.4c5.3-0.4,10.4,1.8,13.8,5.9c0.7,0.8,1.3,1.7,1.9,2.6
			c-0.1-0.3-0.2-0.5-0.4-0.8c-0.4-0.7-0.8-1.4-1.3-2c-3.4-4.2-8.6-6.4-14-6c-0.8,0.1-1.6,0.2-2.4,0.4
			C1160.6,316.7,1160.3,316.8,1160,316.9z"/>
		<path class="st11" d="M1161.8,312.7c1.1-0.3,2.2-0.5,3.3-0.6c2.7,0,5.4,0.7,7.8,2.2c2.3,1.5,4.4,3.3,6.3,5.3l1.7,1.8
			c0.2,0.2,0.4,0.5,0.7,0.7c-0.2-0.3-0.4-0.5-0.6-0.7c-0.4-0.5-0.9-1.1-1.6-1.9c-1.8-2.1-3.9-3.9-6.3-5.4c-2.4-1.5-5.1-2.2-7.9-2.2
			c-0.8,0-1.7,0.2-2.5,0.5c-0.2,0.1-0.4,0.1-0.7,0.2C1161.9,312.7,1161.8,312.7,1161.8,312.7z"/>
		<path class="st10" d="M1231.7,314.5h-7.6c0,0-17.1-6.2-20.6-5.6c-3.2,0.5-14.8,8.2-17,9.7c-0.3,0.2-0.4,0.4-0.5,0.7l0,0
			c-0.5,1.3,0.2,2.6,1.4,3.2l0.2,0.1l-0.1,0.3c-0.1,0.4-0.2,0.9-0.2,1.4c0.1,0.9,0.9,1.6,1.8,1.5c0.5,0,1-0.3,1.3-0.8l-0.4,0.8
			c-0.2,0.3-0.3,0.7-0.2,1l0,0.7c0,0.8,0.6,1.5,1.3,1.7l0,0c0.7,0.2,1.5,0,2-0.5c1.5-1.6,4.6-4.9,6.8-5.2c2.3-0.3,4.7-0.4,7-0.4
			c1,0,1.8,0.6,2.2,1.5l0,0c-1.3,0.1-10.2,4.7-13.3,6.4c-1,0.5-1.7,1.4-1.8,2.5c-0.1,1,0.4,2,2.3,1.6c4.2-1,11.7-4.4,11.7-4.4
			s3.9-1.1,6.4,0.7c3.5,2.5,5.1,3.4,8.2,2.4c1.9-0.6,3.6-1.4,5.3-2.4l6-0.6C1233.8,330.8,1239.4,316.7,1231.7,314.5z"/>
		<path class="st11" d="M1209.1,317.4c0,0.1-1.2-0.3-3.2-0.4c-5.3-0.4-10.4,1.8-13.8,5.9c-1.3,1.5-1.8,2.6-1.9,2.6
			c0.1-0.3,0.2-0.5,0.4-0.8c0.4-0.7,0.8-1.4,1.3-2c3.4-4.2,8.6-6.4,14-6c0.8,0.1,1.6,0.2,2.4,0.4
			C1208.6,317.2,1208.8,317.3,1209.1,317.4z"/>
		<path class="st11" d="M1207.3,313.2c-1.1-0.3-2.2-0.5-3.3-0.6c-2.7,0-5.4,0.8-7.8,2.2c-2.3,1.5-4.4,3.3-6.3,5.3l-1.7,1.8
			c-0.2,0.2-0.4,0.5-0.7,0.7c0.2-0.3,0.4-0.5,0.6-0.7c0.4-0.4,0.9-1.1,1.6-1.9c1.8-2.1,3.9-3.9,6.3-5.4c2.4-1.5,5.1-2.2,7.9-2.2
			c0.8,0,1.7,0.2,2.5,0.5c0.2,0.1,0.4,0.1,0.7,0.2C1207.2,313.2,1207.3,313.2,1207.3,313.2z"/>
		<path class="st11" d="M1267.2,307.7c0,0.1-1-0.7-2.8-1.5c-0.4-0.2-0.9-0.4-1.5-0.6c-0.5-0.2-1.1-0.4-1.7-0.5
			c-2.7-0.7-5.6-0.9-8.3-0.5c-0.7,0.1-1.2,0.2-1.8,0.4c-0.5,0.1-1,0.3-1.5,0.4c-1.9,0.6-2.9,1.2-3,1.2c0.2-0.2,0.5-0.3,0.7-0.4
			c0.3-0.2,0.6-0.3,0.9-0.4c0.4-0.2,0.8-0.4,1.2-0.5c0.5-0.2,1-0.3,1.6-0.5c0.6-0.2,1.2-0.3,1.8-0.4c2.8-0.4,5.7-0.3,8.5,0.5
			c0.6,0.2,1.2,0.4,1.8,0.6c0.5,0.2,1,0.4,1.5,0.7c0.5,0.2,0.8,0.4,1.2,0.7c0.3,0.2,0.6,0.3,0.8,0.5
			C1266.8,307.4,1267,307.6,1267.2,307.7z"/>
		<path class="st7" d="M1228.7,337h-94.6c-2.7,0-4.9-2.1-5-4.8l-2.8-65.1c-0.1-2.8,2-5.1,4.8-5.2c0.1,0,0.1,0,0.2,0h100.1
			c2.8,0,5,2.3,5,5c0,0.1,0,0.1,0,0.2l-2.6,65.1C1233.6,334.9,1231.4,337,1228.7,337z"/>
		<path class="st9" d="M1228.7,337c0.3,0,0.6-0.1,0.9-0.1c0.9-0.2,1.7-0.6,2.4-1.2c1.1-1,1.7-2.4,1.7-3.9c0.1-1.7,0.1-3.7,0.2-6
			c0.4-9,0.9-22,1.5-38.2c0.2-4,0.3-8.2,0.5-12.6c0.1-2.2,0.2-4.4,0.3-6.7c0-0.6,0.1-1.2,0-1.7c0-0.6-0.2-1.1-0.4-1.6
			c-0.4-1.1-1.3-1.9-2.3-2.4c-0.5-0.3-1.1-0.4-1.7-0.5c-0.6,0-1.2,0-1.8,0h-26.7H1134h-2.3c-0.7,0-1.5,0.1-2.2,0.3
			c-1.4,0.5-2.5,1.7-2.9,3.1c-0.1,0.4-0.2,0.7-0.2,1.1c0,0.4,0,0.7,0,1.1c0,0.8,0.1,1.5,0.1,2.3l0.2,4.5c0.3,6,0.5,11.9,0.8,17.7
			c0.5,11.6,1,22.8,1.4,33.4c0.1,1.3,0.1,2.6,0.2,4c0,0.7,0.1,1.3,0.1,2c0,0.6,0.1,1.3,0.2,1.9c0.4,1.2,1.2,2.2,2.3,2.8
			c0.5,0.3,1.1,0.5,1.8,0.6c0.6,0.1,1.3,0,1.9,0h14.7h26.4l38.2,0.1l10.4,0h2.7L1228.7,337l-0.9,0h-2.7h-10.4l-38.2,0.1h-26.4h-14.7
			c-0.7,0-1.3,0-1.9,0c-2-0.2-3.7-1.7-4.3-3.6c-0.2-0.6-0.3-1.3-0.3-2c0-0.7-0.1-1.3-0.1-2c-0.1-1.3-0.1-2.6-0.2-4
			c-0.5-10.7-1-21.8-1.5-33.4c-0.3-5.8-0.5-11.7-0.8-17.7c-0.1-1.5-0.1-3-0.2-4.5l-0.1-2.3c0-0.4,0-0.8,0-1.2c0-0.4,0.1-0.8,0.2-1.2
			c0.5-1.5,1.6-2.8,3.1-3.3c0.7-0.3,1.5-0.4,2.3-0.4h2.3h69.4h26.7c0.6,0,1.2,0,1.8,0c0.6,0.1,1.2,0.2,1.7,0.5
			c1.1,0.5,2,1.5,2.4,2.6c0.2,0.5,0.4,1.1,0.4,1.7c0,0.6,0,1.2,0,1.7c-0.1,2.3-0.2,4.5-0.3,6.7c-0.2,4.4-0.4,8.6-0.5,12.6
			c-0.7,16.1-1.2,29.1-1.6,38.2c-0.1,2.3-0.2,4.2-0.3,6c0,1.5-0.6,2.9-1.7,3.9c-0.7,0.6-1.5,1-2.4,1.2c-0.2,0-0.4,0.1-0.7,0.1
			L1228.7,337z"/>
		<path class="st5" d="M1186.5,300.6c0,2.9-2.3,5.2-5.2,5.2s-5.2-2.3-5.2-5.2c0-2.9,2.3-5.2,5.2-5.2l0,0
			C1184.1,295.4,1186.5,297.7,1186.5,300.6z"/>
	</g>
	<g id="freepik--ad-3--inject-4">
		<polygon class="st5" points="1321.1,157.4 1225.1,157.4 1225.6,224.6 1236.1,224.6 1236.1,240.1 1250.3,224.6 1321.6,224.6 		"/>
		<path class="st9" d="M1321.1,157.4c0,0,0,0.4,0,1.2s0,2,0,3.5c0,3.1,0.1,7.6,0.1,13.5c0.1,11.7,0.2,28.5,0.4,49.1v0.1h-0.1
			l-71.2,0l0.1-0.1l-14.2,15.5l-0.3,0.3v-16l0.2,0.2h-10.7v-0.2c-0.2-24.2-0.3-47-0.5-67.2v-0.2h0.2l69.4,0.1l19.6,0h5.2h1.3
			L1321.1,157.4l-1.8,0h-5.2l-19.6,0l-69.3,0.1l0.2-0.2c0.2,20.2,0.3,43,0.5,67.2l-0.2-0.2h10.7v15.7l-0.3-0.1l14.2-15.5l0-0.1h0.1
			h71.3l-0.1,0.1c-0.1-20.5-0.2-37.3-0.3-49c0-5.8-0.1-10.4-0.1-13.5c0-1.5,0-2.7,0-3.5C1321.1,157.8,1321.1,157.4,1321.1,157.4z"/>
		<path class="st9" d="M1320.6,166.9c0,0.1-21.3,0.2-47.5,0.2s-47.5-0.1-47.5-0.2s21.3-0.2,47.5-0.2
			C1299.3,166.7,1320.6,166.8,1320.6,166.9z"/>
		<ellipse class="st7" cx="1229.6" cy="163.1" rx="1.3" ry="1.4"/>
		<ellipse class="st7" cx="1233.3" cy="163.1" rx="1.3" ry="1.4"/>
		<ellipse class="st7" cx="1237.1" cy="163.1" rx="1.3" ry="1.4"/>
		<circle class="st13" cx="1274.4" cy="191" r="13.5"/>
		<path class="st5" d="M1271.2,194.9v-8c0-0.3,0.2-0.5,0.5-0.5c0.1,0,0.2,0,0.3,0.1l7.1,4c0.2,0.1,0.3,0.4,0.2,0.7
			c0,0.1-0.1,0.1-0.2,0.2l-7.1,4c-0.2,0.1-0.5,0.1-0.7-0.2C1271.2,195.1,1271.2,195,1271.2,194.9z"/>
		<rect x="1231.5" y="216.1" class="st9" width="82.8" height="0.4"/>
		<rect x="1231.4" y="215.6" class="st13" width="25.9" height="1.1"/>
		<ellipse class="st13" cx="1256.9" cy="216.3" rx="1.3" ry="1.4"/>
		<circle class="st13" cx="1320.3" cy="160.3" r="9.1"/>
		
			<rect x="1316.2" y="159.4" transform="matrix(0.7071 -0.7071 0.7071 0.7071 273.3495 980.5803)" class="st5" width="8.2" height="1.8"/>
		
			<rect x="1319.4" y="156.2" transform="matrix(0.7071 -0.7071 0.7071 0.7071 273.3589 980.5742)" class="st5" width="1.8" height="8.2"/>
	</g>
	<g id="freepik--ad-2--inject-4">
		<polygon class="st5" points="1140.1,48.8 1140.1,114.5 1200.1,114.5 1213.1,124.5 1213.1,114.5 1213.1,111.9 1213.1,48.8 		"/>
		<path class="st9" d="M1140.1,48.8h1.3h3.9l14.8,0l52.9-0.1h0.1v0.1c0,21.1,0,45.9,0,72.4v3.7l-0.3-0.2l-12.9-10.1l0.1,0h-60h-0.1
			v-0.1c0-19.9,0.1-36.3,0.1-47.8c0-5.7,0-10.2,0-13.3c0-1.5,0-2.7,0-3.5C1140,49.2,1140,48.8,1140.1,48.8c0,0,0,0.4,0,1.2
			c0,0.8,0,2,0,3.5c0,3.1,0,7.6,0,13.3c0,11.5,0,27.9,0.1,47.6l-0.1-0.1h60h0.1l0,0l13,10l-0.3,0.1v-3.3c0-26.5,0-51.4,0-72.4
			l0.2,0.2l-52.9-0.1l-14.8,0h-3.9h-1L1140.1,48.8z"/>
		<path class="st9" d="M1212.7,61.3c0,0.1-16.1,0.2-35.9,0.2c-19.8,0-35.9-0.1-35.9-0.2s16.1-0.2,35.9-0.2S1212.7,61.2,1212.7,61.3z
			"/>
		<path class="st7" d="M1148.2,56.4c0,1-0.8,1.8-1.8,1.8c-1,0-1.8-0.8-1.8-1.8c0-1,0.8-1.8,1.8-1.8c0,0,0,0,0,0
			C1147.4,54.6,1148.2,55.4,1148.2,56.4z"/>
		<path class="st7" d="M1153.6,56.4c0,1-0.8,1.8-1.8,1.8c-1,0-1.8-0.8-1.8-1.8s0.8-1.8,1.8-1.8c0,0,0,0,0,0
			C1152.8,54.6,1153.6,55.4,1153.6,56.4C1153.6,56.4,1153.6,56.4,1153.6,56.4z"/>
		<path class="st7" d="M1158.9,56.4c0,1-0.8,1.8-1.8,1.8c-1,0-1.8-0.8-1.8-1.8c0-1,0.8-1.8,1.8-1.8
			C1158.1,54.6,1158.9,55.4,1158.9,56.4C1158.9,56.4,1158.9,56.4,1158.9,56.4z"/>
		<path class="st13" d="M1199.6,85.1c0.3,11.2-8.6,20.6-19.8,20.9s-20.6-8.6-20.9-19.8c-0.3-11.2,8.6-20.6,19.8-20.9c0,0,0,0,0,0
			C1190,65.1,1199.3,73.9,1199.6,85.1z"/>
		<path class="st13" d="M1194.7,85.3c0.2,8.6-6.5,15.7-15.1,15.9c-8.6,0.2-15.7-6.5-15.9-15.1s6.5-15.7,15.1-15.9c0,0,0,0,0,0
			C1187.4,69.9,1194.5,76.7,1194.7,85.3C1194.7,85.2,1194.7,85.2,1194.7,85.3z"/>
		<g class="st14">
			<path d="M1194.7,84.8c-0.2-0.6-0.4-1.2-0.5-1.9c-0.4-1.7-1-3.2-1.9-4.7c-0.6-1-1.3-1.9-2.1-2.8c-0.9-1-2-1.8-3.1-2.5
				c-0.6-0.4-1.3-0.7-1.9-1c-0.7-0.3-1.4-0.5-2.1-0.7c-0.7-0.2-1.5-0.3-2.3-0.4c-0.8-0.1-1.6-0.1-2.4-0.1c-0.8,0-1.6,0.2-2.4,0.3
				c-1.5,0.3-2.9,0.9-4.3,1.6c-0.6,0.4-1.2,0.7-1.8,1.2c-1.1,0.8-2,1.8-2.8,2.8c-0.7,0.9-1.3,1.9-1.8,3c-0.7,1.5-1.2,3.2-1.4,4.9
				c0,0.6-0.1,1.3-0.2,1.9c-0.2-0.6-0.3-1.3-0.2-1.9c0-1.8,0.4-3.5,1.1-5.2c0.5-1.1,1.1-2.2,1.8-3.2c0.8-1.2,1.8-2.2,2.9-3.1
				c0.6-0.5,1.2-0.9,1.9-1.3c0.7-0.4,1.4-0.8,2.2-1.1c0.8-0.3,1.6-0.6,2.4-0.7c0.8-0.2,1.7-0.3,2.6-0.4c0.9,0,1.7,0,2.6,0.1
				c0.8,0.1,1.7,0.2,2.5,0.5c0.8,0.2,1.5,0.5,2.3,0.9c0.7,0.3,1.4,0.7,2,1.1c2.3,1.4,4.1,3.4,5.4,5.8c0.8,1.6,1.4,3.3,1.6,5
				C1194.9,83.5,1194.9,84.1,1194.7,84.8z"/>
		</g>
		<g class="st14">
			<path d="M1181.2,94.8l0.1,2.7l-2.4,0.1l-0.1-2.6c-2.1,0-4.2-0.6-6.1-1.7l1.2-3c1.4,0.9,3.1,1.4,4.7,1.5l-0.2-4
				c-2.7-0.5-5.7-1.3-5.9-4.8c-0.1-2.6,1.7-4.8,5.5-5.4l-0.1-2.6l2.4-0.1l0.1,2.6c1.7,0,3.4,0.5,4.9,1.3l-1.1,3
				c-1.2-0.6-2.4-1-3.7-1.1l0.2,4.1c2.7,0.5,5.7,1.3,5.8,4.7C1186.8,92,1185,94.2,1181.2,94.8z M1178.4,84.2l-0.1-3.4
				c-1.3,0.3-1.7,1.1-1.7,1.8S1177.4,84,1178.4,84.2L1178.4,84.2z M1182.8,89.9c0-0.8-0.7-1.3-1.8-1.6l0.1,3.3
				C1182.3,91.3,1182.8,90.7,1182.8,89.9L1182.8,89.9z"/>
		</g>
		<path class="st9" d="M1195,85c0,0,0-0.1,0-0.3s0-0.4-0.1-0.7l-0.1-0.5c0-0.2-0.1-0.4-0.1-0.7c-0.1-0.5-0.2-1.1-0.4-1.6
			c-0.4-1.5-1-2.9-1.9-4.1c-2.4-3.8-6.3-6.4-10.8-7.1c-2.8-0.4-5.6-0.1-8.2,0.9c-0.7,0.3-1.4,0.6-2.1,1c-0.7,0.4-1.3,0.8-1.9,1.3
			c-0.6,0.5-1.2,1-1.7,1.5c-0.5,0.6-1,1.2-1.5,1.8c-0.9,1.3-1.7,2.8-2.1,4.3c-1,3.2-0.9,6.7,0.2,9.8c0.5,1.5,1.3,3,2.3,4.2
			c0.5,0.6,1,1.2,1.6,1.8c0.6,0.5,1.2,1,1.8,1.5c1.2,0.9,2.6,1.6,4,2c2.6,0.9,5.5,1.1,8.2,0.5c2.4-0.5,4.6-1.5,6.5-3.1
			c1.6-1.2,2.9-2.8,3.9-4.5c0.8-1.3,1.3-2.7,1.7-4.2c0.1-0.5,0.2-1.1,0.3-1.6c0-0.2,0.1-0.5,0.1-0.7c0-0.2,0-0.4,0-0.6
			c0-0.3,0-0.6,0-0.7C1195,85.2,1195,85.1,1195,85c0,0.1,0,0.2,0,0.3V86c0,0.2,0,0.4,0,0.6s0,0.4-0.1,0.7c0,0.5-0.1,1.1-0.2,1.6
			c-0.3,1.5-0.9,2.9-1.6,4.3c-3.7,6.6-11.7,9.7-18.9,7.3c-0.7-0.2-1.4-0.5-2.1-0.9c-0.7-0.4-1.4-0.8-2-1.2c-0.6-0.5-1.3-0.9-1.9-1.5
			c-0.6-0.6-1.1-1.2-1.6-1.8c-1-1.3-1.8-2.8-2.4-4.3c-1.2-3.2-1.3-6.8-0.2-10.1c0.5-1.6,1.2-3.1,2.2-4.4c0.5-0.7,1-1.3,1.5-1.9
			c0.6-0.6,1.1-1.1,1.8-1.6c0.6-0.5,1.3-0.9,1.9-1.3c0.7-0.4,1.4-0.7,2.1-1c2.6-1,5.5-1.3,8.3-0.8c4.5,0.7,8.5,3.4,10.9,7.3
			c0.8,1.3,1.4,2.7,1.8,4.2c0.2,0.5,0.3,1.1,0.3,1.6c0,0.2,0.1,0.5,0.1,0.7c0,0.2,0,0.4,0,0.5c0,0.3,0,0.6,0,0.8
			C1195,84.8,1195,84.9,1195,85z"/>
		<circle class="st13" cx="1212.7" cy="48.8" r="9.9"/>
		
			<rect x="1208.2" y="47.8" transform="matrix(0.7071 -0.7071 0.7071 0.7071 320.6798 871.7695)" class="st5" width="8.9" height="2"/>
		
			<rect x="1211.7" y="44.3" transform="matrix(0.7071 -0.7071 0.7071 0.7071 320.6844 871.7662)" class="st5" width="2" height="8.9"/>
	</g>
	<g id="freepik--ad-1--inject-4">
		<polygon class="st5" points="1121.7,207.5 1121.6,207.5 1121.6,127.7 1022,127.7 1022,207.7 1108.7,207.7 1121.7,220.7 		"/>
		<path class="st9" d="M1121.7,207.5c0,0,0,0.3,0,0.9c0,0.6,0,1.4,0,2.5c0,2.2,0,5.5,0,9.8v0.1l-0.1-0.1l-13-13h0.1l-86.7,0.1h-0.1
			v-0.1c0-21.7,0-45.6,0-70.6v-9.5h0.1h99.6h0.1v0.1c0,24.1,0,44,0,57.9c0,6.9,0,12.4,0,16.1c0,1.9,0,3.3,0,4.3c0,0.5,0,0.9,0,1.1
			C1121.6,207.3,1121.6,207.4,1121.7,207.5L1121.7,207.5c-0.1-0.2-0.1-0.3-0.1-0.4c0-0.3,0-0.6,0-1.1c0-1,0-2.4,0-4.3
			c0-3.7,0-9.2,0-16.1c0-13.9,0-33.8,0-57.9l0.1,0.1H1022l0.1-0.1v9.4c0,25,0,48.9,0,70.6l-0.1-0.1l86.7,0.1l0,0l0,0l13,13l-0.1,0
			C1121.6,212.2,1121.7,207.8,1121.7,207.5z"/>
		<path class="st9" d="M1121.6,136.6c0,0.1-22.3,0.1-49.8,0.1s-49.8-0.1-49.8-0.1c0-0.1,22.3-0.1,49.8-0.1
			S1121.6,136.5,1121.6,136.6z"/>
		<path class="st7" d="M1027.8,132.2c0,0.7-0.6,1.3-1.3,1.3c-0.7,0-1.3-0.6-1.3-1.3c0-0.7,0.6-1.3,1.3-1.3c0,0,0,0,0,0
			C1027.2,131,1027.8,131.6,1027.8,132.2z"/>
		<path class="st7" d="M1031.5,132.2c0,0.7-0.6,1.3-1.3,1.3c-0.7,0-1.3-0.6-1.3-1.3c0-0.7,0.6-1.3,1.3-1.3c0,0,0,0,0,0
			C1030.9,131,1031.5,131.6,1031.5,132.2z"/>
		<circle class="st7" cx="1033.9" cy="132.2" r="1.3"/>
		<circle class="st13" cx="1121.7" cy="130.2" r="9.4"/>
		
			<rect x="1117.4" y="129.2" transform="matrix(0.7071 -0.7071 0.7071 0.7071 236.4739 831.259)" class="st5" width="8.5" height="1.9"/>
		
			<rect x="1120.7" y="125.9" transform="matrix(0.7071 -0.7071 0.7071 0.7071 236.4689 831.2549)" class="st5" width="1.9" height="8.5"/>
		<polygon class="st13" points="1068.1,138.4 1075.5,146 1085.8,143.6 1087.8,154 1097.8,157.5 1094,167.4 1100.4,175.8 1091.9,182 
			1092.8,192.5 1082.2,193.1 1077.3,202.5 1068.1,197.3 1058.9,202.5 1053.9,193.1 1043.4,192.5 1044.3,182 1035.7,175.8 
			1042.2,167.4 1038.4,157.5 1048.3,154 1050.4,143.6 1060.7,146 		"/>
		<g class="st14">
			<path d="M1064,162.1c0-2.2-0.7-2.7-1.9-2.7c-1.2,0-1.9,0.7-1.9,2.4v1.5h-3.5v-1.3c0-3.8,1.9-6,5.6-6c3.7,0,5.6,2.2,5.6,6v0.6
				c0,2.6-0.8,4.2-2.6,4.9c1.9,0.8,2.6,2.6,2.6,5v1.9c0,3.8-1.9,6-5.6,6c-3.7,0-5.6-2.2-5.6-6v-2h3.5v2.2c0,1.7,0.8,2.4,1.9,2.4
				s1.9-0.6,1.9-2.7v-1.9c0-2.2-0.7-3-2.5-3h-1.3v-3.4h1.5c1.4,0,2.2-0.6,2.2-2.5V162.1z"/>
			<path d="M1070,162c0-3.8,2-6,5.7-6s5.7,2.2,5.7,6v12.4c0,3.8-2,6-5.7,6s-5.7-2.2-5.7-6V162z M1073.8,174.6c0,1.7,0.8,2.4,1.9,2.4
				s1.9-0.7,1.9-2.4v-12.9c0-1.7-0.7-2.4-1.9-2.4s-1.9,0.7-1.9,2.4V174.6z"/>
		</g>
		<g class="st14">
			<path d="M1082.4,156c-0.1-0.5,0.3-1.1,0.8-1.2c0.5-0.1,1.1,0.3,1.2,0.8c0,0.1,0,0.2,0,0.3v2.2c0.1,0.5-0.3,1.1-0.8,1.2
				c-0.5,0.1-1.1-0.3-1.2-0.8c0-0.1,0-0.2,0-0.3V156z M1083.1,158.3c0,0.3,0.1,0.4,0.3,0.4s0.3-0.1,0.3-0.4V156
				c0-0.3-0.1-0.4-0.3-0.4s-0.3,0.1-0.3,0.4V158.3z M1086,155h0.6l-2.6,6.6h-0.6L1086,155z M1085.7,158.5c-0.1-0.5,0.3-1.1,0.8-1.2
				s1.1,0.3,1.2,0.8c0,0.1,0,0.2,0,0.3v2.2c0.1,0.5-0.3,1.1-0.8,1.2c-0.5,0.1-1.1-0.3-1.2-0.8c0-0.1,0-0.2,0-0.3V158.5z
				 M1086.4,160.7c0,0.3,0.1,0.4,0.3,0.4s0.3-0.1,0.3-0.4v-2.3c0-0.3-0.1-0.4-0.3-0.4c-0.2,0-0.3,0.1-0.3,0.4V160.7z"/>
		</g>
		<g class="st14">
			<path d="M1061.3,181.6c1.5,0,2.3,0.9,2.3,2.5v0.3h-1.4V184c0-0.7-0.3-1-0.8-1c-0.5,0-0.8,0.3-0.8,1c0,2,3,2.4,3,5.2
				c0,1.6-0.8,2.5-2.3,2.5c-1.5,0-2.3-0.9-2.3-2.5v-0.6h1.4v0.7c0,0.7,0.3,0.9,0.8,0.9c0.5,0,0.8-0.3,0.8-0.9c0-2-3-2.4-3-5.2
				C1059,182.5,1059.8,181.6,1061.3,181.6z"/>
			<path d="M1069.4,191.5h-1.5l-0.3-1.8h-1.9l-0.3,1.8h-1.4l1.6-9.8h2.2L1069.4,191.5z M1065.9,188.4h1.5l-0.7-4.9L1065.9,188.4z"/>
			<path d="M1070.1,181.7h1.5v8.4h2.5v1.4h-4.1V181.7z"/>
			<path d="M1076.4,185.8h2.1v1.4h-2.1v2.9h2.6v1.4h-4.2v-9.8h4.2v1.4h-2.6V185.8z"/>
		</g>
		<path class="st5" d="M1062.6,162.8c0-2.2-0.8-2.7-1.9-2.7s-1.9,0.7-1.9,2.4v1.5h-3.6v-1.3c0-3.8,1.9-6,5.6-6s5.6,2.2,5.6,6v0.6
			c0,2.6-0.8,4.2-2.6,4.9c1.9,0.8,2.6,2.6,2.6,5v1.9c0,3.8-1.9,6-5.6,6s-5.6-2.2-5.6-6v-2h3.6v2.2c0,1.7,0.7,2.4,1.9,2.4
			s1.9-0.6,1.9-2.7v-1.9c0-2.2-0.8-3-2.5-3h-1.3v-3.4h1.5c1.4,0,2.3-0.6,2.3-2.5L1062.6,162.8z"/>
		<path class="st5" d="M1068.6,162.7c0-3.8,2-6,5.7-6c3.7,0,5.7,2.2,5.7,6v12.4c0,3.8-2,6-5.7,6c-3.7,0-5.7-2.2-5.7-6V162.7z
			 M1072.4,175.3c0,1.7,0.7,2.4,1.9,2.4c1.2,0,1.9-0.7,1.9-2.4v-12.9c0-1.7-0.8-2.4-1.9-2.4s-1.9,0.7-1.9,2.4V175.3z"/>
		<path class="st5" d="M1081,156c-0.1-0.5,0.3-1.1,0.8-1.2c0.5-0.1,1.1,0.3,1.2,0.8c0,0.1,0,0.2,0,0.3v2.2c0.1,0.5-0.3,1.1-0.8,1.2
			c-0.5,0.1-1.1-0.3-1.2-0.8c0-0.1,0-0.2,0-0.3V156z M1081.7,158.3c0,0.3,0.1,0.4,0.3,0.4s0.3-0.1,0.3-0.4V156
			c0-0.3-0.1-0.4-0.3-0.4c-0.2,0-0.3,0.1-0.3,0.4V158.3z M1084.6,155h0.6l-2.6,6.6h-0.6L1084.6,155z M1084.3,158.5
			c-0.1-0.5,0.3-1.1,0.8-1.2s1.1,0.3,1.2,0.8c0,0.1,0,0.2,0,0.3v2.2c0.1,0.5-0.3,1.1-0.8,1.2c-0.5,0.1-1.1-0.3-1.2-0.8
			c0-0.1,0-0.2,0-0.3V158.5z M1084.9,160.7c0,0.3,0.1,0.4,0.3,0.4s0.3-0.1,0.3-0.4v-2.3c0-0.3-0.1-0.4-0.3-0.4s-0.3,0.1-0.3,0.4
			V160.7z"/>
		<path class="st5" d="M1059.9,181.6c1.5,0,2.3,0.9,2.3,2.5v0.3h-1.4V184c0-0.7-0.3-1-0.8-1c-0.5,0-0.8,0.3-0.8,1c0,2,3,2.4,3,5.2
			c0,1.6-0.8,2.5-2.3,2.5s-2.3-0.9-2.3-2.5v-0.6h1.4v0.7c0,0.7,0.3,0.9,0.8,0.9c0.5,0,0.8-0.3,0.8-0.9c0-2-3-2.4-3-5.2
			C1057.6,182.5,1058.4,181.6,1059.9,181.6z"/>
		<path class="st5" d="M1068,191.5h-1.5l-0.3-1.8h-1.9l-0.3,1.8h-1.4l1.6-9.8h2.2L1068,191.5z M1064.5,188.4h1.5l-0.7-4.9
			L1064.5,188.4z"/>
		<path class="st5" d="M1068.7,181.7h1.5v8.4h2.5v1.4h-4.1V181.7z"/>
		<path class="st5" d="M1075,185.8h2.1v1.4h-2.1v2.9h2.6v1.4h-4.2v-9.8h4.2v1.4h-2.6V185.8z"/>
		<path class="st7" d="M1087.9,144.1l0.4-1c0.5,0.3,1,0.5,1.5,0.5c0.5,0,0.8-0.2,0.8-0.4c0-0.7-2.6-0.2-2.6-1.9
			c0-0.8,0.7-1.5,2.1-1.5c0.6,0,1.2,0.1,1.7,0.4l-0.4,1c-0.4-0.2-0.9-0.4-1.3-0.4c-0.5,0-0.8,0.2-0.8,0.4c0,0.7,2.6,0.2,2.6,1.9
			c0,0.8-0.7,1.5-2.1,1.5C1089.2,144.7,1088.5,144.5,1087.9,144.1z"/>
		<path class="st7" d="M1094.2,143.3l-0.4,0.4v0.9h-1.3v-4.9h1.3v2.6l1.3-1.3h1.5l-1.5,1.5l1.6,2.1h-1.5L1094.2,143.3z"/>
		<path class="st7" d="M1096.9,139.9c0-0.4,0.3-0.7,0.7-0.7c0,0,0,0,0,0c0.4-0.1,0.7,0.2,0.8,0.5c0,0,0,0.1,0,0.1
			c0,0.4-0.4,0.7-0.8,0.7C1097.2,140.5,1096.9,140.2,1096.9,139.9z M1097,140.9h1.3v3.6h-1.3V140.9z"/>
		<path class="st7" d="M1103.2,142.7c0.1,1-0.7,1.8-1.6,1.9c0,0-0.1,0-0.1,0c-0.4,0-0.7-0.1-1-0.4v1.6h-1.3v-4.9h1.2v0.4
			c0.3-0.3,0.7-0.4,1.1-0.4c1,0,1.8,0.8,1.8,1.7C1103.2,142.6,1103.2,142.7,1103.2,142.7z M1101.9,142.7c-0.1-0.4-0.4-0.7-0.9-0.7
			c-0.4,0.1-0.7,0.4-0.7,0.9c0,0.4,0.4,0.7,0.8,0.7C1101.6,143.6,1101.9,143.3,1101.9,142.7C1101.9,142.8,1101.9,142.8,1101.9,142.7
			z"/>
		<path class="st7" d="M1108.9,143.6h-2l-0.4,0.9h-1.3l2.1-4.7h1.3l2.1,4.7h-1.4L1108.9,143.6z M1108.5,142.7l-0.6-1.5l-0.6,1.5
			H1108.5z"/>
		<path class="st7" d="M1114.7,139.6v4.9h-1.2v-0.4c-0.3,0.3-0.7,0.4-1.1,0.4c-1,0-1.9-0.8-1.9-1.9c0-1,0.8-1.9,1.9-1.9
			c0.4,0,0.7,0.1,1,0.4v-1.6L1114.7,139.6z M1113.5,142.7c-0.1-0.4-0.4-0.7-0.9-0.7s-0.7,0.4-0.7,0.9c0.1,0.4,0.4,0.7,0.8,0.7
			C1113.2,143.6,1113.5,143.3,1113.5,142.7C1113.5,142.8,1113.5,142.8,1113.5,142.7z"/>
		<path class="st7" d="M1115.3,144.2l0.4-0.9c0.4,0.2,0.8,0.3,1.3,0.3c0.4,0,0.6-0.1,0.6-0.2c0-0.5-2.1,0.1-2.1-1.4
			c0-0.7,0.6-1.2,1.8-1.2c0.5,0,1,0.1,1.4,0.3l-0.4,0.9c-0.3-0.2-0.7-0.3-1-0.3c-0.4,0-0.6,0.1-0.6,0.3c0,0.5,2.1,0,2.1,1.4
			c0,0.7-0.6,1.2-1.8,1.2C1116.3,144.6,1115.8,144.5,1115.3,144.2z"/>
	</g>
</g>
</svg>
