<?xml version="1.0" encoding="utf-8"?>
<!-- Generator: Adobe Illustrator 25.0.1, SVG Export Plug-In . SVG Version: 6.00 Build 0)  -->
<svg version="1.1" id="Layer_1" xmlns="http://www.w3.org/2000/svg" xmlns:xlink="http://www.w3.org/1999/xlink" x="0px" y="0px"
	 viewBox="0 0 1511 337" style="enable-background:new 0 0 1511 337;" xml:space="preserve">
<style type="text/css">
	.st0{fill:#071E33;}
	.st1{display:none;}
	.st2{fill:#113E63;}
	.st3{fill:#2D4F66;}
	.st4{fill:#EBEBEB;}
	.st5{fill:#FFFFFF;}
	.st6{fill:#F5F5F5;}
	.st7{fill:#E0E0E0;}
	.st8{fill:#263238;}
	.st9{fill:#165A9A;}
	.st10{fill-rule:evenodd;clip-rule:evenodd;fill:#FFFFFF;}
	.st11{fill:#455A64;}
	.st12{fill:#FFBE9D;}
	.st13{opacity:0.4;}
	.st14{opacity:0.5;}
	.st15{opacity:0.6;}
	.st16{fill:#EB996E;}
	.st17{fill:#F7F7F7;}
</style>
<g id="Layer_4">
	<rect y="0" class="st0" width="1511" height="337"/>
</g>
<g id="Layer_5" class="st1">
</g>
<g id="Layer_3" class="st1">
</g>
<path class="st2" d="M730.7,244.4c0,2.1-0.1,4.3-0.4,6.5c-1.3,9.6-5.5,20.7-12.1,31.5c-4.2,6.9-9.3,13.7-15.2,19.9
	c-4.1,4.3-8.6,8.3-13.4,11.9c-4.6,3.4-9.6,6.5-14.8,8.9c-20.7,9.8-34.8,5.5-52.7,2.6c-9.8-1.6-20.8-2.8-34.6-1.1
	c-14.6,1.8-26.8,6.3-37.5,12.4H304c18-35.7,70.2-68.9,111.8-64.5c17.8,1.9,29.7,10.3,35.2,4.6c1.9-1.9,2.2-4.7,1.5-8.1
	c-0.5-2.5-1.6-5.4-3.2-8.6l0,0c-0.8-1.6-1.6-3.2-2.6-4.9c-1.1-1.9-2.3-3.9-3.5-6c-16.4-27-47.1-66.1-35.1-93.3
	c0.2-0.4,0.3-0.8,0.5-1.2c0.9-1.8,2-3.6,3.2-5.3c1.8-2.5,4-4.8,6.5-7c2.1-1.8,4.3-3.5,6.8-5c2.5-1.6,5.1-3,7.9-4.4l0,0
	c5.6-2.7,11.8-4.9,18.3-6.6l0,0c18.3-4.7,39.3-5.1,57.7-0.1c0.2,0,0.4,0.1,0.5,0.2c0.9,0.2,1.8,0.5,2.7,0.8
	c6.1,1.9,11.9,4.5,17.1,7.7c2,1.3,4,2.6,5.8,4.1c0.2,0.1,0.3,0.2,0.5,0.4c5.9,4.8,10,10,12.9,15.5c9.2,17.2,7.2,36.9,17.1,53.9
	c2.6,4.5,6.1,8.9,10.9,13c3.9,3.3,8,5.9,12.3,7.9c2.4,1.1,4.8,2,7.3,2.8c30.2,9.5,68.1-3.5,96-7.9c10.7-1.7,20-2.1,26.7,0.5
	c0.8,0.3,1.5,0.6,2.2,1c1.2,0.6,2.2,1.4,3.2,2.2c0.9,0.8,1.7,1.7,2.4,2.7C729.4,234.6,730.6,239.2,730.7,244.4z"/>
<path class="st2" d="M324,0c-42.3,34.6-70.8,83.6-113.6,115.9c-2.7,2-5.4,4-8.3,5.9c-0.7,0.5-1.4,0.9-2.1,1.4
	c-2.3,1.5-4.7,2.9-7,4.3c-14.9,8.7-31.6,15.3-51,18.9c-46.9,8.7-99.6-2.3-142-24V0H324z"/>
<path class="st2" d="M1511,0v186c-21.9,25.2-42.1,51.6-79.6,58.6c-18.2,3.4-37.9,1.7-56.4-3.6c-38-10.8-70.6-36.5-73.8-63.8
	c-3.8-32,32.5-70,72.9-86c15-6,30.7-8.9,45-7.4c12.2,1.3,21.6,5.6,28.1,6.4c3,0.4,5.4,0,7.1-1.8c0.9-1,1.5-2.1,1.7-3.5
	c2.5-14.7-32.2-51.4-43.7-84.8L1511,0L1511,0z"/>
<path class="st2" d="M1171.6,337h-64.9c0.2-1.3,0.5-2.6,1-3.8c6.1-13.9,37.1-19.9,54.1-9c0.7,0.5,1.4,1,2.1,1.5
	c2.6,2,4.4,4.3,5.7,6.6l0,0C1170.4,333.9,1171.1,335.4,1171.6,337z"/>
<circle class="st3" cx="390.7" cy="60.6" r="38.7"/>
<circle class="st3" cx="377.4" cy="219.4" r="9.3"/>
<circle class="st2" cx="1337.9" cy="312.4" r="7.1"/>
<circle class="st3" cx="35.1" cy="179.2" r="16.3"/>
<circle class="st3" cx="74.2" cy="248.4" r="6.4"/>
<circle class="st3" cx="171.1" cy="194.2" r="6.8"/>
<circle class="st3" cx="886.7" cy="53.3" r="16.1"/>
<circle class="st3" cx="893.6" cy="161" r="7"/>
<circle class="st3" cx="247.8" cy="309.1" r="3.8"/>
<circle class="st3" cx="281.5" cy="167.1" r="13"/>
<circle class="st3" cx="546.1" cy="63.7" r="20.3"/>
<circle class="st3" cx="655.3" cy="38.1" r="5.4"/>
<circle class="st3" cx="765.5" cy="39.3" r="2.2"/>
<circle class="st3" cx="142.4" cy="322.1" r="2.6"/>
<path class="st2" d="M1040.7,337h-315c-1-5.1-1.8-9.5-2.4-13c-0.1-0.5-0.2-1-0.2-1.5c-1.5-9-2.9-17.1-3.8-24.6
	c-0.7-5.5-1-10.6-1-15.5c0-10.4,1.8-19.8,6.6-28.9c0.7-1.4,1.5-2.8,2.4-4.1c1.1-1.7,2.2-3.4,3.5-5c3.6-4.6,7.9-8.7,12.8-12.2
	c19.5-14.2,47.5-20,75.5-21.7c10.7-0.6,21.3-0.6,31.6-0.3c27.9,1,52.4,4.7,64.2,6.5c14.8,2.2,31.6,4.9,47.1,9.8
	c10.2,3.2,19.9,7.5,27.8,13.1c2.5,1.8,4.9,3.8,7.1,5.9c0.8,0.8,1.6,1.6,2.3,2.4c3.1,3.4,5.7,7.3,7.6,11.6c0.6,1.4,1.2,2.7,1.6,4
	c0.3,0.8,0.5,1.5,0.7,2.3c0.5,1.9,0.8,3.6,1,5.4c0.2,1.7,0.3,3.3,0.2,4.9c0,0.7,0,1.4-0.1,2.1c-0.8,12.5-6.6,22.9-0.4,36.5
	c0.3,0.6,0.6,1.2,0.9,1.7c0,0.1,0.1,0.2,0.1,0.2C1016.6,327.6,1027.4,333.5,1040.7,337z"/>
<path class="st2" d="M1121.4,0c-3.9,5.4-8.1,10.3-12.7,14.5c-12.4,11.3-23.2,13.9-33.6,16.5c-2.1,0.5-4.1,1-6.2,1.6
	c-1.5,0.4-3.1,0.9-4.6,1.5c-5.9,2.1-11.9,5.2-18.2,11c-0.6,0.5-1.2,1.1-1.7,1.6c-4.4,4.3-7.8,8.9-10.5,13.6c-0.3,0.5-0.6,1-0.8,1.5
	c-1.2,2.1-2.2,4.3-3,6.5c-1,2.4-1.8,4.8-2.5,7.3c-1,3.4-1.7,6.8-2.2,10.2l0,0c-4.2,25.2,0.5,50.2-17.7,63.6c-20,14.8-57.6,8-83.3-7
	c-2.9-1.7-5.6-3.5-8.2-5.3c-1.1-0.8-2.2-1.6-3.2-2.5c-1.7-1.4-3.2-2.8-4.7-4.2c-4.6-4.5-8-9.4-9.7-14.3c-0.4-1.2-0.7-2.3-0.9-3.5
	c-0.1-0.5-0.2-1.1-0.2-1.6c-3-27.2,50.2-42.9,46-65.9c-3.8-20.8-51.4-28.3-86.8-34.2C836,7.5,819.6,4.6,817.8,0H1121.4z"/>
<path class="st2" d="M1012.4,256c-0.1,0.8-0.1,1.7-0.2,2.5l0,0c-0.2,1.5-0.3,2.9-0.6,4.4c-0.1,0.8-0.3,1.7-0.4,2.5
	c-0.3,1.9-0.7,3.9-1.2,5.8c-0.4,1.6-0.8,3.2-1.2,4.8c0,0.1,0,0.2-0.1,0.2c-4.2,14.6-11.4,28.8-20.5,40.2c0,0.1-0.1,0.1-0.1,0.2
	c-2.9,3.6-6,7-9.3,10c-5.2,4.8-10.2,8-14.9,10.3H788.7c-18.8-7-44.7-10.9-65.6-14.5c-15.8-2.7-28.7-5.1-33.4-8.4
	c-1.3-0.9-2-1.8-2-2.8c-0.1-3,5.7-6,15.3-9.1c4.6-1.5,10.1-2.9,16.3-4.4c35.2-8.3,91.4-16.3,124.8-22.7c16.6-3.2,27.6-6,27.4-8.3
	c-0.2-3.1-21.1-3.3-47.4-4c-32.6-0.9-73.6-2.7-93.8-12c-1.1-0.5-2.1-1-3.1-1.6c-4.8-2.7-8-6-8.9-10c-0.9-3.6,0.1-7.6,2.2-11.6
	c0.3-0.5,0.6-1,0.9-1.6c7.3-12.4,23.8-24.2,23-25.2c-0.7-0.8-10.6,10.4-25.2,24.1c-0.7,0.7-1.5,1.4-2.2,2.1
	c-25.3,23.6-63.1,53.3-92.1,44.3c-15.4-4.8-26.3-20-33.9-37.5c-0.6-1.4-1.2-2.8-1.8-4.2c-3.9-9.8-6.9-20.1-9.2-29.5
	c-2.8-11.4-4.5-21.7-5.7-28.3c-1.1-6.2-2.1-12.1-2.9-17.6c-2.4-16.1-3.3-29.4,0-41.6c1-3.8,2.5-7.6,4.4-11.2
	c31.7-60.8,157.9-41.6,190-36.8c33.5,5.1,78,12.4,91.9,42.9c3.4,7.5,3.9,13.9,3.3,19.9c-0.3,2.8-0.8,5.6-1.3,8.3
	c-0.8,3.9-1.6,7.8-1.8,11.8l0,0c-0.1,2.2-0.1,4.4,0.2,6.6c0.4,2.7,1.2,5.5,2.5,8.5c1.2,2.7,2.7,5.1,4.5,7.2
	c8.5,10.4,22.8,15,39.3,17.7c26.1,4.3,57.5,3.9,79.8,14.4c6.1,2.9,11.6,6.6,16,11.5c1.6,1.8,3.1,3.7,4.4,5.8
	c1.6,2.5,2.9,5.1,3.9,7.8c1.3,3.3,2.3,6.9,2.9,10.5c0.1,0.8,0.3,1.6,0.4,2.3c0.2,1.6,0.4,3.2,0.5,4.8c0.1,0.8,0.1,1.7,0.1,2.5
	C1012.7,250.3,1012.6,253.1,1012.4,256z"/>
<path class="st2" d="M443.4,337h-56.6c10-3.4,20.3-5.3,29.9-5.4c5.5-0.1,10.2,0.4,14.4,1.3C435.7,333.9,439.7,335.4,443.4,337z"/>
<path class="st2" d="M629.7,337H522.4c22.2-16.2,35.5-41,59.5-38.8c14.8,1.3,29.2,12.6,40.3,27.5C624.9,329.3,627.4,333.1,629.7,337
	z"/>
<path class="st3" d="M596.8,0c-0.8,0.3-1.5,0.6-2.3,1c-15.4,5.8-31.8,4.6-48-1H596.8z"/>
<path class="st3" d="M1511,112.3v171.9c-7.9,7.2-16.8,14.7-26.1,21.4c-20.5,14.7-43.3,25.3-62.2,19.4c-11.1-3.4-19.7-12.2-26.6-23.3
	c-11.2-18.2-17.5-42.8-21.1-60.7c-1.2-6.1-2.1-11.5-2.8-15.5c-5.2-30.3-8.7-50.8,1.5-70.5C1395.4,113.4,1461.3,109.2,1511,112.3z"/>
<path class="st3" d="M1264.5,333.7c-1.6,1.4-3.1,2.5-4.5,3.3h-68.7c-6.5-2.1-14.7-3.5-21.7-4.6l0,0c-8.1-1.4-14.6-2.5-14.6-4.4
	c0-1.2,2.6-2.5,6.8-3.7c8.8-2.6,24.6-5.2,38.1-7.4c0.5-0.1,1-0.2,1.6-0.3l0,0l0,0l0,0l0,0c12.5-2.1,22.7-3.9,22.6-5.3
	c-0.2-2.1-26.6-0.6-43.7-3.4c-3.6-0.6-6.8-1.4-9.2-2.5c-2.6-1.1-4.3-2.6-4.8-4.5c-1.4-5.9,10.2-13.9,9.8-14.4
	c-0.5-0.5-11.9,13.2-24.6,21.3c-6.9,4.4-14.1,7.2-20.3,5.2c-2.9-0.9-5.4-2.8-7.5-5.2c-2.8-3.3-4.9-7.6-6.6-12
	c-0.3-0.9-0.6-1.7-0.9-2.6l0,0c-1-3-1.7-5.9-2.4-8.6c0,0,0-0.1,0-0.2c-0.5-2.4-1-4.6-1.3-6.5l0,0v-0.1c-0.1-0.4-0.1-0.8-0.2-1.2l0,0
	c0-0.1,0-0.2,0-0.2l0,0c-0.1-0.3-0.1-0.5-0.1-0.8c-0.4-2.5-0.8-4.8-1.1-6.9c0-0.1,0-0.2,0-0.3c-0.3-1.9-0.5-3.7-0.6-5.5
	c0-0.1,0-0.1,0-0.2c-0.1-1.3-0.1-2.6-0.1-3.8v-0.1c0-0.6,0.1-1.2,0.1-1.8c0-0.1,0-0.2,0-0.3c0.3-2.7,1-5.2,2.3-7.6V249
	c0.1-0.1,0.1-0.2,0.2-0.3c1.6-3,3.8-5.4,6.5-7.4c0.1-0.1,0.1-0.1,0.2-0.1c2.1-1.6,4.5-2.9,7.1-4h0.1c0.1,0,0.2-0.1,0.3-0.1
	c0.7-0.3,1.4-0.5,2.1-0.8c13.2-4.6,30.6-3.9,42.8-2.7h0.1c1.9,0.2,3.6,0.4,5.2,0.6c2.5,0.3,4.5,0.6,6.1,0.9c0.3,0,0.5,0.1,0.8,0.1
	c2.7,0.4,5.5,0.8,8.4,1.4c2.7,0.5,5.4,1.1,8,1.9c0.9,0.3,1.9,0.6,2.8,0.9c0.7,0.2,1.4,0.5,2.1,0.8c0,0,0,0,0.1,0
	c3,1.2,5.8,2.7,8.1,4.6c2.2,1.8,4,3.9,5.2,6.5c3.9,8.4-2.2,13.3,1.2,20.7c7.6,16.5,43.5,4.5,54.2,21.3
	C1281.3,304.5,1274.9,324.2,1264.5,333.7z"/>
<path class="st2" d="M1236.1,62.1c0.4,0.5-11.2,8.6-9.8,14.4c2.9,11.8,57.4,7.3,57.6,10.4c0.2,3.5-69.3,10.4-69.2,16.7
	c0.1,5.1,44.9,4.7,47.3,17.3c1.6,8.6-18.4,14.5-17.3,24.8c1.3,11.7,29.6,23.2,41.5,14.4c10.5-7.8,0.7-25.8,13.8-38.6
	c8.3-8.1,15.1-3.7,24.2-12.1c10.4-9.6,16.8-29.3,9.8-40.3c-10.7-16.8-46.6-4.8-54.2-21.3c-3.4-7.4,2.7-12.3-1.2-20.7
	c-5.3-11.5-22-14.2-34.6-16.1c-12.1-1.8-59.5-9-71.5,13.8c-3.9,7.4-2.5,15.1-0.6,26.5c1.5,8.7,5.7,33.3,19,37.5
	C1208.8,94.1,1235.3,61.3,1236.1,62.1z"/>
<path class="st3" d="M882,0c-4.1,2.1-8.3,4.1-12.8,6c-4.2,1.8-8.4,3.4-12.8,4.9C790.9,33.8,708,26.3,642.8,0H882z"/>
<path class="st3" d="M1249.7,0c-1.2,1.5-2.4,3-3.6,4.5c-1.7,2-3.4,3.9-5.2,5.9c-16.5,17.7-39,33.5-63.4,42.2
	c-1.6,0.6-3.2,1.1-4.9,1.6c-1.7,0.5-3.3,1-5,1.5l0,0c-8.7,2.3-17.5,3.7-26.3,3.9c-8.6,0.2-17.1-0.7-25.5-2.9
	c-8.5-2.2-15.7-5.6-22.2-9.7h-0.1c-7-4.5-13.1-9.9-18.5-15.8c-0.5-0.5-0.9-1-1.4-1.5c-0.8-0.9-1.6-1.8-2.4-2.8
	c-1.5-1.8-3-3.7-4.5-5.6l0,0c-0.2-0.3-0.5-0.6-0.7-1c-4.9-6.5-9.3-13.3-13.7-20.1h197.4L1249.7,0L1249.7,0z"/>
<path class="st3" d="M1461.5,80.2c-1.7,1.7-3.5,3.2-5.4,4.6c-2.8,2-5.7,3.8-8.9,5.3c-20.1,9.8-47.4,9.2-73.1,1
	c-13.8-4.4-27.1-11-38.7-19.3l0,0c-2.7-1.9-5.2-4-7.7-6.1c-1.7-1.5-3.4-3-5.1-4.6c-17.6-17-28.7-38.9-33.4-61.1H1481
	C1484,24.1,1481.9,60.2,1461.5,80.2z"/>
<path class="st2" d="M1484.9,305.6c-2,10-3.4,20.7-3.1,31.4h-115.5c9-12.5,19.2-24.4,29.9-35.3c39.3-40.1,84.4-66.3,97.4-58.2
	C1503.6,249.9,1491.1,275,1484.9,305.6z"/>
<path class="st3" d="M883.7,307.2c-1,0.2-1.9,0.3-2.8,0.5L813.3,337H427.4c1.2-1.4,2.4-2.7,3.7-4.1c19.7-21.4,42-40.7,65.9-56.6l0,0
	c1.3-0.9,2.6-1.8,4-2.6l0,0c1.2-0.8,2.5-1.6,3.8-2.4c1.8-1.1,3.5-2.2,5.3-3.3c2.2-1.3,4.3-2.6,6.5-3.8c2-1.1,4-2.2,6-3.3
	c2.4-1.3,4.8-2.5,7.2-3.8c1.8-0.9,3.5-1.8,5.3-2.6c2-1,4.1-2,6.2-2.9c2.8-1.3,5.6-2.5,8.4-3.6c6.6-2.8,13.2-5.3,20-7.5
	c7.1-2.4,14.3-4.5,21.5-6.4c1.4-0.4,2.9-0.7,4.3-1.1c0.4-0.1,0.8-0.2,1.2-0.3c1.8-0.4,3.7-0.9,5.5-1.3c17-3.8,34.3-6,51.4-6.9
	c13.1-0.7,26.2-0.6,39,0.3c1.4,0.1,2.7,0.2,4.1,0.3c6.8,0.5,13.7,1.3,20.4,2.2c1.2,0.2,2.4,0.3,3.6,0.5c1.4,0.2,2.7,0.4,4.1,0.7
	c6.4,1.1,12.7,2.3,18.9,3.7c7.1,1.6,14.2,3.5,21.1,5.6c11,3.3,21.7,7.2,32.1,11.6c9.5,4.1,18.7,8.6,27.5,13.5
	c0.8,0.4,1.5,0.9,2.3,1.3c0.2,0.1,0.4,0.2,0.6,0.4l0,0c0.1,0.1,0.2,0.1,0.3,0.2c0.7,0.4,1.4,0.8,2.1,1.2c5,2.9,9.9,6,14.6,9.2
	c7.7,5.2,15.1,10.8,22.1,16.5c0.1,0,0.2,0.1,0.2,0.2c5.9,4.8,11.5,9.8,16.8,14.8C883.3,306.8,883.5,307,883.7,307.2z"/>
<circle class="st2" cx="834.9" cy="223.1" r="20.3"/>
<circle class="st2" cx="740.5" cy="237.2" r="20.3"/>
<circle class="st2" cx="842" cy="316.8" r="20.3"/>
<circle class="st2" cx="930.3" cy="292" r="7.1"/>
<circle class="st2" cx="503.8" cy="273.9" r="7.1"/>
<circle class="st2" cx="441.3" cy="319.6" r="7.1"/>
<g id="Layer_1_1_">
	<g>
		<g id="freepik--background-complete--inject-35">
			<path class="st4" d="M1035.6,88.2L1035.6,88.2c-12.6,0-22.8-10.2-22.8-22.8l0,0l0,0c0-12.6,10.2-22.8,22.8-22.8l0,0
				c12.6,0,22.8,10.2,22.8,22.8l0,0C1058.4,77.9,1048.2,88.2,1035.6,88.2L1035.6,88.2z"/>
			<rect x="1025.3" y="60.2" class="st5" width="4.7" height="15.3"/>
			<path class="st5" d="M1027.6,58.2c1.6,0,2.8-1.2,2.8-2.8s-1.2-2.8-2.8-2.8c-1.6,0-2.8,1.2-2.8,2.8l0,0
				C1024.8,57,1026.1,58.2,1027.6,58.2z"/>
			<path class="st5" d="M1037.5,67.5c0-2.1,1-3.4,2.9-3.4c1.7,0,2.6,1.2,2.6,3.4v8h4.7v-9.6c0-4.1-2.3-6.1-5.6-6.1
				c-1.9,0-3.6,0.9-4.6,2.5v-2.1h-4.5v15.3h4.5V67.5z"/>
			<polygon class="st6" points="1066.2,19.9 1069.3,25.6 1075.1,28.7 1069.3,31.8 1066.2,37.6 1063.1,31.8 1057.4,28.7 1063.1,25.6 
							"/>
			<polygon class="st4" points="1196.6,174.7 1198.9,179 1203.2,181.3 1198.9,183.7 1196.6,188 1194.2,183.7 1189.9,181.3 
				1194.2,179 			"/>
			<polygon class="st7" points="1203.2,153.5 1204.3,155.5 1206.2,156.5 1204.3,157.6 1203.2,159.5 1202.2,157.6 1200.2,156.5 
				1202.2,155.5 			"/>
			<polygon class="st7" points="1043.9,22 1044.9,24 1046.9,25 1044.9,26.1 1043.9,28 1042.8,26.1 1040.9,25 1042.8,24 			"/>
			<path class="st7" d="M990.9,201.7c2.5-1.2,4.1-3.7,4-6.4c0-3.8-3-6.9-6.5-6.9c-3.6,0-6.4,3.2-6.4,7c0,2.8,1.6,5.3,4.2,6.4
				c-10,1.6-9.4,12.5-9.4,12.5l23.6-0.2C1000.4,214,1000.8,203.1,990.9,201.7z"/>
			<path class="st4" d="M1217.1,273.1c-0.4-2-2.3-3.3-4.3-2.9c-1.5,0.3-2.7,1.6-2.9,3.1c-0.3-2-2.1-3.4-4.1-3.1
				c-1.6,0.2-2.8,1.4-3.1,3c-0.2,1.3,0.1,2.5,0.9,3.6c0.7,1,1.6,1.9,2.6,2.7c1.3,1.2,2.5,2.3,3.9,3.5c1.3-1.2,2.4-2.3,3.7-3.5
				c1-0.8,1.8-1.7,2.6-2.8C1216.9,275.6,1217.3,274.4,1217.1,273.1z"/>
			<path class="st7" d="M1232.4,132.7l2.5-0.5l4-8.8l-1-5c0,0,3.9-1,4.7,5.7c0.9,6.7,1,4.9,1,4.9s8.3-1.6,9.1-1
				c0.6,0.4,2.5,8.6,3.4,13.1c0.6,2.2-0.5,4.5-2.5,5.6c-0.3,0.1-0.6,0.2-0.9,0.3c-2.1,0.4-13,0.8-13,0.8l-4.4,0.9L1232.4,132.7z"/>
			<polygon class="st7" points="1224.9,132.7 1229.9,149.7 1234.2,148.8 1230.9,131.9 			"/>
		</g>
		<g id="freepik--Floor--inject-35">
			<path class="st8" d="M1258.3,316.7c0,0.1-66.1,0.2-147.6,0.2s-147.6-0.1-147.6-0.2s66.1-0.2,147.6-0.2
				C1192.2,316.5,1258.3,316.6,1258.3,316.7z"/>
		</g>
		<g id="freepik--Icons--inject-35">
			<path class="st9" d="M1206.9,126L1206.9,126c-13.4,6.5-29.6,0.9-36.2-12.5l0,0c-6.5-13.4-0.9-29.6,12.5-36.2l0,0
				c13.4-6.5,29.6-0.9,36.2,12.5l0,0l0,0C1226,103.2,1220.4,119.4,1206.9,126L1206.9,126z"/>
			<path class="st5" d="M1188.4,107.7c0.4,0,0.7-0.3,0.7-0.7v-0.1c-0.1-0.3-0.2-1.2-0.3-1.5c-0.1-0.5-0.2-0.6-0.7-0.8
				c-1.2-0.5-2.1-1.5-2.7-2.7c-2-4.2-0.7-9.5,4.3-11.9c4.5-2.2,8.2-0.7,10,3c2.3,4.8,2.2,9.9-1,11.4c-1.4,0.8-3.1,0.3-3.9-1.1
				c-0.1-0.3-0.2-0.5-0.3-0.8c-0.5-2.3-0.7-5.1-1.4-6.6c-0.7-1.3-1.9-2.1-3.5-1.4c-1.8,0.9-2.3,3.4-1.1,5.9c0.4,0.9,1,1.7,1.8,2.4
				c0,0,1.9,8.6,2.3,10.1c0.7,3,2.8,6,3,6.3c0.1,0.1,0.2,0.1,0.4,0l0.1-0.1c0.1-0.3,0.9-3.9,0.4-6.9c-0.2-0.8-1.1-5.1-1.1-5.1
				c1.1,0.8,3.3,1,5.1,0.1c5.3-2.6,6.6-9.2,3.4-15.7c-2.4-4.9-8.8-7.5-15.1-4.4c-7.9,3.8-9.1,11.4-6.8,16.1
				C1183.3,105.9,1185.6,107.9,1188.4,107.7z"/>
			<path class="st9" d="M1234,202.4L1234,202.4c-9.6-3.7-14.5-14.5-10.8-24.1l0,0l0,0c3.7-9.6,14.4-14.5,24.1-10.8l0,0l0,0
				c9.6,3.7,14.5,14.5,10.8,24.1l0,0l0,0C1254.4,201.2,1243.6,206,1234,202.4L1234,202.4z"/>
			<path class="st10" d="M1250.4,188.1c1.8-5.3-1-11-6.3-12.8c-4.9-1.7-10.3,0.7-12.4,5.4c-0.1,0.1-0.1,0.3-0.2,0.4
				c-0.7,1.7-0.8,3.5-0.5,5.3l-3.6,4.4l5.8,0.3c3.6,4.2,9.9,4.8,14.2,1.2c1.3-1.1,2.3-2.5,2.9-4
				C1250.3,188.3,1250.4,188.2,1250.4,188.1z M1237.9,192.6c-1.5-0.6-2.9-1.6-3.8-3l-3.4-0.2l2.1-2.5c-0.5-1.7-0.4-3.5,0.2-5.2
				c0.1-0.3,0.2-0.5,0.3-0.7c2.1-4.2,7.2-5.8,11.4-3.7c3.6,1.8,5.4,6,4.3,9.9c-0.1,0.2-0.1,0.4-0.2,0.6
				C1247.1,192.1,1242.3,194.2,1237.9,192.6z"/>
			<path class="st10" d="M1244.5,188.3c-0.2-0.2-1.1-1.2-1.3-1.3c-0.2-0.1-0.3-0.3-0.6-0.1s-0.9,0.5-1.1,0.6s-0.3,0.1-0.5-0.1
				c-0.6-0.5-1.1-1.2-1.4-1.8c-0.3-0.7-0.5-1.3-0.7-2.1c0-0.3,0.1-0.4,0.3-0.4c0.2-0.1,0.3-0.2,0.5-0.3l0.1-0.1
				c0.1-0.1,0.2-0.1,0.2-0.2c0.1-0.1,0.2-0.3,0.1-0.4c0-0.1,0-1.4-0.1-2c0-0.5-0.2-0.5-0.4-0.6c-0.1-0.1-0.3-0.1-0.4-0.2
				c-0.2-0.1-0.5-0.1-0.7,0c-0.7,0.3-1.3,0.9-1.5,1.6c-0.1,0.3-0.2,0.5-0.2,0.8c0,0.6,0,1.3,0.2,1.9c0.1,0.2,0.6,3.1,2.6,5
				c2,1.8,2.1,1.5,2.6,1.6c0.7,0.1,1.4,0,2-0.5c0.3-0.3,0.5-0.6,0.6-1C1244.8,188.6,1244.7,188.5,1244.5,188.3z"/>
			<path class="st9" d="M991.2,116.1L991.2,116.1c-7.9,0-14.2-6.4-14.2-14.2l0,0c0-7.9,6.4-14.2,14.2-14.2l0,0l0,0
				c7.9,0,14.2,6.4,14.2,14.2l0,0C1005.4,109.7,999.1,116.1,991.2,116.1L991.2,116.1z"/>
			<path class="st5" d="M983.6,106.6c4.1,2.6,9.6,1.4,12.2-2.7c1-1.5,1.5-3.3,1.4-5.2c0.6-0.4,1.1-1,1.5-1.6
				c-0.6,0.3-1.2,0.4-1.8,0.5c0.7-0.4,1.1-1,1.4-1.7c-0.6,0.4-1.3,0.6-2,0.8c-1.2-1.3-3.1-1.4-4.4-0.2c-0.8,0.8-1.2,1.9-0.9,3
				c-2.5-0.1-4.8-1.3-6.4-3.3c-0.8,1.4-0.4,3.2,1,4.2c-0.5,0-1-0.1-1.4-0.4c0,1.5,1,2.8,2.5,3.1c-0.5,0.1-0.9,0.1-1.4,0.1
				c0.4,1.3,1.6,2.1,2.9,2.2C986.9,106.3,985.2,106.8,983.6,106.6z"/>
			<path class="st11" d="M1016.8,275.6L1016.8,275.6c-13.2,3.1-26.4-5-29.5-18.2l0,0c-3.1-13.2,5-26.4,18.2-29.5l0,0l0,0
				c13.2-3.1,26.4,5,29.5,18.2l0,0l0,0C1038.1,259.2,1030,272.4,1016.8,275.6C1016.8,275.5,1016.8,275.5,1016.8,275.6z"/>
			<path class="st5" d="M1008.5,241c3.5-0.8,3.9-0.9,5.3-1.2c0.8-0.2,1.7-0.2,2.5-0.1c0.6,0.1,1.2,0.3,1.7,0.6s1,0.8,1.3,1.3
				c0.5,0.7,0.8,1.5,1,2.3c0.4,1.4,0.5,1.8,1.3,5.3s0.9,3.9,1.2,5.3c0.2,0.8,0.2,1.7,0.1,2.5c-0.1,0.6-0.3,1.2-0.6,1.7
				s-0.8,1-1.3,1.3c-0.7,0.5-1.5,0.8-2.3,1c-1.3,0.4-1.8,0.5-5.3,1.3s-3.9,0.9-5.3,1.2c-0.8,0.2-1.7,0.2-2.5,0.1
				c-0.6-0.1-1.2-0.3-1.7-0.6c-0.5-0.3-1-0.8-1.3-1.3c-0.5-0.7-0.8-1.5-1-2.3c-0.4-1.4-0.5-1.8-1.3-5.3c-0.8-3.5-0.9-3.9-1.2-5.3
				c-0.2-0.8-0.2-1.7-0.1-2.5c0.2-1.2,0.9-2.4,1.9-3.1c0.7-0.5,1.5-0.8,2.3-1C1004.6,241.9,1005.1,241.8,1008.5,241L1008.5,241z
				 M1008,238.6c-3.6,0.8-4,1-5.4,1.4c-1.1,0.3-2.1,0.7-3,1.3c-1.6,1.1-2.6,2.8-2.9,4.7c-0.1,1.1-0.1,2.2,0.1,3.3
				c0.3,1.4,0.4,1.9,1.2,5.4c0.8,3.6,1,4,1.3,5.4c0.3,1.1,0.7,2.1,1.3,3c0.5,0.8,1.3,1.5,2.1,2s1.7,0.8,2.7,1
				c1.1,0.1,2.2,0.1,3.3-0.1c1.4-0.3,1.9-0.4,5.4-1.2c3.6-0.8,4-1,5.4-1.3c1.1-0.3,2.1-0.7,3-1.3c0.8-0.5,1.5-1.2,2-2.1
				c0.5-0.8,0.8-1.7,1-2.7c0.1-1.1,0.1-2.2-0.2-3.3c-0.3-1.4-0.4-1.9-1.2-5.4c-0.8-3.6-1-4-1.3-5.4c-0.3-1.1-0.7-2.1-1.3-3
				c-0.5-0.8-1.2-1.5-2.1-2c-0.8-0.5-1.7-0.8-2.7-1c-1.1-0.1-2.2-0.1-3.3,0.1C1012,237.7,1011.6,237.8,1008,238.6L1008,238.6z"/>
			<path class="st5" d="M1009.5,245c-3.7,0.9-6,4.6-5.1,8.3s4.6,6,8.3,5.1s6-4.6,5.1-8.3C1016.9,246.4,1013.2,244.1,1009.5,245
				L1009.5,245z M1012.2,256.1c-2.4,0.6-4.8-0.9-5.4-3.3c-0.6-2.4,0.9-4.8,3.3-5.4c2.4-0.6,4.8,0.9,5.4,3.3
				C1016.1,253.1,1014.6,255.5,1012.2,256.1L1012.2,256.1L1012.2,256.1z"/>
			<path class="st5" d="M1018,242.7c0.2,0.9-0.3,1.7-1.2,1.9s-1.7-0.3-1.9-1.2s0.3-1.7,1.2-1.9
				C1016.9,241.3,1017.8,241.8,1018,242.7L1018,242.7L1018,242.7z"/>
			<path class="st11" d="M1202.5,254L1202.5,254c-6.3,0-11.4-5.1-11.4-11.4l0,0l0,0c0-6.3,5.1-11.4,11.4-11.4l0,0l0,0
				c6.3,0,11.4,5.1,11.5,11.4l0,0l0,0C1214,248.9,1208.9,254,1202.5,254L1202.5,254z"/>
			<path class="st5" d="M1200.8,249.4h2.8v-6.9h1.9l0.2-2.3h-2.2v-1.3c0-0.5,0.1-0.8,0.7-0.8h1.5v-2.4h-1.9c-2.1,0-3,0.9-3,2.7v1.9
				h-1.5v2.3h1.4L1200.8,249.4z"/>
		</g>
		<g id="freepik--Device--inject-35">
			<path class="st8" d="M1163.5,317.2h-91.9c-11,0-20-8.9-20-20l0,0V66.9c0-11,8.9-20,20-20l0,0l91.9,0.1c11,0,20,8.9,20,20v230.3
				C1183.6,308.2,1174.6,317.1,1163.5,317.2C1163.6,317.2,1163.5,317.2,1163.5,317.2z"/>
			<path class="st5" d="M1163.5,54.9h-17.8c-2.4,0.1-4.4,2.1-4.3,4.5v3.2c0.1,2.4-1.9,4.5-4.3,4.5l0,0h-34.7
				c-2.4-0.1-4.4-2.1-4.3-4.5l0,0v-3.3c0-2.4-1.9-4.5-4.3-4.5h-6.3h-15.6c-7.7,0-14,6.2-14,14l0,0v224.8c0,7.7,6.3,14,14,14l0,0
				l91.7,0.1c7.7,0,14-6.3,14-14l0,0V68.9C1177.5,61.2,1171.2,55,1163.5,54.9z"/>
			<path class="st8" d="M1164.8,73.2c0,0.1-2.3,0.1-5.2,0.1c-2.9,0-5.2,0-5.2-0.1s2.3-0.1,5.2-0.2
				C1162.5,73.1,1164.8,73.1,1164.8,73.2z"/>
			<path class="st8" d="M1164.9,75.9c0,0.1-2.3,0.1-5.2,0.2c-2.9,0-5.2,0-5.2-0.1s2.3-0.1,5.2-0.2
				C1162.5,75.8,1164.9,75.8,1164.9,75.9z"/>
			<path class="st8" d="M1164.9,78.5c0,0.1-2.3,0.1-5.2,0.2c-2.9,0-5.2,0-5.2-0.1s2.3-0.1,5.2-0.2
				C1162.6,78.4,1164.9,78.4,1164.9,78.5z"/>
			<path class="st8" d="M1067.4,81.1h0.3h0.8l2.8-0.1l-0.1,0.1c0-0.6,0-1.3,0-2c0-0.4,0-0.7,0-1.2c0.1-0.5,0.5-0.8,0.9-0.9
				c0.5,0,0.8,0,1.3,0c0.5,0.1,0.9,0.5,0.9,1.1c0,0.9,0,1.9,0,2.9l-0.1-0.1h3.5l-0.1,0.1c0-1.4,0-2.9,0-4.4c0-0.4,0-0.7,0-1.1
				c0-0.3-0.2-0.6-0.5-0.8l-1.5-1.5l-1.5-1.5l-0.7-0.7c-0.2-0.2-0.4-0.5-0.7-0.5c-0.3-0.1-0.6,0-0.8,0.2c-0.2,0.2-0.4,0.4-0.7,0.7
				l-1.3,1.3c-0.8,0.8-1.6,1.6-2.2,2.3c-0.2,0.4-0.2,0.9-0.2,1.3s0,0.8,0,1.2c0,0.8,0,1.4,0,2s0,0.9,0,1.3c0,0.2,0,0.3,0,0.5
				c0-0.1,0-0.3,0-0.4c0-0.3,0-0.8,0-1.3s0-1.2,0-2c0-0.4,0-0.8,0-1.3c0-0.2,0-0.5,0-0.7c0-0.3,0.1-0.5,0.2-0.7
				c0.7-0.8,1.4-1.5,2.2-2.3l1.3-1.3c0.2-0.2,0.4-0.4,0.7-0.7c0.3-0.2,0.7-0.3,1-0.2c0.3,0.1,0.6,0.3,0.8,0.6l0.7,0.7l1.5,1.5
				l1.5,1.5c0.1,0.1,0.3,0.3,0.4,0.4c0.1,0.2,0.2,0.4,0.2,0.6c0,0.4,0,0.7,0,1.1c0,1.5,0,3,0,4.4v0.1h-0.1h-3.5h-0.2v-0.1
				c0-1,0-2,0-2.9c0-0.4-0.3-0.8-0.7-0.9c-0.4,0-0.9,0-1.3,0s-0.7,0.3-0.8,0.7c0,0.4,0,0.8,0,1.1c0,0.7,0,1.4,0,2v0.1h-0.1h-2.8
				h-0.7C1067.6,81.2,1067.5,81.1,1067.4,81.1z"/>
			<path class="st11" d="M1128,256.8c-0.3,0.1-0.6,0.1-1,0.1l-2.6,0.1c-2.2,0-5.3,0.1-8.7,0.1s-6.4,0-8.7-0.1l-2.6-0.1
				c-0.3,0-0.6,0-1-0.1c0.3-0.1,0.6-0.1,1-0.1l2.6-0.1c2.2,0,5.3,0,8.7,0s6.4,0,8.7,0l2.6,0.1C1127.4,256.7,1127.7,256.7,1128,256.8
				z"/>
			<path class="st11" d="M1166.5,262.8c0,0.1-14.1,0.2-31.5,0.2s-31.5-0.1-31.5-0.2s14.1-0.2,31.5-0.2S1166.5,262.7,1166.5,262.8z"
				/>
			<path class="st11" d="M1146.8,268.5c0,0.1-9.7,0.2-21.7,0.2s-21.7-0.1-21.7-0.2s9.7-0.2,21.7-0.2
				C1137.1,268.3,1146.8,268.4,1146.8,268.5z"/>
			<path class="st8" d="M1167.8,279.5l-2-2l-1.9,1.9v-5.6h3.8L1167.8,279.5z M1165.8,277.3L1165.8,277.3l1.8,1.8V274h-3.5v5
				L1165.8,277.3z"/>
			<path class="st8" d="M1115.6,278.8l-0.7-0.3c-0.9,0.4-1.9,0-2.3-0.8c-0.4-0.9,0-1.9,0.8-2.3c0.9-0.4,1.9,0,2.3,0.8
				c0.3,0.7,0.2,1.4-0.3,2L1115.6,278.8z M1114,275c-1,0.1-1.7,0.9-1.7,1.9c0.1,0.9,0.8,1.6,1.7,1.7c0.3,0,0.6-0.1,0.9-0.3l0,0
				l0.5,0.2l-0.1-0.5l0,0c0.7-0.7,0.6-1.9-0.1-2.5C1114.9,275.2,1114.4,275.1,1114,275L1114,275z"/>
			<path class="st8" d="M1120.1,278.5l-0.8-1.9l-1.5-1.3h3.6L1120.1,278.5z M1118.1,275.3l1.3,1.2l0.7,1.6l1.1-2.8L1118.1,275.3z"/>
			
				<rect x="1119.2" y="275.8" transform="matrix(0.8382 -0.5454 0.5454 0.8382 30.8522 655.6793)" class="st8" width="2.3" height="0.1"/>
			<path class="st9" d="M1110,275.6c-0.1-0.6-0.7-1-1.3-0.9c-0.5,0.1-0.8,0.5-0.9,0.9c-0.1-0.6-0.6-1-1.3-1
				c-0.5,0.1-0.9,0.4-0.9,0.9c-0.1,0.4,0,0.8,0.3,1.1c0.2,0.3,0.5,0.6,0.8,0.8c0.4,0.4,0.8,0.7,1.2,1c0.4-0.4,0.7-0.7,1.1-1.1
				c0.3-0.2,0.6-0.5,0.8-0.8C1109.9,276.4,1110,276,1110,275.6z"/>
			<path class="st8" d="M1171.8,284.5c0,0,0-0.2,0-0.6s0-1,0-1.8c0-1.6,0-4,0-7c0-6.1,0-15-0.1-26.2l0.1,0.1l-106.6,0.1l0,0l0.2-0.2
				c0,12.4,0,24.4,0,35.7l-0.2-0.2l76.2,0.1h22.3h6h1.5L1171.8,284.5h-0.5h-1.5h-5.9h-22.2l-76.4,0.1h-0.2v-0.1
				c0-11.3,0-23.3,0-35.7v-0.2h0.2l106.6,0.1h0.1v0.1c0,11.2,0,20.1-0.1,26.3c0,3.1,0,5.4,0,7c0,0.8,0,1.4,0,1.8
				S1171.8,284.5,1171.8,284.5z"/>
			
				<rect x="1072.6" y="251.8" transform="matrix(5.759397e-03 -1 1 5.759397e-03 811.5963 1349.3363)" class="st4" width="23.6" height="29.5"/>
			<path class="st8" d="M1099.2,254.9h-0.6h-1.6h-6.1h-21.3l0.2-0.2c0,7-0.1,15.1-0.1,23.6c0,0-0.3-0.3-0.2-0.2h2h2h4h7.7l13.8,0.1
				l-0.1,0.1c0.1-7.1,0.1-13,0.2-17.1c0-2.1,0-3.7,0.1-4.8c0-0.5,0-1,0-1.3C1099.1,255,1099.1,254.8,1099.2,254.9
				c-0.1-0.1-0.1,0-0.1,0.3s0,0.7,0,1.2c0,1.1,0,2.7,0,4.8c0,4.2,0,10.1,0,17.2v0.1h-0.1l-13.8-0.1h-7.7h-4h-2h-2l-0.2-0.2
				c0.1-8.5,0.1-16.6,0.2-23.6v-0.2h0.2l21.4,0.2l6,0.1h1.6h0.4L1099.2,254.9z"/>
			
				<rect x="1074.1" y="252.9" transform="matrix(5.759397e-03 -1 1 5.759397e-03 811.4801 1349.4514)" class="st7" width="20.6" height="27.4"/>
			<polygon class="st6" points="1070.5,276.9 1080.2,264.1 1086.1,272.1 1090.1,267.9 1098,277 			"/>
			<path class="st6" d="M1088.7,262.6c0,1.2-1,2.2-2.2,2.2s-2.2-1-2.2-2.2s1-2.2,2.2-2.2l0,0
				C1087.7,260.4,1088.7,261.4,1088.7,262.6L1088.7,262.6z"/>
			<path class="st8" d="M1119.4,101.8c-0.1,0-0.2,0-0.3,0h-0.9l-3.3,0.1c-2.8,0-6.7,0-11,0s-8.2,0-11,0l-3.3-0.1h-0.9
				c-0.1,0-0.2,0-0.3,0c0.1,0,0.2,0,0.3,0h0.9l3.3-0.1c2.8,0,6.7-0.1,11-0.1s8.2,0,11,0.1l3.3,0.1h0.9
				C1119.2,101.8,1119.3,101.8,1119.4,101.8z"/>
			<path class="st8" d="M1163,232.3l-2.9-2.9l-2.8,2.8v-8.4h5.7L1163,232.3z M1160.1,229L1160.1,229l2.7,2.7V224h-5.2v7.5
				L1160.1,229z"/>
			<path class="st8" d="M1089.2,231.4l-1.3-0.6c-1.7,0.8-3.8,0.1-4.6-1.7c-0.8-1.7-0.1-3.8,1.7-4.6c1.7-0.8,3.8-0.1,4.6,1.7
				c0.6,1.3,0.3,2.8-0.6,3.8L1089.2,231.4z M1086,224c-1.9,0-3.5,1.6-3.5,3.5s1.6,3.5,3.5,3.5c0.6,0,1.2-0.2,1.7-0.5h0.1l1,0.4
				l-0.2-1l0,0c1.3-1.4,1.2-3.7-0.2-5C1087.7,224.3,1086.9,224,1086,224L1086,224z"/>
			<path class="st8" d="M1097.9,230.8l-1.6-3.8l-2.9-2.7l7.1-0.1L1097.9,230.8z M1094.1,224.6l2.5,2.3l1.3,3.2l2.2-5.6L1094.1,224.6
				z"/>
			
				<rect x="1096.2" y="225.5" transform="matrix(0.8382 -0.5454 0.5454 0.8382 54.6955 635.644)" class="st8" width="4.6" height="0.3"/>
			<path class="st9" d="M1078,225.2c-0.2-1.2-1.4-2-2.6-1.7c-0.9,0.2-1.6,0.9-1.7,1.9c-0.2-1.2-1.3-2-2.5-1.8
				c-0.9,0.1-1.7,0.9-1.8,1.8c-0.1,0.8,0.1,1.5,0.5,2.1s1,1.2,1.6,1.6c0.8,0.7,1.5,1.3,2.3,2c0.8-0.7,1.4-1.4,2.2-2.1
				c0.6-0.5,1.1-1,1.5-1.7C1077.9,226.7,1078.1,225.9,1078,225.2z"/>
			<circle class="st4" cx="1077.4" cy="101.8" r="4.8"/>
			<path class="st11" d="M1161.2,204.7c0,0.1-20.2,0.2-45,0.2s-45-0.1-45-0.2c0-0.1,20.2-0.2,45-0.2
				C1141.1,204.5,1161.2,204.6,1161.2,204.7z"/>
			<path class="st11" d="M1161.2,197.2c0,0.1-20.2,0.2-45,0.2s-45-0.1-45-0.2s20.2-0.2,45-0.2C1141.1,197,1161.2,197.1,1161.2,197.2
				z"/>
			<path class="st11" d="M1120.2,212.3c0,0.1-11,0.2-24.5,0.2s-24.5-0.1-24.5-0.2s11-0.2,24.5-0.2S1120.2,212.2,1120.2,212.3z"/>
			<path class="st8" d="M1114.1,294c0,1.1-0.9,1.9-2,1.9s-1.9-0.9-1.9-2s0.9-1.9,1.9-1.9C1113.3,292.1,1114.1,292.9,1114.1,294
				L1114.1,294z"/>
			<path class="st8" d="M1120,294c0,1.1-0.9,1.9-2,1.9s-1.9-0.9-1.9-2c0-1,0.9-1.9,1.9-1.9C1119.2,292.1,1120,292.9,1120,294
				L1120,294z"/>
			<path class="st8" d="M1126,294c0,1.1-0.9,1.9-2,1.9s-1.9-0.9-1.9-2c0-1,0.9-1.9,1.9-1.9C1125.1,292.1,1126,293,1126,294L1126,294
				z"/>
			<rect x="1065.9" y="111.3" class="st7" width="106.6" height="65.2"/>
			<polygon class="st6" points="1075.7,176.5 1106.2,135.6 1125.2,161.2 1138,147.5 1163.2,176.5 			"/>
			<path class="st6" d="M1133.2,130.6c0,3.8-3.1,6.9-6.9,6.9s-6.9-3.1-6.9-6.9c0-3.8,3.1-6.9,6.9-6.9l0,0
				C1130.1,123.7,1133.2,126.8,1133.2,130.6z"/>
			<path class="st8" d="M1172.1,237.1c0-1.4-0.1-60.3-0.2-147.4l0.2,0.2h-106.6l0,0l0.2-0.2c0,55.1,0,106.2,0,147.4l-0.1-0.1
				L1172.1,237.1l-106.5,0.1h-0.1v-0.1c0-41.3,0-92.3,0-147.4v-0.2h0.2h106.6h0.2v0.2c0,43.6-0.1,80.5-0.1,106.5c0,13,0,23.2,0,30.2
				c0,3.5,0,6.2,0,8c0,0.9,0,1.6,0,2.1S1172.1,237.1,1172.1,237.1z"/>
		</g>
		<g id="freepik--Megaphone--inject-35">
			<path class="st12" d="M1122,255.4l2.4-7.9c0.4-1.7,1-3.7,1.7-6.1c0.7-2.1,2.4-4.3,3.9-5.8c2.4-2.4,3.6-2.5,5.2-3.8
				c0.1-0.1,0.3-0.2,0.5-0.3c0.3-0.2,0.6-0.4,0.8-0.7c1.4-1.5,0.1-3.8-2.8-3.6c-2.1,0.2-5.6,0.8-11.3,6.6c-0.1,0.1-0.1,0.2-0.2,0.3
				c-3,3.9-5.8-7.1-6.3-11.2c-0.4-2.3-2.6-3.9-4.9-3.6c-0.3,0-0.6,0.1-0.9,0.2l-13.8,6.4c-1.3-0.4-2.7-0.3-4,0.1
				c-2,0.7-3.1,2.8-2.6,4.9l5.6,22.3l-16.4,54.6h35.3L1122,255.4z"/>
			<path class="st9" d="M1149.2,205.2l-10.9,21.4l-5.5-1.5l-27.5,22.3c-2.3,1.9-5.8,1.6-7.7-0.7l-10.5-12.1c0,0,21.1-9.1,25-16.6
				s-0.6-9.2-0.6-9.2l9.9-11.3L1149.2,205.2z"/>
			<path class="st9" d="M1135,161.5c0,0-16-3.5-38.5-25.2s-33.1-50.4-35.8-50.2c-2.7,0.2-14.8-5.4-37.7,44.3
				c-22.9,49.8-13.9,61.3-9.3,61.2s35.5-8.7,54.8-6.5s44.1,12.3,44.1,12.3L1135,161.5z"/>
			<path class="st9" d="M1169,188.6l-5.5,10.4l-2.4,4.7c-3.4,6.4-11.1,9-17.7,6l-34.3-11.9l20-45.6l34.2,18.3
				C1170,173.9,1172.5,182,1169,188.6z"/>
			<g class="st13">
				<path d="M1169,188.6l-5.5,10.4l-2.4,4.7c-3.4,6.4-11.1,9-17.7,6l-34.3-11.9l20-45.6l34.2,18.3C1170,173.9,1172.5,182,1169,188.6
					z"/>
			</g>
			<path class="st9" d="M1024.9,131.3c-12.2,27-17.2,51-11.3,53.7s20.6-17,32.8-44s17.2-51,11.3-53.7S1037.1,104.3,1024.9,131.3z"/>
			<g class="st14">
				<path d="M1024.9,131.3c-12.2,27-17.2,51-11.3,53.7s20.6-17,32.8-44s17.2-51,11.3-53.7S1037.1,104.3,1024.9,131.3z"/>
			</g>
			<polygon class="st9" points="1172,203.6 1162.7,200.7 1168.4,189.8 1175.4,194.1 			"/>
			<g class="st15">
				<polygon points="1168.4,189.8 1162.7,200.7 1164.6,201.3 1169.3,190.3 				"/>
			</g>
			<path class="st9" d="M1162,192.3c-0.1,0.3-4.8-1.5-10.4-4s-10-4.8-9.9-5.1s4.8,1.5,10.4,4S1162.2,192,1162,192.3z"/>
			<path class="st9" d="M1164.9,185.8c-0.1,0.3-4.3-1.5-9.4-4c-5-2.5-9-4.7-8.8-5c0.1-0.3,4.3,1.5,9.4,4
				C1161.1,183.2,1165,185.5,1164.9,185.8z"/>
			<path class="st9" d="M1158.4,199.1c0,0.2-1.2-0.1-2.9-0.7c-0.9-0.3-1.9-0.6-3.1-1s-2.3-1-3.6-1.6c-5.1-2.4-9-4.7-8.8-4.9
				s4.3,1.5,9.3,3.9c1.3,0.6,2.4,1.2,3.5,1.7s2.1,0.9,2.9,1.2C1157.4,198.4,1158.5,199,1158.4,199.1z"/>
			<path class="st9" d="M1049.7,125.3c0,0-13.9-8.6-21.5,10.2s7,21.9,7,21.9C1041.5,147.4,1046.4,136.6,1049.7,125.3z"/>
			<g class="st14">
				<path d="M1064.5,102.9c0.1,0-0.1,1.3-0.5,3.6c-0.4,2.3-1.1,5.6-2,9.7l-1.9,6.6c-0.4,1.2-0.7,2.4-1.1,3.7l-0.6,1.9
					c-0.2,0.7-0.5,1.3-0.7,1.9l-3.1,8.1c-0.3,0.7-0.6,1.4-0.8,2.1c-0.3,0.7-0.7,1.4-1,2.1l-2.1,4.3l-2.1,4.3c-0.4,0.7-0.7,1.4-1,2.1
					c-0.4,0.7-0.8,1.3-1.2,2l-4.4,7.5c-0.4,0.6-0.7,1.2-1.1,1.8l-1.2,1.6l-2.2,3.1l-4,5.6c-2.7,3.2-4.9,5.8-6.4,7.5
					c-0.8,1-1.6,1.8-2.5,2.7c0.6-1,1.3-2,2.1-2.9c1.5-1.9,3.6-4.5,6.1-7.8l3.8-5.6l2.1-3.1c0.4-0.5,0.7-1.1,1.1-1.6s0.7-1.2,1-1.8
					l4.4-7.5l1.1-2c0.4-0.7,0.7-1.3,1-2.1l2.1-4.2c0.7-1.4,1.4-2.8,2.1-4.2c0.3-0.7,0.7-1.4,1-2.1l0.8-2.1l3.2-8
					c0.2-0.7,0.5-1.3,0.7-1.9c0.2-0.6,0.4-1.3,0.6-1.9l1.1-3.6l2-6.5l2.3-9.6C1063.7,105.3,1064.1,104.1,1064.5,102.9z"/>
			</g>
			<g class="st13">
				<path d="M1090.5,233.2c1.3,2.3,2.6,4.7,4.4,6.5c1.9,1.8,4.4,3.1,7.1,2.8s5.1-2.4,5.1-5.1c1.3,0.9,3.2,0.4,4.2-0.7
					c1-1.2,1.4-2.8,1.5-4.4c1.7,1,4.1,0.2,5.2-1.4c1.1-1.7,1.3-3.8,0.7-5.7c-0.6-1.9-1.6-3.6-2.7-5.2c1.3,0.1,2.7,0.2,3.9-0.4
					c1.2-0.6,2-2.2,1.3-3.3c-0.5-0.6-1.1-1.1-1.9-1.2c-2.1-0.7-3.5-1.2-5.6-0.9c-0.5,0,0.9,5.7-12.6,13.4
					C1093.1,232.1,1090.5,233.2,1090.5,233.2z"/>
			</g>
			<path class="st16" d="M1120.8,241.3c0,0.1-0.9-0.1-2.4-0.1c-3.8,0.1-7.4,1.8-9.9,4.7c-0.9,1.1-1.3,1.9-1.4,1.9
				c0.1-0.2,0.1-0.4,0.3-0.6c0.3-0.5,0.6-1,1-1.5c2.4-3.1,6.1-4.9,10.1-4.8c0.6,0,1.2,0.1,1.7,0.2
				C1120.4,241.2,1120.6,241.2,1120.8,241.3z"/>
			<path class="st12" d="M1091.4,229.6c2.2,2.1,3.6,4.4,5.9,6.5c1,1,2.7,2.8,4,3s2.3,0.1,2.8-1.2c0.4-1-0.4-2.5-0.9-3.3
				c-1.4-2.3-2.8-4-3.9-5.8c-0.5-0.8,0.1-1,0.4-0.6c1,1.1,2.6,2,3.5,3.2c1.3,1.6,1.5,3.7,4.9,3.1c0.4-0.1,0.9-0.2,1.2-0.5
				c1.3-1,1.3-2.7,0.8-4c-0.5-1-1.1-2-1.9-2.8c1.4,1.6,3,3.3,5.2,3.5c1.3,0.2,2.6-0.5,3.2-1.7c0.7-1.5-0.3-3-1.3-4.2
				c-1.7-2.1-3.6-4.1-5.7-5.8c-0.8-0.6-1.7-1-2.8-1c-1.2,0-2.7,0.2-3.3,1.2c-0.8,1-1.1,2.2-0.9,3.5c0,0-2.9-1.5-5.3,0.1
				c-1.5,1-2.5,2.5-2.9,4.2L1091.4,229.6z"/>
			<path class="st12" d="M1107,217.1c-1-1.1-1.1-2.7-0.4-4c0.5-1,1.1-1.9,1.8-2.1c2.8-0.9,15,1.2,14.9,3.9s-1,4-7.6,3
				c-1.2-0.2-3-0.4-3-0.4l-1.6,2.4L1107,217.1z"/>
			<path class="st16" d="M1109.2,228.4c-1.6-2.6-3.9-4.8-6.7-6.1c0.5,0.1,0.9,0.2,1.3,0.5c2,1,3.7,2.5,4.9,4.4
				C1108.9,227.6,1109.1,228,1109.2,228.4z"/>
			<path class="st16" d="M1111.2,220.1c-0.1,0.1-0.9-0.6-2-1.3c-0.5-0.3-0.9-0.6-1.4-0.8c-0.4-0.2-0.6-0.2-0.6-0.3s0.3-0.1,0.7,0
				c0.5,0.2,1.1,0.4,1.5,0.7C1110.6,219.2,1111.3,220,1111.2,220.1z"/>
			<path class="st16" d="M1113.3,217.6c-0.8,0.1-1.6,0-2.4-0.3c-0.6-0.2-1.1-0.4-1.5-0.8c-0.3-0.3-0.5-0.5-0.4-0.6
				c0.6,0.4,1.3,0.8,2,1C1111.8,217.1,1112.6,217.3,1113.3,217.6z"/>
			<path class="st16" d="M1101.4,231.8c-0.4-0.4-0.8-0.9-1.1-1.4c-0.8-1.2-1.7-2.3-2.8-3.2c-1.2-0.9-2.6-1.2-4-1.1
				c-0.6,0.1-1.2,0.3-1.7,0.5c0,0,0.1-0.1,0.4-0.3c0.4-0.2,0.8-0.4,1.3-0.5c1.5-0.2,3,0.1,4.3,1c1.2,0.9,2.1,2.1,2.9,3.4
				C1100.9,230.7,1101.2,231.2,1101.4,231.8z"/>
			<path class="st16" d="M1110.8,258.8c-1.6,0.3-3.3,0.6-5,0.7c-1.7,0.2-3.3,0.4-5,0.4c1.6-0.3,3.3-0.6,5-0.7
				C1107.4,258.9,1109.1,258.8,1110.8,258.8z"/>
		</g>
		<g id="freepik--Stars--inject-35">
			<polygon class="st9" points="1215.7,37.2 1216.5,38.5 1217.9,39.3 1216.5,40 1215.7,41.4 1215,40 1213.6,39.3 1215,38.5 			"/>
			<polygon class="st9" points="1231.5,71.3 1232.2,72.6 1233.6,73.4 1232.2,74.1 1231.5,75.5 1230.7,74.1 1229.3,73.4 1230.7,72.6 
							"/>
			<polygon class="st9" points="979.4,162.2 980.1,163.6 981.5,164.4 980.1,165.1 979.4,166.5 978.6,165.1 977.3,164.4 978.6,163.6 
							"/>
			<polygon class="st9" points="1195.1,45.6 1196.8,48.8 1200,50.6 1196.8,52.3 1195.1,55.5 1193.4,52.3 1190.2,50.6 1193.4,48.8 
							"/>
			<polygon class="st9" points="993.5,140.6 995.2,143.8 998.4,145.5 995.2,147.3 993.5,150.4 991.7,147.3 988.6,145.5 991.7,143.8 
							"/>
			<polygon class="st9" points="1235.7,216.2 1237.5,219.4 1240.6,221.1 1237.5,222.9 1235.7,226 1234,222.9 1230.8,221.1 
				1234,219.4 			"/>
		</g>
	</g>
</g>
<path class="st17" d="M200,148.5h19v5.9h-26v-38.5h24.9v5.9H200v10h15.4v5.9H200V148.5z"/>
<path class="st17" d="M237.9,146.3c0-0.6-0.2-1.1-0.5-1.5s-0.8-0.7-1.3-1c-0.6-0.3-1.2-0.5-1.9-0.7s-1.5-0.4-2.3-0.6
	c-1-0.3-2-0.6-2.9-0.9c-0.9-0.4-1.7-0.8-2.4-1.4c-0.7-0.6-1.3-1.3-1.7-2.2s-0.6-1.9-0.6-3.2c0-1.6,0.3-2.9,0.8-4
	c0.6-1.1,1.3-2.1,2.3-2.8c1-0.7,2.1-1.3,3.3-1.7c1.3-0.4,2.6-0.5,4-0.5c1.7,0,3.3,0.1,4.8,0.4s2.8,0.6,4.1,1.1v5.6
	c-0.6-0.2-1.3-0.4-2-0.6c-0.7-0.2-1.4-0.3-2.1-0.5c-0.7-0.1-1.4-0.2-2.1-0.3c-0.7-0.1-1.4-0.1-2-0.1c-0.8,0-1.5,0.1-2,0.2
	c-0.6,0.2-1,0.4-1.4,0.6c-0.3,0.3-0.6,0.6-0.7,0.9c-0.2,0.3-0.2,0.7-0.2,1c0,0.6,0.2,1.2,0.5,1.6c0.3,0.4,0.8,0.7,1.4,1
	c0.6,0.2,1.2,0.5,1.9,0.6c0.7,0.2,1.3,0.3,1.9,0.5c1,0.2,1.9,0.5,2.9,0.8s1.8,0.8,2.6,1.4c0.8,0.6,1.4,1.3,1.9,2.3
	c0.5,0.9,0.7,2.1,0.7,3.6c0,1.6-0.3,2.9-0.9,4.1c-0.6,1.2-1.4,2.1-2.5,2.9c-1.1,0.8-2.3,1.4-3.8,1.7c-1.5,0.4-3.1,0.6-4.9,0.6
	c-1.8,0-3.4-0.1-4.8-0.4c-1.4-0.3-2.6-0.6-3.5-1v-5.5c1.5,0.6,2.9,0.9,4.1,1.1c1.3,0.2,2.4,0.3,3.5,0.3c0.8,0,1.6-0.1,2.4-0.2
	c0.7-0.1,1.4-0.3,1.9-0.6s0.9-0.6,1.3-1C237.8,147.4,237.9,146.9,237.9,146.3z"/>
<path class="st17" d="M267.6,154.4c-0.8,0.2-1.7,0.4-2.7,0.5c-1.1,0.1-2.1,0.2-3,0.2c-2.3,0-4.3-0.4-5.7-1.1
	c-1.5-0.8-2.5-1.8-3.1-3.3c-0.4-1-0.7-2.4-0.7-4.1v-14.4h-5.2v-5.6h5.2v-7.8h6.8v7.8h8.1v5.6h-8.1v13.5c0,1.1,0.2,1.9,0.5,2.4
	c0.6,0.9,1.7,1.3,3.4,1.3c0.8,0,1.6-0.1,2.3-0.2c0.8-0.1,1.5-0.3,2.2-0.5L267.6,154.4L267.6,154.4z"/>
<path class="st17" d="M287.2,149.6c1.3,0,2.7-0.1,4.1-0.4c1.4-0.3,2.9-0.7,4.4-1.2v5.4c-0.9,0.4-2.2,0.7-4.1,1.1
	c-1.8,0.3-3.7,0.5-5.7,0.5s-3.9-0.3-5.6-0.8c-1.8-0.5-3.3-1.3-4.6-2.5c-1.3-1.1-2.4-2.6-3.1-4.4c-0.8-1.8-1.2-4-1.2-6.6
	c0-2.5,0.4-4.7,1.1-6.6c0.7-1.9,1.7-3.5,2.9-4.7c1.2-1.2,2.6-2.2,4.2-2.8c1.6-0.6,3.2-0.9,4.9-0.9c1.8,0,3.4,0.3,4.9,0.8
	s2.8,1.4,3.9,2.5c1.1,1.2,1.9,2.6,2.5,4.4c0.6,1.8,0.9,4,0.9,6.4c0,1,0,1.8-0.1,2.4h-18.3c0.1,1.3,0.4,2.4,0.9,3.3
	c0.5,0.9,1.1,1.6,1.9,2.2c0.8,0.6,1.7,1,2.7,1.2C284.9,149.5,286,149.6,287.2,149.6z M284.5,131.2c-0.9,0-1.6,0.2-2.3,0.5
	c-0.7,0.3-1.3,0.7-1.7,1.3s-0.9,1.2-1.2,1.9c-0.3,0.7-0.5,1.5-0.6,2.3h11c0-0.8-0.1-1.6-0.3-2.3c-0.2-0.7-0.5-1.4-1-1.9
	s-1-1-1.6-1.3C286.1,131.3,285.4,131.2,284.5,131.2z"/>
<path class="st17" d="M329.6,149.6c1.3,0,2.7-0.1,4.1-0.4c1.4-0.3,2.9-0.7,4.4-1.2v5.4c-0.9,0.4-2.2,0.7-4.1,1.1
	c-1.8,0.3-3.7,0.5-5.7,0.5s-3.9-0.3-5.6-0.8c-1.8-0.5-3.3-1.3-4.6-2.5c-1.3-1.1-2.4-2.6-3.1-4.4c-0.8-1.8-1.2-4-1.2-6.6
	c0-2.5,0.4-4.7,1.1-6.6c0.7-1.9,1.7-3.5,2.9-4.7c1.2-1.2,2.6-2.2,4.2-2.8c1.6-0.6,3.2-0.9,4.9-0.9c1.8,0,3.4,0.3,4.9,0.8
	s2.8,1.4,3.9,2.5c1.1,1.2,1.9,2.6,2.5,4.4c0.6,1.8,0.9,4,0.9,6.4c0,1,0,1.8-0.1,2.4h-18.3c0.1,1.3,0.4,2.4,0.9,3.3
	c0.5,0.9,1.1,1.6,1.9,2.2c0.8,0.6,1.7,1,2.7,1.2S328.4,149.6,329.6,149.6z M326.9,131.2c-0.9,0-1.6,0.2-2.3,0.5
	c-0.7,0.3-1.3,0.7-1.7,1.3c-0.5,0.5-0.9,1.2-1.2,1.9c-0.3,0.7-0.5,1.5-0.6,2.3h11c0-0.8-0.1-1.6-0.3-2.3c-0.2-0.7-0.5-1.4-1-1.9
	s-1-1-1.6-1.3C328.5,131.3,327.7,131.2,326.9,131.2z"/>
<path class="st17" d="M357.8,146.3c0-0.6-0.2-1.1-0.5-1.5s-0.8-0.7-1.3-1c-0.6-0.3-1.2-0.5-1.9-0.7c-0.7-0.2-1.5-0.4-2.3-0.6
	c-1-0.3-2-0.6-2.9-0.9c-0.9-0.4-1.7-0.8-2.4-1.4c-0.7-0.6-1.3-1.3-1.7-2.2c-0.4-0.9-0.6-1.9-0.6-3.2c0-1.6,0.3-2.9,0.8-4
	c0.6-1.1,1.3-2.1,2.3-2.8c0.9-0.7,2.1-1.3,3.3-1.7c1.3-0.4,2.6-0.5,4-0.5c1.7,0,3.3,0.1,4.8,0.4s2.8,0.6,4.1,1.1v5.6
	c-0.6-0.2-1.3-0.4-2-0.6c-0.7-0.2-1.4-0.3-2.1-0.5c-0.7-0.1-1.4-0.2-2.1-0.3s-1.4-0.1-2-0.1c-0.8,0-1.5,0.1-2,0.2
	c-0.6,0.2-1,0.4-1.4,0.6s-0.6,0.6-0.7,0.9c-0.2,0.3-0.2,0.7-0.2,1c0,0.6,0.2,1.2,0.5,1.6c0.3,0.4,0.8,0.7,1.4,1
	c0.6,0.2,1.2,0.5,1.9,0.6c0.7,0.2,1.3,0.3,1.9,0.5c1,0.2,1.9,0.5,2.9,0.8s1.8,0.8,2.6,1.4c0.8,0.6,1.4,1.3,1.9,2.3
	c0.5,0.9,0.7,2.1,0.7,3.6c0,1.6-0.3,2.9-0.9,4.1c-0.6,1.2-1.4,2.1-2.5,2.9c-1.1,0.8-2.3,1.4-3.8,1.7c-1.5,0.4-3.1,0.6-4.9,0.6
	s-3.4-0.1-4.8-0.4c-1.4-0.3-2.6-0.6-3.5-1v-5.5c1.5,0.6,2.9,0.9,4.1,1.1c1.3,0.2,2.4,0.3,3.5,0.3c0.8,0,1.6-0.1,2.4-0.2
	c0.7-0.1,1.4-0.3,1.9-0.6s0.9-0.6,1.3-1C357.6,147.4,357.8,146.9,357.8,146.3z"/>
<path class="st17" d="M384.4,155.1c-1.5,0-2.9-0.3-4.1-0.8s-2.2-1.2-3-2h-0.1c0,0.4,0,0.9,0.1,1.6c0,0.7,0,1.5,0,2.3v11.6h-6.8
	v-41.3h6l0.3,3.1h0.1c0.8-1.1,1.9-2,3.3-2.7c1.3-0.7,2.9-1.1,4.6-1.1c1.5,0,3,0.3,4.5,0.8c1.5,0.6,2.8,1.4,3.9,2.6s2,2.6,2.7,4.4
	c0.7,1.8,1,3.9,1,6.4c0,2.6-0.4,4.8-1.1,6.7s-1.7,3.5-2.9,4.7c-1.2,1.2-2.5,2.2-4,2.7C387.4,154.8,385.9,155.1,384.4,155.1z
	 M383.5,131.3c-1.2,0-2.3,0.3-3.4,0.9c-1.1,0.6-2,1.3-2.8,2.3v12.4c0.3,0.3,0.6,0.7,1,1s0.9,0.6,1.4,0.9c0.5,0.3,1,0.5,1.7,0.7
	c0.6,0.2,1.2,0.3,1.9,0.3c1.1,0,2-0.2,2.8-0.7s1.5-1.1,2.1-1.9c0.5-0.8,1-1.8,1.3-2.9c0.3-1.1,0.4-2.4,0.4-3.8
	c0-1.5-0.1-2.8-0.4-3.9c-0.3-1.1-0.7-2.1-1.3-2.8c-0.5-0.7-1.2-1.3-2-1.7C385.3,131.5,384.4,131.3,383.5,131.3z"/>
<path class="st17" d="M419.2,151.5h-0.1c-0.4,0.4-0.8,0.8-1.4,1.2c-0.5,0.4-1.2,0.8-1.8,1.2c-0.7,0.4-1.5,0.7-2.3,0.9
	s-1.8,0.3-2.7,0.3c-1.3,0-2.6-0.2-3.7-0.6c-1.2-0.4-2.1-1-3-1.8c-0.8-0.8-1.5-1.7-1.9-2.8c-0.5-1.1-0.7-2.3-0.7-3.7
	c0-1.5,0.3-2.8,0.8-4s1.3-2.2,2.3-3s2.1-1.5,3.5-1.9s2.9-0.6,4.5-0.6c1.2,0,2.3,0.1,3.3,0.2c1,0.2,1.9,0.3,2.7,0.5v-1.1
	c0-0.7-0.1-1.3-0.3-1.9c-0.2-0.6-0.6-1.1-1.1-1.6s-1.1-0.8-1.9-1.1s-1.7-0.4-2.9-0.4c-1.4,0-2.8,0.2-4.1,0.5
	c-1.4,0.3-2.9,0.8-4.5,1.4v-5.3c1.4-0.6,2.9-1.1,4.5-1.4s3.2-0.5,4.9-0.5c2,0,3.8,0.2,5.3,0.7s2.8,1.2,3.8,2.1
	c1,0.9,1.8,1.9,2.3,3.1c0.5,1.2,0.8,2.5,0.8,3.9v10.5c0,1.8,0,3.4,0.1,4.7c0,1.3,0.1,2.5,0.1,3.5h-6.2L419.2,151.5z M418.6,142.5
	c-0.7-0.2-1.4-0.3-2.2-0.4c-0.8-0.1-1.7-0.2-2.6-0.2c-1.7,0-3,0.3-4,1s-1.5,1.7-1.5,3c0,0.6,0.1,1.2,0.3,1.7
	c0.2,0.5,0.5,0.9,0.9,1.2s0.8,0.5,1.3,0.7s1,0.2,1.6,0.2c0.7,0,1.3-0.1,2-0.3c0.6-0.2,1.2-0.4,1.7-0.7s1-0.6,1.4-0.9
	c0.4-0.3,0.8-0.7,1-1v-4.3H418.6z"/>
<path class="st17" d="M441.4,154.6c-1.4-0.4-2.7-0.9-3.9-1.7c-1.2-0.7-2.2-1.7-3.1-2.8s-1.5-2.5-2-4s-0.7-3.2-0.7-5.2
	c0-2.7,0.4-5,1.3-6.9s2-3.5,3.4-4.7s2.9-2.1,4.6-2.6s3.4-0.8,5-0.8c1.2,0,2.4,0.1,3.6,0.3c1.2,0.2,2.2,0.5,3.1,0.9v5.6
	c-0.8-0.4-1.7-0.7-2.7-0.9c-0.9-0.2-2-0.3-3.1-0.3s-2.1,0.2-3.1,0.5s-1.9,0.9-2.6,1.6c-0.8,0.7-1.4,1.7-1.8,2.9
	c-0.5,1.2-0.7,2.6-0.7,4.4c0,1.2,0.2,2.4,0.5,3.5s0.8,2,1.5,2.8s1.5,1.4,2.6,1.9c1,0.5,2.2,0.7,3.6,0.7c1.2,0,2.4-0.1,3.4-0.4
	c1.1-0.3,2-0.6,2.8-0.9v5.6c-0.8,0.3-1.9,0.7-3.1,0.9c-1.2,0.3-2.6,0.4-4,0.4h-0.5l-0.7,2.7c0.8,0.1,1.5,0.3,2.1,0.6
	c0.7,0.3,1.2,0.6,1.7,1s0.9,0.9,1.1,1.4c0.3,0.5,0.4,1.2,0.4,1.8c0,0.8-0.2,1.6-0.6,2.3s-0.9,1.3-1.7,1.9c-0.7,0.5-1.7,1-2.8,1.3
	c-1.1,0.3-2.4,0.5-3.8,0.5c-0.7,0-1.5-0.1-2.3-0.2c-0.8-0.1-1.4-0.2-1.8-0.4v-4.2c0.5,0.2,1.1,0.3,1.8,0.4c0.7,0.1,1.3,0.1,1.9,0.1
	c0.7,0,1.3-0.1,1.9-0.2c0.5-0.1,0.9-0.3,1.2-0.4c0.3-0.2,0.5-0.4,0.6-0.6c0.1-0.2,0.2-0.4,0.2-0.6c0-0.6-0.4-1-1.3-1.3
	s-2.1-0.5-3.9-0.5L441.4,154.6z"/>
<path class="st17" d="M485.7,140.5c0,2.2-0.3,4.2-1,6s-1.6,3.3-2.8,4.6c-1.2,1.3-2.7,2.3-4.4,3c-1.7,0.7-3.7,1-5.8,1
	c-2.2,0-4.1-0.3-5.9-1c-1.7-0.7-3.2-1.7-4.4-3c-1.2-1.3-2.1-2.8-2.8-4.6c-0.6-1.8-1-3.8-1-6s0.3-4.2,1-6s1.6-3.3,2.8-4.6
	c1.2-1.3,2.7-2.3,4.4-3c1.7-0.7,3.7-1,5.8-1c2.2,0,4.1,0.3,5.9,1c1.7,0.7,3.2,1.7,4.4,3c1.2,1.3,2.1,2.8,2.8,4.6
	C485.3,136.3,485.7,138.3,485.7,140.5z M478.6,140.5c0-1.5-0.2-2.8-0.5-3.9c-0.3-1.1-0.8-2.1-1.4-2.8c-0.6-0.8-1.4-1.3-2.2-1.7
	c-0.9-0.4-1.8-0.6-2.8-0.6s-1.9,0.2-2.8,0.6c-0.9,0.4-1.6,1-2.2,1.7c-0.6,0.8-1.1,1.7-1.4,2.8s-0.5,2.4-0.5,3.9s0.2,2.8,0.5,3.9
	c0.3,1.1,0.8,2.1,1.5,2.8c0.6,0.8,1.4,1.3,2.2,1.7c0.9,0.4,1.8,0.6,2.8,0.6s1.9-0.2,2.8-0.6c0.8-0.4,1.6-1,2.2-1.7
	c0.6-0.8,1.1-1.7,1.4-2.8C478.4,143.3,478.6,142,478.6,140.5z"/>
<path class="st17" d="M517.8,155.1c-1.5,0-2.9-0.3-4.1-0.8c-1.2-0.5-2.2-1.2-3-2h-0.1c0,0.4,0,0.9,0.1,1.6c0,0.7,0,1.5,0,2.3v11.6
	h-6.8v-41.3h6l0.3,3.1h0.1c0.8-1.1,1.9-2,3.3-2.7c1.3-0.7,2.9-1.1,4.6-1.1c1.5,0,3,0.3,4.5,0.8c1.5,0.6,2.8,1.4,3.9,2.6
	c1.1,1.2,2,2.6,2.7,4.4c0.7,1.8,1,3.9,1,6.4c0,2.6-0.4,4.8-1.1,6.7c-0.7,1.9-1.7,3.5-2.9,4.7s-2.5,2.2-4,2.7
	C520.8,154.8,519.3,155.1,517.8,155.1z M516.9,131.3c-1.2,0-2.3,0.3-3.4,0.9c-1.1,0.6-2,1.3-2.8,2.3v12.4c0.3,0.3,0.6,0.7,1,1
	c0.4,0.3,0.9,0.6,1.4,0.9c0.5,0.3,1,0.5,1.7,0.7s1.2,0.3,1.9,0.3c1.1,0,2-0.2,2.8-0.7s1.5-1.1,2.1-1.9c0.5-0.8,1-1.8,1.3-2.9
	c0.3-1.1,0.4-2.4,0.4-3.8c0-1.5-0.1-2.8-0.4-3.9c-0.3-1.1-0.7-2.1-1.3-2.8c-0.5-0.7-1.2-1.3-2-1.7
	C518.7,131.5,517.8,131.3,516.9,131.3z"/>
<path class="st17" d="M548.6,155.1c-2.8,0-5.1-0.5-7-1.4s-3.2-2.2-4.2-3.8c-0.5-0.9-0.9-1.8-1.1-2.8c-0.2-1-0.4-2.2-0.4-3.5v-17h6.8
	v16.3c0,0.9,0.1,1.8,0.2,2.4c0.1,0.7,0.3,1.3,0.6,1.8c0.5,0.8,1.1,1.5,2,1.9c0.8,0.4,1.9,0.6,3,0.6c1.2,0,2.3-0.2,3.1-0.7
	c0.9-0.5,1.5-1.2,2-2.1c0.4-0.9,0.7-2.2,0.7-3.8v-16.5h6.8v17c0,2.3-0.4,4.2-1.2,5.7c-0.4,0.9-1,1.7-1.7,2.4s-1.5,1.3-2.5,1.8
	c-0.9,0.5-2,0.9-3.2,1.2C551.4,155,550,155.1,548.6,155.1z"/>
<path class="st17" d="M595.1,140c0,2.5-0.4,4.7-1.1,6.7c-0.7,1.9-1.7,3.5-2.9,4.8c-1.2,1.2-2.5,2.2-4,2.8s-3,0.9-4.5,0.9
	c-1.1,0-2-0.1-2.8-0.4c-0.8-0.3-1.6-0.6-2.2-1c-0.6-0.4-1.2-0.8-1.6-1.2c-0.4-0.4-0.8-0.8-1-1.1h-0.1l-0.7,3h-5.6
	c0-0.8,0.1-1.8,0.1-3.1c0-1.2,0-2.4,0-3.5v-35.1h6.8v11.6c0,0.8,0,1.6,0,2.3c0,0.7,0,1.2,0,1.6h0.1c0.4-0.3,0.9-0.6,1.4-0.9
	s1.1-0.5,1.7-0.8c0.6-0.2,1.3-0.4,2-0.5s1.5-0.2,2.2-0.2c1.6,0,3.1,0.3,4.5,0.8c1.5,0.6,2.8,1.4,3.9,2.6c1.1,1.2,2,2.6,2.7,4.5
	C594.8,135.6,595.1,137.6,595.1,140z M588.1,140.4c0-1.7-0.2-3.2-0.6-4.5c-0.4-1.3-1-2.2-1.7-2.9s-1.4-1.1-2.1-1.3
	c-0.7-0.2-1.5-0.3-2.2-0.3c-1,0-2,0.2-3,0.6s-2,0.9-2.8,1.6v13.3c0.3,0.3,0.6,0.6,1,1c0.4,0.3,0.8,0.6,1.3,0.9
	c0.5,0.3,1,0.5,1.6,0.7s1.2,0.3,1.8,0.3c1.1,0,2.1-0.2,2.9-0.7c0.8-0.5,1.5-1.1,2.1-1.9c0.6-0.8,1-1.8,1.3-2.9
	C587.9,143,588.1,141.8,588.1,140.4z"/>
<path class="st17" d="M601.5,154.4v-41.7h6.8v41.7H601.5z"/>
<path class="st17" d="M616,112.8h7.2v7.4H616V112.8z M616.2,126.5h6.8v27.9h-6.8V126.5z"/>
<path class="st17" d="M650.8,153.8c-0.9,0.4-1.9,0.7-3.2,0.9c-1.2,0.3-2.6,0.4-3.9,0.4c-2,0-3.9-0.3-5.6-0.9
	c-1.7-0.6-3.3-1.4-4.6-2.6c-1.3-1.2-2.3-2.7-3.1-4.4c-0.7-1.8-1.1-3.9-1.1-6.3c0-2.7,0.4-5,1.3-6.9c0.9-1.9,2-3.5,3.4-4.7
	s2.9-2.1,4.6-2.6c1.7-0.6,3.4-0.8,5.1-0.8c1.2,0,2.4,0.1,3.6,0.3c1.2,0.2,2.2,0.5,3.1,0.9v5.6c-0.8-0.4-1.7-0.7-2.7-0.9
	c-0.9-0.2-2-0.3-3.1-0.3s-2.1,0.2-3.1,0.5s-1.9,0.9-2.6,1.6c-0.8,0.7-1.4,1.7-1.8,2.9c-0.5,1.2-0.7,2.6-0.7,4.3
	c0,1.2,0.2,2.4,0.5,3.5s0.8,2,1.5,2.8s1.5,1.4,2.5,1.9s2.2,0.7,3.6,0.7c1.2,0,2.4-0.1,3.4-0.4c1-0.2,2-0.6,2.9-0.9L650.8,153.8
	L650.8,153.8z"/>
<path class="st17" d="M656.7,112.8h7.2v7.4h-7.2V112.8z M656.8,126.5h6.8v27.9h-6.8V126.5z"/>
<path class="st17" d="M688.3,154.4c-0.8,0.2-1.7,0.4-2.7,0.5c-1.1,0.1-2.1,0.2-3,0.2c-2.3,0-4.3-0.4-5.7-1.1
	c-1.5-0.8-2.5-1.8-3.1-3.3c-0.4-1-0.7-2.4-0.7-4.1v-14.4h-5.2v-5.6h5.2v-7.8h6.8v7.8h8.1v5.6h-8.1v13.5c0,1.1,0.2,1.9,0.5,2.4
	c0.6,0.9,1.7,1.3,3.4,1.3c0.8,0,1.6-0.1,2.3-0.2c0.8-0.1,1.5-0.3,2.2-0.5V154.4z"/>
<path class="st17" d="M710,151.5L710,151.5c-0.5,0.4-0.9,0.8-1.5,1.2c-0.5,0.4-1.2,0.8-1.8,1.2s-1.5,0.7-2.3,0.9s-1.8,0.3-2.7,0.3
	c-1.3,0-2.6-0.2-3.7-0.6c-1.2-0.4-2.1-1-3-1.8c-0.8-0.8-1.5-1.7-1.9-2.8c-0.5-1.1-0.7-2.3-0.7-3.7c0-1.5,0.3-2.8,0.8-4
	s1.3-2.2,2.3-3s2.1-1.5,3.5-1.9s2.9-0.6,4.5-0.6c1.2,0,2.3,0.1,3.3,0.2c1,0.2,1.9,0.3,2.7,0.5v-1.1c0-0.7-0.1-1.3-0.3-1.9
	c-0.2-0.6-0.6-1.1-1.1-1.6s-1.1-0.8-1.9-1.1c-0.8-0.3-1.7-0.4-2.9-0.4c-1.4,0-2.8,0.2-4.1,0.5c-1.4,0.3-2.9,0.8-4.5,1.4v-5.3
	c1.4-0.6,2.9-1.1,4.5-1.4s3.2-0.5,4.9-0.5c2,0,3.8,0.2,5.3,0.7s2.8,1.2,3.8,2.1c1,0.9,1.8,1.9,2.3,3.1c0.5,1.2,0.8,2.5,0.8,3.9v10.5
	c0,1.8,0,3.4,0.1,4.7c0,1.3,0.1,2.5,0.1,3.5h-6.2L710,151.5z M709.5,142.5c-0.7-0.2-1.4-0.3-2.2-0.4c-0.8-0.1-1.7-0.2-2.6-0.2
	c-1.7,0-3,0.3-4,1s-1.5,1.7-1.5,3c0,0.6,0.1,1.2,0.3,1.7s0.5,0.9,0.9,1.2s0.8,0.5,1.3,0.7s1,0.2,1.6,0.2c0.7,0,1.3-0.1,2-0.3
	c0.6-0.2,1.2-0.4,1.7-0.7s1-0.6,1.4-0.9c0.4-0.3,0.8-0.7,1-1L709.5,142.5L709.5,142.5z M711.6,112l-4.7,10h-5.3l3.4-10H711.6z"/>
<path class="st17" d="M740.5,132H740c-2.1,0-3.9,0.3-5.5,0.9c-1.6,0.6-2.8,1.6-3.7,2.9v18.7H724v-27.9h5.6l0.6,3.9h0.1
	c0.8-1.4,1.9-2.5,3.3-3.4c1.4-0.8,3.1-1.2,5.1-1.2c0.7,0,1.3,0,1.8,0.1L740.5,132L740.5,132z"/>
<path class="st17" d="M744.6,112.8h7.2v7.4h-7.2V112.8z M744.7,126.5h6.8v27.9h-6.8V126.5z"/>
<path class="st17" d="M785.8,140.5c0,2.2-0.3,4.2-1,6s-1.6,3.3-2.8,4.6s-2.7,2.3-4.4,3s-3.7,1-5.8,1c-2.2,0-4.1-0.3-5.9-1
	c-1.7-0.7-3.2-1.7-4.4-3s-2.1-2.8-2.8-4.6c-0.6-1.8-1-3.8-1-6s0.3-4.2,1-6s1.6-3.3,2.8-4.6s2.7-2.3,4.4-3s3.7-1,5.8-1
	c2.2,0,4.1,0.3,5.9,1c1.7,0.7,3.2,1.7,4.4,3s2.1,2.8,2.8,4.6S785.8,138.3,785.8,140.5z M778.7,140.5c0-1.5-0.2-2.8-0.5-3.9
	c-0.3-1.1-0.8-2.1-1.4-2.8c-0.6-0.8-1.4-1.3-2.2-1.7c-0.9-0.4-1.8-0.6-2.8-0.6s-1.9,0.2-2.8,0.6c-0.9,0.4-1.6,1-2.2,1.7
	c-0.6,0.8-1.1,1.7-1.4,2.8c-0.3,1.1-0.5,2.4-0.5,3.9s0.2,2.8,0.5,3.9c0.3,1.1,0.8,2.1,1.5,2.8c0.6,0.8,1.4,1.3,2.2,1.7
	c0.9,0.4,1.8,0.6,2.8,0.6s1.9-0.2,2.8-0.6c0.8-0.4,1.6-1,2.2-1.7c0.6-0.8,1.1-1.7,1.4-2.8C778.6,143.3,778.7,142,778.7,140.5z"/>
<path class="st17" d="M822.5,155c-1.5,0-2.9-0.3-4.1-0.8c-1.2-0.5-2.2-1.2-3-2h-0.1c0,0.4,0,0.9,0.1,1.6c0,0.7,0,1.5,0,2.3v11.6
	h-6.8v-41.3h6l0.3,3.1h0.1c0.8-1.1,1.9-2,3.3-2.7c1.3-0.7,2.9-1.1,4.6-1.1c1.5,0,3,0.3,4.5,0.8c1.5,0.6,2.8,1.4,3.9,2.6
	c1.1,1.2,2,2.6,2.7,4.4c0.7,1.8,1,3.9,1,6.4c0,2.6-0.4,4.8-1.1,6.7c-0.7,1.9-1.7,3.5-2.9,4.7s-2.5,2.2-4,2.7
	C825.5,154.7,824.1,155,822.5,155z M821.6,131.2c-1.2,0-2.3,0.3-3.4,0.9c-1.1,0.6-2,1.3-2.8,2.3v12.4c0.3,0.3,0.6,0.7,1,1
	s0.9,0.6,1.4,0.9c0.5,0.3,1,0.5,1.7,0.7c0.6,0.2,1.2,0.3,1.9,0.3c1.1,0,2-0.2,2.8-0.7s1.5-1.1,2.1-1.9c0.5-0.8,1-1.8,1.3-2.9
	c0.3-1.1,0.4-2.4,0.4-3.8c0-1.5-0.1-2.8-0.4-3.9c-0.3-1.1-0.7-2.1-1.3-2.8c-0.5-0.7-1.2-1.3-2-1.7
	C823.4,131.4,822.6,131.2,821.6,131.2z"/>
<path class="st17" d="M867.5,140.4c0,2.2-0.3,4.2-1,6s-1.6,3.3-2.8,4.6s-2.7,2.3-4.4,3s-3.7,1-5.8,1c-2.2,0-4.1-0.4-5.9-1
	c-1.7-0.7-3.2-1.7-4.4-3s-2.1-2.8-2.8-4.6c-0.6-1.8-1-3.8-1-6s0.3-4.2,1-6s1.6-3.3,2.8-4.6s2.7-2.3,4.4-3s3.7-1,5.8-1
	c2.2,0,4.1,0.4,5.9,1c1.7,0.7,3.2,1.7,4.4,3s2.1,2.8,2.8,4.6S867.5,138.2,867.5,140.4z M860.5,140.4c0-1.5-0.2-2.8-0.5-3.9
	c-0.3-1.1-0.8-2.1-1.4-2.8c-0.6-0.8-1.4-1.3-2.2-1.7s-1.8-0.6-2.8-0.6s-1.9,0.2-2.8,0.6c-0.9,0.4-1.6,1-2.2,1.7
	c-0.6,0.8-1.1,1.7-1.4,2.8c-0.3,1.1-0.5,2.4-0.5,3.9s0.2,2.8,0.5,3.9c0.3,1.1,0.8,2.1,1.5,2.8c0.6,0.8,1.4,1.3,2.2,1.7
	c0.9,0.4,1.8,0.6,2.8,0.6s1.9-0.2,2.8-0.6c0.8-0.4,1.6-1,2.2-1.7c0.6-0.8,1.1-1.7,1.4-2.8C860.3,143.1,860.5,141.8,860.5,140.4z"/>
<path class="st17" d="M872.1,140.9c0-2.4,0.3-4.6,1-6.5s1.6-3.5,2.7-4.8c1.2-1.3,2.5-2.3,4-2.9s3-1,4.7-1c0.7,0,1.5,0.1,2.1,0.2
	c0.7,0.1,1.3,0.3,1.9,0.5c0.6,0.2,1.2,0.5,1.7,0.8s1,0.6,1.4,0.9h0.1c0-0.4,0-0.9,0-1.6s0-1.5,0-2.3v-11.6h6.8V146
	c0,1.8,0,3.4,0.1,4.7c0,1.3,0.1,2.5,0.1,3.5h-6.2l-0.3-3h-0.1c-0.4,0.5-0.9,0.9-1.5,1.4s-1.2,0.9-1.9,1.2s-1.4,0.6-2.2,0.8
	s-1.7,0.3-2.7,0.3c-1.5,0-3-0.3-4.4-0.8s-2.6-1.4-3.7-2.5c-1.1-1.1-2-2.6-2.6-4.4C872.5,145.5,872.1,143.4,872.1,140.9z
	 M885.6,149.6c0.7,0,1.3-0.1,1.9-0.3c0.6-0.2,1.2-0.4,1.7-0.7s1-0.6,1.4-0.9c0.4-0.3,0.8-0.7,1-1v-13.2c-0.8-0.7-1.7-1.2-2.7-1.6
	c-1-0.4-2.1-0.6-3.2-0.6c-0.7,0-1.5,0.1-2.2,0.4s-1.5,0.8-2.1,1.5s-1.2,1.6-1.6,2.9c-0.4,1.2-0.6,2.8-0.6,4.7c0,2.8,0.5,5,1.6,6.6
	C881.9,148.7,883.5,149.5,885.6,149.6z"/>
<path class="st17" d="M920.8,149.5c1.3,0,2.7-0.1,4.1-0.4c1.4-0.3,2.9-0.7,4.4-1.2v5.4c-0.9,0.4-2.2,0.7-4.1,1.1
	c-1.8,0.3-3.7,0.5-5.7,0.5s-3.9-0.3-5.6-0.8c-1.8-0.5-3.3-1.3-4.6-2.5c-1.3-1.1-2.4-2.6-3.1-4.4c-0.8-1.8-1.2-4-1.2-6.6
	c0-2.5,0.4-4.7,1.1-6.6c0.7-1.9,1.7-3.5,2.9-4.7s2.6-2.2,4.2-2.8c1.6-0.6,3.2-0.9,4.9-0.9c1.8,0,3.4,0.3,4.9,0.8s2.8,1.4,3.9,2.5
	c1.1,1.2,1.9,2.6,2.5,4.4c0.6,1.8,0.9,4,0.9,6.4c0,1,0,1.8-0.1,2.4H912c0.1,1.3,0.4,2.4,0.9,3.3c0.5,0.9,1.1,1.6,1.9,2.2
	c0.8,0.6,1.7,1,2.7,1.2C918.5,149.4,919.6,149.5,920.8,149.5z M918,131c-0.9,0-1.6,0.2-2.3,0.5s-1.3,0.7-1.7,1.3
	c-0.5,0.5-0.9,1.2-1.2,1.9s-0.5,1.5-0.6,2.3h11c0-0.8-0.1-1.6-0.3-2.3s-0.5-1.4-1-1.9c-0.4-0.5-1-1-1.6-1.3
	C919.7,131.2,918.9,131,918,131z"/>
<path class="st17" d="M206.6,202.4c0-0.6-0.2-1.1-0.5-1.5s-0.8-0.7-1.3-1c-0.6-0.3-1.2-0.5-1.9-0.7s-1.5-0.4-2.3-0.6
	c-1-0.3-2-0.6-2.9-0.9c-0.9-0.4-1.7-0.8-2.4-1.4c-0.7-0.6-1.3-1.3-1.7-2.2s-0.6-1.9-0.6-3.2c0-1.6,0.3-2.9,0.8-4
	c0.6-1.1,1.3-2.1,2.3-2.8c0.9-0.7,2.1-1.3,3.3-1.7c1.3-0.4,2.6-0.5,4-0.5c1.7,0,3.3,0.1,4.8,0.4c1.5,0.3,2.8,0.6,4.1,1.1v5.6
	c-0.6-0.2-1.3-0.4-2-0.6c-0.7-0.2-1.4-0.3-2.1-0.5s-1.4-0.2-2.1-0.3c-0.7-0.1-1.4-0.1-2-0.1c-0.8,0-1.5,0.1-2,0.2
	c-0.6,0.2-1,0.4-1.4,0.6c-0.3,0.3-0.6,0.6-0.7,0.9c-0.2,0.3-0.2,0.7-0.2,1.1c0,0.6,0.2,1.2,0.5,1.6c0.3,0.4,0.8,0.7,1.4,1
	c0.6,0.2,1.2,0.5,1.9,0.6c0.7,0.2,1.3,0.3,1.9,0.5c1,0.2,1.9,0.5,2.9,0.8s1.8,0.8,2.6,1.4c0.8,0.6,1.4,1.3,1.9,2.3
	c0.5,0.9,0.7,2.1,0.7,3.6c0,1.6-0.3,2.9-0.9,4.1c-0.6,1.2-1.4,2.1-2.5,2.9c-1.1,0.8-2.3,1.4-3.8,1.7c-1.5,0.4-3.1,0.6-4.9,0.6
	c-1.8,0-3.4-0.1-4.8-0.4c-1.4-0.3-2.6-0.6-3.5-1.1v-5.5c1.5,0.6,2.9,0.9,4.1,1.1c1.3,0.2,2.4,0.3,3.5,0.3c0.8,0,1.6-0.1,2.4-0.2
	c0.7-0.1,1.4-0.3,1.9-0.6s0.9-0.6,1.3-1C206.5,203.5,206.6,203,206.6,202.4z"/>
<path class="st17" d="M233.6,205.7c1.3,0,2.7-0.1,4.1-0.4c1.4-0.3,2.9-0.7,4.4-1.2v5.4c-0.9,0.4-2.2,0.7-4.1,1.1
	c-1.8,0.3-3.7,0.5-5.7,0.5s-3.9-0.3-5.6-0.8c-1.8-0.5-3.3-1.3-4.6-2.5c-1.3-1.1-2.4-2.6-3.1-4.4c-0.8-1.8-1.2-4-1.2-6.6
	c0-2.5,0.4-4.7,1.1-6.6c0.7-1.9,1.7-3.5,2.9-4.7s2.6-2.2,4.2-2.8c1.6-0.6,3.2-0.9,4.9-0.9c1.8,0,3.4,0.3,4.9,0.8s2.8,1.4,3.9,2.5
	c1.1,1.2,1.9,2.6,2.5,4.4c0.6,1.8,0.9,4,0.9,6.4c0,1,0,1.8-0.1,2.4h-18.3c0.1,1.3,0.4,2.4,0.9,3.3c0.5,0.9,1.1,1.6,1.9,2.2
	c0.8,0.6,1.7,1,2.7,1.2C231.3,205.6,232.4,205.7,233.6,205.7z M230.9,187.2c-0.9,0-1.6,0.2-2.3,0.5s-1.3,0.7-1.7,1.3
	c-0.5,0.5-0.9,1.2-1.2,1.9s-0.5,1.5-0.6,2.3h11c0-0.8-0.1-1.6-0.3-2.3s-0.5-1.4-1-1.9c-0.4-0.5-1-1-1.6-1.3
	C232.5,187.4,231.7,187.2,230.9,187.2z"/>
<path class="st17" d="M266,188h-0.6c-2.1,0-3.9,0.3-5.5,0.9c-1.6,0.6-2.8,1.6-3.7,2.9v18.7h-6.8v-27.9h5.6l0.6,3.9h0.1
	c0.8-1.4,1.9-2.5,3.3-3.4c1.4-0.8,3.1-1.2,5.1-1.2c0.7,0,1.3,0,1.8,0.1v6H266z"/>
<path class="st17" d="M294.5,202.4c0-0.6-0.2-1.1-0.5-1.5s-0.8-0.7-1.3-1c-0.6-0.3-1.2-0.5-1.9-0.7s-1.5-0.4-2.3-0.6
	c-1-0.3-2-0.6-2.9-0.9s-1.7-0.8-2.4-1.4c-0.7-0.6-1.3-1.3-1.7-2.2c-0.4-0.9-0.6-1.9-0.6-3.2c0-1.6,0.3-2.9,0.8-4
	c0.6-1.1,1.3-2.1,2.3-2.8c0.9-0.7,2.1-1.3,3.3-1.7c1.3-0.4,2.6-0.5,4-0.5c1.7,0,3.3,0.1,4.8,0.4c1.5,0.3,2.8,0.6,4.1,1.1v5.6
	c-0.6-0.2-1.3-0.4-2-0.6c-0.7-0.2-1.4-0.3-2.1-0.5s-1.4-0.2-2.1-0.3s-1.4-0.1-2-0.1c-0.8,0-1.5,0.1-2,0.2c-0.6,0.2-1,0.4-1.4,0.6
	c-0.3,0.3-0.6,0.6-0.7,0.9c-0.2,0.3-0.2,0.7-0.2,1.1c0,0.6,0.2,1.2,0.5,1.6c0.3,0.4,0.8,0.7,1.4,1c0.6,0.2,1.2,0.5,1.9,0.6
	c0.7,0.2,1.3,0.3,1.9,0.5c1,0.2,1.9,0.5,2.9,0.8s1.8,0.8,2.6,1.4c0.8,0.6,1.4,1.3,1.9,2.3c0.5,0.9,0.7,2.1,0.7,3.6
	c0,1.6-0.3,2.9-0.9,4.1c-0.6,1.2-1.4,2.1-2.5,2.9c-1.1,0.8-2.3,1.4-3.8,1.7c-1.5,0.4-3.1,0.6-4.9,0.6s-3.4-0.1-4.8-0.4
	c-1.4-0.3-2.6-0.6-3.5-1.1v-5.5c1.5,0.6,2.9,0.9,4.1,1.1c1.3,0.2,2.4,0.3,3.5,0.3c0.8,0,1.6-0.1,2.4-0.2c0.7-0.1,1.4-0.3,1.9-0.6
	s0.9-0.6,1.3-1C294.4,203.5,294.5,203,294.5,202.4z"/>
<path class="st17" d="M321.5,205.7c1.3,0,2.7-0.1,4.1-0.4c1.4-0.3,2.9-0.7,4.4-1.2v5.4c-0.9,0.4-2.2,0.7-4.1,1.1
	c-1.8,0.3-3.7,0.5-5.7,0.5s-3.9-0.3-5.6-0.8c-1.8-0.5-3.3-1.3-4.6-2.5c-1.3-1.1-2.4-2.6-3.1-4.4c-0.8-1.8-1.2-4-1.2-6.6
	c0-2.5,0.4-4.7,1.1-6.6c0.7-1.9,1.7-3.5,2.9-4.7c1.2-1.2,2.6-2.2,4.2-2.8s3.2-0.9,4.9-0.9c1.8,0,3.4,0.3,4.9,0.8s2.8,1.4,3.9,2.5
	c1.1,1.2,1.9,2.6,2.5,4.4c0.6,1.8,0.9,4,0.9,6.4c0,1,0,1.8-0.1,2.4h-18.3c0.1,1.3,0.4,2.4,0.9,3.3c0.5,0.9,1.1,1.6,1.9,2.2
	c0.8,0.6,1.7,1,2.7,1.2C319.2,205.6,320.3,205.7,321.5,205.7z M318.8,187.2c-0.9,0-1.6,0.2-2.3,0.5c-0.7,0.3-1.3,0.7-1.7,1.3
	c-0.5,0.5-0.9,1.2-1.2,1.9c-0.3,0.7-0.5,1.5-0.6,2.3h11c0-0.8-0.1-1.6-0.3-2.3c-0.2-0.7-0.5-1.4-1-1.9c-0.4-0.5-1-1-1.6-1.3
	C320.4,187.4,319.6,187.2,318.8,187.2z"/>
<path class="st17" d="M349.7,211.2c-2.8,0-5.1-0.5-7-1.4c-1.8-0.9-3.2-2.2-4.2-3.8c-0.5-0.9-0.9-1.8-1.1-2.8s-0.4-2.2-0.4-3.5v-17
	h6.8V199c0,0.9,0.1,1.8,0.2,2.4c0.1,0.7,0.3,1.3,0.6,1.8c0.5,0.8,1.1,1.5,2,1.9c0.8,0.4,1.9,0.6,3,0.6c1.2,0,2.3-0.2,3.1-0.7
	c0.9-0.5,1.5-1.2,2-2.1c0.4-0.9,0.7-2.2,0.7-3.8v-16.5h6.8v17c0,2.3-0.4,4.2-1.2,5.7c-0.4,0.9-1,1.7-1.7,2.4s-1.5,1.3-2.5,1.8
	c-0.9,0.5-2,0.9-3.2,1.2C352.5,211.1,351.1,211.2,349.7,211.2z"/>
<g>
	<path class="st5" d="M929.5,298c0-3.6,2.9-6.4,6.5-6.4c3.6,0,7.1,3,6.5,7.6h-8.7c0.4,0.7,1.2,1.4,2.5,1.4c1.2,0,2-0.5,2.4-1
		l3.3,1.5c-1,1.8-3,3.2-5.7,3.2C932.1,304.4,929.5,301.6,929.5,298z M938.2,296.7c-0.4-0.8-1.2-1.4-2.3-1.4c-1,0-1.7,0.6-2.1,1.4
		H938.2z"/>
	<path class="st5" d="M944.4,287.3h5.8c3.5,0,6.1,1.5,6.1,4.5c0,1.4-0.5,2.5-1.5,3.4c1.3,0.8,2.2,2.1,2.2,3.9c0,3.3-2.8,5.1-6.3,5.1
		h-6.4L944.4,287.3L944.4,287.3z M950.2,293.6c1.2,0,1.8-0.5,1.8-1.4s-0.6-1.4-1.8-1.4h-1.6v2.7H950.2z M950.7,300.5
		c1.4,0,1.9-0.6,1.9-1.6c0-0.9-0.5-1.6-1.9-1.6h-2.1v3.1H950.7z"/>
	<path class="st5" d="M958.3,298c0-3.6,2.9-6.4,6.5-6.4c3.6,0,6.5,2.8,6.5,6.4s-2.9,6.4-6.5,6.4C961.3,304.4,958.3,301.6,958.3,298z
		 M964.8,300.6c1.5,0,2.6-1.2,2.6-2.6s-1.2-2.7-2.6-2.7s-2.6,1.2-2.6,2.7S963.4,300.6,964.8,300.6z"/>
	<path class="st5" d="M973,286.2h3.8v17.9H973V286.2L973,286.2z"/>
	<path class="st5" d="M978.5,298c0-3.4,2.4-6.4,6.1-6.4c1.3,0,2.5,0.4,3.4,1.1v-0.8h3.8v12.2H988v-0.8c-0.9,0.7-2,1.1-3.4,1.1
		C980.9,304.4,978.5,301.4,978.5,298z M985.1,300.6c1.5,0,2.6-1.2,2.6-2.6s-1.2-2.7-2.6-2.7s-2.6,1.2-2.6,2.7
		S983.6,300.6,985.1,300.6z"/>
	<path class="st5" d="M993.5,298c0-3.4,2.4-6.4,6.1-6.4c1.3,0,2.5,0.4,3.4,1.1v-6.5h3.8v17.9h-3.8v-0.8c-0.9,0.7-2,1.1-3.4,1.1
		C995.9,304.4,993.5,301.4,993.5,298z M1000,300.6c1.5,0,2.6-1.2,2.6-2.6s-1.2-2.7-2.6-2.7s-2.7,1.2-2.7,2.7S998.6,300.6,1000,300.6
		z"/>
	<path class="st5" d="M1008.5,298c0-3.4,2.4-6.4,6.1-6.4c1.3,0,2.5,0.4,3.4,1.1v-0.8h3.8v12.2h-3.8v-0.8c-0.9,0.7-2,1.1-3.4,1.1
		C1010.8,304.4,1008.5,301.4,1008.5,298z M1015,300.6c1.5,0,2.6-1.2,2.6-2.6s-1.2-2.7-2.6-2.7s-2.6,1.2-2.6,2.7
		S1013.5,300.6,1015,300.6z"/>
	<path class="st5" d="M1023.1,300.9l3.8-0.7c0,0.5,0.5,1.2,1.7,1.2c0.7,0,1.1-0.3,1.1-0.8c0-0.5-0.4-0.6-2.4-1.1
		c-2-0.4-3.7-1.3-3.7-3.8c0-2.7,2.4-4,4.6-4c2.3,0,4.1,1.1,4.6,3.1l-3.3,0.8c-0.1-0.3-0.4-0.8-1.3-0.8c-0.6,0-1.1,0.3-1.1,0.7
		c0,0.6,0.5,0.7,2,1.1c1.9,0.5,4.2,1,4.2,3.8c0,3-2.5,4.1-5.2,4.1C1025.6,304.4,1023.4,303.4,1023.1,300.9z"/>
	<g>
		
			<rect x="932.5" y="290.8" transform="matrix(0.9513 -0.3083 0.3083 0.9513 -44.5102 302.1884)" class="st5" width="3" height="2.2"/>
		
			<rect x="936.5" y="302.9" transform="matrix(0.9513 -0.3083 0.3083 0.9513 -48.0508 303.9868)" class="st5" width="3" height="2.2"/>
	</g>
</g>
</svg>
