<?xml version="1.0" encoding="utf-8"?>
<!-- Generator: Adobe Illustrator 25.0.1, SVG Export Plug-In . SVG Version: 6.00 Build 0)  -->
<svg version="1.1" id="Layer_1" xmlns="http://www.w3.org/2000/svg" xmlns:xlink="http://www.w3.org/1999/xlink" x="0px" y="0px"
	 viewBox="0 0 1511 337" style="enable-background:new 0 0 1511 337;" xml:space="preserve">
<style type="text/css">
	.st0{fill:#071E33;}
	.st1{display:none;}
	.st2{fill:#113E63;}
	.st3{fill:#2D4F66;}
	.st4{fill:#F7F7F7;}
	.st5{fill:#6A7E89;}
	.st6{opacity:0.7;fill:#6A7E89;enable-background:new    ;}
	.st7{opacity:0.2;}
	.st8{fill:none;stroke:#000000;stroke-linecap:round;stroke-linejoin:round;}
	.st9{fill:none;stroke:#263238;stroke-linecap:round;stroke-linejoin:round;}
	.st10{fill:#165A9A;}
	.st11{opacity:0.3;}
	.st12{fill:#FFFFFF;stroke:#263238;stroke-linecap:round;stroke-linejoin:round;}
	.st13{fill:#263238;stroke:#263238;stroke-linecap:round;stroke-linejoin:round;}
	.st14{fill:#165A9A;stroke:#263238;stroke-linecap:round;stroke-linejoin:round;}
	.st15{fill:#BFBFBF;stroke:#263238;stroke-linecap:round;stroke-linejoin:round;}
	.st16{fill:#A1A1A1;stroke:#263238;stroke-linecap:round;stroke-linejoin:round;}
	.st17{opacity:0.2;enable-background:new    ;}
	.st18{fill:#263238;}
	.st19{fill:none;stroke:#7A7A7A;stroke-linecap:round;stroke-linejoin:round;}
	.st20{font-family:'MyriadPro-Regular';}
	.st21{font-size:8.2721px;}
	.st22{fill:#FFFFFF;}
</style>
<g id="Layer_4">
	<rect y="0" class="st0" width="1511" height="337"/>
</g>
<g id="Layer_5" class="st1">
</g>
<g id="Layer_3" class="st1">
</g>
<path class="st2" d="M730.7,244.4c0,2.1-0.1,4.3-0.4,6.5c-1.3,9.6-5.5,20.7-12.1,31.5c-4.2,6.9-9.3,13.7-15.2,19.9
	c-4.1,4.3-8.6,8.3-13.4,11.9c-4.6,3.4-9.6,6.5-14.8,8.9c-20.7,9.8-34.8,5.5-52.7,2.6c-9.8-1.6-20.8-2.8-34.6-1.1
	c-14.6,1.8-26.8,6.3-37.5,12.4H304c18-35.7,70.2-68.9,111.8-64.5c17.8,1.9,29.7,10.3,35.2,4.6c1.9-1.9,2.2-4.7,1.5-8.1
	c-0.5-2.5-1.6-5.4-3.2-8.6l0,0c-0.8-1.6-1.6-3.2-2.6-4.9c-1.1-1.9-2.3-3.9-3.5-6c-16.4-27-47.1-66.1-35.1-93.3
	c0.2-0.4,0.3-0.8,0.5-1.2c0.9-1.8,2-3.6,3.2-5.3c1.8-2.5,4-4.8,6.5-7c2.1-1.8,4.3-3.5,6.8-5c2.5-1.6,5.1-3,7.9-4.4l0,0
	c5.6-2.7,11.8-4.9,18.3-6.6l0,0c18.3-4.7,39.3-5.1,57.7-0.1c0.2,0,0.4,0.1,0.5,0.2c0.9,0.2,1.8,0.5,2.7,0.8
	c6.1,1.9,11.9,4.5,17.1,7.7c2,1.3,4,2.6,5.8,4.1c0.2,0.1,0.3,0.2,0.5,0.4c5.9,4.8,10,10,12.9,15.5c9.2,17.2,7.2,36.9,17.1,53.9
	c2.6,4.5,6.1,8.9,10.9,13c3.9,3.3,8,5.9,12.3,7.9c2.4,1.1,4.8,2,7.3,2.8c30.2,9.5,68.1-3.5,96-7.9c10.7-1.7,20-2.1,26.7,0.5
	c0.8,0.3,1.5,0.6,2.2,1c1.2,0.6,2.2,1.4,3.2,2.2c0.9,0.8,1.7,1.7,2.4,2.7C729.4,234.6,730.6,239.2,730.7,244.4z"/>
<path class="st2" d="M324,0c-42.3,34.6-70.8,83.6-113.6,115.9c-2.7,2-5.4,4-8.3,5.9c-0.7,0.5-1.4,0.9-2.1,1.4
	c-2.3,1.5-4.7,2.9-7,4.3c-14.9,8.7-31.6,15.3-51,18.9c-46.9,8.7-99.6-2.3-142-24V0H324z"/>
<path class="st2" d="M1511,0v186c-21.9,25.2-42.1,51.6-79.6,58.6c-18.2,3.4-37.9,1.7-56.4-3.6c-38-10.8-70.6-36.5-73.8-63.8
	c-3.8-32,32.5-70,72.9-86c15-6,30.7-8.9,45-7.4c12.2,1.3,21.6,5.6,28.1,6.4c3,0.4,5.4,0,7.1-1.8c0.9-1,1.5-2.1,1.7-3.5
	c2.5-14.7-32.2-51.4-43.7-84.8L1511,0L1511,0z"/>
<path class="st2" d="M1171.6,337h-64.9c0.2-1.3,0.5-2.6,1-3.8c6.1-13.9,37.1-19.9,54.1-9c0.7,0.5,1.4,1,2.1,1.5
	c2.6,2,4.4,4.3,5.7,6.6l0,0C1170.4,333.9,1171.1,335.4,1171.6,337z"/>
<circle class="st3" cx="390.7" cy="60.6" r="38.7"/>
<circle class="st3" cx="377.4" cy="219.4" r="9.3"/>
<circle class="st2" cx="1337.9" cy="312.4" r="7.1"/>
<circle class="st3" cx="35.1" cy="179.2" r="16.3"/>
<circle class="st3" cx="74.2" cy="248.4" r="6.4"/>
<circle class="st3" cx="171.1" cy="194.2" r="6.8"/>
<circle class="st3" cx="886.7" cy="53.3" r="16.1"/>
<circle class="st3" cx="893.6" cy="161" r="7"/>
<circle class="st3" cx="247.8" cy="309.1" r="3.8"/>
<circle class="st3" cx="281.5" cy="167.1" r="13"/>
<circle class="st3" cx="546.1" cy="63.7" r="20.3"/>
<circle class="st3" cx="655.3" cy="38.1" r="5.4"/>
<circle class="st3" cx="765.5" cy="39.3" r="2.2"/>
<circle class="st3" cx="142.4" cy="322.1" r="2.6"/>
<path class="st2" d="M1040.7,337h-315c-1-5.1-1.8-9.5-2.4-13c-0.1-0.5-0.2-1-0.2-1.5c-1.5-9-2.9-17.1-3.8-24.6
	c-0.7-5.5-1-10.6-1-15.5c0-10.4,1.8-19.8,6.6-28.9c0.7-1.4,1.5-2.8,2.4-4.1c1.1-1.7,2.2-3.4,3.5-5c3.6-4.6,7.9-8.7,12.8-12.2
	c19.5-14.2,47.5-20,75.5-21.7c10.7-0.6,21.3-0.6,31.6-0.3c27.9,1,52.4,4.7,64.2,6.5c14.8,2.2,31.6,4.9,47.1,9.8
	c10.2,3.2,19.9,7.5,27.8,13.1c2.5,1.8,4.9,3.8,7.1,5.9c0.8,0.8,1.6,1.6,2.3,2.4c3.1,3.4,5.7,7.3,7.6,11.6c0.6,1.4,1.2,2.7,1.6,4
	c0.3,0.8,0.5,1.5,0.7,2.3c0.5,1.9,0.8,3.6,1,5.4c0.2,1.7,0.3,3.3,0.2,4.9c0,0.7,0,1.4-0.1,2.1c-0.8,12.5-6.6,22.9-0.4,36.5
	c0.3,0.6,0.6,1.2,0.9,1.7c0,0.1,0.1,0.2,0.1,0.2C1016.6,327.6,1027.4,333.5,1040.7,337z"/>
<path class="st2" d="M1121.4,0c-3.9,5.4-8.1,10.3-12.7,14.5c-12.4,11.3-23.2,13.9-33.6,16.5c-2.1,0.5-4.1,1-6.2,1.6
	c-1.5,0.4-3.1,0.9-4.6,1.5c-5.9,2.1-11.9,5.2-18.2,11c-0.6,0.5-1.2,1.1-1.7,1.6c-4.4,4.3-7.8,8.9-10.5,13.6c-0.3,0.5-0.6,1-0.8,1.5
	c-1.2,2.1-2.2,4.3-3,6.5c-1,2.4-1.8,4.8-2.5,7.3c-1,3.4-1.7,6.8-2.2,10.2l0,0c-4.2,25.2,0.5,50.2-17.7,63.6c-20,14.8-57.6,8-83.3-7
	c-2.9-1.7-5.6-3.5-8.2-5.3c-1.1-0.8-2.2-1.6-3.2-2.5c-1.7-1.4-3.2-2.8-4.7-4.2c-4.6-4.5-8-9.4-9.7-14.3c-0.4-1.2-0.7-2.3-0.9-3.5
	c-0.1-0.5-0.2-1.1-0.2-1.6c-3-27.2,50.2-42.9,46-65.9c-3.8-20.8-51.4-28.3-86.8-34.2C836,7.5,819.6,4.6,817.8,0H1121.4z"/>
<path class="st2" d="M1012.4,256c-0.1,0.8-0.1,1.7-0.2,2.5l0,0c-0.2,1.5-0.3,2.9-0.6,4.4c-0.1,0.8-0.3,1.7-0.4,2.5
	c-0.3,1.9-0.7,3.9-1.2,5.8c-0.4,1.6-0.8,3.2-1.2,4.8c0,0.1,0,0.2-0.1,0.2c-4.2,14.6-11.4,28.8-20.5,40.2c0,0.1-0.1,0.1-0.1,0.2
	c-2.9,3.6-6,7-9.3,10c-5.2,4.8-10.2,8-14.9,10.3H788.7c-18.8-7-44.7-10.9-65.6-14.5c-15.8-2.7-28.7-5.1-33.4-8.4
	c-1.3-0.9-2-1.8-2-2.8c-0.1-3,5.7-6,15.3-9.1c4.6-1.5,10.1-2.9,16.3-4.4c35.2-8.3,91.4-16.3,124.8-22.7c16.6-3.2,27.6-6,27.4-8.3
	c-0.2-3.1-21.1-3.3-47.4-4c-32.6-0.9-73.6-2.7-93.8-12c-1.1-0.5-2.1-1-3.1-1.6c-4.8-2.7-8-6-8.9-10c-0.9-3.6,0.1-7.6,2.2-11.6
	c0.3-0.5,0.6-1,0.9-1.6c7.3-12.4,23.8-24.2,23-25.2c-0.7-0.8-10.6,10.4-25.2,24.1c-0.7,0.7-1.5,1.4-2.2,2.1
	c-25.3,23.6-63.1,53.3-92.1,44.3c-15.4-4.8-26.3-20-33.9-37.5c-0.6-1.4-1.2-2.8-1.8-4.2c-3.9-9.8-6.9-20.1-9.2-29.5
	c-2.8-11.4-4.5-21.7-5.7-28.3c-1.1-6.2-2.1-12.1-2.9-17.6c-2.4-16.1-3.3-29.4,0-41.6c1-3.8,2.5-7.6,4.4-11.2
	c31.7-60.8,157.9-41.6,190-36.8c33.5,5.1,78,12.4,91.9,42.9c3.4,7.5,3.9,13.9,3.3,19.9c-0.3,2.8-0.8,5.6-1.3,8.3
	c-0.8,3.9-1.6,7.8-1.8,11.8l0,0c-0.1,2.2-0.1,4.4,0.2,6.6c0.4,2.7,1.2,5.5,2.5,8.5c1.2,2.7,2.7,5.1,4.5,7.2
	c8.5,10.4,22.8,15,39.3,17.7c26.1,4.3,57.5,3.9,79.8,14.4c6.1,2.9,11.6,6.6,16,11.5c1.6,1.8,3.1,3.7,4.4,5.8
	c1.6,2.5,2.9,5.1,3.9,7.8c1.3,3.3,2.3,6.9,2.9,10.5c0.1,0.8,0.3,1.6,0.4,2.3c0.2,1.6,0.4,3.2,0.5,4.8c0.1,0.8,0.1,1.7,0.1,2.5
	C1012.7,250.3,1012.6,253.1,1012.4,256z"/>
<path class="st2" d="M443.4,337h-56.6c10-3.4,20.3-5.3,29.9-5.4c5.5-0.1,10.2,0.4,14.4,1.3C435.7,333.9,439.7,335.4,443.4,337z"/>
<path class="st2" d="M629.7,337H522.4c22.2-16.2,35.5-41,59.5-38.8c14.8,1.3,29.2,12.6,40.3,27.5C624.9,329.3,627.4,333.1,629.7,337
	z"/>
<path class="st3" d="M596.8,0c-0.8,0.3-1.5,0.6-2.3,1c-15.4,5.8-31.8,4.6-48-1H596.8z"/>
<path class="st3" d="M1511,112.3v171.9c-7.9,7.2-16.8,14.7-26.1,21.4c-20.5,14.7-43.3,25.3-62.2,19.4c-11.1-3.4-19.7-12.2-26.6-23.3
	c-11.2-18.2-17.5-42.8-21.1-60.7c-1.2-6.1-2.1-11.5-2.8-15.5c-5.2-30.3-8.7-50.8,1.5-70.5C1395.4,113.4,1461.3,109.2,1511,112.3z"/>
<path class="st3" d="M1264.5,333.7c-1.6,1.4-3.1,2.5-4.5,3.3h-68.7c-6.5-2.1-14.7-3.5-21.7-4.6l0,0c-8.1-1.4-14.6-2.5-14.6-4.4
	c0-1.2,2.6-2.5,6.8-3.7c8.8-2.6,24.6-5.2,38.1-7.4c0.5-0.1,1-0.2,1.6-0.3l0,0l0,0l0,0l0,0c12.5-2.1,22.7-3.9,22.6-5.3
	c-0.2-2.1-26.6-0.6-43.7-3.4c-3.6-0.6-6.8-1.4-9.2-2.5c-2.6-1.1-4.3-2.6-4.8-4.5c-1.4-5.9,10.2-13.9,9.8-14.4
	c-0.5-0.5-11.9,13.2-24.6,21.3c-6.9,4.4-14.1,7.2-20.3,5.2c-2.9-0.9-5.4-2.8-7.5-5.2c-2.8-3.3-4.9-7.6-6.6-12
	c-0.3-0.9-0.6-1.7-0.9-2.6l0,0c-1-3-1.7-5.9-2.4-8.6c0,0,0-0.1,0-0.2c-0.5-2.4-1-4.6-1.3-6.5l0,0v-0.1c-0.1-0.4-0.1-0.8-0.2-1.2l0,0
	c0-0.1,0-0.2,0-0.2l0,0c-0.1-0.3-0.1-0.5-0.1-0.8c-0.4-2.5-0.8-4.8-1.1-6.9c0-0.1,0-0.2,0-0.3c-0.3-1.9-0.5-3.7-0.6-5.5
	c0-0.1,0-0.1,0-0.2c-0.1-1.3-0.1-2.6-0.1-3.8v-0.1c0-0.6,0.1-1.2,0.1-1.8c0-0.1,0-0.2,0-0.3c0.3-2.7,1-5.2,2.3-7.6V249
	c0.1-0.1,0.1-0.2,0.2-0.3c1.6-3,3.8-5.4,6.5-7.4c0.1-0.1,0.1-0.1,0.2-0.1c2.1-1.6,4.5-2.9,7.1-4h0.1c0.1,0,0.2-0.1,0.3-0.1
	c0.7-0.3,1.4-0.5,2.1-0.8c13.2-4.6,30.6-3.9,42.8-2.7h0.1c1.9,0.2,3.6,0.4,5.2,0.6c2.5,0.3,4.5,0.6,6.1,0.9c0.3,0,0.5,0.1,0.8,0.1
	c2.7,0.4,5.5,0.8,8.4,1.4c2.7,0.5,5.4,1.1,8,1.9c0.9,0.3,1.9,0.6,2.8,0.9c0.7,0.2,1.4,0.5,2.1,0.8c0,0,0,0,0.1,0
	c3,1.2,5.8,2.7,8.1,4.6c2.2,1.8,4,3.9,5.2,6.5c3.9,8.4-2.2,13.3,1.2,20.7c7.6,16.5,43.5,4.5,54.2,21.3
	C1281.3,304.5,1274.9,324.2,1264.5,333.7z"/>
<path class="st2" d="M1236.1,62.1c0.4,0.5-11.2,8.6-9.8,14.4c2.9,11.8,57.4,7.3,57.6,10.4c0.2,3.5-69.3,10.4-69.2,16.7
	c0.1,5.1,44.9,4.7,47.3,17.3c1.6,8.6-18.4,14.5-17.3,24.8c1.3,11.7,29.6,23.2,41.5,14.4c10.5-7.8,0.7-25.8,13.8-38.6
	c8.3-8.1,15.1-3.7,24.2-12.1c10.4-9.6,16.8-29.3,9.8-40.3c-10.7-16.8-46.6-4.8-54.2-21.3c-3.4-7.4,2.7-12.3-1.2-20.7
	c-5.3-11.5-22-14.2-34.6-16.1c-12.1-1.8-59.5-9-71.5,13.8c-3.9,7.4-2.5,15.1-0.6,26.5c1.5,8.7,5.7,33.3,19,37.5
	C1208.8,94.1,1235.3,61.3,1236.1,62.1z"/>
<path class="st3" d="M882,0c-4.1,2.1-8.3,4.1-12.8,6c-4.2,1.8-8.4,3.4-12.8,4.9C790.9,33.8,708,26.3,642.8,0H882z"/>
<path class="st3" d="M1249.7,0c-1.2,1.5-2.4,3-3.6,4.5c-1.7,2-3.4,3.9-5.2,5.9c-16.5,17.7-39,33.5-63.4,42.2
	c-1.6,0.6-3.2,1.1-4.9,1.6c-1.7,0.5-3.3,1-5,1.5l0,0c-8.7,2.3-17.5,3.7-26.3,3.9c-8.6,0.2-17.1-0.7-25.5-2.9
	c-8.5-2.2-15.7-5.6-22.2-9.7h-0.1c-7-4.5-13.1-9.9-18.5-15.8c-0.5-0.5-0.9-1-1.4-1.5c-0.8-0.9-1.6-1.8-2.4-2.8
	c-1.5-1.8-3-3.7-4.5-5.6l0,0c-0.2-0.3-0.5-0.6-0.7-1c-4.9-6.5-9.3-13.3-13.7-20.1h197.4V0z"/>
<path class="st3" d="M1461.5,80.2c-1.7,1.7-3.5,3.2-5.4,4.6c-2.8,2-5.7,3.8-8.9,5.3c-20.1,9.8-47.4,9.2-73.1,1
	c-13.8-4.4-27.1-11-38.7-19.3l0,0c-2.7-1.9-5.2-4-7.7-6.1c-1.7-1.5-3.4-3-5.1-4.6c-17.6-17-28.7-38.9-33.4-61.1H1481
	C1484,24.1,1481.9,60.2,1461.5,80.2z"/>
<path class="st2" d="M1484.9,305.6c-2,10-3.4,20.7-3.1,31.4h-115.5c9-12.5,19.2-24.4,29.9-35.3c39.3-40.1,84.4-66.3,97.4-58.2
	C1503.6,249.9,1491.1,275,1484.9,305.6z"/>
<path class="st3" d="M883.7,307.2c-1,0.2-1.9,0.3-2.8,0.5L813.3,337H427.4c1.2-1.4,2.4-2.7,3.7-4.1c19.7-21.4,42-40.7,65.9-56.6l0,0
	c1.3-0.9,2.6-1.8,4-2.6l0,0c1.2-0.8,2.5-1.6,3.8-2.4c1.8-1.1,3.5-2.2,5.3-3.3c2.2-1.3,4.3-2.6,6.5-3.8c2-1.1,4-2.2,6-3.3
	c2.4-1.3,4.8-2.5,7.2-3.8c1.8-0.9,3.5-1.8,5.3-2.6c2-1,4.1-2,6.2-2.9c2.8-1.3,5.6-2.5,8.4-3.6c6.6-2.8,13.2-5.3,20-7.5
	c7.1-2.4,14.3-4.5,21.5-6.4c1.4-0.4,2.9-0.7,4.3-1.1c0.4-0.1,0.8-0.2,1.2-0.3c1.8-0.4,3.7-0.9,5.5-1.3c17-3.8,34.3-6,51.4-6.9
	c13.1-0.7,26.2-0.6,39,0.3c1.4,0.1,2.7,0.2,4.1,0.3c6.8,0.5,13.7,1.3,20.4,2.2c1.2,0.2,2.4,0.3,3.6,0.5c1.4,0.2,2.7,0.4,4.1,0.7
	c6.4,1.1,12.7,2.3,18.9,3.7c7.1,1.6,14.2,3.5,21.1,5.6c11,3.3,21.7,7.2,32.1,11.6c9.5,4.1,18.7,8.6,27.5,13.5
	c0.8,0.4,1.5,0.9,2.3,1.3c0.2,0.1,0.4,0.2,0.6,0.4l0,0c0.1,0.1,0.2,0.1,0.3,0.2c0.7,0.4,1.4,0.8,2.1,1.2c5,2.9,9.9,6,14.6,9.2
	c7.7,5.2,15.1,10.8,22.1,16.5c0.1,0,0.2,0.1,0.2,0.2c5.9,4.8,11.5,9.8,16.8,14.8C883.3,306.8,883.5,307,883.7,307.2z"/>
<circle class="st2" cx="834.9" cy="223.1" r="20.3"/>
<circle class="st2" cx="740.5" cy="237.2" r="20.3"/>
<circle class="st2" cx="842" cy="316.8" r="20.3"/>
<circle class="st2" cx="930.3" cy="292" r="7.1"/>
<circle class="st2" cx="503.8" cy="273.9" r="7.1"/>
<circle class="st2" cx="441.3" cy="319.6" r="7.1"/>
<path class="st4" d="M200,148.5h19v5.9h-26v-38.5h24.9v5.9H200v10h15.4v5.9H200V148.5z"/>
<path class="st4" d="M237.9,146.3c0-0.6-0.2-1.1-0.5-1.5s-0.8-0.7-1.3-1c-0.6-0.3-1.2-0.5-1.9-0.7s-1.5-0.4-2.3-0.6
	c-1-0.3-2-0.6-2.9-0.9c-0.9-0.4-1.7-0.8-2.4-1.4c-0.7-0.6-1.3-1.3-1.7-2.2s-0.6-1.9-0.6-3.2c0-1.6,0.3-2.9,0.8-4
	c0.6-1.1,1.3-2.1,2.3-2.8c1-0.7,2.1-1.3,3.3-1.7c1.3-0.4,2.6-0.5,4-0.5c1.7,0,3.3,0.1,4.8,0.4s2.8,0.6,4.1,1.1v5.6
	c-0.6-0.2-1.3-0.4-2-0.6c-0.7-0.2-1.4-0.3-2.1-0.5c-0.7-0.1-1.4-0.2-2.1-0.3c-0.7-0.1-1.4-0.1-2-0.1c-0.8,0-1.5,0.1-2,0.2
	c-0.6,0.2-1,0.4-1.4,0.6c-0.3,0.3-0.6,0.6-0.7,0.9c-0.2,0.3-0.2,0.7-0.2,1c0,0.6,0.2,1.2,0.5,1.6c0.3,0.4,0.8,0.7,1.4,1
	c0.6,0.2,1.2,0.5,1.9,0.6c0.7,0.2,1.3,0.3,1.9,0.5c1,0.2,1.9,0.5,2.9,0.8s1.8,0.8,2.6,1.4c0.8,0.6,1.4,1.3,1.9,2.3
	c0.5,0.9,0.7,2.1,0.7,3.6c0,1.6-0.3,2.9-0.9,4.1c-0.6,1.2-1.4,2.1-2.5,2.9c-1.1,0.8-2.3,1.4-3.8,1.7c-1.5,0.4-3.1,0.6-4.9,0.6
	c-1.8,0-3.4-0.1-4.8-0.4c-1.4-0.3-2.6-0.6-3.5-1v-5.5c1.5,0.6,2.9,0.9,4.1,1.1c1.3,0.2,2.4,0.3,3.5,0.3c0.8,0,1.6-0.1,2.4-0.2
	c0.7-0.1,1.4-0.3,1.9-0.6s0.9-0.6,1.3-1C237.8,147.4,237.9,146.9,237.9,146.3z"/>
<path class="st4" d="M267.6,154.4c-0.8,0.2-1.7,0.4-2.7,0.5c-1.1,0.1-2.1,0.2-3,0.2c-2.3,0-4.3-0.4-5.7-1.1
	c-1.5-0.8-2.5-1.8-3.1-3.3c-0.4-1-0.7-2.4-0.7-4.1v-14.4h-5.2v-5.6h5.2v-7.8h6.8v7.8h8.1v5.6h-8.1v13.5c0,1.1,0.2,1.9,0.5,2.4
	c0.6,0.9,1.7,1.3,3.4,1.3c0.8,0,1.6-0.1,2.3-0.2c0.8-0.1,1.5-0.3,2.2-0.5L267.6,154.4L267.6,154.4z"/>
<path class="st4" d="M287.2,149.6c1.3,0,2.7-0.1,4.1-0.4c1.4-0.3,2.9-0.7,4.4-1.2v5.4c-0.9,0.4-2.2,0.7-4.1,1.1
	c-1.8,0.3-3.7,0.5-5.7,0.5s-3.9-0.3-5.6-0.8c-1.8-0.5-3.3-1.3-4.6-2.5c-1.3-1.1-2.4-2.6-3.1-4.4c-0.8-1.8-1.2-4-1.2-6.6
	c0-2.5,0.4-4.7,1.1-6.6c0.7-1.9,1.7-3.5,2.9-4.7c1.2-1.2,2.6-2.2,4.2-2.8c1.6-0.6,3.2-0.9,4.9-0.9c1.8,0,3.4,0.3,4.9,0.8
	s2.8,1.4,3.9,2.5c1.1,1.2,1.9,2.6,2.5,4.4c0.6,1.8,0.9,4,0.9,6.4c0,1,0,1.8-0.1,2.4h-18.3c0.1,1.3,0.4,2.4,0.9,3.3
	c0.5,0.9,1.1,1.6,1.9,2.2c0.8,0.6,1.7,1,2.7,1.2C284.9,149.5,286,149.6,287.2,149.6z M284.5,131.2c-0.9,0-1.6,0.2-2.3,0.5
	c-0.7,0.3-1.3,0.7-1.7,1.3s-0.9,1.2-1.2,1.9c-0.3,0.7-0.5,1.5-0.6,2.3h11c0-0.8-0.1-1.6-0.3-2.3c-0.2-0.7-0.5-1.4-1-1.9
	s-1-1-1.6-1.3C286.1,131.3,285.4,131.2,284.5,131.2z"/>
<path class="st4" d="M329.6,149.6c1.3,0,2.7-0.1,4.1-0.4c1.4-0.3,2.9-0.7,4.4-1.2v5.4c-0.9,0.4-2.2,0.7-4.1,1.1
	c-1.8,0.3-3.7,0.5-5.7,0.5s-3.9-0.3-5.6-0.8c-1.8-0.5-3.3-1.3-4.6-2.5c-1.3-1.1-2.4-2.6-3.1-4.4c-0.8-1.8-1.2-4-1.2-6.6
	c0-2.5,0.4-4.7,1.1-6.6c0.7-1.9,1.7-3.5,2.9-4.7c1.2-1.2,2.6-2.2,4.2-2.8c1.6-0.6,3.2-0.9,4.9-0.9c1.8,0,3.4,0.3,4.9,0.8
	s2.8,1.4,3.9,2.5c1.1,1.2,1.9,2.6,2.5,4.4c0.6,1.8,0.9,4,0.9,6.4c0,1,0,1.8-0.1,2.4h-18.3c0.1,1.3,0.4,2.4,0.9,3.3
	c0.5,0.9,1.1,1.6,1.9,2.2c0.8,0.6,1.7,1,2.7,1.2S328.4,149.6,329.6,149.6z M326.9,131.2c-0.9,0-1.6,0.2-2.3,0.5
	c-0.7,0.3-1.3,0.7-1.7,1.3c-0.5,0.5-0.9,1.2-1.2,1.9c-0.3,0.7-0.5,1.5-0.6,2.3h11c0-0.8-0.1-1.6-0.3-2.3c-0.2-0.7-0.5-1.4-1-1.9
	s-1-1-1.6-1.3C328.5,131.3,327.7,131.2,326.9,131.2z"/>
<path class="st4" d="M357.8,146.3c0-0.6-0.2-1.1-0.5-1.5s-0.8-0.7-1.3-1c-0.6-0.3-1.2-0.5-1.9-0.7c-0.7-0.2-1.5-0.4-2.3-0.6
	c-1-0.3-2-0.6-2.9-0.9c-0.9-0.4-1.7-0.8-2.4-1.4c-0.7-0.6-1.3-1.3-1.7-2.2c-0.4-0.9-0.6-1.9-0.6-3.2c0-1.6,0.3-2.9,0.8-4
	c0.6-1.1,1.3-2.1,2.3-2.8c0.9-0.7,2.1-1.3,3.3-1.7c1.3-0.4,2.6-0.5,4-0.5c1.7,0,3.3,0.1,4.8,0.4s2.8,0.6,4.1,1.1v5.6
	c-0.6-0.2-1.3-0.4-2-0.6c-0.7-0.2-1.4-0.3-2.1-0.5c-0.7-0.1-1.4-0.2-2.1-0.3s-1.4-0.1-2-0.1c-0.8,0-1.5,0.1-2,0.2
	c-0.6,0.2-1,0.4-1.4,0.6s-0.6,0.6-0.7,0.9c-0.2,0.3-0.2,0.7-0.2,1c0,0.6,0.2,1.2,0.5,1.6c0.3,0.4,0.8,0.7,1.4,1
	c0.6,0.2,1.2,0.5,1.9,0.6c0.7,0.2,1.3,0.3,1.9,0.5c1,0.2,1.9,0.5,2.9,0.8s1.8,0.8,2.6,1.4c0.8,0.6,1.4,1.3,1.9,2.3
	c0.5,0.9,0.7,2.1,0.7,3.6c0,1.6-0.3,2.9-0.9,4.1c-0.6,1.2-1.4,2.1-2.5,2.9c-1.1,0.8-2.3,1.4-3.8,1.7c-1.5,0.4-3.1,0.6-4.9,0.6
	s-3.4-0.1-4.8-0.4c-1.4-0.3-2.6-0.6-3.5-1v-5.5c1.5,0.6,2.9,0.9,4.1,1.1c1.3,0.2,2.4,0.3,3.5,0.3c0.8,0,1.6-0.1,2.4-0.2
	c0.7-0.1,1.4-0.3,1.9-0.6s0.9-0.6,1.3-1C357.6,147.4,357.8,146.9,357.8,146.3z"/>
<path class="st4" d="M384.4,155.1c-1.5,0-2.9-0.3-4.1-0.8s-2.2-1.2-3-2h-0.1c0,0.4,0,0.9,0.1,1.6c0,0.7,0,1.5,0,2.3v11.6h-6.8v-41.3
	h6l0.3,3.1h0.1c0.8-1.1,1.9-2,3.3-2.7c1.3-0.7,2.9-1.1,4.6-1.1c1.5,0,3,0.3,4.5,0.8c1.5,0.6,2.8,1.4,3.9,2.6s2,2.6,2.7,4.4
	c0.7,1.8,1,3.9,1,6.4c0,2.6-0.4,4.8-1.1,6.7s-1.7,3.5-2.9,4.7c-1.2,1.2-2.5,2.2-4,2.7C387.4,154.8,385.9,155.1,384.4,155.1z
	 M383.5,131.3c-1.2,0-2.3,0.3-3.4,0.9c-1.1,0.6-2,1.3-2.8,2.3v12.4c0.3,0.3,0.6,0.7,1,1s0.9,0.6,1.4,0.9c0.5,0.3,1,0.5,1.7,0.7
	c0.6,0.2,1.2,0.3,1.9,0.3c1.1,0,2-0.2,2.8-0.7s1.5-1.1,2.1-1.9c0.5-0.8,1-1.8,1.3-2.9c0.3-1.1,0.4-2.4,0.4-3.8
	c0-1.5-0.1-2.8-0.4-3.9c-0.3-1.1-0.7-2.1-1.3-2.8c-0.5-0.7-1.2-1.3-2-1.7C385.3,131.5,384.4,131.3,383.5,131.3z"/>
<path class="st4" d="M419.2,151.5h-0.1c-0.4,0.4-0.8,0.8-1.4,1.2c-0.5,0.4-1.2,0.8-1.8,1.2c-0.7,0.4-1.5,0.7-2.3,0.9
	s-1.8,0.3-2.7,0.3c-1.3,0-2.6-0.2-3.7-0.6c-1.2-0.4-2.1-1-3-1.8c-0.8-0.8-1.5-1.7-1.9-2.8c-0.5-1.1-0.7-2.3-0.7-3.7
	c0-1.5,0.3-2.8,0.8-4s1.3-2.2,2.3-3s2.1-1.5,3.5-1.9s2.9-0.6,4.5-0.6c1.2,0,2.3,0.1,3.3,0.2c1,0.2,1.9,0.3,2.7,0.5v-1.1
	c0-0.7-0.1-1.3-0.3-1.9c-0.2-0.6-0.6-1.1-1.1-1.6s-1.1-0.8-1.9-1.1s-1.7-0.4-2.9-0.4c-1.4,0-2.8,0.2-4.1,0.5
	c-1.4,0.3-2.9,0.8-4.5,1.4v-5.3c1.4-0.6,2.9-1.1,4.5-1.4s3.2-0.5,4.9-0.5c2,0,3.8,0.2,5.3,0.7s2.8,1.2,3.8,2.1
	c1,0.9,1.8,1.9,2.3,3.1c0.5,1.2,0.8,2.5,0.8,3.9v10.5c0,1.8,0,3.4,0.1,4.7c0,1.3,0.1,2.5,0.1,3.5h-6.2L419.2,151.5z M418.6,142.5
	c-0.7-0.2-1.4-0.3-2.2-0.4c-0.8-0.1-1.7-0.2-2.6-0.2c-1.7,0-3,0.3-4,1s-1.5,1.7-1.5,3c0,0.6,0.1,1.2,0.3,1.7
	c0.2,0.5,0.5,0.9,0.9,1.2s0.8,0.5,1.3,0.7s1,0.2,1.6,0.2c0.7,0,1.3-0.1,2-0.3c0.6-0.2,1.2-0.4,1.7-0.7s1-0.6,1.4-0.9
	c0.4-0.3,0.8-0.7,1-1v-4.3H418.6z"/>
<path class="st4" d="M441.4,154.6c-1.4-0.4-2.7-0.9-3.9-1.7c-1.2-0.7-2.2-1.7-3.1-2.8s-1.5-2.5-2-4s-0.7-3.2-0.7-5.2
	c0-2.7,0.4-5,1.3-6.9s2-3.5,3.4-4.7s2.9-2.1,4.6-2.6s3.4-0.8,5-0.8c1.2,0,2.4,0.1,3.6,0.3c1.2,0.2,2.2,0.5,3.1,0.9v5.6
	c-0.8-0.4-1.7-0.7-2.7-0.9c-0.9-0.2-2-0.3-3.1-0.3s-2.1,0.2-3.1,0.5s-1.9,0.9-2.6,1.6c-0.8,0.7-1.4,1.7-1.8,2.9
	c-0.5,1.2-0.7,2.6-0.7,4.4c0,1.2,0.2,2.4,0.5,3.5s0.8,2,1.5,2.8s1.5,1.4,2.6,1.9c1,0.5,2.2,0.7,3.6,0.7c1.2,0,2.4-0.1,3.4-0.4
	c1.1-0.3,2-0.6,2.8-0.9v5.6c-0.8,0.3-1.9,0.7-3.1,0.9c-1.2,0.3-2.6,0.4-4,0.4h-0.5l-0.7,2.7c0.8,0.1,1.5,0.3,2.1,0.6
	c0.7,0.3,1.2,0.6,1.7,1s0.9,0.9,1.1,1.4c0.3,0.5,0.4,1.2,0.4,1.8c0,0.8-0.2,1.6-0.6,2.3s-0.9,1.3-1.7,1.9c-0.7,0.5-1.7,1-2.8,1.3
	c-1.1,0.3-2.4,0.5-3.8,0.5c-0.7,0-1.5-0.1-2.3-0.2c-0.8-0.1-1.4-0.2-1.8-0.4v-4.2c0.5,0.2,1.1,0.3,1.8,0.4c0.7,0.1,1.3,0.1,1.9,0.1
	c0.7,0,1.3-0.1,1.9-0.2c0.5-0.1,0.9-0.3,1.2-0.4c0.3-0.2,0.5-0.4,0.6-0.6c0.1-0.2,0.2-0.4,0.2-0.6c0-0.6-0.4-1-1.3-1.3
	s-2.1-0.5-3.9-0.5L441.4,154.6z"/>
<path class="st4" d="M485.7,140.5c0,2.2-0.3,4.2-1,6s-1.6,3.3-2.8,4.6c-1.2,1.3-2.7,2.3-4.4,3c-1.7,0.7-3.7,1-5.8,1
	c-2.2,0-4.1-0.3-5.9-1c-1.7-0.7-3.2-1.7-4.4-3c-1.2-1.3-2.1-2.8-2.8-4.6c-0.6-1.8-1-3.8-1-6s0.3-4.2,1-6s1.6-3.3,2.8-4.6
	c1.2-1.3,2.7-2.3,4.4-3c1.7-0.7,3.7-1,5.8-1c2.2,0,4.1,0.3,5.9,1c1.7,0.7,3.2,1.7,4.4,3c1.2,1.3,2.1,2.8,2.8,4.6
	C485.3,136.3,485.7,138.3,485.7,140.5z M478.6,140.5c0-1.5-0.2-2.8-0.5-3.9c-0.3-1.1-0.8-2.1-1.4-2.8c-0.6-0.8-1.4-1.3-2.2-1.7
	c-0.9-0.4-1.8-0.6-2.8-0.6s-1.9,0.2-2.8,0.6c-0.9,0.4-1.6,1-2.2,1.7c-0.6,0.8-1.1,1.7-1.4,2.8s-0.5,2.4-0.5,3.9s0.2,2.8,0.5,3.9
	c0.3,1.1,0.8,2.1,1.5,2.8c0.6,0.8,1.4,1.3,2.2,1.7c0.9,0.4,1.8,0.6,2.8,0.6s1.9-0.2,2.8-0.6c0.8-0.4,1.6-1,2.2-1.7
	c0.6-0.8,1.1-1.7,1.4-2.8C478.4,143.3,478.6,142,478.6,140.5z"/>
<path class="st4" d="M517.8,155.1c-1.5,0-2.9-0.3-4.1-0.8c-1.2-0.5-2.2-1.2-3-2h-0.1c0,0.4,0,0.9,0.1,1.6c0,0.7,0,1.5,0,2.3v11.6
	h-6.8v-41.3h6l0.3,3.1h0.1c0.8-1.1,1.9-2,3.3-2.7c1.3-0.7,2.9-1.1,4.6-1.1c1.5,0,3,0.3,4.5,0.8c1.5,0.6,2.8,1.4,3.9,2.6
	c1.1,1.2,2,2.6,2.7,4.4c0.7,1.8,1,3.9,1,6.4c0,2.6-0.4,4.8-1.1,6.7c-0.7,1.9-1.7,3.5-2.9,4.7s-2.5,2.2-4,2.7
	C520.8,154.8,519.3,155.1,517.8,155.1z M516.9,131.3c-1.2,0-2.3,0.3-3.4,0.9c-1.1,0.6-2,1.3-2.8,2.3v12.4c0.3,0.3,0.6,0.7,1,1
	c0.4,0.3,0.9,0.6,1.4,0.9c0.5,0.3,1,0.5,1.7,0.7s1.2,0.3,1.9,0.3c1.1,0,2-0.2,2.8-0.7s1.5-1.1,2.1-1.9c0.5-0.8,1-1.8,1.3-2.9
	c0.3-1.1,0.4-2.4,0.4-3.8c0-1.5-0.1-2.8-0.4-3.9c-0.3-1.1-0.7-2.1-1.3-2.8c-0.5-0.7-1.2-1.3-2-1.7
	C518.7,131.5,517.8,131.3,516.9,131.3z"/>
<path class="st4" d="M548.6,155.1c-2.8,0-5.1-0.5-7-1.4s-3.2-2.2-4.2-3.8c-0.5-0.9-0.9-1.8-1.1-2.8c-0.2-1-0.4-2.2-0.4-3.5v-17h6.8
	v16.3c0,0.9,0.1,1.8,0.2,2.4c0.1,0.7,0.3,1.3,0.6,1.8c0.5,0.8,1.1,1.5,2,1.9c0.8,0.4,1.9,0.6,3,0.6c1.2,0,2.3-0.2,3.1-0.7
	c0.9-0.5,1.5-1.2,2-2.1c0.4-0.9,0.7-2.2,0.7-3.8v-16.5h6.8v17c0,2.3-0.4,4.2-1.2,5.7c-0.4,0.9-1,1.7-1.7,2.4s-1.5,1.3-2.5,1.8
	c-0.9,0.5-2,0.9-3.2,1.2C551.4,155,550,155.1,548.6,155.1z"/>
<path class="st4" d="M595.1,140c0,2.5-0.4,4.7-1.1,6.7c-0.7,1.9-1.7,3.5-2.9,4.8c-1.2,1.2-2.5,2.2-4,2.8s-3,0.9-4.5,0.9
	c-1.1,0-2-0.1-2.8-0.4c-0.8-0.3-1.6-0.6-2.2-1c-0.6-0.4-1.2-0.8-1.6-1.2c-0.4-0.4-0.8-0.8-1-1.1h-0.1l-0.7,3h-5.6
	c0-0.8,0.1-1.8,0.1-3.1c0-1.2,0-2.4,0-3.5v-35.1h6.8v11.6c0,0.8,0,1.6,0,2.3c0,0.7,0,1.2,0,1.6h0.1c0.4-0.3,0.9-0.6,1.4-0.9
	s1.1-0.5,1.7-0.8c0.6-0.2,1.3-0.4,2-0.5s1.5-0.2,2.2-0.2c1.6,0,3.1,0.3,4.5,0.8c1.5,0.6,2.8,1.4,3.9,2.6c1.1,1.2,2,2.6,2.7,4.5
	C594.8,135.6,595.1,137.6,595.1,140z M588.1,140.4c0-1.7-0.2-3.2-0.6-4.5c-0.4-1.3-1-2.2-1.7-2.9s-1.4-1.1-2.1-1.3
	c-0.7-0.2-1.5-0.3-2.2-0.3c-1,0-2,0.2-3,0.6s-2,0.9-2.8,1.6v13.3c0.3,0.3,0.6,0.6,1,1c0.4,0.3,0.8,0.6,1.3,0.9
	c0.5,0.3,1,0.5,1.6,0.7s1.2,0.3,1.8,0.3c1.1,0,2.1-0.2,2.9-0.7c0.8-0.5,1.5-1.1,2.1-1.9c0.6-0.8,1-1.8,1.3-2.9
	C587.9,143,588.1,141.8,588.1,140.4z"/>
<path class="st4" d="M601.5,154.4v-41.7h6.8v41.7H601.5z"/>
<path class="st4" d="M616,112.8h7.2v7.4H616V112.8z M616.2,126.5h6.8v27.9h-6.8V126.5z"/>
<path class="st4" d="M650.8,153.8c-0.9,0.4-1.9,0.7-3.2,0.9c-1.2,0.3-2.6,0.4-3.9,0.4c-2,0-3.9-0.3-5.6-0.9
	c-1.7-0.6-3.3-1.4-4.6-2.6c-1.3-1.2-2.3-2.7-3.1-4.4c-0.7-1.8-1.1-3.9-1.1-6.3c0-2.7,0.4-5,1.3-6.9c0.9-1.9,2-3.5,3.4-4.7
	s2.9-2.1,4.6-2.6c1.7-0.6,3.4-0.8,5.1-0.8c1.2,0,2.4,0.1,3.6,0.3c1.2,0.2,2.2,0.5,3.1,0.9v5.6c-0.8-0.4-1.7-0.7-2.7-0.9
	c-0.9-0.2-2-0.3-3.1-0.3s-2.1,0.2-3.1,0.5s-1.9,0.9-2.6,1.6c-0.8,0.7-1.4,1.7-1.8,2.9c-0.5,1.2-0.7,2.6-0.7,4.3
	c0,1.2,0.2,2.4,0.5,3.5s0.8,2,1.5,2.8s1.5,1.4,2.5,1.9s2.2,0.7,3.6,0.7c1.2,0,2.4-0.1,3.4-0.4c1-0.2,2-0.6,2.9-0.9L650.8,153.8
	L650.8,153.8z"/>
<path class="st4" d="M656.7,112.8h7.2v7.4h-7.2V112.8z M656.8,126.5h6.8v27.9h-6.8V126.5z"/>
<path class="st4" d="M688.3,154.4c-0.8,0.2-1.7,0.4-2.7,0.5c-1.1,0.1-2.1,0.2-3,0.2c-2.3,0-4.3-0.4-5.7-1.1
	c-1.5-0.8-2.5-1.8-3.1-3.3c-0.4-1-0.7-2.4-0.7-4.1v-14.4h-5.2v-5.6h5.2v-7.8h6.8v7.8h8.1v5.6h-8.1v13.5c0,1.1,0.2,1.9,0.5,2.4
	c0.6,0.9,1.7,1.3,3.4,1.3c0.8,0,1.6-0.1,2.3-0.2c0.8-0.1,1.5-0.3,2.2-0.5V154.4z"/>
<path class="st4" d="M710,151.5L710,151.5c-0.5,0.4-0.9,0.8-1.5,1.2c-0.5,0.4-1.2,0.8-1.8,1.2s-1.5,0.7-2.3,0.9s-1.8,0.3-2.7,0.3
	c-1.3,0-2.6-0.2-3.7-0.6c-1.2-0.4-2.1-1-3-1.8c-0.8-0.8-1.5-1.7-1.9-2.8c-0.5-1.1-0.7-2.3-0.7-3.7c0-1.5,0.3-2.8,0.8-4
	s1.3-2.2,2.3-3s2.1-1.5,3.5-1.9s2.9-0.6,4.5-0.6c1.2,0,2.3,0.1,3.3,0.2c1,0.2,1.9,0.3,2.7,0.5v-1.1c0-0.7-0.1-1.3-0.3-1.9
	c-0.2-0.6-0.6-1.1-1.1-1.6s-1.1-0.8-1.9-1.1c-0.8-0.3-1.7-0.4-2.9-0.4c-1.4,0-2.8,0.2-4.1,0.5c-1.4,0.3-2.9,0.8-4.5,1.4v-5.3
	c1.4-0.6,2.9-1.1,4.5-1.4s3.2-0.5,4.9-0.5c2,0,3.8,0.2,5.3,0.7s2.8,1.2,3.8,2.1c1,0.9,1.8,1.9,2.3,3.1c0.5,1.2,0.8,2.5,0.8,3.9v10.5
	c0,1.8,0,3.4,0.1,4.7c0,1.3,0.1,2.5,0.1,3.5h-6.2L710,151.5z M709.5,142.5c-0.7-0.2-1.4-0.3-2.2-0.4c-0.8-0.1-1.7-0.2-2.6-0.2
	c-1.7,0-3,0.3-4,1s-1.5,1.7-1.5,3c0,0.6,0.1,1.2,0.3,1.7s0.5,0.9,0.9,1.2s0.8,0.5,1.3,0.7s1,0.2,1.6,0.2c0.7,0,1.3-0.1,2-0.3
	c0.6-0.2,1.2-0.4,1.7-0.7s1-0.6,1.4-0.9c0.4-0.3,0.8-0.7,1-1L709.5,142.5L709.5,142.5z M711.6,112l-4.7,10h-5.3l3.4-10H711.6z"/>
<path class="st4" d="M740.5,132H740c-2.1,0-3.9,0.3-5.5,0.9c-1.6,0.6-2.8,1.6-3.7,2.9v18.7H724v-27.9h5.6l0.6,3.9h0.1
	c0.8-1.4,1.9-2.5,3.3-3.4c1.4-0.8,3.1-1.2,5.1-1.2c0.7,0,1.3,0,1.8,0.1L740.5,132L740.5,132z"/>
<path class="st4" d="M744.6,112.8h7.2v7.4h-7.2V112.8z M744.7,126.5h6.8v27.9h-6.8V126.5z"/>
<path class="st4" d="M785.8,140.5c0,2.2-0.3,4.2-1,6s-1.6,3.3-2.8,4.6s-2.7,2.3-4.4,3s-3.7,1-5.8,1c-2.2,0-4.1-0.3-5.9-1
	c-1.7-0.7-3.2-1.7-4.4-3s-2.1-2.8-2.8-4.6c-0.6-1.8-1-3.8-1-6s0.3-4.2,1-6s1.6-3.3,2.8-4.6s2.7-2.3,4.4-3s3.7-1,5.8-1
	c2.2,0,4.1,0.3,5.9,1c1.7,0.7,3.2,1.7,4.4,3s2.1,2.8,2.8,4.6S785.8,138.3,785.8,140.5z M778.7,140.5c0-1.5-0.2-2.8-0.5-3.9
	c-0.3-1.1-0.8-2.1-1.4-2.8c-0.6-0.8-1.4-1.3-2.2-1.7c-0.9-0.4-1.8-0.6-2.8-0.6s-1.9,0.2-2.8,0.6c-0.9,0.4-1.6,1-2.2,1.7
	c-0.6,0.8-1.1,1.7-1.4,2.8c-0.3,1.1-0.5,2.4-0.5,3.9s0.2,2.8,0.5,3.9c0.3,1.1,0.8,2.1,1.5,2.8c0.6,0.8,1.4,1.3,2.2,1.7
	c0.9,0.4,1.8,0.6,2.8,0.6s1.9-0.2,2.8-0.6c0.8-0.4,1.6-1,2.2-1.7c0.6-0.8,1.1-1.7,1.4-2.8C778.6,143.3,778.7,142,778.7,140.5z"/>
<path class="st4" d="M822.5,155c-1.5,0-2.9-0.3-4.1-0.8c-1.2-0.5-2.2-1.2-3-2h-0.1c0,0.4,0,0.9,0.1,1.6c0,0.7,0,1.5,0,2.3v11.6h-6.8
	v-41.3h6l0.3,3.1h0.1c0.8-1.1,1.9-2,3.3-2.7c1.3-0.7,2.9-1.1,4.6-1.1c1.5,0,3,0.3,4.5,0.8c1.5,0.6,2.8,1.4,3.9,2.6
	c1.1,1.2,2,2.6,2.7,4.4c0.7,1.8,1,3.9,1,6.4c0,2.6-0.4,4.8-1.1,6.7c-0.7,1.9-1.7,3.5-2.9,4.7s-2.5,2.2-4,2.7
	C825.5,154.7,824.1,155,822.5,155z M821.6,131.2c-1.2,0-2.3,0.3-3.4,0.9c-1.1,0.6-2,1.3-2.8,2.3v12.4c0.3,0.3,0.6,0.7,1,1
	s0.9,0.6,1.4,0.9c0.5,0.3,1,0.5,1.7,0.7c0.6,0.2,1.2,0.3,1.9,0.3c1.1,0,2-0.2,2.8-0.7s1.5-1.1,2.1-1.9c0.5-0.8,1-1.8,1.3-2.9
	c0.3-1.1,0.4-2.4,0.4-3.8c0-1.5-0.1-2.8-0.4-3.9c-0.3-1.1-0.7-2.1-1.3-2.8c-0.5-0.7-1.2-1.3-2-1.7
	C823.4,131.4,822.6,131.2,821.6,131.2z"/>
<path class="st4" d="M867.5,140.4c0,2.2-0.3,4.2-1,6s-1.6,3.3-2.8,4.6s-2.7,2.3-4.4,3s-3.7,1-5.8,1c-2.2,0-4.1-0.4-5.9-1
	c-1.7-0.7-3.2-1.7-4.4-3s-2.1-2.8-2.8-4.6c-0.6-1.8-1-3.8-1-6s0.3-4.2,1-6s1.6-3.3,2.8-4.6s2.7-2.3,4.4-3s3.7-1,5.8-1
	c2.2,0,4.1,0.4,5.9,1c1.7,0.7,3.2,1.7,4.4,3s2.1,2.8,2.8,4.6S867.5,138.2,867.5,140.4z M860.5,140.4c0-1.5-0.2-2.8-0.5-3.9
	c-0.3-1.1-0.8-2.1-1.4-2.8c-0.6-0.8-1.4-1.3-2.2-1.7s-1.8-0.6-2.8-0.6s-1.9,0.2-2.8,0.6c-0.9,0.4-1.6,1-2.2,1.7
	c-0.6,0.8-1.1,1.7-1.4,2.8c-0.3,1.1-0.5,2.4-0.5,3.9s0.2,2.8,0.5,3.9c0.3,1.1,0.8,2.1,1.5,2.8c0.6,0.8,1.4,1.3,2.2,1.7
	c0.9,0.4,1.8,0.6,2.8,0.6s1.9-0.2,2.8-0.6c0.8-0.4,1.6-1,2.2-1.7c0.6-0.8,1.1-1.7,1.4-2.8C860.3,143.1,860.5,141.8,860.5,140.4z"/>
<path class="st4" d="M872.1,140.9c0-2.4,0.3-4.6,1-6.5s1.6-3.5,2.7-4.8c1.2-1.3,2.5-2.3,4-2.9s3-1,4.7-1c0.7,0,1.5,0.1,2.1,0.2
	c0.7,0.1,1.3,0.3,1.9,0.5c0.6,0.2,1.2,0.5,1.7,0.8s1,0.6,1.4,0.9h0.1c0-0.4,0-0.9,0-1.6s0-1.5,0-2.3v-11.6h6.8V146
	c0,1.8,0,3.4,0.1,4.7c0,1.3,0.1,2.5,0.1,3.5h-6.2l-0.3-3h-0.1c-0.4,0.5-0.9,0.9-1.5,1.4s-1.2,0.9-1.9,1.2s-1.4,0.6-2.2,0.8
	s-1.7,0.3-2.7,0.3c-1.5,0-3-0.3-4.4-0.8s-2.6-1.4-3.7-2.5c-1.1-1.1-2-2.6-2.6-4.4C872.5,145.5,872.1,143.4,872.1,140.9z
	 M885.6,149.6c0.7,0,1.3-0.1,1.9-0.3c0.6-0.2,1.2-0.4,1.7-0.7s1-0.6,1.4-0.9c0.4-0.3,0.8-0.7,1-1v-13.2c-0.8-0.7-1.7-1.2-2.7-1.6
	c-1-0.4-2.1-0.6-3.2-0.6c-0.7,0-1.5,0.1-2.2,0.4s-1.5,0.8-2.1,1.5s-1.2,1.6-1.6,2.9c-0.4,1.2-0.6,2.8-0.6,4.7c0,2.8,0.5,5,1.6,6.6
	C881.9,148.7,883.5,149.5,885.6,149.6z"/>
<path class="st4" d="M920.8,149.5c1.3,0,2.7-0.1,4.1-0.4c1.4-0.3,2.9-0.7,4.4-1.2v5.4c-0.9,0.4-2.2,0.7-4.1,1.1
	c-1.8,0.3-3.7,0.5-5.7,0.5s-3.9-0.3-5.6-0.8c-1.8-0.5-3.3-1.3-4.6-2.5c-1.3-1.1-2.4-2.6-3.1-4.4c-0.8-1.8-1.2-4-1.2-6.6
	c0-2.5,0.4-4.7,1.1-6.6c0.7-1.9,1.7-3.5,2.9-4.7s2.6-2.2,4.2-2.8c1.6-0.6,3.2-0.9,4.9-0.9c1.8,0,3.4,0.3,4.9,0.8s2.8,1.4,3.9,2.5
	c1.1,1.2,1.9,2.6,2.5,4.4c0.6,1.8,0.9,4,0.9,6.4c0,1,0,1.8-0.1,2.4H912c0.1,1.3,0.4,2.4,0.9,3.3c0.5,0.9,1.1,1.6,1.9,2.2
	c0.8,0.6,1.7,1,2.7,1.2C918.5,149.4,919.6,149.5,920.8,149.5z M918,131c-0.9,0-1.6,0.2-2.3,0.5s-1.3,0.7-1.7,1.3
	c-0.5,0.5-0.9,1.2-1.2,1.9s-0.5,1.5-0.6,2.3h11c0-0.8-0.1-1.6-0.3-2.3s-0.5-1.4-1-1.9c-0.4-0.5-1-1-1.6-1.3
	C919.7,131.2,918.9,131,918,131z"/>
<path class="st4" d="M206.6,202.4c0-0.6-0.2-1.1-0.5-1.5s-0.8-0.7-1.3-1c-0.6-0.3-1.2-0.5-1.9-0.7s-1.5-0.4-2.3-0.6
	c-1-0.3-2-0.6-2.9-0.9c-0.9-0.4-1.7-0.8-2.4-1.4c-0.7-0.6-1.3-1.3-1.7-2.2s-0.6-1.9-0.6-3.2c0-1.6,0.3-2.9,0.8-4
	c0.6-1.1,1.3-2.1,2.3-2.8c0.9-0.7,2.1-1.3,3.3-1.7c1.3-0.4,2.6-0.5,4-0.5c1.7,0,3.3,0.1,4.8,0.4c1.5,0.3,2.8,0.6,4.1,1.1v5.6
	c-0.6-0.2-1.3-0.4-2-0.6c-0.7-0.2-1.4-0.3-2.1-0.5s-1.4-0.2-2.1-0.3c-0.7-0.1-1.4-0.1-2-0.1c-0.8,0-1.5,0.1-2,0.2
	c-0.6,0.2-1,0.4-1.4,0.6c-0.3,0.3-0.6,0.6-0.7,0.9c-0.2,0.3-0.2,0.7-0.2,1.1c0,0.6,0.2,1.2,0.5,1.6c0.3,0.4,0.8,0.7,1.4,1
	c0.6,0.2,1.2,0.5,1.9,0.6c0.7,0.2,1.3,0.3,1.9,0.5c1,0.2,1.9,0.5,2.9,0.8s1.8,0.8,2.6,1.4c0.8,0.6,1.4,1.3,1.9,2.3
	c0.5,0.9,0.7,2.1,0.7,3.6c0,1.6-0.3,2.9-0.9,4.1c-0.6,1.2-1.4,2.1-2.5,2.9c-1.1,0.8-2.3,1.4-3.8,1.7c-1.5,0.4-3.1,0.6-4.9,0.6
	c-1.8,0-3.4-0.1-4.8-0.4c-1.4-0.3-2.6-0.6-3.5-1.1v-5.5c1.5,0.6,2.9,0.9,4.1,1.1c1.3,0.2,2.4,0.3,3.5,0.3c0.8,0,1.6-0.1,2.4-0.2
	c0.7-0.1,1.4-0.3,1.9-0.6s0.9-0.6,1.3-1C206.5,203.5,206.6,203,206.6,202.4z"/>
<path class="st4" d="M233.6,205.7c1.3,0,2.7-0.1,4.1-0.4c1.4-0.3,2.9-0.7,4.4-1.2v5.4c-0.9,0.4-2.2,0.7-4.1,1.1
	c-1.8,0.3-3.7,0.5-5.7,0.5s-3.9-0.3-5.6-0.8c-1.8-0.5-3.3-1.3-4.6-2.5c-1.3-1.1-2.4-2.6-3.1-4.4c-0.8-1.8-1.2-4-1.2-6.6
	c0-2.5,0.4-4.7,1.1-6.6c0.7-1.9,1.7-3.5,2.9-4.7s2.6-2.2,4.2-2.8c1.6-0.6,3.2-0.9,4.9-0.9c1.8,0,3.4,0.3,4.9,0.8s2.8,1.4,3.9,2.5
	c1.1,1.2,1.9,2.6,2.5,4.4c0.6,1.8,0.9,4,0.9,6.4c0,1,0,1.8-0.1,2.4h-18.3c0.1,1.3,0.4,2.4,0.9,3.3c0.5,0.9,1.1,1.6,1.9,2.2
	c0.8,0.6,1.7,1,2.7,1.2C231.3,205.6,232.4,205.7,233.6,205.7z M230.9,187.2c-0.9,0-1.6,0.2-2.3,0.5s-1.3,0.7-1.7,1.3
	c-0.5,0.5-0.9,1.2-1.2,1.9s-0.5,1.5-0.6,2.3h11c0-0.8-0.1-1.6-0.3-2.3s-0.5-1.4-1-1.9c-0.4-0.5-1-1-1.6-1.3
	C232.5,187.4,231.7,187.2,230.9,187.2z"/>
<path class="st4" d="M266,188h-0.6c-2.1,0-3.9,0.3-5.5,0.9c-1.6,0.6-2.8,1.6-3.7,2.9v18.7h-6.8v-27.9h5.6l0.6,3.9h0.1
	c0.8-1.4,1.9-2.5,3.3-3.4c1.4-0.8,3.1-1.2,5.1-1.2c0.7,0,1.3,0,1.8,0.1v6H266z"/>
<path class="st4" d="M294.5,202.4c0-0.6-0.2-1.1-0.5-1.5s-0.8-0.7-1.3-1c-0.6-0.3-1.2-0.5-1.9-0.7s-1.5-0.4-2.3-0.6
	c-1-0.3-2-0.6-2.9-0.9s-1.7-0.8-2.4-1.4c-0.7-0.6-1.3-1.3-1.7-2.2c-0.4-0.9-0.6-1.9-0.6-3.2c0-1.6,0.3-2.9,0.8-4
	c0.6-1.1,1.3-2.1,2.3-2.8c0.9-0.7,2.1-1.3,3.3-1.7c1.3-0.4,2.6-0.5,4-0.5c1.7,0,3.3,0.1,4.8,0.4c1.5,0.3,2.8,0.6,4.1,1.1v5.6
	c-0.6-0.2-1.3-0.4-2-0.6c-0.7-0.2-1.4-0.3-2.1-0.5s-1.4-0.2-2.1-0.3s-1.4-0.1-2-0.1c-0.8,0-1.5,0.1-2,0.2c-0.6,0.2-1,0.4-1.4,0.6
	c-0.3,0.3-0.6,0.6-0.7,0.9c-0.2,0.3-0.2,0.7-0.2,1.1c0,0.6,0.2,1.2,0.5,1.6c0.3,0.4,0.8,0.7,1.4,1c0.6,0.2,1.2,0.5,1.9,0.6
	c0.7,0.2,1.3,0.3,1.9,0.5c1,0.2,1.9,0.5,2.9,0.8s1.8,0.8,2.6,1.4c0.8,0.6,1.4,1.3,1.9,2.3c0.5,0.9,0.7,2.1,0.7,3.6
	c0,1.6-0.3,2.9-0.9,4.1c-0.6,1.2-1.4,2.1-2.5,2.9c-1.1,0.8-2.3,1.4-3.8,1.7c-1.5,0.4-3.1,0.6-4.9,0.6s-3.4-0.1-4.8-0.4
	c-1.4-0.3-2.6-0.6-3.5-1.1v-5.5c1.5,0.6,2.9,0.9,4.1,1.1c1.3,0.2,2.4,0.3,3.5,0.3c0.8,0,1.6-0.1,2.4-0.2c0.7-0.1,1.4-0.3,1.9-0.6
	s0.9-0.6,1.3-1C294.4,203.5,294.5,203,294.5,202.4z"/>
<path class="st4" d="M321.5,205.7c1.3,0,2.7-0.1,4.1-0.4c1.4-0.3,2.9-0.7,4.4-1.2v5.4c-0.9,0.4-2.2,0.7-4.1,1.1
	c-1.8,0.3-3.7,0.5-5.7,0.5s-3.9-0.3-5.6-0.8c-1.8-0.5-3.3-1.3-4.6-2.5c-1.3-1.1-2.4-2.6-3.1-4.4c-0.8-1.8-1.2-4-1.2-6.6
	c0-2.5,0.4-4.7,1.1-6.6c0.7-1.9,1.7-3.5,2.9-4.7c1.2-1.2,2.6-2.2,4.2-2.8s3.2-0.9,4.9-0.9c1.8,0,3.4,0.3,4.9,0.8s2.8,1.4,3.9,2.5
	c1.1,1.2,1.9,2.6,2.5,4.4c0.6,1.8,0.9,4,0.9,6.4c0,1,0,1.8-0.1,2.4h-18.3c0.1,1.3,0.4,2.4,0.9,3.3c0.5,0.9,1.1,1.6,1.9,2.2
	c0.8,0.6,1.7,1,2.7,1.2C319.2,205.6,320.3,205.7,321.5,205.7z M318.8,187.2c-0.9,0-1.6,0.2-2.3,0.5c-0.7,0.3-1.3,0.7-1.7,1.3
	c-0.5,0.5-0.9,1.2-1.2,1.9c-0.3,0.7-0.5,1.5-0.6,2.3h11c0-0.8-0.1-1.6-0.3-2.3c-0.2-0.7-0.5-1.4-1-1.9c-0.4-0.5-1-1-1.6-1.3
	C320.4,187.4,319.6,187.2,318.8,187.2z"/>
<path class="st4" d="M349.7,211.2c-2.8,0-5.1-0.5-7-1.4c-1.8-0.9-3.2-2.2-4.2-3.8c-0.5-0.9-0.9-1.8-1.1-2.8s-0.4-2.2-0.4-3.5v-17
	h6.8V199c0,0.9,0.1,1.8,0.2,2.4c0.1,0.7,0.3,1.3,0.6,1.8c0.5,0.8,1.1,1.5,2,1.9c0.8,0.4,1.9,0.6,3,0.6c1.2,0,2.3-0.2,3.1-0.7
	c0.9-0.5,1.5-1.2,2-2.1c0.4-0.9,0.7-2.2,0.7-3.8v-16.5h6.8v17c0,2.3-0.4,4.2-1.2,5.7c-0.4,0.9-1,1.7-1.7,2.4s-1.5,1.3-2.5,1.8
	c-0.9,0.5-2,0.9-3.2,1.2C352.5,211.1,351.1,211.2,349.7,211.2z"/>
<g id="freepik--background-simple--inject-2">
	<path class="st5" d="M1324.9,337.7c0,0,18.6-33.8,17.9-88.9s-33.8-106.8-74.4-121.3c-40.7-14.5-76.5,4.1-124.8,6.2
		c-48.3,2.1-76.5-58.6-145.5-29.6s-68.9,87.5-57.2,115.8s33.8,42,9.7,62c-24.1,20-47.6,32.4-54.5,40c-4.1,4.4-6.7,9.9-7.6,15.9
		H1324.9z"/>
	<path class="st6" d="M1324.9,337.7c0,0,18.6-33.8,17.9-88.9s-33.8-106.8-74.4-121.3c-40.7-14.5-76.5,4.1-124.8,6.2
		c-48.3,2.1-76.5-58.6-145.5-29.6s-68.9,87.5-57.2,115.8s33.8,42,9.7,62c-24.1,20-47.6,32.4-54.5,40c-4.1,4.4-6.7,9.9-7.6,15.9
		H1324.9z"/>
</g>
<g id="freepik--Coins--inject-2">
	<g class="st7">
		<path class="st8" d="M1076.2,52.5c-9.3,0-16.9,7.6-16.9,16.9c0,9.3,7.6,16.9,16.9,16.9c9.3,0,16.9-7.6,16.9-16.9
			C1093.1,60.1,1085.5,52.5,1076.2,52.5L1076.2,52.5z M1077.9,79.7v1.6h-2.9v-1.6c-2.5-0.5-3.8-2.4-3.8-5.5v-1.5h3.3v1.7
			c0,1.6,0.7,2.2,1.8,2.2s1.8-0.6,1.8-2.2c0-4.6-6.8-4.8-6.8-11.2c0-3,1.2-4.9,3.7-5.4v-1.7h2.9v1.7c2.5,0.5,3.8,2.4,3.8,5.4V64
			h-3.3V63c0-1.6-0.6-2.2-1.8-2.2s-1.8,0.6-1.8,2.2c0,4.6,6.8,4.8,6.8,11.2C1081.7,77.2,1080.4,79.2,1077.9,79.7L1077.9,79.7z"/>
		<path class="st8" d="M1076.2,45.7c-13.1,0-23.7,10.6-23.7,23.6s10.6,23.7,23.6,23.7c13.1,0,23.7-10.6,23.7-23.6c0,0,0,0,0,0
			C1099.8,56.3,1089.3,45.7,1076.2,45.7z M1076.2,88.8c-10.7,0-19.4-8.7-19.4-19.4c0-10.7,8.7-19.4,19.4-19.4s19.4,8.7,19.4,19.4
			c0,0,0,0,0,0C1095.6,80.1,1086.9,88.8,1076.2,88.8z"/>
	</g>
	<g class="st7">
		<path class="st8" d="M1216.8,55.6c-6.8,0-12.3,5.5-12.3,12.3c0,6.8,5.5,12.3,12.3,12.3c6.8,0,12.3-5.5,12.3-12.3
			C1229.1,61.1,1223.6,55.6,1216.8,55.6z M1218,75.4v1.2h-2.1v-1.2c-1.8-0.4-2.8-1.8-2.8-4v-1.1h2.4v1.3c0,1.2,0.5,1.6,1.3,1.6
			c0.8,0,1.3-0.4,1.3-1.6c0-3.4-5-3.5-5-8.2c0-2.2,0.9-3.6,2.7-4v-1.2h2.1v1.2c1.8,0.4,2.8,1.8,2.8,4V64h-2.4v-0.7
			c0-1.2-0.5-1.6-1.3-1.6s-1.3,0.4-1.3,1.6c0,3.4,5,3.5,5,8.2C1220.8,73.7,1219.8,75.1,1218,75.4z"/>
		<path class="st8" d="M1216.8,50.6c-9.6,0-17.3,7.7-17.3,17.3s7.7,17.3,17.3,17.3c9.6,0,17.3-7.7,17.3-17.3
			S1226.3,50.6,1216.8,50.6L1216.8,50.6z M1216.8,82.1c-7.9,0-14.2-6.4-14.2-14.2s6.4-14.2,14.2-14.2c7.9,0,14.2,6.4,14.2,14.2
			c0,0,0,0,0,0C1231,75.7,1224.6,82.1,1216.8,82.1z"/>
	</g>
	<g class="st7">
		<path class="st8" d="M958.9,165c-6.8,0-12.3,5.5-12.3,12.3s5.5,12.3,12.3,12.3s12.3-5.5,12.3-12.3l0,0
			C971.3,170.5,965.7,165,958.9,165z M960.2,184.9v1.2h-2.1v-1.2c-1.8-0.4-2.8-1.8-2.8-4v-1.1h2.4v1.3c0,1.2,0.5,1.6,1.3,1.6
			c0.8,0,1.3-0.4,1.3-1.6c0-3.4-5-3.5-5-8.2c0-2.2,0.9-3.6,2.7-4v-1.2h2.1v1.2c1.8,0.4,2.8,1.8,2.8,4v0.5h-2.4v-0.7
			c0-1.2-0.5-1.6-1.3-1.6c-0.8,0-1.3,0.4-1.3,1.6c0,3.4,5,3.5,5,8.2C962.9,183.1,962,184.5,960.2,184.9z"/>
		<path class="st8" d="M958.9,160c-9.6,0-17.3,7.8-17.3,17.3s7.8,17.3,17.3,17.3c9.6,0,17.3-7.8,17.3-17.3
			C976.2,167.8,968.5,160,958.9,160z M958.9,191.6c-7.9,0-14.2-6.4-14.2-14.2c0-7.9,6.4-14.2,14.2-14.2s14.2,6.4,14.2,14.2l0,0
			C973.1,185.2,966.8,191.6,958.9,191.6z"/>
	</g>
	<g class="st7">
		<path class="st8" d="M1379.1,151.3c-6.8,0-12.3,5.5-12.3,12.3c0,6.8,5.5,12.3,12.3,12.3c6.8,0,12.3-5.5,12.3-12.3c0,0,0,0,0,0
			C1391.4,156.8,1385.9,151.3,1379.1,151.3z M1380.4,171.2v1.2h-2.1v-1.2c-1.8-0.4-2.8-1.8-2.8-4V166h2.4v1.3c0,1.2,0.5,1.6,1.3,1.6
			c0.8,0,1.3-0.4,1.3-1.6c0-3.4-5-3.5-5-8.2c0-2.2,0.9-3.6,2.7-4V154h2.1v1.2c1.8,0.4,2.8,1.8,2.8,4v0.5h-2.4V159
			c0-1.2-0.5-1.6-1.3-1.6c-0.8,0-1.3,0.4-1.3,1.6c0,3.4,5,3.5,5,8.2C1383.1,169.4,1382.2,170.8,1380.4,171.2z"/>
		<path class="st8" d="M1379.1,146.3c-9.6,0-17.3,7.7-17.3,17.3s7.7,17.3,17.3,17.3c9.6,0,17.3-7.7,17.3-17.3l0,0
			C1396.4,154.1,1388.7,146.3,1379.1,146.3z M1379.1,177.8c-7.9,0-14.2-6.3-14.2-14.2c0-7.9,6.3-14.2,14.2-14.2
			c7.9,0,14.2,6.3,14.2,14.2c0,0,0,0,0,0C1393.3,171.5,1386.9,177.8,1379.1,177.8L1379.1,177.8z"/>
	</g>
</g>
<g id="freepik--Floor--inject-2">
	<line class="st9" x1="930.7" y1="296.1" x2="1389.8" y2="296.1"/>
</g>
<g id="freepik--Plants--inject-2">
	<path class="st10" d="M958.1,235.5c2.1,0.9,7,0.8,7,0.8s-1.1-3.3-1.2-3.4c-1.1-2.3-4.5-6.1-7.4-5.7c-1.8,0.3-3.1,2-2.8,3.9
		c0,0.1,0,0.2,0.1,0.3C954.4,233.3,956.4,234.7,958.1,235.5z"/>
	<path class="st10" d="M959.8,249.9c2.1,0.3,6.6-1,6.9-1.1c0.7,2.5,1.6,5,2.7,7.5c0.6,1.4,1.3,2.8,2,4.2c-0.4-0.6-0.8-1.1-0.8-1.2
		c-1.7-1.9-6-4.7-8.6-3.5c-1.7,0.8-2.4,2.8-1.7,4.4c0.1,0.1,0.1,0.2,0.2,0.3c1,1.8,3.3,2.6,5.2,2.9c1.9,0.3,5.7-0.7,6.7-1l0.8,1.6
		c1.3,2.6,2.6,5.1,3.8,7.7c0.4,0.9,0.8,1.8,1.2,2.7c-0.4-0.5-0.7-1-0.7-1c-1.7-1.9-6-4.7-8.6-3.5c-1.7,0.8-2.4,2.8-1.7,4.5
		c0.1,0.1,0.1,0.2,0.2,0.3c1,1.8,3.3,2.6,5.1,2.9s5.3-0.7,6.5-1c0.4,0.9,0.7,1.9,1,2.8c0.2,0.6,0.4,1.2,0.6,1.9
		c0.2,0.6,0.4,1.3,0.5,1.9c0.3,1.2,0.6,2.5,0.9,3.7c0.2,0.8,0.3,1.6,0.5,2.4c-0.4-0.9-1.2-2.6-1.3-2.8c-1.4-2.2-5.2-5.5-8-4.8
		c-1.8,0.5-2.8,2.4-2.3,4.2c0,0.1,0.1,0.2,0.1,0.3c0.7,1.9,2.8,3.1,4.7,3.6c2,0.6,6.4,0.1,7,0c0.3,1.3,0.5,2.6,0.7,3.8
		c0.2,0.9,0.3,1.8,0.4,2.6h1.8c-0.2-0.9-0.4-1.9-0.6-2.9c-0.3-1.3-0.6-2.8-0.9-4.2c1.3-0.5,2.6-1.1,3.9-1.8c1.5,1.6,5.2,3.4,5.7,3.7
		c-0.5,1.2-1,2.5-1.5,3.6c-0.3,0.6-0.5,1.2-0.8,1.7h1.9l0.4-1.1c0.5-1.3,1.1-2.6,1.6-4c0.5,0.1,4.9,1,6.9,0.5
		c1.8-0.4,4.1-1.5,4.9-3.3c0.8-1.7,0.1-3.7-1.5-4.5c-0.1-0.1-0.2-0.1-0.3-0.1c-2.7-0.9-6.8,2.2-8.3,4.2c-0.1,0.1-0.9,1.5-1.4,2.4
		c0.2-0.6,0.4-1.1,0.6-1.7c0.4-1.2,0.8-2.4,1.3-3.6c0.2-0.6,0.4-1.2,0.6-1.9c0.2-0.6,0.3-1.3,0.5-2c0.4-1.5,0.7-3.1,0.9-4.7
		c1,0.4,4.7,1.6,6.6,1.5c1.9-0.1,4.3-0.8,5.4-2.5c1.1-1.5,0.7-3.6-0.8-4.7c-0.1-0.1-0.2-0.1-0.3-0.2c-2.5-1.3-7.1,1.1-8.8,2.9
		c-0.1,0.1-1.3,1.5-1.9,2.3c0.2-1,0.3-1.9,0.4-2.9c0.4-2.8,0.6-5.7,0.9-8.5c0.1-0.9,0.2-1.7,0.3-2.6c0.4,0.1,4.7,1.7,6.8,1.6
		c1.9-0.1,4.3-0.8,5.3-2.5c1.1-1.5,0.7-3.6-0.8-4.7c-0.1-0.1-0.2-0.1-0.3-0.2c-2.5-1.3-7,1.1-8.8,2.9c-0.1,0.1-1.8,2.2-2.2,2.8
		c0.2-1.9,0.4-3.8,0.7-5.7c0.4-2.5,0.9-5,1.6-7.5c0.2,0.1,4.7,1.8,6.9,1.6c1.9-0.1,4.3-0.8,5.4-2.5c1.1-1.5,0.7-3.6-0.8-4.7
		c-0.1-0.1-0.2-0.1-0.3-0.2c-2.5-1.3-7.1,1.1-8.9,2.9c-0.1,0.1-1.9,2.4-2.2,2.8c0-0.1,0.1-0.3,0.1-0.4c0.8-2.5,1.8-4.8,3-7.1
		c0.6-1.3,1.3-2.4,2.1-3.6c0.8,0.4,4.5,2.2,6.5,2.3c2,0.1,4.3-0.4,5.6-1.9c1.2-1.4,1.1-3.5-0.3-4.7c-0.1-0.1-0.2-0.2-0.3-0.2
		c-2.4-1.6-7.1,0.3-9.1,1.9c-0.1,0.1-1.1,1.1-1.8,1.8c0.3-0.5,0.6-1,1-1.5c1.2-1.8,2.4-3.4,3.4-4.7c0.6-0.8,1.2-1.5,1.7-2.1
		c1,0,5-0.1,6.8-1c1.8-0.8,3.7-2.3,4.1-4.3c0.4-1.8-0.7-3.6-2.5-4.1c-0.1,0-0.2-0.1-0.3-0.1c-2.8-0.3-6.2,3.6-7.2,5.9
		c-0.1,0.2-1.1,3.5-1.1,3.5h0.1c-0.5,0.6-1.1,1.3-1.7,2c-1.1,1.4-2.3,2.9-3.6,4.7c-1.3,1.9-2.6,3.9-3.7,5.9
		c-1.3,2.3-2.3,4.7-3.2,7.1c0,0,0,0.1,0,0.1c0-0.8,0-3.2,0-3.3c-0.3-2.5-2.4-7.2-5.2-7.7c-1.8-0.3-3.5,1-3.8,2.8c0,0.1,0,0.2,0,0.4
		c-0.2,2,1.3,4,2.7,5.3c1.6,1.4,6,2.8,6.4,2.9c-0.8,2.5-1.4,5.1-1.9,7.7c-0.3,1.5-0.5,3.1-0.7,4.6c0-0.7,0-1.4,0-1.5
		c-0.3-2.5-2.4-7.2-5.2-7.7c-1.8-0.3-3.5,1-3.8,2.8c0,0.1,0,0.2,0,0.4c-0.2,2,1.3,4,2.7,5.3s5.2,2.5,6.2,2.8
		c-0.1,0.6-0.2,1.2-0.2,1.8c-0.3,2.9-0.7,5.7-1.1,8.5c-0.1,1-0.3,1.9-0.5,2.9c0-0.6,0-1.2,0-1.3c-0.3-2.5-2.4-7.2-5.2-7.7
		c-1.8-0.3-3.6,1-3.8,2.8c0,0.1,0,0.2,0,0.4c-0.2,2,1.3,4,2.7,5.3c1.4,1.3,4.8,2.4,6,2.8c-0.2,1-0.4,2-0.7,2.9
		c-0.2,0.6-0.3,1.3-0.5,1.9c-0.2,0.6-0.4,1.2-0.6,1.9c-0.4,1.2-0.9,2.4-1.3,3.5c-0.3,0.8-0.6,1.5-0.9,2.3c0.2-1,0.4-2.9,0.4-3.1
		c0-2.2-0.6-4.4-1.8-6.3c0-0.2,0-0.5,0-0.7c-0.2-1.8-1.9-3.1-3.7-2.9c-0.1,0-0.3,0-0.4,0.1c-2.8,0.7-4.5,5.5-4.6,8.1
		c0,0.2,0.1,1.8,0.2,2.8c-0.1-0.6-0.3-1.2-0.4-1.8c-0.3-1.2-0.6-2.4-1-3.7c-0.2-0.6-0.4-1.2-0.6-1.9c-0.2-0.6-0.4-1.3-0.7-1.9
		c-0.5-1.5-1.2-3-1.8-4.4c1.1-0.3,4.8-1.2,6.3-2.4c1.5-1.2,3.1-3,3.1-5c0.1-1.9-1.4-3.4-3.3-3.5c-0.1,0-0.2,0-0.4,0
		c-2.8,0.3-5.3,4.8-5.8,7.3c0,0.2-0.2,2-0.3,3c-0.4-0.9-0.8-1.8-1.2-2.6c-1.3-2.5-2.6-5.1-4-7.6c-0.4-0.8-0.8-1.6-1.2-2.3
		c0.4-0.1,4.9-1.1,6.6-2.4c1.5-1.2,3.1-3,3.1-5c0.1-1.9-1.4-3.4-3.3-3.5c-0.1,0-0.2,0-0.4,0c-2.8,0.3-5.3,4.8-5.8,7.3
		c0,0.2-0.3,2.8-0.3,3.5c-0.9-1.7-1.8-3.4-2.6-5.2c-1.1-2.3-2-4.7-2.8-7.2c0.2,0,4.9-1.1,6.6-2.4c1.5-1.2,3.1-3,3.1-5
		c0.1-1.9-1.4-3.4-3.3-3.5c-0.1,0-0.3,0-0.4,0c-2.8,0.3-5.3,4.8-5.8,7.3c0,0.2-0.3,3-0.3,3.5c0-0.1-0.1-0.3-0.1-0.4
		c-0.7-2.5-1.2-5-1.4-7.6c-0.2-1.4-0.2-2.8-0.3-4.1c0.9-0.1,5-0.6,6.7-1.7s3.4-2.7,3.6-4.7c0.3-1.8-1-3.5-2.8-3.8
		c-0.1,0-0.3,0-0.4,0c-2.8,0-5.8,4.2-6.6,6.6c0,0.1-0.3,1.5-0.5,2.5c0-0.6,0-1.2,0-1.8c0-2.1,0.1-4.1,0.3-5.9c0.1-1,0.2-1.9,0.3-2.7
		c0.8-0.6,4.1-2.9,5.1-4.5c1-1.7,1.8-3.9,1.1-5.8c-0.6-1.7-2.5-2.7-4.3-2c-0.1,0-0.2,0.1-0.3,0.1c-2.5,1.3-3.2,6.4-2.8,8.9
		c0,0.2,1,3.5,1,3.5h0c-0.1,0.8-0.2,1.7-0.3,2.6c-0.2,1.7-0.4,3.7-0.4,5.9c-0.1,2.3,0,4.7,0.2,7c0.2,2.6,0.6,5.2,1.3,7.7v0.1
		c-0.4-0.7-1.8-2.6-1.9-2.8c-1.7-1.9-6-4.7-8.6-3.5c-1.7,0.8-2.4,2.8-1.7,4.5c0,0.1,0.1,0.2,0.2,0.3
		C955.6,248.8,958,249.6,959.8,249.9z"/>
	<path class="st10" d="M1008.5,236.6c0,0,0.9-3.3,0.9-3.5c0.4-2.5-0.5-7.6-3-8.8c-1.7-0.8-3.7,0-4.4,1.7c-0.1,0.1-0.1,0.2-0.1,0.3
		c-0.7,1.9,0.2,4.2,1.2,5.8C1004.3,233.9,1008.5,236.6,1008.5,236.6z"/>
	<path class="st10" d="M1303,214.8c2.8,1.2,9.4,1,9.4,1c0,0-1.4-4.4-1.6-4.6c-1.5-3.1-6.1-8.1-9.9-7.6c-2.5,0.4-4.1,2.7-3.7,5.2
		c0,0.2,0.1,0.3,0.1,0.5C1298,211.8,1300.7,213.7,1303,214.8z"/>
	<path class="st10" d="M1305.3,234.1c2.8,0.4,8.8-1.3,9.3-1.5c1,3.4,2.2,6.8,3.6,10c0.8,1.9,1.7,3.8,2.6,5.7c-0.5-0.8-1-1.5-1.1-1.6
		c-2.2-2.6-8-6.2-11.6-4.7c-2.3,1-3.3,3.7-2.2,6c0.1,0.1,0.1,0.3,0.2,0.4c1.3,2.4,4.4,3.5,6.9,3.9c2.5,0.4,7.7-1,9-1.4
		c0.4,0.7,0.7,1.4,1.1,2.2c1.7,3.4,3.4,6.9,5.1,10.3c0.6,1.2,1.1,2.4,1.6,3.6c-0.5-0.7-0.9-1.3-1-1.4c-2.2-2.6-8-6.2-11.5-4.7
		c-2.3,1-3.3,3.7-2.2,6c0.1,0.2,0.1,0.3,0.2,0.4c1.3,2.4,4.4,3.5,6.9,3.9c2.5,0.4,7.2-0.9,8.8-1.3c0.5,1.2,1,2.5,1.4,3.7
		c0.3,0.8,0.6,1.6,0.8,2.5s0.5,1.7,0.7,2.5c0.4,1.6,0.8,3.3,1.1,4.9c0.2,1.1,0.5,2.2,0.7,3.2c-0.6-1.2-1.7-3.5-1.8-3.7
		c-1.8-2.9-7-7.4-10.7-6.4c-2.4,0.7-3.8,3.2-3.1,5.6c0,0.2,0.1,0.3,0.2,0.5c0.9,2.5,3.8,4.1,6.2,4.9c2.7,0.8,8.6,0.1,9.3,0
		c0.4,1.8,0.7,3.5,1,5.1c0.2,1.2,0.4,2.4,0.6,3.5h2.4c-0.2-1.2-0.5-2.5-0.7-3.9c-0.4-1.8-0.8-3.7-1.2-5.7c1.8-0.7,3.5-1.5,5.2-2.4
		c2,2.1,6.9,4.6,7.6,4.9c-0.7,1.7-1.4,3.3-2,4.8c-0.4,0.8-0.7,1.6-1,2.3h2.5c0.2-0.5,0.4-0.9,0.6-1.4c0.7-1.7,1.4-3.5,2.1-5.4
		c0.7,0.2,6.6,1.3,9.3,0.7c2.5-0.6,5.5-2,6.6-4.4c1.1-2.2,0.2-4.9-2.1-6c-0.1-0.1-0.3-0.1-0.4-0.2c-3.6-1.2-9.1,2.9-11.1,5.6
		c-0.1,0.2-1.2,2.1-1.9,3.3c0.3-0.8,0.6-1.5,0.9-2.3c0.6-1.6,1.1-3.2,1.7-4.9l0.8-2.5c0.3-0.8,0.4-1.8,0.7-2.6
		c0.5-2.1,0.9-4.2,1.2-6.3c1.4,0.5,6.3,2.2,8.8,2c2.5-0.2,5.7-1.1,7.2-3.4c1.4-2,0.9-4.9-1.1-6.3c-0.1-0.1-0.3-0.2-0.4-0.3
		c-3.4-1.8-9.5,1.5-11.9,3.9c-0.2,0.1-1.7,2.1-2.5,3.1c0.2-1.3,0.4-2.6,0.6-3.9c0.5-3.8,0.8-7.6,1.2-11.4c0.1-1.2,0.2-2.3,0.4-3.5
		c0.5,0.2,6.3,2.3,9.1,2.1c2.5-0.2,5.7-1.1,7.2-3.4c1.4-2,0.9-4.9-1.1-6.3c-0.1-0.1-0.3-0.2-0.4-0.3c-3.4-1.7-9.5,1.5-11.9,3.9
		c-0.2,0.2-2.4,2.9-2.9,3.7c0.3-2.6,0.6-5.1,1-7.7c0.5-3.4,1.2-6.8,2.2-10.1c0.2,0.1,6.3,2.4,9.2,2.2c2.5-0.2,5.7-1.1,7.2-3.4
		c1.4-2,0.9-4.9-1.1-6.3c-0.1-0.1-0.3-0.2-0.4-0.3c-3.4-1.8-9.5,1.5-11.9,3.9c-0.2,0.2-2.6,3.2-3,3.7c0.1-0.2,0.1-0.4,0.2-0.6
		c1.1-3.3,2.4-6.5,4.1-9.6c0.9-1.7,1.8-3.3,2.8-4.8c1.1,0.5,6.1,3,8.7,3.1c2.5,0.1,5.8-0.5,7.5-2.6c1.6-1.9,1.5-4.7-0.4-6.4
		c-0.1-0.1-0.3-0.2-0.4-0.3c-3.2-2.1-9.6,0.4-12.2,2.5c-0.1,0.1-1.5,1.5-2.4,2.4c0.4-0.7,0.9-1.4,1.3-2c1.6-2.4,3.2-4.5,4.6-6.3
		c0.8-1,1.6-2,2.3-2.8c1.3,0,6.7-0.2,9.1-1.3c2.4-1.1,4.9-3.1,5.5-5.7c0.6-2.4-0.9-4.9-3.3-5.5c-0.2,0-0.3-0.1-0.5-0.1
		c-3.8-0.4-8.3,4.8-9.7,7.9c-0.1,0.3-1.5,4.7-1.4,4.7h0.1c-0.7,0.8-1.5,1.7-2.3,2.7c-1.5,1.8-3.1,3.9-4.8,6.3
		c-1.8,2.5-3.5,5.2-5,7.9c-1.7,3.1-3.1,6.2-4.2,9.6c0,0,0,0.1,0,0.1c0-1.1,0-4.2-0.1-4.5c-0.4-3.4-3.3-9.7-7-10.3
		c-2.5-0.4-4.8,1.3-5.2,3.8c0,0.2,0,0.3,0,0.5c-0.2,2.7,1.7,5.4,3.6,7.1c2.1,1.9,8.1,3.8,8.5,3.9c-1.1,3.4-1.9,6.8-2.5,10.3
		c-0.4,2.1-0.7,4.1-0.9,6.2c0-1,0-1.8,0-1.9c-0.4-3.4-3.3-9.7-7-10.3c-2.5-0.4-4.8,1.3-5.2,3.8c0,0.2,0,0.3,0,0.5
		c-0.2,2.7,1.7,5.4,3.6,7.1c1.9,1.7,6.9,3.4,8.3,3.8c-0.1,0.8-0.2,1.6-0.3,2.4c-0.5,3.8-0.9,7.6-1.4,11.4c-0.2,1.3-0.4,2.6-0.7,3.9
		c0-0.9,0-1.6,0-1.7c-0.4-3.4-3.3-9.7-7-10.3c-2.5-0.4-4.8,1.3-5.2,3.8c0,0.2,0,0.3,0,0.5c-0.2,2.7,1.7,5.4,3.6,7.1
		c1.9,1.7,6.5,3.2,8,3.7c-0.3,1.3-0.6,2.6-0.9,3.9c-0.2,0.9-0.4,1.7-0.7,2.5c-0.3,0.8-0.5,1.7-0.8,2.5c-0.6,1.6-1.2,3.2-1.8,4.7
		c-0.4,1.1-0.8,2.1-1.2,3.1c0.2-1.3,0.6-3.9,0.6-4.1c0-3-0.8-5.9-2.3-8.5c0-0.3,0-0.7-0.1-1c-0.3-2.5-2.6-4.2-5-3.9
		c-0.2,0-0.3,0-0.5,0.1c-3.7,1-6,7.4-6.2,10.8c0,0.2,0.1,2.4,0.2,3.8c-0.2-0.8-0.4-1.6-0.6-2.4c-0.4-1.6-0.8-3.2-1.3-5
		c-0.3-0.8-0.5-1.7-0.8-2.5c-0.2-0.8-0.6-1.7-0.9-2.6c-0.7-2-1.6-4-2.4-6c1.4-0.3,6.5-1.6,8.5-3.2c2-1.6,4.1-4.1,4.1-6.8
		c0.1-2.5-1.9-4.6-4.4-4.6c-0.2,0-0.3,0-0.5,0c-3.8,0.4-7.1,6.5-7.8,9.8c0,0.2-0.3,2.7-0.4,4c-0.5-1.2-1.1-2.4-1.7-3.6
		c-1.7-3.4-3.5-6.8-5.3-10.2c-0.6-1-1.1-2.1-1.6-3.1c0.5-0.1,6.5-1.5,8.8-3.3c2-1.5,4.1-4.1,4.1-6.8c0.1-2.5-1.9-4.6-4.4-4.6
		c-0.2,0-0.3,0-0.5,0c-3.8,0.4-7.1,6.4-7.8,9.8c-0.1,0.3-0.4,3.8-0.4,4.7c-1.2-2.3-2.4-4.6-3.4-6.9c-1.4-3.1-2.7-6.3-3.7-9.6
		c0.2-0.1,6.5-1.5,8.9-3.3c2-1.6,4.1-4.1,4.1-6.8c0.1-2.5-1.9-4.6-4.4-4.6c-0.2,0-0.3,0-0.5,0c-3.8,0.4-7.1,6.4-7.8,9.8
		c0,0.3-0.4,4-0.4,4.7c-0.1-0.2-0.1-0.4-0.2-0.6c-0.9-3.3-1.6-6.7-1.9-10.2c-0.2-1.9-0.3-3.7-0.4-5.5c1.2-0.1,6.7-0.9,9-2.2
		c2.3-1.4,4.6-3.6,4.9-6.3c0.3-2.5-1.4-4.7-3.9-5.1c-0.2,0-0.3,0-0.5,0c-3.8,0-7.7,5.6-8.8,8.9c-0.1,0.2-0.4,2-0.7,3.4
		c0-0.8,0-1.6,0-2.4c0-2.9,0.2-5.5,0.4-7.9c0.1-1.3,0.2-2.5,0.4-3.6c1.1-0.8,5.5-3.9,6.9-6.1s2.4-5.3,1.4-7.8
		c-0.8-2.3-3.4-3.6-5.8-2.7c-0.2,0.1-0.3,0.1-0.4,0.2c-3.4,1.8-4.3,8.6-3.7,11.9c0.1,0.3,1.3,4.7,1.4,4.7l0.1,0
		c-0.2,1.1-0.3,2.2-0.4,3.5c-0.2,2.3-0.5,5-0.5,7.9c-0.1,3.1,0,6.2,0.2,9.3c0.3,3.5,0.8,7,1.7,10.3c0,0,0,0.1,0,0.1
		c-0.6-0.9-2.4-3.5-2.5-3.7c-2.2-2.6-8-6.2-11.5-4.7c-2.3,1-3.3,3.7-2.2,6c0.1,0.1,0.1,0.3,0.2,0.4
		C1299.7,232.6,1302.8,233.8,1305.3,234.1z"/>
	<path class="st10" d="M1370.7,216.2c0.1,0,1.2-4.4,1.3-4.7c0.5-3.4-0.6-10.2-4-11.8c-2.3-1-4.9,0-6,2.3c-0.1,0.1-0.1,0.3-0.2,0.5
		c-0.9,2.5,0.2,5.6,1.6,7.8C1365,212.7,1370.7,216.2,1370.7,216.2z"/>
	<g class="st11">
		<path class="st8" d="M998.2,165.6c4.5,1.4,15,0.1,15,0.1c0.1,0-3-6.6-3.2-7c-2.8-4.6-10.9-11.8-16.7-10.3c-4.2,1-6.1,5.5-4.8,9.5
			C989.8,161.7,994.3,164.4,998.2,165.6z"/>
		<path class="st8" d="M1065.5,235.6c2.6-2.8,4.8-6.6,4.4-10.3c-0.5-4.1-4.1-7.4-8.4-6.5c-5.9,1.3-10.1,11.3-10.6,16.6
			c0,0.3,0,4.2,0.1,6.3c-1-1.8-2.1-3.5-3.2-5.3c-3.2-5.1-6.6-10.1-10-15.2c-1-1.5-2.1-3.1-3.1-4.6c0.5-0.2,3.9-1.4,7.3-2.9"/>
		<path class="st8" d="M1058.1,255.4c-0.5-1.2-1.1-2.3-1.7-3.5c-1.5-3-3.1-6-4.8-9c3.4-1.2,6.6-2.6,9.8-4.3"/>
		<path class="st8" d="M1102.4,201c-1.5,1.1-2.8,2.3-4,3.7c-0.3,0.3-3.3,5-4,6.2c0-4.1,0.1-8.1,0.3-12.2c0.3-5.4,0.9-10.8,1.8-16.1
			c0.4,0.1,10.2,2.7,14.8,1.9c3.9-0.7,8.8-2.7,10.7-6.5c1.9-3.8,0.6-8.4-3.4-10c-5.6-2.2-14.6,3.9-18,8c-0.3,0.3-3.5,5.4-4,6.3
			c0.1-0.3,0.1-0.6,0.1-0.9c1.1-5.3,2.7-10.5,4.7-15.6c1.1-2.8,2.3-5.4,3.5-7.9c1.8,0.7,10,3.7,14.2,3.4c4-0.3,9-1.7,11.4-5.2
			c2.3-3.5,1.5-8.3-2.3-10.3c-5.3-2.8-14.9,2.2-18.8,6c-0.2,0.2-2.1,2.5-3.4,4.2c0.6-1.1,1.1-2.3,1.7-3.4c2.1-4,4.3-7.6,6.2-10.7
			c1.1-1.8,2.2-3.4,3.2-4.8c2.1-0.3,10.5-1.4,14-3.5c3.5-2.1,7.2-5.6,7.7-9.8c0.5-4.2-2.5-8.1-6.8-8.1c-6,0-12.2,8.9-13.9,14
			c-0.1,0.4-1.6,7.6-1.5,7.6h0.1c-1,1.4-2.1,2.9-3.2,4.6c-2,3.1-4.3,6.6-6.5,10.6c-2.4,4.3-4.6,8.7-6.5,13.2
			c-2.2,5.1-3.9,10.3-5.1,15.7c0,0.1,0,0.1,0,0.2c-0.2-1.8-0.7-6.6-0.8-7c-1.2-5.2-6.7-14.6-12.7-15.1c-4.3-0.3-7.6,3.3-7.5,7.5
			s3.6,8.1,6.8,10.5c3.7,2.6,13.3,4.6,14,4.7c-1.1,5.5-1.9,11-2.3,16.6c-0.2,3.3-0.4,6.5-0.5,9.9c-0.2-1.5-0.4-2.9-0.4-3.1
			c-1.2-5.2-6.7-14.6-12.7-15.1c-4.3-0.3-7.6,3.3-7.5,7.5s3.6,8.1,6.8,10.5s11.5,4.2,13.6,4.7c0,1.3-0.1,2.5-0.1,3.8
			c-0.1,6.1-0.2,12.1-0.4,18.1c-0.1,2.1-0.2,4.1-0.4,6.2c-0.2-1.4-0.3-2.5-0.4-2.6c-1.2-5.2-6.7-14.6-12.7-15.1
			c-4.3-0.3-7.6,3.4-7.5,7.5c0.1,4.1,3.6,8.1,6.8,10.5s10.7,4,13.2,4.6c-0.2,2.1-0.4,4.2-0.8,6.2c-0.2,1.4-0.4,2.8-0.7,4.1
			c-0.3,1.4-0.6,2.7-0.9,4.1c-0.6,2.6-1.3,5.2-2,7.7c-0.5,1.7-0.9,3.4-1.4,5c0.1-2.1,0.2-6.2,0.2-6.5c-0.6-4.7-2.3-9.2-5.1-13
			c0-0.5-0.1-1-0.3-1.6c-1.1-4-5.2-6.6-9.3-5.1c-5.6,2.1-8.2,12.7-7.9,18c0,0.3,0.6,3.7,1,5.9c-0.4-1.2-0.8-2.4-1.3-3.7
			c-0.9-2.5-1.8-5-2.8-7.6"/>
		<path class="st8" d="M1031.2,249.7c2,0.7,4.2,1.2,6.3,1.2c3.9,0.2,11.1-2.5,13.6-3.5c1,1.9,2,3.8,2.8,5.6c0.6,1.3,1.2,2.5,1.7,3.8
			c0.5,1.3,1,2.6,1.5,3.9c0.9,2.5,1.8,5.1,2.6,7.5c0.6,1.7,1.1,3.3,1.6,5c-1.1-1.8-3.2-5.3-3.4-5.5c-3.3-4.2-12.2-10.4-17.8-8.4
			c-4.1,1.5-5.5,6.2-3.6,9.9c1.8,3.7,6.7,5.9,10.6,6.7c4.3,0.8,13.5-1.3,14.6-1.6c0.8,2.7,1.6,5.4,2.4,7.9c0.5,1.9,1,3.7,1.5,5.4
			l3.7-0.4c-0.6-1.9-1.2-3.9-1.8-6c-0.8-2.8-1.8-5.7-2.8-8.7c2.7-1.4,5.3-3,7.8-4.7c3.4,3,11.6,6.1,12.7,6.5
			c-0.8,2.8-1.6,5.4-2.4,7.9c-0.4,1.3-0.8,2.6-1.2,3.8l3.9-0.4c0.2-0.8,0.5-1.5,0.7-2.4c0.8-2.8,1.6-5.7,2.4-8.8
			c1.2,0.1,10.5,1,14.7-0.4c3.8-1.3,8.3-4,9.7-8c1.4-4-0.7-8.4-4.9-9.4c-5.9-1.3-13.8,6-16.5,10.6c-0.2,0.3-1.6,3.4-2.4,5.4
			c0.3-1.3,0.7-2.5,1-3.8c0.7-2.6,1.2-5.1,1.8-7.9c0.3-1.4,0.5-2.7,0.8-4.1c0.3-1.4,0.4-2.8,0.6-4.3c0.4-3.3,0.7-6.7,0.9-10.1
			c2.2,0.6,10.2,2.4,14.2,1.8c4-0.7,8.8-2.7,10.7-6.4c1.9-3.8,0.6-8.4-3.4-10c-5.6-2.2-14.6,3.9-18,8c-0.2,0.3-2.3,3.5-3.4,5.3
			c0.1-2.1,0.2-4.1,0.3-6.2c0.1-6,0.1-12.1,0-18.2c0-1.9,0-3.7,0-5.6c0.8,0.2,10.2,2.7,14.7,1.9c3.9-0.7,8.8-2.7,10.7-6.4
			c1.9-3.8,0.6-8.4-3.4-10c-2.6-1-6-0.2-9.2,1.3"/>
		<path class="st8" d="M1024.8,243.2c0.2,1,0.6,1.9,1.2,2.8c0.5,0.8,1.2,1.5,1.9,2"/>
		<path class="st8" d="M1006.6,195.6c4.8-0.5,12-3.4,12.7-3.7c2.1,5.2,4.5,10.3,7.3,15.1c1.6,2.9,3.3,5.7,5,8.5
			c-1-1.2-1.9-2.2-2-2.3c-3.9-3.7-13.6-8.5-18.9-5.6c-3.8,2.1-4.5,7-2.1,10.4c2.4,3.4,7.5,4.8,11.5,5c4,0.2,11.9-2.8,13.9-3.6
			c0.7,1.1,1.3,2.1,2,3.2c3.3,5.1,6.6,10.2,9.7,15.3c1.1,1.8,2.1,3.6,3.1,5.4c-0.9-1-1.6-1.9-1.8-2c-3.9-3.7-13.6-8.5-18.9-5.6
			c-1.2,0.7-2.2,1.7-2.8,2.9"/>
		<path class="st8" d="M1034,152.8c0.1-0.6,0.2-1.3,0.2-1.9c0-4.1-3.3-7.8-7.6-7.3c-6,0.6-11.2,10.1-12.3,15.3
			c-0.1,0.3-0.4,3.3-0.5,5.4c-0.2-1.3-0.3-2.5-0.4-3.8c-0.5-4.5-0.6-8.7-0.7-12.4c0-2.1,0-4,0-5.8c1.6-1.4,8-7,9.8-10.7
			c1.8-3.7,2.9-8.7,1-12.5s-6.5-5.4-10.2-3c-5,3.3-5.3,14.1-3.9,19.3c0.1,0.4,2.9,7.2,2.9,7.1l0.1-0.1c-0.1,1.7-0.1,3.6-0.1,5.5
			c0,3.7,0.1,7.9,0.4,12.4c0.3,4.9,1,9.8,1.9,14.6c1,5.4,2.5,10.7,4.4,15.9c0,0.1,0.1,0.1,0.1,0.2c-1.1-1.4-4.3-5.1-4.6-5.4
			c-3.9-3.7-13.6-8.5-18.9-5.6c-3.8,2.1-4.5,7-2.1,10.4c1.8,2.6,5.1,4,8.3,4.6"/>
		<path class="st8" d="M1044.7,212.4c1.2-0.6,2.3-1.4,3.3-2.3c2.9-2.8,5.9-7.1,5.4-11.3s-4.1-7.4-8.4-6.4
			c-5.9,1.3-10.1,11.3-10.6,16.6c0,0.4,0,6,0.1,7.4c-2.2-3.4-4.4-6.8-6.5-10.3c-2.8-4.7-5.2-9.5-7.4-14.5c0.4-0.1,10-3.4,13.4-6.6
			c2.9-2.8,5.9-7.1,5.4-11.3c-0.5-4.2-4.1-7.4-8.4-6.5c-5.9,1.3-10.1,11.3-10.6,16.6c0,0.4,0,6.4,0.1,7.5c-0.1-0.3-0.3-0.6-0.4-0.9
			c-2-5.1-3.6-10.3-4.7-15.6c-0.6-2.9-1.1-5.8-1.5-8.5c1.9-0.4,10.3-2.5,13.7-5c1.6-1.2,3-2.6,4.2-4.3"/>
		<path class="st8" d="M1104.5,156.9c0.1,0,1.2-7.2,1.2-7.6c0.2-5.4-2.6-15.9-8.3-17.9c-4.1-1.5-8.2,1.2-9.2,5.3s1.3,8.8,3.8,11.9
			C1095.1,152.2,1104.5,156.9,1104.5,156.9z"/>
	</g>
	<g class="st11">
		<path class="st8" d="M1262.6,68.6c3.7,1.5,7.5,2.6,7.5,2.6c0,0-0.2-7.2-0.2-7.7c-0.8-5.3-5.5-15.1-11.4-16
			c-4.3-0.7-7.8,2.7-8.1,6.9s2.9,8.4,5.9,11"/>
		<path class="st8" d="M1351,125.9c0.7,0.3,1.5,0.6,2.2,0.8c3.9,0.9,9.1,1,12.4-1.8c3.3-2.7,3.8-7.5,0.7-10.6
			c-4.3-4.2-15-2.1-19.7,0.4c-0.4,0.2-5.3,3.6-6.2,4.3c0.2-0.3,0.3-0.6,0.5-0.8c3.1-4.5,6.6-8.7,10.4-12.5c2.1-2.2,4.2-4.1,6.3-6
			c1.4,1.3,7.8,7.2,11.7,8.6c3.8,1.3,9,2,12.5-0.4c2.7-1.7,3.9-4.9,3.2-8"/>
		<path class="st8" d="M1294.9,40c1.7-2.3,2.9-5.1,2.7-7.8c-0.3-4.1-3.9-7.5-8.2-6.7c-5.9,1.1-10.4,11-11.1,16.3
			c-0.1,0.5-0.2,7.8-0.1,7.7l0.1,0c-0.7,1.6-1.5,3.2-2.3,5.1c-1.4,3.4-3,7.3-4.4,11.6c-1.6,4.7-2.9,9.4-4,14.2
			c-1.2,5.4-1.9,10.8-2.1,16.4c0,0.1,0,0.1,0,0.2c-0.5-1.7-2-6.4-2.1-6.7c-2.2-4.9-9.3-13.1-15.2-12.5c-4.3,0.5-6.8,4.7-6,8.7
			s5,7.3,8.6,9c4.1,1.9,13.9,2.1,14.7,2.1c-0.1,5.6,0.2,11.2,0.8,16.8c0.4,3.2,0.8,6.5,1.4,9.8c-0.5-1.5-0.9-2.8-1-2.9
			c-2.2-4.9-9.3-13.1-15.2-12.5c-4.3,0.5-6.8,4.7-6,8.7c0.9,4.1,5,7.3,8.6,9c3.6,1.7,12,2,14.2,2.1c0.2,1.2,0.4,2.5,0.6,3.7
			c1,6,2.1,12,2.9,17.8c0.3,2.1,0.5,4.1,0.8,6.2c-0.4-1.3-0.8-2.4-0.8-2.5c-2.2-4.9-9.3-13.1-15.2-12.5c-4.3,0.5-6.8,4.7-6,8.7
			s5,7.3,8.6,9c3.5,1.7,11.2,2,13.8,2.1c0.2,2.1,0.3,4.2,0.4,6.3c0,1.4,0.1,2.8,0.1,4.1c-0.1,1.4-0.1,2.8-0.1,4.1
			c-0.2,2.6-0.3,5.4-0.5,7.9c-0.1,1.8-0.3,3.5-0.5,5.2c-0.3-2.1-0.9-6.1-1-6.4c-1.4-5.2-7.2-14.4-13.2-14.6
			c-4.3-0.2-7.5,3.6-7.3,7.7c0.2,4.1,3.8,8,7.2,10.2c3.7,2.5,12.9,4.1,14.1,4.3c-0.3,2.8-0.6,5.6-0.9,8.2c-0.2,1.9-0.5,3.8-0.7,5.5
			l3.6,1.1c0.2-2,0.5-4,0.7-6.2c0.3-2.9,0.6-6,0.8-9.1c3-0.3,6-0.7,9-1.3c2,4.1,8.4,10.1,9.2,10.9c-1.8,2.2-3.6,4.3-5.3,6.3
			c-0.9,1.1-1.8,2.1-2.6,3l3.8,1.2l1.6-1.9c1.8-2.2,3.7-4.7,5.7-7.2c1,0.6,9.3,5,13.7,5.4c4,0.3,9.2-0.4,12-3.6
			c2.8-3.2,2.6-8-0.9-10.5c-4.9-3.5-15.1,0.2-19.4,3.4c-0.3,0.2-2.8,2.6-4.3,4.1c0.8-1,1.6-2,2.4-3.1c1.6-2.1,3.1-4.3,4.8-6.6
			l2.3-3.4c0.8-1.1,1.5-2.4,2.2-3.7c1.7-2.9,3.3-5.9,4.8-9c1.8,1.4,8.5,6.2,12.4,7.1c3.9,0.9,9.1,1,12.4-1.8
			c3.3-2.7,3.8-7.5,0.7-10.6c-4.3-4.2-14.9-2.1-19.7,0.4c-0.3,0.2-3.5,2.3-5.2,3.6c0.9-1.8,1.8-3.7,2.6-5.6
			c2.4-5.5,4.7-11.1,7.1-16.7c0.7-1.7,1.4-3.4,2.2-5.1c0.7,0.5,8.4,6.4,12.8,7.4c3.9,0.9,9.1,1,12.4-1.8c3.3-2.7,3.8-7.5,0.7-10.6
			c-4.3-4.2-14.9-2.1-19.7,0.4c-0.4,0.2-5,3.3-6.1,4.2c1.6-3.8,3.2-7.5,5-11.1c2.3-4.9,5-9.6,7.9-14.2c2.4,1.8,4.9,3.5,7.5,5.1"/>
		<path class="st8" d="M1289,71.5c2.7-1.3,5.2-3.2,6.4-5.9c1.6-3.8,0-8.5-4.2-9.7c-5.7-1.8-14.3,4.9-17.3,9.3
			c-0.2,0.2-1.6,2.9-2.6,4.8c0.4-1.2,0.7-2.5,1-3.6c1.3-4.3,2.8-8.2,4.1-11.7c0.8-2,1.5-3.7,2.2-5.3c2-0.6,10.1-3.3,13.2-6
			c0.3-0.3,0.6-0.6,0.9-0.8"/>
		<path class="st8" d="M1383.2,96.8c-4.3-3.9-14.3-3-19-1.1c-0.3,0.1-2.9,1.5-4.8,2.6c1-0.8,1.9-1.7,2.9-2.4
			c3.5-2.9,6.9-5.3,9.9-7.5c1.7-1.2,3.3-2.2,4.8-3.2c2,0.6,10.2,2.8,14.3,2.2c4.1-0.6,8.9-2.4,10.9-6.1c2.1-3.7,0.8-8.4-3.1-10.1
			c-5.5-2.4-14.7,3.4-18.2,7.5c-0.3,0.4-4.4,6.4-4.3,6.4h0.1c-1.5,0.9-3,1.9-4.7,3c-3.1,2.1-6.5,4.4-10.1,7.3
			c-3.9,3-7.6,6.2-11.1,9.7c-4,3.8-7.6,8-10.8,12.5l-0.1,0.2c0.5-1.7,1.9-6.4,2-6.8c0.9-5.3-0.5-16-5.8-18.8c-3.8-2-8.3,0.2-9.8,4
			c-1.5,3.9,0.1,8.9,2.2,12.3c2.4,3.9,10.5,9.4,11.1,9.8c-3.2,4.6-6,9.5-8.5,14.5c-1.5,2.9-2.9,5.9-4.3,8.9c0.4-1.5,0.8-2.8,0.8-3
			c0.9-5.3-0.5-16-5.8-18.8c-3.8-2-8.3,0.2-9.8,4s0.1,8.9,2.2,12.3c2.1,3.4,9,8.3,10.7,9.6c-0.5,1.2-1,2.3-1.6,3.4
			c-2.4,5.6-4.9,11.1-7.4,16.5c-0.9,1.9-1.8,3.7-2.8,5.6c0.4-1.3,0.7-2.4,0.7-2.6c0.9-5.3-0.5-16-5.8-18.8c-3.8-2-8.3,0.1-9.8,4
			c-1.5,3.9,0.1,8.9,2.2,12.3c2,3.3,8.3,7.8,10.4,9.3c-1,1.9-2.1,3.7-3.1,5.5c-0.8,1.2-1.4,2.4-2.2,3.5l-2.4,3.4
			c-1.6,2.1-3.2,4.3-4.8,6.3c-1.1,1.4-2.2,2.8-3.3,4.1c0.9-1.9,2.6-5.6,2.7-5.9c1.3-4.5,1.4-9.3,0.4-13.9c0.2-0.5,0.3-1,0.4-1.5
			c0.6-4.1-2.2-8.2-6.6-8.3c-6-0.2-12.5,8.5-14.3,13.5c-0.1,0.3-0.9,3.7-1.4,5.8c0.1-1.3,0.2-2.5,0.3-3.9c0.2-2.6,0.2-5.3,0.4-8.1
			c0-1.4,0-2.8,0-4.1s-0.1-2.9-0.2-4.3c-0.2-3.3-0.5-6.7-1-10.1c2.3,0.1,10.5,0.5,14.3-0.9c3.8-1.4,8.2-4.3,9.4-8.3
			c1.2-4.1-1-8.4-5.2-9.2c-5.9-1.1-13.6,6.5-16.2,11.2c-0.2,0.3-1.6,3.9-2.4,5.9c-0.3-2.1-0.5-4.1-0.9-6.1c-1-5.9-2.2-11.9-3.3-17.8
			c-0.4-1.8-0.7-3.6-1-5.5c0.8,0.1,10.6,0.7,14.8-0.9c3.8-1.4,8.1-4.2,9.3-8.3c1.2-4.1-1-8.4-5.2-9.2c-5.9-1.1-13.6,6.5-16.2,11.2
			c-0.2,0.4-2.3,5.5-2.8,6.9c-0.7-4-1.4-8-2-12c-0.7-5.4-1.1-10.8-1.2-16.2c0.4,0,10.5,0.8,14.9-0.9c3.8-1.4,8.1-4.2,9.3-8.3
			c1.2-4.1-1-8.4-5.2-9.2c-5.9-1.1-13.6,6.5-16.2,11.2c-0.2,0.4-2.5,5.9-2.8,7c0-0.3,0-0.6,0-1c0.1-5.4,0.7-10.9,1.8-16.2
			c0.6-3,1.2-5.7,2-8.4c1.9,0.3,10.5,1.7,14.5,0.7c0.5-0.1,1-0.3,1.5-0.5"/>
		<path class="st8" d="M1357.7,98.5c0.1,0.1,3.9-6.1,4.1-6.6c2.3-4.9,3.8-15.6-0.7-19.7c-3.2-2.9-8-2.1-10.5,1.3
			c-2.5,3.4-2.2,8.6-1.1,12.5C1350.8,90.5,1357.7,98.5,1357.7,98.5z"/>
	</g>
</g>
<g id="freepik--Device--inject-2">
	<polygon class="st12" points="1144.3,138.7 1363.8,138.7 1335.4,296.1 1115.9,296.1 	"/>
	<polygon class="st13" points="1359.4,138.7 1345.7,214.4 1333.1,284.3 1331,296.1 1111.5,296.1 1132.8,178.6 1139.9,138.7 	"/>
	<polygon class="st14" points="1145.9,143.6 1351.6,143.6 1325,291.2 1119.3,291.2 	"/>
	<polygon class="st15" points="1121.4,279.6 1119.3,291.2 1325,291.2 1327.1,279.6 	"/>
	<polygon class="st15" points="1345.5,143.6 1318.9,291.2 1325,291.2 1351.6,143.6 	"/>
	<polygon class="st16" points="1341.9,197.2 1347.1,168.5 1341,168.5 1335.8,197.2 	"/>
	<rect x="1062.7" y="285.7" class="st12" width="269.4" height="10.4"/>
	<rect x="968.8" y="285.7" class="st13" width="132.2" height="10.4"/>
	<polygon class="st15" points="1144.1,154 1349.7,154 1351.6,143.6 1145.9,143.6 	"/>
	<polygon class="st12" points="1157,150.8 1255,150.8 1255.9,145.8 1157.9,145.8 	"/>
</g>
<g id="freepik--Ads--inject-2">
	<polygon class="st17" points="1152.8,192.9 1228.8,192.9 1219,247.4 1143,247.4 	"/>
	<polygon class="st12" points="1148.1,187.8 1224.1,187.8 1214.3,242.3 1138.3,242.3 	"/>
	<polygon class="st13" points="1223,194.2 1224.1,187.8 1148.1,187.8 1147,194.2 	"/>
	<path class="st12" d="M1219.9,191.2c0,1-0.8,1.9-1.9,1.9c-1,0-1.9-0.8-1.9-1.9c0-1,0.8-1.9,1.9-1.9c0,0,0,0,0,0
		C1219.1,189.3,1219.9,190.1,1219.9,191.2L1219.9,191.2z"/>
	<path class="st18" d="M1177.6,200.2c3.7,0.5,4.9,3.5,4,7.7l-0.2,0.8h-3.3l0.2-1.1c0.5-2.8-0.2-4.5-2.8-4.5c-2.5,0-3.9,1.7-4.5,4.5
		c-1.4,7,9.1,7.1,7.4,15.9c-0.8,4.2-3.2,7.2-7.1,7.7l-0.5,2.4h-2.9l0.5-2.4c-3.8-0.5-4.9-3.5-4.1-7.7l0.4-1.9h3.3l-0.4,2.1
		c-0.6,2.8,0.3,4.4,2.8,4.4c2.5,0,4-1.6,4.5-4.4c1.4-7-9.1-7.1-7.3-15.9c0.8-4.3,3.1-7.1,7-7.7l0.5-2.5h2.9L1177.6,200.2z"/>
	<path class="st18" d="M1184.7,227.1l-0.9,4.3h-3.4l0.9-4.3H1184.7z M1183.7,214.8l2.9-14.7h3.5l-2.9,14.7l-2.4,9.7h-2.6
		L1183.7,214.8z"/>
	<path class="st18" d="M1191.8,227.1l-0.9,4.3h-3.4l0.9-4.3H1191.8z M1190.8,214.8l2.9-14.7h3.5l-2.9,14.7l-2.3,9.7h-2.6
		L1190.8,214.8z"/>
	<polygon class="st17" points="1346.3,206.1 1333.7,276 1255,276 1267.7,206.1 	"/>
	<polygon class="st12" points="1261.9,201.4 1359.3,201.4 1346.7,271.3 1249.3,271.3 	"/>
	<polygon class="st13" points="1357.9,209.6 1359.3,201.4 1261.9,201.4 1260.4,209.6 	"/>
	<path class="st12" d="M1353.9,205.7c0,1.3-1.1,2.4-2.4,2.4c-1.3,0-2.4-1.1-2.4-2.4s1.1-2.4,2.4-2.4c0,0,0,0,0,0
		C1352.8,203.3,1353.9,204.4,1353.9,205.7C1353.9,205.7,1353.9,205.7,1353.9,205.7z"/>
	<path class="st18" d="M1271.9,235.8c1.6-2.1,4-3.4,6.7-3.4c5.2,0,6.8,3.8,5.6,9.7l-1.6,7.9c-1.2,6.2-5,10.3-11.2,10.3
		s-8.3-4.1-7.1-10.3l0.5-2.8h4.2l-0.6,3c-0.7,3.7,0.4,5.9,3.6,5.9c3.2,0,5.2-2.2,5.9-5.9l1.6-7.9c0.7-3.7-0.4-5.9-3.6-5.9
		c-2.5,0-4.4,1.4-5.4,4.3l-0.2,0.9h-4.2l5.5-22.6h16l-0.8,4.1H1275L1271.9,235.8z"/>
	<path class="st18" d="M1290.8,229.1c1.2-6.2,5.1-10.2,11.3-10.2s8.5,4,7.3,10.2l-4.1,20.9c-1.2,6.2-5.1,10.3-11.4,10.3
		c-6.3,0-8.5-4.1-7.3-10.3L1290.8,229.1z M1291.1,250.3c-0.7,3.7,0.4,5.9,3.7,5.9s5.2-2.2,6-5.9l4.3-21.5c0.7-3.7-0.3-5.9-3.7-5.9
		s-5.2,2.2-6,5.9L1291.1,250.3z"/>
	<path class="st18" d="M1318.4,222.8l-1,5.4c-0.3,1.7-1.3,2.8-3,2.8c-1.7,0-2.2-1.1-1.9-2.8l1.1-5.4c0.3-1.6,1.3-2.8,3-2.8
		S1318.8,221.2,1318.4,222.8z M1324.6,220.1l-10.1,17.1h-1.2l10.1-17.1H1324.6z M1314.8,222.7l-1.1,5.6c-0.2,0.9,0,1.5,0.9,1.5
		c0.9,0,1.4-0.6,1.5-1.5l1.1-5.6c0.2-0.9-0.1-1.6-0.9-1.6C1315.5,221.2,1315,221.8,1314.8,222.7L1314.8,222.7z M1325.6,229.2
		l-1.1,5.4c-0.3,1.7-1.3,2.8-3,2.8c-1.7,0-2.2-1.1-1.9-2.8l1.1-5.4c0.3-1.6,1.3-2.8,3-2.8S1325.9,227.6,1325.6,229.2L1325.6,229.2z
		 M1321.9,229.1l-1.1,5.6c-0.2,0.9,0.1,1.6,0.9,1.6c0.9,0,1.4-0.6,1.5-1.6l1.1-5.6c0.2-0.9-0.1-1.5-0.9-1.5
		C1322.6,227.6,1322.1,228.2,1321.9,229.1L1321.9,229.1z"/>
	<path class="st18" d="M1308.3,243.7c0.7-3.3,2.8-5.5,6.1-5.5s4.6,2.2,3.9,5.5l-2.2,11.3c-0.7,3.3-2.8,5.5-6.1,5.5
		c-3.4,0-4.6-2.2-3.9-5.5L1308.3,243.7z M1308.4,255.1c-0.4,2,0.2,3.2,2,3.2c1.8,0,2.8-1.2,3.2-3.2l2.3-11.6c0.4-2-0.2-3.2-2-3.2
		c-1.8,0-2.8,1.2-3.2,3.2L1308.4,255.1z"/>
	<path class="st18" d="M1327.1,248.6l-0.4,2.2h-5l-1.9,9.5h-2.4l4.3-21.9h8.7l-0.4,2.2h-6.3l-1.6,8H1327.1z"/>
	<path class="st18" d="M1337.7,248.6l-0.4,2.2h-5l-1.9,9.5h-2.4l4.3-21.9h8.7l-0.4,2.2h-6.3l-1.6,8H1337.7z"/>
	<polygon class="st17" points="1194.5,130.4 1187.3,170.3 1133.4,170.3 1140.6,130.4 	"/>
	<polygon class="st12" points="1092.7,89.7 1196.4,89.7 1183,164.2 1079.2,164.2 	"/>
	<polygon class="st12" points="1152.1,89.7 1146.1,97 1145.7,89.7 1143.6,89.7 1140,96.1 1138.3,89.7 1136,89.7 1133.8,96.4 
		1130.4,89.7 1128.6,89.7 1127.6,97.9 1121,89.8 1121.7,100.5 1113.5,94 1116.3,104.2 1106.9,99.5 1111.7,108.9 1101.4,106.2 
		1108.1,114.2 1097.3,113.6 1105.4,120.1 1094.6,121.6 1104,126.3 1093.4,129.9 1103.8,132.5 1093.9,138.1 1104.8,138.6 
		1096.1,145.8 1106.9,144.2 1099.7,152.9 1110.2,149.3 1104.7,159.1 1114.5,153.5 1110.9,164 1119.6,156.7 1118.5,164.2 
		1120.9,164.2 1125.3,158.8 1125.6,164.2 1128.9,164.2 1131.4,159.8 1132.6,164.2 1136.1,164.2 1137.7,159.5 1140,164.2 1143,164.2 
		1143.8,158 1148.9,164.2 1150.3,164.2 1149.7,155.3 1157.9,161.8 1155.1,151.6 1164.5,156.3 1159.7,147 1170,149.7 1163.4,141.6 
		1174.2,142.2 1166,135.7 1176.9,134.2 1167.4,129.6 1178,126 1167.7,123.3 1177.5,117.8 1166.7,117.3 1175.4,110 1164.5,111.6 
		1171.7,102.9 1161.2,106.6 1166.7,96.8 1156.9,102.4 1160.5,91.8 1151.8,99.1 1153.1,89.7 	"/>
	<polygon class="st13" points="1194.9,98.4 1196.4,89.7 1092.7,89.7 1091.1,98.4 	"/>
	<path class="st12" d="M1190.7,94.3c0,1.4-1.1,2.6-2.6,2.6c-1.4,0-2.6-1.1-2.6-2.6c0-1.4,1.1-2.6,2.6-2.6c0,0,0,0,0,0
		C1189.5,91.7,1190.7,92.8,1190.7,94.3L1190.7,94.3z"/>
	<path class="st18" d="M1121.2,116.6c3.6,0,4.7,1.7,4,5.2l-0.2,1.1c-0.5,2.5-1.5,4-3.6,4.6c2.1,0.6,2.6,2.4,2.1,5l-0.4,2
		c-0.7,3.5-2.8,5.5-6.4,5.5h-5.4l4.6-23.3H1121.2z M1117.2,137.5c1.9,0,3-1,3.4-3.2l0.4-2.1c0.5-2.6-0.4-3.4-2.6-3.4h-2.3l-1.7,8.7
		L1117.2,137.5z M1118.6,126.5c2.1,0,3.3-0.7,3.7-3.1l0.3-1.4c0.4-2.1-0.1-3.1-2-3.1h-2.6l-1.5,7.5L1118.6,126.5z"/>
	<path class="st18" d="M1128,134.4c-0.4,2.1,0.2,3.4,2.1,3.4c1.9,0,2.9-1.3,3.4-3.4l3.5-17.8h2.4l-3.5,17.7
		c-0.7,3.5-2.8,5.9-6.4,5.9c-3.6,0-4.7-2.4-4-5.9l3.5-17.7h2.6L1128,134.4z"/>
	<path class="st18" d="M1143.1,131.5l-2-14.9h2.7l1.4,11.4l5.9-11.4h2.5l-7.9,14.9l-1.6,8.3h-2.6L1143.1,131.5z"/>
	<path class="st18" d="M1154,136.6l-0.6,3.2h-2.5l0.6-3.2H1154z M1153.2,127.5l2.2-10.9h2.6l-2.2,10.9l-1.7,7.2h-1.9L1153.2,127.5z"
		/>
	<polygon class="st17" points="1324.6,130.4 1317.4,170.6 1241.4,170.6 1248.6,130.4 	"/>
	<polygon class="st12" points="1246.9,111 1322.9,111 1313,165.5 1237,165.5 	"/>
	<polygon class="st13" points="1321.7,117.4 1322.9,111 1246.9,111 1245.7,117.4 	"/>
	<circle class="st12" cx="1316.8" cy="114.4" r="1.9"/>
	<path class="st18" d="M1268.7,131.3l-1.5,7.4h-1.8l3.2-16.4h1.8l-1.5,7.4h4l1.5-7.4h1.8l-3.2,16.4h-1.8l1.5-7.4H1268.7z"/>
	<path class="st18" d="M1277.3,126.2c0.5-2.5,2.1-4.1,4.6-4.1s3.4,1.6,3,4.1l-1.7,8.5c-0.5,2.5-2.1,4.1-4.6,4.1s-3.4-1.6-3-4.1
		L1277.3,126.2z M1277.5,134.8c-0.3,1.5,0.2,2.4,1.5,2.4s2.1-0.9,2.4-2.4l1.7-8.7c0.3-1.5-0.1-2.4-1.5-2.4c-1.3,0-2.1,0.9-2.4,2.4
		L1277.5,134.8z"/>
	<path class="st18" d="M1286.5,138.7l2.9-14.8h-3l0.3-1.7h7.9l-0.3,1.7h-3l-2.9,14.8L1286.5,138.7z"/>
	<path class="st18" d="M1263.8,144.5l-0.1,0.4h-1.7l0.1-0.5c0.3-1.5-0.1-2.3-1.4-2.3s-2.1,0.9-2.3,2.3c-0.7,3.7,4.7,4,3.8,8.7
		c-0.5,2.5-2,4.1-4.5,4.1s-3.4-1.6-2.9-4.1l0.2-0.9h1.7l-0.2,1c-0.3,1.5,0.2,2.4,1.5,2.4c1.3,0,2.1-0.9,2.4-2.4
		c0.7-3.7-4.7-4-3.8-8.6c0.5-2.5,2-4.1,4.4-4.1S1264.3,142,1263.8,144.5z"/>
	<path class="st18" d="M1265.5,153.6l-1.3,3.3h-1.7l6.4-16.4h2.7l-0.1,16.4h-1.8v-3.3L1265.5,153.6z M1266,152.1h3.7v-9.5
		L1266,152.1z"/>
	<path class="st18" d="M1272.9,156.9l3.2-16.4h1.8l-2.9,14.8h4.7l-0.3,1.7H1272.9z"/>
	<path class="st18" d="M1288.4,147.8l-0.3,1.6h-4l-1.2,5.9h4.9l-0.3,1.6h-6.8l3.2-16.4h6.8l-0.3,1.7h-4.9l-1.1,5.6L1288.4,147.8z"/>
	<path class="st18" d="M1291.5,154.7l-0.4,2.3h-1.8l0.4-2.3H1291.5z M1290.9,148.3l1.5-7.7h1.8l-1.5,7.7l-1.2,5.1h-1.4L1290.9,148.3
		z"/>
	<path class="st18" d="M1295.2,154.7l-0.4,2.3h-1.8l0.4-2.3H1295.2z M1294.6,148.3l1.5-7.7h1.8l-1.5,7.7l-1.2,5.1h-1.4L1294.6,148.3
		z"/>
</g>
<g id="freepik--Character--inject-2">
	<path class="st12" d="M1133.6,322.7c0,0,1,6.1,2.2,8.5c1.1,2.4,3.2,5.3,1.8,5.7s-3.3-0.3-4.6-1.8c-1.6-1.8-3.3-3.5-5.1-5.1
		c-2.5-2.1-2.8-2.6-2.2-4.1c0.9-1.5,1.9-3,2.9-4.4L1133.6,322.7z"/>
	<path class="st12" d="M1137.5,336.9c-3.2-1.3-5.5-4.7-7.5-6.8c-1.4-1.4-2.9-2.6-4.5-3.7c-0.4,1.2,0.1,1.8,2.3,3.6
		c1.8,1.6,3.5,3.3,5.1,5.1C1134.3,336.5,1136.2,337.2,1137.5,336.9z"/>
	<path class="st13" d="M1106.5,269.7c0,0-3.9,5-5.1,8.5c-1.2,3.5-0.7,7.3,1.6,8.4c2.3,1.1,33.2,0,33.2,0l-7.6,34.9l5,1.2
		c0,0,15.1-34.3,16.1-36.8c1-2.5,2.6-7.7,1.8-9.1s-13.8-2.8-13.8-2.8l0.1-3.6l-30.2,0.1L1106.5,269.7z"/>
	<line class="st19" x1="1136.6" y1="285.2" x2="1138.3" y2="277.1"/>
	<path class="st14" d="M1128.2,204.8c0,0-1.1-3.8-3.7-4.2s-5,0-4.8,1.1c0.3,1.1,0.4,1.5,0.4,1.5s-5.7,0.3-8.7,3.1
		c-3,2.9,0.1,9,1.8,11.3c1.6,2.3,3.5,4.5,3.7,5.2c0.1,0.7,1,3-0.7,4.2c-1.6,1.2-15.8,7.9-15.5,9.4s5.2,34,5.2,34h31.9
		c0,0,5.3-35.7,4.6-36.3c-0.7-0.7-14.6-7.1-14.6-7.1l0.7-3.8c0,0,4.5-0.5,4.4-1.6c-0.1-1.1-1.2-6.1-1.2-6.1l1.1-1.5l-2.8-3.4v-2.2
		L1128.2,204.8z"/>
	<path class="st12" d="M1127.8,227l0.7-3.8c0,0,4.5-0.5,4.4-1.6c-0.1-1.1-1.2-6.1-1.2-6.1l1.1-1.5l-2.7-3.4v-2.2l-1.8-3.5
		c0,0-1.1-3.8-3.7-4.2c-2.6-0.4-5,0-4.8,1.1c0.3,1.1,0.4,1.5,0.4,1.5s-5.7,0.3-8.7,3.1c-3,2.9,0.1,9,1.8,11.3
		c1.6,2.3,3.5,4.5,3.7,5.2c0.1,0.7,1,3-0.7,4.2c-0.6,0.4-1.1,0.7-1.7,1c1.6,1.6,4.6,4.4,8,4.9c3.1,0.4,6-2.5,7.8-4.7L1127.8,227z"/>
	<path class="st13" d="M1116.1,221.4c0.1,0,0.2,0,0.3-0.1c1.2-1.2,2.7-1.8,1.8-2.5c-0.8-0.7,0-2.8,0.4-2.8s1.6-0.3,1.6-0.6
		c-0.4-0.9-1-1.8-1.6-2.5c-0.6-0.8,2.8-3.9,3.8-4.5c0.9-0.5-2.4,0.1-2.5-1.2c-0.2-1.3,7.5-2.5,8.3-2.6c-0.3-0.8-1.4-3.6-3.6-4
		c-2.6-0.4-5,0-4.8,1.1c0.3,1.1,0.4,1.5,0.4,1.5s-5.7,0.3-8.7,3.1c-3,2.9,0.1,9,1.8,11.3C1114.2,219,1115.3,220.4,1116.1,221.4z"/>
	<path class="st12" d="M1119.9,217c0,0-2.3-3.8-3.7-2.1c-1.4,1.7,0.4,4.9,2.1,5.2c0.9,0.2,1.8,0,2.6-0.5l1.6,1.2"/>
	<path class="st18" d="M1128.4,211.1c0,0.5-0.1,0.9-0.4,0.9s-0.5-0.3-0.6-0.8c0-0.5,0.1-0.9,0.4-0.9
		C1128.1,210.2,1128.4,210.6,1128.4,211.1z"/>
	<path class="st9" d="M1128,216.9c1,0.3,2,0.4,3,0.2"/>
	<path class="st9" d="M1126.2,209.2c0.7-0.8,1.8-1.1,2.8-0.7"/>
	<path class="st14" d="M1139.4,251.3l2,5.5l-4.2,7.5l3,2.8l11.2-6.7c0.6-0.4,0.8-1.1,0.6-1.7l-9.6-24.9l-1.1-0.3"/>
	<path class="st9" d="M1141.4,256.8c2-0.8,4.2-0.5,6,0.7"/>
	<path class="st12" d="M1135.9,260.7c0,0-2.4,0.6-2.8,0.7c-0.4,0.1-1.2,1.4-1.6,2.1c-0.4,0.6-2.4,0.8-1.4,1.8s2.1-0.1,2.7-0.6
		c0.6-0.5,1.2-1.1,1.2-1.1l1.2,0.2c0.4,0.8,0.9,1.6,1.4,2.3c0.8,0.9,1.3,1.6,3.1,1.4s2.4-2.1,1.1-4
		C1139.7,261.6,1135.9,260.7,1135.9,260.7z"/>
	<path class="st12" d="M1137.9,260.3c0,0-0.8-1.4-1.6-1c-0.8,0.4-2,5.1-1.4,5.7c0.6,0.6,1-1.5,1.9-2.8
		C1137.2,261.7,1137.6,261,1137.9,260.3z"/>
	<path class="st12" d="M1137.9,260.3c0,0-2.3,3.9-1.8,5c0.5,1.1,1.2,0.1,1.9-1.2c0.8-1.2,1.5-2.3,1.4-3.2S1138.6,260.1,1137.9,260.3
		z"/>
	<path class="st12" d="M1139.5,261.9c0,0,1.3,0.1,1.3,1.2c0,1.1-2.3,3-3,3s-0.2-0.8-0.2-0.8L1139.5,261.9z"/>
	<path class="st12" d="M1140.7,263.9c0,0,0.6-0.2,0.7,0.6c0.1,0.8-1.6,2.1-2.5,2.3c-0.9,0.2,0-1.2,0-1.2L1140.7,263.9z"/>
	<path class="st14" d="M1105.7,247.8l-3.6,9l4.2,6.6l-1.8,3.3l-12.4-6.3c-0.6-0.4-0.8-1.1-0.6-1.7l9-22.7l0.8-0.6"/>
	<path class="st9" d="M1097.6,256.7c-0.6,0.2-1.1,0.5-1.6,0.8"/>
	<path class="st9" d="M1102.1,256.8c-0.9-0.4-1.8-0.5-2.8-0.4"/>
	<path class="st12" d="M1105,262.3c0,0-1.9,3.2-1,4.5c1,1.3,4.1-0.4,4.1-0.4s0.3,0.1,1.5-0.4c1.2-0.6,2.1-2.3,1.6-3.4
		C1110.8,261.3,1105,262.3,1105,262.3z"/>
	<path class="st12" d="M1111.5,260.3c0.4,0.4,1,0.7,1.5,0.8c0.8,0.1,2.9-0.4,3.3,0c0.4,0.4,0.1,1.5-0.8,1.8s-1.5,0-2.5-0.1
		s-1.3-0.1-1.3-0.1L1111.5,260.3z"/>
	<path class="st12" d="M1109.7,260.5c0,0,1-0.6,1.7-0.3c0.7,0.4,1.2,2.8,1.2,3.7s-0.4,1.7-0.6,1.7c-0.4-0.1-0.8-0.3-0.9-0.7
		c-0.2-0.5-1-3-1.1-3.5C1109.9,261.1,1109.8,260.8,1109.7,260.5z"/>
	<path class="st12" d="M1108.1,261c0.6-0.3,1.3-0.5,2-0.5c0.7,0.2,1.1,4,1.2,4.8c0.1,0.7-0.2,1.2-0.9,0.7c-0.7-0.5-1.2-2.6-1.6-3.1
		S1107.7,261.6,1108.1,261z"/>
	<path class="st12" d="M1106.5,261.8c0.4-0.6,1-0.9,1.6-0.8c1,0.2,1.9,3.9,2.1,4.5c0.2,0.6-0.7,1-1.1,0.7c-0.9-1.1-1.7-2.3-2.4-3.5
		C1106.7,262.5,1106.5,261.8,1106.5,261.8z"/>
	<path class="st12" d="M1106.9,262c-0.2-0.3-0.5-0.4-0.8-0.3c-0.4,0.1-0.7,0.4-0.9,0.8c-0.3,0.7,0.7,2.1,1.4,2.9s1.6,0.8,1.6,0.3
		C1108,264.4,1107.6,263.1,1106.9,262z"/>
	<rect x="1108.1" y="254.6" class="st12" width="32.1" height="20.3"/>
	<circle class="st12" cx="1124" cy="261.7" r="2.3"/>
	<path class="st12" d="M1109.6,322.4c0,0-0.3,8.4,1.1,11.3c1.5,2.9,3.7,4.9,5.2,1.9c1.5-2.9-0.8-10.5-0.8-11.8
		c0-0.9-0.1-1.7-0.2-2.6l-5.3,0.6L1109.6,322.4z"/>
	<path class="st13" d="M1104.1,278.8c0,0,0.4,18.1,2.2,28.5c1.7,10.3,3.3,15.2,3.3,15.2c1.2,0.2,2.4,0.2,3.6,0
		c0.8-0.2,1.5-0.7,2.1-1.2c0,0,2.1-35.5,2.2-38.5c0.1-3.1-0.1-6-0.9-6.9c-0.8-0.9-7.6-1.5-10-0.1"/>
</g>
<text transform="matrix(1 0 0 1 1151.0029 174.7921)" class="st20 st21">165a9a</text>
<g>
	<path class="st22" d="M1193.7,321.7c0-3.6,2.9-6.4,6.5-6.4c3.6,0,7.1,3,6.5,7.6h-8.7c0.4,0.7,1.2,1.4,2.5,1.4c1.2,0,2-0.5,2.4-1
		l3.3,1.5c-1,1.8-3,3.2-5.7,3.2C1196.3,328.1,1193.7,325.3,1193.7,321.7z M1202.5,320.4c-0.4-0.8-1.2-1.4-2.3-1.4
		c-1,0-1.7,0.6-2.1,1.4H1202.5z"/>
	<path class="st22" d="M1208.6,311h5.8c3.5,0,6.1,1.5,6.1,4.5c0,1.4-0.5,2.5-1.5,3.4c1.3,0.8,2.2,2.1,2.2,3.9c0,3.3-2.8,5.1-6.3,5.1
		h-6.4L1208.6,311L1208.6,311z M1214.4,317.3c1.2,0,1.8-0.5,1.8-1.4s-0.6-1.4-1.8-1.4h-1.6v2.7H1214.4z M1215,324.2
		c1.4,0,1.9-0.6,1.9-1.6c0-0.9-0.5-1.6-1.9-1.6h-2.1v3.1H1215z"/>
	<path class="st22" d="M1222.6,321.7c0-3.6,2.9-6.4,6.5-6.4s6.5,2.8,6.5,6.4s-2.9,6.4-6.5,6.4S1222.6,325.3,1222.6,321.7z
		 M1229.1,324.3c1.5,0,2.6-1.2,2.6-2.6s-1.2-2.7-2.6-2.7s-2.6,1.2-2.6,2.7S1227.6,324.3,1229.1,324.3z"/>
	<path class="st22" d="M1237.3,309.9h3.8v17.9h-3.8V309.9L1237.3,309.9z"/>
	<path class="st22" d="M1242.8,321.7c0-3.4,2.4-6.4,6.1-6.4c1.3,0,2.5,0.4,3.4,1.1v-0.8h3.8v12.2h-3.8V327c-0.9,0.7-2,1.1-3.4,1.1
		C1245.2,328.1,1242.8,325.1,1242.8,321.7z M1249.3,324.3c1.5,0,2.6-1.2,2.6-2.6s-1.2-2.7-2.6-2.7s-2.6,1.2-2.6,2.7
		S1247.8,324.3,1249.3,324.3z"/>
	<path class="st22" d="M1257.7,321.7c0-3.4,2.4-6.4,6.1-6.4c1.3,0,2.5,0.4,3.4,1.1v-6.5h3.8v17.9h-3.8V327c-0.9,0.7-2,1.1-3.4,1.1
		C1260.1,328.1,1257.7,325.1,1257.7,321.7z M1264.3,324.3c1.5,0,2.6-1.2,2.6-2.6s-1.2-2.7-2.6-2.7s-2.7,1.2-2.7,2.7
		S1262.8,324.3,1264.3,324.3z"/>
	<path class="st22" d="M1272.7,321.7c0-3.4,2.4-6.4,6.1-6.4c1.3,0,2.5,0.4,3.4,1.1v-0.8h3.8v12.2h-3.8V327c-0.9,0.7-2,1.1-3.4,1.1
		C1275.1,328.1,1272.7,325.1,1272.7,321.7z M1279.2,324.3c1.5,0,2.6-1.2,2.6-2.6s-1.2-2.7-2.6-2.7s-2.6,1.2-2.6,2.7
		S1277.8,324.3,1279.2,324.3z"/>
	<path class="st22" d="M1287.3,324.6l3.8-0.7c0,0.5,0.5,1.2,1.7,1.2c0.7,0,1.1-0.3,1.1-0.8c0-0.5-0.4-0.6-2.4-1.1
		c-2-0.4-3.7-1.3-3.7-3.8c0-2.7,2.4-4,4.6-4c2.3,0,4.1,1.1,4.6,3.1l-3.3,0.8c-0.1-0.3-0.4-0.8-1.3-0.8c-0.6,0-1.1,0.3-1.1,0.7
		c0,0.6,0.5,0.7,2,1.1c1.9,0.5,4.2,1,4.2,3.8c0,3-2.5,4.1-5.2,4.1C1289.9,328.1,1287.6,327.1,1287.3,324.6z"/>
	<g>
		
			<rect x="1196.8" y="314.5" transform="matrix(0.9513 -0.3083 0.3083 0.9513 -38.946 384.8055)" class="st22" width="3" height="2.2"/>
		
			<rect x="1200.7" y="326.6" transform="matrix(0.9513 -0.3083 0.3083 0.9513 -42.4866 386.6039)" class="st22" width="3" height="2.2"/>
	</g>
</g>
</svg>
