<?xml version="1.0" encoding="utf-8"?>
<!-- Generator: Adobe Illustrator 25.0.1, SVG Export Plug-In . SVG Version: 6.00 Build 0)  -->
<svg version="1.1" id="Layer_1" xmlns="http://www.w3.org/2000/svg" xmlns:xlink="http://www.w3.org/1999/xlink" x="0px" y="0px"
	 viewBox="0 0 1511 337" style="enable-background:new 0 0 1511 337;" xml:space="preserve">
<style type="text/css">
	.st0{fill:#071E33;}
	.st1{display:none;}
	.st2{fill:#113E63;}
	.st3{fill:#2D4F66;}
	.st4{fill:#F7F7F7;}
	.st5{fill:#FFFFFF;}
	.st6{opacity:0.72;}
	.st7{fill:#F5F5F5;}
	.st8{fill:#EBEBEB;}
	.st9{fill:#165A9A;}
	.st10{opacity:0.15;enable-background:new    ;}
	.st11{opacity:0.1;enable-background:new    ;}
	.st12{fill:#455A64;}
	.st13{opacity:0.2;enable-background:new    ;}
	.st14{fill:#F0F0F0;}
	.st15{fill:#E0E0E0;}
	.st16{fill:#FAFAFA;}
	.st17{fill:#263238;}
	.st18{fill:#37474F;}
	.st19{opacity:0.2;}
	.st20{opacity:0.1;}
	.st21{opacity:0.3;enable-background:new    ;}
	.st22{opacity:0.4;enable-background:new    ;}
	.st23{opacity:0.3;fill:#FFFFFF;enable-background:new    ;}
	.st24{fill:#E6E6E6;}
	.st25{opacity:0.4;fill:#FFFFFF;enable-background:new    ;}
</style>
<g id="Layer_4">
	<rect y="0" class="st0" width="1511" height="337"/>
</g>
<g id="Layer_5" class="st1">
</g>
<g id="Layer_3" class="st1">
</g>
<path class="st2" d="M730.7,244.4c0,2.1-0.1,4.3-0.4,6.5c-1.3,9.6-5.5,20.7-12.1,31.5c-4.2,6.9-9.3,13.7-15.2,19.9
	c-4.1,4.3-8.6,8.3-13.4,11.9c-4.6,3.4-9.6,6.5-14.8,8.9c-20.7,9.8-34.8,5.5-52.7,2.6c-9.8-1.6-20.8-2.8-34.6-1.1
	c-14.6,1.8-26.8,6.3-37.5,12.4H304c18-35.7,70.2-68.9,111.8-64.5c17.8,1.9,29.7,10.3,35.2,4.6c1.9-1.9,2.2-4.7,1.5-8.1
	c-0.5-2.5-1.6-5.4-3.2-8.6l0,0c-0.8-1.6-1.6-3.2-2.6-4.9c-1.1-1.9-2.3-3.9-3.5-6c-16.4-27-47.1-66.1-35.1-93.3
	c0.2-0.4,0.3-0.8,0.5-1.2c0.9-1.8,2-3.6,3.2-5.3c1.8-2.5,4-4.8,6.5-7c2.1-1.8,4.3-3.5,6.8-5c2.5-1.6,5.1-3,7.9-4.4l0,0
	c5.6-2.7,11.8-4.9,18.3-6.6l0,0c18.3-4.7,39.3-5.1,57.7-0.1c0.2,0,0.4,0.1,0.5,0.2c0.9,0.2,1.8,0.5,2.7,0.8
	c6.1,1.9,11.9,4.5,17.1,7.7c2,1.3,4,2.6,5.8,4.1c0.2,0.1,0.3,0.2,0.5,0.4c5.9,4.8,10,10,12.9,15.5c9.2,17.2,7.2,36.9,17.1,53.9
	c2.6,4.5,6.1,8.9,10.9,13c3.9,3.3,8,5.9,12.3,7.9c2.4,1.1,4.8,2,7.3,2.8c30.2,9.5,68.1-3.5,96-7.9c10.7-1.7,20-2.1,26.7,0.5
	c0.8,0.3,1.5,0.6,2.2,1c1.2,0.6,2.2,1.4,3.2,2.2c0.9,0.8,1.7,1.7,2.4,2.7C729.4,234.6,730.6,239.2,730.7,244.4z"/>
<path class="st2" d="M324,0c-42.3,34.6-70.8,83.6-113.6,115.9c-2.7,2-5.4,4-8.3,5.9c-0.7,0.5-1.4,0.9-2.1,1.4
	c-2.3,1.5-4.7,2.9-7,4.3c-14.9,8.7-31.6,15.3-51,18.9c-46.9,8.7-99.6-2.3-142-24V0H324z"/>
<path class="st2" d="M1511,0v186c-21.9,25.2-42.1,51.6-79.6,58.6c-18.2,3.4-37.9,1.7-56.4-3.6c-38-10.8-70.6-36.5-73.8-63.8
	c-3.8-32,32.5-70,72.9-86c15-6,30.7-8.9,45-7.4c12.2,1.3,21.6,5.6,28.1,6.4c3,0.4,5.4,0,7.1-1.8c0.9-1,1.5-2.1,1.7-3.5
	c2.5-14.7-32.2-51.4-43.7-84.8L1511,0L1511,0z"/>
<path class="st2" d="M1171.6,337h-64.9c0.2-1.3,0.5-2.6,1-3.8c6.1-13.9,37.1-19.9,54.1-9c0.7,0.5,1.4,1,2.1,1.5
	c2.6,2,4.4,4.3,5.7,6.6l0,0C1170.4,333.9,1171.1,335.4,1171.6,337z"/>
<circle class="st3" cx="390.7" cy="60.6" r="38.7"/>
<circle class="st3" cx="377.4" cy="219.4" r="9.3"/>
<circle class="st2" cx="1337.9" cy="312.4" r="7.1"/>
<circle class="st3" cx="35.1" cy="179.2" r="16.3"/>
<circle class="st3" cx="74.2" cy="248.4" r="6.4"/>
<circle class="st3" cx="171.1" cy="194.2" r="6.8"/>
<circle class="st3" cx="886.7" cy="53.3" r="16.1"/>
<circle class="st3" cx="893.6" cy="161" r="7"/>
<circle class="st3" cx="247.8" cy="309.1" r="3.8"/>
<circle class="st3" cx="281.5" cy="167.1" r="13"/>
<circle class="st3" cx="546.1" cy="63.7" r="20.3"/>
<circle class="st3" cx="655.3" cy="38.1" r="5.4"/>
<circle class="st3" cx="765.5" cy="39.3" r="2.2"/>
<circle class="st3" cx="142.4" cy="322.1" r="2.6"/>
<path class="st2" d="M1040.7,337h-315c-1-5.1-1.8-9.5-2.4-13c-0.1-0.5-0.2-1-0.2-1.5c-1.5-9-2.9-17.1-3.8-24.6
	c-0.7-5.5-1-10.6-1-15.5c0-10.4,1.8-19.8,6.6-28.9c0.7-1.4,1.5-2.8,2.4-4.1c1.1-1.7,2.2-3.4,3.5-5c3.6-4.6,7.9-8.7,12.8-12.2
	c19.5-14.2,47.5-20,75.5-21.7c10.7-0.6,21.3-0.6,31.6-0.3c27.9,1,52.4,4.7,64.2,6.5c14.8,2.2,31.6,4.9,47.1,9.8
	c10.2,3.2,19.9,7.5,27.8,13.1c2.5,1.8,4.9,3.8,7.1,5.9c0.8,0.8,1.6,1.6,2.3,2.4c3.1,3.4,5.7,7.3,7.6,11.6c0.6,1.4,1.2,2.7,1.6,4
	c0.3,0.8,0.5,1.5,0.7,2.3c0.5,1.9,0.8,3.6,1,5.4c0.2,1.7,0.3,3.3,0.2,4.9c0,0.7,0,1.4-0.1,2.1c-0.8,12.5-6.6,22.9-0.4,36.5
	c0.3,0.6,0.6,1.2,0.9,1.7c0,0.1,0.1,0.2,0.1,0.2C1016.6,327.6,1027.4,333.5,1040.7,337z"/>
<path class="st2" d="M1121.4,0c-3.9,5.4-8.1,10.3-12.7,14.5c-12.4,11.3-23.2,13.9-33.6,16.5c-2.1,0.5-4.1,1-6.2,1.6
	c-1.5,0.4-3.1,0.9-4.6,1.5c-5.9,2.1-11.9,5.2-18.2,11c-0.6,0.5-1.2,1.1-1.7,1.6c-4.4,4.3-7.8,8.9-10.5,13.6c-0.3,0.5-0.6,1-0.8,1.5
	c-1.2,2.1-2.2,4.3-3,6.5c-1,2.4-1.8,4.8-2.5,7.3c-1,3.4-1.7,6.8-2.2,10.2l0,0c-4.2,25.2,0.5,50.2-17.7,63.6c-20,14.8-57.6,8-83.3-7
	c-2.9-1.7-5.6-3.5-8.2-5.3c-1.1-0.8-2.2-1.6-3.2-2.5c-1.7-1.4-3.2-2.8-4.7-4.2c-4.6-4.5-8-9.4-9.7-14.3c-0.4-1.2-0.7-2.3-0.9-3.5
	c-0.1-0.5-0.2-1.1-0.2-1.6c-3-27.2,50.2-42.9,46-65.9c-3.8-20.8-51.4-28.3-86.8-34.2C836,7.5,819.6,4.6,817.8,0H1121.4z"/>
<path class="st2" d="M1012.4,256c-0.1,0.8-0.1,1.7-0.2,2.5l0,0c-0.2,1.5-0.3,2.9-0.6,4.4c-0.1,0.8-0.3,1.7-0.4,2.5
	c-0.3,1.9-0.7,3.9-1.2,5.8c-0.4,1.6-0.8,3.2-1.2,4.8c0,0.1,0,0.2-0.1,0.2c-4.2,14.6-11.4,28.8-20.5,40.2c0,0.1-0.1,0.1-0.1,0.2
	c-2.9,3.6-6,7-9.3,10c-5.2,4.8-10.2,8-14.9,10.3H788.7c-18.8-7-44.7-10.9-65.6-14.5c-15.8-2.7-28.7-5.1-33.4-8.4
	c-1.3-0.9-2-1.8-2-2.8c-0.1-3,5.7-6,15.3-9.1c4.6-1.5,10.1-2.9,16.3-4.4c35.2-8.3,91.4-16.3,124.8-22.7c16.6-3.2,27.6-6,27.4-8.3
	c-0.2-3.1-21.1-3.3-47.4-4c-32.6-0.9-73.6-2.7-93.8-12c-1.1-0.5-2.1-1-3.1-1.6c-4.8-2.7-8-6-8.9-10c-0.9-3.6,0.1-7.6,2.2-11.6
	c0.3-0.5,0.6-1,0.9-1.6c7.3-12.4,23.8-24.2,23-25.2c-0.7-0.8-10.6,10.4-25.2,24.1c-0.7,0.7-1.5,1.4-2.2,2.1
	c-25.3,23.6-63.1,53.3-92.1,44.3c-15.4-4.8-26.3-20-33.9-37.5c-0.6-1.4-1.2-2.8-1.8-4.2c-3.9-9.8-6.9-20.1-9.2-29.5
	c-2.8-11.4-4.5-21.7-5.7-28.3c-1.1-6.2-2.1-12.1-2.9-17.6c-2.4-16.1-3.3-29.4,0-41.6c1-3.8,2.5-7.6,4.4-11.2
	c31.7-60.8,157.9-41.6,190-36.8c33.5,5.1,78,12.4,91.9,42.9c3.4,7.5,3.9,13.9,3.3,19.9c-0.3,2.8-0.8,5.6-1.3,8.3
	c-0.8,3.9-1.6,7.8-1.8,11.8l0,0c-0.1,2.2-0.1,4.4,0.2,6.6c0.4,2.7,1.2,5.5,2.5,8.5c1.2,2.7,2.7,5.1,4.5,7.2
	c8.5,10.4,22.8,15,39.3,17.7c26.1,4.3,57.5,3.9,79.8,14.4c6.1,2.9,11.6,6.6,16,11.5c1.6,1.8,3.1,3.7,4.4,5.8
	c1.6,2.5,2.9,5.1,3.9,7.8c1.3,3.3,2.3,6.9,2.9,10.5c0.1,0.8,0.3,1.6,0.4,2.3c0.2,1.6,0.4,3.2,0.5,4.8c0.1,0.8,0.1,1.7,0.1,2.5
	C1012.7,250.3,1012.6,253.1,1012.4,256z"/>
<path class="st2" d="M443.4,337h-56.6c10-3.4,20.3-5.3,29.9-5.4c5.5-0.1,10.2,0.4,14.4,1.3C435.7,333.9,439.7,335.4,443.4,337z"/>
<path class="st2" d="M629.7,337H522.4c22.2-16.2,35.5-41,59.5-38.8c14.8,1.3,29.2,12.6,40.3,27.5C624.9,329.3,627.4,333.1,629.7,337
	z"/>
<path class="st3" d="M596.8,0c-0.8,0.3-1.5,0.6-2.3,1c-15.4,5.8-31.8,4.6-48-1H596.8z"/>
<path class="st3" d="M1511,112.3v171.9c-7.9,7.2-16.8,14.7-26.1,21.4c-20.5,14.7-43.3,25.3-62.2,19.4c-11.1-3.4-19.7-12.2-26.6-23.3
	c-11.2-18.2-17.5-42.8-21.1-60.7c-1.2-6.1-2.1-11.5-2.8-15.5c-5.2-30.3-8.7-50.8,1.5-70.5C1395.4,113.4,1461.3,109.2,1511,112.3z"/>
<path class="st3" d="M1264.5,333.7c-1.6,1.4-3.1,2.5-4.5,3.3h-68.7c-6.5-2.1-14.7-3.5-21.7-4.6l0,0c-8.1-1.4-14.6-2.5-14.6-4.4
	c0-1.2,2.6-2.5,6.8-3.7c8.8-2.6,24.6-5.2,38.1-7.4c0.5-0.1,1-0.2,1.6-0.3l0,0l0,0l0,0l0,0c12.5-2.1,22.7-3.9,22.6-5.3
	c-0.2-2.1-26.6-0.6-43.7-3.4c-3.6-0.6-6.8-1.4-9.2-2.5c-2.6-1.1-4.3-2.6-4.8-4.5c-1.4-5.9,10.2-13.9,9.8-14.4
	c-0.5-0.5-11.9,13.2-24.6,21.3c-6.9,4.4-14.1,7.2-20.3,5.2c-2.9-0.9-5.4-2.8-7.5-5.2c-2.8-3.3-4.9-7.6-6.6-12
	c-0.3-0.9-0.6-1.7-0.9-2.6l0,0c-1-3-1.7-5.9-2.4-8.6c0,0,0-0.1,0-0.2c-0.5-2.4-1-4.6-1.3-6.5l0,0v-0.1c-0.1-0.4-0.1-0.8-0.2-1.2l0,0
	c0-0.1,0-0.2,0-0.2l0,0c-0.1-0.3-0.1-0.5-0.1-0.8c-0.4-2.5-0.8-4.8-1.1-6.9c0-0.1,0-0.2,0-0.3c-0.3-1.9-0.5-3.7-0.6-5.5
	c0-0.1,0-0.1,0-0.2c-0.1-1.3-0.1-2.6-0.1-3.8v-0.1c0-0.6,0.1-1.2,0.1-1.8c0-0.1,0-0.2,0-0.3c0.3-2.7,1-5.2,2.3-7.6V249
	c0.1-0.1,0.1-0.2,0.2-0.3c1.6-3,3.8-5.4,6.5-7.4c0.1-0.1,0.1-0.1,0.2-0.1c2.1-1.6,4.5-2.9,7.1-4h0.1c0.1,0,0.2-0.1,0.3-0.1
	c0.7-0.3,1.4-0.5,2.1-0.8c13.2-4.6,30.6-3.9,42.8-2.7h0.1c1.9,0.2,3.6,0.4,5.2,0.6c2.5,0.3,4.5,0.6,6.1,0.9c0.3,0,0.5,0.1,0.8,0.1
	c2.7,0.4,5.5,0.8,8.4,1.4c2.7,0.5,5.4,1.1,8,1.9c0.9,0.3,1.9,0.6,2.8,0.9c0.7,0.2,1.4,0.5,2.1,0.8c0,0,0,0,0.1,0
	c3,1.2,5.8,2.7,8.1,4.6c2.2,1.8,4,3.9,5.2,6.5c3.9,8.4-2.2,13.3,1.2,20.7c7.6,16.5,43.5,4.5,54.2,21.3
	C1281.3,304.5,1274.9,324.2,1264.5,333.7z"/>
<path class="st2" d="M1236.1,62.1c0.4,0.5-11.2,8.6-9.8,14.4c2.9,11.8,57.4,7.3,57.6,10.4c0.2,3.5-69.3,10.4-69.2,16.7
	c0.1,5.1,44.9,4.7,47.3,17.3c1.6,8.6-18.4,14.5-17.3,24.8c1.3,11.7,29.6,23.2,41.5,14.4c10.5-7.8,0.7-25.8,13.8-38.6
	c8.3-8.1,15.1-3.7,24.2-12.1c10.4-9.6,16.8-29.3,9.8-40.3c-10.7-16.8-46.6-4.8-54.2-21.3c-3.4-7.4,2.7-12.3-1.2-20.7
	c-5.3-11.5-22-14.2-34.6-16.1c-12.1-1.8-59.5-9-71.5,13.8c-3.9,7.4-2.5,15.1-0.6,26.5c1.5,8.7,5.7,33.3,19,37.5
	C1208.8,94.1,1235.3,61.3,1236.1,62.1z"/>
<path class="st3" d="M882,0c-4.1,2.1-8.3,4.1-12.8,6c-4.2,1.8-8.4,3.4-12.8,4.9C790.9,33.8,708,26.3,642.8,0H882z"/>
<path class="st3" d="M1249.7,0c-1.2,1.5-2.4,3-3.6,4.5c-1.7,2-3.4,3.9-5.2,5.9c-16.5,17.7-39,33.5-63.4,42.2
	c-1.6,0.6-3.2,1.1-4.9,1.6c-1.7,0.5-3.3,1-5,1.5l0,0c-8.7,2.3-17.5,3.7-26.3,3.9c-8.6,0.2-17.1-0.7-25.5-2.9
	c-8.5-2.2-15.7-5.6-22.2-9.7h-0.1c-7-4.5-13.1-9.9-18.5-15.8c-0.5-0.5-0.9-1-1.4-1.5c-0.8-0.9-1.6-1.8-2.4-2.8
	c-1.5-1.8-3-3.7-4.5-5.6l0,0c-0.2-0.3-0.5-0.6-0.7-1c-4.9-6.5-9.3-13.3-13.7-20.1h197.4L1249.7,0L1249.7,0z"/>
<path class="st3" d="M1461.5,80.2c-1.7,1.7-3.5,3.2-5.4,4.6c-2.8,2-5.7,3.8-8.9,5.3c-20.1,9.8-47.4,9.2-73.1,1
	c-13.8-4.4-27.1-11-38.7-19.3l0,0c-2.7-1.9-5.2-4-7.7-6.1c-1.7-1.5-3.4-3-5.1-4.6c-17.6-17-28.7-38.9-33.4-61.1H1481
	C1484,24.1,1481.9,60.2,1461.5,80.2z"/>
<path class="st2" d="M1484.9,305.6c-2,10-3.4,20.7-3.1,31.4h-115.5c9-12.5,19.2-24.4,29.9-35.3c39.3-40.1,84.4-66.3,97.4-58.2
	C1503.6,249.9,1491.1,275,1484.9,305.6z"/>
<path class="st3" d="M883.7,307.2c-1,0.2-1.9,0.3-2.8,0.5L813.3,337H427.4c1.2-1.4,2.4-2.7,3.7-4.1c19.7-21.4,42-40.7,65.9-56.6l0,0
	c1.3-0.9,2.6-1.8,4-2.6l0,0c1.2-0.8,2.5-1.6,3.8-2.4c1.8-1.1,3.5-2.2,5.3-3.3c2.2-1.3,4.3-2.6,6.5-3.8c2-1.1,4-2.2,6-3.3
	c2.4-1.3,4.8-2.5,7.2-3.8c1.8-0.9,3.5-1.8,5.3-2.6c2-1,4.1-2,6.2-2.9c2.8-1.3,5.6-2.5,8.4-3.6c6.6-2.8,13.2-5.3,20-7.5
	c7.1-2.4,14.3-4.5,21.5-6.4c1.4-0.4,2.9-0.7,4.3-1.1c0.4-0.1,0.8-0.2,1.2-0.3c1.8-0.4,3.7-0.9,5.5-1.3c17-3.8,34.3-6,51.4-6.9
	c13.1-0.7,26.2-0.6,39,0.3c1.4,0.1,2.7,0.2,4.1,0.3c6.8,0.5,13.7,1.3,20.4,2.2c1.2,0.2,2.4,0.3,3.6,0.5c1.4,0.2,2.7,0.4,4.1,0.7
	c6.4,1.1,12.7,2.3,18.9,3.7c7.1,1.6,14.2,3.5,21.1,5.6c11,3.3,21.7,7.2,32.1,11.6c9.5,4.1,18.7,8.6,27.5,13.5
	c0.8,0.4,1.5,0.9,2.3,1.3c0.2,0.1,0.4,0.2,0.6,0.4l0,0c0.1,0.1,0.2,0.1,0.3,0.2c0.7,0.4,1.4,0.8,2.1,1.2c5,2.9,9.9,6,14.6,9.2
	c7.7,5.2,15.1,10.8,22.1,16.5c0.1,0,0.2,0.1,0.2,0.2c5.9,4.8,11.5,9.8,16.8,14.8C883.3,306.8,883.5,307,883.7,307.2z"/>
<circle class="st2" cx="834.9" cy="223.1" r="20.3"/>
<circle class="st2" cx="740.5" cy="237.2" r="20.3"/>
<circle class="st2" cx="842" cy="316.8" r="20.3"/>
<circle class="st2" cx="930.3" cy="292" r="7.1"/>
<circle class="st2" cx="503.8" cy="273.9" r="7.1"/>
<circle class="st2" cx="441.3" cy="319.6" r="7.1"/>
<path class="st4" d="M200,148.5h19v5.9h-26v-38.5h24.9v5.9H200v10h15.4v5.9H200V148.5z"/>
<path class="st4" d="M237.9,146.3c0-0.6-0.2-1.1-0.5-1.5s-0.8-0.7-1.3-1c-0.6-0.3-1.2-0.5-1.9-0.7s-1.5-0.4-2.3-0.6
	c-1-0.3-2-0.6-2.9-0.9c-0.9-0.4-1.7-0.8-2.4-1.4c-0.7-0.6-1.3-1.3-1.7-2.2s-0.6-1.9-0.6-3.2c0-1.6,0.3-2.9,0.8-4
	c0.6-1.1,1.3-2.1,2.3-2.8c1-0.7,2.1-1.3,3.3-1.7c1.3-0.4,2.6-0.5,4-0.5c1.7,0,3.3,0.1,4.8,0.4s2.8,0.6,4.1,1.1v5.6
	c-0.6-0.2-1.3-0.4-2-0.6c-0.7-0.2-1.4-0.3-2.1-0.5c-0.7-0.1-1.4-0.2-2.1-0.3c-0.7-0.1-1.4-0.1-2-0.1c-0.8,0-1.5,0.1-2,0.2
	c-0.6,0.2-1,0.4-1.4,0.6c-0.3,0.3-0.6,0.6-0.7,0.9c-0.2,0.3-0.2,0.7-0.2,1c0,0.6,0.2,1.2,0.5,1.6c0.3,0.4,0.8,0.7,1.4,1
	c0.6,0.2,1.2,0.5,1.9,0.6c0.7,0.2,1.3,0.3,1.9,0.5c1,0.2,1.9,0.5,2.9,0.8s1.8,0.8,2.6,1.4c0.8,0.6,1.4,1.3,1.9,2.3
	c0.5,0.9,0.7,2.1,0.7,3.6c0,1.6-0.3,2.9-0.9,4.1c-0.6,1.2-1.4,2.1-2.5,2.9c-1.1,0.8-2.3,1.4-3.8,1.7c-1.5,0.4-3.1,0.6-4.9,0.6
	c-1.8,0-3.4-0.1-4.8-0.4c-1.4-0.3-2.6-0.6-3.5-1v-5.5c1.5,0.6,2.9,0.9,4.1,1.1c1.3,0.2,2.4,0.3,3.5,0.3c0.8,0,1.6-0.1,2.4-0.2
	c0.7-0.1,1.4-0.3,1.9-0.6s0.9-0.6,1.3-1C237.8,147.4,237.9,146.9,237.9,146.3z"/>
<path class="st4" d="M267.6,154.4c-0.8,0.2-1.7,0.4-2.7,0.5c-1.1,0.1-2.1,0.2-3,0.2c-2.3,0-4.3-0.4-5.7-1.1
	c-1.5-0.8-2.5-1.8-3.1-3.3c-0.4-1-0.7-2.4-0.7-4.1v-14.4h-5.2v-5.6h5.2v-7.8h6.8v7.8h8.1v5.6h-8.1v13.5c0,1.1,0.2,1.9,0.5,2.4
	c0.6,0.9,1.7,1.3,3.4,1.3c0.8,0,1.6-0.1,2.3-0.2c0.8-0.1,1.5-0.3,2.2-0.5L267.6,154.4L267.6,154.4z"/>
<path class="st4" d="M287.2,149.6c1.3,0,2.7-0.1,4.1-0.4c1.4-0.3,2.9-0.7,4.4-1.2v5.4c-0.9,0.4-2.2,0.7-4.1,1.1
	c-1.8,0.3-3.7,0.5-5.7,0.5s-3.9-0.3-5.6-0.8c-1.8-0.5-3.3-1.3-4.6-2.5c-1.3-1.1-2.4-2.6-3.1-4.4c-0.8-1.8-1.2-4-1.2-6.6
	c0-2.5,0.4-4.7,1.1-6.6c0.7-1.9,1.7-3.5,2.9-4.7c1.2-1.2,2.6-2.2,4.2-2.8c1.6-0.6,3.2-0.9,4.9-0.9c1.8,0,3.4,0.3,4.9,0.8
	s2.8,1.4,3.9,2.5c1.1,1.2,1.9,2.6,2.5,4.4c0.6,1.8,0.9,4,0.9,6.4c0,1,0,1.8-0.1,2.4h-18.3c0.1,1.3,0.4,2.4,0.9,3.3
	c0.5,0.9,1.1,1.6,1.9,2.2c0.8,0.6,1.7,1,2.7,1.2C284.9,149.5,286,149.6,287.2,149.6z M284.5,131.2c-0.9,0-1.6,0.2-2.3,0.5
	c-0.7,0.3-1.3,0.7-1.7,1.3s-0.9,1.2-1.2,1.9c-0.3,0.7-0.5,1.5-0.6,2.3h11c0-0.8-0.1-1.6-0.3-2.3c-0.2-0.7-0.5-1.4-1-1.9
	s-1-1-1.6-1.3C286.1,131.3,285.4,131.2,284.5,131.2z"/>
<path class="st4" d="M329.6,149.6c1.3,0,2.7-0.1,4.1-0.4c1.4-0.3,2.9-0.7,4.4-1.2v5.4c-0.9,0.4-2.2,0.7-4.1,1.1
	c-1.8,0.3-3.7,0.5-5.7,0.5s-3.9-0.3-5.6-0.8c-1.8-0.5-3.3-1.3-4.6-2.5c-1.3-1.1-2.4-2.6-3.1-4.4c-0.8-1.8-1.2-4-1.2-6.6
	c0-2.5,0.4-4.7,1.1-6.6c0.7-1.9,1.7-3.5,2.9-4.7c1.2-1.2,2.6-2.2,4.2-2.8c1.6-0.6,3.2-0.9,4.9-0.9c1.8,0,3.4,0.3,4.9,0.8
	s2.8,1.4,3.9,2.5c1.1,1.2,1.9,2.6,2.5,4.4c0.6,1.8,0.9,4,0.9,6.4c0,1,0,1.8-0.1,2.4h-18.3c0.1,1.3,0.4,2.4,0.9,3.3
	c0.5,0.9,1.1,1.6,1.9,2.2c0.8,0.6,1.7,1,2.7,1.2S328.4,149.6,329.6,149.6z M326.9,131.2c-0.9,0-1.6,0.2-2.3,0.5
	c-0.7,0.3-1.3,0.7-1.7,1.3c-0.5,0.5-0.9,1.2-1.2,1.9c-0.3,0.7-0.5,1.5-0.6,2.3h11c0-0.8-0.1-1.6-0.3-2.3c-0.2-0.7-0.5-1.4-1-1.9
	s-1-1-1.6-1.3C328.5,131.3,327.7,131.2,326.9,131.2z"/>
<path class="st4" d="M357.8,146.3c0-0.6-0.2-1.1-0.5-1.5s-0.8-0.7-1.3-1c-0.6-0.3-1.2-0.5-1.9-0.7c-0.7-0.2-1.5-0.4-2.3-0.6
	c-1-0.3-2-0.6-2.9-0.9c-0.9-0.4-1.7-0.8-2.4-1.4c-0.7-0.6-1.3-1.3-1.7-2.2c-0.4-0.9-0.6-1.9-0.6-3.2c0-1.6,0.3-2.9,0.8-4
	c0.6-1.1,1.3-2.1,2.3-2.8c0.9-0.7,2.1-1.3,3.3-1.7c1.3-0.4,2.6-0.5,4-0.5c1.7,0,3.3,0.1,4.8,0.4s2.8,0.6,4.1,1.1v5.6
	c-0.6-0.2-1.3-0.4-2-0.6c-0.7-0.2-1.4-0.3-2.1-0.5c-0.7-0.1-1.4-0.2-2.1-0.3s-1.4-0.1-2-0.1c-0.8,0-1.5,0.1-2,0.2
	c-0.6,0.2-1,0.4-1.4,0.6s-0.6,0.6-0.7,0.9c-0.2,0.3-0.2,0.7-0.2,1c0,0.6,0.2,1.2,0.5,1.6c0.3,0.4,0.8,0.7,1.4,1
	c0.6,0.2,1.2,0.5,1.9,0.6c0.7,0.2,1.3,0.3,1.9,0.5c1,0.2,1.9,0.5,2.9,0.8s1.8,0.8,2.6,1.4c0.8,0.6,1.4,1.3,1.9,2.3
	c0.5,0.9,0.7,2.1,0.7,3.6c0,1.6-0.3,2.9-0.9,4.1c-0.6,1.2-1.4,2.1-2.5,2.9c-1.1,0.8-2.3,1.4-3.8,1.7c-1.5,0.4-3.1,0.6-4.9,0.6
	s-3.4-0.1-4.8-0.4c-1.4-0.3-2.6-0.6-3.5-1v-5.5c1.5,0.6,2.9,0.9,4.1,1.1c1.3,0.2,2.4,0.3,3.5,0.3c0.8,0,1.6-0.1,2.4-0.2
	c0.7-0.1,1.4-0.3,1.9-0.6s0.9-0.6,1.3-1C357.6,147.4,357.8,146.9,357.8,146.3z"/>
<path class="st4" d="M384.4,155.1c-1.5,0-2.9-0.3-4.1-0.8s-2.2-1.2-3-2h-0.1c0,0.4,0,0.9,0.1,1.6c0,0.7,0,1.5,0,2.3v11.6h-6.8v-41.3
	h6l0.3,3.1h0.1c0.8-1.1,1.9-2,3.3-2.7c1.3-0.7,2.9-1.1,4.6-1.1c1.5,0,3,0.3,4.5,0.8c1.5,0.6,2.8,1.4,3.9,2.6s2,2.6,2.7,4.4
	c0.7,1.8,1,3.9,1,6.4c0,2.6-0.4,4.8-1.1,6.7s-1.7,3.5-2.9,4.7c-1.2,1.2-2.5,2.2-4,2.7C387.4,154.8,385.9,155.1,384.4,155.1z
	 M383.5,131.3c-1.2,0-2.3,0.3-3.4,0.9c-1.1,0.6-2,1.3-2.8,2.3v12.4c0.3,0.3,0.6,0.7,1,1s0.9,0.6,1.4,0.9c0.5,0.3,1,0.5,1.7,0.7
	c0.6,0.2,1.2,0.3,1.9,0.3c1.1,0,2-0.2,2.8-0.7s1.5-1.1,2.1-1.9c0.5-0.8,1-1.8,1.3-2.9c0.3-1.1,0.4-2.4,0.4-3.8
	c0-1.5-0.1-2.8-0.4-3.9c-0.3-1.1-0.7-2.1-1.3-2.8c-0.5-0.7-1.2-1.3-2-1.7C385.3,131.5,384.4,131.3,383.5,131.3z"/>
<path class="st4" d="M419.2,151.5h-0.1c-0.4,0.4-0.8,0.8-1.4,1.2c-0.5,0.4-1.2,0.8-1.8,1.2c-0.7,0.4-1.5,0.7-2.3,0.9
	s-1.8,0.3-2.7,0.3c-1.3,0-2.6-0.2-3.7-0.6c-1.2-0.4-2.1-1-3-1.8c-0.8-0.8-1.5-1.7-1.9-2.8c-0.5-1.1-0.7-2.3-0.7-3.7
	c0-1.5,0.3-2.8,0.8-4s1.3-2.2,2.3-3s2.1-1.5,3.5-1.9s2.9-0.6,4.5-0.6c1.2,0,2.3,0.1,3.3,0.2c1,0.2,1.9,0.3,2.7,0.5v-1.1
	c0-0.7-0.1-1.3-0.3-1.9c-0.2-0.6-0.6-1.1-1.1-1.6s-1.1-0.8-1.9-1.1s-1.7-0.4-2.9-0.4c-1.4,0-2.8,0.2-4.1,0.5
	c-1.4,0.3-2.9,0.8-4.5,1.4v-5.3c1.4-0.6,2.9-1.1,4.5-1.4s3.2-0.5,4.9-0.5c2,0,3.8,0.2,5.3,0.7s2.8,1.2,3.8,2.1
	c1,0.9,1.8,1.9,2.3,3.1c0.5,1.2,0.8,2.5,0.8,3.9v10.5c0,1.8,0,3.4,0.1,4.7c0,1.3,0.1,2.5,0.1,3.5h-6.2L419.2,151.5z M418.6,142.5
	c-0.7-0.2-1.4-0.3-2.2-0.4c-0.8-0.1-1.7-0.2-2.6-0.2c-1.7,0-3,0.3-4,1s-1.5,1.7-1.5,3c0,0.6,0.1,1.2,0.3,1.7
	c0.2,0.5,0.5,0.9,0.9,1.2s0.8,0.5,1.3,0.7s1,0.2,1.6,0.2c0.7,0,1.3-0.1,2-0.3c0.6-0.2,1.2-0.4,1.7-0.7s1-0.6,1.4-0.9
	c0.4-0.3,0.8-0.7,1-1v-4.3H418.6z"/>
<path class="st4" d="M441.4,154.6c-1.4-0.4-2.7-0.9-3.9-1.7c-1.2-0.7-2.2-1.7-3.1-2.8s-1.5-2.5-2-4s-0.7-3.2-0.7-5.2
	c0-2.7,0.4-5,1.3-6.9s2-3.5,3.4-4.7s2.9-2.1,4.6-2.6s3.4-0.8,5-0.8c1.2,0,2.4,0.1,3.6,0.3c1.2,0.2,2.2,0.5,3.1,0.9v5.6
	c-0.8-0.4-1.7-0.7-2.7-0.9c-0.9-0.2-2-0.3-3.1-0.3s-2.1,0.2-3.1,0.5s-1.9,0.9-2.6,1.6c-0.8,0.7-1.4,1.7-1.8,2.9
	c-0.5,1.2-0.7,2.6-0.7,4.4c0,1.2,0.2,2.4,0.5,3.5s0.8,2,1.5,2.8s1.5,1.4,2.6,1.9c1,0.5,2.2,0.7,3.6,0.7c1.2,0,2.4-0.1,3.4-0.4
	c1.1-0.3,2-0.6,2.8-0.9v5.6c-0.8,0.3-1.9,0.7-3.1,0.9c-1.2,0.3-2.6,0.4-4,0.4h-0.5l-0.7,2.7c0.8,0.1,1.5,0.3,2.1,0.6
	c0.7,0.3,1.2,0.6,1.7,1s0.9,0.9,1.1,1.4c0.3,0.5,0.4,1.2,0.4,1.8c0,0.8-0.2,1.6-0.6,2.3s-0.9,1.3-1.7,1.9c-0.7,0.5-1.7,1-2.8,1.3
	c-1.1,0.3-2.4,0.5-3.8,0.5c-0.7,0-1.5-0.1-2.3-0.2c-0.8-0.1-1.4-0.2-1.8-0.4v-4.2c0.5,0.2,1.1,0.3,1.8,0.4c0.7,0.1,1.3,0.1,1.9,0.1
	c0.7,0,1.3-0.1,1.9-0.2c0.5-0.1,0.9-0.3,1.2-0.4c0.3-0.2,0.5-0.4,0.6-0.6c0.1-0.2,0.2-0.4,0.2-0.6c0-0.6-0.4-1-1.3-1.3
	s-2.1-0.5-3.9-0.5L441.4,154.6z"/>
<path class="st4" d="M485.7,140.5c0,2.2-0.3,4.2-1,6s-1.6,3.3-2.8,4.6c-1.2,1.3-2.7,2.3-4.4,3c-1.7,0.7-3.7,1-5.8,1
	c-2.2,0-4.1-0.3-5.9-1c-1.7-0.7-3.2-1.7-4.4-3c-1.2-1.3-2.1-2.8-2.8-4.6c-0.6-1.8-1-3.8-1-6s0.3-4.2,1-6s1.6-3.3,2.8-4.6
	c1.2-1.3,2.7-2.3,4.4-3c1.7-0.7,3.7-1,5.8-1c2.2,0,4.1,0.3,5.9,1c1.7,0.7,3.2,1.7,4.4,3c1.2,1.3,2.1,2.8,2.8,4.6
	C485.3,136.3,485.7,138.3,485.7,140.5z M478.6,140.5c0-1.5-0.2-2.8-0.5-3.9c-0.3-1.1-0.8-2.1-1.4-2.8c-0.6-0.8-1.4-1.3-2.2-1.7
	c-0.9-0.4-1.8-0.6-2.8-0.6s-1.9,0.2-2.8,0.6c-0.9,0.4-1.6,1-2.2,1.7c-0.6,0.8-1.1,1.7-1.4,2.8s-0.5,2.4-0.5,3.9s0.2,2.8,0.5,3.9
	c0.3,1.1,0.8,2.1,1.5,2.8c0.6,0.8,1.4,1.3,2.2,1.7c0.9,0.4,1.8,0.6,2.8,0.6s1.9-0.2,2.8-0.6c0.8-0.4,1.6-1,2.2-1.7
	c0.6-0.8,1.1-1.7,1.4-2.8C478.4,143.3,478.6,142,478.6,140.5z"/>
<path class="st4" d="M517.8,155.1c-1.5,0-2.9-0.3-4.1-0.8c-1.2-0.5-2.2-1.2-3-2h-0.1c0,0.4,0,0.9,0.1,1.6c0,0.7,0,1.5,0,2.3v11.6
	h-6.8v-41.3h6l0.3,3.1h0.1c0.8-1.1,1.9-2,3.3-2.7c1.3-0.7,2.9-1.1,4.6-1.1c1.5,0,3,0.3,4.5,0.8c1.5,0.6,2.8,1.4,3.9,2.6
	c1.1,1.2,2,2.6,2.7,4.4c0.7,1.8,1,3.9,1,6.4c0,2.6-0.4,4.8-1.1,6.7c-0.7,1.9-1.7,3.5-2.9,4.7s-2.5,2.2-4,2.7
	C520.8,154.8,519.3,155.1,517.8,155.1z M516.9,131.3c-1.2,0-2.3,0.3-3.4,0.9c-1.1,0.6-2,1.3-2.8,2.3v12.4c0.3,0.3,0.6,0.7,1,1
	c0.4,0.3,0.9,0.6,1.4,0.9c0.5,0.3,1,0.5,1.7,0.7s1.2,0.3,1.9,0.3c1.1,0,2-0.2,2.8-0.7s1.5-1.1,2.1-1.9c0.5-0.8,1-1.8,1.3-2.9
	c0.3-1.1,0.4-2.4,0.4-3.8c0-1.5-0.1-2.8-0.4-3.9c-0.3-1.1-0.7-2.1-1.3-2.8c-0.5-0.7-1.2-1.3-2-1.7
	C518.7,131.5,517.8,131.3,516.9,131.3z"/>
<path class="st4" d="M548.6,155.1c-2.8,0-5.1-0.5-7-1.4s-3.2-2.2-4.2-3.8c-0.5-0.9-0.9-1.8-1.1-2.8c-0.2-1-0.4-2.2-0.4-3.5v-17h6.8
	v16.3c0,0.9,0.1,1.8,0.2,2.4c0.1,0.7,0.3,1.3,0.6,1.8c0.5,0.8,1.1,1.5,2,1.9c0.8,0.4,1.9,0.6,3,0.6c1.2,0,2.3-0.2,3.1-0.7
	c0.9-0.5,1.5-1.2,2-2.1c0.4-0.9,0.7-2.2,0.7-3.8v-16.5h6.8v17c0,2.3-0.4,4.2-1.2,5.7c-0.4,0.9-1,1.7-1.7,2.4s-1.5,1.3-2.5,1.8
	c-0.9,0.5-2,0.9-3.2,1.2C551.4,155,550,155.1,548.6,155.1z"/>
<path class="st4" d="M595.1,140c0,2.5-0.4,4.7-1.1,6.7c-0.7,1.9-1.7,3.5-2.9,4.8c-1.2,1.2-2.5,2.2-4,2.8s-3,0.9-4.5,0.9
	c-1.1,0-2-0.1-2.8-0.4c-0.8-0.3-1.6-0.6-2.2-1c-0.6-0.4-1.2-0.8-1.6-1.2c-0.4-0.4-0.8-0.8-1-1.1h-0.1l-0.7,3h-5.6
	c0-0.8,0.1-1.8,0.1-3.1c0-1.2,0-2.4,0-3.5v-35.1h6.8v11.6c0,0.8,0,1.6,0,2.3c0,0.7,0,1.2,0,1.6h0.1c0.4-0.3,0.9-0.6,1.4-0.9
	s1.1-0.5,1.7-0.8c0.6-0.2,1.3-0.4,2-0.5s1.5-0.2,2.2-0.2c1.6,0,3.1,0.3,4.5,0.8c1.5,0.6,2.8,1.4,3.9,2.6c1.1,1.2,2,2.6,2.7,4.5
	C594.8,135.6,595.1,137.6,595.1,140z M588.1,140.4c0-1.7-0.2-3.2-0.6-4.5c-0.4-1.3-1-2.2-1.7-2.9s-1.4-1.1-2.1-1.3
	c-0.7-0.2-1.5-0.3-2.2-0.3c-1,0-2,0.2-3,0.6s-2,0.9-2.8,1.6v13.3c0.3,0.3,0.6,0.6,1,1c0.4,0.3,0.8,0.6,1.3,0.9
	c0.5,0.3,1,0.5,1.6,0.7s1.2,0.3,1.8,0.3c1.1,0,2.1-0.2,2.9-0.7c0.8-0.5,1.5-1.1,2.1-1.9c0.6-0.8,1-1.8,1.3-2.9
	C587.9,143,588.1,141.8,588.1,140.4z"/>
<path class="st4" d="M601.5,154.4v-41.7h6.8v41.7H601.5z"/>
<path class="st4" d="M616,112.8h7.2v7.4H616V112.8z M616.2,126.5h6.8v27.9h-6.8V126.5z"/>
<path class="st4" d="M650.8,153.8c-0.9,0.4-1.9,0.7-3.2,0.9c-1.2,0.3-2.6,0.4-3.9,0.4c-2,0-3.9-0.3-5.6-0.9
	c-1.7-0.6-3.3-1.4-4.6-2.6c-1.3-1.2-2.3-2.7-3.1-4.4c-0.7-1.8-1.1-3.9-1.1-6.3c0-2.7,0.4-5,1.3-6.9c0.9-1.9,2-3.5,3.4-4.7
	s2.9-2.1,4.6-2.6c1.7-0.6,3.4-0.8,5.1-0.8c1.2,0,2.4,0.1,3.6,0.3c1.2,0.2,2.2,0.5,3.1,0.9v5.6c-0.8-0.4-1.7-0.7-2.7-0.9
	c-0.9-0.2-2-0.3-3.1-0.3s-2.1,0.2-3.1,0.5s-1.9,0.9-2.6,1.6c-0.8,0.7-1.4,1.7-1.8,2.9c-0.5,1.2-0.7,2.6-0.7,4.3
	c0,1.2,0.2,2.4,0.5,3.5s0.8,2,1.5,2.8s1.5,1.4,2.5,1.9s2.2,0.7,3.6,0.7c1.2,0,2.4-0.1,3.4-0.4c1-0.2,2-0.6,2.9-0.9L650.8,153.8
	L650.8,153.8z"/>
<path class="st4" d="M656.7,112.8h7.2v7.4h-7.2V112.8z M656.8,126.5h6.8v27.9h-6.8V126.5z"/>
<path class="st4" d="M688.3,154.4c-0.8,0.2-1.7,0.4-2.7,0.5c-1.1,0.1-2.1,0.2-3,0.2c-2.3,0-4.3-0.4-5.7-1.1
	c-1.5-0.8-2.5-1.8-3.1-3.3c-0.4-1-0.7-2.4-0.7-4.1v-14.4h-5.2v-5.6h5.2v-7.8h6.8v7.8h8.1v5.6h-8.1v13.5c0,1.1,0.2,1.9,0.5,2.4
	c0.6,0.9,1.7,1.3,3.4,1.3c0.8,0,1.6-0.1,2.3-0.2c0.8-0.1,1.5-0.3,2.2-0.5V154.4z"/>
<path class="st4" d="M710,151.5L710,151.5c-0.5,0.4-0.9,0.8-1.5,1.2c-0.5,0.4-1.2,0.8-1.8,1.2s-1.5,0.7-2.3,0.9s-1.8,0.3-2.7,0.3
	c-1.3,0-2.6-0.2-3.7-0.6c-1.2-0.4-2.1-1-3-1.8c-0.8-0.8-1.5-1.7-1.9-2.8c-0.5-1.1-0.7-2.3-0.7-3.7c0-1.5,0.3-2.8,0.8-4
	s1.3-2.2,2.3-3s2.1-1.5,3.5-1.9s2.9-0.6,4.5-0.6c1.2,0,2.3,0.1,3.3,0.2c1,0.2,1.9,0.3,2.7,0.5v-1.1c0-0.7-0.1-1.3-0.3-1.9
	c-0.2-0.6-0.6-1.1-1.1-1.6s-1.1-0.8-1.9-1.1c-0.8-0.3-1.7-0.4-2.9-0.4c-1.4,0-2.8,0.2-4.1,0.5c-1.4,0.3-2.9,0.8-4.5,1.4v-5.3
	c1.4-0.6,2.9-1.1,4.5-1.4s3.2-0.5,4.9-0.5c2,0,3.8,0.2,5.3,0.7s2.8,1.2,3.8,2.1c1,0.9,1.8,1.9,2.3,3.1c0.5,1.2,0.8,2.5,0.8,3.9v10.5
	c0,1.8,0,3.4,0.1,4.7c0,1.3,0.1,2.5,0.1,3.5h-6.2L710,151.5z M709.5,142.5c-0.7-0.2-1.4-0.3-2.2-0.4c-0.8-0.1-1.7-0.2-2.6-0.2
	c-1.7,0-3,0.3-4,1s-1.5,1.7-1.5,3c0,0.6,0.1,1.2,0.3,1.7s0.5,0.9,0.9,1.2s0.8,0.5,1.3,0.7s1,0.2,1.6,0.2c0.7,0,1.3-0.1,2-0.3
	c0.6-0.2,1.2-0.4,1.7-0.7s1-0.6,1.4-0.9c0.4-0.3,0.8-0.7,1-1L709.5,142.5L709.5,142.5z M711.6,112l-4.7,10h-5.3l3.4-10H711.6z"/>
<path class="st4" d="M740.5,132H740c-2.1,0-3.9,0.3-5.5,0.9c-1.6,0.6-2.8,1.6-3.7,2.9v18.7H724v-27.9h5.6l0.6,3.9h0.1
	c0.8-1.4,1.9-2.5,3.3-3.4c1.4-0.8,3.1-1.2,5.1-1.2c0.7,0,1.3,0,1.8,0.1L740.5,132L740.5,132z"/>
<path class="st4" d="M744.6,112.8h7.2v7.4h-7.2V112.8z M744.7,126.5h6.8v27.9h-6.8V126.5z"/>
<path class="st4" d="M785.8,140.5c0,2.2-0.3,4.2-1,6s-1.6,3.3-2.8,4.6s-2.7,2.3-4.4,3s-3.7,1-5.8,1c-2.2,0-4.1-0.3-5.9-1
	c-1.7-0.7-3.2-1.7-4.4-3s-2.1-2.8-2.8-4.6c-0.6-1.8-1-3.8-1-6s0.3-4.2,1-6s1.6-3.3,2.8-4.6s2.7-2.3,4.4-3s3.7-1,5.8-1
	c2.2,0,4.1,0.3,5.9,1c1.7,0.7,3.2,1.7,4.4,3s2.1,2.8,2.8,4.6S785.8,138.3,785.8,140.5z M778.7,140.5c0-1.5-0.2-2.8-0.5-3.9
	c-0.3-1.1-0.8-2.1-1.4-2.8c-0.6-0.8-1.4-1.3-2.2-1.7c-0.9-0.4-1.8-0.6-2.8-0.6s-1.9,0.2-2.8,0.6c-0.9,0.4-1.6,1-2.2,1.7
	c-0.6,0.8-1.1,1.7-1.4,2.8c-0.3,1.1-0.5,2.4-0.5,3.9s0.2,2.8,0.5,3.9c0.3,1.1,0.8,2.1,1.5,2.8c0.6,0.8,1.4,1.3,2.2,1.7
	c0.9,0.4,1.8,0.6,2.8,0.6s1.9-0.2,2.8-0.6c0.8-0.4,1.6-1,2.2-1.7c0.6-0.8,1.1-1.7,1.4-2.8C778.6,143.3,778.7,142,778.7,140.5z"/>
<path class="st4" d="M822.5,155c-1.5,0-2.9-0.3-4.1-0.8c-1.2-0.5-2.2-1.2-3-2h-0.1c0,0.4,0,0.9,0.1,1.6c0,0.7,0,1.5,0,2.3v11.6h-6.8
	v-41.3h6l0.3,3.1h0.1c0.8-1.1,1.9-2,3.3-2.7c1.3-0.7,2.9-1.1,4.6-1.1c1.5,0,3,0.3,4.5,0.8c1.5,0.6,2.8,1.4,3.9,2.6
	c1.1,1.2,2,2.6,2.7,4.4c0.7,1.8,1,3.9,1,6.4c0,2.6-0.4,4.8-1.1,6.7c-0.7,1.9-1.7,3.5-2.9,4.7s-2.5,2.2-4,2.7
	C825.5,154.7,824.1,155,822.5,155z M821.6,131.2c-1.2,0-2.3,0.3-3.4,0.9c-1.1,0.6-2,1.3-2.8,2.3v12.4c0.3,0.3,0.6,0.7,1,1
	s0.9,0.6,1.4,0.9c0.5,0.3,1,0.5,1.7,0.7c0.6,0.2,1.2,0.3,1.9,0.3c1.1,0,2-0.2,2.8-0.7s1.5-1.1,2.1-1.9c0.5-0.8,1-1.8,1.3-2.9
	c0.3-1.1,0.4-2.4,0.4-3.8c0-1.5-0.1-2.8-0.4-3.9c-0.3-1.1-0.7-2.1-1.3-2.8c-0.5-0.7-1.2-1.3-2-1.7
	C823.4,131.4,822.6,131.2,821.6,131.2z"/>
<path class="st4" d="M867.5,140.4c0,2.2-0.3,4.2-1,6s-1.6,3.3-2.8,4.6s-2.7,2.3-4.4,3s-3.7,1-5.8,1c-2.2,0-4.1-0.4-5.9-1
	c-1.7-0.7-3.2-1.7-4.4-3s-2.1-2.8-2.8-4.6c-0.6-1.8-1-3.8-1-6s0.3-4.2,1-6s1.6-3.3,2.8-4.6s2.7-2.3,4.4-3s3.7-1,5.8-1
	c2.2,0,4.1,0.4,5.9,1c1.7,0.7,3.2,1.7,4.4,3s2.1,2.8,2.8,4.6S867.5,138.2,867.5,140.4z M860.5,140.4c0-1.5-0.2-2.8-0.5-3.9
	c-0.3-1.1-0.8-2.1-1.4-2.8c-0.6-0.8-1.4-1.3-2.2-1.7s-1.8-0.6-2.8-0.6s-1.9,0.2-2.8,0.6c-0.9,0.4-1.6,1-2.2,1.7
	c-0.6,0.8-1.1,1.7-1.4,2.8c-0.3,1.1-0.5,2.4-0.5,3.9s0.2,2.8,0.5,3.9c0.3,1.1,0.8,2.1,1.5,2.8c0.6,0.8,1.4,1.3,2.2,1.7
	c0.9,0.4,1.8,0.6,2.8,0.6s1.9-0.2,2.8-0.6c0.8-0.4,1.6-1,2.2-1.7c0.6-0.8,1.1-1.7,1.4-2.8C860.3,143.1,860.5,141.8,860.5,140.4z"/>
<path class="st4" d="M872.1,140.9c0-2.4,0.3-4.6,1-6.5s1.6-3.5,2.7-4.8c1.2-1.3,2.5-2.3,4-2.9s3-1,4.7-1c0.7,0,1.5,0.1,2.1,0.2
	c0.7,0.1,1.3,0.3,1.9,0.5c0.6,0.2,1.2,0.5,1.7,0.8s1,0.6,1.4,0.9h0.1c0-0.4,0-0.9,0-1.6s0-1.5,0-2.3v-11.6h6.8V146
	c0,1.8,0,3.4,0.1,4.7c0,1.3,0.1,2.5,0.1,3.5h-6.2l-0.3-3h-0.1c-0.4,0.5-0.9,0.9-1.5,1.4s-1.2,0.9-1.9,1.2s-1.4,0.6-2.2,0.8
	s-1.7,0.3-2.7,0.3c-1.5,0-3-0.3-4.4-0.8s-2.6-1.4-3.7-2.5c-1.1-1.1-2-2.6-2.6-4.4C872.5,145.5,872.1,143.4,872.1,140.9z
	 M885.6,149.6c0.7,0,1.3-0.1,1.9-0.3c0.6-0.2,1.2-0.4,1.7-0.7s1-0.6,1.4-0.9c0.4-0.3,0.8-0.7,1-1v-13.2c-0.8-0.7-1.7-1.2-2.7-1.6
	c-1-0.4-2.1-0.6-3.2-0.6c-0.7,0-1.5,0.1-2.2,0.4s-1.5,0.8-2.1,1.5s-1.2,1.6-1.6,2.9c-0.4,1.2-0.6,2.8-0.6,4.7c0,2.8,0.5,5,1.6,6.6
	C881.9,148.7,883.5,149.5,885.6,149.6z"/>
<path class="st4" d="M920.8,149.5c1.3,0,2.7-0.1,4.1-0.4c1.4-0.3,2.9-0.7,4.4-1.2v5.4c-0.9,0.4-2.2,0.7-4.1,1.1
	c-1.8,0.3-3.7,0.5-5.7,0.5s-3.9-0.3-5.6-0.8c-1.8-0.5-3.3-1.3-4.6-2.5c-1.3-1.1-2.4-2.6-3.1-4.4c-0.8-1.8-1.2-4-1.2-6.6
	c0-2.5,0.4-4.7,1.1-6.6c0.7-1.9,1.7-3.5,2.9-4.7s2.6-2.2,4.2-2.8c1.6-0.6,3.2-0.9,4.9-0.9c1.8,0,3.4,0.3,4.9,0.8s2.8,1.4,3.9,2.5
	c1.1,1.2,1.9,2.6,2.5,4.4c0.6,1.8,0.9,4,0.9,6.4c0,1,0,1.8-0.1,2.4H912c0.1,1.3,0.4,2.4,0.9,3.3c0.5,0.9,1.1,1.6,1.9,2.2
	c0.8,0.6,1.7,1,2.7,1.2C918.5,149.4,919.6,149.5,920.8,149.5z M918,131c-0.9,0-1.6,0.2-2.3,0.5s-1.3,0.7-1.7,1.3
	c-0.5,0.5-0.9,1.2-1.2,1.9s-0.5,1.5-0.6,2.3h11c0-0.8-0.1-1.6-0.3-2.3s-0.5-1.4-1-1.9c-0.4-0.5-1-1-1.6-1.3
	C919.7,131.2,918.9,131,918,131z"/>
<path class="st4" d="M206.6,202.4c0-0.6-0.2-1.1-0.5-1.5s-0.8-0.7-1.3-1c-0.6-0.3-1.2-0.5-1.9-0.7s-1.5-0.4-2.3-0.6
	c-1-0.3-2-0.6-2.9-0.9c-0.9-0.4-1.7-0.8-2.4-1.4c-0.7-0.6-1.3-1.3-1.7-2.2s-0.6-1.9-0.6-3.2c0-1.6,0.3-2.9,0.8-4
	c0.6-1.1,1.3-2.1,2.3-2.8c0.9-0.7,2.1-1.3,3.3-1.7c1.3-0.4,2.6-0.5,4-0.5c1.7,0,3.3,0.1,4.8,0.4c1.5,0.3,2.8,0.6,4.1,1.1v5.6
	c-0.6-0.2-1.3-0.4-2-0.6c-0.7-0.2-1.4-0.3-2.1-0.5s-1.4-0.2-2.1-0.3c-0.7-0.1-1.4-0.1-2-0.1c-0.8,0-1.5,0.1-2,0.2
	c-0.6,0.2-1,0.4-1.4,0.6c-0.3,0.3-0.6,0.6-0.7,0.9c-0.2,0.3-0.2,0.7-0.2,1.1c0,0.6,0.2,1.2,0.5,1.6c0.3,0.4,0.8,0.7,1.4,1
	c0.6,0.2,1.2,0.5,1.9,0.6c0.7,0.2,1.3,0.3,1.9,0.5c1,0.2,1.9,0.5,2.9,0.8s1.8,0.8,2.6,1.4c0.8,0.6,1.4,1.3,1.9,2.3
	c0.5,0.9,0.7,2.1,0.7,3.6c0,1.6-0.3,2.9-0.9,4.1c-0.6,1.2-1.4,2.1-2.5,2.9c-1.1,0.8-2.3,1.4-3.8,1.7c-1.5,0.4-3.1,0.6-4.9,0.6
	c-1.8,0-3.4-0.1-4.8-0.4c-1.4-0.3-2.6-0.6-3.5-1.1v-5.5c1.5,0.6,2.9,0.9,4.1,1.1c1.3,0.2,2.4,0.3,3.5,0.3c0.8,0,1.6-0.1,2.4-0.2
	c0.7-0.1,1.4-0.3,1.9-0.6s0.9-0.6,1.3-1C206.5,203.5,206.6,203,206.6,202.4z"/>
<path class="st4" d="M233.6,205.7c1.3,0,2.7-0.1,4.1-0.4c1.4-0.3,2.9-0.7,4.4-1.2v5.4c-0.9,0.4-2.2,0.7-4.1,1.1
	c-1.8,0.3-3.7,0.5-5.7,0.5s-3.9-0.3-5.6-0.8c-1.8-0.5-3.3-1.3-4.6-2.5c-1.3-1.1-2.4-2.6-3.1-4.4c-0.8-1.8-1.2-4-1.2-6.6
	c0-2.5,0.4-4.7,1.1-6.6c0.7-1.9,1.7-3.5,2.9-4.7s2.6-2.2,4.2-2.8c1.6-0.6,3.2-0.9,4.9-0.9c1.8,0,3.4,0.3,4.9,0.8s2.8,1.4,3.9,2.5
	c1.1,1.2,1.9,2.6,2.5,4.4c0.6,1.8,0.9,4,0.9,6.4c0,1,0,1.8-0.1,2.4h-18.3c0.1,1.3,0.4,2.4,0.9,3.3c0.5,0.9,1.1,1.6,1.9,2.2
	c0.8,0.6,1.7,1,2.7,1.2C231.3,205.6,232.4,205.7,233.6,205.7z M230.9,187.2c-0.9,0-1.6,0.2-2.3,0.5s-1.3,0.7-1.7,1.3
	c-0.5,0.5-0.9,1.2-1.2,1.9s-0.5,1.5-0.6,2.3h11c0-0.8-0.1-1.6-0.3-2.3s-0.5-1.4-1-1.9c-0.4-0.5-1-1-1.6-1.3
	C232.5,187.4,231.7,187.2,230.9,187.2z"/>
<path class="st4" d="M266,188h-0.6c-2.1,0-3.9,0.3-5.5,0.9c-1.6,0.6-2.8,1.6-3.7,2.9v18.7h-6.8v-27.9h5.6l0.6,3.9h0.1
	c0.8-1.4,1.9-2.5,3.3-3.4c1.4-0.8,3.1-1.2,5.1-1.2c0.7,0,1.3,0,1.8,0.1v6H266z"/>
<path class="st4" d="M294.5,202.4c0-0.6-0.2-1.1-0.5-1.5s-0.8-0.7-1.3-1c-0.6-0.3-1.2-0.5-1.9-0.7s-1.5-0.4-2.3-0.6
	c-1-0.3-2-0.6-2.9-0.9s-1.7-0.8-2.4-1.4c-0.7-0.6-1.3-1.3-1.7-2.2c-0.4-0.9-0.6-1.9-0.6-3.2c0-1.6,0.3-2.9,0.8-4
	c0.6-1.1,1.3-2.1,2.3-2.8c0.9-0.7,2.1-1.3,3.3-1.7c1.3-0.4,2.6-0.5,4-0.5c1.7,0,3.3,0.1,4.8,0.4c1.5,0.3,2.8,0.6,4.1,1.1v5.6
	c-0.6-0.2-1.3-0.4-2-0.6c-0.7-0.2-1.4-0.3-2.1-0.5s-1.4-0.2-2.1-0.3s-1.4-0.1-2-0.1c-0.8,0-1.5,0.1-2,0.2c-0.6,0.2-1,0.4-1.4,0.6
	c-0.3,0.3-0.6,0.6-0.7,0.9c-0.2,0.3-0.2,0.7-0.2,1.1c0,0.6,0.2,1.2,0.5,1.6c0.3,0.4,0.8,0.7,1.4,1c0.6,0.2,1.2,0.5,1.9,0.6
	c0.7,0.2,1.3,0.3,1.9,0.5c1,0.2,1.9,0.5,2.9,0.8s1.8,0.8,2.6,1.4c0.8,0.6,1.4,1.3,1.9,2.3c0.5,0.9,0.7,2.1,0.7,3.6
	c0,1.6-0.3,2.9-0.9,4.1c-0.6,1.2-1.4,2.1-2.5,2.9c-1.1,0.8-2.3,1.4-3.8,1.7c-1.5,0.4-3.1,0.6-4.9,0.6s-3.4-0.1-4.8-0.4
	c-1.4-0.3-2.6-0.6-3.5-1.1v-5.5c1.5,0.6,2.9,0.9,4.1,1.1c1.3,0.2,2.4,0.3,3.5,0.3c0.8,0,1.6-0.1,2.4-0.2c0.7-0.1,1.4-0.3,1.9-0.6
	s0.9-0.6,1.3-1C294.4,203.5,294.5,203,294.5,202.4z"/>
<path class="st4" d="M321.5,205.7c1.3,0,2.7-0.1,4.1-0.4c1.4-0.3,2.9-0.7,4.4-1.2v5.4c-0.9,0.4-2.2,0.7-4.1,1.1
	c-1.8,0.3-3.7,0.5-5.7,0.5s-3.9-0.3-5.6-0.8c-1.8-0.5-3.3-1.3-4.6-2.5c-1.3-1.1-2.4-2.6-3.1-4.4c-0.8-1.8-1.2-4-1.2-6.6
	c0-2.5,0.4-4.7,1.1-6.6c0.7-1.9,1.7-3.5,2.9-4.7c1.2-1.2,2.6-2.2,4.2-2.8s3.2-0.9,4.9-0.9c1.8,0,3.4,0.3,4.9,0.8s2.8,1.4,3.9,2.5
	c1.1,1.2,1.9,2.6,2.5,4.4c0.6,1.8,0.9,4,0.9,6.4c0,1,0,1.8-0.1,2.4h-18.3c0.1,1.3,0.4,2.4,0.9,3.3c0.5,0.9,1.1,1.6,1.9,2.2
	c0.8,0.6,1.7,1,2.7,1.2C319.2,205.6,320.3,205.7,321.5,205.7z M318.8,187.2c-0.9,0-1.6,0.2-2.3,0.5c-0.7,0.3-1.3,0.7-1.7,1.3
	c-0.5,0.5-0.9,1.2-1.2,1.9c-0.3,0.7-0.5,1.5-0.6,2.3h11c0-0.8-0.1-1.6-0.3-2.3c-0.2-0.7-0.5-1.4-1-1.9c-0.4-0.5-1-1-1.6-1.3
	C320.4,187.4,319.6,187.2,318.8,187.2z"/>
<path class="st4" d="M349.7,211.2c-2.8,0-5.1-0.5-7-1.4c-1.8-0.9-3.2-2.2-4.2-3.8c-0.5-0.9-0.9-1.8-1.1-2.8s-0.4-2.2-0.4-3.5v-17
	h6.8V199c0,0.9,0.1,1.8,0.2,2.4c0.1,0.7,0.3,1.3,0.6,1.8c0.5,0.8,1.1,1.5,2,1.9c0.8,0.4,1.9,0.6,3,0.6c1.2,0,2.3-0.2,3.1-0.7
	c0.9-0.5,1.5-1.2,2-2.1c0.4-0.9,0.7-2.2,0.7-3.8v-16.5h6.8v17c0,2.3-0.4,4.2-1.2,5.7c-0.4,0.9-1,1.7-1.7,2.4s-1.5,1.3-2.5,1.8
	c-0.9,0.5-2,0.9-3.2,1.2C352.5,211.1,351.1,211.2,349.7,211.2z"/>
<g>
	<path class="st5" d="M887.7,226.1c0-3.6,2.9-6.4,6.5-6.4c3.6,0,7.1,3,6.5,7.6h-8.7c0.4,0.7,1.2,1.4,2.5,1.4c1.2,0,2-0.5,2.4-1
		l3.3,1.5c-1,1.8-3,3.2-5.7,3.2C890.4,232.5,887.7,229.7,887.7,226.1z M896.5,224.9c-0.4-0.8-1.2-1.4-2.3-1.4c-1,0-1.7,0.6-2.1,1.4
		H896.5z"/>
	<path class="st5" d="M902.6,215.4h5.8c3.5,0,6.1,1.5,6.1,4.5c0,1.4-0.5,2.5-1.5,3.4c1.3,0.8,2.2,2.1,2.2,3.9c0,3.3-2.8,5.1-6.3,5.1
		h-6.4L902.6,215.4L902.6,215.4z M908.5,221.8c1.2,0,1.8-0.5,1.8-1.4s-0.6-1.4-1.8-1.4h-1.6v2.7H908.5z M909,228.6
		c1.4,0,1.9-0.6,1.9-1.6c0-0.9-0.5-1.6-1.9-1.6h-2.1v3.1H909z"/>
	<path class="st5" d="M916.6,226.1c0-3.6,2.9-6.4,6.5-6.4c3.6,0,6.5,2.8,6.5,6.4c0,3.6-2.9,6.4-6.5,6.4
		C919.5,232.5,916.6,229.7,916.6,226.1z M923.1,228.8c1.5,0,2.6-1.2,2.6-2.6c0-1.5-1.2-2.7-2.6-2.7s-2.6,1.2-2.6,2.7
		C920.5,227.6,921.6,228.8,923.1,228.8z"/>
	<path class="st5" d="M931.3,214.4h3.8v17.9h-3.8V214.4L931.3,214.4z"/>
	<path class="st5" d="M936.8,226.1c0-3.4,2.4-6.4,6.1-6.4c1.3,0,2.5,0.4,3.4,1.1V220h3.8v12.2h-3.8v-0.8c-0.9,0.7-2,1.1-3.4,1.1
		C939.2,232.5,936.8,229.6,936.8,226.1z M943.3,228.8c1.5,0,2.6-1.2,2.6-2.6c0-1.5-1.2-2.7-2.6-2.7s-2.6,1.2-2.6,2.7
		C940.7,227.6,941.9,228.8,943.3,228.8z"/>
	<path class="st5" d="M951.8,226.1c0-3.4,2.4-6.4,6.1-6.4c1.3,0,2.5,0.4,3.4,1.1v-6.5h3.8v17.9h-3.8v-0.8c-0.9,0.7-2,1.1-3.4,1.1
		C954.2,232.5,951.8,229.6,951.8,226.1z M958.3,228.8c1.5,0,2.6-1.2,2.6-2.6c0-1.5-1.2-2.7-2.6-2.7s-2.7,1.2-2.7,2.7
		C955.6,227.6,956.8,228.8,958.3,228.8z"/>
	<path class="st5" d="M966.7,226.1c0-3.4,2.4-6.4,6.1-6.4c1.3,0,2.5,0.4,3.4,1.1V220h3.8v12.2h-3.8v-0.8c-0.9,0.7-2,1.1-3.4,1.1
		C969.1,232.5,966.7,229.6,966.7,226.1z M973.3,228.8c1.5,0,2.6-1.2,2.6-2.6c0-1.5-1.2-2.7-2.6-2.7c-1.5,0-2.6,1.2-2.6,2.7
		C970.6,227.6,971.8,228.8,973.3,228.8z"/>
	<path class="st5" d="M981.3,229l3.8-0.7c0,0.5,0.5,1.2,1.7,1.2c0.7,0,1.1-0.3,1.1-0.8c0-0.5-0.4-0.6-2.4-1.1
		c-2-0.4-3.7-1.3-3.7-3.8c0-2.7,2.4-4,4.6-4c2.3,0,4.1,1.1,4.6,3.1l-3.3,0.8c-0.1-0.3-0.4-0.8-1.3-0.8c-0.6,0-1.1,0.3-1.1,0.7
		c0,0.6,0.5,0.7,2,1.1c1.9,0.5,4.2,1,4.2,3.8c0,3-2.5,4.1-5.2,4.1C983.9,232.5,981.7,231.5,981.3,229z"/>
	<g>
		
			<rect x="890.8" y="219" transform="matrix(0.9513 -0.3083 0.3083 0.9513 -24.3889 285.8226)" class="st5" width="3" height="2.2"/>
		
			<rect x="894.7" y="231.1" transform="matrix(0.9513 -0.3083 0.3083 0.9513 -27.9295 287.621)" class="st5" width="3" height="2.2"/>
	</g>
</g>
<g>
	<g id="freepik--Floor--inject-7" class="st6">
		<path id="freepik--floor--inject-7" class="st7" d="M1069.7,277.7c68.7,36.8,180.1,36.8,248.8,0c68.7-36.8,68.7-96.5,0-133.3
			c-68.7-36.8-180.1-36.8-248.8,0S1001,240.9,1069.7,277.7z"/>
	</g>
	<g id="freepik--Clouds--inject-7">
		<g id="freepik--clouds--inject-7">
			<path class="st8" d="M1092,39.5l-5.3,3c0-0.2,0-0.5,0-0.7v-1.5c0-2.7-1.9-3.8-4.3-2.5c-1,0.6-1.9,1.5-2.5,2.4
				c-0.4-3.4-3-4.7-6.3-2.8c-3.5,2-6.4,7-6.4,11.1v2.3c0,0.9,0.2,1.9,0.6,2.7l-4.4,2.5c-1.4,0.9-2.3,2.4-2.4,4.1
				c0,1.5,1.1,2.1,2.4,1.4L1092,45c1.4-0.9,2.3-2.4,2.4-4.1C1094.4,39.3,1093.3,38.7,1092,39.5z"/>
			<path class="st8" d="M1114.6,54.9l-4,2.3c0-0.2,0-0.4,0-0.5v-1.1c0-2.1-1.4-2.9-3.2-1.9c-0.8,0.5-1.4,1.1-1.9,1.8
				c-0.3-2.6-2.3-3.5-4.8-2.1c-2.9,1.9-4.6,5-4.8,8.4v1.7c0,0.7,0.1,1.4,0.4,2l-3.3,1.9c-1.1,0.7-1.7,1.8-1.8,3.1
				c0,1.1,0.8,1.6,1.8,1l21.6-12.5c1.1-0.7,1.7-1.8,1.8-3.1C1116.4,54.8,1115.6,54.3,1114.6,54.9z"/>
			<path class="st8" d="M1328.2,75.6l-4,2.3c0-0.2,0-0.4,0-0.5v-1.2c0-2.1-1.4-2.9-3.2-1.9c-0.8,0.5-1.4,1.1-1.9,1.8
				c-0.3-2.6-2.3-3.6-4.8-2.1c-2.9,1.9-4.6,5-4.8,8.4v1.7c0,0.7,0.1,1.4,0.4,2l-3.3,1.9c-1.1,0.7-1.7,1.8-1.8,3.1
				c0,1.1,0.8,1.6,1.8,1l21.6-12.5c1.1-0.7,1.7-1.8,1.8-3.1C1330,75.5,1329.2,75,1328.2,75.6z"/>
		</g>
	</g>
	<g id="freepik--Houses--inject-7">
		<g id="freepik--House--inject-7">
			<polygon class="st9" points="1090,149.6 1030.7,183.9 1030.7,186.7 1085.1,218.1 1144.3,183.9 1144.3,181 			"/>
			<polyline class="st10" points="1030.7,183.9 1085.1,215.2 1085.1,218.1 1030.7,186.7 1030.7,183.9 			"/>
			<polygon class="st11" points="1085.1,215.2 1144.3,181 1144.3,183.9 1085.1,218.1 			"/>
			
				<rect x="1135.5" y="172.9" transform="matrix(0.4526 -0.8917 0.8917 0.4526 468.6245 1109.6229)" class="st12" width="5.2" height="0.4"/>
			
				<rect x="1135.5" y="170.1" transform="matrix(0.8503 -0.5264 0.5264 0.8503 79.3605 623.5922)" class="st12" width="0.4" height="4.3"/>
			<path class="st12" d="M1137.3,169.9v11.1c0,0.1,0,0.1-0.1,0.1c-0.2,0.1-0.3,0.1-0.5,0c-0.1,0-0.1-0.1-0.1-0.1v-11.1H1137.3z"/>
			<path class="st9" d="M1145.7,166.5c0,2.9-2.3,5.2-5.2,5.2s-5.2-2.3-5.2-5.2c0-2.9,2.3-5.2,5.2-5.2
				C1143.4,161.3,1145.7,163.6,1145.7,166.5z"/>
			<path class="st13" d="M1142.1,165.1c0.7-2.1,1.4-2.9,0.9-3.2c-2.5-1.4-5.6-0.5-7,1.9c-1.4,2.5-0.5,5.6,1.9,7
				c2.2,1.2,4.9,0.7,6.5-1.2C1142.9,170.2,1141.3,167.9,1142.1,165.1z"/>
			<path class="st9" d="M1136,167.9c0,2-1.6,3.6-3.6,3.6s-3.6-1.6-3.6-3.6c0-2,1.6-3.6,3.6-3.6l0,0
				C1134.4,164.3,1136,165.9,1136,167.9z"/>
			<path class="st13" d="M1132.4,164.3c-0.8,0-1.5,0.2-2.1,0.7c-0.1,2.2,1.8,4.4,1.3,5.1s-1.8,0.3-2.3-0.3c1,1.7,3.2,2.3,5,1.3
				c1.7-1,2.3-3.2,1.3-5C1134.9,165,1133.7,164.3,1132.4,164.3L1132.4,164.3z"/>
			<circle class="st9" cx="1136.9" cy="164" r="6.7"/>
			<path class="st11" d="M1143.4,165.5c-0.8,3.6-4.4,5.8-8,5c-3.6-0.8-5.8-4.4-5-8c0.4-1.8,1.6-3.4,3.2-4.3
				c-0.6,0.3-1.1,0.7-1.5,1.2c-0.8,3.6,1.4,7.2,5,8C1139.4,168,1141.8,167.2,1143.4,165.5L1143.4,165.5z"/>
			
				<rect x="1036.7" y="175.7" transform="matrix(0.4526 -0.8917 0.8917 0.4526 412.0208 1023.0982)" class="st12" width="5.2" height="0.4"/>
			
				<rect x="1036.7" y="173" transform="matrix(0.8503 -0.5264 0.5264 0.8503 63.0751 572.0156)" class="st12" width="0.4" height="4.3"/>
			<path class="st12" d="M1038.5,172.8v11.1c0,0.1,0,0.1-0.1,0.1c-0.2,0.1-0.3,0.1-0.5,0c-0.1,0-0.1-0.1-0.1-0.1v-11.1H1038.5z"/>
			<path class="st9" d="M1046.9,169.3c0,2.9-2.3,5.2-5.2,5.2s-5.2-2.3-5.2-5.2c0-2.9,2.3-5.2,5.2-5.2S1046.9,166.4,1046.9,169.3
				L1046.9,169.3z"/>
			<path class="st13" d="M1043.4,168c0.7-2.1,1.4-2.9,0.9-3.2c-0.8-0.4-1.7-0.7-2.5-0.7c-2.9,0-5.2,2.3-5.2,5.2
				c0,2.9,2.3,5.2,5.2,5.2c1.5,0,3-0.7,4-1.9C1044.2,173,1042.5,170.7,1043.4,168z"/>
			<path class="st9" d="M1037.2,170.8c0,2-1.6,3.6-3.6,3.6s-3.6-1.6-3.6-3.6c0-2,1.6-3.6,3.6-3.6l0,0
				C1035.6,167.1,1037.2,168.7,1037.2,170.8C1037.2,170.8,1037.2,170.8,1037.2,170.8z"/>
			<path class="st13" d="M1033.6,167.1c-0.8,0-1.5,0.2-2.1,0.7c-0.1,2.2,1.8,4.4,1.3,5.1c-0.5,0.7-1.8,0.3-2.3-0.3
				c1,1.7,3.2,2.3,5,1.3c1.7-1,2.3-3.2,1.3-5C1036.1,167.8,1034.9,167.1,1033.6,167.1L1033.6,167.1z"/>
			<circle class="st9" cx="1038.1" cy="166.8" r="6.7"/>
			<path class="st11" d="M1044.6,168.4c-0.8,3.6-4.4,5.8-8,4.9c-3.6-0.8-5.8-4.4-4.9-8c0.4-1.8,1.6-3.3,3.2-4.3
				c-0.6,0.3-1.1,0.7-1.6,1.2c-0.8,3.6,1.4,7.2,5,8C1040.6,170.8,1043,170.1,1044.6,168.4L1044.6,168.4z"/>
			<polygon class="st14" points="1103.5,196.1 1111.7,191.3 1119.2,195.6 1110.9,200.3 			"/>
			<polygon class="st14" points="1045.5,183.9 1045.5,158.2 1085.1,181 1085.1,206.7 			"/>
			<polygon class="st15" points="1045.5,168.4 1085.1,191.2 1085.1,181 1045.5,158.2 			"/>
			<polygon class="st16" points="1129.5,181 1129.5,156 1114.7,152.5 1114.7,149.6 1085.1,181 1085.1,206.7 			"/>
			<polygon class="st17" points="1114.7,149.6 1114.7,152.5 1132,156.8 1132,153.9 			"/>
			<polygon class="st18" points="1092.5,131.1 1132,153.9 1114.7,149.6 1075.2,126.8 			"/>
			<polygon class="st18" points="1082.6,185.3 1114.7,149.6 1114.7,146.8 1080.1,186.7 			"/>
			<polygon class="st12" points="1075.2,124 1114.7,146.8 1080.2,186.7 1040.6,163.9 			"/>
			<polygon class="st17" points="1062.8,160.9 1067.8,163.8 1067.8,171 1062.8,168.2 			"/>
			<polygon class="st18" points="1067.8,163.8 1072.7,160.9 1072.7,165.3 1067.8,171 			"/>
			<polygon class="st7" points="1067.8,156 1062.3,159.2 1062.3,160.7 1067.8,163.8 1073.3,160.7 1073.3,159.2 			"/>
			<polygon class="st15" points="1062.3,160.7 1067.8,163.8 1067.8,162.4 1062.3,159.2 			"/>
			<polygon class="st8" points="1073.3,160.7 1067.8,163.8 1067.8,162.4 1073.3,159.2 			"/>
			<polygon class="st9" points="1064.1,159.2 1067.8,157.1 1071.4,159.2 1067.8,161.3 			"/>
			<polygon class="st18" points="1067.8,157.1 1067.8,161.3 1064.1,159.2 			"/>
			<polygon class="st17" points="1067.8,157.1 1071.4,159.2 1067.8,161.3 			"/>
			<polygon class="st12" points="1088.3,187.7 1099.4,181.3 1099.4,189.9 1088.3,196.3 			"/>
			<polygon class="st15" points="1098.9,189.6 1098.9,181.6 1088.3,187.7 1088.3,195.7 			"/>
			<polygon class="st18" points="1099.4,189.9 1098.9,189.6 1088.3,195.7 1088.3,196.3 			"/>
			<polygon class="st12" points="1088.3,192 1099.4,185.6 1099.4,185 1088.3,191.4 			"/>
			<polygon class="st12" points="1115.4,172 1126.6,165.6 1126.6,174.2 1115.4,180.6 			"/>
			<polygon class="st15" points="1126.1,173.9 1126.1,165.9 1115.4,172 1115.4,180 			"/>
			<polygon class="st18" points="1126.6,174.2 1126.1,173.9 1115.4,180 1115.4,180.6 			"/>
			<polygon class="st12" points="1115.4,176.3 1126.6,169.9 1126.6,169.3 1115.4,175.7 			"/>
			<polygon class="st18" points="1103.5,196.1 1103.5,178.9 1111.7,174.2 1111.7,191.3 			"/>
			<polygon class="st12" points="1111.4,191.1 1111.4,174.3 1103.5,178.9 1103.5,195.7 			"/>
			<polygon class="st17" points="1111.7,174.2 1111.4,174.3 1111.4,191.1 1111.7,191.3 			"/>
			<polygon class="st12" points="1076,184.4 1070.2,181 1070.2,189.6 1076,192.9 			"/>
			<polygon class="st16" points="1070.7,189.3 1070.7,181.3 1076,184.4 1076,192.3 			"/>
			<polygon class="st18" points="1070.2,189.6 1070.7,189.3 1076,192.3 1076,192.9 			"/>
			<polygon class="st12" points="1076,188.6 1070.2,185.3 1070.2,184.7 1076,188 			"/>
			<polygon class="st7" points="1070.7,181.3 1076,184.4 1076,186 1070.7,183 			"/>
			<polygon class="st12" points="1058.7,174.4 1052.9,171 1052.9,179.6 1058.7,182.9 			"/>
			<polygon class="st16" points="1053.4,179.3 1053.4,171.3 1058.7,174.4 1058.7,182.4 			"/>
			<polygon class="st18" points="1052.9,179.6 1053.4,179.3 1058.7,182.4 1058.7,182.9 			"/>
			<polygon class="st12" points="1058.7,178.6 1052.9,175.3 1052.9,174.7 1058.7,178 			"/>
			<polygon class="st7" points="1053.4,171.3 1058.7,174.4 1058.7,176 1053.4,172.9 			"/>
		</g>
		<g id="freepik--house--inject-7">
			<polygon class="st9" points="1295.6,147.1 1236.3,181.4 1236.3,184.2 1295.6,218.4 1354.9,184.2 1354.9,181.4 			"/>
			<polyline class="st10" points="1236.3,181.4 1295.6,215.6 1295.6,218.4 1236.3,184.2 1236.3,181.4 			"/>
			<polygon class="st11" points="1295.6,215.6 1354.9,181.4 1354.9,184.2 1295.6,218.4 			"/>
			
				<rect x="1346.2" y="173.4" transform="matrix(0.4526 -0.8917 0.8917 0.4526 583.5877 1297.7964)" class="st12" width="5.2" height="0.4"/>
			
				<rect x="1346.8" y="169.3" transform="matrix(0.8486 -0.5291 0.5291 0.8486 113.2765 738.6932)" class="st12" width="0.4" height="4.3"/>
			<path class="st12" d="M1348,170.4v11.1c0,0.1,0,0.1-0.1,0.1c-0.2,0.1-0.3,0.1-0.5,0c-0.1,0-0.1-0.1-0.1-0.1v-11.1H1348z"/>
			<path class="st9" d="M1356.4,166.9c0,2.9-2.3,5.2-5.2,5.2c-2.9,0-5.2-2.3-5.2-5.2c0-2.9,2.3-5.2,5.2-5.2l0,0
				C1354.1,161.8,1356.4,164.1,1356.4,166.9z"/>
			<path class="st13" d="M1352.9,165.6c0.7-2.1,1.4-2.9,0.9-3.2c-2.5-1.4-5.6-0.5-7,2c-1.4,2.5-0.5,5.6,2,7c2.2,1.2,4.9,0.7,6.5-1.2
				C1353.7,170.7,1352,168.3,1352.9,165.6z"/>
			<path class="st9" d="M1346.8,168.4c0,2-1.6,3.6-3.6,3.6s-3.6-1.6-3.6-3.6s1.6-3.6,3.6-3.6l0,0
				C1345.1,164.7,1346.8,166.4,1346.8,168.4z"/>
			<path class="st13" d="M1343.1,164.7c-0.8,0-1.5,0.2-2.1,0.7c-0.1,2.2,1.8,4.4,1.3,5.1c-0.5,0.7-1.8,0.3-2.3-0.3
				c1,1.7,3.2,2.3,5,1.3c1.7-1,2.3-3.2,1.3-5C1345.6,165.4,1344.4,164.7,1343.1,164.7L1343.1,164.7z"/>
			<circle class="st9" cx="1347.7" cy="164.5" r="6.7"/>
			<path class="st11" d="M1354.2,166c-0.9,3.6-4.5,5.8-8,4.9c-3.6-0.9-5.8-4.5-4.9-8c0.4-1.8,1.6-3.3,3.2-4.2
				c-0.6,0.3-1.1,0.7-1.6,1.2c-0.8,3.6,1.4,7.2,5,8C1350.1,168.4,1352.5,167.7,1354.2,166L1354.2,166z"/>
			
				<rect x="1242.3" y="173.1" transform="matrix(0.4526 -0.8917 0.8917 0.4526 526.9251 1205.0072)" class="st12" width="5.2" height="0.4"/>
			
				<rect x="1243" y="169.4" transform="matrix(0.8486 -0.5291 0.5291 0.8486 97.4785 683.7499)" class="st12" width="0.4" height="4.3"/>
			<path class="st12" d="M1244.1,170.1v11.1c0,0.1,0,0.1-0.1,0.1c-0.2,0.1-0.3,0.1-0.5,0c-0.1,0-0.1-0.1-0.1-0.1v-11.1H1244.1z"/>
			<path class="st9" d="M1252.5,166.7c0,2.9-2.3,5.2-5.2,5.2s-5.2-2.3-5.2-5.2c0-2.9,2.3-5.2,5.2-5.2l0,0
				C1250.2,161.5,1252.5,163.8,1252.5,166.7z"/>
			<path class="st13" d="M1249,165.4c0.7-2.1,1.4-2.9,0.9-3.2c-2.5-1.4-5.6-0.5-7,2s-0.5,5.6,2,7c2.2,1.2,4.9,0.7,6.5-1.2
				C1249.8,170.4,1248.1,168.1,1249,165.4z"/>
			<path class="st9" d="M1242.9,168.1c0,2-1.6,3.6-3.6,3.6c-2,0-3.6-1.6-3.6-3.6c0-2,1.6-3.6,3.6-3.6c0,0,0,0,0,0
				C1241.2,164.5,1242.9,166.1,1242.9,168.1z"/>
			<path class="st13" d="M1239.2,164.5c-0.8,0-1.5,0.2-2.1,0.7c-0.1,2.2,1.8,4.4,1.3,5.1c-0.5,0.7-1.8,0.3-2.3-0.3
				c1,1.7,3.2,2.3,5,1.3c1.7-1,2.3-3.2,1.3-5C1241.7,165.2,1240.5,164.5,1239.2,164.5L1239.2,164.5z"/>
			<circle class="st9" cx="1243.8" cy="164.2" r="6.7"/>
			<path class="st11" d="M1250.3,165.7c-0.8,3.6-4.4,5.8-8,5c-3.6-0.8-5.8-4.4-5-8c0.4-1.8,1.6-3.4,3.2-4.3
				c-0.6,0.3-1.1,0.7-1.6,1.2c-0.8,3.6,1.4,7.2,5,8C1246.2,168.1,1248.6,167.4,1250.3,165.7L1250.3,165.7z"/>
			<polygon class="st15" points="1307.6,132.3 1312.5,135.1 1312.5,140.9 1307.6,138 			"/>
			<polygon class="st14" points="1312.5,135.1 1317.5,132.3 1317.5,143.7 1312.5,140.9 			"/>
			<polygon class="st12" points="1312.5,127.4 1307.1,130.5 1307.1,132 1312.5,135.1 1318,132 1318,130.5 			"/>
			<polygon class="st18" points="1307.1,132 1312.5,135.1 1312.5,133.7 1307.1,130.5 			"/>
			<polygon class="st17" points="1318,132 1312.5,135.1 1312.5,133.7 1318,130.5 			"/>
			<polygon class="st9" points="1308.9,130.5 1312.5,128.4 1316.2,130.5 1312.5,132.6 			"/>
			<polygon class="st18" points="1312.5,128.4 1312.5,132.6 1308.9,130.5 			"/>
			<polygon class="st17" points="1312.5,128.4 1316.2,130.5 1312.5,132.6 			"/>
			<polygon class="st14" points="1295.6,189.9 1295.6,164.3 1310.4,172.8 1310.4,198.5 			"/>
			<polygon class="st15" points="1295.6,164.3 1310.4,172.8 1310.4,183 1295.6,174.5 			"/>
			<polygon class="st16" points="1340.1,181.4 1340.1,155.7 1325.3,147.1 1310.4,172.8 1310.4,198.5 			"/>
			<polygon class="st18" points="1308,177.1 1325.3,147.1 1325.3,144.3 1305.5,178.5 			"/>
			<polygon class="st12" points="1295.6,127.2 1325.3,144.3 1305.5,178.5 1295.6,172.8 			"/>
			<polygon class="st17" points="1325.3,147.1 1342.6,157.1 1345,155.7 1325.3,144.3 			"/>
			<polygon class="st12" points="1331.4,169.8 1337.3,166.5 1337.3,175 1331.4,178.3 			"/>
			<polygon class="st15" points="1336.8,174.7 1336.8,166.7 1331.4,169.8 1331.4,177.8 			"/>
			<polygon class="st18" points="1337.3,175 1336.8,174.7 1331.4,177.8 1331.4,178.3 			"/>
			<polygon class="st12" points="1331.4,174.1 1337.3,170.7 1337.3,170.2 1331.4,173.5 			"/>
			<polygon class="st12" points="1313.2,180.3 1319,177 1319,185.5 1313.2,188.9 			"/>
			<polygon class="st15" points="1318.5,185.2 1318.5,177.2 1313.2,180.3 1313.2,188.3 			"/>
			<polygon class="st18" points="1319,185.5 1318.5,185.2 1313.2,188.3 1313.2,188.9 			"/>
			<polygon class="st12" points="1313.2,184.6 1319,181.2 1319,180.7 1313.2,184 			"/>
			<polygon class="st12" points="1321.5,160 1329,155.7 1329,162.1 1321.5,166.4 			"/>
			<polygon class="st15" points="1328.5,161.8 1328.5,156 1321.5,160 1321.5,165.8 			"/>
			<polygon class="st18" points="1329,162.1 1328.5,161.8 1321.5,165.8 1321.5,166.4 			"/>
			<polygon points="1342.6,157.1 1340.1,157.1 1340.1,155.7 			"/>
			<polygon class="st18" points="1321.1,192.3 1321.1,175.2 1329.4,170.4 1329.4,187.5 			"/>
			<polygon class="st12" points="1329.1,187.3 1329.1,170.6 1321.1,175.2 1321.1,191.9 			"/>
			<polygon class="st17" points="1329.4,170.4 1329.1,170.6 1329.1,187.3 1329.4,187.5 			"/>
			<polygon class="st16" points="1295.6,189.9 1295.6,164.3 1280.8,172.8 1280.8,198.5 			"/>
			<polygon class="st7" points="1295.6,164.3 1280.8,172.8 1280.8,183 1295.6,174.5 			"/>
			<polygon class="st8" points="1251.2,181.4 1251.2,155.7 1266,147.1 1280.8,172.8 1280.8,198.5 			"/>
			<polygon class="st12" points="1283.3,177.1 1266,147.1 1266,144.3 1285.8,178.5 			"/>
			<polygon class="st18" points="1295.6,127.2 1266,144.3 1285.8,178.5 1295.6,172.8 			"/>
			<polygon class="st17" points="1266,147.1 1248.7,157.1 1246.2,155.7 1266,144.3 			"/>
			<polygon class="st12" points="1261.9,170.4 1256.1,167.1 1256.1,175.7 1261.9,179 			"/>
			<polygon class="st16" points="1256.6,175.4 1256.6,167.4 1261.9,170.4 1261.9,178.4 			"/>
			<polygon class="st7" points="1256.6,167.4 1261.9,170.5 1261.9,171.5 1256.6,168.5 			"/>
			<polygon class="st7" points="1270.6,175.4 1275.9,178.5 1275.9,179.6 1270.6,176.5 			"/>
			<polygon class="st18" points="1256.1,175.7 1256.6,175.4 1261.9,178.4 1261.9,179 			"/>
			<polygon class="st12" points="1261.9,174.7 1256.1,171.4 1256.1,170.8 1261.9,174.1 			"/>
			<polygon class="st12" points="1269.7,160 1262.3,155.7 1262.3,162.1 1269.7,166.4 			"/>
			<polygon class="st16" points="1262.8,161.8 1262.8,156 1269.7,160 1269.7,165.8 			"/>
			<polygon class="st7" points="1262.8,156 1269.7,160 1269.7,161 1262.8,157.1 			"/>
			<polygon class="st18" points="1262.3,162.1 1262.8,161.8 1269.7,165.8 1269.7,166.4 			"/>
			<polygon points="1248.7,157.1 1251.2,157.1 1251.2,155.7 			"/>
			<polygon class="st12" points="1275.9,178.5 1270.1,175.2 1270.1,183.7 1275.9,187.1 			"/>
			<polygon class="st16" points="1270.6,183.4 1270.6,175.4 1275.9,178.5 1275.9,186.5 			"/>
			<polygon class="st18" points="1270.1,183.7 1270.6,183.4 1275.9,186.5 1275.9,187.1 			"/>
			<polygon class="st12" points="1275.9,182.8 1270.1,179.4 1270.1,178.9 1275.9,182.2 			"/>
			<polygon class="st7" points="1270.6,175.4 1275.9,178.5 1275.9,179.6 1270.6,176.5 			"/>
			<polygon class="st17" points="1305.5,178.5 1298.1,174.2 1298.1,182.1 1305.5,186.4 			"/>
			<polygon class="st16" points="1298.6,181.9 1298.6,174.5 1305.5,178.5 1305.5,185.9 			"/>
			<polygon class="st14" points="1298.6,174.5 1298.6,176.2 1305.5,180.2 1305.5,178.5 			"/>
			<polygon class="st18" points="1298.1,182.1 1298.6,181.9 1305.5,185.9 1305.5,186.4 			"/>
			<polygon class="st18" points="1298.1,178.2 1298.6,177.9 1305.5,181.9 1305.5,182.5 			"/>
			<polygon class="st18" points="1301.7,184.2 1302.1,184.4 1302.1,176.5 1301.7,176.3 			"/>
			<g id="freepik--Plants--inject-7">
				<path class="st9" d="M1290.6,195.7l1.3-0.8c0.4-2.1,0.4-4.3,0.2-6.5c-0.7-4.2-3.5-5.6-4.6-5.2s-1.3,1.7,0.6,4.1
					C1289.8,189.8,1290.6,192.7,1290.6,195.7z"/>
				<g class="st19">
					<path d="M1290.6,195.7l1.3-0.8c0.4-2.1,0.4-4.3,0.2-6.5c-0.7-4.2-3.5-5.6-4.6-5.2s-1.3,1.7,0.6,4.1
						C1289.8,189.8,1290.6,192.7,1290.6,195.7z"/>
				</g>
				<path class="st5" d="M1291,194L1291,194C1291,194,1291,194,1291,194c-0.1-0.1-0.1-0.1-0.1-0.1c0.5-3.9-1-8.2-2.8-10
					c0,0,0-0.1,0-0.1c0,0,0.1,0,0.1,0c1.8,1.8,3.4,6.1,2.9,10.1C1291.1,194,1291.1,194,1291,194C1291,194,1291,194,1291,194z"/>
				<path class="st9" d="M1286.9,197.8c-0.2,0.1-0.6-0.1-0.8-0.3c-0.3-0.2-0.5-0.5-0.7-0.8c-0.2-0.3-0.2-0.7-0.2-1.1
					c0-0.2,0.1-0.4,0.1-0.6c0.1-0.2,0.1-0.4,0.2-0.6c0.1-0.2,0.1-0.4,0.1-0.6c-0.1-0.4-0.4-0.7-0.7-0.9c-0.4-0.2-0.7-0.6-0.7-1.1
					c0-0.4,0.2-0.7,0.4-1c0.2-0.3,0.5-0.5,0.7-0.8c0.3-0.3,0.3-0.8,0.1-1.2c-0.2-0.3-0.4-0.6-0.5-0.9c-0.1-0.3-0.1-0.7,0.2-1
					c0.2-0.2,0.5-0.2,0.8-0.2c0.3,0,0.5,0.1,0.8,0.3c0.8,0.4,1.2,1.3,2,1.6c0.3,0.1,0.6,0.2,1,0.2c0.3,0.1,0.6,0.3,0.8,0.5
					c0.3,0.6-0.3,1.3,0,1.9c0.2,0.6,0.7,0.8,1,1.3c0.1,0.2,0.2,0.5,0.1,0.7c0,0.4-0.1,0.8-0.3,1.2c-0.2,0.4-0.4,0.7-0.7,1.1
					L1286.9,197.8z"/>
				<g class="st20">
					<path d="M1286.9,197.8c-0.2,0.1-0.6-0.1-0.8-0.3c-0.3-0.2-0.5-0.5-0.7-0.8c-0.2-0.3-0.2-0.7-0.2-1.1c0-0.2,0.1-0.4,0.1-0.6
						c0.1-0.2,0.1-0.4,0.2-0.6c0.1-0.2,0.1-0.4,0.1-0.6c-0.1-0.4-0.4-0.7-0.7-0.9c-0.4-0.2-0.7-0.6-0.7-1.1c0-0.4,0.2-0.7,0.4-1
						c0.2-0.3,0.5-0.5,0.7-0.8c0.3-0.3,0.3-0.8,0.1-1.2c-0.2-0.3-0.4-0.6-0.5-0.9c-0.1-0.3-0.1-0.7,0.2-1c0.2-0.2,0.5-0.2,0.8-0.2
						c0.3,0,0.5,0.1,0.8,0.3c0.8,0.4,1.2,1.3,2,1.6c0.3,0.1,0.6,0.2,1,0.2c0.3,0.1,0.6,0.3,0.8,0.5c0.3,0.6-0.3,1.3,0,1.9
						c0.2,0.6,0.7,0.8,1,1.3c0.1,0.2,0.2,0.5,0.1,0.7c0,0.4-0.1,0.8-0.3,1.2c-0.2,0.4-0.4,0.7-0.7,1.1L1286.9,197.8z"/>
				</g>
				<path class="st5" d="M1289.1,196.7L1289.1,196.7C1289,196.7,1289,196.6,1289.1,196.7c0.1-3.8-1.7-7.9-3-9.1c0,0,0-0.1,0-0.1
					c0,0,0.1,0,0.1,0C1287.5,188.6,1289.3,192.8,1289.1,196.7C1289.1,196.6,1289.1,196.7,1289.1,196.7z"/>
				<path class="st5" d="M1288.5,192.3L1288.5,192.3c-0.9-0.2-1.8-0.4-2.7-0.4c-0.1,0-0.1,0-0.1-0.1c0,0,0,0,0,0
					c0-0.1,0-0.1,0.1-0.1c0.9,0,1.9,0.2,2.8,0.4c0,0,0.1,0.1,0.1,0.1c0,0,0,0,0,0C1288.6,192.3,1288.5,192.3,1288.5,192.3z"/>
			</g>
			<polygon class="st14" points="1321.1,192.3 1329.4,187.5 1336.8,191.8 1328.5,196.6 			"/>
		</g>
		<polygon class="st9" points="1187.2,204.7 1115,246.4 1115,249.6 1190,293 1262.3,251.2 1262.3,248 		"/>
		<polyline class="st14" points="1220.6,262.5 1228.9,267.3 1242.8,259.3 1234.5,254.5 1220.6,262.5 		"/>
		<polyline class="st10" points="1115,246.4 1190,289.8 1190,293 1115,249.6 1115,246.4 		"/>
		<polygon class="st11" points="1190,289.8 1262.3,248 1262.3,251.2 1190,293 		"/>
		
			<rect x="1249.3" y="236.8" transform="matrix(0.4526 -0.8917 0.8917 0.4526 474.344 1246.9626)" class="st17" width="7.1" height="0.6"/>
		
			<rect x="1249.2" y="233" transform="matrix(0.8503 -0.5264 0.5264 0.8503 62.8897 693.0252)" class="st17" width="0.6" height="6"/>
		<path class="st17" d="M1251.7,232.7V248c0,0.1-0.1,0.2-0.1,0.2c-0.2,0.1-0.5,0.1-0.7,0c-0.1,0-0.1-0.1-0.1-0.2v-15.3H1251.7z"/>
		<circle class="st12" cx="1256.1" cy="227.9" r="7.1"/>
		<path class="st18" d="M1258.4,226.1c0.9-2.9,1.9-4,1.3-4.4c-3.4-1.9-7.7-0.7-9.7,2.7c-1.9,3.4-0.7,7.7,2.7,9.7c3,1.7,6.8,1,9-1.7
			C1259.5,233.1,1257.2,229.9,1258.4,226.1z"/>
		<circle class="st12" cx="1244.9" cy="230" r="5"/>
		<path class="st18" d="M1244.9,225c-1,0-2.1,0.3-2.9,0.9c-0.1,3,2.5,6,1.7,7c-0.7,1-2.5,0.4-3.1-0.5c1.4,2.4,4.4,3.2,6.8,1.8
			s3.2-4.4,1.8-6.8C1248.4,225.9,1246.7,225,1244.9,225L1244.9,225z"/>
		<circle class="st12" cx="1251.2" cy="224.6" r="9.2"/>
		<path class="st18" d="M1260.1,226.7c-1.2,4.9-6.1,7.9-11,6.7c-4.9-1.2-7.9-6.1-6.7-11c0.6-2.4,2.1-4.5,4.3-5.8
			c-0.8,0.5-1.5,1-2.1,1.7c-0.2,0.7-0.2,1.4-0.2,2.1c0,5,4,9.2,9,9.2C1255.9,229.6,1258.4,228.5,1260.1,226.7L1260.1,226.7z"/>
		
			<rect x="1124.3" y="235" transform="matrix(0.4526 -0.8917 0.8917 0.4526 407.545 1134.5222)" class="st17" width="7.1" height="0.6"/>
		
			<rect x="1124.2" y="231.2" transform="matrix(0.8503 -0.5264 0.5264 0.8503 45.1134 626.9816)" class="st17" width="0.6" height="6"/>
		<path class="st17" d="M1126.7,230.9v15.3c0,0.1-0.1,0.2-0.1,0.2c-0.2,0.1-0.5,0.1-0.7,0c-0.1,0-0.1-0.1-0.1-0.2v-15.3H1126.7z"/>
		<circle class="st12" cx="1131.2" cy="226.2" r="7.1"/>
		<path class="st18" d="M1133.4,224.3c0.9-2.9,1.9-4,1.3-4.4c-3.4-1.9-7.7-0.7-9.7,2.7c-1.9,3.4-0.7,7.7,2.7,9.7c3,1.7,6.8,1,9-1.7
			C1134.5,231.3,1132.2,228.1,1133.4,224.3z"/>
		<circle class="st12" cx="1120" cy="228.2" r="5"/>
		<path class="st18" d="M1120,223.2c-1,0-2.1,0.3-2.9,0.9c-0.1,3,2.5,6,1.7,7c-0.7,1-2.5,0.4-3.1-0.5c1.4,2.4,4.4,3.2,6.8,1.8
			c2.4-1.4,3.2-4.4,1.8-6.8C1123.4,224.1,1121.8,223.2,1120,223.2L1120,223.2z"/>
		
			<ellipse transform="matrix(0.7071 -0.7071 0.7071 0.7071 172.3243 861.6092)" class="st12" cx="1126.2" cy="222.8" rx="9.2" ry="9.2"/>
		<path class="st18" d="M1135.1,224.9c-1.2,4.9-6.1,7.9-11,6.7c-4.9-1.2-7.9-6.1-6.7-11c0.6-2.4,2.2-4.5,4.3-5.8
			c-0.8,0.4-1.5,1-2.1,1.7c-0.2,0.7-0.2,1.4-0.2,2.1c0,5,4,9.2,9.1,9.2C1130.9,227.8,1133.4,226.7,1135.1,224.9L1135.1,224.9z"/>
		<polygon class="st14" points="1148.3,236.8 1206.7,270.5 1206.7,219.2 1148.3,185.5 		"/>
		<polygon class="st14" points="1190,251.2 1190,280.1 1131.7,246.4 1131.7,217.6 		"/>
		<polygon class="st15" points="1131.7,227.2 1190,260.9 1190,251.2 1131.7,217.6 		"/>
		<polygon class="st15" points="1148.3,195.1 1206.7,228.8 1206.7,219.2 1148.3,185.5 		"/>
		<polygon class="st16" points="1206.7,219.2 1245.6,196.7 1245.6,248 1206.7,270.5 		"/>
		<polygon class="st16" points="1190,251.2 1206.7,235.2 1206.7,270.5 1190,280.1 		"/>
		<polygon class="st16" points="1226.2,185.5 1206.7,219.2 1245.6,196.7 		"/>
		<polygon class="st9" points="1203.9,224 1226.2,185.5 1226.2,183.1 1203.9,221.6 		"/>
		<polygon class="st11" points="1203.9,224 1226.2,185.5 1226.2,183.1 1203.9,221.6 		"/>
		
			<rect x="1163.6" y="151.8" transform="matrix(0.5 -0.866 0.866 0.5 432.3121 1119.7126)" class="st9" width="44.5" height="67.4"/>
		<polygon class="st9" points="1145.6,187.9 1203.9,221.6 1203.9,224 1145.6,190.3 		"/>
		<polygon class="st10" points="1145.6,187.9 1203.9,221.6 1203.9,224 1145.6,190.3 		"/>
		<polygon class="st9" points="1226.2,183.1 1250.5,197.1 1248.4,198.3 1226.2,185.5 		"/>
		<polygon class="st10" points="1226.2,183.1 1250.5,197.1 1248.4,198.3 1226.2,185.5 		"/>
		<polygon class="st9" points="1248.4,198.3 1245.6,198.3 1245.6,196.7 		"/>
		<polygon class="st21" points="1248.4,198.3 1245.6,198.3 1245.6,196.7 		"/>
		<polygon class="st14" points="1157.3,187.4 1157.3,175.9 1163.9,172 1170.6,183.5 1170.6,195.1 		"/>
		<polygon class="st13" points="1163.9,172 1155.7,176.8 1154.7,176.1 1163.9,170.8 		"/>
		<polygon class="st16" points="1170.6,195.1 1177.2,183.6 1180.6,177.7 1170.6,183.5 		"/>
		<polygon class="st22" points="1155.7,176.8 1157.3,176.8 1157.3,175.9 		"/>
		<polygon class="st9" points="1172.2,186.2 1163.9,172 1163.9,170.8 1173.2,186.8 		"/>
		<polygon class="st11" points="1172.2,186.2 1163.9,172 1163.9,170.8 1173.2,186.8 		"/>
		<polygon class="st9" points="1173.2,186.8 1163.9,170.8 1173.5,165.3 1182.7,181.3 		"/>
		<polygon class="st23" points="1173.2,186.8 1163.9,170.8 1173.5,165.3 1182.7,181.3 		"/>
		<polygon class="st12" points="1167.3,181.6 1160.6,177.8 1160.6,185.5 1167.3,189.3 		"/>
		<polygon class="st15" points="1161.3,185.1 1161.3,178.2 1167.3,181.6 1167.3,188.5 		"/>
		<polygon class="st18" points="1160.6,185.5 1161.3,185.1 1167.3,188.5 1167.3,189.3 		"/>
		<polygon class="st14" points="1185.1,203.5 1185.1,191.9 1191.7,188.1 1198.4,199.5 1198.4,211.1 		"/>
		<polygon class="st13" points="1191.7,188.1 1183.5,192.8 1182.5,192.2 1191.7,186.8 		"/>
		<polygon class="st16" points="1198.4,211.1 1205,199.6 1208.4,193.7 1198.4,199.5 		"/>
		<polygon class="st22" points="1183.5,192.8 1185.1,192.8 1185.1,191.9 		"/>
		<polygon class="st9" points="1199.9,202.3 1191.7,188.1 1191.7,186.8 1201,202.9 		"/>
		<polygon class="st11" points="1199.9,202.3 1191.7,188.1 1191.7,186.8 1201,202.9 		"/>
		<polygon class="st9" points="1201,202.9 1191.7,186.8 1201.3,181.3 1210.5,197.3 		"/>
		<polygon class="st23" points="1201,202.9 1191.7,186.8 1201.3,181.3 1210.5,197.3 		"/>
		<polygon class="st12" points="1195,197.7 1188.4,193.8 1188.4,201.5 1195,205.4 		"/>
		<polygon class="st15" points="1189.1,201.1 1189.1,194.2 1195,197.7 1195,204.6 		"/>
		<polygon class="st18" points="1188.4,201.5 1189.1,201.1 1195,204.6 1195,205.4 		"/>
		<polygon class="st9" points="1148.3,199.3 1206.7,233 1206.7,235.2 1187.2,256.1 1128.9,222.4 1128.9,220.2 		"/>
		<polygon class="st9" points="1148.3,199.3 1206.7,233 1187.2,253.9 1128.9,220.2 		"/>
		<polygon class="st11" points="1187.2,253.9 1187.2,256.1 1206.7,235.2 1206.7,233 		"/>
		<polygon class="st10" points="1187.2,256.1 1128.9,222.4 1128.9,220.2 1187.2,253.9 		"/>
		<polygon class="st17" points="1153.9,236.8 1140,228.8 1140,243.5 1153.9,251.6 		"/>
		<polygon class="st16" points="1140.9,243 1140.9,229.3 1153.9,236.8 1153.9,250.6 		"/>
		<polygon class="st14" points="1140.9,229.3 1140.9,232.5 1153.9,240 1153.9,236.8 		"/>
		<polygon class="st18" points="1140,243.5 1140.9,243 1153.9,250.6 1153.9,251.6 		"/>
		<polygon class="st18" points="1140,236.2 1140.9,235.7 1153.9,243.2 1153.9,244.2 		"/>
		<polygon class="st18" points="1146.7,247.4 1147.5,247.9 1147.5,233.1 1146.7,232.6 		"/>
		<polygon class="st17" points="1178.9,251.2 1165,243.2 1165,258 1178.9,266 		"/>
		<polygon class="st16" points="1165.9,257.5 1165.9,243.7 1178.9,251.2 1178.9,265 		"/>
		<polygon class="st14" points="1165.9,243.7 1165.9,246.9 1178.9,254.5 1178.9,251.2 		"/>
		<polygon class="st18" points="1165,258 1165.9,257.5 1178.9,265 1178.9,266 		"/>
		<polygon class="st18" points="1165,250.6 1165.9,250.1 1178.9,257.6 1178.9,258.6 		"/>
		<polygon class="st18" points="1171.7,261.8 1172.5,262.3 1172.5,247.6 1171.7,247.1 		"/>
		<polygon class="st17" points="1198.4,252.9 1212.3,244.8 1212.3,259.6 1198.4,267.6 		"/>
		<polygon class="st24" points="1211.4,259.1 1211.4,245.3 1198.4,252.9 1198.4,266.6 		"/>
		<polygon class="st15" points="1211.4,245.3 1211.4,246.7 1198.4,254.3 1198.4,252.9 		"/>
		<polygon class="st18" points="1212.3,259.6 1211.4,259.1 1198.4,266.6 1198.4,267.6 		"/>
		<polygon class="st18" points="1212.3,252.2 1211.4,251.7 1198.4,259.2 1198.4,260.2 		"/>
		<polygon class="st18" points="1205.6,263.4 1204.7,263.9 1204.7,249.2 1205.6,248.7 		"/>
		<polygon class="st17" points="1220.3,205.1 1234.2,197.1 1234.2,211.8 1220.3,219.8 		"/>
		<polygon class="st24" points="1233.4,211.3 1233.4,197.6 1220.3,205.1 1220.3,218.9 		"/>
		<polygon class="st15" points="1233.4,197.6 1233.4,199 1220.3,206.5 1220.3,205.1 		"/>
		<polygon class="st18" points="1234.2,211.8 1233.4,211.3 1220.3,218.9 1220.3,219.8 		"/>
		<polygon class="st18" points="1234.2,204.4 1233.4,203.9 1220.3,211.5 1220.3,212.5 		"/>
		<polygon class="st18" points="1227.6,215.7 1226.7,216.2 1226.7,201.4 1227.6,200.9 		"/>
		<polygon class="st18" points="1220.6,262.5 1220.6,236.8 1234.5,228.8 1234.5,254.5 		"/>
		<polygon class="st12" points="1234,254.1 1234,229.1 1220.6,236.8 1220.6,261.8 		"/>
		<polygon class="st17" points="1234.5,228.8 1234,229.1 1234,254.1 1234.5,254.5 		"/>
	</g>
	<g id="freepik--magnifying-glass--inject-7">
		<g id="freepik--magnifying-glas--inject-7">
			<path class="st9" d="M1299.9,49.3c-0.1-4.1-2.1-7.9-5.5-10.2c-1.5-1-3-1.1-4-0.6l0,0c-6.4,3.2-51.6,32.2-54.4,33.6h0
				c-0.6,0.4-1,1.1-0.9,1.9c0,2.1,1.1,4,2.7,5.2c0.6,0.5,1.4,0.6,2.1,0.3h0c4.6-2.5,49.1-21.5,58.2-26.4l0,0
				C1299.1,52.4,1299.8,51.1,1299.9,49.3z"/>
			<path class="st11" d="M1298.1,43.1c-0.9-1.6-2.2-3-3.7-4c-1.5-1-3-1.1-4-0.6l-0.1,0.1c-5.9,3-39.5,24.4-50.8,31.4l-0.1,0
				l-0.5,0.3l-0.1,0.1l-0.3,0.2l-0.3,0.2l0,0c-1.2,0.8-2,1.2-2.3,1.4h0c-0.1,0.1-0.2,0.1-0.3,0.2c-0.4,0.4-0.7,1-0.6,1.7
				c0,0.2,0,0.4,0,0.6c0,0.1,0,0.2,0,0.3c0,0.1,0,0.3,0.1,0.4s0.1,0.2,0.1,0.3c0,0.1,0.1,0.3,0.1,0.4c0,0.1,0.1,0.2,0.1,0.3v0
				L1298.1,43.1z"/>
			<path class="st9" d="M1237.7,79.1c-1.7-1.2-2.7-3.1-2.7-5.1c0.1-1.9,1.4-2.6,3-1.6c1.7,1.2,2.7,3.1,2.7,5.1
				C1240.6,79.4,1239.3,80.1,1237.7,79.1z"/>
			<path class="st18" d="M1224.2,80.4c0,1.6,0.8,3,2.1,3.9c0.4,0.3,1.1,0.4,1.6,0.2l0,0l10.9-5.8l0,0c0.5-0.3,0.7-0.9,0.7-1.4
				c0-1.6-0.8-3-2.1-3.9c-0.4-0.4-1-0.4-1.6-0.2l0,0l-10.9,5.8l0,0C1224.4,79.3,1224.2,79.8,1224.2,80.4z"/>
			<path class="st17" d="M1224.9,78.9c-0.5,0.3-0.8,0.9-0.7,1.4c0,0.6,0.1,1.1,0.3,1.7l14.1-7.5c-0.3-0.5-0.7-0.9-1.2-1.2
				c-0.4-0.4-1-0.4-1.6-0.2L1224.9,78.9z"/>
			<path class="st9" d="M1238.2,90.1c0-7-4.6-14-13.9-19.3c-18.5-10.7-48.5-10.7-67,0c-9.2,5.3-13.9,12.3-13.9,19.3l0,0V103
				c0,7,4.6,14,13.9,19.3c18.5,10.6,48.5,10.6,67,0c9.3-5.3,13.9-12.3,13.9-19.3V90.1z M1159.7,74.7c8.3-4.8,19.3-7.4,31.2-7.4
				c11.8,0,22.9,2.6,31.2,7.4c7.5,4.3,11.6,9.8,11.6,15.4c0,5.6-4.1,11.1-11.6,15.4c-8.3,4.8-19.3,7.4-31.2,7.4
				c-11.8,0-22.9-2.6-31.2-7.4c-7.5-4.3-11.6-9.8-11.6-15.4C1148.1,84.5,1152.2,79,1159.7,74.7z"/>
			<path class="st23" d="M1157.4,109.4c18.5,10.7,48.5,10.7,67,0s18.5-28,0-38.7s-48.5-10.7-67,0S1138.9,98.7,1157.4,109.4z
				 M1148.1,90.1c0-5.6,4.1-11.1,11.6-15.4c8.3-4.8,19.3-7.4,31.2-7.4s22.9,2.6,31.2,7.4c7.5,4.3,11.6,9.8,11.6,15.4
				c0,5.6-4.1,11.1-11.6,15.4c-8.3,4.8-19.3,7.4-31.2,7.4s-22.9-2.6-31.2-7.4C1152.2,101.1,1148.1,95.7,1148.1,90.1L1148.1,90.1z"/>
			<path class="st9" d="M1148.1,90.1c0,2.3,0.7,4.5,1.8,6.5c1.9-3.3,5.2-6.3,9.7-8.9c8.2-4.8,19.3-7.4,31.2-7.4
				c11.8,0,22.9,2.6,31.2,7.4c4.6,2.6,7.9,5.7,9.7,8.9c1.2-1.9,1.8-4.2,1.8-6.5c0-5.6-4.1-11.1-11.6-15.4
				c-8.2-4.8-19.3-7.4-31.2-7.4c-11.8,0-22.9,2.6-31.2,7.4C1152.2,79,1148.1,84.5,1148.1,90.1z"/>
			<path class="st11" d="M1148.1,90.1c0,2.3,0.7,4.5,1.8,6.5c1.9-3.3,5.2-6.3,9.7-8.9c8.2-4.8,19.3-7.4,31.2-7.4
				c11.8,0,22.9,2.6,31.2,7.4c4.6,2.6,7.9,5.7,9.7,8.9c1.2-1.9,1.8-4.2,1.8-6.5c0-5.6-4.1-11.1-11.6-15.4
				c-8.2-4.8-19.3-7.4-31.2-7.4c-11.8,0-22.9,2.6-31.2,7.4C1152.2,79,1148.1,84.5,1148.1,90.1z"/>
			<path class="st25" d="M1159.7,80.5c8.3-4.8,19.3-7.4,31.2-7.4s22.9,2.6,31.2,7.4c6.2,3.6,10,7.9,11.2,12.4
				c-1.2,4.6-5,8.9-11.2,12.5c-8.3,4.8-19.3,7.4-31.2,7.4s-22.9-2.6-31.2-7.4c-6.2-3.6-10-7.9-11.2-12.5
				C1149.7,88.4,1153.5,84.1,1159.7,80.5z"/>
			<path class="st11" d="M1179.7,116.6v12.9c-8.2-1.1-16-3.6-22.3-7.2c-9.3-5.3-13.9-12.3-13.9-19.3V90c0-1.4,0.2-2.8,0.6-4.2l0,0
				c-2.3,8.3,2.2,17.1,13.3,23.6C1163.8,113.1,1171.5,115.5,1179.7,116.6z"/>
		</g>
	</g>
</g>
</svg>
