<svg id="Layer_1" data-name="Layer 1" xmlns="http://www.w3.org/2000/svg" viewBox="0 0 397.44 346.66"><defs><style>.cls-1{fill:#ebebeb;}.cls-2{fill:#e6e6e6;}.cls-3{fill:#f0f0f0;}.cls-4{fill:#f5f5f5;}.cls-5{fill:#165a9a;}.cls-10,.cls-11,.cls-12,.cls-13,.cls-18,.cls-21,.cls-23,.cls-6,.cls-9{fill:#fff;}.cls-15,.cls-17,.cls-6{opacity:0.3;}.cls-10,.cls-11,.cls-12,.cls-13,.cls-15,.cls-16,.cls-18,.cls-20,.cls-21,.cls-23,.cls-6{isolation:isolate;}.cls-7{fill:#263238;}.cls-12,.cls-16,.cls-8{opacity:0.6;}.cls-10,.cls-14{opacity:0.1;}.cls-11{opacity:0.4;}.cls-13{opacity:0.8;}.cls-18,.cls-20{opacity:0.2;}.cls-19{fill:#ebb376;}.cls-21{opacity:0.5;}.cls-22{fill:#d58745;}.cls-23{opacity:0.7;}</style></defs><rect class="cls-1" x="364.32" y="317.59" width="33.12" height="0.25"/><rect class="cls-1" x="270.07" y="320.31" width="8.69" height="0.25"/><rect class="cls-1" x="344.13" y="308.31" width="19.19" height="0.25"/><rect class="cls-1" y="309.99" width="43.19" height="0.25"/><rect class="cls-1" x="52.1" y="309.99" width="6.33" height="0.25"/><rect class="cls-1" x="79.01" y="314.21" width="93.68" height="0.25"/><polygon class="cls-2" points="381.54 299.89 381.54 253.07 377.54 253.07 377.54 230.77 371.68 230.77 371.68 153.2 363.22 153.2 363.22 143.19 345.16 134.77 345.16 124.67 342.66 124.67 342.66 153.2 339.16 153.2 339.16 230.77 335.65 230.77 335.65 189.98 326.15 189.98 326.15 168.96 323.49 168.96 323.49 230.77 316.27 230.77 316.27 207.24 311.52 207.24 311.52 201.24 300.51 201.24 300.51 180.72 294.48 180.72 294.48 166.21 287.07 166.21 287.07 145.07 284.42 145.07 284.42 166.21 277.01 166.21 277.01 180.72 270.98 180.72 270.98 201.24 259.97 201.24 259.97 207.24 255.22 207.24 255.22 230.77 249.58 230.77 249.58 201.24 238.57 201.24 238.57 137.69 235.07 137.69 235.07 130.68 211.55 130.68 211.55 137.69 206.54 137.69 206.54 183.72 186.53 183.72 186.53 188.23 179.02 188.23 179.02 191.73 186.53 191.73 186.53 209.75 165.51 209.75 165.51 149.7 161 149.7 161 136.94 151.25 136.94 151.25 91.65 148.49 91.65 148.49 136.94 141.49 136.94 141.49 149.7 100.41 149.7 100.41 145.5 97.91 145.5 97.91 174.02 94.41 174.02 94.41 174.52 92.3 174.52 92.3 203.04 88.8 203.04 88.8 210.8 81.4 210.8 81.4 189.78 78.75 189.78 78.75 239.83 75.79 239.83 75.79 218.81 73.14 218.81 73.14 251.59 71.52 251.59 71.52 228.07 66.77 228.07 66.77 222.06 55.76 222.06 55.76 201.54 49.73 201.54 49.73 187.03 42.32 187.03 42.32 165.89 39.68 165.89 39.68 187.03 32.26 187.03 32.26 201.54 26.23 201.54 26.23 222.06 15.23 222.06 15.23 228.07 10.47 228.07 10.47 251.09 9.62 251.09 9.62 251.59 7.26 251.59 7.26 299.89 381.54 299.89"/><rect class="cls-3" x="123.33" y="152.5" width="2.84" height="2.84"/><rect class="cls-3" x="123.33" y="157.26" width="2.84" height="2.84"/><rect class="cls-3" x="123.33" y="176.27" width="2.84" height="2.84"/><rect class="cls-3" x="123.33" y="181.03" width="2.84" height="2.84"/><rect class="cls-3" x="123.33" y="185.78" width="2.84" height="2.84"/><rect class="cls-3" x="123.33" y="200.04" width="2.84" height="2.84"/><rect class="cls-3" x="123.33" y="204.8" width="2.84" height="2.84"/><rect class="cls-3" x="127.84" y="171.52" width="2.84" height="2.84"/><rect class="cls-3" x="127.84" y="176.27" width="2.84" height="2.84"/><rect class="cls-3" x="127.84" y="181.03" width="2.84" height="2.84"/><rect class="cls-3" x="127.84" y="185.78" width="2.84" height="2.84"/><rect class="cls-3" x="127.84" y="190.53" width="2.84" height="2.84"/><rect class="cls-3" x="127.84" y="200.04" width="2.84" height="2.84"/><rect class="cls-3" x="127.84" y="204.8" width="2.84" height="2.84"/><rect class="cls-3" x="132.34" y="152.5" width="2.84" height="2.84"/><rect class="cls-3" x="132.34" y="157.26" width="2.84" height="2.84"/><rect class="cls-3" x="132.34" y="162.01" width="2.84" height="2.84"/><rect class="cls-3" x="132.34" y="166.76" width="2.84" height="2.84"/><rect class="cls-3" x="132.34" y="171.52" width="2.84" height="2.84"/><rect class="cls-3" x="132.34" y="176.27" width="2.84" height="2.84"/><rect class="cls-3" x="132.34" y="181.03" width="2.84" height="2.84"/><rect class="cls-3" x="132.34" y="185.78" width="2.84" height="2.84"/><rect class="cls-3" x="132.34" y="190.53" width="2.84" height="2.84"/><rect class="cls-3" x="132.34" y="195.29" width="2.84" height="2.84"/><rect class="cls-3" x="132.34" y="204.8" width="2.84" height="2.84"/><rect class="cls-3" x="136.84" y="152.5" width="2.84" height="2.84"/><rect class="cls-3" x="136.84" y="157.26" width="2.84" height="2.84"/><rect class="cls-3" x="136.84" y="162.01" width="2.84" height="2.84"/><rect class="cls-3" x="136.84" y="166.76" width="2.84" height="2.84"/><rect class="cls-3" x="136.84" y="171.52" width="2.84" height="2.84"/><rect class="cls-3" x="136.84" y="176.27" width="2.84" height="2.84"/><rect class="cls-3" x="136.84" y="181.03" width="2.84" height="2.84"/><rect class="cls-3" x="136.84" y="223.81" width="2.84" height="2.84"/><rect class="cls-3" x="141.35" y="152.5" width="2.84" height="2.84"/><rect class="cls-3" x="141.35" y="157.26" width="2.84" height="2.84"/><rect class="cls-3" x="141.35" y="162.01" width="2.84" height="2.84"/><rect class="cls-3" x="141.35" y="166.76" width="2.84" height="2.84"/><rect class="cls-3" x="141.35" y="171.52" width="2.84" height="2.84"/><rect class="cls-3" x="141.35" y="176.27" width="2.84" height="2.84"/><rect class="cls-3" x="141.35" y="181.03" width="2.84" height="2.84"/><rect class="cls-3" x="141.35" y="185.78" width="2.84" height="2.84"/><rect class="cls-3" x="141.35" y="214.3" width="2.84" height="2.84"/><rect class="cls-3" x="141.35" y="219.06" width="2.84" height="2.84"/><rect class="cls-3" x="141.35" y="223.81" width="2.84" height="2.84"/><rect class="cls-3" x="141.35" y="228.57" width="2.84" height="2.84"/><rect class="cls-3" x="141.35" y="247.58" width="2.84" height="2.84"/><rect class="cls-3" x="145.85" y="152.5" width="2.84" height="2.84"/><rect class="cls-3" x="145.85" y="157.26" width="2.84" height="2.84"/><rect class="cls-3" x="145.85" y="162.01" width="2.84" height="2.84"/><rect class="cls-3" x="145.85" y="166.76" width="2.84" height="2.84"/><rect class="cls-3" x="145.85" y="171.52" width="2.84" height="2.84"/><rect class="cls-3" x="145.85" y="176.27" width="2.84" height="2.84"/><rect class="cls-3" x="145.85" y="181.03" width="2.84" height="2.84"/><rect class="cls-3" x="145.85" y="185.78" width="2.84" height="2.84"/><rect class="cls-3" x="145.85" y="190.53" width="2.84" height="2.84"/><rect class="cls-3" x="145.85" y="195.29" width="2.84" height="2.84"/><rect class="cls-3" x="145.85" y="209.55" width="2.84" height="2.84"/><rect class="cls-3" x="145.85" y="214.3" width="2.84" height="2.84"/><rect class="cls-3" x="145.85" y="219.06" width="2.84" height="2.84"/><rect class="cls-3" x="145.85" y="223.81" width="2.84" height="2.84"/><rect class="cls-3" x="145.85" y="228.57" width="2.84" height="2.84"/><rect class="cls-3" x="145.85" y="247.58" width="2.84" height="2.84"/><rect class="cls-3" x="150.35" y="152.5" width="2.84" height="2.84"/><rect class="cls-3" x="150.35" y="157.26" width="2.84" height="2.84"/><rect class="cls-3" x="150.35" y="162.01" width="2.84" height="2.84"/><rect class="cls-3" x="150.35" y="166.76" width="2.84" height="2.84"/><rect class="cls-3" x="150.35" y="171.52" width="2.84" height="2.84"/><rect class="cls-3" x="150.35" y="176.27" width="2.84" height="2.84"/><rect class="cls-3" x="150.35" y="181.03" width="2.84" height="2.84"/><rect class="cls-3" x="150.35" y="185.78" width="2.84" height="2.84"/><rect class="cls-3" x="150.35" y="190.53" width="2.84" height="2.84"/><rect class="cls-3" x="150.35" y="195.29" width="2.84" height="2.84"/><rect class="cls-3" x="150.35" y="200.04" width="2.84" height="2.84"/><rect class="cls-3" x="150.35" y="204.8" width="2.84" height="2.84"/><rect class="cls-3" x="150.35" y="209.55" width="2.84" height="2.84"/><rect class="cls-3" x="150.35" y="214.3" width="2.84" height="2.84"/><rect class="cls-3" x="150.35" y="219.06" width="2.84" height="2.84"/><rect class="cls-3" x="150.35" y="223.81" width="2.84" height="2.84"/><rect class="cls-3" x="150.35" y="228.57" width="2.84" height="2.84"/><rect class="cls-3" x="150.35" y="233.32" width="2.84" height="2.84"/><rect class="cls-3" x="154.86" y="152.5" width="2.84" height="2.84"/><rect class="cls-3" x="154.86" y="157.26" width="2.84" height="2.84"/><rect class="cls-3" x="154.86" y="162.01" width="2.84" height="2.84"/><rect class="cls-3" x="154.86" y="166.76" width="2.84" height="2.84"/><rect class="cls-3" x="154.86" y="171.52" width="2.84" height="2.84"/><rect class="cls-3" x="154.86" y="176.27" width="2.84" height="2.84"/><rect class="cls-3" x="154.86" y="181.03" width="2.84" height="2.84"/><rect class="cls-3" x="154.86" y="185.78" width="2.84" height="2.84"/><rect class="cls-3" x="154.86" y="190.53" width="2.84" height="2.84"/><rect class="cls-3" x="154.86" y="195.29" width="2.84" height="2.84"/><rect class="cls-3" x="154.86" y="209.55" width="2.84" height="2.84"/><rect class="cls-3" x="154.86" y="214.3" width="2.84" height="2.84"/><rect class="cls-3" x="154.86" y="219.06" width="2.84" height="2.84"/><rect class="cls-3" x="154.86" y="223.81" width="2.84" height="2.84"/><rect class="cls-3" x="159.36" y="152.5" width="2.84" height="2.84"/><rect class="cls-3" x="159.36" y="157.26" width="2.84" height="2.84"/><rect class="cls-3" x="159.36" y="162.01" width="2.84" height="2.84"/><rect class="cls-3" x="159.36" y="166.76" width="2.84" height="2.84"/><rect class="cls-3" x="159.36" y="171.52" width="2.84" height="2.84"/><rect class="cls-3" x="159.36" y="176.27" width="2.84" height="2.84"/><rect class="cls-3" x="159.36" y="181.03" width="2.84" height="2.84"/><rect class="cls-3" x="159.36" y="185.78" width="2.84" height="2.84"/><rect class="cls-3" x="159.36" y="190.53" width="2.84" height="2.84"/><rect class="cls-3" x="159.36" y="195.29" width="2.84" height="2.84"/><rect class="cls-3" x="159.36" y="209.55" width="2.84" height="2.84"/><rect class="cls-3" x="159.36" y="214.3" width="2.84" height="2.84"/><rect class="cls-3" x="159.36" y="219.06" width="2.84" height="2.84"/><rect class="cls-3" x="210.07" y="140.16" width="2.84" height="2.84"/><rect class="cls-3" x="210.07" y="144.91" width="2.84" height="2.84"/><rect class="cls-3" x="210.07" y="149.67" width="2.84" height="2.84"/><rect class="cls-3" x="210.07" y="154.42" width="2.84" height="2.84"/><rect class="cls-3" x="210.07" y="159.17" width="2.84" height="2.84"/><rect class="cls-3" x="210.07" y="163.93" width="2.84" height="2.84"/><rect class="cls-3" x="210.07" y="168.68" width="2.84" height="2.84"/><rect class="cls-3" x="210.07" y="173.44" width="2.84" height="2.84"/><rect class="cls-3" x="210.07" y="187.7" width="2.84" height="2.84"/><rect class="cls-3" x="210.07" y="192.45" width="2.84" height="2.84"/><rect class="cls-3" x="214.58" y="140.16" width="2.84" height="2.84"/><rect class="cls-3" x="214.58" y="144.91" width="2.84" height="2.84"/><rect class="cls-3" x="214.58" y="149.67" width="2.84" height="2.84"/><rect class="cls-3" x="214.58" y="154.42" width="2.84" height="2.84"/><rect class="cls-3" x="214.58" y="159.17" width="2.84" height="2.84"/><rect class="cls-3" x="214.58" y="163.93" width="2.84" height="2.84"/><rect class="cls-3" x="214.58" y="168.68" width="2.84" height="2.84"/><rect class="cls-3" x="214.58" y="173.44" width="2.84" height="2.84"/><rect class="cls-3" x="214.58" y="192.45" width="2.84" height="2.84"/><rect class="cls-3" x="219.08" y="140.16" width="2.84" height="2.84"/><rect class="cls-3" x="219.08" y="144.91" width="2.84" height="2.84"/><rect class="cls-3" x="219.08" y="149.67" width="2.84" height="2.84"/><rect class="cls-3" x="219.08" y="154.42" width="2.84" height="2.84"/><rect class="cls-3" x="219.08" y="159.17" width="2.84" height="2.84"/><rect class="cls-3" x="219.08" y="163.93" width="2.84" height="2.84"/><rect class="cls-3" x="219.08" y="168.68" width="2.84" height="2.84"/><rect class="cls-3" x="219.08" y="173.44" width="2.84" height="2.84"/><rect class="cls-3" x="223.58" y="140.16" width="2.84" height="2.84"/><rect class="cls-3" x="223.58" y="144.91" width="2.84" height="2.84"/><rect class="cls-3" x="223.58" y="149.67" width="2.84" height="2.84"/><rect class="cls-3" x="223.58" y="154.42" width="2.84" height="2.84"/><rect class="cls-3" x="223.58" y="159.17" width="2.84" height="2.84"/><rect class="cls-3" x="223.58" y="163.93" width="2.84" height="2.84"/><rect class="cls-3" x="223.58" y="173.44" width="2.84" height="2.84"/><rect class="cls-3" x="223.58" y="178.19" width="2.84" height="2.84"/><rect class="cls-3" x="223.58" y="192.45" width="2.84" height="2.84"/><rect class="cls-3" x="223.58" y="197.21" width="2.84" height="2.84"/><rect class="cls-3" x="223.58" y="201.96" width="2.84" height="2.84"/><rect class="cls-3" x="223.58" y="206.71" width="2.84" height="2.84"/><rect class="cls-3" x="223.58" y="211.47" width="2.84" height="2.84"/><rect class="cls-3" x="223.58" y="216.22" width="2.84" height="2.84"/><rect class="cls-3" x="223.58" y="220.98" width="2.84" height="2.84"/><rect class="cls-3" x="228.09" y="140.16" width="2.84" height="2.84"/><rect class="cls-3" x="228.09" y="144.91" width="2.84" height="2.84"/><rect class="cls-3" x="228.09" y="149.67" width="2.84" height="2.84"/><rect class="cls-3" x="228.09" y="154.42" width="2.84" height="2.84"/><rect class="cls-3" x="228.09" y="159.17" width="2.84" height="2.84"/><rect class="cls-3" x="228.09" y="163.93" width="2.84" height="2.84"/><rect class="cls-3" x="228.09" y="178.19" width="2.84" height="2.84"/><rect class="cls-3" x="228.09" y="182.94" width="2.84" height="2.84"/><rect class="cls-3" x="228.09" y="187.7" width="2.84" height="2.84"/><rect class="cls-3" x="228.09" y="192.45" width="2.84" height="2.84"/><rect class="cls-3" x="228.09" y="197.21" width="2.84" height="2.84"/><rect class="cls-3" x="228.09" y="201.96" width="2.84" height="2.84"/><rect class="cls-3" x="228.09" y="206.71" width="2.84" height="2.84"/><rect class="cls-3" x="228.09" y="211.47" width="2.84" height="2.84"/><rect class="cls-3" x="228.09" y="216.22" width="2.84" height="2.84"/><rect class="cls-3" x="228.09" y="220.98" width="2.84" height="2.84"/><rect class="cls-3" x="228.09" y="225.73" width="2.84" height="2.84"/><rect class="cls-3" x="228.09" y="235.24" width="2.84" height="2.84"/><rect class="cls-3" x="232.59" y="140.16" width="2.84" height="2.84"/><rect class="cls-3" x="232.59" y="144.91" width="2.84" height="2.84"/><rect class="cls-3" x="232.59" y="149.67" width="2.84" height="2.84"/><rect class="cls-3" x="232.59" y="154.42" width="2.84" height="2.84"/><rect class="cls-3" x="232.59" y="159.17" width="2.84" height="2.84"/><rect class="cls-3" x="232.59" y="163.93" width="2.84" height="2.84"/><rect class="cls-3" x="232.59" y="178.19" width="2.84" height="2.84"/><rect class="cls-3" x="232.59" y="182.94" width="2.84" height="2.84"/><rect class="cls-3" x="232.59" y="187.7" width="2.84" height="2.84"/><rect class="cls-3" x="232.59" y="192.45" width="2.84" height="2.84"/><rect class="cls-3" x="232.59" y="206.71" width="2.84" height="2.84"/><rect class="cls-3" x="232.59" y="211.47" width="2.84" height="2.84"/><rect class="cls-3" x="232.59" y="216.22" width="2.84" height="2.84"/><rect class="cls-3" x="232.59" y="220.98" width="2.84" height="2.84"/><rect class="cls-3" x="232.59" y="225.73" width="2.84" height="2.84"/><rect class="cls-3" x="232.59" y="235.24" width="2.84" height="2.84"/><rect class="cls-3" x="232.59" y="239.99" width="2.84" height="2.84"/><rect class="cls-3" x="273.46" y="184.36" width="2.84" height="2.84"/><rect class="cls-3" x="273.46" y="189.12" width="2.84" height="2.84"/><rect class="cls-3" x="273.46" y="193.87" width="2.84" height="2.84"/><rect class="cls-3" x="273.46" y="198.62" width="2.84" height="2.84"/><rect class="cls-3" x="273.46" y="203.38" width="2.84" height="2.84"/><rect class="cls-3" x="273.46" y="208.13" width="2.84" height="2.84"/><rect class="cls-3" x="273.46" y="212.89" width="2.84" height="2.84"/><rect class="cls-3" x="273.46" y="227.15" width="2.84" height="2.84"/><rect class="cls-3" x="273.46" y="231.9" width="2.84" height="2.84"/><rect class="cls-3" x="273.46" y="236.66" width="2.84" height="2.84"/><rect class="cls-3" x="277.96" y="184.36" width="2.84" height="2.84"/><rect class="cls-3" x="277.96" y="189.12" width="2.84" height="2.84"/><rect class="cls-3" x="277.96" y="193.87" width="2.84" height="2.84"/><rect class="cls-3" x="277.96" y="198.62" width="2.84" height="2.84"/><rect class="cls-3" x="277.96" y="203.38" width="2.84" height="2.84"/><rect class="cls-3" x="277.96" y="208.13" width="2.84" height="2.84"/><rect class="cls-3" x="277.96" y="212.89" width="2.84" height="2.84"/><rect class="cls-3" x="282.47" y="184.36" width="2.84" height="2.84"/><rect class="cls-3" x="282.47" y="189.12" width="2.84" height="2.84"/><rect class="cls-3" x="282.47" y="193.87" width="2.84" height="2.84"/><rect class="cls-3" x="282.47" y="198.62" width="2.84" height="2.84"/><rect class="cls-3" x="282.47" y="203.38" width="2.84" height="2.84"/><rect class="cls-3" x="282.47" y="208.13" width="2.84" height="2.84"/><rect class="cls-3" x="282.47" y="212.89" width="2.84" height="2.84"/><rect class="cls-3" x="286.97" y="184.36" width="2.84" height="2.84"/><rect class="cls-3" x="286.97" y="189.12" width="2.84" height="2.84"/><rect class="cls-3" x="286.97" y="193.87" width="2.84" height="2.84"/><rect class="cls-3" x="286.97" y="198.62" width="2.84" height="2.84"/><rect class="cls-3" x="286.97" y="203.38" width="2.84" height="2.84"/><rect class="cls-3" x="286.97" y="208.13" width="2.84" height="2.84"/><rect class="cls-3" x="286.97" y="212.89" width="2.84" height="2.84"/><rect class="cls-3" x="286.97" y="217.64" width="2.84" height="2.84"/><rect class="cls-3" x="286.97" y="222.39" width="2.84" height="2.84"/><rect class="cls-3" x="286.97" y="227.15" width="2.84" height="2.84"/><rect class="cls-3" x="286.97" y="231.9" width="2.84" height="2.84"/><rect class="cls-3" x="291.47" y="184.36" width="2.84" height="2.84"/><rect class="cls-3" x="291.47" y="189.12" width="2.84" height="2.84"/><rect class="cls-3" x="291.47" y="193.87" width="2.84" height="2.84"/><rect class="cls-3" x="291.47" y="198.62" width="2.84" height="2.84"/><rect class="cls-3" x="291.47" y="203.38" width="2.84" height="2.84"/><rect class="cls-3" x="291.47" y="208.13" width="2.84" height="2.84"/><rect class="cls-3" x="291.47" y="212.89" width="2.84" height="2.84"/><rect class="cls-3" x="291.47" y="217.64" width="2.84" height="2.84"/><rect class="cls-3" x="291.47" y="222.39" width="2.84" height="2.84"/><rect class="cls-3" x="291.47" y="227.15" width="2.84" height="2.84"/><rect class="cls-3" x="291.47" y="231.9" width="2.84" height="2.84"/><rect class="cls-3" x="291.47" y="236.66" width="2.84" height="2.84"/><rect class="cls-3" x="291.47" y="250.92" width="2.84" height="2.84"/><rect class="cls-3" x="291.47" y="255.67" width="2.84" height="2.84"/><rect class="cls-3" x="295.98" y="184.36" width="2.84" height="2.84"/><rect class="cls-3" x="295.98" y="189.12" width="2.84" height="2.84"/><rect class="cls-3" x="295.98" y="193.87" width="2.84" height="2.84"/><rect class="cls-3" x="295.98" y="208.13" width="2.84" height="2.84"/><rect class="cls-3" x="295.98" y="212.89" width="2.84" height="2.84"/><rect class="cls-3" x="295.98" y="217.64" width="2.84" height="2.84"/><rect class="cls-3" x="295.98" y="222.39" width="2.84" height="2.84"/><rect class="cls-3" x="295.98" y="227.15" width="2.84" height="2.84"/><rect class="cls-3" x="295.98" y="231.9" width="2.84" height="2.84"/><rect class="cls-3" x="295.98" y="236.66" width="2.84" height="2.84"/><rect class="cls-3" x="295.98" y="250.92" width="2.84" height="2.84"/><rect class="cls-3" x="295.98" y="255.67" width="2.84" height="2.84"/><rect class="cls-3" x="295.98" y="260.43" width="2.84" height="2.84"/><rect class="cls-3" x="343.19" y="155.84" width="2.84" height="2.84"/><rect class="cls-3" x="343.19" y="160.59" width="2.84" height="2.84"/><rect class="cls-3" x="343.19" y="165.35" width="2.84" height="2.84"/><rect class="cls-3" x="343.19" y="170.1" width="2.84" height="2.84"/><rect class="cls-3" x="343.19" y="174.85" width="2.84" height="2.84"/><rect class="cls-3" x="343.19" y="179.61" width="2.84" height="2.84"/><rect class="cls-3" x="343.19" y="184.36" width="2.84" height="2.84"/><rect class="cls-3" x="343.19" y="189.12" width="2.84" height="2.84"/><rect class="cls-3" x="343.19" y="193.87" width="2.84" height="2.84"/><rect class="cls-3" x="343.19" y="198.62" width="2.84" height="2.84"/><rect class="cls-3" x="343.19" y="203.38" width="2.84" height="2.84"/><rect class="cls-3" x="343.19" y="208.13" width="2.84" height="2.84"/><rect class="cls-3" x="343.19" y="212.89" width="2.84" height="2.84"/><rect class="cls-3" x="343.19" y="217.64" width="2.84" height="2.84"/><rect class="cls-3" x="343.19" y="222.39" width="2.84" height="2.84"/><rect class="cls-3" x="343.19" y="227.15" width="2.84" height="2.84"/><rect class="cls-3" x="343.19" y="231.9" width="2.84" height="2.84"/><rect class="cls-3" x="343.19" y="236.66" width="2.84" height="2.84"/><rect class="cls-3" x="343.19" y="241.41" width="2.84" height="2.84"/><rect class="cls-3" x="343.19" y="246.16" width="2.84" height="2.84"/><rect class="cls-3" x="343.19" y="250.92" width="2.84" height="2.84"/><rect class="cls-3" x="343.19" y="255.67" width="2.84" height="2.84"/><rect class="cls-3" x="343.19" y="260.43" width="2.84" height="2.84"/><rect class="cls-3" x="347.69" y="155.84" width="2.84" height="2.84"/><rect class="cls-3" x="347.69" y="160.59" width="2.84" height="2.84"/><rect class="cls-3" x="347.69" y="165.35" width="2.84" height="2.84"/><rect class="cls-3" x="347.69" y="170.1" width="2.84" height="2.84"/><rect class="cls-3" x="347.69" y="174.85" width="2.84" height="2.84"/><rect class="cls-3" x="347.69" y="179.61" width="2.84" height="2.84"/><rect class="cls-3" x="347.69" y="184.36" width="2.84" height="2.84"/><rect class="cls-3" x="347.69" y="189.12" width="2.84" height="2.84"/><rect class="cls-3" x="347.69" y="193.87" width="2.84" height="2.84"/><rect class="cls-3" x="347.69" y="198.62" width="2.84" height="2.84"/><rect class="cls-3" x="347.69" y="203.38" width="2.84" height="2.84"/><rect class="cls-3" x="347.69" y="208.13" width="2.84" height="2.84"/><rect class="cls-3" x="347.69" y="212.89" width="2.84" height="2.84"/><rect class="cls-3" x="347.69" y="217.64" width="2.84" height="2.84"/><rect class="cls-3" x="347.69" y="222.39" width="2.84" height="2.84"/><rect class="cls-3" x="347.69" y="227.15" width="2.84" height="2.84"/><rect class="cls-3" x="347.69" y="231.9" width="2.84" height="2.84"/><rect class="cls-3" x="347.69" y="236.66" width="2.84" height="2.84"/><rect class="cls-3" x="347.69" y="241.41" width="2.84" height="2.84"/><rect class="cls-3" x="352.19" y="155.84" width="2.84" height="2.84"/><rect class="cls-3" x="352.19" y="160.59" width="2.84" height="2.84"/><rect class="cls-3" x="352.19" y="165.35" width="2.84" height="2.84"/><rect class="cls-3" x="352.19" y="170.1" width="2.84" height="2.84"/><rect class="cls-3" x="352.19" y="174.85" width="2.84" height="2.84"/><rect class="cls-3" x="352.19" y="179.61" width="2.84" height="2.84"/><rect class="cls-3" x="352.19" y="184.36" width="2.84" height="2.84"/><rect class="cls-3" x="352.19" y="189.12" width="2.84" height="2.84"/><rect class="cls-3" x="352.19" y="193.87" width="2.84" height="2.84"/><rect class="cls-3" x="352.19" y="198.62" width="2.84" height="2.84"/><rect class="cls-3" x="352.19" y="203.38" width="2.84" height="2.84"/><rect class="cls-3" x="352.19" y="208.13" width="2.84" height="2.84"/><rect class="cls-3" x="352.19" y="212.89" width="2.84" height="2.84"/><rect class="cls-3" x="352.19" y="217.64" width="2.84" height="2.84"/><rect class="cls-3" x="352.19" y="222.39" width="2.84" height="2.84"/><rect class="cls-3" x="352.19" y="227.15" width="2.84" height="2.84"/><rect class="cls-3" x="352.19" y="231.9" width="2.84" height="2.84"/><rect class="cls-3" x="352.19" y="236.66" width="2.84" height="2.84"/><rect class="cls-3" x="352.19" y="241.41" width="2.84" height="2.84"/><rect class="cls-3" x="356.7" y="155.84" width="2.84" height="2.84"/><rect class="cls-3" x="356.7" y="160.59" width="2.84" height="2.84"/><rect class="cls-3" x="356.7" y="165.35" width="2.84" height="2.84"/><rect class="cls-3" x="356.7" y="170.1" width="2.84" height="2.84"/><rect class="cls-3" x="356.7" y="174.85" width="2.84" height="2.84"/><rect class="cls-3" x="356.7" y="179.61" width="2.84" height="2.84"/><rect class="cls-3" x="356.7" y="184.36" width="2.84" height="2.84"/><rect class="cls-3" x="356.7" y="189.12" width="2.84" height="2.84"/><rect class="cls-3" x="356.7" y="193.87" width="2.84" height="2.84"/><rect class="cls-3" x="356.7" y="198.62" width="2.84" height="2.84"/><rect class="cls-3" x="356.7" y="203.38" width="2.84" height="2.84"/><rect class="cls-3" x="356.7" y="208.13" width="2.84" height="2.84"/><rect class="cls-3" x="356.7" y="212.89" width="2.84" height="2.84"/><rect class="cls-3" x="356.7" y="217.64" width="2.84" height="2.84"/><rect class="cls-3" x="356.7" y="222.39" width="2.84" height="2.84"/><rect class="cls-3" x="361.2" y="155.84" width="2.84" height="2.84"/><rect class="cls-3" x="361.2" y="160.59" width="2.84" height="2.84"/><rect class="cls-3" x="361.2" y="165.35" width="2.84" height="2.84"/><rect class="cls-3" x="361.2" y="170.1" width="2.84" height="2.84"/><rect class="cls-3" x="361.2" y="174.85" width="2.84" height="2.84"/><rect class="cls-3" x="361.2" y="179.61" width="2.84" height="2.84"/><rect class="cls-3" x="361.2" y="184.36" width="2.84" height="2.84"/><rect class="cls-3" x="361.2" y="189.12" width="2.84" height="2.84"/><rect class="cls-3" x="361.2" y="193.87" width="2.84" height="2.84"/><rect class="cls-3" x="361.2" y="198.62" width="2.84" height="2.84"/><rect class="cls-3" x="361.2" y="203.38" width="2.84" height="2.84"/><rect class="cls-3" x="361.2" y="208.13" width="2.84" height="2.84"/><rect class="cls-3" x="361.2" y="212.89" width="2.84" height="2.84"/><rect class="cls-3" x="365.7" y="155.84" width="2.84" height="2.84"/><rect class="cls-3" x="365.7" y="160.59" width="2.84" height="2.84"/><rect class="cls-3" x="365.7" y="165.35" width="2.84" height="2.84"/><rect class="cls-3" x="365.7" y="170.1" width="2.84" height="2.84"/><rect class="cls-3" x="365.7" y="174.85" width="2.84" height="2.84"/><rect class="cls-3" x="365.7" y="179.61" width="2.84" height="2.84"/><rect class="cls-3" x="365.7" y="184.36" width="2.84" height="2.84"/><rect class="cls-3" x="365.7" y="189.12" width="2.84" height="2.84"/><rect class="cls-3" x="365.7" y="193.87" width="2.84" height="2.84"/><rect class="cls-3" x="365.7" y="198.62" width="2.84" height="2.84"/><rect class="cls-3" x="365.7" y="203.38" width="2.84" height="2.84"/><rect class="cls-3" x="365.7" y="208.13" width="2.84" height="2.84"/><rect class="cls-3" x="34.76" y="190.53" width="2.84" height="2.84"/><rect class="cls-3" x="34.76" y="195.29" width="2.84" height="2.84"/><rect class="cls-3" x="34.76" y="200.04" width="2.84" height="2.84"/><rect class="cls-3" x="34.76" y="204.8" width="2.84" height="2.84"/><rect class="cls-3" x="34.76" y="209.55" width="2.84" height="2.84"/><rect class="cls-3" x="34.76" y="214.3" width="2.84" height="2.84"/><rect class="cls-3" x="34.76" y="219.06" width="2.84" height="2.84"/><rect class="cls-3" x="34.76" y="223.81" width="2.84" height="2.84"/><rect class="cls-3" x="34.76" y="228.57" width="2.84" height="2.84"/><rect class="cls-3" x="34.76" y="233.32" width="2.84" height="2.84"/><rect class="cls-3" x="34.76" y="238.07" width="2.84" height="2.84"/><rect class="cls-3" x="34.76" y="242.83" width="2.84" height="2.84"/><rect class="cls-3" x="34.76" y="247.58" width="2.84" height="2.84"/><rect class="cls-3" x="34.76" y="252.34" width="2.84" height="2.84"/><rect class="cls-3" x="34.76" y="257.09" width="2.84" height="2.84"/><rect class="cls-3" x="34.76" y="261.84" width="2.84" height="2.84"/><rect class="cls-3" x="34.76" y="266.6" width="2.84" height="2.84"/><rect class="cls-3" x="34.76" y="271.35" width="2.84" height="2.84"/><rect class="cls-3" x="34.76" y="276.11" width="2.84" height="2.84"/><rect class="cls-3" x="34.76" y="280.86" width="2.84" height="2.84"/><rect class="cls-3" x="39.26" y="190.53" width="2.84" height="2.84"/><rect class="cls-3" x="39.26" y="195.29" width="2.84" height="2.84"/><rect class="cls-3" x="39.26" y="200.04" width="2.84" height="2.84"/><rect class="cls-3" x="39.26" y="204.8" width="2.84" height="2.84"/><rect class="cls-3" x="39.26" y="209.55" width="2.84" height="2.84"/><rect class="cls-3" x="39.26" y="214.3" width="2.84" height="2.84"/><rect class="cls-3" x="39.26" y="219.06" width="2.84" height="2.84"/><rect class="cls-3" x="39.26" y="223.81" width="2.84" height="2.84"/><rect class="cls-3" x="39.26" y="228.57" width="2.84" height="2.84"/><rect class="cls-3" x="39.26" y="233.32" width="2.84" height="2.84"/><rect class="cls-3" x="39.26" y="238.07" width="2.84" height="2.84"/><rect class="cls-3" x="39.26" y="242.83" width="2.84" height="2.84"/><rect class="cls-3" x="39.26" y="247.58" width="2.84" height="2.84"/><rect class="cls-3" x="39.26" y="252.34" width="2.84" height="2.84"/><rect class="cls-3" x="39.26" y="257.09" width="2.84" height="2.84"/><rect class="cls-3" x="39.26" y="261.84" width="2.84" height="2.84"/><rect class="cls-3" x="39.26" y="266.6" width="2.84" height="2.84"/><rect class="cls-3" x="39.26" y="271.35" width="2.84" height="2.84"/><rect class="cls-3" x="43.76" y="190.53" width="2.84" height="2.84"/><rect class="cls-3" x="43.76" y="195.29" width="2.84" height="2.84"/><rect class="cls-3" x="43.76" y="200.04" width="2.84" height="2.84"/><rect class="cls-3" x="43.76" y="204.8" width="2.84" height="2.84"/><rect class="cls-3" x="43.76" y="209.55" width="2.84" height="2.84"/><rect class="cls-3" x="43.76" y="214.3" width="2.84" height="2.84"/><rect class="cls-3" x="43.76" y="219.06" width="2.84" height="2.84"/><rect class="cls-3" x="43.76" y="223.81" width="2.84" height="2.84"/><rect class="cls-3" x="43.76" y="228.57" width="2.84" height="2.84"/><rect class="cls-3" x="43.76" y="233.32" width="2.84" height="2.84"/><rect class="cls-3" x="43.76" y="238.07" width="2.84" height="2.84"/><rect class="cls-3" x="43.76" y="242.83" width="2.84" height="2.84"/><rect class="cls-3" x="43.76" y="247.58" width="2.84" height="2.84"/><rect class="cls-3" x="43.76" y="252.34" width="2.84" height="2.84"/><rect class="cls-3" x="43.76" y="257.09" width="2.84" height="2.84"/><rect class="cls-3" x="43.76" y="261.84" width="2.84" height="2.84"/><rect class="cls-3" x="43.76" y="266.6" width="2.84" height="2.84"/><rect class="cls-3" x="43.76" y="271.35" width="2.84" height="2.84"/><rect class="cls-3" x="17.91" y="225.23" width="2.84" height="2.84"/><rect class="cls-3" x="17.91" y="229.98" width="2.84" height="2.84"/><rect class="cls-3" x="17.91" y="234.74" width="2.84" height="2.84"/><rect class="cls-3" x="17.91" y="239.49" width="2.84" height="2.84"/><rect class="cls-3" x="17.91" y="244.25" width="2.84" height="2.84"/><rect class="cls-3" x="17.91" y="249" width="2.84" height="2.84"/><rect class="cls-3" x="17.91" y="253.75" width="2.84" height="2.84"/><rect class="cls-3" x="17.91" y="258.51" width="2.84" height="2.84"/><rect class="cls-3" x="17.91" y="263.26" width="2.84" height="2.84"/><rect class="cls-3" x="17.91" y="268.02" width="2.84" height="2.84"/><rect class="cls-3" x="17.91" y="272.77" width="2.84" height="2.84"/><rect class="cls-3" x="17.91" y="277.52" width="2.84" height="2.84"/><rect class="cls-3" x="17.91" y="282.28" width="2.84" height="2.84"/><rect class="cls-3" x="22.41" y="225.23" width="2.84" height="2.84"/><rect class="cls-3" x="22.41" y="229.98" width="2.84" height="2.84"/><rect class="cls-3" x="22.41" y="234.74" width="2.84" height="2.84"/><rect class="cls-3" x="22.41" y="239.49" width="2.84" height="2.84"/><rect class="cls-3" x="22.41" y="244.25" width="2.84" height="2.84"/><rect class="cls-3" x="22.41" y="249" width="2.84" height="2.84"/><rect class="cls-3" x="22.41" y="253.75" width="2.84" height="2.84"/><rect class="cls-3" x="22.41" y="258.51" width="2.84" height="2.84"/><rect class="cls-3" x="22.41" y="263.26" width="2.84" height="2.84"/><rect class="cls-3" x="22.41" y="268.02" width="2.84" height="2.84"/><rect class="cls-3" x="22.41" y="272.77" width="2.84" height="2.84"/><rect class="cls-3" x="22.41" y="277.52" width="2.84" height="2.84"/><rect class="cls-3" x="22.41" y="282.28" width="2.84" height="2.84"/><rect class="cls-3" x="26.92" y="225.23" width="2.84" height="2.84"/><rect class="cls-3" x="26.92" y="229.98" width="2.84" height="2.84"/><rect class="cls-3" x="26.92" y="234.74" width="2.84" height="2.84"/><rect class="cls-3" x="26.92" y="239.49" width="2.84" height="2.84"/><rect class="cls-3" x="26.92" y="244.25" width="2.84" height="2.84"/><rect class="cls-3" x="26.92" y="249" width="2.84" height="2.84"/><rect class="cls-3" x="26.92" y="253.75" width="2.84" height="2.84"/><rect class="cls-3" x="26.92" y="258.51" width="2.84" height="2.84"/><rect class="cls-3" x="26.92" y="263.26" width="2.84" height="2.84"/><rect class="cls-3" x="26.92" y="268.02" width="2.84" height="2.84"/><rect class="cls-3" x="26.92" y="272.77" width="2.84" height="2.84"/><rect class="cls-3" x="26.92" y="277.52" width="2.84" height="2.84"/><rect class="cls-3" x="26.92" y="282.28" width="2.84" height="2.84"/><rect class="cls-3" x="26.92" y="287.03" width="2.84" height="2.84"/><rect class="cls-3" x="51.94" y="226.65" width="2.84" height="2.84"/><rect class="cls-3" x="51.94" y="231.4" width="2.84" height="2.84"/><rect class="cls-3" x="51.94" y="236.16" width="2.84" height="2.84"/><rect class="cls-3" x="51.94" y="240.91" width="2.84" height="2.84"/><rect class="cls-3" x="51.94" y="245.66" width="2.84" height="2.84"/><rect class="cls-3" x="51.94" y="250.42" width="2.84" height="2.84"/><rect class="cls-3" x="51.94" y="255.17" width="2.84" height="2.84"/><rect class="cls-3" x="51.94" y="259.93" width="2.84" height="2.84"/><rect class="cls-3" x="51.94" y="264.68" width="2.84" height="2.84"/><rect class="cls-3" x="51.94" y="269.43" width="2.84" height="2.84"/><rect class="cls-3" x="51.94" y="283.7" width="2.84" height="2.84"/><rect class="cls-3" x="56.44" y="226.65" width="2.84" height="2.84"/><rect class="cls-3" x="56.44" y="231.4" width="2.84" height="2.84"/><rect class="cls-3" x="56.44" y="236.16" width="2.84" height="2.84"/><rect class="cls-3" x="56.44" y="240.91" width="2.84" height="2.84"/><rect class="cls-3" x="56.44" y="245.66" width="2.84" height="2.84"/><rect class="cls-3" x="56.44" y="250.42" width="2.84" height="2.84"/><rect class="cls-3" x="56.44" y="255.17" width="2.84" height="2.84"/><rect class="cls-3" x="56.44" y="259.93" width="2.84" height="2.84"/><rect class="cls-3" x="56.44" y="264.68" width="2.84" height="2.84"/><rect class="cls-3" x="56.44" y="278.94" width="2.84" height="2.84"/><rect class="cls-3" x="56.44" y="283.7" width="2.84" height="2.84"/><rect class="cls-3" x="60.94" y="226.65" width="2.84" height="2.84"/><rect class="cls-3" x="60.94" y="231.4" width="2.84" height="2.84"/><rect class="cls-3" x="60.94" y="236.16" width="2.84" height="2.84"/><rect class="cls-3" x="60.94" y="240.91" width="2.84" height="2.84"/><rect class="cls-3" x="60.94" y="245.66" width="2.84" height="2.84"/><rect class="cls-3" x="60.94" y="250.42" width="2.84" height="2.84"/><rect class="cls-3" x="60.94" y="255.17" width="2.84" height="2.84"/><rect class="cls-3" x="60.94" y="259.93" width="2.84" height="2.84"/><rect class="cls-3" x="60.94" y="274.19" width="2.84" height="2.84"/><rect class="cls-3" x="60.94" y="278.94" width="2.84" height="2.84"/><rect class="cls-3" x="60.94" y="283.7" width="2.84" height="2.84"/><rect class="cls-3" x="102.81" y="154.42" width="2.84" height="2.84"/><rect class="cls-3" x="102.81" y="159.17" width="2.84" height="2.84"/><rect class="cls-3" x="102.81" y="163.93" width="2.84" height="2.84"/><rect class="cls-3" x="102.81" y="168.68" width="2.84" height="2.84"/><rect class="cls-3" x="102.81" y="173.44" width="2.84" height="2.84"/><rect class="cls-3" x="102.81" y="178.19" width="2.84" height="2.84"/><rect class="cls-3" x="102.81" y="182.94" width="2.84" height="2.84"/><rect class="cls-3" x="102.81" y="187.7" width="2.84" height="2.84"/><rect class="cls-3" x="102.81" y="192.45" width="2.84" height="2.84"/><rect class="cls-3" x="102.81" y="197.21" width="2.84" height="2.84"/><rect class="cls-3" x="102.81" y="201.96" width="2.84" height="2.84"/><rect class="cls-3" x="102.81" y="206.71" width="2.84" height="2.84"/><rect class="cls-3" x="102.81" y="211.47" width="2.84" height="2.84"/><rect class="cls-3" x="102.81" y="216.22" width="2.84" height="2.84"/><rect class="cls-3" x="102.81" y="220.98" width="2.84" height="2.84"/><rect class="cls-3" x="102.81" y="225.73" width="2.84" height="2.84"/><rect class="cls-3" x="102.81" y="230.48" width="2.84" height="2.84"/><rect class="cls-3" x="102.81" y="239.99" width="2.84" height="2.84"/><rect class="cls-3" x="102.81" y="244.75" width="2.84" height="2.84"/><rect class="cls-3" x="102.81" y="249.5" width="2.84" height="2.84"/><rect class="cls-3" x="102.81" y="254.25" width="2.84" height="2.84"/><rect class="cls-3" x="102.81" y="259.01" width="2.84" height="2.84"/><rect class="cls-3" x="107.32" y="154.42" width="2.84" height="2.84"/><rect class="cls-3" x="107.32" y="159.17" width="2.84" height="2.84"/><rect class="cls-3" x="107.32" y="163.93" width="2.84" height="2.84"/><rect class="cls-3" x="107.32" y="168.68" width="2.84" height="2.84"/><rect class="cls-3" x="107.32" y="173.44" width="2.84" height="2.84"/><rect class="cls-3" x="107.32" y="178.19" width="2.84" height="2.84"/><rect class="cls-3" x="107.32" y="182.94" width="2.84" height="2.84"/><rect class="cls-3" x="107.32" y="187.7" width="2.84" height="2.84"/><rect class="cls-3" x="107.32" y="192.45" width="2.84" height="2.84"/><rect class="cls-3" x="107.32" y="197.21" width="2.84" height="2.84"/><rect class="cls-3" x="107.32" y="201.96" width="2.84" height="2.84"/><rect class="cls-3" x="107.32" y="206.71" width="2.84" height="2.84"/><rect class="cls-3" x="107.32" y="211.47" width="2.84" height="2.84"/><rect class="cls-3" x="107.32" y="216.22" width="2.84" height="2.84"/><rect class="cls-3" x="107.32" y="220.98" width="2.84" height="2.84"/><rect class="cls-3" x="107.32" y="225.73" width="2.84" height="2.84"/><rect class="cls-3" x="107.32" y="254.25" width="2.84" height="2.84"/><rect class="cls-3" x="107.32" y="259.01" width="2.84" height="2.84"/><rect class="cls-3" x="111.82" y="154.42" width="2.84" height="2.84"/><rect class="cls-3" x="111.82" y="159.17" width="2.84" height="2.84"/><rect class="cls-3" x="111.82" y="163.93" width="2.84" height="2.84"/><rect class="cls-3" x="111.82" y="168.68" width="2.84" height="2.84"/><rect class="cls-3" x="111.82" y="173.44" width="2.84" height="2.84"/><rect class="cls-3" x="111.82" y="178.19" width="2.84" height="2.84"/><rect class="cls-3" x="111.82" y="182.94" width="2.84" height="2.84"/><rect class="cls-3" x="111.82" y="187.7" width="2.84" height="2.84"/><rect class="cls-3" x="111.82" y="192.45" width="2.84" height="2.84"/><rect class="cls-3" x="111.82" y="197.21" width="2.84" height="2.84"/><rect class="cls-3" x="111.82" y="201.96" width="2.84" height="2.84"/><rect class="cls-3" x="111.82" y="206.71" width="2.84" height="2.84"/><rect class="cls-3" x="111.82" y="211.47" width="2.84" height="2.84"/><rect class="cls-3" x="111.82" y="216.22" width="2.84" height="2.84"/><rect class="cls-3" x="111.82" y="220.98" width="2.84" height="2.84"/><rect class="cls-3" x="111.82" y="225.73" width="2.84" height="2.84"/><rect class="cls-3" x="111.82" y="235.24" width="2.84" height="2.84"/><rect class="cls-3" x="111.82" y="239.99" width="2.84" height="2.84"/><rect class="cls-3" x="111.82" y="244.75" width="2.84" height="2.84"/><rect class="cls-3" x="111.82" y="249.5" width="2.84" height="2.84"/><rect class="cls-3" x="111.82" y="259.01" width="2.84" height="2.84"/><rect class="cls-3" x="86.47" y="214.3" width="2.84" height="2.84"/><rect class="cls-3" x="86.47" y="219.06" width="2.84" height="2.84"/><rect class="cls-3" x="86.47" y="223.81" width="2.84" height="2.84"/><rect class="cls-3" x="86.47" y="228.57" width="2.84" height="2.84"/><rect class="cls-3" x="86.47" y="233.32" width="2.84" height="2.84"/><rect class="cls-3" x="86.47" y="238.07" width="2.84" height="2.84"/><rect class="cls-3" x="86.47" y="242.83" width="2.84" height="2.84"/><rect class="cls-3" x="86.47" y="252.34" width="2.84" height="2.84"/><rect class="cls-3" x="86.47" y="257.09" width="2.84" height="2.84"/><rect class="cls-3" x="86.47" y="261.84" width="2.84" height="2.84"/><rect class="cls-3" x="86.47" y="266.6" width="2.84" height="2.84"/><rect class="cls-3" x="86.47" y="271.35" width="2.84" height="2.84"/><rect class="cls-3" x="86.47" y="276.11" width="2.84" height="2.84"/><rect class="cls-3" x="86.47" y="280.86" width="2.84" height="2.84"/><rect class="cls-3" x="86.47" y="285.61" width="2.84" height="2.84"/><rect class="cls-3" x="90.97" y="214.3" width="2.84" height="2.84"/><rect class="cls-3" x="90.97" y="219.06" width="2.84" height="2.84"/><rect class="cls-3" x="90.97" y="223.81" width="2.84" height="2.84"/><rect class="cls-3" x="90.97" y="228.57" width="2.84" height="2.84"/><rect class="cls-3" x="90.97" y="233.32" width="2.84" height="2.84"/><rect class="cls-3" x="90.97" y="238.07" width="2.84" height="2.84"/><rect class="cls-3" x="90.97" y="252.34" width="2.84" height="2.84"/><rect class="cls-3" x="90.97" y="257.09" width="2.84" height="2.84"/><rect class="cls-3" x="90.97" y="261.84" width="2.84" height="2.84"/><rect class="cls-3" x="90.97" y="266.6" width="2.84" height="2.84"/><rect class="cls-3" x="90.97" y="271.35" width="2.84" height="2.84"/><rect class="cls-3" x="90.97" y="276.11" width="2.84" height="2.84"/><rect class="cls-3" x="90.97" y="280.86" width="2.84" height="2.84"/><rect class="cls-3" x="90.97" y="285.61" width="2.84" height="2.84"/><rect class="cls-3" x="95.47" y="214.3" width="2.84" height="2.84"/><rect class="cls-3" x="95.47" y="219.06" width="2.84" height="2.84"/><rect class="cls-3" x="95.47" y="223.81" width="2.84" height="2.84"/><rect class="cls-3" x="95.47" y="228.57" width="2.84" height="2.84"/><rect class="cls-3" x="95.47" y="233.32" width="2.84" height="2.84"/><rect class="cls-3" x="95.47" y="238.07" width="2.84" height="2.84"/><rect class="cls-3" x="95.47" y="247.58" width="2.84" height="2.84"/><rect class="cls-3" x="95.47" y="252.34" width="2.84" height="2.84"/><rect class="cls-3" x="95.47" y="257.09" width="2.84" height="2.84"/><rect class="cls-3" x="95.47" y="261.84" width="2.84" height="2.84"/><rect class="cls-3" x="95.47" y="266.6" width="2.84" height="2.84"/><rect class="cls-3" x="95.47" y="271.35" width="2.84" height="2.84"/><rect class="cls-3" x="95.47" y="276.11" width="2.84" height="2.84"/><rect class="cls-3" x="95.47" y="280.86" width="2.84" height="2.84"/><rect class="cls-3" x="95.47" y="285.61" width="2.84" height="2.84"/><rect class="cls-3" x="190.39" y="187.7" width="2.84" height="2.84"/><rect class="cls-3" x="190.39" y="192.45" width="2.84" height="2.84"/><rect class="cls-3" x="190.39" y="197.21" width="2.84" height="2.84"/><rect class="cls-3" x="190.39" y="201.96" width="2.84" height="2.84"/><rect class="cls-3" x="190.39" y="206.71" width="2.84" height="2.84"/><rect class="cls-3" x="190.39" y="211.47" width="2.84" height="2.84"/><rect class="cls-3" x="190.39" y="216.22" width="2.84" height="2.84"/><rect class="cls-3" x="190.39" y="220.98" width="2.84" height="2.84"/><rect class="cls-3" x="190.39" y="225.73" width="2.84" height="2.84"/><rect class="cls-3" x="190.39" y="230.48" width="2.84" height="2.84"/><rect class="cls-3" x="190.39" y="235.24" width="2.84" height="2.84"/><rect class="cls-3" x="190.39" y="239.99" width="2.84" height="2.84"/><rect class="cls-3" x="190.39" y="244.75" width="2.84" height="2.84"/><rect class="cls-3" x="190.39" y="254.25" width="2.84" height="2.84"/><rect class="cls-3" x="190.39" y="259.01" width="2.84" height="2.84"/><rect class="cls-3" x="190.39" y="263.76" width="2.84" height="2.84"/><rect class="cls-3" x="190.39" y="268.52" width="2.84" height="2.84"/><rect class="cls-3" x="190.39" y="278.03" width="2.84" height="2.84"/><rect class="cls-3" x="190.39" y="282.78" width="2.84" height="2.84"/><rect class="cls-3" x="190.39" y="287.53" width="2.84" height="2.84"/><rect class="cls-3" x="194.89" y="187.7" width="2.84" height="2.84"/><rect class="cls-3" x="194.89" y="192.45" width="2.84" height="2.84"/><rect class="cls-3" x="194.89" y="197.21" width="2.84" height="2.84"/><rect class="cls-3" x="194.89" y="201.96" width="2.84" height="2.84"/><rect class="cls-3" x="194.89" y="206.71" width="2.84" height="2.84"/><rect class="cls-3" x="194.89" y="211.47" width="2.84" height="2.84"/><rect class="cls-3" x="194.89" y="216.22" width="2.84" height="2.84"/><rect class="cls-3" x="194.89" y="220.98" width="2.84" height="2.84"/><rect class="cls-3" x="194.89" y="225.73" width="2.84" height="2.84"/><rect class="cls-3" x="194.89" y="230.48" width="2.84" height="2.84"/><rect class="cls-3" x="194.89" y="235.24" width="2.84" height="2.84"/><rect class="cls-3" x="194.89" y="239.99" width="2.84" height="2.84"/><rect class="cls-3" x="194.89" y="244.75" width="2.84" height="2.84"/><rect class="cls-3" x="194.89" y="259.01" width="2.84" height="2.84"/><rect class="cls-3" x="194.89" y="263.76" width="2.84" height="2.84"/><rect class="cls-3" x="194.89" y="273.27" width="2.84" height="2.84"/><rect class="cls-3" x="194.89" y="278.03" width="2.84" height="2.84"/><rect class="cls-3" x="194.89" y="282.78" width="2.84" height="2.84"/><rect class="cls-3" x="194.89" y="287.53" width="2.84" height="2.84"/><rect class="cls-3" x="199.4" y="187.7" width="2.84" height="2.84"/><rect class="cls-3" x="199.4" y="192.45" width="2.84" height="2.84"/><rect class="cls-3" x="199.4" y="197.21" width="2.84" height="2.84"/><rect class="cls-3" x="199.4" y="201.96" width="2.84" height="2.84"/><rect class="cls-3" x="199.4" y="206.71" width="2.84" height="2.84"/><rect class="cls-3" x="199.4" y="211.47" width="2.84" height="2.84"/><rect class="cls-3" x="199.4" y="216.22" width="2.84" height="2.84"/><rect class="cls-3" x="199.4" y="220.98" width="2.84" height="2.84"/><rect class="cls-3" x="199.4" y="225.73" width="2.84" height="2.84"/><rect class="cls-3" x="199.4" y="230.48" width="2.84" height="2.84"/><rect class="cls-3" x="199.4" y="235.24" width="2.84" height="2.84"/><rect class="cls-3" x="199.4" y="239.99" width="2.84" height="2.84"/><rect class="cls-3" x="199.4" y="244.75" width="2.84" height="2.84"/><rect class="cls-3" x="199.4" y="249.5" width="2.84" height="2.84"/><rect class="cls-3" x="199.4" y="259.01" width="2.84" height="2.84"/><rect class="cls-3" x="199.4" y="268.52" width="2.84" height="2.84"/><rect class="cls-3" x="199.4" y="273.27" width="2.84" height="2.84"/><rect class="cls-3" x="199.4" y="278.03" width="2.84" height="2.84"/><rect class="cls-3" x="199.4" y="282.78" width="2.84" height="2.84"/><rect class="cls-3" x="199.4" y="287.53" width="2.84" height="2.84"/><rect class="cls-3" x="172.04" y="214.8" width="2.84" height="2.84"/><rect class="cls-3" x="172.04" y="219.56" width="2.84" height="2.84"/><rect class="cls-3" x="172.04" y="224.31" width="2.84" height="2.84"/><rect class="cls-3" x="172.04" y="229.07" width="2.84" height="2.84"/><rect class="cls-3" x="172.04" y="233.82" width="2.84" height="2.84"/><rect class="cls-3" x="172.04" y="238.58" width="2.84" height="2.84"/><rect class="cls-3" x="172.04" y="252.84" width="2.84" height="2.84"/><rect class="cls-3" x="172.04" y="257.59" width="2.84" height="2.84"/><rect class="cls-3" x="172.04" y="262.35" width="2.84" height="2.84"/><rect class="cls-3" x="172.04" y="267.1" width="2.84" height="2.84"/><rect class="cls-3" x="172.04" y="271.85" width="2.84" height="2.84"/><rect class="cls-3" x="172.04" y="276.61" width="2.84" height="2.84"/><rect class="cls-3" x="172.04" y="281.36" width="2.84" height="2.84"/><rect class="cls-3" x="176.54" y="214.8" width="2.84" height="2.84"/><rect class="cls-3" x="176.54" y="219.56" width="2.84" height="2.84"/><rect class="cls-3" x="176.54" y="224.31" width="2.84" height="2.84"/><rect class="cls-3" x="176.54" y="229.07" width="2.84" height="2.84"/><rect class="cls-3" x="176.54" y="233.82" width="2.84" height="2.84"/><rect class="cls-3" x="176.54" y="238.58" width="2.84" height="2.84"/><rect class="cls-3" x="176.54" y="252.84" width="2.84" height="2.84"/><rect class="cls-3" x="176.54" y="257.59" width="2.84" height="2.84"/><rect class="cls-3" x="176.54" y="262.35" width="2.84" height="2.84"/><rect class="cls-3" x="176.54" y="267.1" width="2.84" height="2.84"/><rect class="cls-3" x="176.54" y="271.85" width="2.84" height="2.84"/><rect class="cls-3" x="176.54" y="276.61" width="2.84" height="2.84"/><rect class="cls-3" x="176.54" y="286.12" width="2.84" height="2.84"/><rect class="cls-3" x="326.17" y="193.87" width="2.84" height="2.84"/><rect class="cls-3" x="326.17" y="198.62" width="2.84" height="2.84"/><rect class="cls-3" x="326.17" y="203.38" width="2.84" height="2.84"/><rect class="cls-3" x="326.17" y="208.13" width="2.84" height="2.84"/><rect class="cls-3" x="326.17" y="212.89" width="2.84" height="2.84"/><rect class="cls-3" x="326.17" y="217.64" width="2.84" height="2.84"/><rect class="cls-3" x="326.17" y="222.39" width="2.84" height="2.84"/><rect class="cls-3" x="326.17" y="227.15" width="2.84" height="2.84"/><rect class="cls-3" x="326.17" y="231.9" width="2.84" height="2.84"/><rect class="cls-3" x="326.17" y="236.66" width="2.84" height="2.84"/><rect class="cls-3" x="326.17" y="241.41" width="2.84" height="2.84"/><rect class="cls-3" x="326.17" y="250.92" width="2.84" height="2.84"/><rect class="cls-3" x="326.17" y="255.67" width="2.84" height="2.84"/><rect class="cls-3" x="326.17" y="260.43" width="2.84" height="2.84"/><rect class="cls-3" x="326.17" y="265.18" width="2.84" height="2.84"/><rect class="cls-3" x="326.17" y="269.94" width="2.84" height="2.84"/><rect class="cls-3" x="326.17" y="274.69" width="2.84" height="2.84"/><rect class="cls-3" x="326.17" y="279.44" width="2.84" height="2.84"/><rect class="cls-3" x="326.17" y="284.2" width="2.84" height="2.84"/><rect class="cls-3" x="330.67" y="193.87" width="2.84" height="2.84"/><rect class="cls-3" x="330.67" y="198.62" width="2.84" height="2.84"/><rect class="cls-3" x="330.67" y="203.38" width="2.84" height="2.84"/><rect class="cls-3" x="330.67" y="208.13" width="2.84" height="2.84"/><rect class="cls-3" x="330.67" y="212.89" width="2.84" height="2.84"/><rect class="cls-3" x="330.67" y="217.64" width="2.84" height="2.84"/><rect class="cls-3" x="330.67" y="222.39" width="2.84" height="2.84"/><rect class="cls-3" x="330.67" y="227.15" width="2.84" height="2.84"/><rect class="cls-3" x="330.67" y="231.9" width="2.84" height="2.84"/><rect class="cls-3" x="330.67" y="236.66" width="2.84" height="2.84"/><rect class="cls-3" x="330.67" y="241.41" width="2.84" height="2.84"/><rect class="cls-3" x="330.67" y="246.16" width="2.84" height="2.84"/><rect class="cls-3" x="330.67" y="250.92" width="2.84" height="2.84"/><rect class="cls-3" x="330.67" y="255.67" width="2.84" height="2.84"/><rect class="cls-3" x="330.67" y="260.43" width="2.84" height="2.84"/><rect class="cls-3" x="330.67" y="265.18" width="2.84" height="2.84"/><rect class="cls-3" x="330.67" y="269.94" width="2.84" height="2.84"/><rect class="cls-3" x="330.67" y="274.69" width="2.84" height="2.84"/><rect class="cls-3" x="330.67" y="279.44" width="2.84" height="2.84"/><rect class="cls-3" x="330.67" y="284.2" width="2.84" height="2.84"/><rect class="cls-3" x="303.99" y="212.39" width="2.84" height="2.84"/><rect class="cls-3" x="303.99" y="217.14" width="2.84" height="2.84"/><rect class="cls-3" x="303.99" y="221.89" width="2.84" height="2.84"/><rect class="cls-3" x="303.99" y="226.65" width="2.84" height="2.84"/><rect class="cls-3" x="303.99" y="231.4" width="2.84" height="2.84"/><rect class="cls-3" x="303.99" y="236.16" width="2.84" height="2.84"/><rect class="cls-3" x="303.99" y="240.91" width="2.84" height="2.84"/><rect class="cls-3" x="303.99" y="245.66" width="2.84" height="2.84"/><rect class="cls-3" x="303.99" y="250.42" width="2.84" height="2.84"/><rect class="cls-3" x="303.99" y="255.17" width="2.84" height="2.84"/><rect class="cls-3" x="308.49" y="212.39" width="2.84" height="2.84"/><rect class="cls-3" x="308.49" y="217.14" width="2.84" height="2.84"/><rect class="cls-3" x="308.49" y="221.89" width="2.84" height="2.84"/><rect class="cls-3" x="308.49" y="226.65" width="2.84" height="2.84"/><rect class="cls-3" x="308.49" y="231.4" width="2.84" height="2.84"/><rect class="cls-3" x="308.49" y="236.16" width="2.84" height="2.84"/><rect class="cls-3" x="308.49" y="240.91" width="2.84" height="2.84"/><rect class="cls-3" x="308.49" y="245.66" width="2.84" height="2.84"/><rect class="cls-3" x="308.49" y="250.42" width="2.84" height="2.84"/><path class="cls-3" d="M137,175.65a8.79,8.79,0,0,0-11.35-8.44,18.68,18.68,0,0,0-21.92-21.06,16.32,16.32,0,0,0-30.26,8.25H73.2a15,15,0,0,0,0,30.08h55.24A8.81,8.81,0,0,0,137,175.65Z" transform="translate(-52.46 -80.9)"/><path class="cls-3" d="M369.66,156.26a5.63,5.63,0,0,1,5.63-5.63h0a5.85,5.85,0,0,1,1.61.23,12.32,12.32,0,0,1-.12-1.72,11.92,11.92,0,0,1,11.91-11.93h0a11.52,11.52,0,0,1,2.19.21,10.42,10.42,0,0,1,19.32,5.27h.18a9.6,9.6,0,1,1,0,19.2H375.13A5.63,5.63,0,0,1,369.66,156.26Z" transform="translate(-52.46 -80.9)"/><path class="cls-3" d="M257.54,95.51A3.44,3.44,0,0,1,261,92.06h0a3.37,3.37,0,0,1,1,.15,7.56,7.56,0,0,1-.08-1.06,7.3,7.3,0,0,1,7.3-7.3,6.79,6.79,0,0,1,1.35.13,6.38,6.38,0,0,1,11.84,3.22h.1a5.88,5.88,0,0,1,0,11.76h-21.6A3.46,3.46,0,0,1,257.54,95.51Z" transform="translate(-52.46 -80.9)"/><g id="freepik--Shadow--inject-6"><ellipse id="freepik--path--inject-6" class="cls-4" cx="197.54" cy="335.34" rx="193.89" ry="11.32"/></g><g id="freepik--Floor--inject-6"><path class="cls-5" d="M71,383.37s-4.69-15.74,4.81-18.87S90.89,354,90.58,345.69s9.68-16.42,17.18-8.62,6.5-6,16.5-9.35,18.47,4.78,15.74,12.21,7.13,12.08,18.94,5.76,24.82,5.18,22.32,14.18-.46,10,7,7,20.85,5.5,16.16,16.5S71,383.37,71,383.37Z" transform="translate(-52.46 -80.9)"/><path class="cls-6" d="M71,383.37s-4.69-15.74,4.81-18.87S90.89,354,90.58,345.69s9.68-16.42,17.18-8.62,6.5-6,16.5-9.35,18.47,4.78,15.74,12.21,7.13,12.08,18.94,5.76,24.82,5.18,22.32,14.18-.46,10,7,7,20.85,5.5,16.16,16.5S71,383.37,71,383.37Z" transform="translate(-52.46 -80.9)"/><path class="cls-5" d="M322.26,384.87c-5-5-.5-13.5,4.5-14.5s10-9.8,10.26-15.4,9.24-22.83,23.24-12.19,9.74,1.56,19.87-1.42,16.52,5.61,12.07,12.06c0,0,10.18-2.55,14.37,6.95s0,15.4,0,15.4S425.7,375.2,424,387,322.26,384.87,322.26,384.87Z" transform="translate(-52.46 -80.9)"/><path class="cls-6" d="M322.26,384.87c-5-5-.5-13.5,4.5-14.5s10-9.8,10.26-15.4,9.24-22.83,23.24-12.19,9.74,1.56,19.87-1.42,16.52,5.61,12.07,12.06c0,0,10.18-2.55,14.37,6.95s0,15.4,0,15.4S425.7,375.2,424,387,322.26,384.87,322.26,384.87Z" transform="translate(-52.46 -80.9)"/><path class="cls-7" d="M53.76,385.17v13.7h386v-13.7a4.07,4.07,0,0,0-3.85-4.29H57.8a4.09,4.09,0,0,0-4,4.11C53.75,385.05,53.76,385.11,53.76,385.17Z" transform="translate(-52.46 -80.9)"/><rect class="cls-5" x="341.3" y="299.97" width="24" height="18"/><rect class="cls-5" x="296.3" y="299.97" width="23" height="18"/><rect class="cls-5" x="250.3" y="299.97" width="24" height="18"/><rect class="cls-5" x="205.3" y="299.97" width="23" height="18"/><rect class="cls-5" x="160.3" y="299.97" width="23" height="18"/><rect class="cls-5" x="114.3" y="299.97" width="24" height="18"/><rect class="cls-5" x="69.3" y="299.97" width="23" height="18"/><rect class="cls-5" x="23.3" y="299.97" width="24" height="18"/><g class="cls-8"><rect class="cls-9" x="341.3" y="299.97" width="24" height="18"/><rect class="cls-9" x="296.3" y="299.97" width="23" height="18"/><rect class="cls-9" x="250.3" y="299.97" width="24" height="18"/><rect class="cls-9" x="205.3" y="299.97" width="23" height="18"/><rect class="cls-9" x="160.3" y="299.97" width="23" height="18"/><rect class="cls-9" x="114.3" y="299.97" width="24" height="18"/><rect class="cls-9" x="69.3" y="299.97" width="23" height="18"/><rect class="cls-9" x="23.3" y="299.97" width="24" height="18"/></g><path class="cls-10" d="M53.76,385.17v13.7h386v-13.7a4.07,4.07,0,0,0-3.85-4.29H57.8a4.09,4.09,0,0,0-4,4.11C53.75,385.05,53.76,385.11,53.76,385.17Z" transform="translate(-52.46 -80.9)"/></g><g id="freepik--Device--inject-6"><rect class="cls-5" x="47.67" y="24.66" width="173.6" height="312.25" rx="10.4"/><rect class="cls-11" x="47.67" y="24.66" width="173.6" height="312.25" rx="10.4"/><path class="cls-7" d="M267.88,116V406.79a4.26,4.26,0,0,1-4.27,4.25H109.84a3.81,3.81,0,0,1-3.85-3.77V115.67a3.44,3.44,0,0,1,3.3-3.57h38.43a2.71,2.71,0,0,1,2.48,1.73l1.59,3.92a2.7,2.7,0,0,0,2.47,1.71h65.43a2.66,2.66,0,0,0,2.47-1.68l1.59-3.94a2.74,2.74,0,0,1,2.48-1.74H264.1A3.89,3.89,0,0,1,267.88,116Z" transform="translate(-52.46 -80.9)"/><rect class="cls-6" x="53.53" y="49.37" width="161.89" height="261.5"/><rect class="cls-12" x="71.37" y="40.25" width="2" height="2.67"/><rect class="cls-12" x="68.11" y="39.36" width="2" height="3.56"/><rect class="cls-12" x="64.86" y="38.48" width="2" height="4.44"/><rect class="cls-12" x="61.6" y="37.59" width="2" height="5.33"/><rect class="cls-12" x="195.91" y="39.28" width="1.18" height="2.67"/><rect class="cls-12" x="197.91" y="38.31" width="9.44" height="4.61"/><rect class="cls-5" x="57.52" y="54.5" width="153.9" height="26.37"/><rect class="cls-13" x="57.52" y="83.13" width="153.9" height="224.04"/><g class="cls-14"><path d="M259.81,341.06H114.05a.5.5,0,0,1,0-1H259.81a.5.5,0,0,1,0,1Z" transform="translate(-52.46 -80.9)"/></g><path class="cls-15" d="M149,324.05H123.46a1.19,1.19,0,0,1-1.19-1.19h0a1.19,1.19,0,0,1,1.19-1.19H149a1.19,1.19,0,0,1,1.19,1.19h0a1.19,1.19,0,0,1-1.19,1.19Z" transform="translate(-52.46 -80.9)"/><path class="cls-15" d="M179,329.18H123.46a1.18,1.18,0,0,1-1.19-1.17h0a1.19,1.19,0,0,1,1.19-1.19H179a1.19,1.19,0,0,1,1.19,1.19h0a1.18,1.18,0,0,1-1.18,1.18Z" transform="translate(-52.46 -80.9)"/><g class="cls-14"><path d="M259.81,370.26H114.05a.5.5,0,0,1-.5-.5.52.52,0,0,1,.5-.5H259.81a.5.5,0,0,1,0,1Z" transform="translate(-52.46 -80.9)"/></g><path class="cls-15" d="M149,353.25H123.46a1.18,1.18,0,0,1-1.19-1.17h0a1.19,1.19,0,0,1,1.19-1.19H149a1.19,1.19,0,0,1,1.19,1.19h0a1.18,1.18,0,0,1-1.18,1.18Z" transform="translate(-52.46 -80.9)"/><path class="cls-15" d="M179,358.39H123.46a1.19,1.19,0,0,1-1.19-1.19h0a1.19,1.19,0,0,1,1.19-1.19H179a1.19,1.19,0,0,1,1.19,1.19h0a1.19,1.19,0,0,1-1.19,1.19Z" transform="translate(-52.46 -80.9)"/><path class="cls-9" d="M188.21,403.94h-2.55a2.45,2.45,0,0,1-2.44-2.44V399a2.45,2.45,0,0,1,2.44-2.43h2.55a2.43,2.43,0,0,1,2.43,2.43v2.55A2.45,2.45,0,0,1,188.21,403.94Zm-2.55-6.42a1.44,1.44,0,0,0-1.44,1.43v2.55a1.46,1.46,0,0,0,1.44,1.44h2.55a1.44,1.44,0,0,0,1.43-1.44V399a1.43,1.43,0,0,0-1.43-1.43Z" transform="translate(-52.46 -80.9)"/><path class="cls-16" d="M186.91,112.49a2.23,2.23,0,1,1-2.24-2.22h0A2.23,2.23,0,0,1,186.91,112.49Z" transform="translate(-52.46 -80.9)"/><path class="cls-16" d="M191.4,112.49a1.42,1.42,0,1,1-1.42-1.43,1.43,1.43,0,0,1,1.42,1.43Z" transform="translate(-52.46 -80.9)"/><circle class="cls-7" cx="134.47" cy="149.57" r="45.11"/><path class="cls-9" d="M161.31,226.79a2.33,2.33,0,0,1-2.35-2.31,2.37,2.37,0,0,1,.71-1.69,38.59,38.59,0,0,1,54.53,0,2.33,2.33,0,1,1-3.3,3.3,33.93,33.93,0,0,0-47.94,0A2.32,2.32,0,0,1,161.31,226.79Z" transform="translate(-52.46 -80.9)"/><path class="cls-9" d="M169.23,234.71a2.34,2.34,0,0,1-1.65-4,27.4,27.4,0,0,1,38.7,0A2.33,2.33,0,0,1,203,234a22.74,22.74,0,0,0-32.11,0A2.3,2.3,0,0,1,169.23,234.71Z" transform="translate(-52.46 -80.9)"/><path class="cls-9" d="M177.15,242.62a2.33,2.33,0,0,1-1.65-4,16.18,16.18,0,0,1,22.87,0,2.33,2.33,0,0,1-3.3,3.3,11.5,11.5,0,0,0-16.26,0h0A2.38,2.38,0,0,1,177.15,242.62Z" transform="translate(-52.46 -80.9)"/><path class="cls-9" d="M189.29,247.71a3.34,3.34,0,1,1-4.72,0h0A3.34,3.34,0,0,1,189.29,247.71Z" transform="translate(-52.46 -80.9)"/><path class="cls-9" d="M122.75,154.94a1,1,0,0,1-.71-.29l-5.36-5.36a1,1,0,0,1-.29-.71,1,1,0,0,1,.29-.7l5.36-5.36a1,1,0,0,1,1.41,1.41l-4.65,4.65,4.65,4.65a1,1,0,0,1,0,1.41h0A1,1,0,0,1,122.75,154.94Z" transform="translate(-52.46 -80.9)"/><path class="cls-9" d="M256.45,144.08a1.18,1.18,0,1,1-1.18-1.18h0A1.18,1.18,0,0,1,256.45,144.08Z" transform="translate(-52.46 -80.9)"/><path class="cls-9" d="M256.45,148.58a1.18,1.18,0,1,1-1.18-1.18h0A1.18,1.18,0,0,1,256.45,148.58Z" transform="translate(-52.46 -80.9)"/><path class="cls-9" d="M256.45,153.08a1.18,1.18,0,1,1-1.18-1.18h0A1.18,1.18,0,0,1,256.45,153.08Z" transform="translate(-52.46 -80.9)"/><circle class="cls-5" cx="170.66" cy="179.44" r="15.24"/><path class="cls-9" d="M229.24,267.46a1,1,0,0,1-.71-.29L216.3,254.93a1,1,0,0,1,1.41-1.41L230,265.75a1,1,0,0,1,0,1.41h0A1,1,0,0,1,229.24,267.46Z" transform="translate(-52.46 -80.9)"/><path class="cls-9" d="M217,267.46a1,1,0,0,1-1-1,1,1,0,0,1,.3-.72l12.23-12.23a1,1,0,0,1,1.41,0h0a1,1,0,0,1,0,1.41L217.7,267.17A1,1,0,0,1,217,267.46Z" transform="translate(-52.46 -80.9)"/><g class="cls-14"><path d="M259.81,311.86H114.05a.52.52,0,0,1-.5-.5.5.5,0,0,1,.5-.5H259.81a.5.5,0,1,1,0,1Z" transform="translate(-52.46 -80.9)"/></g><g class="cls-17"><path d="M233.74,324.61a.8.8,0,0,1-.56-1.36,13.16,13.16,0,0,1,18.58,0,.79.79,0,0,1-1.12,1.12,11.58,11.58,0,0,0-16.34,0A.8.8,0,0,1,233.74,324.61Z" transform="translate(-52.46 -80.9)"/><path d="M236.44,327.3a.79.79,0,0,1-.56-1.35h0a9.32,9.32,0,0,1,13.18,0,.79.79,0,0,1-1.12,1.12,7.76,7.76,0,0,0-10.94,0A.79.79,0,0,1,236.44,327.3Z" transform="translate(-52.46 -80.9)"/><path d="M239.14,330a.8.8,0,0,1-.57-1.36,5.52,5.52,0,0,1,7.8,0,.8.8,0,0,1-.06,1.13.79.79,0,0,1-1.07,0,3.91,3.91,0,0,0-5.53,0h0A.79.79,0,0,1,239.14,330Z" transform="translate(-52.46 -80.9)"/><circle cx="190.01" cy="251.64" r="1.14"/></g><path class="cls-7" d="M254.37,329.31a4.37,4.37,0,1,1-4.37-4.38,4.37,4.37,0,0,1,4.37,4.38Z" transform="translate(-52.46 -80.9)"/><path class="cls-9" d="M251.75,331.56a.51.51,0,0,1-.35-.15l-3.51-3.51a.5.5,0,0,1,0-.7.5.5,0,0,1,.71,0h0l3.51,3.51a.5.5,0,0,1,0,.7A.49.49,0,0,1,251.75,331.56Z" transform="translate(-52.46 -80.9)"/><path class="cls-9" d="M248.25,331.56a.49.49,0,0,1-.36-.15.5.5,0,0,1,0-.7l3.51-3.51a.5.5,0,0,1,.71,0h0a.5.5,0,0,1,0,.7l-3.51,3.51A.51.51,0,0,1,248.25,331.56Z" transform="translate(-52.46 -80.9)"/><g class="cls-17"><path d="M233.74,353.61a.79.79,0,0,1-.56-.23.8.8,0,0,1,0-1.13,13.16,13.16,0,0,1,18.58,0,.8.8,0,0,1,0,1.13.79.79,0,0,1-1.12,0h0a11.56,11.56,0,0,0-16.34,0A.79.79,0,0,1,233.74,353.61Z" transform="translate(-52.46 -80.9)"/><path d="M236.44,356.31a.8.8,0,0,1-.56-1.36h0a9.32,9.32,0,0,1,13.18,0,.79.79,0,0,1-1.12,1.12,7.76,7.76,0,0,0-10.94,0A.8.8,0,0,1,236.44,356.31Z" transform="translate(-52.46 -80.9)"/><path d="M239.14,359a.81.81,0,0,1-.57-.23.79.79,0,0,1,0-1.12h0a5.51,5.51,0,0,1,7.78,0l0,0a.79.79,0,0,1,0,1.12h0a.8.8,0,0,1-1.13,0,3.91,3.91,0,0,0-5.53,0h0A.79.79,0,0,1,239.14,359Z" transform="translate(-52.46 -80.9)"/><circle cx="190.01" cy="280.64" r="1.14"/></g><path class="cls-7" d="M254.37,358.31a4.37,4.37,0,1,1-4.37-4.38,4.37,4.37,0,0,1,4.37,4.38Z" transform="translate(-52.46 -80.9)"/><path class="cls-9" d="M251.75,360.56a.52.52,0,0,1-.35-.14l-3.51-3.51a.51.51,0,0,1,0-.71.5.5,0,0,1,.71,0h0l3.51,3.51a.51.51,0,0,1,0,.71A.54.54,0,0,1,251.75,360.56Z" transform="translate(-52.46 -80.9)"/><path class="cls-9" d="M248.25,360.56a.54.54,0,0,1-.36-.14.51.51,0,0,1,0-.71l3.51-3.51a.5.5,0,0,1,.71,0h0a.51.51,0,0,1,0,.71l-3.51,3.51A.52.52,0,0,1,248.25,360.56Z" transform="translate(-52.46 -80.9)"/><path class="cls-18" d="M259.14,112.1,106,265.25V115.67a3.44,3.44,0,0,1,3.3-3.57h38.43a2.71,2.71,0,0,1,2.48,1.73l1.59,3.92a2.7,2.7,0,0,0,2.47,1.71H219.7a2.66,2.66,0,0,0,2.47-1.68l1.59-3.94a2.74,2.74,0,0,1,2.48-1.74Z" transform="translate(-52.46 -80.9)"/><polygon class="cls-18" points="215.42 59.59 215.42 72.16 53.53 234.04 53.53 221.48 215.42 59.59"/></g><g id="freepik--Character--inject-6"><g id="freepik--group--inject-6"><path class="cls-7" d="M293.06,213.09s-5.32,6.59-6.11,9,.79.92.79.92-2.16,18.64-.78,23.79,18.78,5.66,23.73,2.84,12.3-56.83,8-60.79S296.39,185.14,293.06,213.09Z" transform="translate(-52.46 -80.9)"/><path class="cls-19" d="M271.72,184.08l-1-6.31a23.51,23.51,0,0,0-2.57-3.46c-.79-.67-2-6.59-1-9.17s6.72-4.63,6.72-4.63l2.76,13.8-1.41,2.49,1.12,5.21Z" transform="translate(-52.46 -80.9)"/><path class="cls-5" d="M304.9,166.17c-6.51.91-17.9,32.75-21.86,32.28-1.33-.16-7-21.45-7-21.45l-5.86,3.85S275,207,279.82,209.1c7.62,3.35,23.54-23.35,23.54-23.35Z" transform="translate(-52.46 -80.9)"/><path class="cls-5" d="M303.25,163.9c-3.65.29-16.9,23.88-16.9,23.88l8.45,13.6,5-5.54Z" transform="translate(-52.46 -80.9)"/><path class="cls-12" d="M303.25,163.9l-1.7,15.78-1.75,16.16-5,5.54L292.7,198l-6.35-10.21S299.6,164.19,303.25,163.9Z" transform="translate(-52.46 -80.9)"/><path class="cls-20" d="M301.55,179.68l-1.75,16.16-5,5.54L292.7,198C293.09,188.67,298.67,182.34,301.55,179.68Z" transform="translate(-52.46 -80.9)"/><path class="cls-7" d="M282.14,171.93a.68.68,0,0,1-.49.84l-.09,0-7.62,1.07a.89.89,0,0,1-1-.65l-3.81-14.8a.77.77,0,0,1,.48-1l.09,0,7.62-1.06a1,1,0,0,1,1,.75Z" transform="translate(-52.46 -80.9)"/><path class="cls-21" d="M277.47,157.15l3.85,14.94a.58.58,0,0,1-.32.76.53.53,0,0,1-.18,0l-6.46.91c-.43.06-1.26-.07-1.37-.49l-3.86-15c-.1-.42.59-.87,1-.93l6.46-.9A.79.79,0,0,1,277.47,157.15Z" transform="translate(-52.46 -80.9)"/><path class="cls-7" d="M337.3,408.53h9.9a.75.75,0,0,1,.7.56l1.6,7.26a1.2,1.2,0,0,1-.91,1.42h-.28c-3.2,0-5.53-.25-9.56-.25-2.47,0-9.95.26-13.37.26s-3.86-3.38-2.46-3.69c6.28-1.37,11-3.26,13-5.07A2,2,0,0,1,337.3,408.53Z" transform="translate(-52.46 -80.9)"/><path class="cls-7" d="M295.32,408.27h9.9a.75.75,0,0,1,.7.56l1.6,7.26a1.2,1.2,0,0,1-.92,1.43h-.27c-3.2,0-5.53-.25-9.56-.25-2.47,0-9.95.26-13.37.26s-3.86-3.38-2.46-3.69c6.28-1.37,11-3.26,13-5.07A2,2,0,0,1,295.32,408.27Z" transform="translate(-52.46 -80.9)"/><path class="cls-7" d="M342.55,225H299.3c-4.11,22.46-15.87,113.33-6.63,184.14l14.44,1.58S304.84,302,317.77,267.2c1.48,18.59,3.25,38.38,4.78,48.91,3.77,25.91,12.25,93.45,12.25,93.45l14.63.4s-3.2-65.51-4.61-91C343.28,291.33,342.61,230.71,342.55,225Z" transform="translate(-52.46 -80.9)"/><path class="cls-18" d="M342.55,225H299.3c-4.11,22.46-15.87,113.33-6.63,184.14l14.44,1.58S304.84,302,317.77,267.2c1.48,18.59,3.25,38.38,4.78,48.91,3.77,25.91,12.25,93.45,12.25,93.45l14.63.4s-3.2-65.51-4.61-91C343.28,291.33,342.61,230.71,342.55,225Z" transform="translate(-52.46 -80.9)"/><path class="cls-20" d="M317.76,267.2a117.09,117.09,0,0,0-4.83,18.71c-1.21-16.55,3.63-34.1,3.63-34.1Z" transform="translate(-52.46 -80.9)"/><polygon class="cls-7" points="246.48 144.65 290.02 144.65 290.02 149.84 245.92 149.3 246.48 144.65"/><rect class="cls-7" x="274.47" y="142.32" width="1.55" height="9.2"/><rect class="cls-7" x="252.44" y="142.32" width="1.55" height="9.2"/><rect class="cls-9" x="258.27" y="143.75" width="8.05" height="5.8"/><rect class="cls-18" x="274.47" y="142.32" width="1.55" height="9.2"/><rect class="cls-18" x="252.44" y="142.32" width="1.55" height="9.2"/><path class="cls-5" d="M303.25,163.9s27.51-1.06,48,3.18c0,0-9.05,37.27-8.71,58.47h-43.6S296.11,185.78,303.25,163.9Z" transform="translate(-52.46 -80.9)"/><path class="cls-19" d="M335.19,165c-3.95,3.59-13.62,2.26-13.62,2.26s-6.05-1.65-4.78-3.54c3.56-.59,5.28-2.25,6-4.38a10.33,10.33,0,0,0,.36-4.06,21.69,21.69,0,0,0-.3-2.27l12-8.86C333.24,150,331.33,160.78,335.19,165Z" transform="translate(-52.46 -80.9)"/><path class="cls-20" d="M332.05,149.8c-.48,7.18-6.38,9.16-9.26,9.56a10.33,10.33,0,0,0,.36-4.06Z" transform="translate(-52.46 -80.9)"/><path class="cls-7" d="M314.56,125.57s-3.34,10.8,1.89,15.93,8.31-15.44,8.31-15.44Z" transform="translate(-52.46 -80.9)"/><path class="cls-19" d="M332.16,152.83a10.14,10.14,0,0,1-12.1,2.16,11.24,11.24,0,0,1-5.59-6.15,9,9,0,0,1-.38-1.14c-1.87-7.18-1-19.13,6.79-22.49a11,11,0,0,1,15.38,10.68C336,143.92,336.15,148.65,332.16,152.83Z" transform="translate(-52.46 -80.9)"/><path class="cls-7" d="M324.89,138.31c.06.65-.31,1.19-.75,1.2s-.78-.52-.8-1.17.33-1.19.75-1.2S324.87,137.65,324.89,138.31Z" transform="translate(-52.46 -80.9)"/><path class="cls-7" d="M316.5,138.46c.06.65-.33,1.19-.75,1.2s-.78-.52-.8-1.17.33-1.19.75-1.2S316.49,137.84,316.5,138.46Z" transform="translate(-52.46 -80.9)"/><path class="cls-22" d="M319.08,138.81a23.81,23.81,0,0,1-3,5.66,3.78,3.78,0,0,0,3.15.52Z" transform="translate(-52.46 -80.9)"/><path class="cls-7" d="M326.36,136a.43.43,0,0,1-.38-.15,3.08,3.08,0,0,0-2.48-1.23.39.39,0,0,1-.42-.34.4.4,0,0,1,.35-.42h0a3.78,3.78,0,0,1,3.15,1.52.37.37,0,0,1,0,.51l0,0h0Z" transform="translate(-52.46 -80.9)"/><path class="cls-7" d="M313.5,136.05a.45.45,0,0,1-.23,0,.39.39,0,0,1-.2-.5h0a3.79,3.79,0,0,1,2.72-2.21.38.38,0,0,1,.43.32h0a.38.38,0,0,1-.32.43h0a3.12,3.12,0,0,0-2.13,1.79A.41.41,0,0,1,313.5,136.05Z" transform="translate(-52.46 -80.9)"/><path class="cls-7" d="M330.16,126l-.53,3.52a2.63,2.63,0,0,1,1.24,3.36c-1.23,3,.33,7.61,2.57,9.51,0,0,.1-1.28,1.18-.95s.6,7-1.61,10.19a23.35,23.35,0,0,0,5.84-10.44c1.86-6.48,1.67-11.27.4-13.83Z" transform="translate(-52.46 -80.9)"/><path class="cls-19" d="M339.9,142.41a7.68,7.68,0,0,1-4.3,4c-2.53.9-4-1.31-3.44-3.79.49-2.21,2.39-5.4,5-5.21S340.92,140.14,339.9,142.41Z" transform="translate(-52.46 -80.9)"/><path class="cls-7" d="M320.77,149.31h-.09a.25.25,0,0,1-.15-.31h0s1.39-3.64,4.8-3.52a.25.25,0,0,1,.25.25.24.24,0,0,1-.23.25h0c-3-.1-4.31,3.17-4.33,3.2A.24.24,0,0,1,320.77,149.31Z" transform="translate(-52.46 -80.9)"/><path class="cls-7" d="M317.64,126c1.5,3.05,10.84-.18,13.42,1.8s9.05,2.77,9.05,2.77,3.49-6.3-3.84-9.7c-12.93-6-28.2-1-23.53,8.39,0,0-.83-3.93,2-5,0,0-2.69,1.5-.12,5Z" transform="translate(-52.46 -80.9)"/><polygon class="cls-5" points="282.73 81.91 277.17 84.67 279.95 153.51 296.98 151.52 298.8 86.17 282.73 81.91"/><polygon class="cls-12" points="298.8 86.18 298.34 102.77 297.99 115.05 296.97 151.52 279.95 153.51 277.17 84.68 282.73 81.91 298.8 86.18"/><polygon class="cls-5" points="277.17 84.67 283.7 79.53 287.76 82.88 282.73 89.32 277.17 84.67"/><polygon class="cls-23" points="277.17 84.67 283.7 79.53 287.76 82.88 282.73 89.32 277.17 84.67"/><path class="cls-5" d="M316.79,163.74c-2.75,3.81-14.42,70.67-14.42,70.67l-8.5-1s3.93-65.06,9.38-69.52Z" transform="translate(-52.46 -80.9)"/><path class="cls-12" d="M316.79,163.74c-2.75,3.81-14.42,70.67-14.42,70.67l-8.5-1s3.93-65.06,9.38-69.52Z" transform="translate(-52.46 -80.9)"/><path class="cls-7" d="M295.92,206.66s.7-33.61,14.81-42.92h4S298.83,181,295.92,206.66Z" transform="translate(-52.46 -80.9)"/><polygon class="cls-5" points="266.32 79.53 260.58 82.84 260.28 86.62 265.3 83.08 266.32 79.53"/><polygon class="cls-23" points="266.32 79.53 260.58 82.84 260.28 86.62 265.3 83.08 266.32 79.53"/><path class="cls-19" d="M351.26,215.82l-4,3.85s-3.15,1.7-3.61,3c-1.08,3,2,10.86,2.74,11.77,1,1.29,9.58,0,9.58,0s-2.07-8.35-3.27-10.48a9.08,9.08,0,0,0-1.69-2.2l3.77-3.54Z" transform="translate(-52.46 -80.9)"/><path class="cls-20" d="M350.8,183.67,350.45,196c-3.64-6.54-1.31-16.27-1.31-16.27S349.85,181.32,350.8,183.67Z" transform="translate(-52.46 -80.9)"/><path class="cls-5" d="M353.21,172.29c5.93.49,22.26,22.25,21.65,27s-21.27,22.12-21.27,22.12l-5.16-4.56s16.77-16.41,17-18.24-14.63-17.7-14.63-17.7Z" transform="translate(-52.46 -80.9)"/><path class="cls-5" d="M351.26,167.08c2.15,1,8.77,6.8,17.08,18.18l-10.19,9.41-7.53-4.86s-1.27-3.66-1.56-11.87S351.26,167.08,351.26,167.08Z" transform="translate(-52.46 -80.9)"/><path class="cls-12" d="M351.26,167.08c2.15,1,8.77,6.8,17.08,18.18l-10.19,9.41-7.53-4.86s-1.27-3.66-1.56-11.87S351.26,167.08,351.26,167.08Z" transform="translate(-52.46 -80.9)"/></g></g></svg>