<svg id="Layer_1" data-name="Layer 1" xmlns="http://www.w3.org/2000/svg" viewBox="0 0 387.78 381.01"><defs><style>.cls-1{fill:#f5f5f5;}.cls-2{fill:#2f74b3;}.cls-3{fill:#407bff;}.cls-4,.cls-8{opacity:0.5;}.cls-10,.cls-5,.cls-8,.cls-9{fill:#fff;}.cls-13,.cls-6{opacity:0.4;}.cls-10,.cls-13,.cls-14,.cls-15,.cls-18,.cls-22,.cls-6,.cls-8,.cls-9{isolation:isolate;}.cls-13,.cls-7{fill:#fafafa;}.cls-9{opacity:0.7;}.cls-10,.cls-14,.cls-15{opacity:0.3;}.cls-11{fill:#165a9a;}.cls-12{fill:#e4897b;}.cls-15{fill:#071e33;}.cls-16{fill:#263238;}.cls-17{fill:#de5753;}.cls-18{opacity:0.1;}.cls-19{fill:#203048;}.cls-20{fill:#ce6f64;}.cls-21{fill:#161f33;}.cls-22{opacity:0.2;}</style></defs><g id="freepik--Shadow--inject-51"><ellipse class="cls-1" cx="193.89" cy="369.69" rx="193.89" ry="11.32"/></g><rect class="cls-2" x="256.22" y="99.27" width="116.84" height="45.42" rx="9.37"/><rect class="cls-3" x="265.96" y="106.93" width="79.91" height="5.08" rx="1.64"/><rect class="cls-3" x="265.96" y="119.17" width="55.64" height="5.08" rx="1.64"/><rect class="cls-3" x="265.96" y="131.41" width="41.6" height="5.08" rx="1.64"/><rect class="cls-3" x="313.45" y="131.41" width="41.6" height="5.08" rx="1.64"/><g class="cls-4"><rect class="cls-5" x="265.96" y="106.93" width="79.91" height="5.08" rx="1.64"/><rect class="cls-5" x="265.96" y="119.17" width="55.64" height="5.08" rx="1.64"/><rect class="cls-5" x="265.96" y="131.41" width="41.6" height="5.08" rx="1.64"/><rect class="cls-5" x="313.45" y="131.41" width="41.6" height="5.08" rx="1.64"/></g><rect class="cls-2" x="160.02" y="88.68" width="138.83" height="66.6" rx="13.74"/><rect class="cls-3" x="174.3" y="99.91" width="117.16" height="7.45" rx="2.41"/><rect class="cls-3" x="174.3" y="117.86" width="81.57" height="7.45" rx="2.41"/><rect class="cls-3" x="174.3" y="135.81" width="60.99" height="7.45" rx="2.41"/><rect class="cls-3" x="243.93" y="135.81" width="51.62" height="7.45" rx="2.41"/><g class="cls-4"><rect class="cls-5" x="174.3" y="99.91" width="117.16" height="7.45" rx="2.41"/><rect class="cls-5" x="174.3" y="117.86" width="81.57" height="7.45" rx="2.41"/><rect class="cls-5" x="174.3" y="135.81" width="60.99" height="7.45" rx="2.41"/><rect class="cls-5" x="243.93" y="135.81" width="51.62" height="7.45" rx="2.41"/></g><rect class="cls-3" x="155.83" y="167.35" width="66.47" height="93.18" rx="6.42"/><rect class="cls-6" x="155.83" y="167.35" width="66.47" height="93.18" rx="6.42"/><rect class="cls-7" x="163.52" y="177.07" width="51.08" height="4.13" rx="1.18"/><rect class="cls-7" x="163.52" y="187.01" width="35.57" height="4.13" rx="1.18"/><rect class="cls-7" x="163.52" y="196.96" width="51.08" height="4.13" rx="1.18"/><rect class="cls-7" x="163.52" y="206.9" width="20.47" height="4.13" rx="1.18"/><rect class="cls-7" x="188.86" y="206.9" width="20.47" height="4.13" rx="1.18"/><rect class="cls-7" x="163.52" y="216.85" width="51.08" height="4.13" rx="1.18"/><rect class="cls-7" x="163.52" y="226.79" width="51.08" height="4.13" rx="1.18"/><rect class="cls-7" x="163.52" y="236.74" width="42.44" height="4.13" rx="1.18"/><rect class="cls-7" x="163.52" y="246.68" width="21.06" height="4.13" rx="1.18"/><path class="cls-3" d="M286.5,213.33H212.11L245,239.5l50.43,19V222.24A8.93,8.93,0,0,0,286.5,213.33Z" transform="translate(-56.11 -46.55)"/><path class="cls-6" d="M286.5,213.33H212.11L245,239.5l50.43,19V222.24A8.93,8.93,0,0,0,286.5,213.33Z" transform="translate(-56.11 -46.55)"/><rect class="cls-7" x="171.23" y="180.26" width="57.39" height="5.72" rx="1.48"/><rect class="cls-2" x="253.67" y="178.04" width="105.37" height="66.84" rx="7.26"/><rect class="cls-2" x="270.26" y="161.46" width="105.37" height="66.84" rx="7.26"/><rect class="cls-8" x="269.91" y="161.36" width="105.37" height="66.84" rx="7.26"/><rect class="cls-3" x="330.26" y="167.67" width="36.15" height="38.67" rx="3.23"/><rect class="cls-9" x="330.26" y="167.67" width="36.15" height="38.67" rx="3.23"/><rect class="cls-2" x="296.89" y="191.53" width="27.71" height="29.64" rx="2.48"/><rect class="cls-10" x="296.89" y="191.53" width="27.71" height="29.64" rx="2.48"/><rect class="cls-11" x="51.85" y="41.5" width="258.89" height="28.09" rx="7.38"/><rect class="cls-8" x="51.85" y="41.5" width="258.89" height="28.09" rx="7.38"/><rect class="cls-3" x="194.3" y="64.62" width="70.25" height="9.67"/><rect class="cls-8" x="194.3" y="64.62" width="70.25" height="9.67"/><rect class="cls-2" x="77.04" width="258.89" height="28.09" rx="7.38"/><path class="cls-12" d="M130.36,194.26c-.88,2-1.85,4.16-2.7,6.27s-1.73,4.28-2.5,6.44a90.77,90.77,0,0,0-3.79,12.93l-.29,1.6-.1.6a2.08,2.08,0,0,1-.06.59,23.72,23.72,0,0,0,.06,2.92,58.9,58.9,0,0,0,1,6.63c.84,4.53,1.91,9.2,3,13.8l-5.13,2a92.43,92.43,0,0,1-6.09-13.59,56.78,56.78,0,0,1-2.12-7.47,26.57,26.57,0,0,1-.56-4.26v-1.21a6,6,0,0,1,.07-1.19l.2-2a63.83,63.83,0,0,1,1.37-7.65c.56-2.5,1.28-4.93,2-7.33s1.62-4.76,2.57-7.08c.47-1.16,1-2.31,1.46-3.46a38.32,38.32,0,0,1,1.64-3.48Z" transform="translate(-56.11 -46.55)"/><path class="cls-12" d="M124.71,244.69l3.9,3.81-8.51,4s-2.06-3.61-.63-6.87Z" transform="translate(-56.11 -46.55)"/><polygon class="cls-12" points="75.65 207.62 68.46 210.56 64 205.91 72.5 201.95 75.65 207.62"/><path class="cls-13" d="M277.69,250a81.58,81.58,0,1,1,.05,0Z" transform="translate(-56.11 -46.55)"/><path class="cls-13" d="M329.79,121.79l-109.5,87.49c-.46-1-.91-2-1.33-3a71.1,71.1,0,0,1-5.21-20.48h0l94.58-75.57A71.13,71.13,0,0,1,329.79,121.79Z" transform="translate(-56.11 -46.55)"/><path class="cls-13" d="M355.06,160.12,252.11,242.37a71.84,71.84,0,0,1-24.77-21.28l112.41-89.82A72,72,0,0,1,355.06,160.12Z" transform="translate(-56.11 -46.55)"/><path class="cls-3" d="M204.39,151l-.95-.32a87.86,87.86,0,0,1,6.18-14.05l.87.48A86.71,86.71,0,0,0,204.39,151Zm12.14-23.34-.81-.59a86.69,86.69,0,0,1,31.37-26.21l.45.9a85.71,85.71,0,0,0-31,25.93Zm109.59-24.53A83.68,83.68,0,0,0,316,98.54l.36-.94a84.91,84.91,0,0,1,10.22,4.68Z" transform="translate(-56.11 -46.55)"/><path class="cls-14" d="M204.39,151l-.95-.32a87.86,87.86,0,0,1,6.18-14.05l.87.48A86.71,86.71,0,0,0,204.39,151Zm12.14-23.34-.81-.59a86.69,86.69,0,0,1,31.37-26.21l.45.9a85.71,85.71,0,0,0-31,25.93Zm109.59-24.53A83.68,83.68,0,0,0,316,98.54l.36-.94a84.91,84.91,0,0,1,10.22,4.68Z" transform="translate(-56.11 -46.55)"/><path class="cls-3" d="M359.87,141.74a83,83,0,0,0-152.65,64.73c-6.68,2.34-13.28,4.85-19.84,7.44q-14.19,5.63-28.12,11.76c-9.28,4.11-18.52,8.3-27.67,12.68-4.59,2.15-9.12,4.42-13.69,6.62a19.76,19.76,0,0,0-6.34,4.35,19.13,19.13,0,0,0-2.57,3.37,17.45,17.45,0,0,0-2,4.63,12.73,12.73,0,0,0,7.33,14.85,17.76,17.76,0,0,0,4.86,1.26,18.88,18.88,0,0,0,4.25,0,19.63,19.63,0,0,0,7.3-2.39c4.53-2.29,9.09-4.5,13.59-6.85,9-4.59,18-9.38,26.89-14.24S189,240,197.68,234.78c6-3.63,12.06-7.34,18-11.22a83,83,0,0,0,144.21-81.82Zm-45.46,95.53a65.53,65.53,0,1,1,29.75-87.78,65.53,65.53,0,0,1-29.75,87.78Z" transform="translate(-56.11 -46.55)"/><path class="cls-15" d="M359.87,141.74a83,83,0,0,0-152.65,64.73c-6.68,2.34-13.28,4.85-19.84,7.44q-14.19,5.63-28.12,11.76c-9.28,4.11-18.52,8.3-27.67,12.68-4.59,2.15-9.12,4.42-13.69,6.62a19.76,19.76,0,0,0-6.34,4.35,19.13,19.13,0,0,0-2.57,3.37,17.45,17.45,0,0,0-2,4.63,12.73,12.73,0,0,0,7.33,14.85,17.76,17.76,0,0,0,4.86,1.26,18.88,18.88,0,0,0,4.25,0,19.63,19.63,0,0,0,7.3-2.39c4.53-2.29,9.09-4.5,13.59-6.85,9-4.59,18-9.38,26.89-14.24S189,240,197.68,234.78c6-3.63,12.06-7.34,18-11.22a83,83,0,0,0,144.21-81.82Zm-45.46,95.53a65.53,65.53,0,1,1,29.75-87.78,65.53,65.53,0,0,1-29.75,87.78Z" transform="translate(-56.11 -46.55)"/><path class="cls-16" d="M158,158.55c0,.59.31,1.07.7,1.07s.7-.48.7-1.07-.31-1.07-.7-1.07S158,158,158,158.55Z" transform="translate(-56.11 -46.55)"/><path class="cls-17" d="M158.28,159.62a21.37,21.37,0,0,0,2.83,5.07,3.39,3.39,0,0,1-2.83.53Z" transform="translate(-56.11 -46.55)"/><path class="cls-16" d="M155.93,155.26a.37.37,0,0,1-.29-.14.36.36,0,0,1,.08-.49,3.41,3.41,0,0,1,3.13-.53.35.35,0,0,1,.25.43.36.36,0,0,1-.43.25l-.07,0a2.73,2.73,0,0,0-2.47.45A.36.36,0,0,1,155.93,155.26Z" transform="translate(-56.11 -46.55)"/><path class="cls-12" d="M137.8,163c1,5.37,2.1,15.22-1.66,18.81,0,0,1.47,5.45,11.46,5.45,11,0,5.24-5.45,5.24-5.45-6-1.44-5.83-5.88-4.79-10.06Z" transform="translate(-56.11 -46.55)"/><path class="cls-2" d="M131.65,184.64c1.19-1.85-.81-6.34-.81-6.34s17.68-4.45,24.91,2.38c1.5,1.41-.16,3.49-.16,3.49Z" transform="translate(-56.11 -46.55)"/><path class="cls-18" d="M131.65,184.64c1.19-1.85-.81-6.34-.81-6.34s17.68-4.45,24.91,2.38c1.5,1.41-.16,3.49-.16,3.49Z" transform="translate(-56.11 -46.55)"/><path class="cls-3" d="M102.4,388.67c-.93,0-2.42-1.55-2.86-2.13a.17.17,0,0,1,0-.19.17.17,0,0,1,.16-.09c.11,0,2.56.22,3.23,1.09a.79.79,0,0,1,.16.66.72.72,0,0,1-.52.65Zm-2.32-2c.73.84,1.9,1.79,2.4,1.67,0,0,.2,0,.26-.37a.43.43,0,0,0-.1-.38,4.66,4.66,0,0,0-2.56-.94Z" transform="translate(-56.11 -46.55)"/><path class="cls-3" d="M100.19,386.65a2.44,2.44,0,0,1-.54,0,.16.16,0,0,1-.14-.11.19.19,0,0,1,0-.18c.07-.06,1.54-1.59,2.65-1.59h0a.91.91,0,0,1,.71.3.57.57,0,0,1,.14.7C102.72,386.33,101.19,386.65,100.19,386.65Zm-.13-.35c1,0,2.45-.31,2.69-.75,0,0,.07-.13-.09-.29a.58.58,0,0,0-.46-.19h0A4.29,4.29,0,0,0,100.06,386.3Z" transform="translate(-56.11 -46.55)"/><path class="cls-3" d="M168.39,411.37a14.28,14.28,0,0,1-2.26-.21A.15.15,0,0,1,166,411a.18.18,0,0,1,.08-.18c.11-.06,2.67-1.53,3.9-1.19a.86.86,0,0,1,.55.4.66.66,0,0,1,0,.76C170.24,411.24,169.33,411.37,168.39,411.37Zm-1.69-.47c1.36.2,3.22.19,3.56-.29.05-.06.09-.17,0-.38a.61.61,0,0,0-.34-.25C169.14,409.78,167.59,410.44,166.7,410.9Z" transform="translate(-56.11 -46.55)"/><path class="cls-3" d="M166.17,411.17h-.1A.16.16,0,0,1,166,411a4.92,4.92,0,0,1,1.14-2.83,1.26,1.26,0,0,1,1-.29.58.58,0,0,1,.65.48c.13.83-1.62,2.42-2.51,2.82Zm1.79-3a.94.94,0,0,0-.6.22,4,4,0,0,0-1,2.27c.9-.55,2.1-1.79,2-2.29,0,0,0-.17-.34-.2Z" transform="translate(-56.11 -46.55)"/><polygon class="cls-12" points="101.98 364.44 109.33 364.44 110.06 347.43 102.71 347.43 101.98 364.44"/><polygon class="cls-12" points="36.53 335.24 42.67 339.26 56.23 327.81 50.08 323.78 36.53 335.24"/><path class="cls-16" d="M99.79,385.43l-6.38-5.23a.63.63,0,0,0-.8,0l-5.26,4.13a1.08,1.08,0,0,0-.17,1.52,1.37,1.37,0,0,0,.17.17c2.26,1.79,3.45,2.55,6.26,4.85,1.73,1.41,6,5.73,8.41,7.68s4.62-.15,3.82-1.16c-3.59-4.55-5-8.44-5.41-10.85A1.8,1.8,0,0,0,99.79,385.43Z" transform="translate(-56.11 -46.55)"/><path class="cls-16" d="M165.39,410.14h-8a.65.65,0,0,0-.63.5l-1.45,6.53a1.07,1.07,0,0,0,.8,1.28,1.15,1.15,0,0,0,.26,0c2.89-.05,7.07-.22,10.71-.22,4.25,0,7.93.23,12.91.23,3,0,3.86-3.05,2.59-3.32-5.74-1.26-10.44-1.39-15.4-4.46A3.45,3.45,0,0,0,165.39,410.14Z" transform="translate(-56.11 -46.55)"/><path class="cls-16" d="M121.66,184c-6.37,3-10,23.1-10,23.1l15.57,6.21a115.73,115.73,0,0,0,5.51-17.15C134.88,186.9,128.18,180.9,121.66,184Z" transform="translate(-56.11 -46.55)"/><path class="cls-19" d="M129.92,195.33c-3.85,3.9-5.61,11.54-6.38,16.51l3.73,1.49a117.17,117.17,0,0,0,5.4-16.65C132.34,194.56,131.52,193.71,129.92,195.33Z" transform="translate(-56.11 -46.55)"/><path class="cls-16" d="M164.14,183.86s7.82,8.84.44,63.5H125.29c-.27-6,3.52-35.45-2.3-63.87a100.13,100.13,0,0,1,13.15-1.66,141,141,0,0,1,16.7,0A73.54,73.54,0,0,1,164.14,183.86Z" transform="translate(-56.11 -46.55)"/><path class="cls-19" d="M167.73,205.08l-6.62-11.41a58.21,58.21,0,0,0-1.55,16.27c.18,3.92,3.77,18.44,7,20.56A229.6,229.6,0,0,0,167.73,205.08Z" transform="translate(-56.11 -46.55)"/><path class="cls-12" d="M168.65,191.67c1,4.86,2,9.84,3.07,14.72s2.18,9.78,3.47,14.51c.33,1.17.64,2.37,1,3.49l.27.86.13.43v-.05c-.07-.09-.15-.1-.09,0a3.33,3.33,0,0,0,1.52,1,18.48,18.48,0,0,0,2.91.81,77.77,77.77,0,0,0,14.3.93l1,5.44c-1.34.43-2.59.74-3.91,1.05s-2.62.57-4,.77a42.24,42.24,0,0,1-8.33.56,22.3,22.3,0,0,1-4.6-.6,13.45,13.45,0,0,1-5.28-2.45,9.55,9.55,0,0,1-2.47-3c-.16-.3-.3-.64-.43-.93l-.18-.47-.37-1c-.51-1.27-.93-2.52-1.39-3.77-1.69-5-3.1-10-4.34-15.09s-2.31-10.07-3.2-15.24Z" transform="translate(-56.11 -46.55)"/><path class="cls-16" d="M154.33,189.22c-2.07,6.71,6.32,26.72,6.32,26.72l16.71-4.2s-.64-10.4-4.45-18.65C167.17,180.65,156.81,181.17,154.33,189.22Z" transform="translate(-56.11 -46.55)"/><path class="cls-12" d="M195.09,228.32l8.32-.21-4,8.66s-3.39.45-6.17-4.12l-2.93-3.5,3.37-.67A7.43,7.43,0,0,1,195.09,228.32Z" transform="translate(-56.11 -46.55)"/><polygon class="cls-12" points="152.55 183.17 147.79 190.35 143.3 190.22 147.3 181.56 152.55 183.17"/><polygon class="cls-20" points="110.06 347.43 109.68 356.2 102.33 356.2 102.71 347.43 110.06 347.43"/><polygon class="cls-20" points="50.08 323.78 56.23 327.81 49.23 333.71 43.09 329.69 50.08 323.78"/><path class="cls-12" d="M138.26,157.28c.44,7.27.33,11.56,4,15.29,5.52,5.63,14.51,2.3,16.25-5,1.57-6.54.59-17.34-6.53-20.24a10,10,0,0,0-13.72,9.95Z" transform="translate(-56.11 -46.55)"/><path class="cls-16" d="M129.7,156c1.81,6.63,6.07,14.27,11.58,14.76,6.84.6,9.93-6.47,10.83-13.77,4.1-2.81,1.95-5.9,6.06-6.29,5.28-.5,3.59-10.16-3.36-11.71,0,0,2.33,4.35-2.56,2.15a28.18,28.18,0,0,0-14.94-2.59s6.24,3.12.14,4.51-7.92,5.15-5.11,7.42A4.24,4.24,0,0,0,129.7,156Z" transform="translate(-56.11 -46.55)"/><path class="cls-12" d="M147.94,158.49a8.17,8.17,0,0,0,2.07,4.87c1.6,1.77,3.27.67,3.55-1.48.26-1.93-.27-5.18-2.23-6.16S147.81,156.31,147.94,158.49Z" transform="translate(-56.11 -46.55)"/><path class="cls-2" d="M150.64,247.36s7.16,51.85,1.52,72.63c-8.94,32.9-43.12,60.67-43.12,60.67l-11.59-7.6s29.11-23.45,32.67-51c3.2-24.73-4.83-54.64-4.83-74.71Z" transform="translate(-56.11 -46.55)"/><path class="cls-18" d="M150.64,247.36s7.16,51.85,1.52,72.63c-8.94,32.9-43.12,60.67-43.12,60.67l-11.59-7.6s29.11-23.45,32.67-51c3.2-24.73-4.83-54.64-4.83-74.71Z" transform="translate(-56.11 -46.55)"/><path class="cls-3" d="M153.6,277a48.73,48.73,0,0,0-6.27-6c1.22,16.83,2.22,41.76,1.11,59.47A76.19,76.19,0,0,0,152.16,320C154.91,309.85,154.62,292.32,153.6,277Z" transform="translate(-56.11 -46.55)"/><path class="cls-14" d="M153.6,277a48.73,48.73,0,0,0-6.27-6c1.22,16.83,2.22,41.76,1.11,59.47A76.19,76.19,0,0,0,152.16,320C154.91,309.85,154.62,292.32,153.6,277Z" transform="translate(-56.11 -46.55)"/><path class="cls-3" d="M113.71,378.07c.05,0-4.49,3-4.49,3l-12.66-8.3,4-3.31Z" transform="translate(-56.11 -46.55)"/><path class="cls-14" d="M113.71,378.07c.05,0-4.49,3-4.49,3l-12.66-8.3,4-3.31Z" transform="translate(-56.11 -46.55)"/><path class="cls-2" d="M164.58,247.36s11.06,46.9,11.84,69.31c.88,25.12-7.89,84.38-7.89,84.38H156.08s-1.53-59.72-2.08-82.6c-.61-24.95-15.25-71.09-15.25-71.09Z" transform="translate(-56.11 -46.55)"/><path class="cls-18" d="M164.58,245.17s11.06,46.9,11.84,69.31c.88,25.12-7.89,84.38-7.89,84.38H156.08s-1.53-59.72-2.08-82.6c-.61-24.95-15.25-71.09-15.25-71.09Z" transform="translate(-56.11 -46.55)"/><path class="cls-3" d="M170.92,396.1c.06,0-.7,5.16-.7,5.16H155.08l-.41-4.61Z" transform="translate(-56.11 -46.55)"/><path class="cls-14" d="M170.92,396.1c.06,0-.7,5.16-.7,5.16H155.08l-.41-4.61Z" transform="translate(-56.11 -46.55)"/><path class="cls-12" d="M356,202.29c.85.8,1.52,1.48,2.22,2.24s1.36,1.5,2,2.27c1.3,1.53,2.52,3.14,3.7,4.76a76.27,76.27,0,0,1,6.27,10.26l.37.73a7.05,7.05,0,0,1,.45,1.1,9.14,9.14,0,0,1,.44,2.26,10.86,10.86,0,0,1-.55,4,20.25,20.25,0,0,1-3.21,5.92,42.52,42.52,0,0,1-8.8,8.46l-2.49-2.86c1.17-1.37,2.39-2.84,3.48-4.31a36.67,36.67,0,0,0,3-4.5,15.68,15.68,0,0,0,1.82-4.42,4.63,4.63,0,0,0,.07-1.7,2.53,2.53,0,0,0-.18-.55,1.59,1.59,0,0,0-.13-.22l-.32-.54a105.06,105.06,0,0,0-6.27-9.11c-1.11-1.47-2.3-2.88-3.5-4.27-.59-.7-1.2-1.38-1.81-2.06s-1.27-1.36-1.8-1.89Z" transform="translate(-56.11 -46.55)"/><path class="cls-12" d="M357.36,240.59l-7.47-1.22,3.91,6.54s4.81-.17,6.18-3Z" transform="translate(-56.11 -46.55)"/><polygon class="cls-12" points="288.26 195.84 291.82 201.15 297.69 199.36 293.78 192.82 288.26 195.84"/><path class="cls-3" d="M357,411.28a2.15,2.15,0,0,1-1.43-.39,1,1,0,0,1-.29-.94.58.58,0,0,1,.35-.5c.87-.39,3.15,1.07,3.41,1.24a.16.16,0,0,1,.07.18.16.16,0,0,1-.13.14A8.82,8.82,0,0,1,357,411.28Zm-1-1.55h-.22a.25.25,0,0,0-.15.23.66.66,0,0,0,.18.63c.38.34,1.36.39,2.67.13A6.53,6.53,0,0,0,356,409.73Z" transform="translate(-56.11 -46.55)"/><path class="cls-3" d="M359,411h-.09c-.71-.41-2.08-2-1.91-2.87a.65.65,0,0,1,.6-.5.9.9,0,0,1,.75.24c.82.72.83,2.88.83,3a.19.19,0,0,1-.09.15Zm-1.28-3h-.08c-.22,0-.27.12-.29.21-.1.51.75,1.73,1.46,2.3a4.05,4.05,0,0,0-.69-2.36.58.58,0,0,0-.45-.15Z" transform="translate(-56.11 -46.55)"/><path class="cls-3" d="M322.92,411.28a2.76,2.76,0,0,1-1.81-.46,1,1,0,0,1-.33-.86.58.58,0,0,1,.3-.47c.93-.52,3.91,1,4.25,1.19a.2.2,0,0,1,.09.19.17.17,0,0,1-.14.14A12.55,12.55,0,0,1,322.92,411.28Zm-1.33-1.55a.64.64,0,0,0-.33.07.21.21,0,0,0-.12.19.65.65,0,0,0,.2.57c.46.41,1.69.48,3.35.2a9.77,9.77,0,0,0-3.1-1Z" transform="translate(-56.11 -46.55)"/><path class="cls-3" d="M325.25,411h-.08c-.89-.4-2.66-2-2.52-2.87,0-.2.18-.45.67-.5a1.31,1.31,0,0,1,1,.31c.94.78,1.12,2.8,1.12,2.89a.17.17,0,0,1-.07.16A.17.17,0,0,1,325.25,411Zm-1.79-3h-.11c-.32,0-.34.16-.35.2-.08.51,1.12,1.78,2,2.33a4.23,4.23,0,0,0-1-2.31A.9.9,0,0,0,323.46,408Z" transform="translate(-56.11 -46.55)"/><path class="cls-12" d="M337.07,179.3c-.29,4.52-1.07,13.7,2.4,16.24,0,0-.63,4.63-8.82,5.71-9,1.17-4.89-3.91-4.89-3.91,4.77-1.82,4.16-5.45,2.86-8.77Z" transform="translate(-56.11 -46.55)"/><path class="cls-16" d="M318.44,171.31a.32.32,0,0,1-.26-.12,2.82,2.82,0,0,0-2.35-1,.36.36,0,0,1-.41-.28v0a.36.36,0,0,1,.31-.4,3.48,3.48,0,0,1,3,1.26.36.36,0,0,1-.05.51.35.35,0,0,1-.22.08Z" transform="translate(-56.11 -46.55)"/><path class="cls-17" d="M316.88,175.74a16.1,16.1,0,0,1-1.63,4.1,2.59,2.59,0,0,0,2.19.12Z" transform="translate(-56.11 -46.55)"/><path class="cls-16" d="M317.28,174.64c.08.6-.17,1.12-.56,1.18s-.78-.4-.85-1,.17-1.12.56-1.17S317.21,174,317.28,174.64Z" transform="translate(-56.11 -46.55)"/><path class="cls-16" d="M316.61,173.66l-1.49-.23S316,174.46,316.61,173.66Z" transform="translate(-56.11 -46.55)"/><polygon class="cls-12" points="277.38 364.29 269.88 364.29 269.38 346.94 276.88 346.94 277.38 364.29"/><polygon class="cls-12" points="311.43 364.29 303.93 364.29 301.52 346.94 309.02 346.94 311.43 364.29"/><path class="cls-16" d="M359.58,410H368a.59.59,0,0,1,.59.51l1,6.67a1.19,1.19,0,0,1-1.06,1.32h-.14c-2.93-.05-4.35-.22-8.05-.22-2.28,0-5.61.23-8.75.23s-3.31-3.11-2-3.39c5.87-1.26,6.8-3,8.77-4.67A1.94,1.94,0,0,1,359.58,410Z" transform="translate(-56.11 -46.55)"/><path class="cls-16" d="M325.74,410h8.41a.6.6,0,0,1,.6.51l1,6.67a1.19,1.19,0,0,1-1.06,1.32h-.14c-2.93-.05-4.35-.22-8.05-.22-2.28,0-7,.23-10.14.23s-3.31-3.11-2-3.39c5.87-1.26,8.18-3,10.16-4.67A1.94,1.94,0,0,1,325.74,410Z" transform="translate(-56.11 -46.55)"/><polygon class="cls-20" points="269.38 346.94 269.64 355.89 277.14 355.89 276.88 346.94 269.38 346.94"/><polygon class="cls-20" points="309.02 346.94 301.52 346.94 302.77 355.89 310.26 355.89 309.02 346.94"/><path class="cls-12" d="M337.17,169.94c.51,7.42.88,10.55-2.34,14.82-4.85,6.41-14.07,5.42-16.79-1.7-2.45-6.41-2.87-17.46,3.95-21.34a10.16,10.16,0,0,1,15.18,8.22Z" transform="translate(-56.11 -46.55)"/><path class="cls-16" d="M341.49,176.83c4.16,2.32,7.25-3.4,7.25-3.4s-7.46.81-6.79-3.63c.88-5.89-3.34-13.05-13.92-12.13-.59.05-1.15.12-1.7.21a5.44,5.44,0,0,0-6.58,1.52c-3,.25-7.05,3.83-4.3,8.56a4.33,4.33,0,0,1,.88-1.47c.23,2.77,2.65,7.17,5.67,7.46.65,3.79-1.87,8.18-1,12.14,1.29,5.71,10.92,7,10.92,7a4.16,4.16,0,0,1,.56-4.41c6.54,3,10.85.07,10.85.07-4.46-1.66-3.11-4.62-3.11-4.62a6.51,6.51,0,0,0,8.49-3.09A7.69,7.69,0,0,1,341.49,176.83Z" transform="translate(-56.11 -46.55)"/><path class="cls-12" d="M324.61,175.09a5.36,5.36,0,0,1-1.5,3.87c-1.32,1.37-2.94.41-3.38-1.34-.39-1.58-.17-4.19,1.55-4.91a2.44,2.44,0,0,1,3.16,1.38A2.3,2.3,0,0,1,324.61,175.09Z" transform="translate(-56.11 -46.55)"/><path class="cls-16" d="M330.84,244.22s1.9,49.36,6.42,78.34c3.64,23.42,19.81,78.14,19.81,78.14h10.22s-8.43-52.85-10.28-76c-4.68-58.59,7.47-71.17-4-83.37Z" transform="translate(-56.11 -46.55)"/><path class="cls-21" d="M339.38,259.83s-4.62-.8-7.32,8c1,16.67,2.71,38.79,5.2,54.73.55,3.55,1.39,7.83,2.42,12.52C337.73,306.92,339.38,259.83,339.38,259.83Z" transform="translate(-56.11 -46.55)"/><path class="cls-16" d="M322.87,245.26s-8.42,54.61-7.93,77.46c.51,23.77,9.22,78,9.22,78h10.13s-1.6-52.82-.71-76.16c1-25.45,11.39-82.17,11.39-82.17Z" transform="translate(-56.11 -46.55)"/><polygon class="cls-3" points="312.66 354.63 299.07 354.63 298.01 350.07 312.56 350.17 312.66 354.63"/><polygon class="cls-22" points="312.66 354.63 299.07 354.63 298.01 350.07 312.56 350.17 312.66 354.63"/><path class="cls-11" d="M352.5,195.55c3.91.38,9.85,11.49,9.85,11.49l-9.87,7.57s-8.17-7.17-7.2-11.2C346.29,199.22,348.75,195.2,352.5,195.55Z" transform="translate(-56.11 -46.55)"/><path class="cls-18" d="M352.5,195.55c3.91.38,9.85,11.49,9.85,11.49l-9.87,7.57s-8.17-7.17-7.2-11.2C346.29,199.22,348.75,195.2,352.5,195.55Z" transform="translate(-56.11 -46.55)"/><path class="cls-3" d="M349.55,200.33a10.2,10.2,0,0,0-3.06-.34,17.17,17.17,0,0,0-1.21,3.42c-1,4,7.2,11.2,7.2,11.2l.73-.56Z" transform="translate(-56.11 -46.55)"/><path class="cls-14" d="M349.55,200.33a10.2,10.2,0,0,0-3.06-.34,17.17,17.17,0,0,0-1.21,3.42c-1,4,7.2,11.2,7.2,11.2l.73-.56Z" transform="translate(-56.11 -46.55)"/><path class="cls-12" d="M319.52,211c-2.85,7.21-5.85,14.54-8.24,21.77-.16.46-.29.9-.43,1.35l-.34,1.11a1.89,1.89,0,0,0,0,1,7.5,7.5,0,0,0,2.59,3.1,42.06,42.06,0,0,0,9.69,5.19l-.9,3.68a34.67,34.67,0,0,1-12.08-3.94,12.9,12.9,0,0,1-5.39-5.46,8.38,8.38,0,0,1-.69-4.76,5.58,5.58,0,0,1,.1-.59l.1-.42.17-.76c.12-.51.24-1,.37-1.5,1-4,2.28-7.8,3.63-11.57s2.76-7.49,4.35-11.2Z" transform="translate(-56.11 -46.55)"/><path class="cls-11" d="M313.45,200.88s-3.38,1.71,9.42,44.38l30.18-3.94c-2.12-12.22-3.12-19.79-.55-45.77a91,91,0,0,0-13,0,95.81,95.81,0,0,0-13.71,1.8C320,198.64,313.45,200.88,313.45,200.88Z" transform="translate(-56.11 -46.55)"/><path class="cls-18" d="M313.45,200.88s-3.38,1.71,9.42,44.38l30.18-3.94c-2.12-12.22-3.12-19.79-.55-45.77a91,91,0,0,0-13,0,95.81,95.81,0,0,0-13.71,1.8C320,198.64,313.45,200.88,313.45,200.88Z" transform="translate(-56.11 -46.55)"/><path class="cls-3" d="M353.27,239.49,355,242c.13.2-.09.44-.43.49l-31.65,4.14c-.27,0-.52-.07-.56-.24l-.62-2.67c-.05-.18.17-.37.47-.41l30.56-4A.55.55,0,0,1,353.27,239.49Z" transform="translate(-56.11 -46.55)"/><path class="cls-22" d="M353.27,239.49,355,242c.13.2-.09.44-.43.49l-31.65,4.14c-.27,0-.52-.07-.56-.24l-.62-2.67c-.05-.18.17-.37.47-.41l30.56-4A.55.55,0,0,1,353.27,239.49Z" transform="translate(-56.11 -46.55)"/><path class="cls-16" d="M349.61,243.44l.82-.11c.16,0,.27-.12.25-.22l-.84-3.46a.3.3,0,0,0-.34-.14l-.82.1c-.17,0-.28.12-.25.23l.84,3.45C349.29,243.4,349.45,243.46,349.61,243.44Z" transform="translate(-56.11 -46.55)"/><path class="cls-16" d="M329.77,246l.82-.11c.16,0,.28-.12.25-.22l-.84-3.46a.32.32,0,0,0-.34-.15l-.82.11c-.16,0-.28.12-.25.22l.84,3.46C329.45,246,329.61,246.06,329.77,246Z" transform="translate(-56.11 -46.55)"/><path class="cls-3" d="M314.86,215.36c.83,3.86,2,8.75,3.71,14.94l.37-15.69Z" transform="translate(-56.11 -46.55)"/><path class="cls-14" d="M314.86,215.36c.83,3.86,2,8.75,3.71,14.94l.37-15.69Z" transform="translate(-56.11 -46.55)"/><path class="cls-11" d="M313.45,200.88c-3.75,1.51-7,14.34-7,14.34l12.9,6.28s6.23-15.69,3.44-18.75S317.77,199.15,313.45,200.88Z" transform="translate(-56.11 -46.55)"/><path class="cls-18" d="M313.06,200.88c-3.75,1.51-7,14.34-7,14.34L319,221.5s6.23-15.69,3.44-18.75S317.38,199.15,313.06,200.88Z" transform="translate(-56.11 -46.55)"/><polygon class="cls-3" points="279.91 354.63 266.32 354.63 265.26 350.07 280.39 350.17 279.91 354.63"/><polygon class="cls-22" points="279.91 354.63 266.32 354.63 265.26 350.07 280.39 350.17 279.91 354.63"/><path class="cls-12" d="M323,243.28l-1.09-.45a1.64,1.64,0,0,0-2.14.9,1.68,1.68,0,0,0-.1.86l.79,5.21a1.79,1.79,0,0,0,2,1.51,2.14,2.14,0,0,0,.34-.09,3.82,3.82,0,0,0,1.1-.61,3,3,0,0,0,1.08-2.48l-.11-2.16A3,3,0,0,0,323,243.28Z" transform="translate(-56.11 -46.55)"/></svg>