<svg xmlns="http://www.w3.org/2000/svg" viewBox="0 0 499.86 500"><defs><style>.cls-1{fill:#102859;}.cls-2{fill:#0c4dc1;}.cls-3{fill:#1d4182;}.cls-12,.cls-13,.cls-4,.cls-5{fill:#fff;}.cls-4{opacity:0.14;}.cls-12,.cls-4,.cls-5{isolation:isolate;}.cls-5{opacity:0.58;}.cls-6{fill:#f5f5f5;}.cls-7{fill:#263238;}.cls-8{fill:#455a64;}.cls-9{fill:#407bff;}.cls-10{opacity:0.3;}.cls-11{opacity:0.4;}.cls-12{opacity:0.5;}.cls-14{fill:#1040b2;}.cls-15{fill:#5278c6;}.cls-16{fill:#ffbe9d;}.cls-17{fill:#eb996e;}</style></defs><g id="Layer_2" data-name="Layer 2"><g id="Layer_2-2" data-name="Layer 2"><rect class="cls-1" y="0.38" width="500" height="500"/><path class="cls-2" d="M489.78,217.67v1.68c0,11.38,4.24,21.09,10.24,29.89V354.47a57,57,0,0,1-16.34,1.84c-39.73-1.51-67.4-49.43-59-63.57,5.64-9.47,27.76-4.34,45.47-2.51,10.78,1.11,19.93,1,22.7-4.39,3.76-7.3-8-17-21-30.08-13.44-13.51-28.24-30.67-28.8-52.64-1-39.09,43.64-71.51,55.91-80.42l1-.74V186C493.84,196.38,490.11,207.38,489.78,217.67Z"/><path class="cls-2" d="M87,163.27h0c-18,11-38.06,16.71-56.53,14.3A67.77,67.77,0,0,1,19,175,82.23,82.23,0,0,1,0,166.15v-40c7.62,2.14,15.62,4.32,22.87,5.36,9.57,1.38,17.82.77,22.15-4.53,12.45-15.19-7.2-69.6-45-86.39V.38H107.71c8.87,7.84,22.43,22.2,30,42a82.83,82.83,0,0,1,5.4,25.69C144.87,106.57,119.22,143.52,87,163.27Z"/><path class="cls-2" d="M120.87,500.38H0V440.89c4.84-.67,9.76-1.17,14.73-1.44,23.69-1.28,48.41,2.58,70.13,17.7a92.45,92.45,0,0,1,7.93,6.3C100.84,470.5,113,483.1,120.87,500.38Z"/><path class="cls-3" d="M283.33,267.49c2.19.38,4.45.82,6.76,1.28a121.36,121.36,0,0,1-27.43,27.09,131.57,131.57,0,0,1-37.21,18.9c1.27-16.27,11-34.16,23.78-42.84C260,264.61,270.76,265.25,283.33,267.49Z"/><path class="cls-3" d="M446.51,500.38H333.34c-7.19-5.64-14.55-11.66-22.06-17.82-40.27-33-60.5-62.37-75.29-76.77-7.3-7.12-13.28-10.58-19.69-9-11.73,2.85-14.55,20-16.63,40.85s-3.43,45.09-12.08,62.76H62.12C38.75,486.93,16.54,468.65,0,447V289.05a81.57,81.57,0,0,1,22.53-19.83,61.75,61.75,0,0,1,13-5.72c33.61-10.34,61,13.55,92.87,33.31-14.8-20.72-35.95-63.38-40.52-112.5a201.7,201.7,0,0,1-.89-21h0c.31-29.21,7.23-59.86,25.14-89a165.54,165.54,0,0,1,25.53-32,171.76,171.76,0,0,1,32.62-24.84A199.47,199.47,0,0,1,208,.38H390c12.37,3.75,21.16,8,27.35,12.52,9,6.56,12.5,13.54,13.47,19.88A28.57,28.57,0,0,1,431,39c-.41,6.27-2.57,11.35-2.59,13.88-.16,22.55-39.1,40.23-62.14,49-5.43,2.07-10,3.64-12.93,4.65C317,119,280.72,122,251.1,121.28a383.83,383.83,0,0,1,67,20.46c11,4.54,44.92,18.59,69.3,37.21,15.89,12.15,27.72,26.24,26.44,40.92-2.11,24.45-40.19,44.38-68.89,50.51-22.56,4.83-40,1.3-54.89-1.62a82.38,82.38,0,0,0,11-20.5,55.09,55.09,0,0,0,3.32-23.07c-4.53-54.67-103.75-96-144-69.7C118,183.18,145,283.38,143.88,305.72c19,9.91,39.93,16.54,64.76,12.93a108.69,108.69,0,0,0,16.81-3.89c-.52,6.66.39,13.06,3.1,18.44a26.23,26.23,0,0,0,11.18,11.3c10.19,5.62,25,6.9,42.4,6.31h0C337.5,349,418,328.05,451.44,368.43,477.43,399.82,469.67,461.87,446.51,500.38Z"/><path class="cls-1" d="M344.92,447c-5.6,4.18-41.06-58-84.14-54.18-11.06,1-17.66,5.86-24.79,12.93-7.83,7.78-16.3,18.2-32,29-1.42,1-2.85,1.92-4.31,2.84C169.34,457,130.47,466.11,92.8,463.46a169,169,0,0,1-41.23-8,204.24,204.24,0,0,1-36.83-16A168.49,168.49,0,0,1,0,430.14V222.26C7.77,206.71,14.67,191,18.94,175c3.8-14.24,5.52-28.69,3.93-43.46A102,102,0,0,0,17.09,107,116.85,116.85,0,0,0,0,76.38V.38H11.61C8.34,9.44,7,19.08,9.43,28.83,18,63.24,69.93,84.73,81.43,74,92.13,64.06,60.87,32.74,57.6.38H273.75a106.26,106.26,0,0,1-6.19,52.19c-11.79,29.81-33.84,41.29-70,60.81l-3.19,1.73c-25.39,13.76-57.55,31.68-97.64,62.27q-4.62,3.52-8.87,6.89C26.1,233.14,22.29,255.18,22.45,267a19.77,19.77,0,0,0,.08,2.18c2.4,42.41,56.81,72.69,64.26,76.71,54.68,29.57,105,15.09,150.32,14,12-.28,23.6.37,34.87,3h0a89.65,89.65,0,0,1,36.11,17.54C339.46,405.52,348.93,444,344.92,447Z"/></g><g id="Layer_3" data-name="Layer 3"><path class="cls-4" d="M429.6,186s10.68,80.64-66.71,107.89L299,330.57l-52,62.24s-34.68-27.64,24.44-109.92S371.07,224,389.78,186c0,0-27.23-77.85-6.31-67.61C383.54,118.43,419.49,133.11,429.6,186Z"/><path class="cls-4" d="M500,.38V43q-4.5,2-9.46,3.78L426.68,83.38l-33.82,40.51-15.32,18.39h0l-2.81,3.37s-15.09-12-8.4-43.83c3.45-16.44,12.67-38.07,32.83-66.08A274.06,274.06,0,0,1,417.37,12.9c4.15-4.65,8.19-8.8,12.13-12.52Z"/><path class="cls-4" d="M500,208.06V351.3a117.9,117.9,0,0,1-16-18.76,116.1,116.1,0,0,1-13.84-42.31,96.8,96.8,0,0,1,1.71-34.47,93,93,0,0,1,17.89-36.38A114.45,114.45,0,0,1,500,208.06Z"/><circle class="cls-5" cx="24.42" cy="385.77" r="21.93"/><ellipse class="cls-5" cx="57.13" cy="253.51" rx="8.17" ry="3.13"/><ellipse class="cls-5" cx="430.1" cy="35.89" rx="8.17" ry="3.13"/><ellipse class="cls-5" cx="49.26" cy="311" rx="4.06" ry="13.75" transform="translate(-205.48 125.92) rotate(-45)"/><circle class="cls-5" cx="85.21" cy="343.18" r="0.94"/><ellipse class="cls-5" cx="102.76" cy="329.88" rx="1.82" ry="0.29"/><circle class="cls-5" cx="115.72" cy="320.76" r="0.89"/><circle class="cls-5" cx="93.03" cy="327.86" r="0.84"/><path class="cls-4" d="M242.94,31.81A37.73,37.73,0,1,1,184.32.38H226.1A37.71,37.71,0,0,1,242.94,31.81Z"/></g></g><g id="Layer_1" data-name="Layer 1"><g id="freepik--background-simple--inject-241"><path class="cls-6" d="M434.26,162.08c12.27,54.89-10.87,114.51-52.76,152S281.4,368.13,225.22,365.4c-40.1-1.95-94.3-17.25-124.88-43.26S57.94,260.62,65.58,221.2c2.88-14.89,16.46-32.38,29-40.9,20-13.6,46.91-7.53,70.21-.94s50.14,12.73,70.23-.78c15.45-10.38,22.09-29.38,32.68-44.68,18-26,49.75-41.89,81.37-40.73a90.57,90.57,0,0,1,15.65,2c32.42,6.94,58.31,31.37,68.29,63Z"/></g><g id="freepik--Bench--inject-241"><rect class="cls-7" x="71.72" y="338.6" width="8.53" height="106.74"/><rect class="cls-7" x="338.79" y="338.6" width="8.53" height="106.75"/><rect class="cls-8" x="62.66" y="326.18" width="297.94" height="13.51" rx="5.94"/></g><g id="freepik--Shield--inject-241"><path class="cls-9" d="M316.4,101.5,282.55,89.35l-33.51,12c-4.28,2-8,3.23-8,7.21V128.4a75.08,75.08,0,0,0,11,39.5,68.8,68.8,0,0,0,30.84,27.24c13.7-4.45,23.93-16.32,30.18-26.46a74.9,74.9,0,0,0,11.05-39.5V111.33C324.11,105.64,321.09,102.87,316.4,101.5Z"/><g class="cls-10"><path d="M282.88,183.62a54.73,54.73,0,0,1-24.4-21.72,59.53,59.53,0,0,1-8.73-31.26V116.72c0-3.15,1.9-6.11,5.68-7.87l27.13-10.14V89.35l-33.51,12c-3.52,1.53-8,3.23-8,7.21V128.4a75.08,75.08,0,0,0,11,39.5,68.8,68.8,0,0,0,30.84,27.24Z"/></g><g class="cls-11"><path d="M282.88,195.14a41.09,41.09,0,0,0,6.65-2.85,59.41,59.41,0,0,0,14.07-11.07,74.88,74.88,0,0,0,9.79-13.15,72.18,72.18,0,0,0,10.72-39.88V111.8c0-8.16-4.21-8.76-7.73-10.3L282.55,89.35v9.36L310,109c3.78,1.77,5.68,4.72,5.68,7.88V130.8A59.3,59.3,0,0,1,307,162.05a53.32,53.32,0,0,1-24.07,21.56Z"/></g><path class="cls-12" d="M291.53,129.75v-2.68a8.79,8.79,0,0,0-17.57,0v2.73a4.93,4.93,0,0,0-4.2,4.86v15.8a4.93,4.93,0,0,0,4.92,4.91h16.4a4.91,4.91,0,0,0,4.92-4.9h0v-15.8A4.91,4.91,0,0,0,291.53,129.75Zm-6.4,16.76h-4.29l.67-3.09a2.61,2.61,0,1,1,3.61-.78,2.64,2.64,0,0,1-.78.78Zm4.51-16.78H275.85v-2.66a6.9,6.9,0,0,1,13.79,0Z"/><path class="cls-13" d="M255.23,129.56a11.2,11.2,0,0,1-.5-2.75,46,46,0,0,1-.28-6.74,34.94,34.94,0,0,1,.25-3.71,7.81,7.81,0,0,1,.75-3,3.49,3.49,0,0,1,1.48-1.49c.46-.22.75-.21.75-.17a3.82,3.82,0,0,0-1.85,1.85,8.2,8.2,0,0,0-.59,2.85c-.09,1.13-.16,2.37-.2,3.68-.07,2.61,0,5,.1,6.68A16.39,16.39,0,0,1,255.23,129.56Z"/><path class="cls-13" d="M255.75,138.2c-.16,0-.31-.81-.33-1.82s.1-1.83.26-1.84.31.82.33,1.83S255.89,138.2,255.75,138.2Z"/><path class="cls-9" d="M327.89,91.46a17.84,17.84,0,0,1,2.68.87,13.65,13.65,0,0,1,3,1.64,10.2,10.2,0,0,1,3.18,3.48,12.47,12.47,0,0,1,1.46,5.73v7.09c0,5.09.05,10.91,0,17.4a92,92,0,0,1-2.74,21.15,89.77,89.77,0,0,1-9.31,23,99,99,0,0,1-17.09,21.89c-7,6.69-15.64,12.61-25.73,15.75h-.18a105.31,105.31,0,0,1-10.33-5.1,95.55,95.55,0,0,1-9.87-6.57,89.28,89.28,0,0,1-17.2-17.37,90.62,90.62,0,0,1-18.19-48.32c-.32-4.15-.23-8.25-.24-12.28V102.1a23.26,23.26,0,0,1,.1-2.89,5.68,5.68,0,0,1,1.16-2.67,12.74,12.74,0,0,1,4.57-3.28c1.67-.79,3.35-1.48,5-2.21h0l44.59-15h.11l33.08,11.31,8.83,3,2.27.79.77.29s-.27-.07-.78-.24l-2.29-.75-8.86-3L282.83,76.34h.11L238.39,91.47h0c-1.64.73-3.33,1.42-5,2.21A12.35,12.35,0,0,0,229,96.84a5.18,5.18,0,0,0-1.06,2.46,21.93,21.93,0,0,0-.09,2.81v17.67c0,4-.07,8.12.25,12.24a90.89,90.89,0,0,0,35.21,65.32,94.39,94.39,0,0,0,9.81,6.53A105.39,105.39,0,0,0,283.42,209h-.17c10-3.1,18.55-9,25.55-15.62a99,99,0,0,0,17.05-21.76,90.6,90.6,0,0,0,9.31-22.83A91.84,91.84,0,0,0,338,127.73c0-6.48,0-12.31.06-17.4v-7.08a12.27,12.27,0,0,0-1.39-5.66,10.26,10.26,0,0,0-3.09-3.46,15.39,15.39,0,0,0-3-1.66c-.65-.27-1.32-.51-2-.72Z"/></g><path class="cls-3" d="M209.8,222.4h-.41a6,6,0,0,1-2.17,2,7.42,7.42,0,0,1-3.74.91,9.18,9.18,0,0,1-3.73-.79,9.54,9.54,0,0,1-3.12-2.21,10.41,10.41,0,0,1-2.13-3.42,12.52,12.52,0,0,1,0-8.78,10.27,10.27,0,0,1,2.13-3.41,9.57,9.57,0,0,1,3.12-2.22,9,9,0,0,1,3.73-.78,7.26,7.26,0,0,1,3.71.85,5.85,5.85,0,0,1,2.17,2h.41l-.41-2.9V195h6.21v29.65h-5.8Zm-4.92-2.9a5.27,5.27,0,0,0,1.88-.35,5,5,0,0,0,1.57-1,4.64,4.64,0,0,0,1.08-1.58,5.38,5.38,0,0,0,.39-2.09,5.22,5.22,0,0,0-.39-2.07,4.74,4.74,0,0,0-1.08-1.57,4.57,4.57,0,0,0-1.57-1,5.07,5.07,0,0,0-1.88-.36,4.89,4.89,0,0,0-1.89.36,4.48,4.48,0,0,0-1.57,1,4.84,4.84,0,0,0-1.08,1.57,5.05,5.05,0,0,0-.39,2.07,5.38,5.38,0,0,0,.39,2.09,4.59,4.59,0,0,0,1.08,1.58,4.78,4.78,0,0,0,1.57,1,5.07,5.07,0,0,0,1.89.35Z"/><path class="cls-3" d="M232.2,222.81h-.41a9.25,9.25,0,0,1-2.26,1.78,6.68,6.68,0,0,1-3.25.71,8.51,8.51,0,0,1-2.88-.5,7.45,7.45,0,0,1-2.36-1.41,6.49,6.49,0,0,1-1.59-2.19,6.72,6.72,0,0,1-.58-2.86,6.25,6.25,0,0,1,.62-2.79,6.31,6.31,0,0,1,1.7-2.17,7.55,7.55,0,0,1,2.54-1.41,10,10,0,0,1,3.21-.5,15.29,15.29,0,0,1,3.09.25,16.54,16.54,0,0,1,2.17.58v-.54a2.91,2.91,0,0,0-1.1-2.26,4.4,4.4,0,0,0-3-.93,6,6,0,0,0-4.63,2.2l-4.23-3a11.2,11.2,0,0,1,4-3.09,12.44,12.44,0,0,1,5.07-1c3.33,0,5.83.73,7.49,2.21s2.5,3.71,2.53,6.73v12h-6.21Zm0-6.16a11.34,11.34,0,0,0-1.88-.58,9,9,0,0,0-1.93-.21,3.78,3.78,0,0,0-2.48.68,2.15,2.15,0,0,0-.83,1.76,2.07,2.07,0,0,0,.79,1.72,3.13,3.13,0,0,0,2.07.64,4.67,4.67,0,0,0,1.84-.35,4,4,0,0,0,1.34-.93,4,4,0,0,0,.81-1.31A4.36,4.36,0,0,0,232.2,216.65Z"/><path class="cls-3" d="M242.72,195h6.21v15.07h.41l5.79-5.71h7.58v.41l-7.33,7,8.1,12.46v.42h-7.29L251,216.07l-2.06,2v6.59h-6.21Z"/><path class="cls-3" d="M269,202.45a3.88,3.88,0,0,1-3.58-2.36,3.72,3.72,0,0,1-.31-1.54,3.92,3.92,0,0,1,.31-1.51,3.88,3.88,0,0,1,2.05-2.07,3.81,3.81,0,0,1,1.53-.31,4,4,0,0,1,1.52.31,3.85,3.85,0,0,1,2.07,2.07,4.12,4.12,0,0,1,.31,1.51,4.07,4.07,0,0,1-.31,1.54,3.92,3.92,0,0,1-2.07,2A4.17,4.17,0,0,1,269,202.45Zm-3.1,22.19V204.31h6.21V224.6Z"/><path class="cls-14" d="M282.75,206.59h.41a5.65,5.65,0,0,1,2.18-2.05,7.2,7.2,0,0,1,3.7-.85,9.08,9.08,0,0,1,3.73.78,9.78,9.78,0,0,1,3.12,2.22A10.6,10.6,0,0,1,298,210.1a12.63,12.63,0,0,1,0,8.78,10.75,10.75,0,0,1-2.13,3.42,9.64,9.64,0,0,1-3.12,2.21,9.25,9.25,0,0,1-3.73.79,7.2,7.2,0,0,1-3.7-.85,5.82,5.82,0,0,1-2.18-2h-.41l.41,2.9v8.28H277V204.31h5.8Zm4.92,2.89a5,5,0,0,0-1.88.36,4.48,4.48,0,0,0-1.57,1,4.74,4.74,0,0,0-1.08,1.57,5.05,5.05,0,0,0-.39,2.07,5.38,5.38,0,0,0,.39,2.09,4.5,4.5,0,0,0,1.08,1.58,4.78,4.78,0,0,0,1.57,1,5.23,5.23,0,0,0,1.88.35,5.11,5.11,0,0,0,1.89-.35,5,5,0,0,0,1.57-1,4.64,4.64,0,0,0,1.08-1.58,5.38,5.38,0,0,0,.39-2.09,5.22,5.22,0,0,0-.39-2.07,4.74,4.74,0,0,0-1.08-1.57,4.57,4.57,0,0,0-1.57-1A4.92,4.92,0,0,0,287.67,209.48Z"/><path class="cls-14" d="M302.08,204.31h5.8v2.57h.41a7.15,7.15,0,0,1,2.36-2.28,6.28,6.28,0,0,1,3.4-1,6.18,6.18,0,0,1,3.31.88L315.74,210a6.14,6.14,0,0,0-1.14-.45,5.8,5.8,0,0,0-1.55-.17,4.16,4.16,0,0,0-3.54,1.62,6.81,6.81,0,0,0-1.22,4.22v9.32h-6.21Z"/><path class="cls-14" d="M331.18,222.81h-.41a9.07,9.07,0,0,1-2.26,1.78,6.68,6.68,0,0,1-3.25.71,8.5,8.5,0,0,1-2.87-.5,7,7,0,0,1-2.36-1.41,6.39,6.39,0,0,1-1.6-2.19,6.87,6.87,0,0,1-.58-2.86,6,6,0,0,1,.63-2.79,6.41,6.41,0,0,1,1.69-2.17,7.5,7.5,0,0,1,2.55-1.41,10,10,0,0,1,3.21-.5,15.19,15.19,0,0,1,3.08.25,16.54,16.54,0,0,1,2.17.58v-.54a2.87,2.87,0,0,0-1.09-2.26,4.4,4.4,0,0,0-3-.93,6,6,0,0,0-4.64,2.2l-4.22-3a11.12,11.12,0,0,1,4-3.09,12.62,12.62,0,0,1,5.08-1c3.33,0,5.83.73,7.49,2.21s2.5,3.71,2.52,6.73v12h-6.14Zm0-6.16a11.34,11.34,0,0,0-1.88-.58,8.89,8.89,0,0,0-1.92-.21,3.79,3.79,0,0,0-2.49.68,2.27,2.27,0,0,0,0,3.48,3.13,3.13,0,0,0,2.07.64,4.67,4.67,0,0,0,1.84-.35,3.9,3.9,0,0,0,2.16-2.24A4.62,4.62,0,0,0,331.18,216.65Z"/><path class="cls-14" d="M341.7,195h6.21v15.07h.41l5.8-5.71h7.58v.41l-7.33,7,8.11,12.46v.42h-7.29L350,216.07l-2.07,2v6.59h-6.21Z"/><path class="cls-14" d="M368,202.45a4,4,0,0,1-1.53-.31,3.94,3.94,0,0,1-1.22-.83,3.72,3.72,0,0,1-.83-1.22,3.57,3.57,0,0,1-.31-1.54,3.89,3.89,0,0,1,1.14-2.75,3.94,3.94,0,0,1,1.22-.83,3.81,3.81,0,0,1,1.53-.31,3.92,3.92,0,0,1,1.51.31,4,4,0,0,1,1.24.83,4.15,4.15,0,0,1,.83,1.24,3.9,3.9,0,0,1-3.58,5.41Zm-3.11,22.19V204.31h6.21V224.6Z"/><path class="cls-14" d="M419.36,212.11a20.52,20.52,0,0,1-16.57,20.14c-.36.08-.73.14-1.1.19a21.45,21.45,0,0,1-2.88.2,12.55,12.55,0,0,1-1.37,0c6.5-.09,1.08-3.45,1.86-4h0c4.69-.21,8.57-3.2,9.46-7.25a2.55,2.55,0,0,0-.52-2.48c-.53-.57-.52-.79.24-1.13a9.28,9.28,0,0,0,5.39-10.28,9.54,9.54,0,0,0-8.92-7.86c-2.3-.09-4.59.14-6,2.39h0c-.56-1.3-.23-2.65-.25-4s-.05-2.21-1.72-1.68a.66.66,0,0,1-.87-.23c-.21-.4.2-.56.41-.77.5-.51,1.19-.87,1.48-1.84a7.36,7.36,0,0,1-3.18.79c-.32,0-.7.05-.88-.28s.15-.59.35-.81c.37-.42.73-.85,1.07-1.29a20.07,20.07,0,0,1,3.47-.3,20.54,20.54,0,0,1,19.94,15.63A20.74,20.74,0,0,1,419.36,212.11Z"/><path class="cls-15" d="M399.32,228.59h0l-.41-.1h-.33c-4.06-.08-7.35-1.6-9.36-5.35-1.22-2.28-1.06-3.25.58-5.11-6.44-2-7.59-8.91-5.54-13.07a9.52,9.52,0,0,1,11-4.9,4.35,4.35,0,0,1,3.13,2.53l.22-.27.3-.34h0c-.56-1.3-.23-2.65-.25-4s-.05-2.21-1.72-1.68a.66.66,0,0,1-.87-.23c-.21-.4.2-.56.41-.77.5-.51,1.19-.87,1.48-1.84a7.36,7.36,0,0,1-3.18.79c-.32,0-.7.05-.88-.28s.15-.59.35-.81c.37-.42.73-.85,1.07-1.29-.38.06-.76.14-1.14.23a20.53,20.53,0,0,0,.47,40.11l1,.19.92.11c.27,0,.54.06.81.07C404,232.5,398.54,229.14,399.32,228.59Z"/><path class="cls-14" d="M394.83,212.63a9.22,9.22,0,0,0-6.26,0A4.79,4.79,0,0,1,394.83,212.63Z"/><path class="cls-14" d="M407.7,212.72a9.22,9.22,0,0,0-6.26,0A4.79,4.79,0,0,1,407.7,212.72Z"/><g id="freepik--Character--inject-241"><path class="cls-8" d="M158.21,268.34l2.49,47,62.56,1.43-4.63-36.52,4.78-37.32c-3.14-17.48-27.65-18.69-27.65-18.69l-19.23-.31a33.8,33.8,0,0,0-18.93,4.2s-19.52,10.63-19.35,37.64"/><path class="cls-7" d="M196,223.7a19.57,19.57,0,0,1-1.69,3.8,10.13,10.13,0,0,1-8.43,4.43,10,10,0,0,1-8.46-4.37,10.4,10.4,0,0,1-1.2-2.78,5.18,5.18,0,0,0-.33-1.08,3.65,3.65,0,0,0,.1,1.14,9.32,9.32,0,0,0,1.08,2.93,9,9,0,0,0,3.31,3.27,10.77,10.77,0,0,0,5.5,1.49,10.37,10.37,0,0,0,5.48-1.53,9.77,9.77,0,0,0,3.31-3.27,9.87,9.87,0,0,0,1.17-2.9A2.9,2.9,0,0,0,196,223.7Z"/><path class="cls-16" d="M210.65,239.43a26.63,26.63,0,0,0-10,19.71c-.48,11.94-1.22,28.52-1.66,29.35-1.37,2.56-37.56.38-41.37.11l-4.6-1.42s-8.46-7.32-10-5.12,4.44,3.61,5.6,7.93-10.86.94-11.64.41l-3.1-.88s1.84,5.9,3.41,7.77c5,6,16.49,9,16.49,9s46.87,15.23,65.8,2.66c6.19-4.11,7.24-44.4,4.9-60A12.46,12.46,0,0,0,212,238.35Z"/><path class="cls-17" d="M141.12,296.17a21.43,21.43,0,0,0-2.85-1.49,23.32,23.32,0,0,0-2.88-1.42,10.25,10.25,0,0,0,2.72,1.74A10.63,10.63,0,0,0,141.12,296.17Z"/><path class="cls-8" d="M218.41,233.8c5.77,5.52,11.36,16.6,9.29,38.77L197,271.3l.79-30.34a10.26,10.26,0,0,1,4-7.83h0A12.84,12.84,0,0,1,218.41,233.8Z"/><path class="cls-9" d="M157.13,459.93l-.82-11.63,21.77-1.69,1.39,17-1.34.19c-6,.8-30.48,3.65-34.59,2.74C139,465.53,157.13,459.93,157.13,459.93Z"/><g class="cls-10"><path class="cls-13" d="M171.56,464.05a7.65,7.65,0,0,1,2.42-4.86,7.39,7.39,0,0,1,5-2l.48,6.08Z"/></g><g class="cls-10"><path class="cls-13" d="M148.28,463s-6.34,2.37-5.45,3.38,25.75-.94,36.64-2.76l-.07-.48-29,2.51S149.55,462.93,148.28,463Z"/></g><path class="cls-7" d="M179.74,463.09l-.37.07-1.07.15-4,.48c-3.33.38-7.94.84-13,1.25s-9.74.66-13.09.81l-4,.14h-1.08a1.21,1.21,0,0,1-.38,0h.38l1.08-.07,4-.23c3.35-.19,8-.48,13.08-.89s9.71-.84,13-1.17l4-.4,1.07-.1A1.24,1.24,0,0,1,179.74,463.09Z"/><path class="cls-7" d="M150.41,466a5.66,5.66,0,0,0-2.35-3.24,2.91,2.91,0,0,1,1.68,1.25A2.85,2.85,0,0,1,150.41,466Z"/><path class="cls-7" d="M156.62,462.22a3.08,3.08,0,0,1-.75-.78c-.36-.47-.6-.9-.54-.94s.4.3.75.78S156.68,462.17,156.62,462.22Z"/><path class="cls-7" d="M158.31,461.15c0,.06-.4-.15-.8-.45s-.7-.61-.65-.67.41.15.81.46S158.41,461.09,158.31,461.15Z"/><path class="cls-7" d="M159.27,459a2.89,2.89,0,0,1-1.13.23,2.48,2.48,0,0,1-1.15,0,2.6,2.6,0,0,1,1.13-.23A2.48,2.48,0,0,1,159.27,459Z"/><path class="cls-7" d="M159.54,457.53a2.32,2.32,0,0,1-1.24.46,2.24,2.24,0,0,1-1.33-.07,8.2,8.2,0,0,1,1.29-.19A7,7,0,0,1,159.54,457.53Z"/><path class="cls-7" d="M155.74,460.38a4.38,4.38,0,0,1-1.4.1,7.85,7.85,0,0,1-1.52-.22,3.92,3.92,0,0,1-.88-.28.76.76,0,0,1-.38-.41.55.55,0,0,1,.17-.57,2.56,2.56,0,0,1,3.23.5,2.49,2.49,0,0,1,.53.9.94.94,0,0,1,.07.37,3.82,3.82,0,0,0-.73-1.14,2.51,2.51,0,0,0-1.26-.68,2.15,2.15,0,0,0-1.66.24c-.21.18-.1.44.16.56a4.56,4.56,0,0,0,.81.28,10.79,10.79,0,0,0,1.47.26C155.2,460.37,155.73,460.33,155.74,460.38Z"/><path class="cls-7" d="M155.41,460.47a1.42,1.42,0,0,1-.24-1,2.48,2.48,0,0,1,.3-1.06,1.43,1.43,0,0,1,1.11-.8.55.55,0,0,1,.49.59v0a1.47,1.47,0,0,1-.18.64,3.92,3.92,0,0,1-.6.9c-.4.47-.74.66-.76.63s.26-.27.61-.74a4.75,4.75,0,0,0,.53-.89c.16-.31.25-.85-.1-.89s-.68.37-.88.67a2.44,2.44,0,0,0-.32.94A4.7,4.7,0,0,0,155.41,460.47Z"/><path class="cls-7" d="M178.83,457.16a9.22,9.22,0,0,0-1.6.19,6.85,6.85,0,0,0-5.35,5c-.26,1-.24,1.59-.29,1.59a1.09,1.09,0,0,1,0-.44,6.06,6.06,0,0,1,.15-1.2,6.64,6.64,0,0,1,5.49-5.13,6,6,0,0,1,1.2-.06A1.75,1.75,0,0,1,178.83,457.16Z"/><path class="cls-7" d="M175.86,448.28a33.32,33.32,0,0,1,.54,4.46,37.29,37.29,0,0,1,.28,4.48,36.94,36.94,0,0,1-.54-4.46A39.47,39.47,0,0,1,175.86,448.28Z"/><path class="cls-7" d="M168.66,462.14a17.72,17.72,0,0,1-6.36.56c0-.08,1.43-.1,3.18-.26S168.64,462.07,168.66,462.14Z"/><path class="cls-7" d="M172.92,461.8c.06.05-.09.31-.21.65s-.17.64-.25.64-.14-.34,0-.73S172.87,461.76,172.92,461.8Z"/><path class="cls-7" d="M174.41,459.68c.05,0-.07.28-.28.53s-.42.4-.47.36.06-.29.27-.53S174.32,459.63,174.41,459.68Z"/><path class="cls-7" d="M176.61,458.58c0,.08-.3.1-.61.24s-.53.32-.59.28.09-.36.48-.53S176.62,458.51,176.61,458.58Z"/><path class="cls-7" d="M178.21,458c0,.07-.08.19-.26.27s-.34.1-.37,0,.08-.19.26-.27S178.18,457.93,178.21,458Z"/><path class="cls-9" d="M90.21,460.48l.29-11.65,21.84.41-.25,17.05-1.36.07c-6,.22-30.68.69-34.69-.6C71.58,464.31,90.21,460.48,90.21,460.48Z"/><g class="cls-10"><path class="cls-13" d="M104.17,465.93a7.68,7.68,0,0,1,2.88-4.6,7.4,7.4,0,0,1,5.13-1.49l-.11,6.1Z"/></g><g class="cls-10"><path class="cls-13" d="M81.1,462.68s-6.54,1.75-5.75,2.84,25.72,1.54,36.74.77v-.48L83,465.52S82.41,462.75,81.1,462.68Z"/></g><path class="cls-7" d="M112.41,465.8H112l-1.08.05-4,.1c-3.36.06-8,.08-13.11,0s-9.75-.27-13.1-.45l-4-.24-1.07-.08h1.08l4,.15c3.35.13,8,.28,13.1.37s9.74.1,13.1.09h5A1.86,1.86,0,0,1,112.41,465.8Z"/><path class="cls-7" d="M83,465.86a8.52,8.52,0,0,0-.71-1.9,8.2,8.2,0,0,0-1.33-1.55,3.51,3.51,0,0,1,2,3.45Z"/><path class="cls-7" d="M89.48,462.71a2.82,2.82,0,0,1-.67-.85c-.31-.51-.51-.95-.45-1s.36.35.67.85S89.54,462.67,89.48,462.71Z"/><path class="cls-7" d="M91.26,461.81a2,2,0,0,1-.76-.53c-.37-.35-.63-.67-.58-.72s.39.18.76.53S91.31,461.76,91.26,461.81Z"/><path class="cls-7" d="M92.41,459.77a2.44,2.44,0,0,1-1.14.12,2.35,2.35,0,0,1-1.14-.14,5.16,5.16,0,0,1,2.28,0Z"/><path class="cls-7" d="M92.83,458.32a2.14,2.14,0,0,1-1.28.35,2.21,2.21,0,0,1-1.31-.2,7.09,7.09,0,0,1,1.3-.07A8,8,0,0,1,92.83,458.32Z"/><path class="cls-7" d="M88.77,460.79a4.11,4.11,0,0,1-1.4,0,7.89,7.89,0,0,1-1.49-.36,4,4,0,0,1-.85-.37.83.83,0,0,1-.34-.44.58.58,0,0,1,.23-.55,2.6,2.6,0,0,1,3.61,1.75.81.81,0,0,1,0,.38,4.33,4.33,0,0,0-.62-1.21,2.5,2.5,0,0,0-1.19-.8,2.2,2.2,0,0,0-1.67.08c-.23.17-.14.43.1.58a4.54,4.54,0,0,0,.78.35,10.24,10.24,0,0,0,1.44.4C88.24,460.74,88.77,460.75,88.77,460.79Z"/><path class="cls-7" d="M88.41,460.86a1.45,1.45,0,0,1-.15-1,2.44,2.44,0,0,1,.41-1,1.41,1.41,0,0,1,1.18-.69.56.56,0,0,1,.42.65,1.57,1.57,0,0,1-.25.63,4.49,4.49,0,0,1-.68.83,2.31,2.31,0,0,1-.81.56s.28-.25.68-.69a4.87,4.87,0,0,0,.6-.83c.2-.29.34-.82,0-.89s-.72.3-.94.58a2.63,2.63,0,0,0-.41.9A6,6,0,0,0,88.41,460.86Z"/><path class="cls-7" d="M112.07,459.82c0,.05-.63-.07-1.61,0a6.87,6.87,0,0,0-5.81,4.46c-.35.93-.39,1.56-.44,1.55a1.09,1.09,0,0,1,0-.44,6.6,6.6,0,0,1,6.26-5.75,4.82,4.82,0,0,1,1.2,0A1,1,0,0,1,112.07,459.82Z"/><path class="cls-7" d="M110,450.69a39.54,39.54,0,0,1,.11,4.49,35.25,35.25,0,0,1-.16,4.48,39.54,39.54,0,0,1-.11-4.49A41.83,41.83,0,0,1,110,450.69Z"/><path class="cls-7" d="M101.47,463.79a18.05,18.05,0,0,1-6.39-.05,27.5,27.5,0,0,1,3.19.05C100,463.84,101.46,463.72,101.47,463.79Z"/><path class="cls-7" d="M105.75,463.87a5.34,5.34,0,0,1-.28.62c-.15.32-.23.61-.31.61s-.11-.35.07-.72S105.7,463.81,105.75,463.87Z"/><path class="cls-7" d="M107.41,461.93c.06.05-.09.28-.32.5s-.46.37-.51.31.1-.27.33-.5S107.34,461.84,107.41,461.93Z"/><path class="cls-7" d="M109.72,461c0,.08-.31.07-.63.18s-.56.27-.61.22.13-.35.53-.48S109.74,460.93,109.72,461Z"/><path class="cls-7" d="M111.41,460.61c0,.07-.1.18-.28.25s-.36.06-.38,0,.1-.17.28-.24S111.34,460.54,111.41,460.61Z"/><path class="cls-7" d="M109.41,314l74.89-.94-15.65,35.21-47.9.19-4.61,107.87H86.88L89.67,336a22.74,22.74,0,0,1,19.75-22Z"/><path class="cls-8" d="M117.11,448c0-.16-6.79-.29-15.17-.29s-15.16.13-15.16.29,6.79.3,15.16.3S117.11,448.18,117.11,448Z"/><path class="cls-7" d="M180.59,351.14l2.11,103.59-33.85,1.66s-5.39-101.49-2.7-130.29c1.84-19.71,77.06-11.24,77.06-11.24,1.09,39.25-42.62,36.28-42.62,36.28"/><path class="cls-8" d="M182.7,446.56a5.14,5.14,0,0,0-1.3-.05l-3.55.08c-3,.1-7.13.28-11.69.51s-8.7.47-11.69.67l-3.53.28a5.22,5.22,0,0,0-1.3.18,6.41,6.41,0,0,0,1.31,0l3.55-.09c3-.09,7.13-.27,11.69-.5s8.7-.47,11.69-.68l3.53-.27A5.57,5.57,0,0,0,182.7,446.56Z"/><path class="cls-8" d="M181,342.44a22.76,22.76,0,0,0-.58,5,22,22,0,0,0,0,5,21.62,21.62,0,0,0,.58-5A20.91,20.91,0,0,0,181,342.44Z"/><path class="cls-8" d="M182.33,313.26a2.29,2.29,0,0,0-.64,0h-1.83c-1.59.05-3.9.13-6.74.29a99.94,99.94,0,0,0-10,1,29.34,29.34,0,0,0-11.55,4.15,13,13,0,0,0-2.47,2.15,8.36,8.36,0,0,0-1.62,2.78,28.33,28.33,0,0,0-1.19,5.83,98.12,98.12,0,0,0-.42,10V348a3.42,3.42,0,0,0,0,.64A2.3,2.3,0,0,0,146,348c0-.41.09-1,.13-1.83.09-1.59.14-3.89.19-6.73a99.37,99.37,0,0,1,.54-10,29.3,29.3,0,0,1,1.2-5.71,9.54,9.54,0,0,1,3.88-4.62,29.33,29.33,0,0,1,11.29-4.1c3.7-.58,7.08-.87,9.91-1.09l6.72-.47,1.82-.15A2.63,2.63,0,0,0,182.33,313.26Z"/><path class="cls-16" d="M185.54,232.49h0a10.19,10.19,0,0,1-10.13-10.23v-.06c0-3.53.1-6.59.1-6.59s-8.17-.76-8.77-8.85S166.4,180,166.4,180h0a28.19,28.19,0,0,1,28.48,1.81l1.26.85-.39,39.76A10.15,10.15,0,0,1,185.54,232.49Z"/><path class="cls-7" d="M175.27,201.78a5.28,5.28,0,0,1-1.86.15,1.4,1.4,0,0,1-.5,0,.77.77,0,0,1-.53-.43,1.83,1.83,0,0,1,.09-1.22l.69-2.34a32.17,32.17,0,0,1,2.14-5.88,33.48,33.48,0,0,1-1.54,6.07c-.26.8-.5,1.56-.74,2.32a1.66,1.66,0,0,0-.16.85c0,.16.27.21.56.22A5.49,5.49,0,0,1,175.27,201.78Z"/><path class="cls-17" d="M175.41,215.5a18.82,18.82,0,0,0,10.37-3.65s-2.14,6-10.26,5.74Z"/><path class="cls-16" d="M194,191.61c.15-.06,5.12-.71,4.65,5.16s-6.25,3.46-6.25,3.29S194,191.61,194,191.61Z"/><path class="cls-17" d="M194.41,198.14a1.43,1.43,0,0,0,.26.17,1,1,0,0,0,.76.08,2.53,2.53,0,0,0,1.35-2.17,3.29,3.29,0,0,0-.17-1.49,1.16,1.16,0,0,0-.7-.85.52.52,0,0,0-.63.23c-.09.16-.06.28-.09.29s-.12-.11-.06-.35a.72.72,0,0,1,.27-.35.77.77,0,0,1,.57-.1,1.46,1.46,0,0,1,1,1,3.4,3.4,0,0,1,.22,1.67,2.64,2.64,0,0,1-1.69,2.41,1.08,1.08,0,0,1-.93-.23A.48.48,0,0,1,194.41,198.14Z"/><path class="cls-7" d="M167,180.49a4.67,4.67,0,0,1-3.33-4.63,5.72,5.72,0,0,1,3.36-4.81,7.38,7.38,0,0,1,6,.1,6.47,6.47,0,0,1,12.77.35c.2-1.56,2-2.43,3.54-2.53a5.2,5.2,0,0,1,4.27,1.57,3.18,3.18,0,0,1,0,4.26,7.2,7.2,0,0,1,5,1.2,5.29,5.29,0,0,1,2.24,4.55,4.21,4.21,0,0,1-3.17,3.77c-.59.13-.74-.27-1.06.24a5.72,5.72,0,0,0-.23,1.7,22.39,22.39,0,0,1-.33,5.54,2.26,2.26,0,0,0-2.82,1.26,6.63,6.63,0,0,0-.32,3.39,1.49,1.49,0,0,1-2.1,0,1.43,1.43,0,0,1-.2-.23,4.36,4.36,0,0,1-.59-2.59l-.12-9.36a3.1,3.1,0,0,1-4.22-1.22,3.15,3.15,0,0,1-.39-1.34,6.18,6.18,0,0,1-8.73-.17,6.66,6.66,0,0,1-.78-1,15.13,15.13,0,0,1-3.07,2,5,5,0,0,1-3.6.31,3,3,0,0,1-2.11-2.75l.41-.35"/><polygon class="cls-9" points="195.95 314.48 116.01 314.48 102.83 263.43 169.53 263.43 180.09 311.15 195.95 311.53 195.95 314.48"/><path class="cls-7" d="M172,192.29c.08.11-.66.69-1.76.71s-1.87-.51-1.79-.62.82.13,1.78.1S171.88,192.16,172,192.29Z"/><path class="cls-7" d="M169.07,192.83a1,1,0,0,0,2.07,0"/><path class="cls-7" d="M183.2,192.36c.09.11-.65.69-1.76.71s-1.87-.51-1.79-.62.83.13,1.78.1S183.13,192.23,183.2,192.36Z"/><path class="cls-7" d="M180.33,192.93a1,1,0,0,0,2.06,0"/><path class="cls-7" d="M183.93,189.73c-.08.43-1.24.59-2.61.61s-2.54-.12-2.62-.55,1.07-1,2.6-1S184,189.31,183.93,189.73Z"/><path class="cls-7" d="M172.32,190.38c-.07.43-1.23.6-2.6.62s-2.54-.13-2.63-.56,1.08-1,2.61-1S172.41,189.93,172.32,190.38Z"/><path class="cls-8" d="M201.54,194.64a5.51,5.51,0,0,1-5.51,5.51h0c-3,0-4.1-2.46-4.1-5.51s1.06-5.5,4.1-5.5A5.51,5.51,0,0,1,201.54,194.64Z"/><path class="cls-8" d="M195.56,190.44s4.26-20.44-9.74-19.64l-.67-1.28s8.48-2,11.58,4.6c2.42,5.14.85,16.1.85,16.1Z"/><path class="cls-7" d="M196.73,200.15a2.58,2.58,0,0,1-1.84-.67,6.29,6.29,0,0,1-2.38-4.08,7.36,7.36,0,0,1,1-4.63c.71-1.07,1.6-1.21,1.59-1.14a4.07,4.07,0,0,0-1.28,1.33,7.85,7.85,0,0,0-.77,4.37,6.41,6.41,0,0,0,2.09,3.86A8.62,8.62,0,0,0,196.73,200.15Z"/><path class="cls-7" d="M175.62,203.93c.08.12-.07.37-.39.46s-.59,0-.57-.19.21-.25.43-.31S175.54,203.77,175.62,203.93Z"/><circle class="cls-7" cx="153.98" cy="204.94" r="2.37"/><path class="cls-7" d="M156,204.15a17.49,17.49,0,0,1-3.08-4.57,39.61,39.61,0,0,1-2.42-4.94,23.63,23.63,0,0,1,2.9,4.69C154.8,202,156.12,204.06,156,204.15Z"/><path class="cls-7" d="M154.87,192c.13.05-.38,1.28-1.71,2.13a3.34,3.34,0,0,1-2.64.68c0-.15,1.17-.33,2.36-1.11S154.74,191.93,154.87,192Z"/><path class="cls-7" d="M155.9,194.26c.13,0-.32,1.28-1.67,2a2.8,2.8,0,0,1-2.6.33,13.67,13.67,0,0,0,2.34-.78C155.17,195.18,155.76,194.19,155.9,194.26Z"/><path class="cls-7" d="M141.69,203.56a1.5,1.5,0,1,1-.27-2.1h0A1.49,1.49,0,0,1,141.69,203.56Z"/><path class="cls-7" d="M141.82,203a8.79,8.79,0,0,1,.13-3.5,15.27,15.27,0,0,1,.79-3.4,10.2,10.2,0,0,1-.27,3.48A19.85,19.85,0,0,1,141.82,203Z"/><path class="cls-7" d="M147.29,197.84A4.12,4.12,0,0,1,143,197c-.34-.37-.4-.71-.34-.73s.23.21.59.46a5,5,0,0,0,1.54.73C146.12,197.79,147.27,197.68,147.29,197.84Z"/><path class="cls-7" d="M146.24,205.28a1.5,1.5,0,1,1-.28-2.11,1.49,1.49,0,0,1,.28,2.11Z"/><path class="cls-7" d="M146.41,204.75a8.43,8.43,0,0,1,.13-3.5,14.82,14.82,0,0,1,.79-3.41,10,10,0,0,1-.28,3.49A18.92,18.92,0,0,1,146.41,204.75Z"/><path class="cls-7" d="M147.16,198.86a3,3,0,0,1-2.45.22c-1.39-.33-2.2-1.21-2.1-1.3s1,.5,2.22.79S147.13,198.71,147.16,198.86Z"/><path class="cls-7" d="M227.66,272.57a2.44,2.44,0,0,1-.54,0h-1.53l-5.65-.21c-4.77-.2-11.35-.51-18.62-.89l-3.73-.19h-.25V271c0-6.36.06-12,.08-16.12,0-2,.06-3.59.08-4.78v-1.29a3.44,3.44,0,0,1,.05-.45,1.16,1.16,0,0,1,0,.45,12.69,12.69,0,0,0,.05,1.29c0,1.19,0,2.8.07,4.78,0,4.13.06,9.76.09,16.12l-.24-.26,3.72.19c7.27.38,13.86.75,18.62,1l5.64.38,1.53.13A1.85,1.85,0,0,1,227.66,272.57Z"/><path class="cls-7" d="M213.41,228.93a18.72,18.72,0,0,0-3.59-.11,12.72,12.72,0,0,0-7.6,3.64,15.18,15.18,0,0,0-3.91,7.56c-.44,2.18-.35,3.59-.45,3.58a3.74,3.74,0,0,1-.11-1,15,15,0,0,1,4.1-10.53,12.45,12.45,0,0,1,7.94-3.65,10,10,0,0,1,2.68.18A2.85,2.85,0,0,1,213.41,228.93Z"/><path class="cls-7" d="M158.19,244.45a15.75,15.75,0,0,1,.18,2.91c0,1.8.06,4.33,0,7.1-.06,2.62-.11,5-.16,6.94V261c0-2-.1-4.32-.15-7s0-5,0-6.79A15.41,15.41,0,0,1,158.19,244.45Z"/><path class="cls-6" d="M142.78,288.93a4.53,4.53,0,1,1-4.54-4.52h0A4.52,4.52,0,0,1,142.78,288.93Z"/></g></g></svg>