<?xml version="1.0" encoding="utf-8"?>
<!-- Generator: Adobe Illustrator 25.0.1, SVG Export Plug-In . SVG Version: 6.00 Build 0)  -->
<svg version="1.1" xmlns="http://www.w3.org/2000/svg" xmlns:xlink="http://www.w3.org/1999/xlink" x="0px" y="0px"
	 viewBox="0 0 1025 1034.3" style="enable-background:new 0 0 1025 1034.3;" xml:space="preserve">
<style type="text/css">
	.st0{fill:#071E33;}
	.st1{fill:#46677C;}
	.st2{fill:#1A3447;}
	.st3{opacity:0.5;fill:#FFFFFF;enable-background:new    ;}
	.st4{fill:#FFFFFF;}
</style>
<g id="Layer_1">
</g>
<g id="Layer_2">
	<g>
		<g>
			<path class="st0" d="M211.8,10.6h47.1c28.3,0,49.1,12,49.1,36.1c0,11.3-4.4,20.6-12,27.2c10.8,6.8,17.8,17.3,17.8,31.4
				c0,26.6-22.3,41.1-50.7,41.1h-51.4L211.8,10.6L211.8,10.6z M259,62.1c9.9,0,14.6-3.9,14.6-11.1c0-7.2-4.9-11.1-14.6-11.1h-12.6
				v22.1H259z M263.2,117.2c11.1,0,15.5-5.2,15.5-12.8c0-7.2-4.4-12.6-15.5-12.6h-16.9v25.4H263.2z"/>
			<path class="st0" d="M324.6,95.3c0-28.9,23.7-51.4,52.6-51.4c29,0,52.6,22.5,52.6,51.4s-23.7,51.4-52.6,51.4
				C348.3,146.7,324.6,124.2,324.6,95.3z M377.2,116.7c11.8,0,21.3-9.5,21.3-21.3s-9.5-21.6-21.3-21.6c-11.8,0-21.3,9.7-21.3,21.6
				C355.8,107.2,365.3,116.7,377.2,116.7z"/>
			<path class="st0" d="M443.4,0h31.1v144.4h-31.1L443.4,0L443.4,0z"/>
			<path class="st0" d="M488,95.3c0-27.8,19.2-51.4,49.1-51.4c10.7,0,19.8,3.3,27.2,8.7V46h31.1v98.4h-31.1V138
				c-7.4,5.4-16.5,8.7-27.2,8.7C507.2,146.7,488,122.9,488,95.3z M540.6,116.7c11.8,0,21.3-9.5,21.3-21.3s-9.5-21.6-21.3-21.6
				s-21.3,9.7-21.3,21.6C519.3,107.2,528.8,116.7,540.6,116.7z"/>
			<path class="st0" d="M608.9,95.3c0-27.8,19.2-51.4,49.1-51.4c10.7,0,19.8,3.3,27.2,8.7V0h31.1v144.4h-31.1v-6.4
				c-7.4,5.4-16.5,8.7-27.2,8.7C628.1,146.7,608.9,122.9,608.9,95.3z M661.5,116.7c11.8,0,21.3-9.5,21.3-21.3s-9.5-21.6-21.3-21.6
				s-21.6,9.7-21.6,21.6C639.9,107.2,649.7,116.7,661.5,116.7z"/>
			<path class="st0" d="M729.8,95.3c0-27.8,19.2-51.4,49.1-51.4c10.7,0,19.8,3.3,27.2,8.7V46h31.1v98.4h-31.1V138
				c-7.4,5.4-16.5,8.7-27.2,8.7C749,146.7,729.8,122.9,729.8,95.3z M782.4,116.7c11.8,0,21.3-9.5,21.3-21.3s-9.5-21.6-21.3-21.6
				c-11.8,0-21.3,9.7-21.3,21.6C761,107.2,770.6,116.7,782.4,116.7z"/>
			<path class="st0" d="M847.8,118.4l30.9-5.6c0,4.4,4.1,9.7,13.4,9.7c5.4,0,9.1-2.5,9.1-6.6c0-4.3-3.1-5.1-19-8.5
				c-16.1-3.5-29.7-10.5-29.7-30.9c0-21.6,19-32.6,37.1-32.6c18.5,0,33.4,8.7,37.5,24.7l-26.4,6.2c-0.8-2.7-3.5-6.6-10.3-6.6
				c-4.9,0-8.5,2.3-8.5,6c0,4.6,4.1,5.6,16.5,8.5c15.5,3.7,34,8.3,34,30.6c0,23.9-19.8,33.4-41.7,33.4
				C868.6,146.7,850.5,138.6,847.8,118.4z"/>
			<g>
				<path class="st0" d="M92.9,85.1c0-29.1,23.7-51.4,52.6-51.4c28.7,0,57.6,24.1,52.6,61.7h-70c3.1,6,9.3,11.3,20,11.3
					c9.7,0,16.1-4.3,19.2-8.3l27,12.4c-7.7,14.7-24.4,25.8-46.2,25.8C114,136.5,92.9,113.9,92.9,85.1z M163.7,74.8
					c-3.1-6.6-9.5-11.3-18.2-11.3c-8.2,0-13.9,5.1-17,11.3H163.7z"/>
				<g>
					
						<rect x="117.6" y="27.1" transform="matrix(0.9513 -0.3083 0.3083 0.9513 -4.8151 41.7959)" class="st0" width="24.5" height="18.1"/>
					
						<rect x="149.3" y="124.9" transform="matrix(0.9513 -0.3083 0.3083 0.9513 -33.422 56.3269)" class="st0" width="24.5" height="18.1"/>
				</g>
			</g>
		</g>
		<g>
			<path class="st1" d="M716.1,380.6L511.2,307l-202.9,72.7c-25.9,12.1-48.4,19.6-48.4,43.7v120.1c-0.4,84.4,22.6,167.2,66.6,239.2
				c44,72.7,109.1,130.3,186.7,164.9c82.9-26.9,144.9-98.8,182.7-160.2c44.1-72,67.3-154.8,66.9-239.2V440.1
				C762.8,405.7,744.5,388.9,716.1,380.6z"/>
			<g>
				<path class="st2" d="M513.2,877.8c-61.5-27.8-113-73.6-147.7-131.5c-34.8-57-53.1-122.5-52.9-189.3v-84.3
					c0-19.1,11.5-37,34.4-47.6l164.3-61.4V307l-202.9,72.7c-21.3,9.3-48.4,19.6-48.4,43.7v120.1c-0.4,84.4,22.6,167.2,66.6,239.2
					c44,72.7,109.1,130.3,186.7,164.9L513.2,877.8z"/>
			</g>
			<g>
				<path class="st0" d="M513.2,947.6c13.9-4.6,27.4-10.3,40.3-17.3c31.6-17.9,60.3-40.5,85.2-67c22.6-24.3,42.5-51,59.3-79.6
					c44.7-72.5,67.2-156.4,64.9-241.5V443c0-49.4-25.5-53-46.8-62.4L511.2,307v56.7L677.4,426c22.9,10.7,34.4,28.6,34.4,47.7V558
					c0.3,66.8-18,132.3-52.9,189.2c-33.9,57.5-84.8,103.1-145.7,130.5V947.6z"/>
			</g>
			<path class="st3" d="M565.6,551.6v-16.2c-1-29.4-25.6-52.4-55-51.4c-28,0.9-50.5,23.4-51.4,51.4V552
				c-14.6,2.2-25.4,14.7-25.4,29.4V677c0.1,16.4,13.4,29.7,29.8,29.7h99.3c16.4,0,29.8-13.2,29.8-29.7c0,0,0,0,0,0l0,0v-95.7
				C592.7,566,580.9,553,565.6,551.6z M526.8,653.1h-26l4.1-18.7c-7.3-4.7-9.4-14.5-4.7-21.8c4.7-7.3,14.5-9.4,21.8-4.7
				c7.3,4.7,9.4,14.5,4.7,21.8c-1.2,1.9-2.8,3.5-4.7,4.7L526.8,653.1z M554.1,551.5h-83.5v-16.1c0.9-23.1,20.3-41,43.3-40.2
				c21.8,0.8,39.3,18.3,40.2,40.2V551.5z"/>
			<path class="st4" d="M345.8,550.5c-1.7-5.4-2.7-11-3-16.7c-1.6-13.5-2.1-27.2-1.7-40.8c0.1-7.5,0.6-15,1.5-22.5
				c0.3-6.3,1.8-12.5,4.5-18.2c2-3.9,5.1-7,9-9c2.8-1.3,4.5-1.3,4.5-1c-4.9,2.3-8.9,6.3-11.2,11.2c-2.2,5.5-3.4,11.3-3.6,17.3
				c-0.5,6.8-1,14.3-1.2,22.3c-0.4,15.8,0,30.3,0.6,40.4C345.9,539.2,346.1,544.8,345.8,550.5z"/>
			<path class="st4" d="M348.9,602.8c-1,0-1.9-4.9-2-11s0.6-11.1,1.6-11.1c1-0.1,1.9,5,2,11.1C350.6,597.8,349.8,602.8,348.9,602.8z
				"/>
			<path class="st0" d="M785.7,319.8c5.5,1.3,11,3.1,16.2,5.3c6.4,2.5,12.5,5.9,18.2,9.9c8,5.4,14.6,12.7,19.3,21.1
				c5.7,10.7,8.7,22.6,8.8,34.7v42.9c0,30.8,0.3,66.1,0,105.4c-0.5,43.2-6.1,86.2-16.6,128.1c-12.3,48.8-31.2,95.7-56.4,139.3
				c-28.1,48.8-62.9,93.4-103.5,132.5c-42.4,40.5-94.7,76.3-155.8,95.4h-1.1c-21.4-9.1-42.3-19.5-62.5-30.9
				c-20.7-12-40.7-25.3-59.8-39.8c-39.4-30.1-74.5-65.5-104.2-105.2C224.1,773.7,185.8,672,178.2,565.9c-1.9-25.1-1.4-50-1.5-74.4
				V384.2c-0.2-5.8,0-11.7,0.6-17.5c0.9-5.9,3.3-11.5,7-16.2c7.6-8.6,17.1-15.4,27.7-19.9c10.1-4.8,20.3-9,30.3-13.4l0,0l270-90.8
				h0.7L713.3,295l53.5,18.2l13.7,4.8l4.7,1.8c0,0-1.6-0.4-4.7-1.5l-13.7-4.5L713,295.5l-200.2-67.3h0.7l-269.7,91.6l0,0
				c-9.9,4.4-20.2,8.6-30.3,13.4c-10.2,4.3-19.3,10.8-26.7,19.1c-3.4,4.3-5.6,9.5-6.4,14.9c-0.5,5.7-0.7,11.3-0.5,17v107
				c0,24.2-0.4,49.2,1.5,74.1C189,670.8,227.1,771.8,291,856c29.6,39.4,64.4,74.6,103.6,104.6c19,14.4,38.8,27.6,59.4,39.5
				c20.2,11.6,41.1,22.1,62.5,31.4h-1c60.5-18.8,112.3-54.5,154.7-94.6c40.4-38.9,75.1-83.2,103.2-131.7c25-43.3,44-89.8,56.4-138.2
				c10.5-41.7,16.2-84.5,16.9-127.5c0-39.2,0-74.5,0.4-105.4v-42.9c0-11.9-2.9-23.7-8.4-34.3c-4.6-8.3-11-15.5-18.7-20.9
				c-5.7-4-11.8-7.4-18.2-10.1c-3.9-1.6-8-3.1-12.1-4.4L785.7,319.8z"/>
		</g>
	</g>
</g>
</svg>
