<svg xmlns="http://www.w3.org/2000/svg" viewBox="0 0 839.3 1034.26"><defs><style>.cls-1{fill:#071e33;}.cls-2{fill:#46677c;}.cls-3{fill:#1a3447;}.cls-4,.cls-5{fill:#fff;}.cls-4{opacity:0.5;isolation:isolate;}</style></defs><g id="Layer_2" data-name="Layer 2"><path class="cls-1" d="M211.81,10.64h47.13c28.33,0,49.11,12.05,49.11,36.07,0,11.27-4.44,20.57-12.05,27.19,10.85,6.77,17.83,17.26,17.83,31.42,0,26.56-22.34,41.15-50.66,41.15H211.74V10.64ZM259,62.07c9.87,0,14.59-3.88,14.59-11.06S268.74,40,259,40H246.4V62.07Zm4.23,55.16c11.06,0,15.5-5.21,15.5-12.82,0-7.19-4.44-12.61-15.5-12.61H246.33v25.43Z" transform="translate(-92.87)"/><path class="cls-1" d="M324.6,95.32c0-28.89,23.68-51.43,52.63-51.43s52.63,22.54,52.63,51.43-23.67,51.43-52.63,51.43S324.6,124.2,324.6,95.32Zm52.56,21.35a21.46,21.46,0,1,0-21.35-21.35A21.29,21.29,0,0,0,377.16,116.67Z" transform="translate(-92.87)"/><path class="cls-1" d="M443.38,0h31.07V144.35H443.38V0Z" transform="translate(-92.87)"/><path class="cls-1" d="M488,95.32c0-27.76,19.23-51.43,49.1-51.43a45.1,45.1,0,0,1,27.2,8.74V46h31.07v98.42H564.28V138a45.1,45.1,0,0,1-27.2,8.74C507.21,146.75,488,122.87,488,95.32Zm52.63,21.35a21.46,21.46,0,1,0-21.35-21.35A21.29,21.29,0,0,0,540.61,116.67Z" transform="translate(-92.87)"/><path class="cls-1" d="M608.87,95.32c0-27.76,19.24-51.43,49.11-51.43a45.07,45.07,0,0,1,27.19,8.74V0h31.07V144.35H685.17v-6.41A45.07,45.07,0,0,1,658,146.68C628.11,146.75,608.87,122.87,608.87,95.32Zm52.63,21.35a21.46,21.46,0,0,0,0-42.91,21.46,21.46,0,1,0,0,42.91Z" transform="translate(-92.87)"/><path class="cls-1" d="M729.77,95.32c0-27.76,19.23-51.43,49.1-51.43a45.05,45.05,0,0,1,27.19,8.74V46h31.07v98.42H806.06V138a45.05,45.05,0,0,1-27.19,8.74C749,146.75,729.77,122.87,729.77,95.32Zm52.62,21.35a21.46,21.46,0,1,0-21.34-21.35A21.29,21.29,0,0,0,782.39,116.67Z" transform="translate(-92.87)"/><path class="cls-1" d="M847.77,118.36l30.86-5.64c0,4.44,4.08,9.72,13.38,9.72,5.43,0,9.09-2.53,9.09-6.62,0-4.3-3.1-5.07-19-8.52-16.13-3.53-29.66-10.5-29.66-30.86,0-21.56,19-32.62,37.06-32.62,18.46,0,33.39,8.74,37.48,24.66l-26.42,6.2c-.78-2.75-3.52-6.62-10.29-6.62-4.86,0-8.52,2.32-8.52,6,0,4.65,4.08,5.64,16.48,8.53,15.5,3.66,34,8.31,34,30.64,0,23.89-19.8,33.4-41.71,33.4S850.52,138.58,847.77,118.36Z" transform="translate(-92.87)"/><path class="cls-1" d="M92.87,85.06c0-29.1,23.67-51.43,52.62-51.43,28.75,0,57.63,24.09,52.63,61.71h-70c3.1,6,9.3,11.28,20,11.28,9.72,0,16.13-4.3,19.23-8.32l27,12.4c-7.75,14.73-24.45,25.79-46.22,25.79C114,136.49,92.87,113.94,92.87,85.06Zm70.8-10.29c-3.1-6.62-9.51-11.27-18.25-11.27-8.17,0-13.95,5.07-17,11.27Z" transform="translate(-92.87)"/><rect class="cls-1" x="117.6" y="27.08" width="24.52" height="18.11" transform="translate(-97.68 41.8) rotate(-17.96)"/><rect class="cls-1" x="149.28" y="124.88" width="24.52" height="18.11" transform="translate(-126.29 56.33) rotate(-17.96)"/><path class="cls-2" d="M716.13,380.61,511.18,307,308.29,379.7c-25.91,12.11-48.43,19.55-48.43,43.65V543.47a454.56,454.56,0,0,0,66.6,239.16A416.53,416.53,0,0,0,513.18,947.56c83-26.94,144.89-98.81,182.73-160.21a454,454,0,0,0,66.9-239.15V440.12C762.81,405.67,744.53,388.9,716.13,380.61Z" transform="translate(-92.87)"/><path class="cls-3" d="M513.18,877.81A331,331,0,0,1,365.45,746.3,359.82,359.82,0,0,1,312.59,557V472.76c0-19.08,11.51-37,34.39-47.65l164.27-61.4V307L308.36,379.7C287,389,259.92,399.25,259.92,423.35V543.47a454.56,454.56,0,0,0,66.6,239.16A416.53,416.53,0,0,0,513.24,947.56Z" transform="translate(-92.87)"/><path class="cls-1" d="M513.18,947.56a248.48,248.48,0,0,0,40.27-17.26,360.94,360.94,0,0,0,85.18-67,456.39,456.39,0,0,0,59.28-79.62,437.47,437.47,0,0,0,64.9-241.46V443c0-49.41-25.49-53-46.8-62.36L511.18,307v56.67L677.44,426c22.89,10.71,34.39,28.57,34.39,47.71V558a359,359,0,0,1-52.91,189.2A322.87,322.87,0,0,1,513.18,877.75Z" transform="translate(-92.87)"/><path class="cls-4" d="M565.56,551.65V535.42a53.22,53.22,0,0,0-106.38,0V552a29.78,29.78,0,0,0-25.43,29.43V677a29.85,29.85,0,0,0,29.78,29.73h99.3a29.73,29.73,0,0,0,29.79-29.67h0V581.44A29.72,29.72,0,0,0,565.56,551.65ZM526.81,653.12h-26l4.06-18.71a15.8,15.8,0,1,1,21.84-4.71,15.56,15.56,0,0,1-4.71,4.71Zm27.3-101.59H470.62V535.42a41.78,41.78,0,0,1,83.49,0Z" transform="translate(-92.87)"/><path class="cls-5" d="M345.77,550.5a65.07,65.07,0,0,1-3-16.65,278.21,278.21,0,0,1-1.7-40.81,213.35,213.35,0,0,1,1.51-22.46,47.5,47.5,0,0,1,4.54-18.17,20.89,20.89,0,0,1,9-9c2.78-1.33,4.54-1.27,4.54-1a22.9,22.9,0,0,0-11.2,11.2,48.5,48.5,0,0,0-3.58,17.26c-.54,6.84-1,14.35-1.21,22.28-.42,15.8,0,30.27.61,40.45A98.93,98.93,0,0,1,345.77,550.5Z" transform="translate(-92.87)"/><path class="cls-5" d="M348.92,602.81c-1,0-1.88-4.9-2-11s.61-11.08,1.58-11.14,1.87,5,2,11.08S349.77,602.81,348.92,602.81Z" transform="translate(-92.87)"/><path class="cls-1" d="M785.7,319.82a110.13,110.13,0,0,1,16.23,5.26A84.28,84.28,0,0,1,820.09,335a62.39,62.39,0,0,1,19.25,21.07,75.43,75.43,0,0,1,8.84,34.7V433.7c0,30.82.31,66.06,0,105.35a556.4,556.4,0,0,1-16.59,128.06,545.31,545.31,0,0,1-56.36,139.26A601.5,601.5,0,0,1,671.75,938.9c-42.38,40.51-94.69,76.35-155.78,95.36h-1.09a635.66,635.66,0,0,1-62.55-30.88,577.15,577.15,0,0,1-59.75-39.78,540.35,540.35,0,0,1-104.2-105.16A548.68,548.68,0,0,1,178.24,565.88c-1.94-25.13-1.39-50-1.45-74.35V384.24a131.08,131.08,0,0,1,.6-17.5,34.4,34.4,0,0,1,7-16.17,77.15,77.15,0,0,1,27.67-19.85c10.11-4.79,20.28-9,30.27-13.39h0l270-90.81H513L713.29,295l53.46,18.17,13.74,4.78,4.67,1.76s-1.64-.43-4.73-1.46l-13.74-4.54-53.64-18.16L512.88,228.27h.67L243.81,319.88h0c-9.93,4.42-20.16,8.6-30.27,13.38a74.17,74.17,0,0,0-26.7,19.13,31.38,31.38,0,0,0-6.42,14.9,132.28,132.28,0,0,0-.54,17v107c0,24.22-.43,49.17,1.51,74.11A545.52,545.52,0,0,0,291,856,539.5,539.5,0,0,0,394.57,960.58a572.92,572.92,0,0,0,59.4,39.53,633,633,0,0,0,62.48,31.37h-1C576,1012.71,627.74,977,670.12,936.9A601.08,601.08,0,0,0,773.35,805.15a548.73,548.73,0,0,0,56.37-138.22,559.69,559.69,0,0,0,16.89-127.51c0-39.24,0-74.53.36-105.35V391.2a74.35,74.35,0,0,0-8.41-34.27A62.28,62.28,0,0,0,819.85,336a93.88,93.88,0,0,0-18.17-10.05c-3.93-1.63-8-3.09-12.1-4.36Z" transform="translate(-92.87)"/></g></svg>