<?xml version="1.0" encoding="utf-8"?>
<!-- Generator: Adobe Illustrator 25.0.1, SVG Export Plug-In . SVG Version: 6.00 Build 0)  -->
<svg version="1.1" id="Layer_1" xmlns="http://www.w3.org/2000/svg" xmlns:xlink="http://www.w3.org/1999/xlink" x="0px" y="0px"
	 viewBox="0 0 500 500" style="enable-background:new 0 0 500 500;" xml:space="preserve">
<style type="text/css">
	.st0{fill:#102859;}
	.st1{fill:#0C4DC1;}
	.st2{fill:#1D4182;}
	.st3{fill:#1040B2;}
	.st4{opacity:0.9;fill:#FFFFFF;enable-background:new    ;}
	.st5{fill:#F5F5F5;}
	.st6{opacity:0.2;fill:#FFFFFF;enable-background:new    ;}
	.st7{opacity:0.4;fill:#FFFFFF;enable-background:new    ;}
	.st8{opacity:0.6;fill:#FFFFFF;enable-background:new    ;}
	.st9{opacity:0.1;enable-background:new    ;}
	.st10{opacity:0.2;enable-background:new    ;}
	.st11{opacity:0.1;fill:#FFFFFF;enable-background:new    ;}
	.st12{fill:#64A7DE;}
	.st13{fill:#B0CFE4;}
	.st14{fill:#5278C6;}
	.st15{fill:#D9D9D9;}
	.st16{fill:#E8E8E8;}
	.st17{fill:#263238;}
	.st18{fill:#E4897B;}
	.st19{fill:#FFFFFF;}
	.st20{fill:#DE5753;}
	.st21{opacity:0.14;fill:#FFFFFF;enable-background:new    ;}
	.st22{opacity:0.58;fill:#FFFFFF;enable-background:new    ;}
</style>
<g>
	<g id="Layer_2_1_">
		<rect y="0" class="st0" width="500" height="500"/>
		<path class="st0" d="M503.5,353.1v1c-0.3-0.2-0.6-0.5-0.9-0.7C502.9,353.3,503.2,353.2,503.5,353.1z"/>
		<path class="st1" d="M489.8,217.3c0,0.6,0,1.1,0,1.7c0,11.4,4.2,21.1,10.2,29.9v105.2c-5.3,1.4-10.8,2-16.3,1.8
			c-39.7-1.5-67.4-49.4-59-63.6c5.6-9.5,27.8-4.3,45.5-2.5c10.8,1.1,19.9,1,22.7-4.4c3.8-7.3-8-17-21-30.1
			c-13.4-13.5-28.2-30.7-28.8-52.6c-1-39.1,43.6-71.5,55.9-80.4l1-0.7v64.1C493.8,196,490.1,207,489.8,217.3z"/>
		<path class="st1" d="M87,162.9L87,162.9c-18,11-38.1,16.7-56.5,14.3c-3.9-0.5-7.8-1.4-11.5-2.6c-6.7-2.1-13-5.1-19-8.8v-40
			c7.6,2.1,15.6,4.3,22.9,5.4c9.6,1.4,17.8,0.8,22.1-4.5C57.5,111.4,37.8,57,0,40.2V0h107.7c8.9,7.8,22.4,22.2,30,42
			c3.2,8.2,5,16.9,5.4,25.7C144.9,106.2,119.2,143.1,87,162.9z"/>
		<path class="st1" d="M120.9,500H0v-59.5c4.8-0.7,9.8-1.2,14.7-1.4c23.7-1.3,48.4,2.6,70.1,17.7c2.8,2,5.4,4.1,7.9,6.3
			C100.8,470.1,113,482.7,120.9,500z"/>
		<path class="st2" d="M283.3,267.1c2.2,0.4,4.5,0.8,6.8,1.3c-7.6,10.4-16.9,19.6-27.4,27.1c-11.3,8.2-23.9,14.6-37.2,18.9
			c1.3-16.3,11-34.2,23.8-42.8C260,264.2,270.8,264.9,283.3,267.1z"/>
		<path class="st2" d="M446.5,500H333.3c-7.2-5.6-14.5-11.7-22.1-17.8c-40.3-33-60.5-62.4-75.3-76.8c-7.3-7.1-13.3-10.6-19.7-9
			c-11.7,2.9-14.6,20-16.6,40.9s-3.4,45.1-12.1,62.8H62.1C38.8,486.5,16.5,468.3,0,446.6V288.7c6.2-7.9,13.9-14.7,22.5-19.8
			c4.1-2.4,8.5-4.3,13-5.7c33.6-10.3,61,13.5,92.9,33.3c-14.8-20.7-35.9-63.4-40.5-112.5c-0.7-7-1-14-0.9-21l0,0
			c0.3-29.2,7.2-59.9,25.1-89c7.2-11.7,15.7-22.4,25.5-32c9.8-9.6,20.8-17.9,32.6-24.8c11.9-7,24.6-12.7,37.7-17.1h182
			c12.4,3.8,21.2,8,27.4,12.5c9,6.6,12.5,13.5,13.5,19.9c0.3,2.1,0.4,4.1,0.2,6.2c-0.4,6.3-2.6,11.4-2.6,13.9
			c-0.2,22.5-39.1,40.2-62.1,49c-5.4,2.1-10,3.6-12.9,4.7c-36.4,12.5-72.7,15.5-102.3,14.8c22.9,4.8,45.4,11.6,67.1,20.5
			c11,4.5,44.9,18.6,69.3,37.2c15.9,12.1,27.7,26.2,26.4,40.9c-2.1,24.4-40.2,44.4-68.9,50.5c-22.6,4.8-40,1.3-54.9-1.6
			c4.6-6.3,8.3-13.2,11-20.5c2.7-7.4,3.9-15.2,3.3-23.1c-4.5-54.7-103.8-96-144-69.7C118,182.8,145,283,143.9,305.3
			c19,9.9,39.9,16.5,64.8,12.9c5.7-0.8,11.3-2.1,16.8-3.9c-0.5,6.7,0.4,13.1,3.1,18.4c2.5,4.8,6.4,8.8,11.2,11.3
			c10.2,5.6,25,6.9,42.4,6.3l0,0c55.4-1.9,135.9-22.8,169.3,17.6C477.4,399.4,469.7,461.5,446.5,500z"/>
		<path class="st0" d="M344.9,446.7c-5.6,4.2-41.1-58-84.1-54.2c-11.1,1-17.7,5.9-24.8,12.9c-7.8,7.8-16.3,18.2-32,29
			c-1.4,1-2.9,1.9-4.3,2.8c-30.3,19.3-69.2,28.5-106.9,25.8c-14-0.9-27.9-3.6-41.2-8c-12.8-4.1-25.1-9.5-36.8-16
			c-5.1-2.8-10-6-14.7-9.3V221.9c7.8-15.6,14.7-31.3,18.9-47.2c3.8-14.2,5.5-28.7,3.9-43.5c-0.9-8.4-2.8-16.7-5.8-24.6
			C13,95.6,7.2,85.3,0,76V0h11.6C8.3,9.1,7,18.7,9.4,28.4c8.6,34.4,60.5,55.9,72,45.2C92.1,63.7,60.9,32.4,57.6,0h216.1
			c2.3,17.6,0.2,35.6-6.2,52.2c-11.8,29.8-33.8,41.3-70,60.8l-3.2,1.7c-25.4,13.8-57.6,31.7-97.6,62.3c-3.1,2.4-6,4.7-8.9,6.9
			c-61.8,48.9-65.6,70.9-65.4,82.8c0,0.7,0,1.5,0.1,2.2c2.4,42.4,56.8,72.7,64.3,76.7c54.7,29.6,105,15.1,150.3,14
			c12-0.3,23.6,0.4,34.9,3l0,0c13.2,3,25.6,9,36.1,17.5C339.5,405.1,348.9,443.7,344.9,446.7z"/>
	</g>
	<g id="Layer_1_1_">
		<g id="freepik--background-simple--inject-291">
			<path class="st3" d="M405.5,101.6c-27.9-59.4-127.1-51.1-165.3-9.2s-50.7,68.6-85.2,53s-78.5-11.4-81,38.2s37.9,108.2,102,125.6
				s64.2,78.8,149.1,66.4c46.3-6.8,47.4-56.9,40.8-98.3S437.9,170.6,405.5,101.6z"/>
			<path class="st4" d="M405.5,101.6c-27.9-59.4-127.1-51.1-165.3-9.2s-50.7,68.6-85.2,53s-78.5-11.4-81,38.2s37.9,108.2,102,125.6
				s64.2,78.8,149.1,66.4c46.3-6.8,47.4-56.9,40.8-98.3S437.9,170.6,405.5,101.6z"/>
		</g>
		<g id="freepik--Shadow--inject-291">
			<ellipse id="freepik--path--inject-291" class="st5" cx="250" cy="416.2" rx="193.9" ry="11.3"/>
		</g>
		<g id="freepik--Stone--inject-291">
			<path class="st3" d="M114.7,364.6c-0.1-0.4-6.8-35.4-13.4-40.1c-6.4-4.5-12,1.7-12.2,2l-0.8-0.6c0.1-0.1,6.4-7.1,13.5-2.1
				c6.9,4.9,13.6,39.3,13.8,40.7L114.7,364.6z"/>
			<path class="st3" d="M112.2,367.5c0-0.2-2.5-24.4-10.3-31.8c-1.9-1.8-3.7-2.5-5.5-2.1c-4.2,1-6.7,7.7-6.8,7.8l-0.9-0.4
				c0.1-0.3,2.8-7.3,7.5-8.4c2.1-0.5,4.2,0.3,6.4,2.3c8,7.7,10.5,31.4,10.6,32.4L112.2,367.5z"/>
			<path class="st3" d="M107.5,328.4c0,0,4.5-0.9,5.4,3s-7.5,16.3-7.5,16.3s-7.6-1.5-7.6-11.5S106,326.1,107.5,328.4z"/>
			<path class="st6" d="M107.5,328.4c0,0,4.5-0.9,5.4,3s-7.5,16.3-7.5,16.3s-7.6-1.5-7.6-11.5S106,326.1,107.5,328.4z"/>
			<path class="st3" d="M95.8,335.9c0,0,1.8-2-0.6-2.5S81.8,335,83.4,346c0,0,13.2,0.1,14.2-4.3S95.8,335.9,95.8,335.9z"/>
			<path class="st6" d="M95.8,335.9c0,0,1.8-2-0.6-2.5S81.8,335,83.4,346c0,0,13.2,0.1,14.2-4.3S95.8,335.9,95.8,335.9z"/>
			<path class="st3" d="M112.8,317.1c0,0-0.5-2,1.3-1.5s8.6,5.9,3.5,12.7c0,0-9-4.7-8-8S112.8,317.1,112.8,317.1z"/>
			<path class="st6" d="M112.8,317.1c0,0-0.5-2,1.3-1.5s8.6,5.9,3.5,12.7c0,0-9-4.7-8-8S112.8,317.1,112.8,317.1z"/>
			<path class="st3" d="M279.2,371.8l-1-0.3c0.1-0.4,11.7-41.5,32.5-52.5l0.5,0.9C290.7,330.8,279.3,371.4,279.2,371.8z"/>
			<path class="st3" d="M279.4,367.2l-0.9-0.4c0.2-0.4,20.1-44,13.3-57.8l0.9-0.4C299.7,322.8,280.2,365.4,279.4,367.2z"/>
			<path class="st3" d="M278.6,370.3l-1-0.3c0.7-2.3,16.7-55.4,26.9-61.9l0.5,0.8C295.1,315.3,278.8,369.8,278.6,370.3z"/>
			<path class="st3" d="M295.3,310.7c0,0,3,0.8,3.4-1s-8.8-10.5-18-5.7c0,0,1.4,8.7,7.3,11S295.3,310.7,295.3,310.7z"/>
			<path class="st6" d="M295.3,310.7c0,0,3,0.8,3.4-1s-8.8-10.5-18-5.7c0,0,1.4,8.7,7.3,11S295.3,310.7,295.3,310.7z"/>
			<path class="st3" d="M302.3,308.5c0,0-3.1,0.3-3.2-1.6s10.5-8.8,18.7-2.5c0,0-2.9,8.3-9.1,9.6S302.3,308.5,302.3,308.5z"/>
			<path class="st6" d="M302.3,308.5c0,0-3.1,0.3-3.2-1.6s10.5-8.8,18.7-2.5c0,0-2.9,8.3-9.1,9.6S302.3,308.5,302.3,308.5z"/>
			<path class="st3" d="M312.1,316.8c0,0-1.4-2.4,1.1-2.3s12.8,4.3,9,14.7c0,0-13-2.6-13-7.2S312.1,316.8,312.1,316.8z"/>
			<path class="st6" d="M312.1,316.8c0,0-1.4-2.4,1.1-2.3s12.8,4.3,9,14.7c0,0-13-2.6-13-7.2S312.1,316.8,312.1,316.8z"/>
			<path class="st3" d="M302.4,322.7c0,0,0.6-2,1.9-0.6s4.5,9.3-3.3,12.8c0,0-5.5-8.6-3-11S302.4,322.7,302.4,322.7z"/>
			<path class="st6" d="M302.4,322.7c0,0,0.6-2,1.9-0.6s4.5,9.3-3.3,12.8c0,0-5.5-8.6-3-11S302.4,322.7,302.4,322.7z"/>
			<path class="st3" d="M91.9,323.4c0,0,1-1.8-0.9-1.8s-9.7,3.6-6.5,11.5c0,0,9.9-2.3,9.8-5.8S91.9,323.4,91.9,323.4z"/>
			<path class="st6" d="M91.9,323.4c0,0,1-1.8-0.9-1.8s-9.7,3.6-6.5,11.5c0,0,9.9-2.3,9.8-5.8S91.9,323.4,91.9,323.4z"/>
			<path class="st3" d="M267.7,391.5c0,0-6.6-0.3-7.2-13.6s11-16.9,19.9-15.2c0,0-1.3-9.5,4.5-9.1s5.4,6.7,5.4,6.7s2-13.4,9.9-13.5
				s0,15.9,0,15.9s11-3.9,15,0s-5,8.4-5,8.4s14.2,3.4,8.3,14.3c0,0,9.9,1.1,12.7,6c0,0-0.8-9.8,2.8-9.1s2.8,9.3,2.8,9.3
				s5.9-9.5,11.1-6.1s-2.4,11.3-2.4,11.3s9.9-3.5,11.5,1.1s-5.5,6.5-5.5,6.5s10.3-1.8,10.3,7c0,0,19.8-1.4,24.5,6.4h-118
				L267.7,391.5z"/>
			<path class="st7" d="M267.7,391.5c0,0-6.6-0.3-7.2-13.6s11-16.9,19.9-15.2c0,0-1.3-9.5,4.5-9.1s5.4,6.7,5.4,6.7s2-13.4,9.9-13.5
				s0,15.9,0,15.9s11-3.9,15,0s-5,8.4-5,8.4s14.2,3.4,8.3,14.3c0,0,9.9,1.1,12.7,6c0,0-0.8-9.8,2.8-9.1s2.8,9.3,2.8,9.3
				s5.9-9.5,11.1-6.1s-2.4,11.3-2.4,11.3s9.9-3.5,11.5,1.1s-5.5,6.5-5.5,6.5s10.3-1.8,10.3,7c0,0,19.8-1.4,24.5,6.4h-118
				L267.7,391.5z"/>
			<path class="st3" d="M130.1,391.5c0,0,4.9-0.3,5.4-13.6s-8.1-16.9-14.7-15.2c0,0,1-9.5-3.3-9.1s-4,6.7-4,6.7s-1.5-13.4-7.3-13.5
				s0,15.9,0,15.9s-8.1-3.9-11,0s3.7,8.4,3.7,8.4s-10.5,3.4-6.1,14.3c0,0-7.3,1.1-9.3,6c0,0,0.6-9.8-2-9.1s-2,9.3-2,9.3
				s-4.4-9.5-8.2-6.1s1.8,11.3,1.8,11.3s-7.3-3.5-8.5,1.1s4.1,6.5,4.1,6.5s-7.6-1.8-7.6,6.9c0,0-14.6-1.4-18.1,6.4h87L130.1,391.5z"
				/>
			<path class="st7" d="M130.1,391.5c0,0,4.9-0.3,5.4-13.6s-8.1-16.9-14.7-15.2c0,0,1-9.5-3.3-9.1s-4,6.7-4,6.7s-1.5-13.4-7.3-13.5
				s0,15.9,0,15.9s-8.1-3.9-11,0s3.7,8.4,3.7,8.4s-10.5,3.4-6.1,14.3c0,0-7.3,1.1-9.3,6c0,0,0.6-9.8-2-9.1s-2,9.3-2,9.3
				s-4.4-9.5-8.2-6.1s1.8,11.3,1.8,11.3s-7.3-3.5-8.5,1.1s4.1,6.5,4.1,6.5s-7.6-1.8-7.6,6.9c0,0-14.6-1.4-18.1,6.4h87L130.1,391.5z"
				/>
			<path class="st3" d="M86.6,415.5c0,0,20.2-13.1,16.4-15.3s-17.3,10.8-17.3,10.8s14.9-21.7,11.2-26.1s-13.6,17.7-13.6,17.7
				s6.7-25.2,2-28S78.8,400,78.8,400s-1.8-30.4-10.5-30s4,30,4,30S60,382.4,55.6,387.4s13.8,19,13.8,19S55.9,400,55,404.8
				s15,9.8,15,9.8s-5.1,1.5-6.3,3.2h27.2C90.9,417.7,91.3,416.4,86.6,415.5z"/>
			<path class="st8" d="M86.6,415.5c0,0,20.2-13.1,16.4-15.3s-17.3,10.8-17.3,10.8s14.9-21.7,11.2-26.1s-13.6,17.7-13.6,17.7
				s6.7-25.2,2-28S78.8,400,78.8,400s-1.8-30.4-10.5-30s4,30,4,30S60,382.4,55.6,387.4s13.8,19,13.8,19S55.9,400,55,404.8
				s15,9.8,15,9.8s-5.1,1.5-6.3,3.2h27.2C90.9,417.7,91.3,416.4,86.6,415.5z"/>
			<path class="st3" d="M96.7,417.7c0,0,23.2-85.4,27.4-88.5s28.3-12.1,28.3-12.1s58.6,9.8,67.4,8.8s37.1-6.4,41.1,0
				s20.1,44.9,20.1,44.9l22.5,9.5l14.2,37.4L96.7,417.7z"/>
			<path class="st8" d="M317.7,417.7h-221c0,0,23.1-85,27.4-88.5l0,0c1.5-1,3.1-1.8,4.7-2.5c8.4-3.9,23.6-9.5,23.6-9.5
				s58.6,9.8,67.4,8.8s37.1-6.4,41.1,0c0.9,1.4,2.3,4.2,4,7.8c6.2,13.2,16.1,37.1,16.1,37.1l22.5,9.5L317.7,417.7z"/>
			<path class="st9" d="M264.9,333.7l-8.7,8.6l-22.8-5.4l-25.7,5.4l1.6,10l-9.4,11.2l3.3-11.2L196,340c0,0-29.6,1.8-37.4,0
				c-4.9-1.1-19.5-8.3-29.7-13.4c8.4-3.9,23.6-9.5,23.6-9.5s58.6,9.8,67.3,8.8s37.1-6.4,41.1,0C261.8,327.3,263.2,330.1,264.9,333.7
				z"/>
			<path class="st9" d="M317.7,417.7h-221c0,0,23.1-85,27.4-88.5l0,0l-14.2,66.2l7.1,11l17.5-13.3l13.5,7.4l18.6-3.8l1.9-9
				l26.4-17.4l-16.6,15.3l5.8,17.5l25.4,4.4h28L249,400l-3.9-15.7l-5.8-9.1l29.5-0.1l-12.6,7.8l4.6,13.8l14.2,6.6l16.5-10.2
				l6.7,19.5L317.7,417.7z"/>
			<path class="st3" d="M288.2,417.7h36.6c0,0-7.3-11.2-10.4-9.7c-4,1.8-7-8.3-11.5-5.9c-1.6,0.9-0.8,3.5-1.8,4.6
				c-1.6,1.8-3.7,1.5-5.7,2.4C291.5,411.1,290.1,413.7,288.2,417.7z"/>
			<path class="st10" d="M288.2,417.7h36.6c0,0-7.3-11.2-10.4-9.7c-4,1.8-7-8.3-11.5-5.9c-1.6,0.9-0.8,3.5-1.8,4.6
				c-1.6,1.8-3.7,1.5-5.7,2.4C291.5,411.1,290.1,413.7,288.2,417.7z"/>
			<path class="st3" d="M320.8,414.6c0,0-2.4-14-0.8-16s2,7.6,2,7.6s5.6-20.2,9.1-20.3s-4.2,17.5-4.2,17.5s15.3-24.9,19.7-22.6
				s-16,24.4-16,24.4s11.2-9.6,13.6-6.9s-12.4,11-12.4,11s6.5-1.5,6.5,0.7S327.4,415.9,320.8,414.6z"/>
			<path class="st6" d="M320.8,414.6c0,0-2.4-14-0.8-16s2,7.6,2,7.6s5.6-20.2,9.1-20.3s-4.2,17.5-4.2,17.5s15.3-24.9,19.7-22.6
				s-16,24.4-16,24.4s11.2-9.6,13.6-6.9s-12.4,11-12.4,11s6.5-1.5,6.5,0.7S327.4,415.9,320.8,414.6z"/>
			<path class="st3" d="M318.6,412.6c0,0-11.5-2.1-12.6-3.9s6.4,0.6,6.4,0.6s-14-10-13.1-12.8s12.3,8.2,12.3,8.2s-15-18.8-11.9-21.6
				s14.4,19.3,14.4,19.3s-4.3-11.4-1.5-12.5s5,12.7,5,12.7s0.7-5.5,2.4-4.9S321.4,407.9,318.6,412.6z"/>
			<path class="st6" d="M318.6,412.6c0,0-11.5-2.1-12.6-3.9s6.4,0.6,6.4,0.6s-14-10-13.1-12.8s12.3,8.2,12.3,8.2s-15-18.8-11.9-21.6
				s14.4,19.3,14.4,19.3s-4.3-11.4-1.5-12.5s5,12.7,5,12.7s0.7-5.5,2.4-4.9S321.4,407.9,318.6,412.6z"/>
			<path class="st3" d="M317.8,411.1c0,0-11.1-11.1-10.9-14s6.6,5.6,6.6,5.6s-7.8-21.8-4.6-24.2s7.3,18.5,7.3,18.5s-2.1-32.3,3.4-33
				s1.1,32.3,1.1,32.3s4-15.8,7.9-14.9s-4.2,17.9-4.2,17.9s5-5.5,6.4-3.5S324.5,408,317.8,411.1z"/>
			<path class="st11" d="M317.8,411.1c0,0-11.1-11.1-10.9-14s6.6,5.6,6.6,5.6s-7.8-21.8-4.6-24.2s7.3,18.5,7.3,18.5
				s-2.1-32.3,3.4-33s1.1,32.3,1.1,32.3s4-15.8,7.9-14.9s-4.2,17.9-4.2,17.9s5-5.5,6.4-3.5S324.5,408,317.8,411.1z"/>
			<path class="st3" d="M304.3,417.7h29.2c0,0-5.8-8.9-8.3-7.8c-3.2,1.5-5.6-6.6-9.2-4.7c-1.3,0.7-0.6,2.8-1.4,3.7
				c-1.3,1.4-3,1.2-4.5,2C307,412.5,305.9,414.5,304.3,417.7z"/>
			<path class="st3" d="M122,417.7H85.4c0,0,7.3-11.2,10.4-9.7c4,1.8,7-8.3,11.5-5.9c1.6,0.9,0.8,3.5,1.8,4.6
				c1.6,1.8,3.7,1.5,5.7,2.4C118.7,411.1,120.1,413.7,122,417.7z"/>
			<path class="st10" d="M122,417.7H85.4c0,0,7.3-11.2,10.4-9.7c4,1.8,7-8.3,11.5-5.9c1.6,0.9,0.8,3.5,1.8,4.6
				c1.6,1.8,3.7,1.5,5.7,2.4C118.7,411.1,120.1,413.7,122,417.7z"/>
			<path class="st3" d="M89.4,414.6c0,0,2.4-14,0.7-16s-2,7.6-2,7.6s-5.5-20.2-9.1-20.2s4.2,17.5,4.2,17.5s-15.3-25-19.7-22.6
				s16,24.4,16,24.4s-11.2-9.6-13.6-6.9s12.4,11,12.4,11s-6.6-1.5-6.5,0.7S82.8,415.9,89.4,414.6z"/>
			<path class="st6" d="M89.4,414.6c0,0,2.4-14,0.7-16s-2,7.6-2,7.6s-5.5-20.2-9.1-20.2s4.2,17.5,4.2,17.5s-15.3-25-19.7-22.6
				s16,24.4,16,24.4s-11.2-9.6-13.6-6.9s12.4,11,12.4,11s-6.6-1.5-6.5,0.7S82.8,415.9,89.4,414.6z"/>
			<path class="st3" d="M100.7,415.3c0,0,8.7-7.7,8.7-9.9s-5.2,3.9-5.2,3.9s6.8-15.8,4.6-17.7s-6.3,13.5-6.3,13.5s3-23.9-1-24.7
				s-2.3,23.9-2.3,23.9s-2.2-11.9-5.2-11.4s2.3,13.5,2.3,13.5s-3.4-4.3-4.6-2.9S95.8,412.7,100.7,415.3z"/>
			<path class="st6" d="M100.7,415.3c0,0,8.7-7.7,8.7-9.9s-5.2,3.9-5.2,3.9s6.8-15.8,4.6-17.7s-6.3,13.5-6.3,13.5s3-23.9-1-24.7
				s-2.3,23.9-2.3,23.9s-2.2-11.9-5.2-11.4s2.3,13.5,2.3,13.5s-3.4-4.3-4.6-2.9S95.8,412.7,100.7,415.3z"/>
			<path class="st3" d="M105.9,417.7H76.7c0,0,5.8-8.9,8.3-7.8c3.2,1.5,5.6-6.6,9.2-4.7c1.3,0.7,0.6,2.8,1.4,3.7
				c1.3,1.4,3,1.2,4.6,2C103.3,412.5,104.4,414.5,105.9,417.7z"/>
		</g>
		<path class="st12" d="M239.3,150.2L239.3,150.2z"/>
		<path class="st13" d="M238.8,151L238.8,151z"/>
		<path class="st13" d="M239.3,150.2L239.3,150.2z"/>
		<path class="st13" d="M238.8,151L238.8,151z"/>
		<path class="st2" d="M166.3,194.1h-0.4c-0.5,0.8-1.3,1.5-2.2,2c-1.1,0.6-2.4,0.9-3.7,0.9c-1.3,0-2.6-0.3-3.7-0.8
			c-1.2-0.5-2.2-1.3-3.1-2.2c-0.9-1-1.6-2.2-2.1-3.4c-1.1-2.8-1.1-5.9,0-8.8c0.5-1.3,1.2-2.4,2.1-3.4c0.9-0.9,1.9-1.7,3.1-2.2
			c1.2-0.5,2.4-0.8,3.7-0.8c1.3,0,2.6,0.2,3.7,0.9c0.9,0.5,1.6,1.2,2.2,2.1h0.4l-0.4-2.9v-8.7h6.2v29.6h-5.8L166.3,194.1z
			 M161.4,191.2c0.6,0,1.3-0.1,1.9-0.4c0.6-0.2,1.1-0.6,1.6-1c0.5-0.4,0.8-1,1.1-1.6c0.3-0.7,0.4-1.4,0.4-2.1c0-0.7-0.1-1.4-0.4-2.1
			c-0.3-0.6-0.6-1.1-1.1-1.6c-0.5-0.4-1-0.8-1.6-1c-0.6-0.2-1.2-0.4-1.9-0.4c-0.6,0-1.3,0.1-1.9,0.4c-0.6,0.2-1.1,0.6-1.6,1
			c-0.5,0.4-0.8,1-1.1,1.6c-0.3,0.7-0.4,1.4-0.4,2.1c0,0.7,0.1,1.4,0.4,2.1c0.2,0.6,0.6,1.1,1.1,1.6c0.5,0.4,1,0.8,1.6,1
			C160.1,191.1,160.8,191.2,161.4,191.2L161.4,191.2z"/>
		<path class="st2" d="M188.7,194.5h-0.4c-0.7,0.7-1.4,1.3-2.3,1.8c-1,0.5-2.1,0.8-3.2,0.7c-1,0-2-0.2-2.9-0.5
			c-0.9-0.3-1.7-0.8-2.4-1.4c-0.7-0.6-1.2-1.4-1.6-2.2c-0.4-0.9-0.6-1.9-0.6-2.9c0-1,0.2-1.9,0.6-2.8c0.4-0.8,1-1.6,1.7-2.2
			c0.7-0.6,1.6-1.1,2.5-1.4c1-0.3,2.1-0.5,3.2-0.5c1,0,2.1,0.1,3.1,0.2c0.7,0.1,1.5,0.3,2.2,0.6v-0.5c0-0.9-0.4-1.7-1.1-2.3
			c-0.9-0.7-1.9-1-3-0.9c-1.8,0-3.5,0.8-4.6,2.2l-4.2-3c1.1-1.3,2.4-2.4,4-3.1c1.6-0.7,3.3-1,5.1-1c3.3,0,5.8,0.7,7.5,2.2
			c1.7,1.5,2.5,3.7,2.5,6.7v12h-6.2L188.7,194.5z M188.7,188.3c-0.6-0.2-1.2-0.4-1.9-0.6c-0.6-0.1-1.3-0.2-1.9-0.2
			c-0.9-0.1-1.8,0.2-2.5,0.7c-0.5,0.4-0.8,1.1-0.8,1.8c0,0.7,0.3,1.3,0.8,1.7c0.6,0.5,1.3,0.7,2.1,0.6c0.6,0,1.3-0.1,1.8-0.4
			c0.5-0.2,1-0.5,1.3-0.9c0.4-0.4,0.6-0.8,0.8-1.3C188.6,189.3,188.7,188.8,188.7,188.3z"/>
		<path class="st2" d="M199.2,166.7h6.2v15.1h0.4l5.8-5.7h7.6v0.4l-7.3,7l8.1,12.5v0.4h-7.3l-5.2-8.6l-2.1,2v6.6h-6.2L199.2,166.7z"
			/>
		<path class="st2" d="M225.6,174.1c-0.5,0-1-0.1-1.5-0.3c-0.9-0.4-1.7-1.1-2.1-2.1c-0.2-0.5-0.3-1-0.3-1.5c0-0.5,0.1-1,0.3-1.5
			c0.4-0.9,1.1-1.7,2.1-2.1c0.5-0.2,1-0.3,1.5-0.3c0.5,0,1,0.1,1.5,0.3c0.9,0.4,1.7,1.1,2.1,2.1c0.2,0.5,0.3,1,0.3,1.5
			c0,0.5-0.1,1.1-0.3,1.5c-0.4,0.9-1.1,1.7-2.1,2.1C226.6,174,226.1,174.1,225.6,174.1z M222.5,196.3V176h6.2v20.3L222.5,196.3z"/>
		<path class="st3" d="M239.3,178.3h0.4c0.5-0.9,1.3-1.6,2.2-2.1c1.1-0.6,2.4-0.9,3.7-0.9c1.3,0,2.6,0.3,3.7,0.8
			c1.2,0.5,2.2,1.3,3.1,2.2c0.9,1,1.6,2.1,2.1,3.4c1.1,2.8,1.1,5.9,0,8.8c-0.5,1.3-1.2,2.4-2.1,3.4c-0.9,0.9-1.9,1.7-3.1,2.2
			c-1.2,0.5-2.4,0.8-3.7,0.8c-1.3,0.1-2.6-0.2-3.7-0.9c-0.9-0.5-1.6-1.2-2.2-2h-0.4l0.4,2.9v8.3h-6.2V176h5.8V178.3z M244.2,181.2
			c-0.6,0-1.3,0.1-1.9,0.4c-0.6,0.2-1.1,0.6-1.6,1c-0.5,0.4-0.8,1-1.1,1.6c-0.3,0.7-0.4,1.4-0.4,2.1c0,0.7,0.1,1.4,0.4,2.1
			c0.2,0.6,0.6,1.1,1.1,1.6c0.5,0.4,1,0.8,1.6,1c0.6,0.2,1.2,0.4,1.9,0.4c0.6,0,1.3-0.1,1.9-0.4c0.6-0.2,1.1-0.6,1.6-1
			c0.5-0.4,0.8-1,1.1-1.6c0.3-0.7,0.4-1.4,0.4-2.1c0-0.7-0.1-1.4-0.4-2.1c-0.3-0.6-0.6-1.1-1.1-1.6c-0.5-0.4-1-0.8-1.6-1
			C245.5,181.3,244.8,181.2,244.2,181.2z"/>
		<path class="st3" d="M258.6,176h5.8v2.6h0.4c0.6-0.9,1.4-1.7,2.4-2.3c1-0.6,2.2-1,3.4-1c0.7,0,1.3,0.1,1.9,0.3
			c0.5,0.2,0.9,0.4,1.4,0.6l-1.6,5.5c-0.4-0.2-0.7-0.3-1.1-0.4c-0.5-0.1-1-0.2-1.5-0.2c-1.4-0.1-2.7,0.5-3.5,1.6
			c-0.9,1.2-1.3,2.7-1.2,4.2v9.3h-6.2V176z"/>
		<path class="st3" d="M287.7,194.5h-0.4c-0.6,0.7-1.4,1.3-2.3,1.8c-1,0.5-2.1,0.8-3.2,0.7c-1,0-2-0.2-2.9-0.5
			c-0.9-0.3-1.7-0.8-2.4-1.4c-0.7-0.6-1.2-1.4-1.6-2.2c-0.4-0.9-0.6-1.9-0.6-2.9c0-1,0.2-1.9,0.6-2.8c0.4-0.8,1-1.6,1.7-2.2
			c0.8-0.6,1.6-1.1,2.5-1.4c1-0.3,2.1-0.5,3.2-0.5c1,0,2.1,0.1,3.1,0.2c0.7,0.1,1.5,0.3,2.2,0.6v-0.5c0-0.9-0.4-1.7-1.1-2.3
			c-0.9-0.7-1.9-1-3-0.9c-1.8,0-3.5,0.8-4.6,2.2l-4.2-3c1.1-1.3,2.4-2.4,4-3.1c1.6-0.7,3.3-1,5.1-1c3.3,0,5.8,0.7,7.5,2.2
			c1.7,1.5,2.5,3.7,2.5,6.7v12h-6.1V194.5z M287.7,188.3c-0.6-0.2-1.2-0.4-1.9-0.6c-0.6-0.1-1.3-0.2-1.9-0.2
			c-0.9-0.1-1.8,0.2-2.5,0.7c-0.5,0.4-0.8,1.1-0.8,1.8c0,0.7,0.3,1.3,0.8,1.7c0.6,0.5,1.3,0.7,2.1,0.6c0.6,0,1.3-0.1,1.8-0.4
			c1-0.4,1.8-1.2,2.2-2.2C287.6,189.3,287.7,188.8,287.7,188.3z"/>
		<path class="st3" d="M298.2,166.7h6.2v15.1h0.4l5.8-5.7h7.6v0.4l-7.3,7l8.1,12.5v0.4h-7.3l-5.2-8.6l-2.1,2v6.6h-6.2L298.2,166.7z"
			/>
		<path class="st3" d="M324.5,174.1c-0.5,0-1-0.1-1.5-0.3c-0.5-0.2-0.9-0.5-1.2-0.8c-0.4-0.3-0.6-0.8-0.8-1.2
			c-0.2-0.5-0.3-1-0.3-1.5c0-1,0.4-2,1.1-2.8c0.4-0.3,0.8-0.6,1.2-0.8c0.5-0.2,1-0.3,1.5-0.3c0.5,0,1,0.1,1.5,0.3
			c0.5,0.2,0.9,0.5,1.2,0.8c0.4,0.4,0.6,0.8,0.8,1.2c0.2,0.5,0.3,1,0.3,1.5c0,0.5-0.1,1.1-0.3,1.5c-0.4,0.9-1.1,1.7-2.1,2.1
			C325.6,174,325.1,174.1,324.5,174.1z M321.4,196.3V176h6.2v20.3L321.4,196.3z"/>
		<path class="st3" d="M375.9,183.8c0,1.6-0.2,3.2-0.6,4.8c-1.9,7.8-8.1,13.8-16,15.3c-0.4,0.1-0.7,0.1-1.1,0.2
			c-1,0.1-1.9,0.2-2.9,0.2c-0.5,0-0.9,0-1.4-0.1c6.5-0.1,1.1-3.4,1.9-4l0,0c4.7-0.2,8.6-3.2,9.5-7.2c0.3-0.9,0.1-1.8-0.5-2.5
			c-0.5-0.6-0.5-0.8,0.2-1.1c4-1.7,6.2-6,5.4-10.3c-0.8-4.4-4.5-7.6-8.9-7.9c-2.3-0.1-4.6,0.1-6,2.4l0,0c-0.6-1.3-0.2-2.6-0.2-4
			s0-2.2-1.7-1.7c-0.3,0.2-0.7,0.1-0.9-0.2c-0.2-0.4,0.2-0.6,0.4-0.8c0.5-0.5,1.2-0.9,1.5-1.8c-1,0.5-2.1,0.8-3.2,0.8
			c-0.3,0-0.7,0.1-0.9-0.3s0.1-0.6,0.4-0.8c0.4-0.4,0.7-0.9,1.1-1.3c1.1-0.2,2.3-0.3,3.5-0.3c9.5,0,17.7,6.5,19.9,15.6
			C375.7,180.5,375.9,182.1,375.9,183.8z"/>
		<path class="st14" d="M355.8,200.3L355.8,200.3l-0.4-0.1h-0.3c-4.1-0.1-7.4-1.6-9.4-5.4c-1.2-2.3-1.1-3.2,0.6-5.1
			c-6.4-2-7.6-8.9-5.5-13.1c2-4,6.6-6.1,11-4.9c1.4,0.3,2.6,1.2,3.1,2.5l0.2-0.3l0.3-0.3l0,0c-0.6-1.3-0.2-2.6-0.2-4s0-2.2-1.7-1.7
			c-0.3,0.2-0.7,0.1-0.9-0.2c-0.2-0.4,0.2-0.6,0.4-0.8c0.5-0.5,1.2-0.9,1.5-1.8c-1,0.5-2.1,0.8-3.2,0.8c-0.3,0-0.7,0.1-0.9-0.3
			s0.1-0.6,0.4-0.8c0.4-0.4,0.7-0.9,1.1-1.3c-0.4,0.1-0.8,0.1-1.1,0.2c-11,2.6-17.9,13.6-15.4,24.6c1.8,7.8,8,13.9,15.9,15.5l1,0.2
			l0.9,0.1c0.3,0,0.5,0.1,0.8,0.1C360.5,204.2,355.1,200.8,355.8,200.3z"/>
		<path class="st15" d="M365,189.4c4-1.7,6.2-6,5.4-10.3c-0.8-4.4-4.5-7.6-8.9-7.9c-2.3-0.1-4.6,0.1-6,2.4l-0.3,0.3l-0.2,0.3
			c0,0.2,0.1,0.3,0.1,0.5c0.1,0.7,0.2,1.5,0.1,2.2v20.5c0,0.7,0,1.5,0.1,2.2v0.2l0.1,0.2l0.4,0.1l0,0c4.7-0.2,8.6-3.2,9.5-7.2
			c0.3-0.9,0.1-1.8-0.5-2.5C364.2,190,364.3,189.8,365,189.4z M357.9,184.4c1.8-1.5,4.5-1.5,6.3,0
			C362.2,183.7,360,183.7,357.9,184.4L357.9,184.4z"/>
		<path class="st15" d="M364.2,184.4c-2-0.7-4.2-0.7-6.3,0C359.8,182.9,362.4,182.9,364.2,184.4z"/>
		<path class="st16" d="M355.4,199.9v-0.2c-0.1-0.7-0.2-1.5-0.1-2.2V177c0-0.8,0-1.5-0.1-2.2c0-0.2-0.1-0.3-0.1-0.5
			c-0.6-1.3-1.7-2.3-3.1-2.5c-4.4-1.2-9,0.9-11,4.9c-2,4.2-0.9,11,5.5,13.1c-1.6,1.9-1.8,2.8-0.6,5.1c2,3.8,5.3,5.3,9.4,5.4h0.3
			L355.4,199.9z M345.1,184.3c1.8-1.5,4.5-1.5,6.3,0C349.3,183.6,347.1,183.6,345.1,184.3L345.1,184.3z"/>
		<path class="st16" d="M351.4,184.3c-2-0.7-4.2-0.7-6.3,0C346.9,182.8,349.6,182.8,351.4,184.3z"/>
		<path class="st3" d="M351.4,184.3c-2-0.7-4.2-0.7-6.3,0C346.9,182.8,349.6,182.8,351.4,184.3z"/>
		<path class="st3" d="M364.2,184.4c-2-0.7-4.2-0.7-6.3,0C359.8,182.9,362.4,182.9,364.2,184.4z"/>
		<g id="freepik--Character--inject-291">
			<g id="freepik--group--inject-291">
				<path class="st17" d="M174.9,226c0,0-33.6-5.2-40-2.5s-8.5,12.6-8.5,12.6s-1.2,2,2.3,2.3c0,0-14.2,35.4-9.7,42.2
					s49.8,9.5,56,6.2S195.8,228.5,174.9,226z"/>
				<path class="st18" d="M194.7,259.8c0,0,4.4,10.3,5.4,11.8s23.1,11.6,23.1,11.6c1.8-0.2,3.6-0.2,5.4,0c2.7,0.4,6.5,1.6,6.8,2
					s-4.1,6.9-4.1,6.9s-8.9,0.5-10-3c0,0-22.2-8.2-24.8-10.4s-9.8-14.9-9.8-14.9L194.7,259.8z"/>
				<path class="st3" d="M188.3,237.2c4.2,2.5,10.7,29.2,12.1,32.3s18.4,10.9,18.4,10.9l-7.5,7.2c0,0-17.2-7.6-19.4-9.8
					s-10.7-24.3-10.7-24.3L188.3,237.2z"/>
				<path class="st17" d="M186.9,298.2c0,0,70.1-10.1,73.8,5.3c3.9,16.3-52.4,27.2-86,28.4s-43.3-6.2-37.9-47.8l45.4-0.1
					L186.9,298.2z"/>
				<path class="st10" d="M186.9,298.2c0,0,70.1-10.1,73.8,5.3c3.9,16.3-52.4,27.2-86,28.4s-43.3-6.2-37.9-47.8l45.4-0.1
					L186.9,298.2z"/>
				<path class="st3" d="M250.2,322.1c-0.1,0-0.2,0-0.2,0c-0.1,0-0.1-0.1-0.1-0.2c0.1-0.4,1.2-3.6,2.4-4c0.2-0.1,0.5,0,0.7,0.2
					c0.3,0.3,0.5,0.7,0.4,1.1c-0.2,0.6-0.5,1.1-1.1,1.5C251.7,321.2,251,321.7,250.2,322.1z M250.5,321.4c1-0.5,1.9-1.3,2.4-2.3
					c0.1-0.3,0-0.6-0.3-0.7c-0.1-0.1-0.2-0.1-0.3-0.1c-0.1,0-0.2,0.1-0.3,0.2C251.4,319.4,250.9,320.4,250.5,321.4z"/>
				<path class="st3" d="M250.2,322.1c-0.1,0-0.2,0-0.2-0.1c-0.1-0.1-1.7-2.1-1.4-3.4c0.1-0.3,0.3-0.6,0.5-0.8
					c0.2-0.2,0.6-0.3,0.9-0.1c0.8,0.6,0.7,3.2,0.3,4.2v0.1L250.2,322.1z M249.3,318.3c-0.1,0.1-0.2,0.3-0.3,0.5
					c-0.2,0.8,0.6,2.1,1,2.7c0.3-1.1,0.2-3-0.3-3.3C249.6,318.1,249.4,318.1,249.3,318.3L249.3,318.3L249.3,318.3z"/>
				<polygon class="st18" points="226,330.3 240.7,330.3 247.7,330.3 248.6,322.9 242,322 226.1,319.9 				"/>
				<path class="st17" d="M247,322l-1.8,8.5c-0.1,0.5,0.2,0.9,0.7,1c0,0,0,0,0,0l0,0l4.2,0.8c0,0,5.6,1.4,7.2,0.4
					c4.6-2.9,9-21.6,7.2-23c-0.7-0.5-1.9,0.3-2.5,0.9c-1.9,1.9-5.9,7.3-7.5,8.9c-1.9,1.9-5.2,1.9-6.6,1.8
					C247.4,321.3,247.1,321.6,247,322z"/>
				<polygon class="st10" points="226,330.3 240.7,330.3 242,322 226.1,319.9 				"/>
				<path class="st17" d="M170.4,297.7v1.9c0,1.3,1,2.3,2.3,2.4h68.4c1.3,0,2.4-1.1,2.5-2.4v-1.9H170.4z"/>
				<path class="st6" d="M170.4,297.7v1.9c0,1.3,1,2.3,2.3,2.4h68.4c1.3,0,2.4-1.1,2.5-2.4v-1.9H170.4z"/>
				<path class="st6" d="M196,297.7v1.9c0,1.3,1,2.3,2.3,2.4h42.9c1.3,0,2.4-1.1,2.5-2.4v-1.9H196z"/>
				<path class="st17" d="M198.3,300.3h45.2c1.5-0.1,2.8-1,3.3-2.4l10.4-32.5c0.4-0.9,0-2-0.9-2.4c-0.3-0.1-0.5-0.1-0.8-0.1h-45.2
					c-1.5,0.1-2.8,1.1-3.3,2.5l-10.4,32.5c-0.4,0.9,0,1.9,0.9,2.3C197.7,300.2,198,300.3,198.3,300.3L198.3,300.3z"/>
				<path class="st6" d="M198.3,300.3h45.2c1.5-0.1,2.8-1,3.3-2.4l10.4-32.5c0.4-0.9,0-2-0.9-2.4c-0.3-0.1-0.5-0.1-0.8-0.1h-45.2
					c-1.5,0.1-2.8,1.1-3.3,2.5l-10.4,32.5c-0.4,0.9,0,1.9,0.9,2.3C197.7,300.2,198,300.3,198.3,300.3L198.3,300.3z"/>
				<path class="st6" d="M200,300.3h43.5c1.5-0.1,2.8-1,3.3-2.4l10.4-32.5c0.4-0.9,0-2-0.9-2.4c-0.3-0.1-0.5-0.1-0.8-0.1h-43.5
					c-1.5,0.1-2.8,1.1-3.3,2.5l-10.4,32.5c-0.4,0.9,0,1.9,0.9,2.3c0,0,0,0,0,0C199.4,300.2,199.7,300.3,200,300.3z"/>
				<path class="st6" d="M226.4,283c-0.6,2.2,0.5,3.9,2.4,3.9s3.9-1.8,4.4-3.9s-0.5-3.9-2.4-3.9S227,280.9,226.4,283z"/>
				<path class="st6" d="M247,322l-1.8,8.5c-0.1,0.5,0.2,0.9,0.7,1c0,0,0,0,0,0l0,0l4.2,0.8c0,0,5.6,1.4,7.2,0.4
					c4.6-2.9,9-21.6,7.2-23c-0.7-0.5-1.9,0.3-2.5,0.9c-1.9,1.9-5.9,7.3-7.5,8.9c-1.9,1.9-5.2,1.9-6.6,1.8
					C247.4,321.3,247.1,321.6,247,322z"/>
				<polygon points="150.3,290 136.1,290.2 136.4,285.6 150.3,285.3 				"/>
				<polygon points="178.2,284.6 182.5,284.6 184,289.5 178.2,289.6 				"/>
				<polygon points="176.4,284.7 176.4,289.6 152.4,290 152.4,285.2 				"/>
				<path class="st19" d="M162.6,288.8l-0.1-1.9c-0.1-1,0.7-1.9,1.8-2l4.3-0.2c0.5,0,1,0.2,1.3,0.5c0.4,0.4,0.6,0.8,0.6,1.4l0.1,1.9
					c0.1,1-0.7,1.9-1.8,2l-4.3,0.2h-0.1C163.4,290.6,162.6,289.8,162.6,288.8z M168.8,289.6c0.6-0.1,1-0.6,1-1.2l-0.1-1.9
					c0-0.3-0.1-0.6-0.4-0.8c-0.2-0.2-0.5-0.3-0.8-0.3l-4.3,0.2c-0.6,0.1-1,0.6-1,1.2l0.1,1.9c0,0.6,0.5,1.1,1.1,1.1l0,0L168.8,289.6
					z"/>
				<path class="st19" d="M163.4,288.1h2.2c0.3,0,0.5-0.2,0.5-0.5c0-0.3-0.2-0.5-0.5-0.5h-2.2c-0.3,0-0.5,0.2-0.5,0.5
					C162.9,287.9,163.1,288.1,163.4,288.1z"/>
				<path class="st3" d="M188.3,237.2c0,0-5.5,34.6-3.2,47l-50.6,1.5c0,0,6-35.7,13.9-49.2C148.5,236.4,161.7,214.4,188.3,237.2z"/>
				<path class="st8" d="M188.3,237.2c0,0-5.5,34.6-3.2,47l-50.6,1.5c0,0,6-35.7,13.9-49.2C148.5,236.4,161.7,214.4,188.3,237.2z"/>
				<path class="st18" d="M158.6,229.5c0,0,8.4,8.2,13.2,6.9s6.7-3.8,6.7-3.8s-3.9-1.7-3.5-2.6c0.1-0.1,0.2-0.3,0.3-0.6
					c1.4-2.2,6.6-9.2,6.6-9.2l-11-6.2c0,0-0.9,2.1-2,4.7c-1.5,3.4-3.4,7.5-4,8.2C163.9,228.2,158.6,229.5,158.6,229.5z"/>
				<path class="st10" d="M168.9,218.6c0.7,3.9,2.4,8.5,6.5,10.7c1.4-2.2,6.6-9.2,6.6-9.2l-11-6.2
					C171,213.9,170.1,216.1,168.9,218.6z"/>
				<path class="st17" d="M166.7,211c-0.6,1.9-0.9,4-0.9,6c0.2,2.5-2.6,3.3-2.9,1.8c0,0,0.1,3.6,2.4,3.1c0,0,0,2.5,2.1,2.6
					c1.8-2.5,2.7-5.5,2.7-8.6C169.8,211.1,166.7,211,166.7,211z"/>
				<path class="st17" d="M185.7,198.8c-3.6,1.5-3,9.9,3,17c3.7-3.2,5.3-10.5,4.5-13.3C191.8,197.9,188.9,197.6,185.7,198.8z"/>
				<path class="st18" d="M191,219.2L191,219.2c-0.3,1-0.7,1.9-1.1,2.8c-3.6,7.2-13.8,8.6-18.3,1.5l-0.1-0.1
					c-3-4.8-1.9-9.3-0.6-17.1c0.9-5.9,6.4-9.9,12.2-9c1.6,0.2,3.2,0.9,4.6,1.8C193.6,203.2,193.3,212.5,191,219.2z"/>
				<path class="st17" d="M181.9,211c-0.1,0.6,0.1,1.2,0.5,1.3s0.9-0.3,1-1s-0.1-1.2-0.5-1.3S182.1,210.4,181.9,211z"/>
				<path class="st17" d="M189,212.6c-0.1,0.6,0.1,1.2,0.5,1.3s0.9-0.3,1-1s-0.1-1.2-0.5-1.3S189.1,212,189,212.6z"/>
				<path class="st20" d="M186.6,212.4c0.3,2.1,0.9,4.1,1.8,6c-1,0.4-2.1,0.4-3.1-0.1L186.6,212.4z"/>
				<path class="st17" d="M180.4,208.4c-0.1,0-0.2,0-0.2-0.1c-0.1-0.2-0.1-0.4,0-0.5c0.9-0.8,2.1-1.1,3.3-0.8c0.2,0,0.3,0.2,0.3,0.4
					c0,0,0,0,0,0l0,0c-0.1,0.2-0.3,0.3-0.5,0.3l0,0c-0.9-0.2-1.9,0.1-2.6,0.7C180.6,208.3,180.5,208.4,180.4,208.4z"/>
				<path class="st17" d="M192.8,211c-0.1,0-0.3-0.1-0.3-0.3c-0.2-0.9-0.8-1.7-1.7-2.1c-0.2,0-0.3-0.2-0.3-0.4
					c0-0.2,0.2-0.3,0.4-0.3c0,0,0.1,0,0.1,0c1.1,0.5,1.9,1.5,2.2,2.7c0.1,0.2-0.1,0.4-0.3,0.4c0,0,0,0,0,0l0,0
					C192.9,211,192.8,211,192.8,211z"/>
				<path class="st17" d="M183.8,222.1L183.8,222.1c-2.2-0.2-4-1.6-4.8-3.7c0-0.1,0-0.3,0.2-0.3c0.1,0,0.3,0,0.4,0.2
					c0,0.1,0.8,2.6,4.4,3.3c0.2,0,0.3,0.1,0.3,0.3C184.1,222,184,222.1,183.8,222.1C183.8,222.1,183.8,222.1,183.8,222.1
					L183.8,222.1z"/>
				<path class="st17" d="M192.5,205.1c0,0,2.3-1.8,2.2-3.9c-0.2-2.7-1.7-5.1-4.1-6.3c-2.2-1.3-4.7-2-7.3-2
					c-8.9-0.5-13.7,2.1-15.2,6.9c-0.9,1.7-0.9,4.8-0.1,7.7l0,0l0,0c0.5,1.7,1.2,3.2,2.3,4.6c5.4-4.7,7.4-8,6.6-10.2
					c0.2,0,2.9-2.4,4.1-2.5c1.7-0.1,4.9,1.5,7.5,3.1c1.4,0.8,2.9-0.5,2.9-0.5L192.5,205.1z"/>
				<path class="st18" d="M165.9,211.7c0.1,2,1,3.8,2.5,5.2c2,1.7,4.1,0.2,4.5-2.2c0.4-2.2-0.2-5.8-2.7-6.6S165.7,209.2,165.9,211.7
					z"/>
				<path class="st3" d="M165.8,216.9c0,0,3.3-12.8,11.4-17.5s16.5-1.4,16.5-1.4c-0.1-1.3-0.3-2.5-0.6-3.8c-0.2-0.4-4.3-1.8-4.3-1.8
					s-2.3-3.4-5.5-4.4s-12.7-1.4-16,1.4s-5.5,8.4-4.1,8.5s2.5,0.1,2.5,0.1s-2.6,9-1.5,10.4C164.3,208.4,162.4,214.7,165.8,216.9z"/>
				<path class="st3" d="M182.1,333.7c0.1-0.1,0.1-0.1,0.2-0.1c0.1,0,0.1,0.1,0.1,0.2c0.1,0.4,0.6,3.8-0.2,4.6
					c-0.2,0.2-0.4,0.2-0.7,0.1c-0.4-0.1-0.7-0.4-0.9-0.8c-0.1-0.6,0-1.3,0.2-1.8C181.2,335.2,181.6,334.4,182.1,333.7z M182.1,334.4
					c-0.7,0.9-1.1,2-1,3.2c0.1,0.3,0.3,0.5,0.6,0.5c0.1,0,0.2,0,0.3,0c0.1-0.1,0.1-0.2,0.2-0.3C182.3,336.7,182.3,335.5,182.1,334.4
					L182.1,334.4z"/>
				<polygon class="st18" points="204.5,317.2 190.6,321.8 183.9,324 185.4,331.4 191.9,330.1 207.7,327.1 				"/>
				<path class="st17" d="M187.2,331.7l-1-8.6c0-0.5-0.5-0.8-0.9-0.8h-0.1L181,323c0,0-5.8,0.4-6.9,1.9c-3.4,4.2-1.8,23.3,0.5,24.1
					c0.8,0.3,1.7-0.8,2.1-1.6c1.2-2.4,3.3-8.8,4.3-10.8c1.2-2.4,4.3-3.5,5.7-3.8C187,332.6,187.3,332.2,187.2,331.7z"/>
				<path class="st3" d="M182.1,333.7c0.1-0.1,0.2-0.1,0.2,0c0.1,0,2.4,1,2.8,2.3c0.1,0.3,0.1,0.7-0.1,1c-0.1,0.3-0.4,0.5-0.8,0.5
					c-1-0.1-2.1-2.5-2.2-3.6v-0.1C182.1,333.8,182.1,333.7,182.1,333.7z M184.7,336.7c0.1-0.2,0.1-0.4,0-0.5
					c-0.2-0.8-1.5-1.6-2.2-1.9c0.3,1.1,1.2,2.7,1.8,2.8C184.4,337,184.5,337,184.7,336.7L184.7,336.7L184.7,336.7z"/>
				<polygon class="st10" points="204.5,317.2 190.6,321.8 191.9,330.1 207.7,327.1 				"/>
				<polygon class="st3" points="194.3,331.4 198.3,331.8 195.9,318 191.3,320.4 				"/>
				<polygon class="st8" points="194.3,331.4 198.3,331.8 195.9,318 191.3,320.4 				"/>
				<path class="st6" d="M187.2,331.7l-1-8.6c0-0.5-0.5-0.8-0.9-0.8h-0.1L181,323c0,0-5.8,0.4-6.9,1.9c-3.4,4.2-1.8,23.3,0.5,24.1
					c0.8,0.3,1.7-0.8,2.1-1.6c1.2-2.4,3.3-8.8,4.3-10.8c1.2-2.4,4.3-3.5,5.7-3.8C187,332.6,187.3,332.2,187.2,331.7z"/>
				<path class="st17" d="M239.3,320.9c0,0-65.2-25.3-85.2-21.1s-20.1,14.7-10,24.4s25.3,6,25.3,6s-11.9-7.1-11.1-11.5
					s8.4,5.7,8.4,5.7s39.4,9.6,72,7.1L239.3,320.9z"/>
				<polygon class="st3" points="240.1,319.9 236.4,318.2 234.3,331.9 239.4,331.1 				"/>
				<polygon class="st8" points="240.1,319.9 236.4,318.2 234.3,331.9 239.4,331.1 				"/>
				<path class="st3" d="M154.5,226.8c0,0,8.8,24,8.4,29.4S144.2,302,144.2,302l-15,6C129.2,308,132.3,248.7,154.5,226.8z"/>
				<path class="st10" d="M154.5,226.8c0,0,8.8,24,8.4,29.4S144.2,302,144.2,302l-15,6C129.2,308,132.3,248.7,154.5,226.8z"/>
				<path class="st3" d="M186.4,296.5c0,0-4.7-11.2-6.2-17.4s3.8-38.1,0.9-48.7l7.2,6.8l-3.1,39.8L186.4,296.5z"/>
				<path class="st10" d="M186.4,296.5c0,0-4.7-11.2-6.2-17.4s3.8-38.1,0.9-48.7l7.2,6.8l-3.1,39.8L186.4,296.5z"/>
				<path class="st17" d="M132.8,279.1c0,0,31.3,6,26.3-51.2l-5.1-0.4c0,0,3.1,21.7-2.6,35.9S132.3,277,132.3,277L132.8,279.1z"/>
				<path class="st3" d="M162.7,253.7l-10.5-24.4l-3.2,4.2c0,0-0.6-5.9,1.3-7.6s7,0.4,9,0.9S162.7,253.7,162.7,253.7z"/>
				<path class="st17" d="M179.2,230.8c0,0,4.1,12,3.4,30.8s2.7,17.2,2.7,17.2l0.5-1.8c0,0-1.9-0.2-1.7-6.5s1-31.9-1.5-38.6
					L179.2,230.8z"/>
				<path class="st3" d="M181.3,253c0,0,1-18-4.1-23.3c0,0,3.8-1.4,5.3,0s1.9,15.1-1.1,24"/>
				<path class="st18" d="M155.9,260.4c0,0,4.6,10.6,5.6,12.1s23.8,12,23.8,12c1.8-0.3,3.7-0.3,5.6,0c2.8,0.4,6.7,1.6,7,2.1
					s-4.2,7.1-4.2,7.1s-9.1,0.6-10.2-3c0,0-22.8-8.5-25.5-10.7s-10-15.4-10-15.4L155.9,260.4z"/>
				<path class="st3" d="M150.3,236.5c4.9,0,11.7,29.8,13,33.8s21.5,12.7,21.5,12.7l-6.4,7.6c0,0-21.9-7.9-24.4-11.5
					s-10.4-24.3-10.7-29.1S147,236.5,150.3,236.5z"/>
			</g>
		</g>
	</g>
	<g id="Layer_3">
		<path class="st21" d="M429.6,185.7c0,0,10.7,80.6-66.7,107.9L299,330.2l-52,62.2c0,0-34.7-27.6,24.4-109.9s99.6-58.9,118.3-96.9
			c0,0-27.2-77.9-6.3-67.6C383.5,118,419.5,132.7,429.6,185.7z"/>
		<path class="st21" d="M500,0v42.6c-3,1.3-6.2,2.6-9.5,3.8L426.7,83l-33.8,40.5l-15.3,18.4l0,0l-2.8,3.4c0,0-15.1-12-8.4-43.8
			c3.4-16.4,12.7-38.1,32.8-66.1c5.7-7.9,11.7-15.6,18.2-22.8c4.1-4.7,8.2-8.8,12.1-12.5H500z"/>
		<path class="st21" d="M500,207.7v143.2c-6-5.7-11.3-12-16-18.8c-7.3-13.1-12-27.4-13.8-42.3c-1.5-11.5-0.9-23.2,1.7-34.5
			c3.2-13.3,9.3-25.7,17.9-36.4C492.9,215,496.3,211.2,500,207.7z"/>
		<path class="st21" d="M503.5,353.1v1c-0.3-0.2-0.6-0.5-0.9-0.7C502.9,353.3,503.2,353.2,503.5,353.1z"/>
		<circle class="st22" cx="24.4" cy="385.4" r="21.9"/>
		<ellipse class="st22" cx="57.1" cy="253.1" rx="8.2" ry="3.1"/>
		<ellipse class="st22" cx="430.1" cy="35.5" rx="8.2" ry="3.1"/>
		
			<ellipse transform="matrix(0.7071 -0.7071 0.7071 0.7071 -205.2121 125.8071)" class="st22" cx="49.3" cy="310.6" rx="4.1" ry="13.8"/>
		<circle class="st22" cx="85.2" cy="342.8" r="0.9"/>
		<ellipse class="st22" cx="102.8" cy="329.5" rx="1.8" ry="0.3"/>
		<circle class="st22" cx="115.7" cy="320.4" r="0.9"/>
		<circle class="st22" cx="93" cy="327.5" r="0.8"/>
		<path class="st21" d="M242.9,31.4c0,20.8-16.9,37.7-37.7,37.7s-37.7-16.9-37.7-37.7c0-12.6,6.3-24.4,16.8-31.4h41.8
			C236.6,7,242.9,18.8,242.9,31.4z"/>
	</g>
</g>
</svg>
