<svg xmlns="http://www.w3.org/2000/svg" viewBox="0 0 521.48 484.23"><defs><style>.cls-1{fill:none;}.cls-2{fill:#4527a0;}.cls-3{fill:#ebebeb;}.cls-4{fill:#f0f0f0;}.cls-5{fill:#e0e0e0;}.cls-6{fill:#f5f5f5;}.cls-7{fill:#e6e6e6;}.cls-10,.cls-15,.cls-16,.cls-18,.cls-8{fill:#fff;}.cls-9{fill:#407bff;}.cls-10,.cls-13{opacity:0.6;}.cls-10,.cls-11,.cls-15,.cls-16,.cls-18{isolation:isolate;}.cls-11,.cls-15{opacity:0.2;}.cls-12{opacity:0.5;}.cls-14{fill:#263238;}.cls-16{opacity:0.7;}.cls-17{fill:#e4897b;}.cls-18{opacity:0.4;}.cls-19{fill:#de5753;}</style></defs><g id="Layer_2" data-name="Layer 2"><path class="cls-1" d="M0,185.29v95.07c-13.24-15.47-21.68-33.51-21.48-51C-21.27,211.44-12,197.82,0,185.29Z" transform="translate(21.48 0)"/><path class="cls-2" d="M70.43,321.28c-25.84-3.75-52.52-20-70.43-40.92V185.29c22.9-23.82,55.88-43.66,55.88-81.55C55.87,63.65,18.94,49.65,26,10.3A65.75,65.75,0,0,1,28.75,0H211.87c23.62,23,42.28,51.9,49.8,83.06C289.53,198.53,161.79,334.51,70.43,321.28Z" transform="translate(21.48 0)"/><path class="cls-2" d="M478.27,322.9c30.07,24.5,25.71,99.37-12.67,135.51C414,507,305.7,481,285.52,429.76c-9.91-25.21-1-62.9,20.45-74.84,27.15-15.09,58,20,88,2.93,20.78-11.87,17.11-35.16,39.6-43.14C448.75,309.33,467.27,313.93,478.27,322.9Z" transform="translate(21.48 0)"/><circle class="cls-2" cx="138.26" cy="437.61" r="10.05"/><circle class="cls-2" cx="54.87" cy="321.97" r="10.05"/><circle class="cls-2" cx="380.53" cy="45.53" r="32.17"/><circle class="cls-2" cx="330.51" cy="263.78" r="32.17"/><path class="cls-2" d="M42.85,94.7A32.18,32.18,0,0,1,0,125.05V64.35A32.18,32.18,0,0,1,42.85,94.7Z" transform="translate(21.48 0)"/><path class="cls-2" d="M500,201.27v63.64a32.17,32.17,0,0,1,0-63.64Z" transform="translate(21.48 0)"/></g><g id="Layer_1" data-name="Layer 1"><g id="freepik--background-complete--inject-1"><rect class="cls-3" x="21.48" y="382.4" width="500" height="0.25"/><rect class="cls-3" x="438.26" y="398.49" width="33.12" height="0.25"/><rect class="cls-3" x="344.01" y="401.21" width="8.69" height="0.25"/><rect class="cls-3" x="418.07" y="389.21" width="19.19" height="0.25"/><rect class="cls-3" x="73.94" y="390.89" width="43.19" height="0.25"/><rect class="cls-3" x="126.04" y="390.89" width="6.33" height="0.25"/><rect class="cls-3" x="152.95" y="395.11" width="93.68" height="0.25"/><path class="cls-3" d="M237,337.8H43.91a5.71,5.71,0,0,1-5.7-5.71V60.66A5.71,5.71,0,0,1,43.91,55H237a5.71,5.71,0,0,1,5.71,5.71h0V332.09A5.71,5.71,0,0,1,237,337.8ZM43.91,55.2a5.46,5.46,0,0,0-5.45,5.46V332.09a5.46,5.46,0,0,0,5.45,5.46H237a5.48,5.48,0,0,0,5.46-5.46V60.66A5.48,5.48,0,0,0,237,55.2Z" transform="translate(21.48 0)"/><path class="cls-3" d="M453.31,337.8H260.21a5.73,5.73,0,0,1-5.71-5.71V60.66A5.72,5.72,0,0,1,260.21,55h193.1A5.71,5.71,0,0,1,459,60.66V332.09A5.7,5.7,0,0,1,453.31,337.8ZM260.21,55.2a5.48,5.48,0,0,0-5.46,5.46V332.09a5.48,5.48,0,0,0,5.46,5.46h193.1a5.48,5.48,0,0,0,5.46-5.46V60.66a5.48,5.48,0,0,0-5.46-5.46Z" transform="translate(21.48 0)"/><rect class="cls-4" x="121.84" y="173.88" width="141.98" height="208.17"/><rect class="cls-5" x="126.85" y="180.43" width="131.95" height="38.45"/><rect class="cls-3" x="126.85" y="186.65" width="7.5" height="32.22"/><rect class="cls-3" x="163.1" y="186.65" width="7.5" height="32.22"/><rect class="cls-3" x="185.55" y="186.24" width="7.5" height="32.22" transform="translate(-10.14 35.1) rotate(-9.78)"/><rect class="cls-3" x="136.14" y="190.9" width="7.5" height="27.98"/><rect class="cls-3" x="153.37" y="190.9" width="7.5" height="27.98"/><rect class="cls-3" x="196.86" y="190.9" width="7.5" height="27.98"/><rect class="cls-3" x="154.6" y="190.41" width="7.5" height="27.98" transform="translate(-19.09 39.22) rotate(-12.53)"/><rect class="cls-3" x="146.37" y="185.05" width="3.75" height="33.82"/><rect class="cls-3" x="190.95" y="185.05" width="3.75" height="33.82"/><rect class="cls-5" x="126.86" y="224.97" width="131.95" height="38.45"/><rect class="cls-3" x="251.3" y="231.19" width="7.5" height="32.22"/><rect class="cls-3" x="215.06" y="231.19" width="7.5" height="32.22"/><rect class="cls-3" x="137.29" y="243.14" width="32.22" height="7.5" transform="translate(-94.48 356.12) rotate(-80.22)"/><rect class="cls-3" x="242.01" y="235.44" width="7.5" height="27.98"/><rect class="cls-3" x="224.79" y="235.44" width="7.5" height="27.98"/><rect class="cls-3" x="181.3" y="235.44" width="7.5" height="27.98"/><rect class="cls-3" x="170.39" y="245.19" width="27.98" height="7.5" transform="translate(-77.15 374.92) rotate(-77.47)"/><rect class="cls-3" x="235.53" y="229.59" width="3.75" height="33.82"/><rect class="cls-3" x="190.96" y="229.59" width="3.75" height="33.82"/><rect class="cls-3" x="126.85" y="231.19" width="7.5" height="32.22"/><rect class="cls-3" x="136.14" y="235.43" width="7.5" height="27.98"/><rect class="cls-3" x="153.37" y="235.43" width="7.5" height="27.98"/><rect class="cls-3" x="146.37" y="229.59" width="3.75" height="33.82"/><rect class="cls-5" x="126.85" y="269.5" width="131.95" height="38.45"/><rect class="cls-3" x="202.59" y="275.72" width="7.5" height="32.22"/><rect class="cls-3" x="225.05" y="275.31" width="7.5" height="32.22" transform="translate(-24.69 43.1) rotate(-9.78)"/><rect class="cls-3" x="175.63" y="279.97" width="7.5" height="27.98"/><rect class="cls-3" x="192.86" y="279.97" width="7.5" height="27.98"/><rect class="cls-3" x="236.35" y="279.97" width="7.5" height="27.98"/><rect class="cls-3" x="194.09" y="279.48" width="7.5" height="27.98" transform="translate(-37.47 49.91) rotate(-12.53)"/><rect class="cls-3" x="185.86" y="274.12" width="3.75" height="33.82"/><rect class="cls-3" x="230.44" y="274.12" width="3.75" height="33.82"/><rect class="cls-3" x="138.81" y="275.32" width="7.5" height="32.22" transform="translate(-25.95 28.45) rotate(-9.78)"/><rect class="cls-3" x="150.11" y="279.97" width="7.5" height="27.98"/><rect class="cls-3" x="107.85" y="279.48" width="7.5" height="27.98" transform="translate(-39.53 31.2) rotate(-12.53)"/><rect class="cls-3" x="144.21" y="274.12" width="3.75" height="33.82"/><rect class="cls-5" x="97.34" y="173.88" width="24.5" height="208.71"/><path class="cls-6" d="M325.44,377.14H304.63L315.57,288a7.93,7.93,0,0,1,7.67-6.83H414L400.69,377.1Z" transform="translate(21.48 0)"/><path class="cls-4" d="M391.44,377.14h20.81L423.2,288a5.92,5.92,0,0,0-4.94-6.76,5.35,5.35,0,0,0-1.06-.07h-7.15a8,8,0,0,0-7.67,6.83Z" transform="translate(21.48 0)"/><path class="cls-7" d="M383.78,377l3.77-43.1a4.09,4.09,0,0,1,3.57-3.72l1.55-.2a5.49,5.49,0,0,0,4.79-5l.69-7.86a5.51,5.51,0,0,0-5-6l-.49,0h34.78a5.51,5.51,0,0,1,5.51,5.51c0,.16,0,.33,0,.49l-.69,7.86a5.49,5.49,0,0,1-4.79,5l-1.55.2a4.11,4.11,0,0,0-3.57,3.72L418.56,377a6.09,6.09,0,0,1-6.06,5.55H377.72A6.09,6.09,0,0,0,383.78,377Z" transform="translate(21.48 0)"/><path class="cls-7" d="M288.06,323.15a13.1,13.1,0,0,0-13.05-12h30.28a13.1,13.1,0,0,1,13,12l3,34.16H291.05Z" transform="translate(21.48 0)"/><path class="cls-4" d="M261.56,311.19H275a13.1,13.1,0,0,1,13.05,12l3,34.16h72.12l3-34.16a13.09,13.09,0,0,1,13-12h13.45a5.51,5.51,0,0,1,5.51,5.51c0,.16,0,.33,0,.49l-.69,7.86a5.49,5.49,0,0,1-4.79,5l-1.55.2a4.09,4.09,0,0,0-3.57,3.72l-3.73,43a6.09,6.09,0,0,1-6.06,5.55H276.5a6.09,6.09,0,0,1-6.06-5.55l-3.77-43.1a4.13,4.13,0,0,0-3.57-3.72l-1.55-.2a5.51,5.51,0,0,1-4.8-5l-.68-7.86a5.51,5.51,0,0,1,5.07-5.91Z" transform="translate(21.48 0)"/><path class="cls-7" d="M102.16,163.48s-1.11-7.31,4.22-12,4.86-7.47,3.33-7.83-2.92,4.32-5.26,5.61c0,0-.08-6.68,2.3-9.13s3.63-8.8,1.36-8.91-2.49,3.76-3,6.51-3,6.61-3,6.61-.49-6-2-8.43,2.56-8.08,1-10.53-4.39,2.22-4.16,7.49,3.75,10.89,2.93,16.39c0,0-1.55-3.87-2.94-4.22s-2.8-2.9-3.73-3.85-2.11,2.33,0,5.37,7.49,11.19,6.67,17.77Z" transform="translate(21.48 0)"/><path class="cls-7" d="M105.34,160.15l1.75,10.95a5.57,5.57,0,0,1-4.63,6.37,5.1,5.1,0,0,1-.87.07H99.73A5.57,5.57,0,0,1,94.16,172a5.1,5.1,0,0,1,.07-.87L96,160.15Z" transform="translate(21.48 0)"/><rect class="cls-3" x="231.53" y="152.05" width="5.43" height="23.35"/><rect class="cls-3" x="205.27" y="152.05" width="5.43" height="23.35"/><rect class="cls-3" x="143" y="160.71" width="23.35" height="5.43" transform="translate(-11.17 288.09) rotate(-80.22)"/><rect class="cls-3" x="224.8" y="155.12" width="5.43" height="20.27"/><rect class="cls-3" x="212.32" y="155.12" width="5.43" height="20.27"/><rect class="cls-3" x="180.8" y="155.12" width="5.43" height="20.27"/><rect class="cls-3" x="166.98" y="162.19" width="20.27" height="5.43" transform="translate(-0.81 302.03) rotate(-77.47)"/><rect class="cls-3" x="220.1" y="150.89" width="2.72" height="24.51"/><rect class="cls-3" x="187.79" y="150.89" width="2.72" height="24.51"/><rect class="cls-3" x="141.96" y="156.86" width="26.47" height="18.27"/><rect class="cls-3" x="237.04" y="164.34" width="22.17" height="13.64"/><rect class="cls-3" x="242.94" y="152.35" width="11.09" height="13.64"/><rect class="cls-5" x="412.92" y="134.3" width="26.37" height="109.88"/><rect class="cls-5" x="337.84" y="134.31" width="98.62" height="110.17"/><rect class="cls-4" x="334.66" y="134.31" width="102.32" height="110.17"/><rect class="cls-8" x="339.04" y="137.81" width="93.74" height="101.6"/><rect class="cls-5" x="339.03" y="137.81" width="1.74" height="101.6"/><rect class="cls-5" x="340.49" y="210.88" width="92.54" height="2.74"/><rect class="cls-4" x="339.03" y="206.27" width="95.21" height="4.6"/></g><g id="freepik--Shadow--inject-1"><ellipse id="freepik--path--inject-1" class="cls-6" cx="271.48" cy="416.24" rx="193.89" ry="11.32"/></g><rect class="cls-9" x="157.2" y="152.82" width="193.55" height="225.3" rx="7.32"/><rect class="cls-10" x="157.2" y="152.82" width="193.55" height="225.3" rx="7.32"/><rect class="cls-8" x="188.56" y="256.15" width="130.84" height="22.4"/><rect class="cls-8" x="188.56" y="286.75" width="130.84" height="22.4"/><rect class="cls-11" x="188.56" y="332" width="130.84" height="22.4"/><g class="cls-12"><path d="M198.9,321.71h-2.14l-.46,1h-.42l1.75-3.83h.4l1.75,3.83h-.42Zm-.15-.33-.92-2.06-.92,2.06Z" transform="translate(21.48 0)"/><path d="M200.34,318.67h.39v4.06h-.39Z" transform="translate(21.48 0)"/><path d="M203.27,319.83v.38h-.1a.94.94,0,0,0-1,.85,1.48,1.48,0,0,0,0,.21v1.47h-.39v-2.88h.38v.56A1.09,1.09,0,0,1,203.27,319.83Z" transform="translate(21.48 0)"/><path d="M206.45,321.41H204a1.06,1.06,0,0,0,1.12,1h0A1.15,1.15,0,0,0,206,322l.21.25a1.52,1.52,0,0,1-2.15,0,1.49,1.49,0,0,1-.47-1,1.39,1.39,0,0,1,1.32-1.46H205a1.37,1.37,0,0,1,1.4,1.34v.12A.5.5,0,0,1,206.45,321.41Zm-2.41-.29h2a1,1,0,0,0-2,0Z" transform="translate(21.48 0)"/><path d="M209.34,321v1.78H209v-.45a1.05,1.05,0,0,1-1,.48c-.65,0-1-.34-1-.84s.28-.82,1.11-.82H209V321c0-.49-.28-.76-.82-.76a1.52,1.52,0,0,0-1,.34l-.17-.29a1.83,1.83,0,0,1,1.17-.39,1,1,0,0,1,1.15.82A1,1,0,0,1,209.34,321Zm-.38.92v-.48h-.91c-.56,0-.74.22-.74.52s.27.54.73.54a.94.94,0,0,0,1-.63Z" transform="translate(21.48 0)"/><path d="M213,318.67v4.06h-.37v-.57a1.23,1.23,0,0,1-1.11.6,1.47,1.47,0,0,1,0-2.93,1.27,1.27,0,0,1,1.1.57v-1.73Zm-.38,2.62a1.07,1.07,0,1,0-1.07,1.12,1.05,1.05,0,0,0,1.11-1v-.13Z" transform="translate(21.48 0)"/><path d="M216.55,319.85l-1.44,3.23a1.05,1.05,0,0,1-1.7.48l.18-.29a.75.75,0,0,0,.53.22c.26,0,.43-.12.6-.49l.12-.27-1.29-2.88H214l1.09,2.45,1.08-2.45Z" transform="translate(21.48 0)"/><path d="M220.71,321v1.78h-.37v-.45a1.05,1.05,0,0,1-1,.48c-.65,0-1-.34-1-.84s.28-.82,1.11-.82h.91V321c0-.49-.27-.76-.81-.76a1.52,1.52,0,0,0-1,.34l-.18-.29a1.86,1.86,0,0,1,1.18-.39,1,1,0,0,1,1.15.82A1,1,0,0,1,220.71,321Zm-.39.92v-.48h-.9c-.56,0-.74.22-.74.52s.27.54.73.54a.92.92,0,0,0,.91-.63Z" transform="translate(21.48 0)"/><path d="M228,321.06v1.67h-.38V321.1c0-.61-.31-.92-.83-.92a.93.93,0,0,0-1,.85v1.66h-.38V321.1c0-.61-.31-.92-.84-.92a.93.93,0,0,0-1,.85v1.66h-.39v-2.88h.37v.53a1.14,1.14,0,0,1,1.06-.55,1,1,0,0,1,1,.61,1.26,1.26,0,0,1,1.14-.61,1.08,1.08,0,0,1,1.25.87A.9.9,0,0,1,228,321.06Z" transform="translate(21.48 0)"/><path d="M231.54,321.41h-2.41a1.08,1.08,0,0,0,1.14,1,1.13,1.13,0,0,0,.88-.37l.22.25a1.45,1.45,0,0,1-1.11.47,1.42,1.42,0,0,1-1.51-1.33v-.14a1.4,1.4,0,1,1,2.8,0S231.54,321.37,231.54,321.41Zm-2.41-.29h2.05a1,1,0,1,0-2.05,0Z" transform="translate(21.48 0)"/><path d="M237.1,321.06v1.67h-.39V321.1c0-.61-.3-.92-.82-.92a.92.92,0,0,0-1,.83.49.49,0,0,0,0,.17v1.51h-.39V321.1c0-.61-.3-.92-.83-.92a.92.92,0,0,0-1,.83.49.49,0,0,0,0,.17v1.51h-.39v-2.88h.37v.53a1.14,1.14,0,0,1,1.06-.55,1,1,0,0,1,1,.61,1.26,1.26,0,0,1,1.14-.61,1.08,1.08,0,0,1,1.25.87A.9.9,0,0,1,237.1,321.06Z" transform="translate(21.48 0)"/><path d="M241.08,321.29a1.41,1.41,0,0,1-1.33,1.47h-.1a1.23,1.23,0,0,1-1.11-.6v.57h-.38v-4.06h.39v1.73a1.27,1.27,0,0,1,1.1-.57,1.39,1.39,0,0,1,1.43,1.35Zm-.39,0a1.07,1.07,0,1,0-1.07,1.12,1.05,1.05,0,0,0,1.07-1Z" transform="translate(21.48 0)"/><path d="M244.39,321.41H242a1.06,1.06,0,0,0,1.12,1h0A1.12,1.12,0,0,0,244,322l.22.25a1.52,1.52,0,0,1-2.15.05,1.49,1.49,0,0,1-.47-1.05,1.39,1.39,0,0,1,1.32-1.46H243a1.36,1.36,0,0,1,1.39,1.33v.29Zm-2.41-.29h2a1,1,0,0,0-2,0Z" transform="translate(21.48 0)"/><path d="M246.64,319.83v.38h-.09a.94.94,0,0,0-1,.85,1.48,1.48,0,0,0,0,.21v1.47h-.39v-2.88h.37v.56A1.09,1.09,0,0,1,246.64,319.83Z" transform="translate(21.48 0)"/><path d="M249.16,319.88c0-.4-.32-.67-.88-.67a1.3,1.3,0,0,0-1.05.44l-.29-.22a1.7,1.7,0,0,1,1.37-.57c.77,0,1.26.37,1.26,1,0,.93-1,1-1,1.76h-.41C248.16,320.68,249.16,320.59,249.16,319.88Zm-1.08,2.59a.29.29,0,0,1,.34-.23.28.28,0,0,1,.23.23.29.29,0,0,1-.23.34.29.29,0,0,1-.34-.23A.21.21,0,0,1,248.08,322.47Z" transform="translate(21.48 0)"/><path d="M251.87,318.9h.89V322h1.92v.72h-2.81Z" transform="translate(21.48 0)"/><path d="M254.88,321.26a1.62,1.62,0,1,1,1.72,1.52h-.1a1.52,1.52,0,0,1-1.62-1.42Zm2.37,0a.75.75,0,0,0-.81-.69.75.75,0,0,0,.06,1.5.73.73,0,0,0,.75-.73Z" transform="translate(21.48 0)"/><path d="M261.73,319.78v2.46a1.44,1.44,0,0,1-1.25,1.61,1.79,1.79,0,0,1-.4,0,2.42,2.42,0,0,1-1.45-.41l.34-.61a1.78,1.78,0,0,0,1,.33c.6,0,.87-.27.87-.8v-.13a1.2,1.2,0,0,1-.93.37,1.43,1.43,0,0,1-.24-2.85h.24a1.2,1.2,0,0,1,1,.42v-.38Zm-.84,1.39a.71.71,0,0,0-.69-.73h-.08a.73.73,0,0,0-.17,1.45h.17a.72.72,0,0,0,.77-.65Z" transform="translate(21.48 0)"/><path d="M264,318.9a.48.48,0,0,1,.5-.48h0a.48.48,0,0,1,.53.43v0a.53.53,0,1,1-1.06,0Zm.1.88H265v3h-.85Z" transform="translate(21.48 0)"/><path d="M268.74,321v1.69h-.85v-1.55c0-.48-.22-.7-.6-.7a.7.7,0,0,0-.71.79v1.46h-.85v-3h.82V320a1.3,1.3,0,0,1,1-.39,1.16,1.16,0,0,1,1.21,1.09A1.14,1.14,0,0,1,268.74,321Z" transform="translate(21.48 0)"/></g><rect class="cls-2" x="188.56" y="330.63" width="130.84" height="22.4"/><path class="cls-8" d="M215.6,345.31,214,343h-2.38v2.33h-1.1v-7.67h3c2,0,3.19,1,3.19,2.68a2.43,2.43,0,0,1-1.68,2.42l1.82,2.57Zm0-5c0-1.1-.73-1.72-2.14-1.72H211.6V342h1.86c1.38,0,2.11-.63,2.11-1.72Z" transform="translate(21.48 0)"/><path class="cls-8" d="M223.52,342.76h-4.71a2,2,0,0,0,2.1,1.7,2.17,2.17,0,0,0,1.68-.7l.58.68a3.17,3.17,0,0,1-5.42-2,2.86,2.86,0,0,1,2.7-3h.22a2.81,2.81,0,0,1,2.88,2.72,2.62,2.62,0,0,1,0,.28C223.54,342.53,223.53,342.66,223.52,342.76Zm-4.71-.76h3.72a1.87,1.87,0,0,0-3.72,0Z" transform="translate(21.48 0)"/><path class="cls-8" d="M230.56,339.51v5a2.65,2.65,0,0,1-3,3,4.31,4.31,0,0,1-2.77-.86l.5-.81a3.56,3.56,0,0,0,2.24.75c1.37,0,2-.63,2-1.95v-.46a2.63,2.63,0,0,1-2.09.9,2.81,2.81,0,0,1,0-5.62h0a2.65,2.65,0,0,1,2.15,1v-.9Zm-1,2.75a2,2,0,1,0-2.11,1.89h.11a1.86,1.86,0,0,0,2-1.75v-.14Z" transform="translate(21.48 0)"/><path class="cls-8" d="M232.38,337.71a.7.7,0,0,1,.71-.69h0a.69.69,0,0,1,.77.6.7.7,0,0,1-.6.77h-.17a.69.69,0,0,1-.71-.67Zm.19,1.8h1.05v5.8h-1.05Z" transform="translate(21.48 0)"/><path class="cls-8" d="M234.89,344.7l.44-.83a3.66,3.66,0,0,0,2,.6c1,0,1.38-.3,1.38-.79,0-1.3-3.67-.17-3.67-2.49,0-1,.93-1.74,2.42-1.74a4.19,4.19,0,0,1,2.11.53l-.45.83a3.07,3.07,0,0,0-1.67-.46c-.92,0-1.37.34-1.37.8,0,1.37,3.68.25,3.68,2.51,0,1-1,1.72-2.51,1.72A4.19,4.19,0,0,1,234.89,344.7Z" transform="translate(21.48 0)"/><path class="cls-8" d="M244.38,345a2,2,0,0,1-1.27.41,1.67,1.67,0,0,1-1.84-1.46,2.16,2.16,0,0,1,0-.36V340.4h-1v-.86h1v-1.27h1v1.27H244v.86h-1.67v3.15a.86.86,0,0,0,.68,1,.89.89,0,0,0,.23,0,1.34,1.34,0,0,0,.82-.27Z" transform="translate(21.48 0)"/><path class="cls-8" d="M250.68,342.76H246a2,2,0,0,0,2.11,1.7,2.16,2.16,0,0,0,1.67-.7l.58.68a3.16,3.16,0,0,1-4.47.05,3.21,3.21,0,0,1-.94-2.05,2.86,2.86,0,0,1,2.7-3h.22a2.81,2.81,0,0,1,2.88,2.74,2.26,2.26,0,0,1,0,.26A1.65,1.65,0,0,1,250.68,342.76ZM246,342h3.73a1.88,1.88,0,0,0-3.73,0Z" transform="translate(21.48 0)"/><path class="cls-8" d="M255.29,339.45v1h-.24a1.73,1.73,0,0,0-1.85,1.6,1.76,1.76,0,0,0,0,.4v2.89h-1.05v-5.8h1v1A2.2,2.2,0,0,1,255.29,339.45Z" transform="translate(21.48 0)"/><g class="cls-13"><path class="cls-14" d="M209.59,177.61l.45-.94a4.32,4.32,0,0,0,2.77,1c1.45,0,2.07-.56,2.07-1.29,0-2-5.08-.76-5.08-3.87,0-1.3,1-2.4,3.21-2.4a5,5,0,0,1,2.7.74l-.4,1a4.27,4.27,0,0,0-2.3-.68c-1.43,0-2,.6-2,1.33,0,2,5.09.76,5.09,3.85,0,1.28-1,2.38-3.25,2.38A5,5,0,0,1,209.59,177.61Z" transform="translate(21.48 0)"/><path class="cls-14" d="M217.44,170.24a.76.76,0,0,1,.77-.75h0a.76.76,0,0,1,.78.72h0a.78.78,0,0,1-1.56,0Zm.2,2h1.16v6.36h-1.16Z" transform="translate(21.48 0)"/><path class="cls-14" d="M227.07,172.21v5.49c0,2.25-1.14,3.27-3.29,3.27a4.75,4.75,0,0,1-3-.95l.55-.89a3.88,3.88,0,0,0,2.45.83c1.5,0,2.18-.7,2.18-2.14v-.5a2.89,2.89,0,0,1-2.29,1,3.08,3.08,0,0,1-.35-6.15h.35a2.89,2.89,0,0,1,2.35,1v-1Zm-1.12,3a2.19,2.19,0,1,0-2.3,2.08h.11a2.06,2.06,0,0,0,2.23-1.87,1.34,1.34,0,0,0,0-.2Z" transform="translate(21.48 0)"/><path class="cls-14" d="M235.31,174.91v3.66h-1.16V175c0-1.25-.62-1.86-1.71-1.86a1.89,1.89,0,0,0-2,1.76,2,2,0,0,0,0,.35v3.28h-1.15v-6.36h1.11v1a2.69,2.69,0,0,1,2.29-1,2.47,2.47,0,0,1,2.63,2.3A2.16,2.16,0,0,1,235.31,174.91Z" transform="translate(21.48 0)"/><path class="cls-14" d="M246.6,172.21v6.36h-1.09v-1a2.6,2.6,0,0,1-2.16,1,2.5,2.5,0,0,1-2.74-2.23,2.44,2.44,0,0,1,0-.54v-3.66h1.15v3.53c0,1.24.63,1.87,1.72,1.87a1.87,1.87,0,0,0,2-1.74,1.53,1.53,0,0,0,0-.37v-3.29Z" transform="translate(21.48 0)"/><path class="cls-14" d="M255.38,175.39a3.09,3.09,0,0,1-2.92,3.25h-.29a2.74,2.74,0,0,1-2.22-1v3.28H248.8v-8.68h1.1v1a2.69,2.69,0,0,1,2.27-1.07,3.08,3.08,0,0,1,3.21,2.94Zm-1.16,0a2.14,2.14,0,1,0-2.15,2.24,2.1,2.1,0,0,0,2.15-2.07Z" transform="translate(21.48 0)"/></g><rect class="cls-8" x="188.56" y="225.54" width="130.84" height="22.4"/><rect class="cls-8" x="188.56" y="194.94" width="130.84" height="22.4"/><path class="cls-2" d="M117.85,385.28h-.95c0-1.41,1.17-34.45,6.92-40,5.91-5.75,12.86-.08,12.92,0l-.6.72c-.26-.21-6.37-5.17-11.67,0C119,351.21,117.86,384.94,117.85,385.28Z" transform="translate(21.48 0)"/><path class="cls-2" d="M117.37,391.91l-.94-.09c0-.4,3.72-40.12-10.67-56.64l.71-.62C121.13,351.39,117.41,391.51,117.37,391.91Z" transform="translate(21.48 0)"/><path class="cls-2" d="M117.83,387.67c-.12-1.88-2.89-46,8.17-56.2l.64.7c-10.73,9.86-7.9,55-7.87,55.43Z" transform="translate(21.48 0)"/><path class="cls-2" d="M116.43,387.64c0-.3-.34-30-8.21-34.47a5,5,0,0,0-4.58-.48c-4.61,1.91-7.06,10.71-7.09,10.8l-.91-.25c.1-.38,2.6-9.33,7.64-11.42a5.87,5.87,0,0,1,5.41.53c8.33,4.77,8.68,34,8.69,35.28Z" transform="translate(21.48 0)"/><path class="cls-2" d="M119.67,387.66c-.06-1-1.27-23.44,5.1-31.77,1.7-2.21,3.58-3.26,5.62-3.11,4.53.31,8,6.45,8.19,6.71l-.82.47c0-.06-3.42-6-7.44-6.24-1.69-.13-3.31.8-4.8,2.75-6.16,8-4.92,30.91-4.91,31.14Z" transform="translate(21.48 0)"/><path class="cls-2" d="M118.4,390.77l-.94-.07c0-.54,4-54.12-2.6-63.06l.76-.56C122.44,336.3,118.57,388.55,118.4,390.77Z" transform="translate(21.48 0)"/><path class="cls-2" d="M101.45,357.15s4.08,1.51,2.87,5.06-14.13,9.4-14.13,9.4-5.41-4.95-.44-13S101.34,354.61,101.45,357.15Z" transform="translate(21.48 0)"/><path class="cls-2" d="M119.2,350.39s-4.35-.18-4.6,3.56,9.4,14.12,9.4,14.12,6.9-2.5,5.42-11.85S120.28,348.08,119.2,350.39Z" transform="translate(21.48 0)"/><path class="cls-2" d="M122.88,332.45s-2.9-.31-2.67-2.07,11.27-6.31,17.78,1c0,0-4.17,7.16-10.19,7.26S122.88,332.45,122.88,332.45Z" transform="translate(21.48 0)"/><path class="cls-2" d="M117.48,328.16s2.62,1.27,3.36-.35-6.23-11.31-15.64-8.52c0,0-.25,8.28,4.81,11.55S117.48,328.16,117.48,328.16Z" transform="translate(21.48 0)"/><path class="cls-2" d="M131.2,355.73s-2-1.62.16-2.41,12.75-.56,12.86,9.93c0,0-12.34,2.05-13.86-1.95S131.2,355.73,131.2,355.73Z" transform="translate(21.48 0)"/><path class="cls-2" d="M106,332.19s2-1.62-.16-2.4-12.75-.57-12.86,9.92c0,0,12.34,2.06,13.86-1.94S106,332.19,106,332.19Z" transform="translate(21.48 0)"/><path class="cls-9" d="M112.56,340.64s.18-2-1.41-1.19-7.1,6.73-1.38,12.38c0,0,7.71-5.71,6.32-8.68S112.56,340.64,112.56,340.64Z" transform="translate(21.48 0)"/><path class="cls-2" d="M112.56,340.64s.18-2-1.41-1.19-7.1,6.73-1.38,12.38c0,0,7.71-5.71,6.32-8.68S112.56,340.64,112.56,340.64Z" transform="translate(21.48 0)"/><path class="cls-2" d="M133,343.44s-1.2-1.57.56-1.76,9.6,1.9,7.77,9.74c0,0-9.56-.72-10-4S133,343.44,133,343.44Z" transform="translate(21.48 0)"/><polygon class="cls-14" points="123.64 416.72 154.55 416.72 158.66 386.66 119.53 386.66 123.64 416.72"/><polygon class="cls-15" points="123.64 416.72 154.55 416.72 158.66 386.66 119.53 386.66 123.64 416.72"/><path class="cls-14" d="M141.06,384.22v2.86a3.46,3.46,0,0,1-3.46,3.46H97.25a3.46,3.46,0,0,1-3.46-3.46v-2.86Z" transform="translate(21.48 0)"/><path class="cls-9" d="M398.62,99.31H369.89a8.84,8.84,0,0,0-8.84,8.84v25a8.84,8.84,0,0,0,8.83,8.85h8.4l-2,7.89,8-7.89h14.39a8.85,8.85,0,0,0,8.85-8.85h0v-25a8.84,8.84,0,0,0-8.84-8.84Z" transform="translate(21.48 0)"/><path class="cls-16" d="M398.62,99.31H369.89a8.84,8.84,0,0,0-8.84,8.84v25a8.84,8.84,0,0,0,8.83,8.85h8.4l-2,7.89,8-7.89h14.39a8.85,8.85,0,0,0,8.85-8.85h0v-25a8.84,8.84,0,0,0-8.84-8.84Z" transform="translate(21.48 0)"/><circle class="cls-8" cx="405.74" cy="120.55" r="11.15"/><path class="cls-2" d="M384.26,106.29a14.26,14.26,0,1,0,14.26,14.26,14.25,14.25,0,0,0-14.26-14.26Zm8.09,10-8.59,10.12a1.25,1.25,0,0,1-1,.46,1.33,1.33,0,0,1-1-.46l-5.59-6.59a1.31,1.31,0,0,1,1.94-1.76l.06.07,4.59,5.41,7.59-8.94a1.31,1.31,0,0,1,2,1.69Z" transform="translate(21.48 0)"/><path class="cls-9" d="M393.64,253.56s-17.41-2.2-43.79,5c0,0-4.24-47.14-3.74-53.62s40.73-4.58,40.73-4.58,1,18.87,3.62,30.25S395,251.37,393.64,253.56Z" transform="translate(21.48 0)"/><path class="cls-11" d="M393.64,253.56s-17.41-2.2-43.79,5c0,0-4.24-47.14-3.74-53.62s40.73-4.58,40.73-4.58,1,18.87,3.62,30.25S395,251.37,393.64,253.56Z" transform="translate(21.48 0)"/><polygon class="cls-17" points="358.61 409.62 365.71 411.63 367.4 400.58 368.31 394.67 361.21 392.66 360 400.58 358.61 409.62"/><polygon class="cls-17" points="399.43 410.2 406.75 411.17 406.82 400.58 406.87 394 399.54 393.04 399.49 400.58 399.43 410.2"/><polygon class="cls-11" points="399.54 393.04 399.49 400.58 406.82 400.58 406.87 394 399.54 393.04"/><polygon class="cls-11" points="360 400.58 367.4 400.58 368.31 394.67 361.21 392.66 360 400.58"/><path class="cls-17" d="M305.61,208.81l-7.05-2.08,1.29,8.05s6.4,1.47,7-1.86Z" transform="translate(21.48 0)"/><polygon class="cls-17" points="313 208.6 316.46 215.14 321.33 214.78 320.04 206.73 313 208.6"/><polygon class="cls-17" points="336.82 210.87 325.24 208.28 324.19 213.9 334.7 216.46 336.82 210.87"/><path class="cls-2" d="M350.37,205.79l-.68.81c-1.46,1.71-5,5.84-8.69,9.4-3,2.9-6,5.43-8,5.94-5.67,1.46-26.28-4.61-26.28-4.61l2.13-8.36s19.2,2.55,20.69,2.55c1.13,0,12.81-16.92,15.64-18.31Z" transform="translate(21.48 0)"/><path class="cls-11" d="M349.69,206.6c-1.46,1.71-5,5.84-8.69,9.4.74-5.86,2.89-11.24,5.72-14.64a5.35,5.35,0,0,1,.9-.88Z" transform="translate(21.48 0)"/><path class="cls-14" d="M337.22,408.51l8.06-.21a.64.64,0,0,1,.64.48l1.7,6.49a1.07,1.07,0,0,1-.76,1.31,1,1,0,0,1-.24,0c-2.91,0-7.12,0-10.77.07-4.28.12-7-.09-12,0-3,.08-4-2.94-2.72-3.25,5.73-1.42,9.48-1.14,14.36-4.34A3.57,3.57,0,0,1,337.22,408.51Z" transform="translate(21.48 0)"/><path class="cls-2" d="M336.52,409.55h0c-1.18.26-3.28.61-4.12-.08a1,1,0,0,1-.36-.84.55.55,0,0,1,.27-.47c.89-.53,3.9.9,4.25,1.06a.19.19,0,0,1,.1.17A.16.16,0,0,1,336.52,409.55Zm-4-1.11h-.06a.21.21,0,0,0-.11.19.65.65,0,0,0,.23.55c.47.39,1.69.43,3.31.11-1.17-.49-2.8-1.06-3.35-.85Z" transform="translate(21.48 0)"/><path class="cls-2" d="M336.52,409.55h-.12c-.91-.38-2.73-1.92-2.63-2.75,0-.2.16-.45.64-.51a1.32,1.32,0,0,1,1,.27c1,.75,1.23,2.72,1.25,2.8a.17.17,0,0,1-.07.16Zm-2.24-2.87c-.15.05-.16.13-.16.16-.06.5,1.18,1.72,2.11,2.24a4,4,0,0,0-1.06-2.24.89.89,0,0,0-.72-.2Z" transform="translate(21.48 0)"/><path class="cls-14" d="M378.24,408.51l8.06-.21a.65.65,0,0,1,.65.48l1.69,6.49a1.06,1.06,0,0,1-.74,1.3.78.78,0,0,1-.26,0c-2.91,0-7.12,0-10.78.07-4.27.12-7-.09-12,0-3,.08-4-2.94-2.72-3.25,5.73-1.42,9.47-1.14,14.35-4.34A3.44,3.44,0,0,1,378.24,408.51Z" transform="translate(21.48 0)"/><path class="cls-2" d="M377.55,409.55h0c-1.18.26-3.29.61-4.12-.08a1,1,0,0,1-.36-.84.55.55,0,0,1,.27-.47c.88-.53,3.9.9,4.24,1.06a.16.16,0,0,1,.1.17A.18.18,0,0,1,377.55,409.55Zm-4-1.11h-.06a.19.19,0,0,0-.1.19.64.64,0,0,0,.23.55c.47.39,1.68.43,3.31.11-1.19-.49-2.82-1.06-3.37-.85Z" transform="translate(21.48 0)"/><path class="cls-2" d="M377.55,409.55h-.13c-.9-.38-2.73-1.92-2.62-2.75,0-.2.15-.45.63-.51a1.32,1.32,0,0,1,1,.27,5,5,0,0,1,1.25,2.8.16.16,0,0,1-.07.16Zm-2.25-2.87c-.14.05-.15.13-.15.16-.07.5,1.18,1.72,2.11,2.24a4,4,0,0,0-1.06-2.24.89.89,0,0,0-.72-.2Z" transform="translate(21.48 0)"/><path class="cls-14" d="M393.05,249.26c3.88,16.81-2.78,149.06-2.78,149.06H377.41l-5.5-110.21L351.66,398.32l-13.75-1c9-85.38,16.93-136.35,16.93-136.35v-6.44Z" transform="translate(21.48 0)"/><path class="cls-18" d="M337.91,397.32l13.75,1,15.94-86.76,4.31-23.45,5.5,110.21h12.86s6.66-132.25,2.78-149.06l-38.23,5.27V261S346.9,311.94,337.91,397.32Z" transform="translate(21.48 0)"/><path class="cls-14" d="M386.12,187a163,163,0,0,0,.61,24.1c.54,5.6,1.28,10.89,2.07,15.66,1.85,11.19,3.95,19.58,4.25,22.51l-38.23,5.27c-13.94-39-8.69-61.66-8.69-61.66a75.54,75.54,0,0,1,8.77-3c.63-.17,1.27-.33,1.93-.48a143.29,143.29,0,0,1,16.25-2.24c1-.09,2.09-.16,3.11-.21A97.05,97.05,0,0,1,386.12,187Z" transform="translate(21.48 0)"/><path class="cls-17" d="M365.66,169.45c.28,5.35.85,15.39,5.3,17.94,0,0-2.77,5.27-8.76,5.81-4.53.4-4.23-4.07-4.23-4.07,2.62-1.95,2-5.26,0-9Z" transform="translate(21.48 0)"/><path class="cls-11" d="M362.52,173.81,358,180.13a16.7,16.7,0,0,1,1.2,2.7c2.1-.84,4.51-4,4.16-6.29A7.74,7.74,0,0,0,362.52,173.81Z" transform="translate(21.48 0)"/><path class="cls-14" d="M346.16,158.68c-.87,2.78-.39,8.48,3.48,6.63S347.66,153.91,346.16,158.68Z" transform="translate(21.48 0)"/><path class="cls-17" d="M366.16,162.44c.43,7.13,1,11.28-2.11,15.32-4.73,6.07-13.89,3.81-16.45-3.07-2.3-6.2-2.61-16.82,4-20.42A9.86,9.86,0,0,1,365,158.22,9.76,9.76,0,0,1,366.16,162.44Z" transform="translate(21.48 0)"/><path class="cls-14" d="M361.16,158.56v-8s8.48-.63,8.1,3.71c4.7,2.33,2.48,9.64-3.83,13.22-3.46-2.77-3.06-9.43-3.06-9.43A10.2,10.2,0,0,1,361.16,158.56Z" transform="translate(21.48 0)"/><path class="cls-17" d="M369.61,168a6.65,6.65,0,0,1-2.85,4.31c-2,1.31-3.73-.3-3.8-2.55-.06-2,.89-5.16,3.19-5.56a3.08,3.08,0,0,1,3.52,2.57A3.18,3.18,0,0,1,369.61,168Z" transform="translate(21.48 0)"/><path class="cls-14" d="M355.63,165.62c.07.58-.18,1.08-.56,1.12s-.74-.39-.81-1,.18-1.08.55-1.12S355.56,165,355.63,165.62Z" transform="translate(21.48 0)"/><path class="cls-14" d="M349.09,166.35c.07.58-.18,1.08-.56,1.12s-.74-.39-.81-1,.18-1.08.56-1.12S349,165.77,349.09,166.35Z" transform="translate(21.48 0)"/><path class="cls-19" d="M351.2,166.4a20.39,20.39,0,0,1-2.23,5.08,3.44,3.44,0,0,0,2.81.15Z" transform="translate(21.48 0)"/><path class="cls-14" d="M355.15,173.49a6.58,6.58,0,0,1-.75.14.18.18,0,0,1-.17-.17.17.17,0,0,1,.17-.17h0a4.6,4.6,0,0,0,3.52-2.2.15.15,0,0,1,.21-.08h0a.17.17,0,0,1,.08.23h0A4.7,4.7,0,0,1,355.15,173.49Z" transform="translate(21.48 0)"/><path class="cls-14" d="M357.39,163.29a.36.36,0,0,1-.34-.1,2.79,2.79,0,0,0-2.31-.89.34.34,0,0,1-.4-.25v0a.34.34,0,0,1,.27-.4h0a3.43,3.43,0,0,1,2.93,1.09.33.33,0,0,1,0,.47h0A.38.38,0,0,1,357.39,163.29Z" transform="translate(21.48 0)"/><path class="cls-14" d="M346,164.42a.34.34,0,0,1-.2,0,.33.33,0,0,1-.21-.43,3.37,3.37,0,0,1,2.21-2.18.33.33,0,0,1,.41.25.33.33,0,0,1-.24.41,2.62,2.62,0,0,0-1.73,1.74A.32.32,0,0,1,346,164.42Z" transform="translate(21.48 0)"/><path class="cls-14" d="M364.92,161.52s-5-1.83-7.28-4.73c0,0-4.54,1.19-5.47,3a2.26,2.26,0,0,1-.39-3s-3.4.72-4.07,3a2.87,2.87,0,0,1-1.6-3,3.83,3.83,0,0,0-2,3s-3.75-7.82,8.64-10.06a9.3,9.3,0,0,0-2.91-.49s8.65-3.49,15.5-.3S371,158.31,364.92,161.52Z" transform="translate(21.48 0)"/><path class="cls-2" d="M396,256l-12,1.6s-4.95-34.59-7.13-45.76V188l6.27-1.65L388,188a117.24,117.24,0,0,1,3.07,14.6c.59,3.74,1.12,7.74,1.59,11.79.65,5.52,1.19,11.14,1.65,16.4.72,8.49,1.2,16,1.46,20.59C395.92,254.26,396,256,396,256Z" transform="translate(21.48 0)"/><path class="cls-9" d="M376.88,211.82s1-16.83,6.27-25.51c0,0-.13-2.48-1.18-2.88s-5.09,2-5.09,2-2.51-1.72-3.06-.92S371.93,190.63,376.88,211.82Z" transform="translate(21.48 0)"/><path class="cls-16" d="M376.88,211.82s1-16.83,6.27-25.51c0,0-.13-2.48-1.18-2.88s-5.09,2-5.09,2-2.51-1.72-3.06-.92S371.93,190.63,376.88,211.82Z" transform="translate(21.48 0)"/><path class="cls-2" d="M349.6,260.61l1.37,1s-2-11.15-1.18-39.35c0-1.36.09-2.67.14-3.92,1-23.86,4.72-28.2,5-28.46l-3.46,1.18-6.27,2.16C343.31,213.57,349.6,260.61,349.6,260.61Z" transform="translate(21.48 0)"/><path class="cls-9" d="M350.14,214.23s-3.46-16.36-2.43-22,4.72-3.13,4.72-3.13,3.39-2.74,4.4.28C356.83,189.38,352.17,192.66,350.14,214.23Z" transform="translate(21.48 0)"/><path class="cls-16" d="M350.14,214.23s-3.46-16.36-2.43-22,4.72-3.13,4.72-3.13,3.39-2.74,4.4.28C356.83,189.38,352.17,192.66,350.14,214.23Z" transform="translate(21.48 0)"/><path class="cls-11" d="M392.64,214.35c-5.12-2.87-5.8-10.36-5.8-10.36.31-.12,2.21-.77,4.21-1.43C391.64,206.3,392.17,210.3,392.64,214.35Z" transform="translate(21.48 0)"/><path class="cls-11" d="M367.6,311.56l4.31-23.45-.83-12.41S365.17,297.22,367.6,311.56Z" transform="translate(21.48 0)"/><path class="cls-11" d="M395.75,251.34c-3.22-.22-6-.43-6-.43l-.61-13.09a4.64,4.64,0,0,1,3.37-.62,36.93,36.93,0,0,0,1.79-6.45C395,239.24,395.49,246.76,395.75,251.34Z" transform="translate(21.48 0)"/><polygon class="cls-17" points="418.33 230.74 412.06 240.81 417.02 243.66 422.91 234.59 418.33 230.74"/><path class="cls-2" d="M387.73,187.84c4.22.46,22.16,25.08,22.95,32.5s-10.54,20.23-10.54,20.23l-7.56-4.45s7.68-11.81,8.08-15S386.61,205,386.61,205a29.31,29.31,0,0,1-1.78-9.26C384.63,190.36,387.73,187.84,387.73,187.84Z" transform="translate(21.48 0)"/><path class="cls-2" d="M389.13,237.83s6.45,1.38,9.05,5.44c0,0-2.7,8.45-4.63,9.37s-6.71.92-6.71.92S386.53,244.16,389.13,237.83Z" transform="translate(21.48 0)"/></g></svg>