<?xml version="1.0" encoding="utf-8"?>
<!-- Generator: Adobe Illustrator 25.0.1, SVG Export Plug-In . SVG Version: 6.00 Build 0)  -->
<svg version="1.1" id="Layer_1" xmlns="http://www.w3.org/2000/svg" xmlns:xlink="http://www.w3.org/1999/xlink" x="0px" y="0px"
	 viewBox="0 0 1192.8 208.3" style="enable-background:new 0 0 1192.8 208.3;" xml:space="preserve">
<style type="text/css">
	.st0{fill:#071E33;}
</style>
<path class="st0" d="M170.5,15.1h66.9c40.2,0,69.7,17.1,69.7,51.2c0,16-6.3,29.2-17.1,38.6c15.4,9.6,25.3,24.5,25.3,44.6
	c0,37.7-31.7,58.4-71.9,58.4h-73V15.1H170.5z M237.5,88.1c14,0,20.7-5.5,20.7-15.7s-6.9-15.7-20.7-15.7h-17.9v31.4H237.5z
	 M243.5,166.4c15.7,0,22-7.4,22-18.2c0-10.2-6.3-17.9-22-17.9h-24v36.1H243.5z"/>
<path class="st0" d="M330.6,135.3c0-41,33.6-73,74.7-73s74.7,32,74.7,73s-33.6,73-74.7,73S330.6,176.3,330.6,135.3z M405.2,165.6
	c16.8,0,30.3-13.5,30.3-30.3s-13.5-30.6-30.3-30.6s-30.3,13.8-30.3,30.6S388.4,165.6,405.2,165.6z"/>
<path class="st0" d="M499.2,0h44.1v204.9h-44.1L499.2,0L499.2,0z"/>
<path class="st0" d="M562.5,135.3c0-39.4,27.3-73,69.7-73c15.2,0,28.1,4.7,38.6,12.4v-9.4h44.1V205h-44.1v-9.1
	c-10.5,7.7-23.4,12.4-38.6,12.4C589.8,208.3,562.5,174.4,562.5,135.3z M637.2,165.6c16.8,0,30.3-13.5,30.3-30.3
	s-13.5-30.6-30.3-30.6s-30.3,13.8-30.3,30.6S620.4,165.6,637.2,165.6z"/>
<path class="st0" d="M734.1,135.3c0-39.4,27.3-73,69.7-73c15.2,0,28.1,4.7,38.6,12.4V0h44.1v204.9h-44.1v-9.1
	c-10.5,7.7-23.4,12.4-38.6,12.4C761.4,208.3,734.1,174.4,734.1,135.3z M808.8,165.6c16.8,0,30.3-13.5,30.3-30.3
	s-13.5-30.6-30.3-30.6s-30.6,13.8-30.6,30.6S792,165.6,808.8,165.6z"/>
<path class="st0" d="M905.7,135.3c0-39.4,27.3-73,69.7-73c15.2,0,28.1,4.7,38.6,12.4v-9.4h44.1V205H1014v-9.1
	c-10.5,7.7-23.4,12.4-38.6,12.4C933,208.3,905.7,174.4,905.7,135.3z M980.4,165.6c16.8,0,30.3-13.5,30.3-30.3s-13.5-30.6-30.3-30.6
	s-30.3,13.8-30.3,30.6S963.6,165.6,980.4,165.6z"/>
<path class="st0" d="M1073.2,168l43.8-8c0,6.3,5.8,13.8,19,13.8c7.7,0,12.9-3.6,12.9-9.4c0-6.1-4.4-7.2-27-12.1
	c-22.9-5-42.1-14.9-42.1-43.8c0-30.6,27-46.3,52.6-46.3c26.2,0,47.4,12.4,53.2,35l-37.5,8.8c-1.1-3.9-5-9.4-14.6-9.4
	c-6.9,0-12.1,3.3-12.1,8.5c0,6.6,5.8,8,23.4,12.1c22,5.2,48.2,11.8,48.2,43.5c0,33.9-28.1,47.4-59.2,47.4
	C1102.7,208.3,1077.1,196.7,1073.2,168z"/>
<g>
	<path class="st0" d="M1.7,120.7c0-41.3,33.6-73,74.7-73c40.8,0,81.8,34.2,74.7,87.6H51.8c4.4,8.5,13.2,16,28.4,16
		c13.8,0,22.9-6.1,27.3-11.8l38.3,17.6c-11,20.9-34.7,36.6-65.6,36.6C31.7,193.7,1.7,161.7,1.7,120.7z M102.2,106.1
		c-4.4-9.4-13.5-16-25.9-16c-11.6,0-19.8,7.2-24.2,16H102.2z"/>
	<g>
		
			<rect x="36.8" y="38.4" transform="matrix(0.9513 -0.3083 0.3083 0.9513 -13.1745 19.2004)" class="st0" width="34.8" height="25.7"/>
		
			<rect x="81.7" y="177.3" transform="matrix(0.9513 -0.3083 0.3083 0.9513 -53.7801 39.8262)" class="st0" width="34.8" height="25.7"/>
	</g>
</g>
</svg>
