<?xml version="1.0" encoding="utf-8"?>
<!-- Generator: Adobe Illustrator 25.0.1, SVG Export Plug-In . SVG Version: 6.00 Build 0)  -->
<svg version="1.1" id="Layer_1" xmlns="http://www.w3.org/2000/svg" xmlns:xlink="http://www.w3.org/1999/xlink" x="0px" y="0px"
	 viewBox="0 0 1192.8 460.6" style="enable-background:new 0 0 1192.8 460.6;" xml:space="preserve">
<style type="text/css">
	.st0{opacity:0.5;}
	.st1{fill:#2F74B3;}
	.st2{fill:#FFFFFF;}
	.st3{fill:#071E33;}
</style>
<g class="st0">
	<g id="Layer_3">
	</g>
</g>
<g>
	<path class="st1" d="M-385.3,82.2c-9.9,0-18.5,3.1-25.5,8.2v-6.1h-29.1v113.1h29.1v-26.9c7,5.1,15.7,8.2,25.5,8.2
		c28.1,0,46.1-22.4,46.1-48.3C-339.3,104.4-357.3,82.2-385.3,82.2z M-388.7,150.6c-11.1,0-20-8.9-20-20s8.9-20.2,20-20.2
		s20.2,9,20.2,20.2C-368.5,141.7-377.5,150.6-388.7,150.6z"/>
	<path class="st1" d="M-326.5,84.2h29.2v12.2c4.7-9,12.9-14.2,26.6-14.2v27.6c-12.8-1.1-26.6,2.9-26.6,27.6v39.4h-29.2V84.2z"/>
	<path class="st1" d="M-263.4,130.5c0-26,18.1-48.3,46.1-48.3c10,0,18.6,3.1,25.5,8.2v-6.3h29.2v92.4h-29.2v-6
		c-7,5.1-15.4,8.2-25.5,8.2C-245.5,178.8-263.4,156.4-263.4,130.5z M-214,150.6c11.1,0,20-8.9,20-20s-8.9-20.2-20-20.2
		s-20,9-20,20.2C-234.2,141.7-225.1,150.6-214,150.6z"/>
	<path class="st1" d="M-146.2,41.1h29.4v79l22.3-35.9h32.3l-28.8,44.1l31.2,48.3h-33.7l-23.1-37.9v37.9h-29.4V41.1L-146.2,41.1
		L-146.2,41.1z"/>
	<rect x="-50.6" y="84.2" class="st1" width="29.4" height="92.4"/>
	<rect x="-50.6" y="41.1" class="st1" width="29.4" height="29.4"/>
</g>
<path class="st2" d="M-1212.8,299.2c0-87.3,60.4-161.7,154.5-161.7c33.5,0,62.2,10.4,85.4,27.4V-0.4h97.7v454.2h-97.7v-20.2
	c-23.2,17.1-51.9,27.4-85.4,27.4C-1152.4,461.1-1212.8,385.9-1212.8,299.2z M-1047.5,366.4c37.3,0,67.2-29.9,67.2-67.2
	s-29.9-67.8-67.2-67.8c-37.3,0-67.8,30.5-67.8,67.8C-1115.3,336.5-1084.6,366.4-1047.5,366.4z"/>
<path class="st2" d="M-832.6,299.2c0-87.3,60.4-161.7,154.5-161.7c33.5,0,62.2,10.4,85.4,27.4v-20.7h97.7v309.5h-97.7v-20.2
	c-23.2,17.1-51.9,27.4-85.4,27.4C-772.1,461.1-832.6,385.9-832.6,299.2z M-667.1,366.4c37.3,0,67.2-29.9,67.2-67.2
	s-29.9-67.8-67.2-67.8c-37.3,0-67.2,30.5-67.2,67.8C-734.2,336.5-704.4,366.4-667.1,366.4z"/>
<path class="st2" d="M-255.6,292l50-76.5h-105.6l-30.3,49v-49h-98.3v238.3h98.3V326.8l77.5,126.9h113L-255.6,292z"/>
<rect x="-119.5" y="285" class="st2" width="98.3" height="168.7"/>
<rect x="-440" y="0.3" class="st1" width="100.8" height="56.2"/>
<rect x="-120.8" y="215.4" class="st1" width="100.8" height="56.2"/>
<g>
	<path class="st1" d="M827.5,82.2c-9.9,0-18.5,3.1-25.5,8.2v-6.1h-29.1v113.1H802v-26.9c7,5.1,15.7,8.2,25.5,8.2
		c28.1,0,46.1-22.4,46.1-48.3C873.6,104.4,855.5,82.2,827.5,82.2z M824.2,150.6c-11.1,0-20-8.9-20-20s8.9-20.2,20-20.2
		c11.1,0,20.2,9,20.2,20.2C844.3,141.7,835.3,150.6,824.2,150.6z"/>
	<path class="st1" d="M886.4,84.2h29.2v12.2c4.7-9,12.9-14.2,26.6-14.2v27.6c-12.8-1.1-26.6,2.9-26.6,27.6v39.4h-29.2V84.2z"/>
	<path class="st1" d="M949.4,130.5c0-26,18.1-48.3,46.1-48.3c10,0,18.6,3.1,25.5,8.2v-6.3h29.2v92.4h-29.2v-6
		c-7,5.1-15.4,8.2-25.5,8.2C967.4,178.8,949.4,156.4,949.4,130.5z M998.8,150.6c11.1,0,20-8.9,20-20s-8.9-20.2-20-20.2
		c-11.1,0-20,9-20,20.2C978.6,141.7,987.7,150.6,998.8,150.6z"/>
	<path class="st1" d="M1066.6,41.1h29.4v79l22.3-35.9h32.3l-28.8,44.1l31.2,48.3h-33.7l-23.1-37.9v37.9h-29.4V41.1L1066.6,41.1
		L1066.6,41.1z"/>
	<rect x="1162.2" y="84.2" class="st1" width="29.4" height="92.4"/>
	<rect x="1162.2" y="41.1" class="st1" width="29.4" height="29.4"/>
</g>
<path class="st3" d="M0,299.2C0,212,60.4,137.5,154.5,137.5c33.5,0,62.2,10.4,85.4,27.4V-0.4h97.7v454.2h-97.7v-20.2
	c-23.2,17.1-51.9,27.4-85.4,27.4C60.4,461.1,0,385.9,0,299.2z M165.3,366.4c37.3,0,67.2-29.9,67.2-67.2s-29.9-67.8-67.2-67.8
	s-67.8,30.5-67.8,67.8C97.6,336.5,128.2,366.4,165.3,366.4z"/>
<path class="st3" d="M380.2,299.2c0-87.3,60.4-161.7,154.5-161.7c33.5,0,62.2,10.4,85.4,27.4v-20.7h97.7v309.5h-97.7v-20.2
	c-23.2,17.1-51.9,27.4-85.4,27.4C440.7,461.1,380.2,385.9,380.2,299.2z M545.7,366.4c37.3,0,67.2-29.9,67.2-67.2
	s-29.9-67.8-67.2-67.8c-37.3,0-67.2,30.5-67.2,67.8C478.6,336.5,508.4,366.4,545.7,366.4z"/>
<path class="st3" d="M957.2,292l50-76.5H901.5l-30.3,49v-49h-98.3v238.3h98.3V326.8l77.5,126.9h113L957.2,292z"/>
<rect x="1093.3" y="285" class="st3" width="98.3" height="168.7"/>
<rect x="772.8" y="0.3" class="st1" width="100.8" height="56.2"/>
<rect x="1092.1" y="215.4" class="st1" width="100.8" height="56.2"/>
</svg>
