<svg id="Layer_3" data-name="Layer 3" xmlns="http://www.w3.org/2000/svg" viewBox="0 0 1021.84 1034.45"><defs><style>.cls-1{fill:#4c3890;}.cls-2{fill:#8f7db6;}.cls-3{fill:#d9d9d9;}.cls-4{fill:#e8e8e8;}</style></defs><path class="cls-1" d="M1007.39,517.22a490.71,490.71,0,0,1-13.64,115.39C949.15,818.5,799.1,963.32,610.39,1000.33q-13,2.59-26.38,4.43a492.31,492.31,0,0,1-69,4.84q-16.59,0-32.9-1.13c155.8-2.25,25.71-82.84,44.42-96.13v0h0c112.66-5.22,205.73-76.91,227.1-174.09,4.92-22.27,3.21-42.84-12.46-59.42-12.89-13.67-12.66-18.82,5.68-27.16,97.24-44.27,148.85-144,129.35-246.45C856.17,299.87,768.31,220.58,662.29,216.6c-55.2-2.07-110.23,3.3-144.52,57.27a0,0,0,0,0,0,0c-13.48-31-5.52-63.55-6.08-95.3-.49-28.9-1.17-53.05-41.19-40.27-7,2.27-16.67,2.49-20.89-5.65-4.88-9.44,5-13.37,10-18.53,11.94-12.25,28.47-20.7,35.53-43.93-27.46,10.48-50.67,21.2-76.48,18.93-7.58-.7-16.77,1.08-21.07-6.7-5-8.88,3.56-14.19,8.45-19.63,9-10,17.5-20.33,25.77-30.86A489.42,489.42,0,0,1,515,24.85c231.35,0,425.46,159.59,478.18,374.66A492.66,492.66,0,0,1,1007.39,517.22Z"/><path class="cls-2" d="M526.54,912.34v0q-4.8-1.25-9.61-2.52v0c-2.65,0-5.28,0-7.91-.09-97.48-1.87-176.45-38.23-224.64-128.24-29.28-54.71-25.37-78,13.9-122.53C143.77,610.18,116.2,445.16,165.33,345.33,212.24,250,328.81,196.7,430.18,227.87c32.86,10.11,62,25.68,75.06,60.67,1.8-2.1,3.6-4.23,5.42-6.33,2.36-2.78,4.73-5.55,7.11-8.34a0,0,0,0,0,0,0c-13.48-31-5.52-63.55-6.08-95.3-.49-28.9-1.17-53.05-41.19-40.27-7,2.27-16.67,2.49-20.89-5.65-4.88-9.44,5-13.37,10-18.53,11.94-12.25,28.47-20.7,35.53-43.93-27.46,10.48-50.67,21.2-76.48,18.93-7.58-.7-16.77,1.08-21.07-6.7-5-8.88,3.56-14.19,8.45-19.63,9-10,17.5-20.33,25.77-30.86-9.24,1.51-18.34,3.35-27.34,5.43C223.23,78.91,80.24,220.44,36.53,400.74A495.24,495.24,0,0,0,36.14,632c44,184.84,192.4,329.23,379.42,367.57q12.39,2.54,25.06,4.48c7.23,1.1,14.54,2.05,21.9,2.79q9.72,1.07,19.6,1.66C637.92,1006.22,507.83,925.63,526.54,912.34ZM506.79,971s0,0,0-.09.06,0,.06,0S506.82,971,506.79,971Zm4.48-6.79s0,0,0,.09v-.14h.08S511.31,964.24,511.27,964.24Z"/><path class="cls-3" d="M746.88,651.65c97.24-44.27,148.85-144,129.35-246.45C856.17,299.87,768.31,220.58,662.29,216.6c-55.2-2.07-110.23,3.3-144.52,57.27-2.38,2.79-4.75,5.56-7.11,8.34-1.82,2.1-3.62,4.23-5.42,6.33a117.89,117.89,0,0,1,3.17,12.21c3.6,17.8,3.22,36,3.22,54.1q0,245.92,0,491.83c0,17.83-.27,35.69,3,53.25.24,1.28.49,2.56.78,3.84q.64,3,1.48,6,4.8,1.28,9.61,2.52h0c112.66-5.22,205.73-76.91,227.1-174.09,4.92-22.27,3.21-42.84-12.46-59.42C728.31,665.14,728.54,660,746.88,651.65ZM577.51,531.77c43.65-37.1,101.26-36.94,150.15.14C718.51,531.14,654.42,501.55,577.51,531.77Z"/><path class="cls-3" d="M727.66,531.91c-9.15-.77-73.24-30.36-150.15-.14C621.16,494.67,678.77,494.83,727.66,531.91Z"/><path class="cls-4" d="M515.45,903.77c-.29-1.28-.54-2.56-.78-3.84-3.29-17.56-3-35.42-3-53.25q0-245.89,0-491.83c0-18.11.38-36.3-3.22-54.1a117.89,117.89,0,0,0-3.17-12.21c-13.08-35-42.2-50.56-75.06-60.67C328.81,196.7,212.24,250,165.33,345.33,116.2,445.16,143.77,610.18,298.28,659c-39.27,44.57-43.18,67.82-13.9,122.53,48.19,90,127.16,126.37,224.64,128.24,2.63.07,5.26.09,7.91.09v0Q516.09,906.8,515.45,903.77ZM268.8,529.59c43.66-37.1,101.27-36.94,150.16.14C409.81,529,345.72,499.39,268.8,529.59Z"/><path class="cls-4" d="M419,529.73c-9.15-.77-73.24-30.34-150.16-.14C312.46,492.49,370.07,492.65,419,529.73Z"/><path class="cls-1" d="M419,529.73c-9.15-.77-73.24-30.34-150.16-.14C312.46,492.49,370.07,492.65,419,529.73Z"/><path class="cls-1" d="M727.66,531.91c-9.15-.77-73.24-30.36-150.15-.14C621.16,494.67,678.77,494.83,727.66,531.91Z"/></svg>