<svg id="Layer_3" data-name="Layer 3" xmlns="http://www.w3.org/2000/svg" viewBox="0 0 1491.06 1034.45"><defs><style>.cls-1{fill:#4c3890;}.cls-2{fill:#8f7db6;}.cls-3{fill:#d9d9d9;}.cls-4{fill:#e8e8e8;}</style></defs><path class="cls-1" d="M157.31,568.9l-4-2.79q-14.92,6.9-34.9,5.21T76.72,554.56A107.88,107.88,0,0,1,45.88,521.8,113,113,0,0,1,30.5,479.23a125.43,125.43,0,0,1,2.36-47.52q5.78-24.58,22-47.87t37.23-37.26a125.22,125.22,0,0,1,43.72-18.75,112.92,112.92,0,0,1,45.26-.4,107.76,107.76,0,0,1,41.45,17.5q21.69,15.09,30.22,33.23T260,412.7l4,2.79,15.54-30.9,58.65-84.33,60.23,41.89-200,287.54-56.22-39.1Zm-28.24-61.34a60.14,60.14,0,0,0,20.65,9.29,57.71,57.71,0,0,0,22,1,53.79,53.79,0,0,0,21-8,63,63,0,0,0,17.92-17.63,61.33,61.33,0,0,0,10.15-22.73,57.19,57.19,0,0,0,.17-22.53,56.16,56.16,0,0,0-8.42-20.45A61.57,61.57,0,0,0,176,401.08a56.18,56.18,0,0,0-22.1-.78,57.31,57.31,0,0,0-21.06,8,61.31,61.31,0,0,0-17.78,17.43,62.9,62.9,0,0,0-10.28,22.93,53.82,53.82,0,0,0-.18,22.52,57.89,57.89,0,0,0,8.56,20.26A60,60,0,0,0,129.07,507.56Z"/><path class="cls-2" d="M340.91,551.31l4,2.76q14.87-7,34.87-5.49T421.61,565a107.81,107.81,0,0,1,31.09,32.53A113.35,113.35,0,0,1,468.4,640a125.44,125.44,0,0,1-2,47.53q-5.58,24.62-21.6,48t-36.95,37.55a125.79,125.79,0,0,1-43.58,19.08A113,113,0,0,1,319,793a107.91,107.91,0,0,1-41.58-17.18q-21.8-14.92-30.46-33t-7.53-34.49l-4-2.76-15.3,31-55.24,80.75-60.56-41.43,195-285,56.52,38.67Zm28.71,61.12a60,60,0,0,0-20.72-9.13,56.21,56.21,0,0,0-22.11-.61,57.25,57.25,0,0,0-21,8.16,61.08,61.08,0,0,0-17.64,17.56,62.78,62.78,0,0,0-10.11,23,53.74,53.74,0,0,0,0,22.52,57.68,57.68,0,0,0,8.71,20.18,61.66,61.66,0,0,0,36.74,25.14,57.93,57.93,0,0,0,22,.8,53.78,53.78,0,0,0,21-8.16,63,63,0,0,0,17.78-17.76,61.15,61.15,0,0,0,10-22.81,57.28,57.28,0,0,0,0-22.52,56,56,0,0,0-8.57-20.39A60.2,60.2,0,0,0,369.62,612.43Z"/><path class="cls-1" d="M1470.33,511.71A491.24,491.24,0,0,1,1456.7,627.1C1412.09,813,1262,957.81,1073.33,994.82q-13,2.59-26.38,4.43a492.31,492.31,0,0,1-69,4.84q-16.59,0-32.9-1.13c155.81-2.25,25.71-82.84,44.42-96.13v0h0c112.66-5.22,205.73-76.91,227.11-174.09,4.91-22.27,3.2-42.84-12.46-59.42-12.9-13.67-12.66-18.82,5.67-27.16,97.24-44.26,148.86-144,129.35-246.45-20.06-105.33-107.92-184.62-213.94-188.6C1070,209,1015,214.39,980.71,268.36c0,0,0,0,0,0-13.49-31-5.53-63.55-6.09-95.3-.49-28.9-1.17-53-41.19-40.27-7,2.27-16.67,2.49-20.89-5.65-4.88-9.44,5-13.36,10-18.53C934.43,96.34,951,87.89,958,64.66c-27.46,10.48-50.67,21.2-76.48,18.93-7.58-.7-16.76,1.08-21.07-6.7-5-8.88,3.57-14.19,8.45-19.63,9-10,17.5-20.33,25.77-30.86A489.42,489.42,0,0,1,978,19.34c231.35,0,425.47,159.59,478.18,374.66A492.66,492.66,0,0,1,1470.33,511.71Z"/><path class="cls-2" d="M989.48,906.83v0q-4.8-1.24-9.61-2.52v0c-2.65,0-5.28,0-7.91-.09C874.48,902.35,795.52,866,747.32,776,718,721.27,722,698,761.23,653.45c-154.52-48.78-182.09-213.8-133-313.63,46.91-95.31,163.48-148.63,264.85-117.46C926,232.47,955.11,248,968.18,283c1.8-2.1,3.6-4.23,5.42-6.33,2.36-2.78,4.74-5.55,7.11-8.34,0,0,0,0,0,0-13.49-31-5.53-63.55-6.09-95.3-.49-28.9-1.17-53-41.19-40.27-7,2.27-16.67,2.49-20.89-5.65-4.88-9.44,5-13.36,10-18.53C934.43,96.34,951,87.89,958,64.66c-27.46,10.48-50.67,21.2-76.48,18.93-7.58-.7-16.76,1.08-21.07-6.7-5-8.88,3.57-14.19,8.45-19.63,9-10,17.5-20.33,25.77-30.86-9.24,1.51-18.33,3.35-27.34,5.43C686.17,73.4,543.18,214.93,499.47,395.23a495.24,495.24,0,0,0-.39,231.23C543.13,811.3,691.48,955.69,878.5,994q12.39,2.54,25.07,4.48c7.22,1.1,14.53,2,21.89,2.79q9.74,1.07,19.6,1.66C1100.87,1000.71,970.77,920.12,989.48,906.83Zm-19.75,58.69s0,0,0-.09.05,0,.05,0S969.77,965.52,969.73,965.52Zm4.48-6.79s0,0,0,.09v-.14h.07S974.25,958.73,974.21,958.73Z"/><path class="cls-3" d="M1209.82,646.14c97.24-44.26,148.86-144,129.35-246.45-20.06-105.33-107.92-184.62-213.94-188.6C1070,209,1015,214.39,980.71,268.36c-2.37,2.79-4.75,5.56-7.11,8.34-1.82,2.1-3.62,4.23-5.42,6.33a115.41,115.41,0,0,1,3.17,12.21c3.6,17.8,3.22,36,3.22,54.1q0,245.93,0,491.83c0,17.83-.27,35.69,3,53.25.23,1.28.48,2.56.77,3.84q.65,3,1.48,6,4.8,1.28,9.61,2.52h0c112.66-5.22,205.73-76.91,227.11-174.09,4.91-22.27,3.2-42.84-12.46-59.42C1191.25,659.63,1191.49,654.48,1209.82,646.14ZM1040.45,526.26c43.65-37.1,101.26-36.94,150.15.14C1181.45,525.63,1117.36,496,1040.45,526.26Z"/><path class="cls-3" d="M1190.6,526.4c-9.15-.77-73.24-30.36-150.15-.14C1084.1,489.16,1141.71,489.32,1190.6,526.4Z"/><path class="cls-4" d="M978.39,898.26c-.29-1.28-.54-2.56-.77-3.84-3.3-17.56-3-35.42-3-53.25q0-245.89,0-491.83c0-18.11.38-36.3-3.22-54.1A115.41,115.41,0,0,0,968.18,283c-13.07-35-42.19-50.56-75.06-60.67-101.37-31.17-217.94,22.15-264.85,117.46-49.13,99.83-21.56,264.85,133,313.63C722,698,718,721.27,747.32,776,795.52,866,874.48,902.35,972,904.22c2.63.07,5.26.09,7.91.09v0Q979,901.29,978.39,898.26ZM731.75,524.08C775.4,487,833,487.14,881.9,524.22,872.75,523.45,808.66,493.88,731.75,524.08Z"/><path class="cls-4" d="M881.9,524.22c-9.15-.77-73.24-30.34-150.15-.14C775.4,487,833,487.14,881.9,524.22Z"/><path class="cls-1" d="M881.9,524.22c-9.15-.77-73.24-30.34-150.15-.14C775.4,487,833,487.14,881.9,524.22Z"/><path class="cls-1" d="M1190.6,526.4c-9.15-.77-73.24-30.36-150.15-.14C1084.1,489.16,1141.71,489.32,1190.6,526.4Z"/></svg>