<svg id="Layer_1" data-name="Layer 1" xmlns="http://www.w3.org/2000/svg" viewBox="0 0 1192.82 460.65"><defs><style>.cls-1{fill:#2f74b3;}.cls-2{fill:#fff;}</style></defs><path class="cls-1" d="M827.5,82.25A42.22,42.22,0,0,0,802,90.46V84.34H772.94V197.48H802V170.62a42.53,42.53,0,0,0,25.47,8.21c28.11,0,46.06-22.4,46.06-48.29C873.56,104.38,855.47,82.25,827.5,82.25Zm-3.34,68.33a20.11,20.11,0,0,1,0-40.22,20.11,20.11,0,1,1,0,40.22Z"/><path class="cls-1" d="M886.37,84.2h29.22V96.44c4.73-9,12.95-14.19,26.58-14.19V109.8c-12.8-1.11-26.58,2.93-26.58,27.56v39.38H886.37Z"/><path class="cls-1" d="M949.41,130.54c0-26,18.09-48.29,46.07-48.29a41.58,41.58,0,0,1,25.46,8.21V84.2h29.23v92.41h-29.23v-6a41.88,41.88,0,0,1-25.46,8.21C967.36,178.83,949.41,156.43,949.41,130.54Zm49.41,20a20.11,20.11,0,1,0-20-20A20,20,0,0,0,998.82,150.58Z"/><path class="cls-1" d="M1066.59,41.05H1096V120.1l22.26-35.9h32.29l-28.81,44.11,31.18,48.3H1119.2l-23.11-37.86v37.86h-29.36V41.05Z"/><rect class="cls-1" x="1162.2" y="84.2" width="29.36" height="92.41"/><rect class="cls-1" x="1162.2" y="41.05" width="29.36" height="29.36"/><path class="cls-2" d="M0,299.21C0,212,60.4,137.5,154.48,137.5c33.54,0,62.21,10.44,85.45,27.42V-.42h97.69V453.83H239.93V433.65c-23.24,17.12-51.91,27.42-85.45,27.42C60.4,461.07,0,385.92,0,299.21Zm165.33,67.22a67,67,0,0,0,67.22-67.22c0-37.29-29.92-67.77-67.22-67.77a68,68,0,0,0-67.77,67.77C97.56,336.51,128.17,366.43,165.33,366.43Z"/><path class="cls-2" d="M380.21,299.21c0-87.26,60.4-161.71,154.48-161.71,33.54,0,62.21,10.44,85.45,27.42V144.18h97.69V453.69H620.14V433.51c-23.24,17.12-51.91,27.42-85.45,27.42C440.75,461.07,380.21,385.92,380.21,299.21Zm165.47,67.22a67,67,0,0,0,67.22-67.22c0-37.29-29.92-67.77-67.22-67.77s-67.22,30.48-67.22,67.77A67.09,67.09,0,0,0,545.68,366.43Z"/><path class="cls-2" d="M957.2,292l50-76.55H901.54l-30.34,49v-49H772.94V453.69H871.2V326.77l77.51,126.92h113Z"/><rect class="cls-2" x="1093.31" y="285.02" width="98.25" height="168.67"/><rect class="cls-1" x="772.81" y="0.28" width="100.76" height="56.22"/><rect class="cls-1" x="1092.06" y="215.43" width="100.76" height="56.22"/></svg>