<svg id="Layer_3" data-name="Layer 3" xmlns="http://www.w3.org/2000/svg" viewBox="0 0 2600.32 494.02"><defs><style>.cls-1{fill:#fff;}.cls-2{fill:#e8e8e8;}.cls-3{fill:#d9d9d9;}</style></defs><path class="cls-1" d="M226.26,375.86h-4.89Q213,390,195.69,400.07t-43.78,10a107.73,107.73,0,0,1-44-9.29A112.88,112.88,0,0,1,71,374.63a125.17,125.17,0,0,1-25.2-40.35q-9.3-23.47-9.29-51.85t9.29-51.85A125.06,125.06,0,0,1,71,190.23a112.62,112.62,0,0,1,36.93-26.17,107.74,107.74,0,0,1,44-9.3q26.41,0,43.78,10T221.37,189h4.89l-4.89-34.24V52h73.37V402.27H226.26Zm-58.21-34.24a59.91,59.91,0,0,0,22.26-4.16,58,58,0,0,0,18.59-11.74,53.87,53.87,0,0,0,12.71-18.59,62.8,62.8,0,0,0,4.65-24.7A61.08,61.08,0,0,0,221.61,258a57,57,0,0,0-12.71-18.58,56.26,56.26,0,0,0-18.59-12,61.6,61.6,0,0,0-44.52,0,56.22,56.22,0,0,0-18.58,12A57,57,0,0,0,114.49,258a61.23,61.23,0,0,0-4.65,24.46,62.8,62.8,0,0,0,4.65,24.7,53.67,53.67,0,0,0,12.72,18.59,57.93,57.93,0,0,0,18.58,11.74,59.92,59.92,0,0,0,22.26,4.13Z" transform="translate(-36.51 -13.91)"/><path class="cls-1" d="M490.9,380.75H486a106.59,106.59,0,0,1-26.66,21q-14.93,8.31-38.39,8.32a97.55,97.55,0,0,1-34-5.87,85.73,85.73,0,0,1-27.88-16.63,76.74,76.74,0,0,1-18.83-25.93,81,81,0,0,1-6.85-33.75,73.74,73.74,0,0,1,7.34-33,78.9,78.9,0,0,1,20-25.68,91.23,91.23,0,0,1,30.08-16.63,117.88,117.88,0,0,1,37.91-5.87q22,0,36.44,2.94a201.72,201.72,0,0,1,25.69,6.84v-6.35q0-15.66-13-26.66t-35-11q-31.8,0-54.79,25.93l-49.89-35.22q20.55-24.47,47.69-36.44t59.92-12q58.71,0,88.54,26.17t29.84,79.49V402.27H490.9Zm0-72.88A150.35,150.35,0,0,0,468.64,301a104.22,104.22,0,0,0-22.75-2.45q-19.56,0-29.35,8.07a25.74,25.74,0,0,0-9.78,20.79q0,12.73,9.3,20.3t24.45,7.58a53.82,53.82,0,0,0,21.77-4.16,46.86,46.86,0,0,0,15.9-11,46.11,46.11,0,0,0,9.54-15.41A48.53,48.53,0,0,0,490.9,307.87Z" transform="translate(-36.51 -13.91)"/><path class="cls-1" d="M615.13,52h73.38V230.09h4.89l68.48-67.5h89.51v4.89l-86.58,83.15L860.2,397.38v4.89H774.11L713,301l-24.49,23.5v77.77H615.13Z" transform="translate(-36.51 -13.91)"/><path class="cls-1" d="M926.23,140.09a44.37,44.37,0,0,1-18.1-3.67,46.21,46.21,0,0,1-24.21-24.21,44.37,44.37,0,0,1-3.67-18.1,45,45,0,0,1,3.67-17.86,46.32,46.32,0,0,1,9.78-14.67,46.84,46.84,0,0,1,14.43-9.79,44.36,44.36,0,0,1,18.1-3.66,46.16,46.16,0,0,1,46,46,44.37,44.37,0,0,1-3.67,18.1,47.17,47.17,0,0,1-9.78,14.43,46.36,46.36,0,0,1-14.68,9.78A44.91,44.91,0,0,1,926.23,140.09ZM889.54,402.27V162.59h73.37V402.27Z" transform="translate(-36.51 -13.91)"/><path class="cls-1" d="M1088.14,189H1093q8.31-14.17,25.68-24.21t43.78-10a107.74,107.74,0,0,1,44,9.3,112.87,112.87,0,0,1,36.93,26.17,125.45,125.45,0,0,1,25.2,40.35q9.29,23.47,9.29,51.85t-9.29,51.85a125.45,125.45,0,0,1-25.2,40.35,113,113,0,0,1-36.93,26.18,107.89,107.89,0,0,1-44,9.29q-26.42,0-43.78-10T1093,375.86h-4.89L1093,410.1v97.83h-73.37V162.59h68.48Zm58.21,34.24a59.91,59.91,0,0,0-22.26,4.16,56.26,56.26,0,0,0-18.59,12,57.09,57.09,0,0,0-12.71,18.6,60.88,60.88,0,0,0-4.65,24.46,62.8,62.8,0,0,0,4.65,24.7,53.64,53.64,0,0,0,12.71,18.59,58,58,0,0,0,18.59,11.74,61.57,61.57,0,0,0,44.51,0,58,58,0,0,0,18.59-11.74,53.9,53.9,0,0,0,12.72-18.59,63.16,63.16,0,0,0,4.65-24.7,61.23,61.23,0,0,0-4.65-24.46,57,57,0,0,0-12.72-18.58,56.26,56.26,0,0,0-18.59-12A60.08,60.08,0,0,0,1146.35,223.24Z" transform="translate(-36.51 -13.91)"/><path class="cls-1" d="M1316.57,162.59h68.48v30.33h4.89q9.78-15.66,27.88-26.91a74.48,74.48,0,0,1,40.11-11.25,73.45,73.45,0,0,1,23,3.23,75.73,75.73,0,0,1,16.14,7.19L1478,230.58a65.15,65.15,0,0,0-13.45-5.38,72.16,72.16,0,0,0-18.35-2q-27.39,0-41.82,19.08T1390,292.17v110.1h-73.37Z" transform="translate(-36.51 -13.91)"/><path class="cls-1" d="M1660.44,380.75h-4.89a107,107,0,0,1-26.66,21q-14.92,8.31-38.4,8.32a97.32,97.32,0,0,1-34-5.87,85.78,85.78,0,0,1-27.89-16.63,76.74,76.74,0,0,1-18.83-25.93,81,81,0,0,1-6.85-33.75,73.74,73.74,0,0,1,7.34-33,78.9,78.9,0,0,1,20-25.68,91.38,91.38,0,0,1,30.09-16.63,117.61,117.61,0,0,1,37.91-5.87q22,0,36.44,2.94a201.58,201.58,0,0,1,25.68,6.84v-6.35q0-15.66-13-26.66t-35-11q-31.8,0-54.78,25.93l-49.9-35.22q20.55-24.47,47.7-36.44t59.92-12q58.7,0,88.53,26.17t29.84,79.49V402.27h-73.37Zm0-72.88a151.47,151.47,0,0,0-22.26-6.85,104.13,104.13,0,0,0-22.74-2.45q-19.57,0-29.35,8.07a25.72,25.72,0,0,0-9.79,20.79q0,12.74,9.3,20.3t24.46,7.58a53.82,53.82,0,0,0,21.77-4.16,46.82,46.82,0,0,0,15.89-11,45.86,45.86,0,0,0,9.54-15.41A48.18,48.18,0,0,0,1660.44,307.87Z" transform="translate(-36.51 -13.91)"/><path class="cls-1" d="M1784.68,52h73.37V230.09h4.89l68.48-67.5h89.52v4.89l-86.58,83.15,95.38,146.75v4.89h-86.09L1882.51,301l-24.46,23.48v77.77h-73.37Z" transform="translate(-36.51 -13.91)"/><path class="cls-1" d="M2095.77,140.09a44.37,44.37,0,0,1-18.1-3.67,46.28,46.28,0,0,1-24.21-24.21,44.37,44.37,0,0,1-3.67-18.1,45,45,0,0,1,3.67-17.86,46.35,46.35,0,0,1,9.79-14.67,47,47,0,0,1,14.42-9.79,46,46,0,0,1,36,0,46.18,46.18,0,0,1,28.12,42.32,44.37,44.37,0,0,1-3.67,18.1,47,47,0,0,1-9.78,14.43,46.32,46.32,0,0,1-14.67,9.78A45,45,0,0,1,2095.77,140.09Zm-36.68,262.18V162.59h73.37V402.27Z" transform="translate(-36.51 -13.91)"/><path class="cls-2" d="M2636.83,254.55a230,230,0,0,1-7,56.07c-22.19,91.12-94.62,161.21-186.9,178.73-4.67,1.17-8.18,1.17-12.85,2.34-11.68,1.16-22.2,2.33-33.88,2.33-5.84,0-10.51,0-16.35-1.17,75.93-1.16,12.85-39.71,22.19-46.72h0c54.91-2.34,100.46-37.38,111-84.11a29.48,29.48,0,0,0-5.84-29.2c-5.84-7-5.84-9.35,2.33-12.85,46.73-19.86,72.43-70.09,63.08-120.32-9.34-51.4-52.56-88.79-104-92.29-26.87-1.17-53.74,1.17-70.09,28h0c-7-15.19-2.34-30.38-2.34-46.73s0-25.7-19.86-19.86a7.6,7.6,0,0,1-10.51-2.34c-2.34-4.67,2.34-7,4.67-9.34,5.84-5.84,14-10.51,17.52-21-11.68,5.84-24.53,9.35-37.38,9.35-3.5,0-8.17,1.17-10.51-3.51s1.17-7,4.67-9.34c4.67-4.67,8.18-10.52,12.85-15.19a232.25,232.25,0,0,1,40.89-3.5c111,0,206.76,75.93,232.46,182.23C2634.5,216,2636.83,234.69,2636.83,254.55Z" transform="translate(-36.51 -13.91)"/><path class="cls-3" d="M2402,447.3h0l-4.67-1.17h-3.5c-47.9-1.17-86.45-18.69-109.81-63.08-14-26.87-12.85-37.38,7-59.58-74.77-23.36-88.78-104-64.25-153a111.14,111.14,0,0,1,128.5-57.24c16.35,3.51,30.37,14,36.21,29.21l2.34-3.51,3.5-3.5h0c-7-15.19-2.34-30.38-2.34-46.73s0-25.7-19.86-19.86a7.6,7.6,0,0,1-10.51-2.34c-2.34-4.67,2.34-7,4.67-9.34,5.84-5.84,14-10.51,17.53-21-11.69,5.84-24.54,9.35-37.39,9.35-3.5,0-8.17,1.17-10.51-3.51s1.17-7,4.67-9.34c4.68-4.67,8.18-10.52,12.85-15.19-4.67,1.17-9.34,1.17-12.85,2.34-128.49,30.37-209.1,158.87-179.89,287.37a239.78,239.78,0,0,0,185.73,181.06l11.69,2.34,10.51,1.17c3.5,0,5.84,1.16,9.34,1.16C2456.94,492.85,2393.86,453.14,2402,447.3Z" transform="translate(-36.51 -13.91)"/><path class="cls-3" d="M2509.5,320c46.73-19.86,72.43-70.09,63.08-120.32-9.34-51.4-52.56-88.79-104-92.29-26.87-1.17-53.74,1.17-70.09,28l-3.51,3.5-2.33,3.51c0,2.33,1.17,3.5,1.17,5.84,1.16,8.17,2.33,17.52,1.16,25.7V413.42c0,8.18,0,17.52,1.17,25.7v2.34l1.17,2.33L2402,445h0c54.91-2.34,100.46-37.38,111-84.11a29.48,29.48,0,0,0-5.84-29.2C2500.16,327,2501.33,324.64,2509.5,320Zm-82.94-58.41a58.1,58.1,0,0,1,73.6,0c-23.37-8.18-49.06-8.18-73.6,0Z" transform="translate(-36.51 -13.91)"/><path class="cls-2" d="M2395.36,441.62v-2.33c-1.17-8.18-2.34-17.53-1.17-25.7V174.11c0-9.34,0-17.52-1.17-25.7,0-2.33-1.17-3.5-1.17-5.84-7-15.18-19.86-26.87-36.21-29.2a111.14,111.14,0,0,0-128.5,57.24c-23.36,49.06-10.51,128.5,64.25,153-18.69,22.19-21,32.71-7,59.57,23.37,44.39,61.91,61.92,109.81,63.09h3.5ZM2275,259.39c21-17.52,52.56-17.52,73.59,0-24.53-8.18-50.23-8.18-73.59,0Z" transform="translate(-36.51 -13.91)"/><path class="cls-3" d="M2348.63,259.39c-23.36-8.18-49.06-8.18-73.59,0C2296.06,241.87,2327.6,241.87,2348.63,259.39Z" transform="translate(-36.51 -13.91)"/><path class="cls-2" d="M2500.16,261.56c-23.37-8.18-49.06-8.18-73.6,0C2448.76,244,2479.13,244,2500.16,261.56Z" transform="translate(-36.51 -13.91)"/></svg>