<svg id="Layer_3" data-name="Layer 3" xmlns="http://www.w3.org/2000/svg" viewBox="0 0 2720.68 507.93"><defs><style>.cls-1{fill:#fff;}.cls-2{fill:#4c3890;}.cls-3{fill:#8f7db6;}.cls-4{fill:none;}.cls-5{fill:#d9d9d9;}.cls-6{fill:#e8e8e8;}</style></defs><path class="cls-1" d="M226.26,375.86h-4.89Q213,390,195.69,400.07t-43.78,10a107.79,107.79,0,0,1-44-9.29A112.81,112.81,0,0,1,71,374.63a125.16,125.16,0,0,1-25.2-40.35q-9.3-23.47-9.29-51.85t9.29-51.85A125.06,125.06,0,0,1,71,190.23a112.63,112.63,0,0,1,36.93-26.17,107.8,107.8,0,0,1,44-9.3q26.42,0,43.78,10T221.37,189h4.89l-4.89-34.24V52h73.37V402.27H226.26Zm-58.21-34.24a60.06,60.06,0,0,0,22.26-4.16,58,58,0,0,0,18.59-11.74,53.82,53.82,0,0,0,12.71-18.59,62.9,62.9,0,0,0,4.65-24.7A61.15,61.15,0,0,0,221.61,258a57.08,57.08,0,0,0-12.71-18.58,56.25,56.25,0,0,0-18.59-12,61.64,61.64,0,0,0-44.52,0,56.1,56.1,0,0,0-18.58,12A57,57,0,0,0,114.49,258a61.15,61.15,0,0,0-4.65,24.46,62.9,62.9,0,0,0,4.65,24.7,53.71,53.71,0,0,0,12.72,18.59,57.89,57.89,0,0,0,18.58,11.74A60,60,0,0,0,168.05,341.62Z"/><path class="cls-1" d="M490.9,380.75H486a106.63,106.63,0,0,1-26.66,21q-14.93,8.31-38.39,8.32a97.41,97.41,0,0,1-34-5.87,85.85,85.85,0,0,1-27.88-16.63,76.72,76.72,0,0,1-18.83-25.93,81,81,0,0,1-6.85-33.75,73.85,73.85,0,0,1,7.34-33,79,79,0,0,1,20-25.68,91.23,91.23,0,0,1,30.08-16.63,117.85,117.85,0,0,1,37.91-5.87q22,0,36.44,2.94a200.85,200.85,0,0,1,25.69,6.84v-6.35q0-15.66-13-26.66t-35-11q-31.8,0-54.79,25.93l-49.89-35.22q20.55-24.47,47.69-36.44t59.92-12q58.71,0,88.54,26.17t29.84,79.49V402.27H490.9Zm0-72.88A150.6,150.6,0,0,0,468.64,301a104.61,104.61,0,0,0-22.75-2.45q-19.56,0-29.35,8.07a25.74,25.74,0,0,0-9.78,20.79q0,12.74,9.3,20.3t24.45,7.58a53.88,53.88,0,0,0,21.77-4.16,46.81,46.81,0,0,0,15.9-11,46.24,46.24,0,0,0,9.54-15.41A48.38,48.38,0,0,0,490.9,307.87Z"/><path class="cls-1" d="M615.13,52h73.38V230.09h4.89l68.48-67.5h89.51v4.89l-86.58,83.15L860.2,397.38v4.89H774.11L713,301,688.51,324.5v77.77H615.13Z"/><path class="cls-1" d="M926.23,140.09a44.4,44.4,0,0,1-18.1-3.67,46.21,46.21,0,0,1-24.21-24.21,44.3,44.3,0,0,1-3.67-18.1,44.86,44.86,0,0,1,3.67-17.86,46.19,46.19,0,0,1,9.78-14.67,46.9,46.9,0,0,1,14.43-9.79,44.39,44.39,0,0,1,18.1-3.66,45,45,0,0,1,17.85,3.66,45,45,0,0,1,24.46,24.46,44.86,44.86,0,0,1,3.67,17.86,44.3,44.3,0,0,1-3.67,18.1,47.17,47.17,0,0,1-9.78,14.43,46.41,46.41,0,0,1-14.68,9.78A45,45,0,0,1,926.23,140.09ZM889.54,402.27V162.59h73.37V402.27Z"/><path class="cls-1" d="M1088.14,189H1093q8.31-14.17,25.68-24.21t43.78-10a107.87,107.87,0,0,1,44,9.3,112.84,112.84,0,0,1,36.93,26.17,125.4,125.4,0,0,1,25.2,40.35q9.28,23.47,9.29,51.85t-9.29,51.85a125.51,125.51,0,0,1-25.2,40.35,113,113,0,0,1-36.93,26.18,107.86,107.86,0,0,1-44,9.29q-26.41,0-43.78-10T1093,375.86h-4.89L1093,410.1v97.83h-73.37V162.59h68.48Zm58.21,34.24a60,60,0,0,0-22.26,4.16,56.15,56.15,0,0,0-18.59,12A56.92,56.92,0,0,0,1092.79,258a61,61,0,0,0-4.65,24.46,62.72,62.72,0,0,0,4.65,24.7,53.69,53.69,0,0,0,12.71,18.59,57.94,57.94,0,0,0,18.59,11.74,61.61,61.61,0,0,0,44.51,0,57.94,57.94,0,0,0,18.59-11.74,53.85,53.85,0,0,0,12.72-18.59,63.08,63.08,0,0,0,4.65-24.7,61.32,61.32,0,0,0-4.65-24.46,57.1,57.1,0,0,0-12.72-18.58,56.15,56.15,0,0,0-18.59-12A60,60,0,0,0,1146.35,223.24Z"/><path class="cls-1" d="M1316.57,162.59h68.48v30.33h4.89q9.78-15.66,27.88-26.91a74.46,74.46,0,0,1,40.11-11.25,73.56,73.56,0,0,1,23,3.23,75.44,75.44,0,0,1,16.14,7.19L1478,230.58a65,65,0,0,0-13.45-5.38q-7.1-1.95-18.35-2-27.39,0-41.82,19.08t-14.43,49.89V402.27h-73.37Z"/><path class="cls-1" d="M1660.44,380.75h-4.89a107,107,0,0,1-26.66,21q-14.92,8.31-38.4,8.32a97.36,97.36,0,0,1-34-5.87,85.9,85.9,0,0,1-27.89-16.63,76.86,76.86,0,0,1-18.83-25.93,81,81,0,0,1-6.85-33.75,73.85,73.85,0,0,1,7.34-33,79,79,0,0,1,20-25.68,91.28,91.28,0,0,1,30.09-16.63,117.76,117.76,0,0,1,37.91-5.87q22,0,36.44,2.94a201.11,201.11,0,0,1,25.68,6.84v-6.35q0-15.66-13-26.66t-35-11q-31.8,0-54.78,25.93l-49.9-35.22q20.55-24.47,47.7-36.44t59.92-12q58.69,0,88.53,26.17t29.84,79.49V402.27h-73.37Zm0-72.88a150.6,150.6,0,0,0-22.26-6.85,104.52,104.52,0,0,0-22.74-2.45q-19.57,0-29.35,8.07a25.72,25.72,0,0,0-9.79,20.79q0,12.74,9.3,20.3t24.46,7.58a53.88,53.88,0,0,0,21.77-4.16,46.77,46.77,0,0,0,15.89-11,45.92,45.92,0,0,0,9.54-15.41A48.15,48.15,0,0,0,1660.44,307.87Z"/><path class="cls-1" d="M1784.68,52h73.37V230.09h4.89l68.48-67.5h89.52v4.89l-86.58,83.15,95.38,146.75v4.89h-86.09L1882.51,301l-24.46,23.48v77.77h-73.37Z"/><path class="cls-1" d="M2095.77,140.09a44.47,44.47,0,0,1-18.1-3.67,46.3,46.3,0,0,1-24.21-24.21,44.47,44.47,0,0,1-3.67-18.1,45,45,0,0,1,3.67-17.86,46.22,46.22,0,0,1,9.79-14.67,47,47,0,0,1,14.42-9.79,44.46,44.46,0,0,1,18.1-3.66,45,45,0,0,1,17.86,3.66,45,45,0,0,1,24.45,24.46,44.86,44.86,0,0,1,3.67,17.86,44.3,44.3,0,0,1-3.67,18.1,47,47,0,0,1-9.78,14.43,46.36,46.36,0,0,1-14.67,9.78A45,45,0,0,1,2095.77,140.09Zm-36.68,262.18V162.59h73.37V402.27Z"/><path class="cls-2" d="M2702.3,254.3a242.39,242.39,0,0,1-195.56,238c-4.29.85-8.62,1.59-13,2.18a242.59,242.59,0,0,1-34,2.39q-8.18,0-16.21-.56c76.75-1.11,12.67-40.81,21.89-47.36h0c55.5-2.58,101.35-37.89,111.88-85.76,2.42-11,1.57-21.1-6.14-29.27-6.35-6.74-6.24-9.27,2.79-13.38,47.9-21.81,73.33-70.91,63.72-121.4-9.88-51.89-53.16-90.94-105.39-92.9-27.18-1-54.29,1.62-71.18,28.21a0,0,0,0,0,0,0c-6.65-15.27-2.73-31.31-3-46.95-.24-14.24-.58-26.13-20.29-19.83-3.47,1.11-8.21,1.22-10.29-2.79-2.4-4.65,2.44-6.58,4.91-9.13,5.88-6,14-10.19,17.5-21.63-13.53,5.16-25,10.44-37.68,9.32-3.73-.35-8.26.53-10.38-3.3-2.46-4.37,1.76-7,4.16-9.67,4.42-4.93,8.63-10,12.7-15.2a241.15,241.15,0,0,1,41-3.48c114,0,209.58,78.61,235.55,184.56A242.43,242.43,0,0,1,2702.3,254.3Z"/><path class="cls-3" d="M2465.44,448.93h0l-4.74-1.25h0c-1.31,0-2.6,0-3.9,0-48-.92-86.91-18.83-110.65-63.17-14.43-27-12.5-38.4,6.85-60.36-76.12-24-89.7-105.31-65.5-154.49,23.11-46.95,80.53-73.22,130.47-57.86,16.19,5,30.53,12.65,37,29.89l2.67-3.13,3.51-4.1a0,0,0,0,0,0,0c-6.65-15.27-2.73-31.31-3-46.95-.24-14.24-.58-26.13-20.29-19.83-3.47,1.11-8.21,1.22-10.29-2.79-2.4-4.65,2.44-6.58,4.91-9.13,5.88-6,14-10.19,17.5-21.63-13.53,5.16-25,10.44-37.68,9.32-3.73-.35-8.26.53-10.38-3.3-2.46-4.37,1.76-7,4.16-9.67,4.42-4.93,8.63-10,12.7-15.2-4.55.74-9,1.65-13.47,2.67a242.59,242.59,0,0,0,5.49,474q6.12,1.25,12.35,2.21c3.56.54,7.16,1,10.79,1.37q4.79.52,9.65.82C2520.3,495.18,2456.22,455.48,2465.44,448.93Zm-9.74,28.92s0,0,0-.05,0,0,0,0S2455.72,477.85,2455.7,477.85Zm2.21-3.35s0,0,0,.05v-.08h0S2457.93,474.5,2457.91,474.5Z"/><path class="cls-4" d="M2574,320.52c47.9-21.81,73.33-70.91,63.72-121.4-9.88-51.89-53.16-90.94-105.39-92.9-27.18-1-54.29,1.62-71.18,28.21l-3.51,4.1-2.67,3.13a56.49,56.49,0,0,1,1.56,6c1.78,8.76,1.59,17.72,1.59,26.65q0,121.14,0,242.27c0,8.78-.13,17.58,1.49,26.23.11.63.24,1.26.38,1.89.21,1,.45,2,.73,3l4.74,1.25h0c55.5-2.58,101.35-37.89,111.88-85.76,2.42-11,1.57-21.1-6.14-29.27C2564.83,327.16,2564.94,324.63,2574,320.52Zm-83.43-59c21.5-18.28,49.88-18.2,74,.07C2560,261.16,2528.43,246.58,2490.54,261.47Z"/><path class="cls-5" d="M2564.51,261.54c-4.51-.38-36.08-15-74-.07C2512,243.19,2540.42,243.27,2564.51,261.54Z"/><path class="cls-4" d="M2460,444.71c-.14-.63-.27-1.26-.38-1.89-1.62-8.65-1.49-17.45-1.49-26.23q0-121.12,0-242.27c0-8.93.19-17.89-1.59-26.65a56.49,56.49,0,0,0-1.56-6c-6.44-17.24-20.78-24.91-37-29.89-49.94-15.36-107.36,10.91-130.47,57.86-24.2,49.18-10.62,130.46,65.5,154.49-19.35,22-21.28,33.41-6.85,60.36,23.74,44.34,62.64,62.25,110.65,63.17,1.3,0,2.59,0,3.9,0h0C2460.42,446.7,2460.18,445.71,2460,444.71ZM2338.48,260.39c21.5-18.27,49.88-18.19,74,.07C2407.93,260.08,2376.36,245.52,2338.48,260.39Z"/><path class="cls-6" d="M2412.44,260.46c-4.51-.38-36.08-14.94-74-.07C2360,242.12,2388.36,242.2,2412.44,260.46Z"/><path class="cls-2" d="M2412.44,260.46c-4.51-.38-36.08-14.94-74-.07C2360,242.12,2388.36,242.2,2412.44,260.46Z"/><path class="cls-2" d="M2564.51,261.54c-4.51-.38-36.08-15-74-.07C2512,243.19,2540.42,243.27,2564.51,261.54Z"/></svg>